<?xml version="1.0" encoding="utf-8"?>
<!-- Generator: Adobe Illustrator 23.0.3, SVG Export Plug-In . SVG Version: 6.00 Build 0)  -->
<svg version="1.1" xmlns="http://www.w3.org/2000/svg" xmlns:xlink="http://www.w3.org/1999/xlink" x="0px" y="0px"
	 viewBox="0 0 707.4 86.3" style="enable-background:new 0 0 707.4 86.3;" xml:space="preserve">
<style type="text/css">
	.st0{fill:#A95E10;}
	.st1{fill:#E18600;}
	.st2{fill:#FFA726;}
	.st3{fill:#FFB245;}
	.st4{fill:#5E2F18;}
	.st5{opacity:0.46;fill:#823A16;}
	.st6{opacity:0.45;fill:#894D24;}
	.st7{fill:#C97300;}
	.st8{fill:#9B451F;}
	.st9{fill:#913C22;}
	.st10{fill:#3D1600;}
	.st11{fill:#A5502F;}
	.st12{fill:#81350E;}
	.st13{fill:#451804;}
	.st14{fill:#6B280B;}
	.st15{fill:#732A01;}
	.st16{fill:#662808;}
	.st17{fill:#56200B;}
	.st18{opacity:0.65;fill:#3D1600;}
	.st19{fill:#5D1E03;}
	.st20{fill:#8EBD22;}
	.st21{fill:#8ABD00;}
	.st22{fill:#438B2C;}
	.st23{fill:#548C2E;}
	.st24{fill:#D50029;}
	.st25{fill:#F01141;}
	.st26{fill:#FF3E56;}
	.st27{fill:#C00001;}
	.st28{fill:#FF682A;}
	.st29{fill:#3E5072;}
	.st30{fill:#3F4269;}
	.st31{fill:#282A4E;}
	.st32{opacity:0.48;fill:#282A4E;}
	.st33{opacity:0.48;fill:#6179AA;}
	.st34{fill:#332F48;}
	.st35{fill:#C40C38;stroke:#BF0008;stroke-width:0.2149;stroke-miterlimit:10;}
	.st36{fill:#C9001F;}
	.st37{fill:#AF043D;}
	.st38{fill:#C10024;}
	.st39{fill:#FB0030;}
	.st40{fill:#D20029;stroke:#BF0008;stroke-width:0.2547;stroke-miterlimit:10;}
	.st41{fill:#E7002F;}
	.st42{fill:#FF527C;}
	.st43{fill:#C20024;}
	.st44{fill:#FE002E;}
	.st45{fill:#D20029;stroke:#BF0008;stroke-width:0.2149;stroke-miterlimit:10;}
	.st46{fill:#F7001F;}
	.st47{fill:#FF2F68;}
	.st48{fill:#F10023;}
	.st49{fill:#FF3769;}
	.st50{fill:#E20016;}
	.st51{fill:#F5001E;}
	.st52{fill:#FF3767;}
	.st53{fill:#FF3168;}
	.st54{fill:#BC1D4A;}
	.st55{fill:#E40019;}
	.st56{fill:#FF316B;}
	.st57{fill:#C50029;}
	.st58{fill:#FF486D;}
	.st59{fill:#F3001E;}
	.st60{fill:#FD0034;}
	.st61{fill:#FF4C71;}
	.st62{fill:#C60029;}
	.st63{fill:#FF3368;}
	.st64{fill:#EA1347;}
	.st65{fill:#CE0D44;}
	.st66{opacity:0.58;fill:#FC3D74;}
	.st67{fill:#FFFFFF;stroke:#CE0D44;stroke-width:0.9774;stroke-miterlimit:10;}
	.st68{fill:none;stroke:#E7A100;stroke-miterlimit:10;}
	.st69{fill:#E7A100;}
	.st70{fill:#CC8A06;}
	.st71{fill:#F2AA19;}
	.st72{fill:#BCEDEC;}
	.st73{fill:#514C48;}
	.st74{opacity:0.23;fill:#6B6867;}
	.st75{fill:#6B6867;}
	.st76{fill:#635E5A;}
	.st77{fill:#FFFFFF;stroke:#BCEDEC;stroke-miterlimit:10;}
	.st78{fill:none;}
	.st79{fill:#542A29;}
	.st80{fill:#733936;}
	.st81{fill:#603131;}
	.st82{fill:#E5CA2E;}
	.st83{fill:#FDEA36;}
	.st84{fill:#CCB025;}
	.st85{fill:#F4D93B;}
</style>
<g id="Cookie_1_">
	<path class="st0" d="M152.1,3.5l-0.6,0.8V5c0.3,0.5,2.8,4.5-1,8.6c-0.4,0.4-0.8,1.1-0.9,1.1c-0.1,0,0,1.9-2.6,3.8
		c0.4,1.4,0.4,3.1-0.3,4.9c-1.1,0.4-1.8,0.7-2.4,3.4c-0.6,0.5-2.8,1.7-3.9,1.6s-6.9,0.3-7.5,1.8c-2,0.3-6.6-0.2-6.9-0.4
		c-1,0.3-0.2,0.9-1.8,0.7c-1.7-0.2-3.3-0.7-4.3,0.3c-1,0.9-3.7,0.5-4,0.3c-0.4-0.2-1.3-0.5-1.3-0.5l-1.8,1.2l33.8,7.6l12.3-19.8
		L157.1,7L152.1,3.5z"/>
	<g id="Cookie">
		<path class="st1" d="M184.5,32.6c-0.4-0.5-0.7-1-1-1.5c-0.9-1.7-0.7-3.5-1.2-5.3c-0.1-0.5-0.3-0.9-0.5-1.4
			c-0.1-0.2-0.2-0.4-0.3-0.6c-0.1-0.1-0.1-0.3-0.2-0.4c-0.1-0.2-0.2-0.4-0.3-0.6c-1.3-2.2-3-4.2-4.3-6.4c-6-7.1-14.7-11.9-24.5-12.9
			c0.1,0.4,0.1,0.8,0.1,1.1c1,1.6,0.9,3.7,0.6,5.7c-0.3,2-1.5,3.2-2.8,4.3c0,0.5-0.1,0.9-0.2,1.3c-0.4,1.1-1.4,1.8-2.2,2.7
			c0.2,1.1,0.2,2.3-0.1,3.5c-0.2,0.9-0.7,1.7-1.4,2.4c-0.4,0.6-0.5,1-1,1.7c-0.5,0.6-0.3,1.2-0.4,1.2c-1.1,0.2-3.4,1.7-4.7,1.3
			c-0.6-0.1-1.6,0.2-1.6,0.2c-0.2,0-0.5,0.1-0.5,0.1c-0.2,0.1-1.7,0.3-2,0.6c-1,0.2-1.9,0.6-2.9,0.8c-2.2,0.4-5.3,0-7.5,0
			c-0.3,0.3-0.6,0.5-1,0.6c-0.8-0.1-1.5-0.2-2.2-0.4c-1.4,0.2-2.2,1.5-3.5,1.8c-1.1,0.2-2.3-0.5-3.4-0.8c-0.8,0.2-1.6,0.2-2.5,0.2
			c-0.6,2.6-0.9,5.3-0.9,8.1c0,2.2,0.2,4.3,0.6,6.4c1,2,1.8,4.1,1.8,6.4c0,0.1,0,0.2,0,0.3c0.2,0.5,0.4,1.1,0.6,1.6
			c1.3,1.5,2.3,3.4,2.8,5.2c2.7,4.2,6.3,7.9,10.5,10.7c1.3,0,2.7,0.1,4,0.4c3.2,0.8,5.9,2.6,8.2,4.8c2.6,0.6,5.3,0.9,8.1,0.9
			c3.6,0,7-0.5,10.3-1.5c0.9-0.4,1.7-0.8,2.6-1.2c2-0.8,4-1.6,6-2.6c1-0.6,1.9-1.2,2.8-1.9c1.2-1.3,1.9-2.8,3.4-3.9
			c0.6-0.5,1.4-0.8,2.1-1.1c5.9-6.5,9.5-15.1,9.5-24.6C185.2,37.5,185,35,184.5,32.6z"/>
		<path class="st0" d="M111.9,40c0,2.2,0.2,4.3,0.6,6.4c1,2,1.8,4.1,1.8,6.4c0,0.1,0,0.2,0,0.3c0.2,0.5,0.4,1.1,0.6,1.6
			c1.3,1.5,2.3,3.4,2.8,5.2c2.7,4.2,6.3,7.9,10.5,10.7c1.3,0,2.7,0.1,4,0.4c3.2,0.8,5.9,2.6,8.2,4.8c2.6,0.6,5.3,0.9,8.1,0.9
			c3.6,0,7-0.5,10.3-1.5c0.9-0.4,1.7-0.8,2.6-1.2c2-0.8,4-1.6,6-2.6c1-0.6,1.9-1.2,2.8-1.9c1.2-1.3,1.9-2.8,3.4-3.9
			c0.6-0.5,1.4-0.8,2.1-1.1c5.9-6.5,9.5-15.1,9.5-24.6c0-2.5-0.3-5-0.7-7.3c-0.4-0.5-0.7-1-1-1.5c-0.9-1.7-0.7-3.5-1.2-5.3
			c-0.1-0.5-0.3-0.9-0.5-1.4c-0.1-0.2-0.2-0.4-0.3-0.6c-0.1-0.1-0.1-0.3-0.2-0.4c-0.1-0.2-0.2-0.4-0.3-0.6c-1.3-2.2-3-4.2-4.3-6.4
			c-6-7.1-14.7-11.9-24.5-12.9c0.1,0.4,0.1,0.8,0.1,1.1c1,1.6,0.9,3.7,0.6,5.7c-0.1,0.8-0.4,1.5-0.8,2.1c1.3,0.7,3.1,1.2,4.1,0.5
			c1.6-1.2,0.8-4.8,6.1-4.6s14.8,12,17.1,15.2c-0.6,2.3,1.1,8.5,2.9,9.8c6.8,5.1-5.8,28.1-7.1,28.9s-3.1-0.6-5-1.1
			c0.5,1.1,0.1,3.4,0,5.2c-4.1,6.8-22.2,11.5-27.4,7.4c-2.4-0.6-3.9-8.4-5.2-8.8s-5.4,1.4-8.6,2.6c-3.2,0-7.1-5.7-9.8-10.3
			c-2.7-4.7-2.5-7.9,2.6-12c-1.1,0.2-5.9,3.1-7.4,0.5c-1.2-2.2-0.6-8.4,0.8-14c-0.8,0.1-1.6,0.2-2.4,0.2
			C112.2,34.5,111.9,37.2,111.9,40z"/>
		<path class="st1" d="M182.3,33.3c-1.8-1.2-3.5-7.5-2.9-9.8c-2.4-3.2-11.8-15.1-17.1-15.2s-4.5,3.4-6.1,4.6c-1,0.8-2.8,0.2-4.1-0.5
			c-0.5,0.8-1.3,1.5-2,2.2c0,0.5-0.1,0.9-0.2,1.3c-0.2,0.7-0.7,1.2-1.1,1.7c2-0.9,4.5-1.3,7.1-0.1c6.2,3.1,10.2,2.1,13.9,2.2
			s0.2,7.4,3,8.4s5.2,3.7,6.1,6.1c1.5,3.6,0.8,8,0,10.1c-0.9,2.4-5.1,3.1-6.6,8.9c-1.3,7.5-3.5,11.6-9,13.4
			c-6.1,0.5-2.9-2.1-15.2-2.1s-11.9-6-15.8-8.8s1.9-9.2-3.5-10.6c-10.1-2.6-5.7-10.8-3.1-14.8c0,0,0,0,0,0c-0.3,0.3-0.6,0.5-1,0.6
			c-0.8-0.1-1.5-0.2-2.2-0.4c-1.4,0.2-2.2,1.5-3.5,1.8c-1.1,0.2-2.3-0.5-3.4-0.8c0,0-0.1,0-0.1,0c-1.4,5.6-2,11.8-0.8,14
			c1.5,2.7,3.7,1.7,4.8,1.4c-1,2.2-2.7,5.5,0,10.2c2.7,4.7,6.5,10.3,9.8,10.3c3.2-1.2,7.2-3,8.6-2.6s2.9,8.1,5.2,8.8
			c5.1,4.1,23.2-0.6,27.4-7.4c0.1-1.9,0.5-4.1,0-5.2c1.9,0.5,3.6,1.9,5,1.1S189,38.4,182.3,33.3z"/>
		<path class="st2" d="M128.7,45.2c5.4,1.4-0.4,7.9,3.5,10.6s3.4,8.8,15.8,8.8s9.1,2.6,15.2,2.1c5.5-1.8,7.7-5.9,9-13.4
			c1.5-5.8,5.8-6.5,6.6-8.9c0.8-2.1,1.5-6.5,0-10.1c-1-2.4-3.4-5.1-6.1-6.1s0.6-8.2-3-8.4s-7.6,0.9-13.9-2.2c-2.6-1.3-5-0.9-7.1,0.1
			c-0.3,0.3-0.7,0.7-1,1c0.2,1.1,0.2,2.3-0.1,3.5c-0.2,0.9-0.7,1.7-1.4,2.4c-0.4,0.6-0.5,1-1,1.7c-0.5,0.6-0.3,1.2-0.4,1.2
			c-1.1,0.2-3.4,1.7-4.7,1.3c-0.6-0.1-1.6,0.2-1.6,0.2c-0.2,0-0.5,0.1-0.5,0.1c-0.2,0.1-1.7,0.3-2,0.6c-1,0.2-1.9,0.6-2.9,0.8
			c-2.2,0.4-5.3,0-7.5,0C123,34.4,118.6,42.6,128.7,45.2z"/>
		<path class="st3" d="M137.2,38.8c1.8-0.7,5-1.4,5.3,0.1c0.3,1.5,0.8,3,2.7,4.2c1.8,1.2,10.9,0.2,12.5-1.4c3.7-3.6,1-7.3,1.8-10.8
			s-5.9-7-7.8-11c-0.6-1.3-1.7-2.1-3.1-2.3c-0.3,0.3-0.7,0.6-1,1c0.2,1.1,0.2,2.3-0.1,3.5c-0.2,0.9-0.7,1.7-1.4,2.4
			c-0.4,0.6-0.5,1-1,1.7c-0.5,0.6-0.3,1.2-0.4,1.2c-1.1,0.2-3.4,1.7-4.7,1.3c-0.6-0.1-1.6,0.2-1.6,0.2c-0.2,0-0.5,0.1-0.5,0.1
			c-0.2,0.1-1.7,0.3-2,0.6c-1,0.2-1.9,0.6-2.9,0.8c-0.1,0-0.2,0-0.3,0c-0.2,0.5-0.4,1.1-0.4,1.8C132.2,37.7,135.4,39.5,137.2,38.8z"
			/>
	</g>
	<g id="choco_chips">
		<g id="chip">
			<path class="st4" d="M135.6,65.1c-0.4-2-0.1-3.9,1.3-5.7c1.1-0.6,3.7-0.8,4.7-0.2s-0.3,4.5,0,6C141.9,66.6,136.1,67.6,135.6,65.1
				z"/>
			<path class="st5" d="M137.2,59.7c-0.9,1.2-1.4,2.2-1.2,3.8c0.7,0.3,4.4,0.3,4.7-0.5s0.8-3.7,0.7-3.7S138.2,58.8,137.2,59.7z"/>
			<path class="st6" d="M137.5,59.8c-0.5,0.8-0.8,1.2-0.8,1.7c0,0.4,3.4,0.2,3.7-0.2c0.2-0.4,0.5-1.6,0.2-1.7
				C140.3,59.5,137.8,59.3,137.5,59.8z"/>
		</g>
		<g id="chip_1_">
			<path class="st4" d="M155,43.7c-0.3-1.4-0.1-2.7,1-3.9c0.8-0.4,2.5-0.5,3.2-0.1c0.7,0.4-0.3,3.1,0,4.1
				C159.4,44.8,155.4,45.4,155,43.7z"/>
			<path class="st5" d="M156.2,40.1c-0.6,0.9-1,1.5-0.9,2.6c0.5,0.2,3,0.2,3.3-0.3s0.6-2.5,0.5-2.5
				C158.9,39.8,156.8,39.4,156.2,40.1z"/>
			<path class="st6" d="M156.4,40.1c-0.4,0.5-0.6,0.9-0.6,1.1c0,0.3,2.3,0.2,2.5-0.1c0.2-0.3,0.4-1.1,0.2-1.1
				C158.3,39.9,156.6,39.7,156.4,40.1z"/>
		</g>
		<g id="chip_2_">
			<path class="st4" d="M133.8,38.6c-0.6-0.8-0.9-1.7-0.7-2.8c0.3-0.5,1.4-1.2,2-1.2c0.5,0,0.9,2,1.4,2.6
				C136.9,37.8,134.6,39.6,133.8,38.6z"/>
			<path class="st5" d="M133.3,35.9c-0.1,0.7-0.1,1.3,0.3,1.9c0.4,0,2-0.9,1.9-1.3c0-0.4-0.5-1.8-0.5-1.7S133.5,35.3,133.3,35.9z"/>
			<path class="st6" d="M133.4,35.9c-0.1,0.5-0.1,0.7,0,0.9c0.1,0.2,1.5-0.7,1.5-0.9c0-0.2-0.1-0.8-0.3-0.8S133.5,35.6,133.4,35.9z"
				/>
		</g>
		<g id="triangle">
			<path class="st4" d="M117.6,47.6c-0.4-2,2.2-1.8,4.3-2.7c0.4,1.4,0.1,3-0.4,4.2C121,50.5,118.2,50.1,117.6,47.6z"/>
			<path class="st5" d="M121.7,45.4c-1.6,0.2-3.3,0.8-3.4,1.7s1.1,2.5,2.2,2.2C121.6,49.1,121.9,46.9,121.7,45.4z"/>
			<path class="st6" d="M121.3,45.7c-0.6-0.1-1.8,0.3-1.9,0.7c-0.1,0.4,1.1,1.8,1.6,1.3S121.7,46.2,121.3,45.7z"/>
		</g>
		<g id="triangle_1_">
			<path class="st4" d="M160.5,68.9c-1.8-1,0.1-2.9,0.8-5c1.3,0.6,2.3,1.9,2.9,3C165,68.3,162.7,70.2,160.5,68.9z"/>
			<path class="st5" d="M161.5,64.4c-0.9,1.3-1.6,3.1-1,3.7c0.5,0.6,2.6,0.8,3.1-0.2C164.2,67,162.8,65.3,161.5,64.4z"/>
			<path class="st6" d="M161.5,65c-0.4,0.4-0.9,1.6-0.7,1.8s2.1,0.3,2.1-0.3C162.9,65.8,162.1,65,161.5,65z"/>
		</g>
		<g id="circle">
			<path class="st4" d="M139.2,48.4c-0.8,0.7-1.7,3.9,0.9,3.9c1.6,0,1.2-1.5,1.6-1.7c0.6,0.1,1.2-1.3,1.1-1.7
				C142.7,48.5,141.5,46.4,139.2,48.4z"/>
			<path class="st5" d="M139.3,48.6c-0.5,0.4-0.8,2.3-0.2,2.6s1.8,0.2,2-0.7s0.6-0.5,0.8-0.6s0.8-0.7,0.5-1.1S141.2,46.9,139.3,48.6
				z"/>
			<path class="st6" d="M140.6,48.2c-0.6,0-1.2,0.7-1.2,1s1,0.8,1.4,0.6s0.8,0.1,1-0.1S142.4,48.3,140.6,48.2z"/>
		</g>
		<g id="circle_1_">
			<path class="st4" d="M154.5,22c-0.9,0.6-2.1,3.7,0.4,3.9c1.6,0.2,3.2-2.7,3.1-3.1C158,22.6,157.1,20.3,154.5,22z"/>
			<path class="st5" d="M154.6,22.3c-0.5,0.4-1,2.1-0.4,2.6c1.4,1.3,3.8-1.5,3.5-1.9C157.4,22.6,156.7,20.8,154.6,22.3z"/>
			<path class="st6" d="M155.9,22c-0.6-0.1-1.3,0.6-1.3,0.9c0,0.3,0.9,0.9,1.3,0.7c0.4-0.2,0.8,0.2,1,0
				C157.2,23.5,157.7,22.3,155.9,22z"/>
		</g>
		<g id="circle_2_">
			<path class="st4" d="M155.4,59c-0.5,0.3-1.1,1.9,0.2,2.1c0.8,0.1,1.6-1.4,1.6-1.6C157.2,59.3,156.7,58.1,155.4,59z"/>
			<path class="st5" d="M155.5,59.1c-0.3,0.2-0.5,1.1-0.2,1.4c0.7,0.7,2-0.8,1.8-1C156.9,59.2,156.6,58.3,155.5,59.1z"/>
			<path class="st6" d="M156.1,58.9c-0.3-0.1-0.7,0.3-0.7,0.5s0.5,0.5,0.7,0.4s0.4,0.1,0.5,0S157.1,59.1,156.1,58.9z"/>
		</g>
		<g id="circle_3_">
			<path class="st4" d="M171.8,32c-0.5,0.3-1.1,1.9,0.2,2.1c0.8,0.1,1.6-1.4,1.6-1.6C173.6,32.3,173.2,31.1,171.8,32z"/>
			<path class="st5" d="M171.9,32.1c-0.3,0.2-0.5,1.1-0.2,1.4c0.7,0.7,2-0.8,1.8-1C173.3,32.3,173,31.4,171.9,32.1z"/>
			<path class="st6" d="M172.6,32c-0.3-0.1-0.7,0.3-0.7,0.5c0,0.2,0.5,0.5,0.7,0.4s0.4,0.1,0.5,0S173.5,32.1,172.6,32z"/>
		</g>
		<g id="circle_4_">
			<path class="st4" d="M172,28c-0.1,0.9,1.3,3.5,2.9,1.9c1-1,0-3.6-0.3-3.8C174.4,26,172.3,25.3,172,28z"/>
			<path class="st5" d="M172.2,28.1c-0.1,0.6,0.9,1.8,1.5,1.8c1.7-0.2,1.1-3.4,0.7-3.4C174,26.4,172.5,25.9,172.2,28.1z"/>
			<path class="st6" d="M172.8,27.1c-0.4,0.3-0.4,1.2-0.1,1.4s1.1-0.1,1.2-0.5s0.6-0.5,0.6-0.7S174,26,172.8,27.1z"/>
		</g>
		<g id="triangle_2_">
			<path class="st4" d="M158.6,15.8c-1.3-1.5,1.1-2.7,2.5-4.4c1,1.1,1.5,2.6,1.7,3.8C163,16.7,160.3,17.7,158.6,15.8z"/>
			<path class="st5" d="M161.1,11.9c-1.3,0.9-2.5,2.3-2.2,3.1c0.3,0.8,2.1,1.6,3,0.9C162.8,15.2,162.1,13.1,161.1,11.9z"/>
			<path class="st6" d="M160.9,12.4c-0.5,0.2-1.4,1.1-1.3,1.5c0.1,0.4,1.8,1,2.1,0.4C161.9,13.7,161.5,12.6,160.9,12.4z"/>
		</g>
		<g id="circle_5_">
			<path class="st4" d="M173.2,49.4c-1.1,0.2-3.4,2.6-1.1,3.8c1.4,0.8,1.8-0.7,2.3-0.7c0.5,0.4,1.7-0.6,1.8-0.9
				C176.2,51.3,176.2,48.8,173.2,49.4z"/>
			<path class="st5" d="M173.2,49.7c-0.6,0.1-1.8,1.6-1.4,2.2s1.5,1,2,0.3c0.6-0.7,0.7-0.1,1-0.1s1.1-0.2,0.9-0.7
				S175.7,49.1,173.2,49.7z"/>
			<path class="st6" d="M174.5,49.9c-0.5-0.3-1.4,0-1.5,0.3s0.5,1.2,1,1.2c0.5,0,0.7,0.4,0.9,0.4C175.1,51.8,176.1,50.9,174.5,49.9z
				"/>
		</g>
	</g>
	<g id="cracks">
		<path class="st7" d="M144.8,73.7c0.6-1.3-0.2-1.3,0.3-2.1s1.2-1.5,1.2-2c-0.2,1.6-1,2.2-1,2.5s0.2,1.4,0.2,1.6
			c0,0.2-0.6,1.1-0.6,1.1S144.6,74.1,144.8,73.7z"/>
		<path class="st7" d="M149.6,71.5c0.2-0.4,1.1-0.6,1.1-0.7c0.1-0.1,0.6-0.6,0.6-0.8c0-0.2,0.7-0.8,0.7-0.8
			c-0.2,0.4-0.6,0.7-0.5,1.2s-0.7,0.7-0.7,0.7s-0.7,0.1-0.8,0.4c-0.1,0.3-0.9,0.9-0.9,0.9L149.6,71.5z"/>
		<path class="st7" d="M150.8,62.2c0.8,0.5,2.5,1.2,2.5,1.2s1.9-0.5,2.7-0.3c0.9,0.2,1.9-0.1,2.1-0.4c0.2-0.2,1.9-0.8,1.9-0.8
			c-1.3,0.8-1.6,1-1.9,1.5c-0.3,0.5-2.6,0.3-2.9,0c-0.4-0.3-1.5,0.3-1.9,0.5S150.8,62.2,150.8,62.2z"/>
		<path class="st7" d="M124.4,55.4l-1.7,3.2c0,0,2.8,1.7,3.4,3.3s3.2,0.2,4,0.5c0.8,0.4,0.9,1.3,1.7,1.3s1.1-1.1,1.4-1
			c-1-0.1-0.7,1.4-2.8-0.8c-1.7,0.1-2.8,0.5-3.5,0s-2.4-2.9-3.3-3.1S124.4,55.4,124.4,55.4z"/>
		<path class="st7" d="M125.2,50.9c0,0,1,1.2,1,2c0,0.8-0.8,2.3-0.8,2.8c0,0.5,1.2,2.3,1.2,2.3c-0.4-1.2-0.9-2.1-0.3-3.2
			C127,53.8,126.7,52.2,125.2,50.9z"/>
		<path class="st7" d="M153.4,50.5c0.7,0.6,3.2,0,4.3,0c1.1,0,3.3,0.8,4,1.3s3.4-2.7,4.4-2.3c-1.6-0.5-2.9,1.3-3.6,1.5
			c-0.6,0.3-4.7-1-4.7-1l-2.6,0.4c0,0-1.9-0.2-2-1S153.4,50.5,153.4,50.5z"/>
		<path class="st7" d="M161.3,33.1c0.3-0.9,0.3-2.2-0.8-2.7c0-0.3,0.2-1.1,0.6-1.6c0.4-0.6,0.4-2.5,0.3-2.7
			c-0.2-0.6,0.3-2.8,0.6-3.1c-0.8,0.7-0.7,3.1-0.7,3.6s-0.4,1.9-0.4,1.9l-0.8,1.7l0,0c-0.3-0.1-0.7-0.1-1.1-0.1
			c-2.6,0-4.4-1.1-5.1-2.5c0,0.8,1.1,2.1,2.2,2.3c1.1,0.3,4,0.6,4,0.6s1.1,0.7,1.1,1.4c0,0.7-0.6,2.3-0.4,2.6c0.1,0.4,0.8,1,1,1.2
			C161.3,34.8,160.8,34.3,161.3,33.1z"/>
		<path class="st7" d="M178.9,37.3c-0.5,0.4-0.8,1.7-1.2,2.4c-0.5,0.7,0.2,2.2-0.8,3.1c-1.1,0.9-3.8,2.2-3.8,2.2l-0.4,1.5
			c0,0,0.6-1.9,2.3-2.1s2.8-2,2.8-2l0.1-2l1-3.5"/>
	</g>
	<g id="circles">
		<circle class="st7" cx="122.3" cy="51" r="0.5"/>
		<circle class="st7" cx="120.5" cy="50.8" r="0.2"/>
		<ellipse class="st7" cx="120" cy="53.8" rx="0.5" ry="0.4"/>
		<circle class="st7" cx="132.2" cy="39.5" r="0.6"/>
		<circle class="st7" cx="134.4" cy="40.2" r="0.2"/>
		<circle class="st7" cx="131.8" cy="42.8" r="1"/>
		<circle class="st7" cx="122.2" cy="41" r="0.4"/>
		<circle class="st7" cx="123.4" cy="41.6" r="0.1"/>
		<circle class="st7" cx="121.4" cy="42.4" r="0.4"/>
		<circle class="st7" cx="123.5" cy="43.1" r="0.1"/>
		<circle class="st7" cx="128.3" cy="44.7" r="0.1"/>
		<ellipse class="st7" cx="136.9" cy="50.8" rx="0.1" ry="0"/>
		<circle class="st7" cx="137.7" cy="52.6" r="0.2"/>
		<ellipse class="st7" cx="137.5" cy="49.8" rx="0.3" ry="0.4"/>
		<ellipse class="st7" cx="136.3" cy="52" rx="0.2" ry="0.2"/>
		<circle class="st7" cx="141.9" cy="52.7" r="0.1"/>
		<ellipse class="st7" cx="144.8" cy="63.5" rx="1.1" ry="1"/>
		<circle class="st7" cx="145.8" cy="60.9" r="0.6"/>
		<circle class="st7" cx="144.3" cy="58.9" r="0.5"/>
		<circle class="st7" cx="172.8" cy="38.2" r="0.8"/>
		<circle class="st7" cx="173.6" cy="35.8" r="0.1"/>
		<circle class="st7" cx="170.3" cy="35.4" r="0.3"/>
		<circle class="st7" cx="151.6" cy="21" r="1"/>
		<circle class="st7" cx="150.8" cy="23.7" r="0.2"/>
		<circle class="st7" cx="149.7" cy="21.5" r="0.5"/>
		<circle class="st7" cx="163.1" cy="18.9" r="0.7"/>
		<circle class="st7" cx="163.7" cy="16.5" r="0.3"/>
		<circle class="st7" cx="166.1" cy="17.6" r="1"/>
		<circle class="st7" cx="160.7" cy="45.7" r="1"/>
		<circle class="st7" cx="160.9" cy="42.8" r="0.3"/>
		<circle class="st7" cx="170.6" cy="55.4" r="1.1"/>
		<circle class="st7" cx="172.3" cy="59.3" r="0.7"/>
		<circle class="st7" cx="173.3" cy="55.4" r="0.9"/>
		<circle class="st7" cx="169.7" cy="58.6" r="0.2"/>
		<circle class="st7" cx="170.7" cy="57.9" r="0.1"/>
		<circle class="st7" cx="176" cy="33.9" r="0.2"/>
		<circle class="st7" cx="142.3" cy="30.9" r="1"/>
		<ellipse class="st7" cx="139.4" cy="31.1" rx="0.6" ry="0.3"/>
		<circle class="st7" cx="140.6" cy="32.5" r="0.1"/>
		<circle class="st7" cx="128.8" cy="32" r="0.8"/>
		<circle class="st7" cx="131" cy="33" r="0.2"/>
		<circle class="st7" cx="138.8" cy="31.9" r="0.1"/>
		<circle class="st7" cx="140" cy="29.6" r="0.3"/>
		<circle class="st7" cx="153.1" cy="26.5" r="0.1"/>
		<circle class="st7" cx="156.3" cy="27.1" r="0.5"/>
	</g>
</g>
<g id="Chocolate">
	<g>
		<path class="st8" d="M0,53.8c0.3-0.8,0.8-1.5,1.4-2.3C4.3,46.9,19,28.5,21.6,25.7c3,0.6,15,3.3,23.5,5.9
			c-5,9.7-19.4,35.7-19.4,35.7C21.6,66.1,4.3,56.2,0,53.8z"/>
		<path class="st9" d="M21.5,27.9c-0.4,0.2-0.6,0.5-0.7,0.7c1.7,0.5,14,3.5,16.8,4.4c3.1,1,3-0.7,3-0.7S22.2,28.1,21.5,27.9z"/>
		<path class="st10" d="M25.6,67.2l4,8.7C23.1,74.8,2.2,63.4,1.4,62.1c-0.6-3.8-0.7-5.7-1.4-8.3C4.9,56.4,22.6,66.2,25.6,67.2z"/>
		<path class="st11" d="M40.2,32.7c0,0-1.3,0.5-2.6,0.4c-1.3,2.5-13.1,21.8-14,22.2c-1,2.1,0.1,1.5,0.3,2.9c0.3,1.4,5.6-5.7,5.6-5.7
			L40.2,32.7z"/>
		<path class="st12" d="M42,32.3c-1.6,4.8-16.4,29.4-17,30.1c-0.7-1.5-1.1-4.2-1.1-4.2c1.4-2.5,15.5-23.6,15.9-25.4
			c-3.4-1.2-15.4-3.9-18.2-4.8c0.2-0.1,1.2-0.6,1.3-0.6C23,27.4,42,32.3,42,32.3z"/>
		<path class="st13" d="M23.9,58.1c-2.4-0.2-19.4-7.8-20.2-8.3c-1,1.3-2.2,2.9-2.2,2.9S22.9,65.8,25,62.4
			C24.2,60.1,23.9,58.1,23.9,58.1z"/>
		<path class="st14" d="M5.5,47.5c-0.4,0.6-1.1,1.5-1.8,2.4c-1.3,1.6,18.8,10.6,20.2,8.3c-0.2-1-0.6-2.1-0.3-2.9
			C20.6,54.4,6,49.2,5.5,47.5z"/>
		<path class="st15" d="M35.3,34.3c0.2,1.7-9.7,15.5-12,18.9c-1.9,0.4-15.1-5.4-15.9-6.4c1.1-2.6,12.3-15.8,13.2-16.3
			C22.8,30.4,35.3,33.4,35.3,34.3z"/>
		<path class="st16" d="M19.9,27.6c0.4,0,2.1-0.4,2.8-0.2c-0.6,0.5-1.6,0.6-2,1.3C16.4,33.5,6.2,46.2,5.5,47.5
			c-1.4,1.9-3.2,4.2-3.9,5.2c-1,0.4-1.6,1.1-1.6,1.1c0.3-0.8,0.8-1.5,1.4-2.3C4.3,46.9,18.9,28.8,19.9,27.6z"/>
		<path class="st17" d="M25.6,67.2c0,0,14.4-25.9,19.4-35.7c3.9,1.2,6.2,1.8,7,2.6L29.6,75.9C27.6,71.8,26.7,69.6,25.6,67.2z"/>
	</g>
	<polygon class="st18" points="27.1,26.9 23.7,30.2 20.8,33.1 29.4,40 34.7,50 37.5,61.1 45.5,45.7 	"/>
	<g>
		<path class="st19" d="M48.1,53.5c0,0-12.1-26.2-16.8-37.5c-5,1.1-7.9,1.6-8.9,2.5l19.9,43.7C44.8,58.5,46.6,55.7,48.1,53.5z"/>
		<path class="st8" d="M75.9,41.3c-0.1-0.7-0.4-1.4-0.8-2.2c-1.9-4.5-13.3-24.5-15.5-27.9c-3.4,0.5-17.7,2.4-28.3,4.8
			C36,27.3,48.1,53.5,48.1,53.5C52.4,52.5,71.3,43.4,75.9,41.3z"/>
		<path class="st9" d="M59.2,13.8c0.4,0.3,0.6,0.6,0.7,0.8c-2,0.4-16.4,2.8-19.8,3.6c-3.8,1-3.4-1-3.4-1S58.4,14,59.2,13.8z"/>
		<path class="st10" d="M48.1,53.5l-5.8,8.7C49,61.1,71.9,50,72.8,48.9c2.9-3.8,3.5-5.8,3.1-7.6C70.7,43.6,51.4,52.5,48.1,53.5z"/>
		<path class="st11" d="M37,17.7c0,0,1.5,0.7,3.1,0.6c1.2,2.9,11.3,23.5,12.1,23.9c0.7,2-0.3,1.5-0.8,2.8c-0.5,1.3-5-5.7-5-5.7
			L37,17.7z"/>
		<path class="st12" d="M34.8,17.1C36.1,22.7,49,48.4,49.5,49c1-1.4,1.9-4,1.9-4c-1-2.4-13.6-25.2-13.8-27.2
			c4.2-1.1,18.3-3.2,21.7-3.9C59,13.7,58,13.1,57.9,13C57.7,13.1,34.8,17.1,34.8,17.1z"/>
		<path class="st13" d="M51.3,45c2.5-0.2,21-7.1,21.8-7.5c0.7,1.3,1.5,2.8,1.5,2.8S51.1,52.2,49.5,49C50.7,46.9,51.3,45,51.3,45z"/>
		<path class="st14" d="M71.9,35.2c0.3,0.6,0.7,1.4,1.2,2.3c0.9,1.6-20.8,9.7-21.8,7.5c0.4-0.9,0.9-2.1,0.8-2.8
			C55.3,41.5,71.1,36.8,71.9,35.2z"/>
		<path class="st15" d="M42.4,19.9c-0.4,1.9,8.3,16.9,10.2,20.3c1.9,0.5,16.5-4.8,17.4-5.9c-0.6-2.6-9.6-17-10.5-17.7
			C57.3,16.5,42.7,18.9,42.4,19.9z"/>
		<path class="st16" d="M61,13.5c-0.4-0.1-2.3-0.6-3.1-0.5c0.6,0.6,1.7,0.8,2,1.7c3.8,5.6,11.7,19.2,12.1,20.5
			c1,1.9,2.3,4.1,2.7,5.1c0.9,0.4,1.3,1,1.3,1c-0.1-0.7-0.4-1.4-0.8-2.2C73.2,34.6,61.9,15,61,13.5z"/>
	</g>
</g>
<g id="Fruits">
	<g id="Strawberry_1_">
		<g id="Leaf">
			<path class="st20" d="M242.9,13.6c-0.6-1.1-0.5-2.8-0.3-4.1c-1.2-1.8-4.6-4.8-6.2-5.7C236.2,7,237.7,12.2,242.9,13.6z"/>
			<path class="st21" d="M261.6,3.1c0.5,4.6-5,10.9-7,10.4c0.4-0.8,0.1-2.4-0.3-3.4c0.3-0.7-2.9-7.3-4-10c-1.3,2.7-0.5,4-0.4,4.8
				c0.1,0.8,0.3,4.6-1,6.8c-1,1.8-1.3,4.9-0.3,5.5c0.5,0.3-1.1,0.6-2.9,0.9l3.9,0.8c0,0,8.2-2.5,9.4-4.9
				C262.5,11.6,263.7,3.8,261.6,3.1z"/>
			<path class="st22" d="M248.7,17.2c-0.9-0.7-0.7-3.7,0.3-5.5c1.2-2.3,1.1-6,1-6.8c-0.1-0.8-0.9-2,0.4-4.8c-0.5,0.9-6.5,8.2-7.4,10
				c-0.1-0.1-0.2-0.3-0.3-0.4c-0.3,1.2-0.4,3,0.3,4.1c-5.2-1.5-6.8-6.7-6.5-9.8c-0.3-0.2-0.5-0.3-0.7-0.3c-1.2,4.1,0.7,8.5,3.3,10.9
				l0.8,2.4l5.9,1.2C247.5,17.8,249.1,17.5,248.7,17.2z"/>
			<path class="st23" d="M254.6,13.5c2,0.4,7.6-5.9,7-10.4c-1.4,0.9-6.2,5.6-7.3,7C254.8,11.1,255,12.7,254.6,13.5z"/>
		</g>
		<g id="Strawberry">
			<path class="st24" d="M239,14.4c2.6,1.9,11.9,4.7,20.1,0c9.9,0.9,21.6,17.5,12.9,31.1c-4.2,5.9-12.6,13.5-14,15
				c-1.4,1.6-7.3,9.7-13.3,6.2c-2.4,0-3.6-0.6-4.6-1.3c-1-0.7-16.8-25.2-16.8-27.1s-2.1-9,4.6-16.6C234.9,15.4,239,14.4,239,14.4z"
				/>
			<path class="st24" d="M239,14.4c2.6,1.9,11.9,4.7,20.1,0c9.9,0.9,21.6,17.5,12.9,31.1c-4.2,5.9-12.6,13.5-14,15
				c-1.4,1.6-7.3,9.7-13.3,6.2c-2.4,0-3.6-0.6-4.6-1.3c-1-0.7-16.8-25.2-16.8-27.1s-2.1-9,4.6-16.6C234.9,15.4,239,14.4,239,14.4z"
				/>
			<path class="st24" d="M259.1,14.4c-8.2,4.7-17.5,1.9-20.1,0c0,0-1.3,0.3-3.7,1.7c4.2,0.6,11.2,1.2,14.9,5.6
				c4.4,5.3,13.9,12.6,4.2,28.8c-6.3,9.5-10.7,11.8-12.5,10.9c-1.2-0.6-5.8-3.9-8.8-6.3c3.4,5.4,6.5,10,7,10.3
				c1,0.7,2.1,1.3,4.6,1.3c6,3.6,11.9-4.6,13.3-6.2c1.4-1.6,9.9-9.2,14-15C280.7,31.9,269,15.3,259.1,14.4z"/>
			<path class="st24" d="M259.1,14.4c-8.2,4.7-17.5,1.9-20.1,0c0,0-1.3,0.3-3.7,1.7c4.2,0.6,11.2,1.2,14.9,5.6
				c4.4,5.3,13.9,12.6,4.2,28.8c-6.3,9.5-10.7,11.8-12.5,10.9c-1.2-0.6-5.8-3.9-8.8-6.3c3.4,5.4,6.5,10,7,10.3
				c1,0.7,2.1,1.3,4.6,1.3c6,3.6,11.9-4.6,13.3-6.2c1.4-1.6,9.9-9.2,14-15C280.7,31.9,269,15.3,259.1,14.4z"/>
			<path class="st25" d="M254.4,50.5c9.7-16.2,0.3-23.5-4.2-28.8c-3.7-4.4-10.7-5-14.9-5.6c-1.9,1.1-4.4,2.8-7.5,5.6
				c-6.7,7.6-4.6,14.8-4.6,16.6c0,1.1,5.2,9.6,9.8,16.8c3,2.4,7.6,5.7,8.8,6.3C243.6,62.3,248.1,60,254.4,50.5z"/>
			<path class="st25" d="M254.4,50.5c9.7-16.2,0.3-23.5-4.2-28.8c-3.7-4.4-10.7-5-14.9-5.6c-1.9,1.1-4.4,2.8-7.5,5.6
				c-6.7,7.6-4.6,14.8-4.6,16.6c0,1.1,5.2,9.6,9.8,16.8c3,2.4,7.6,5.7,8.8,6.3C243.6,62.3,248.1,60,254.4,50.5z"/>
			<path class="st26" d="M236.7,20.5c3.3,0.7,6.3,5.7,1.7,14c-0.4,4.3-2.1,10.5-1.4,12.7c-1.8,1.6-8.6-2.7-9.6-6.7
				c-1-4-2.4-11.2,1.1-16C230.5,22.1,233.7,19.8,236.7,20.5z"/>
			<path class="st26" d="M236.7,20.5c3.3,0.7,6.3,5.7,1.7,14c-0.4,4.3-2.1,10.5-1.4,12.7c-1.8,1.6-8.6-2.7-9.6-6.7
				c-1-4-2.4-11.2,1.1-16C230.5,22.1,233.7,19.8,236.7,20.5z"/>
		</g>
		<g id="seeds">
			<g>
				<g id="seed">
					<path class="st27" d="M254.7,43.6c-0.5,0.3-3.3-4-0.4-4.4C257.2,38.8,257.4,42.2,254.7,43.6z"/>
					<path class="st28" d="M254.5,43.1c0.5,0.4,1.3-1.1,1.2-2.6c0-0.9-1.6-1.5-2.2-0.5C253.2,40.6,253.5,42.2,254.5,43.1z"/>
				</g>
				<g id="seed_1_">
					<path class="st27" d="M256.3,36c-0.5,0.3-2.9-3.5-0.4-3.8C258.4,31.8,258.7,34.7,256.3,36z"/>
					<path class="st28" d="M256.1,35.5c0.5,0.4,1.1-0.9,1.1-2.3c0-0.8-1.4-1.3-1.9-0.4C255,33.3,255.3,34.8,256.1,35.5z"/>
				</g>
				<g id="seed_2_">
					<path class="st27" d="M244.4,35.9c-0.6,0.2-2.5-4.6,0.3-4.6S247.2,34.8,244.4,35.9z"/>
					<path class="st28" d="M244.3,35.2c0.4,0.5,1.4-0.9,1.6-2.4c0.2-0.9-1.2-1.7-2-0.8C243.4,32.5,243.5,34.3,244.3,35.2z"/>
				</g>
				<g id="seed_3_">
					<path class="st27" d="M247.4,28c-0.5,0.3-2.9-4.2-0.4-4.6S249.8,26.5,247.4,28z"/>
					<path class="st28" d="M247.2,27.4c0.5,0.5,1.1-1.1,1.1-2.7c0-0.9-1.4-1.5-1.9-0.5C246.1,24.9,246.4,26.6,247.2,27.4z"/>
				</g>
				<g id="seed_4_">
					<path class="st27" d="M248.8,37.1c-0.3,0.2-2-2.4-0.3-2.7C250.3,34.2,250.5,36.2,248.8,37.1z"/>
					<path class="st28" d="M248.7,36.8c0.3,0.3,0.8-0.6,0.7-1.6c0-0.6-0.9-0.9-1.3-0.3C247.9,35.3,248.1,36.3,248.7,36.8z"/>
				</g>
				<g id="seed_5_">
					<path class="st27" d="M248.7,32.6c-0.3,0.2-2.1-2.6-0.3-2.9S250.5,31.6,248.7,32.6z"/>
					<path class="st28" d="M248.6,32.2c0.3,0.3,0.8-0.7,0.8-1.7c0-0.6-1-0.9-1.4-0.3C247.8,30.6,248,31.7,248.6,32.2z"/>
				</g>
				<g id="seed_6_">
					<path class="st27" d="M247.1,46.3c-0.4,0.2-1.4-3.6,0.5-3.5C249.5,42.8,249.1,45.5,247.1,46.3z"/>
					<path class="st28" d="M247.1,45.8c0.3,0.4,1-0.7,1.2-1.9c0.2-0.7-0.7-1.4-1.3-0.7C246.7,43.7,246.6,45.1,247.1,45.8z"/>
				</g>
				<g id="seed_7_">
					<path class="st27" d="M243.1,52.7c-0.3,0.2-1.9-2.6-0.2-2.9C244.4,49.6,244.6,51.8,243.1,52.7z"/>
					<path class="st28" d="M242.9,52.4c0.3,0.3,0.7-0.7,0.7-1.7c0-0.6-0.9-0.9-1.3-0.3C242.2,50.8,242.4,51.8,242.9,52.4z"/>
				</g>
				<g id="seed_8_">
					<path class="st27" d="M240.9,44.8c-0.3,0.2-2.1-3.4-0.3-3.7C242.4,40.7,242.6,43.5,240.9,44.8z"/>
					<path class="st28" d="M240.7,44.3c0.3,0.4,0.8-0.9,0.8-2.2c0-0.8-1-1.2-1.4-0.4C239.9,42.2,240.1,43.6,240.7,44.3z"/>
				</g>
				<g id="seed_9_">
					<path class="st27" d="M238.4,37.4c-0.2,0.1-1-1.5,0-1.6C239.4,35.7,239.4,36.9,238.4,37.4z"/>
					<path class="st28" d="M238.4,37.2c0.2,0.2,0.5-0.4,0.5-0.9c0-0.3-0.5-0.6-0.7-0.2C238,36.2,238.1,36.8,238.4,37.2z"/>
				</g>
				<g id="seed_10_">
					<path class="st27" d="M254.7,28.6c-0.4,0.2-2.5-3.1-0.3-3.4C256.6,24.9,256.8,27.5,254.7,28.6z"/>
					<path class="st28" d="M254.6,28.1c0.4,0.3,1-0.8,0.9-2c0-0.7-1.2-1.1-1.7-0.4C253.6,26.2,253.8,27.5,254.6,28.1z"/>
				</g>
				<g id="seed_11_">
					<path class="st27" d="M240.5,28.9c-0.4,0.2-2.7-3.2-0.3-3.5S242.7,27.8,240.5,28.9z"/>
					<path class="st28" d="M240.4,28.5c0.4,0.4,1.1-0.9,1-2.1c0-0.7-1.3-1.2-1.8-0.4C239.3,26.5,239.6,27.8,240.4,28.5z"/>
				</g>
				<g id="seed_12_">
					<path class="st27" d="M235,33.3c-0.6,0.2-2.1-4.9,0.7-4.7C238.4,28.8,237.8,32.3,235,33.3z"/>
					<path class="st28" d="M234.9,32.6c0.4,0.6,1.5-0.8,1.8-2.4c0.2-0.9-1.1-1.9-1.9-1C234.3,29.8,234.2,31.6,234.9,32.6z"/>
				</g>
				<g id="seed_13_">
					<path class="st27" d="M234.7,25.2c-0.4,0.2-2.7-3.2-0.3-3.5C236.7,21.3,236.9,24,234.7,25.2z"/>
					<path class="st28" d="M234.6,24.7c0.4,0.4,1.1-0.9,1-2.1c0-0.7-1.3-1.2-1.8-0.4C233.5,22.8,233.8,24.1,234.6,24.7z"/>
				</g>
				<g id="seed_14_">
					<path class="st27" d="M228.5,28.8c-0.3,0.2-2-2.5-0.3-2.7C230,25.9,230.1,28,228.5,28.8z"/>
					<path class="st28" d="M228.3,28.5c0.3,0.3,0.8-0.7,0.8-1.6c0-0.6-1-0.9-1.4-0.3C227.5,27,227.7,28,228.3,28.5z"/>
				</g>
				<g id="seed_15_">
					<path class="st27" d="M228,36.3c-0.5,0.2-2.8-3.2-0.4-3.5C230.1,32.5,230.3,35.1,228,36.3z"/>
					<path class="st28" d="M227.8,35.8c0.5,0.3,1.1-0.9,1-2.1c0-0.7-1.3-1.2-1.9-0.4C226.7,33.9,227,35.2,227.8,35.8z"/>
				</g>
				<g id="seed_16_">
					<path class="st27" d="M225.6,42.2c-0.2,0-0.4,0.1-0.5,0.2c0.3,0.5,0.7,1,0.9,1.5c0.1,0.1,0.1,0.3,0.1,0.4
						c0.2,0.2,0.3,0.4,0.5,0.6c0,0,0.1,0,0.1,0C227.9,43.7,227.5,41.9,225.6,42.2z"/>
				</g>
				<g id="seed_17_">
					<path class="st27" d="M232.8,53.9c-0.2,0.1-1.3-1.6-0.2-1.8C233.8,52,233.9,53.3,232.8,53.9z"/>
					<path class="st28" d="M232.7,53.7c0.2,0.2,0.5-0.4,0.5-1c0-0.4-0.6-0.6-0.9-0.2C232.2,52.7,232.3,53.4,232.7,53.7z"/>
				</g>
				<g id="seed_18_">
					<path class="st27" d="M259.8,38.7c-0.2,0.1-1.4-1.8-0.2-1.9C260.9,36.6,261,38.1,259.8,38.7z"/>
					<path class="st28" d="M259.7,38.5c0.2,0.2,0.6-0.5,0.5-1.1c0-0.4-0.7-0.6-1-0.2C259.1,37.4,259.3,38.1,259.7,38.5z"/>
				</g>
				<g id="seed_19_">
					<path class="st27" d="M245.4,20.1c-0.4-0.1,2.1-2.8,2.5-1C248.2,20,247.6,20.8,245.4,20.1z"/>
					<path class="st28" d="M245.7,19.9c-0.2,0.4,0.9,0.3,1.8,0c0.5-0.2,0.6-0.9-0.1-1.1C246.9,18.7,246,19.1,245.7,19.9z"/>
				</g>
				<g id="seed_20_">
					<path class="st27" d="M241.7,19.8c-0.3,0.1-0.4-2.8,0.9-1.9C243.4,18.4,243.5,19.2,241.7,19.8z"/>
					<path class="st28" d="M241.8,19.5c0.1,0.3,0.7-0.2,1.1-0.9c0.2-0.4-0.2-0.8-0.8-0.7C241.8,18.1,241.5,18.9,241.8,19.5z"/>
				</g>
			</g>
			<g id="seed_21_">
				<path class="st27" d="M234,42.3c-0.5,0.3-3.3-4-0.4-4.4S236.7,40.8,234,42.3z"/>
				<path class="st28" d="M233.8,41.7c0.5,0.4,1.3-1.1,1.2-2.6c0-0.9-1.6-1.5-2.2-0.5C232.4,39.2,232.8,40.9,233.8,41.7z"/>
			</g>
			<g id="seed_22_">
				<path class="st27" d="M234.7,48.7c-0.4,0.2-2.4-2.9-0.3-3.2C236.5,45.2,236.7,47.6,234.7,48.7z"/>
				<path class="st28" d="M234.6,48.3c0.4,0.3,0.9-0.8,0.9-1.9c0-0.7-1.1-1-1.6-0.3C233.6,46.5,233.9,47.7,234.6,48.3z"/>
			</g>
			<g id="seed_23_">
				<path class="st27" d="M238.8,52.8c-0.5,0.3-3.3-4-0.4-4.4S241.5,51.3,238.8,52.8z"/>
				<path class="st28" d="M238.6,52.2c0.5,0.4,1.3-1.1,1.2-2.6c0-0.9-1.6-1.5-2.2-0.5C237.2,49.7,237.6,51.4,238.6,52.2z"/>
			</g>
			<g id="seed_24_">
				<path class="st27" d="M241.6,62.3c-0.4,0.2-2.3-3.4-0.3-3.7S243.5,61,241.6,62.3z"/>
				<path class="st28" d="M241.4,61.8c0.4,0.4,0.9-0.9,0.9-2.2c0-0.8-1.1-1.2-1.6-0.4C240.5,59.7,240.8,61.1,241.4,61.8z"/>
			</g>
			<g id="seed_25_">
				<path class="st27" d="M248.8,59.2c-0.5,0.3-3.3-4-0.4-4.4C251.3,54.4,251.5,57.7,248.8,59.2z"/>
				<path class="st28" d="M248.6,58.6c0.5,0.4,1.3-1.1,1.2-2.6c0-0.9-1.6-1.5-2.2-0.5C247.2,56.2,247.6,57.8,248.6,58.6z"/>
			</g>
			<g id="seed_26_">
				<path class="st27" d="M255.9,50.1c-0.4,0.2-2.2-2.7-0.3-3C257.5,46.8,257.7,49.1,255.9,50.1z"/>
				<path class="st28" d="M255.7,49.7c0.4,0.3,0.9-0.7,0.8-1.8c0-0.6-1.1-1-1.5-0.3C254.8,48,255.1,49.2,255.7,49.7z"/>
			</g>
			<g id="seed_27_">
				<path class="st27" d="M253.7,54.1c-0.2,0.1-1.3-1.6-0.2-1.7C254.6,52.3,254.7,53.6,253.7,54.1z"/>
				<path class="st28" d="M253.6,53.9c0.2,0.2,0.5-0.4,0.5-1c0-0.4-0.6-0.6-0.9-0.2C253.1,52.9,253.2,53.6,253.6,53.9z"/>
			</g>
			<g id="seed_28_">
				<path class="st27" d="M259.7,53.2c-0.5,0.3-3.3-4-0.4-4.4C262.2,48.3,262.5,51.7,259.7,53.2z"/>
				<path class="st28" d="M259.5,52.6c0.5,0.4,1.3-1.1,1.2-2.6c0-0.9-1.6-1.5-2.2-0.5C258.2,50.1,258.5,51.8,259.5,52.6z"/>
			</g>
			<g id="seed_29_">
				<path class="st27" d="M253.9,61.2c-0.5-0.2,0.8-4.3,2.6-2.6C258.3,60.3,256.3,62.2,253.9,61.2z"/>
				<path class="st28" d="M254.2,60.7c0,0.6,1.4,0.3,2.3-0.5c0.6-0.5,0.1-1.8-0.9-1.7C255,58.5,254.2,59.6,254.2,60.7z"/>
			</g>
			<g id="seed_30_">
				<path class="st27" d="M249.8,65.2c-0.4,0.2-2.4-2.9-0.3-3.2S251.7,64.2,249.8,65.2z"/>
				<path class="st28" d="M249.7,64.8c0.4,0.3,0.9-0.8,0.9-1.9c0-0.7-1.1-1-1.6-0.3C248.7,63.1,248.9,64.3,249.7,64.8z"/>
			</g>
			<g id="seed_31_">
				<path class="st27" d="M262,45.4c-0.4,0.2-2.4-2.9-0.3-3.2S264,44.4,262,45.4z"/>
				<path class="st28" d="M261.9,45c0.4,0.3,0.9-0.8,0.9-1.9c0-0.7-1.1-1-1.6-0.3C260.9,43.2,261.2,44.4,261.9,45z"/>
			</g>
			<g id="seed_32_">
				<path class="st27" d="M266.9,42.4c-0.4,0.2-2.4-2.9-0.3-3.2S268.9,41.3,266.9,42.4z"/>
				<path class="st28" d="M266.8,41.9c0.4,0.3,0.9-0.8,0.9-1.9c0-0.7-1.1-1-1.6-0.3C265.8,40.2,266.1,41.4,266.8,41.9z"/>
			</g>
			<g id="seed_33_">
				<path class="st27" d="M265.6,49.5c-0.2,0.1-1.4-1.8-0.1-2C266.7,47.4,266.8,48.9,265.6,49.5z"/>
				<path class="st28" d="M265.5,49.2c0.2,0.2,0.6-0.5,0.6-1.1c0-0.4-0.7-0.7-1-0.2C265,48.1,265.1,48.9,265.5,49.2z"/>
			</g>
			<g id="seed_34_">
				<path class="st27" d="M265.9,37.2c-0.5,0.3-3.3-3.8-0.4-4.2C268.3,32.6,268.6,35.8,265.9,37.2z"/>
				<path class="st28" d="M265.7,36.7c0.5,0.4,1.3-1,1.2-2.5c0-0.9-1.6-1.4-2.2-0.5C264.3,34.3,264.7,35.9,265.7,36.7z"/>
			</g>
			<g id="seed_35_">
				<path class="st27" d="M261.6,31.5c-0.3,0.1-1.7-2-0.2-2.2S263,30.8,261.6,31.5z"/>
				<path class="st28" d="M261.5,31.3c0.3,0.2,0.7-0.5,0.6-1.3c0-0.5-0.8-0.7-1.1-0.2C260.8,30,261,30.9,261.5,31.3z"/>
			</g>
			<g id="seed_36_">
				<path class="st27" d="M259,20.9c-0.4,0.4-4.3-2.5-2-3.8C259.4,15.7,260.8,18.7,259,20.9z"/>
				<path class="st28" d="M258.7,20.5c0.6,0.2,0.7-1.4,0.1-2.8c-0.3-0.8-1.9-0.8-2.1,0.3C256.6,18.7,257.5,20.1,258.7,20.5z"/>
			</g>
			<g id="seed_37_">
				<path class="st27" d="M261.5,26.7c-0.4,0.2-2.2-2.7-0.3-3S263.3,25.7,261.5,26.7z"/>
				<path class="st28" d="M261.3,26.3c0.4,0.3,0.9-0.7,0.8-1.7c0-0.6-1-1-1.5-0.3C260.4,24.7,260.7,25.8,261.3,26.3z"/>
			</g>
			<g id="seed_38_">
				<path class="st27" d="M269.1,20.1c-0.3-0.2-0.5-0.4-0.8-0.6c0,0,0,0,0-0.1c-2.8,0.5,0,4.7,0.5,4.4c1-0.5,1.5-1.3,1.8-2.1
					C270.1,21.2,269.4,20.8,269.1,20.1z"/>
				<path class="st28" d="M269.1,20.2c-0.2-0.2-0.4-0.3-0.6-0.5c-0.4,0-0.7,0.2-1,0.5c-0.3,0.6,0,2.3,1,3.1c0.5,0.4,1.2-0.9,1.2-2.3
					C269.5,20.7,269.2,20.5,269.1,20.2z"/>
			</g>
			<g id="seed_39_">
				<path class="st27" d="M269.4,29.7c-0.3,0.1-1.7-2-0.2-2.2C270.7,27.2,270.8,28.9,269.4,29.7z"/>
				<path class="st28" d="M269.3,29.4c0.3,0.2,0.7-0.5,0.6-1.3c0-0.5-0.8-0.7-1.1-0.2C268.6,28.1,268.8,29,269.3,29.4z"/>
			</g>
			<g id="seed_40_">
				<path class="st27" d="M270.9,35.8c-0.2,0.1-1.2-1.4-0.1-1.5S271.9,35.3,270.9,35.8z"/>
				<path class="st28" d="M270.9,35.6c0.2,0.2,0.5-0.4,0.4-0.9c0-0.3-0.5-0.5-0.8-0.2C270.4,34.7,270.5,35.3,270.9,35.6z"/>
			</g>
		</g>
	</g>
	<g id="small_blueberry">
		<path class="st29" d="M267,70.3c3.3,0.5,10.3,0.5,12.9-7.2c0.3-3.8-2.5-7.8-5.7-9s-6.8-0.8-9.2,0.8c-2.5,1.6-3.9,7-2.9,10.2
			C263.2,68.4,266.1,70.1,267,70.3z"/>
		<path class="st30" d="M278.6,65.9c0.6-11.4-7.9-11.7-11.8-11.9c-0.7,0.2-1.3,0.5-1.8,0.9c-1.6,1-2.7,3.6-3.1,6.1
			c0.3,1.1,1.1,3.3,1.3,4.1c0.1,0.7,2.7,3.1,3.1,1.4s1.4-6.3,7.1-5.9c4.9,1.3,4.7,4.3,4.4,6.5C278,66.7,278.3,66.3,278.6,65.9z"/>
		<path class="st31" d="M278.6,65.9c0.5-0.8,1-1.7,1.3-2.8c0.3-3.8-2.5-7.8-5.7-9c-2.5-0.9-5.2-0.9-7.4-0.1
			C270.7,54.2,279.2,54.5,278.6,65.9z"/>
		<path class="st32" d="M269.6,69.1c-1.4-0.4-3.9-5.1,1.5-7c3.3-0.6,5.5,0.4,5.2,3.6c0.8-0.7,1.2-2,0-3.3c-1.3-1.3-4.8-2.9-7.7,0
			C265.7,65.4,266.6,68.8,269.6,69.1z"/>
		<path class="st31" d="M270.9,66.9c0.4,0.5,0.7,1,1.4,0.7c0.7-0.3,1.4-0.7,1.4-1.1s0-1.4-0.5-1.4s-1.7-0.6-2,0.3
			S270.9,66.9,270.9,66.9z"/>
		<path class="st32" d="M263.7,63.4c0.7,1,1.5,1.1,2.5-1.2c0.9-1.3,1.8-2.2,1.1-3.7c-0.7-1.5-2.9,0.1-3.3,0.8
			C263.6,59.8,262.9,62.1,263.7,63.4z"/>
	</g>
	<g id="Blueberry">
		<path class="st29" d="M251.7,79.4c4.3,2.9,14.2,7.5,22.8-1.7c2.9-5.1,1.7-12.6-2.1-16.3c-3.8-3.7-9-5.6-13.5-4.9
			c-4.5,0.7-10.1,7.2-10.7,12.5C247.5,74.3,250.5,78.6,251.7,79.4z"/>
		<path class="st30" d="M270.8,80.8c8.4-15.6-3.4-21.6-8.7-24.4c-1.1-0.1-2.2-0.1-3.2,0.1c-2.9,0.4-6.2,3.2-8.4,6.6
			c-0.3,1.8-0.6,5.4-0.9,6.6c-0.3,1.1,1.8,6.1,3.4,4c1.6-2.1,6.2-7.9,13.9-3.7c6,5,3.8,9.2,1.9,12C269.4,81.6,270.1,81.3,270.8,80.8
			z"/>
		<path class="st31" d="M270.8,80.8c1.2-0.8,2.5-1.8,3.7-3.1c2.9-5.1,1.7-12.6-2.1-16.3c-2.9-2.8-6.7-4.6-10.3-5
			C267.4,59.2,279.2,65.2,270.8,80.8z"/>
		<path class="st33" d="M256.1,79.5c-1.7-1.5-2.1-9.7,6.6-8.9c5.1,1.3,7.5,4.2,5,8.5c1.6-0.4,3-1.9,2.1-4.6c-0.9-2.7-4.8-7.2-10.8-5
			S252,77.1,256.1,79.5z"/>
		<path class="st34" d="M259.3,77.2c0.2,1,0.3,1.8,1.5,1.9c1.2,0.1,2.4,0,2.7-0.6c0.3-0.6,1-1.9,0.3-2.3c-0.7-0.3-2-2-3-0.9
			S259.3,77.2,259.3,77.2z"/>
		<path class="st33" d="M251.6,67.5c0.3,1.8,1.3,2.5,4.2-0.1c2.2-1.2,4-2,4-4.5s-4.2-1.7-5.2-1.1S251.2,65.2,251.6,67.5z"/>
	</g>
	<g id="Raspberry">
		<path class="st35" d="M232,59.9c0.8-0.2,2.8-0.5,4.2,0.7c0.5,0.7,1.7,1.8,0.6,2.7c-1.2,0.9-3.5,0.2-3.5,0.2L232,59.9z"/>
		<path class="st36" d="M238.7,68.3c0.5-0.8,1.9-4-1.5-5.9c0,0.6-0.3,0.8-0.5,0.9s0.1,2.6,0.1,2.6L238.7,68.3z"/>
		<path class="st35" d="M238.5,68.8c0.9,1.5,0.9,4-1.2,4.7c-0.9-0.2-1.5-1.1-1.3-1.6c0.2-0.4,0.3-1.9,0.3-1.9L238.5,68.8z"/>
		<path class="st37" d="M236,71.9c0.7,0.8,1.3,1.3,1.3,1.6c0,0.2-0.3,3.3-3.4,3.2C230.9,76.6,236,71.9,236,71.9z"/>
		<g>
			<path class="st38" d="M220.4,53.8c-0.6-0.7-1.8-1.8-3.1-1.5c-1.3,0.3-1.7,0.8-1.9,1.4c-0.2,0.6,0.3,1.2,0.5,1.3s3.1,0.3,3.1,0.3
				L220.4,53.8z"/>
			<path class="st39" d="M218.2,52.3c0.4,0.2,0.3,1.6-0.6,1.7c-0.9,0.1-1.3,0.4-2.1-0.6C216.1,52.5,217.4,52,218.2,52.3z"/>
		</g>
		<g>
			<path class="st40" d="M215.3,54c-0.4-0.4-2.9-2.4-4.6-1.1c-1.6,1.2-2.1,2-2,4.3c2,0.9,3.9,1.6,3.9,1.6l1.4,0.2l1-1.2l1.3-2.6
				L215.3,54z"/>
			<path class="st41" d="M213.9,52.9c0.8,0.4-0.4,2.5-1.3,2.7c-0.9,0.2-3.6,0.6-3.8,0.9C208.5,55.5,210.2,50.9,213.9,52.9z"/>
			<path class="st42" d="M212.4,53.5c0.1,0.6-0.1,1.3-1.2,1.8s-1.7,0.4-1.8-0.2c-0.1-0.6,0.8-2,2.1-2
				C212.1,53.3,212.4,53.5,212.4,53.5z"/>
		</g>
		<g>
			<path class="st43" d="M219.2,54.8c0.2-0.3,0.5-0.5,0.7-0.6c0,0,0,0,0,0c0.1,0.6,1.7,1.4,2.9,1.3c1,0,1.6-1,1.3-1.5
				c0.6,0.4,1.1,1,1.4,1.3l-0.4,3.3l-3.2,2.4l-1.7-0.5C220.2,60.5,216.2,57.9,219.2,54.8z"/>
			<path class="st44" d="M222.8,55.5c-1.2,0-2.8-0.7-2.9-1.3c0,0,0,0,0,0c1.7-1.3,3.2-0.9,4.2-0.2C224.4,54.5,223.8,55.5,222.8,55.5
				z"/>
		</g>
		<g>
			<path class="st45" d="M231.2,59.6c0.1-1.5-0.4-3.8-3.5-4.3c-3.1-0.5-4.1,1.3-4,3.1c0.1,1.8,3,2.4,3,2.4l2.7-0.2L231.2,59.6z"/>
			<path class="st46" d="M227.4,60.3c0.9-0.9,1.9-2.9,0-3.8c-1.9-0.9-3.5,0.8-3.5,2C224,59.7,227.4,60.3,227.4,60.3z"/>
			<path class="st47" d="M226.8,57c0.3,0.4,0.8,1.6-0.5,1.6c-0.6-0.3-1.2-0.5-1.5-0.4c-0.3-0.1-0.4-0.7,0.6-1.3
				C225.9,56.8,226.7,56.8,226.8,57z"/>
		</g>
		<g>
			<path class="st45" d="M232.1,65.7c0.8-0.5,3-3.6,0.2-5.5c-1.1-0.7-3.4-1.3-4.6,0.6s0.1,3.3,0.1,3.3S231.1,66.4,232.1,65.7z"/>
			<path class="st48" d="M230.4,64c0.8-0.2,1.9-2.2,0.1-3.2c-1.7-0.5-2.4,0.5-2.5,0.6s-0.4,1.8-0.4,1.8l0.2,0.7l1.6,0.3L230.4,64z"
				/>
			<path class="st49" d="M230.1,61.8c0.2,0.3,0.2,1.7-1.1,1.2c-0.5-0.4-1-1.1-0.6-1.6S229.4,60.7,230.1,61.8z"/>
		</g>
		<g>
			<path class="st45" d="M236.8,70.1c3-0.4,2.7-8.1-2.9-7.2c-0.6,1.9-1.4,2.9-1.9,2.8c0.1,0.6,1.4,1.4,1.4,1.4L236.8,70.1z"/>
			<path class="st50" d="M236.4,67.7c1.2-0.4,1.8-2.1,0-3.2c-1.8-1.1-2.7,0.2-2.2,1.6S236.4,67.7,236.4,67.7z"/>
		</g>
		<g>
			<path class="st45" d="M230.9,70.5c0.6,0,3.8-3.3-0.5-6.5c-1.4-1-2.3-0.6-2.6-0.5c-0.1,1.1-0.7,1.7-1.3,2c0.7,1,1.3,2.6,0.7,3.1
				C228.4,68.7,230.5,70,230.9,70.5z"/>
			<path class="st51" d="M227.5,63.9c1-0.4,5.1,1,2.7,5.9c-2.1,0.3-4.3-1.7-4.3-1.7S226,63.7,227.5,63.9z"/>
			<path class="st52" d="M229.1,65.3c0.7,1,0.2,2.3,0,2.4c-0.2,0.1-1.3,0.4-1.7-1.5C227.5,65.2,227.4,64.3,229.1,65.3z"/>
		</g>
		<g>
			<path class="st45" d="M226.5,65.2c1-0.7,2.9-4.2-0.7-6.3c-1.8-1.1-4,0.3-4.7,1.6c-0.7,1.3,0,3.5,0,3.5S225.4,66,226.5,65.2z"/>
			<path class="st44" d="M225.1,64.4c1.1-1.2,1.4-2.9,0.2-4.4c-0.8-0.6-1.9-1-2.6-0.9c-0.7,0.1-2.9,3.5-2.9,3.5l2,1.8H225.1z"/>
			<path class="st53" d="M222.8,63c0.2,0.3,0.3,0.9,1.3,0s0.7-2,0.4-2.5s-2.2-0.6-2.4-0.2c-0.3,0.4,0,0.6,0.4,1.5
				C222.8,62.6,222.8,63,222.8,63z"/>
		</g>
		<path class="st54" d="M231.1,76.9c0.6,1-1.2,3.1-4.6,2.2c-0.5-1.1,0.8-2.9,0.8-2.9S229.2,73.9,231.1,76.9z"/>
		<g>
			<path class="st45" d="M229.2,75.6c0.9,1.1,5.6,3.8,6.5-2.9c-0.8,0.5-2.2,1.3-4.6,0.5C228.7,72.4,229.2,75.6,229.2,75.6z"/>
			<path class="st55" d="M233.7,73.8c0.5,1,0.2,1.8-0.6,2.2c-0.8,0.4-1.8,0.2-2-0.3c-0.2-0.5,0-1.8,0-2.1S233.7,73.8,233.7,73.8z"/>
		</g>
		<g>
			<path class="st45" d="M231.1,73c1.2,0.5,3.8,1.3,5.4-2.2c1.6-3.5-3.6-5.2-4.2-4.7c0.3,2.1,0.7,2.9-1.4,4.4
				C231.2,71.9,231.1,73,231.1,73z"/>
			<path class="st50" d="M232.7,67.3c-0.1-1,3.3,1.6,1.9,3.7c-1.2,1.3-3.1,0.7-3.4,0.4c-0.4-0.3-1.2-0.2-0.2-1
				C231.9,69.7,232.9,69.2,232.7,67.3z"/>
			<path class="st56" d="M233.5,68.7c0.7,0.7,0.5,2-0.3,2.2c-0.8,0.2-2.1,0.1-1.3-0.7C232.6,69.7,233,68.2,233.5,68.7z"/>
		</g>
		<path class="st54" d="M220.5,79.1c-0.9,1.7-3.4,2.4-5.6,0.1l1.3-3.4l3.8-1.3L220.5,79.1z"/>
		<g>
			<path class="st57" d="M228.2,75.9c0,1.6-1.8,4-4.5,4c-2.7,0-4.6-1.7-4.6-3.8c0-2,4.6-1.9,4.6-1.9L228.2,75.9z"/>
			<path class="st44" d="M225.9,76.3c-0.2,1.8-4.5,3.9-6.2,0c2-1.5,4.4-2.2,4.4-2.2L225.9,76.3z"/>
			<path class="st58" d="M223,76.2c0.5,0.5,1.4,1.8-0.6,1.7s-1.7-1.1-1.3-1.3C221.5,76.5,222.4,75.6,223,76.2z"/>
		</g>
		<g>
			<path class="st45" d="M227.2,68.6c1.6,0.1,5.5,2,3.2,5.6c-2.4,3.6-5.9,1.7-6.9,0.5c-1.1-1.1,0.3-3.2,0.3-3.2L227.2,68.6z"/>
			<path class="st59" d="M227.2,68.8c1.3,0,2.8,1,1.5,4.5c-1.2,1.9-4.1,3.2-5.1,0.8c-1-2.4,0-3.6,0-3.6L227.2,68.8z"/>
			<path class="st53" d="M227.2,71.3c0.6,0.4,0.3,3.4-2.6,2.8C223.2,73,226.1,70.7,227.2,71.3z"/>
		</g>
		<g>
			<path class="st45" d="M223.8,71.5c0.2,1.7-0.4,4-2.4,4.4c-2,0.4-4,0.5-5.9-0.9c-1.1-2.5-1.2-3.9-0.2-4.2s2.4-2.1,4-1.4
				C220.8,70.1,223.6,70.5,223.8,71.5z"/>
			<path class="st60" d="M221.7,71.5c0.5,1.1,0.6,4.5-3.9,4.4c-2.6-0.6-2.6-1.4-2.9-3.4c-0.3-2,2.7-1.7,2.7-1.7s0.5-0.8,1.2-0.7
				C219.4,70.2,221.7,71.5,221.7,71.5z"/>
			<path class="st58" d="M219.6,72.2c0.4,1-0.3,1.4-0.5,1.9c-0.1,0.5-1.2,1.6-2.4,1c-0.9-0.4-2-1.3-0.5-2.4c0.6,0,0.9-0.5,1.3-0.7
				C218,71.9,219.4,71.7,219.6,72.2z"/>
		</g>
		<g>
			<path class="st45" d="M222.2,63.7c1.9,0.1,5.3,0.9,4.9,4.6s-4.5,3.9-6.3,3.3c-1.7-0.6-2.5-1.3-2.5-2.3
				C218.4,68.3,219.5,63.5,222.2,63.7z"/>
			<path class="st39" d="M222.2,64.2c0.5-0.2,3-0.8,3.7,3.5c-0.5,2.9-3.6,3.6-4.5,3.5c-0.9-0.1-3-0.8-2.6-3.9S222.2,64.2,222.2,64.2
				z"/>
			<path class="st61" d="M220.5,67.8c-0.5,0.4-1.7,1.2-0.2,2.4c0.9,0.7,2.4,0.1,2.5-0.3c0.1-0.4,1.3-2.8,0-3.9
				C222.2,65.9,221,67.4,220.5,67.8z"/>
		</g>
		<g>
			<path class="st62" d="M208.9,75.9c-0.1-0.5-1.6-2.1-2.8-2.9c-0.5-0.3-0.1-0.6,0.6-0.9l0.5,0.3l2.7,1.6c0,0,2.1,2.2,1.3,3.1
				c0,0,0,0,0,0c-0.1,0.1-0.1,0.1-0.2,0.2c-0.6,0.3-1.7,0.9-3.9-0.1c0,0,0,0,0,0C208.3,77.7,209,76.4,208.9,75.9z"/>
			<path class="st39" d="M205.6,71.5l1.2,0.7c-0.7,0.2-1.2,0.5-0.6,0.9c1.2,0.8,2.7,2.4,2.8,2.9c0.1,0.5-0.7,1.7-1.8,1.3
				c-0.1-0.1-0.3-0.2-0.5-0.2C203.2,74.4,204.8,72.6,205.6,71.5z"/>
			<path class="st63" d="M205,73.6c0.9,0.1,2.9,1,2.3,2.6C206.8,77.8,204.3,74.1,205,73.6z"/>
		</g>
		<g>
			<path class="st45" d="M217.4,75.9c0.3,1.3-1.8,5.3-6,1.7c-1.7-1.4-1.7-3.5-1.7-3.9s1.5-2.5,1.5-2.5l3.7,0.3
				C214.9,73.1,214.4,75.4,217.4,75.9z"/>
			<path class="st44" d="M214.8,72.2c-0.1,1.3,0.4,2.8,0.6,2.9c0.1,1.1-0.6,4.3-4,2.6c-1.4-1-1.7-2.9-1.4-3.5c0.3-0.6,1-2.3,1-2.3
				l2-0.9L214.8,72.2z"/>
			<path class="st58" d="M211.8,72.2c1.3,0.7,2.6,3.2,0.5,5.1c-1.1,0.3-2.2-1.7-2-3.7C210.4,71.5,211.8,72.2,211.8,72.2z"/>
		</g>
		<g>
			<path class="st45" d="M207.7,64.7c-1.2,0.7-3.9,3.4-1.5,8c1.2,1.3,3,1.6,3.5,1.3s2.1-1.8,2.1-1.8l0.8-3.5l-1.5-2.7L207.7,64.7z"
				/>
			<path class="st44" d="M205.8,71.8c0.3,1,2.9,1.2,4-1c0.2-1.9,0.5-4.3,0-5.3s-1.6-1-2-0.8C207.1,65.2,204.1,66.7,205.8,71.8z"/>
			<path class="st58" d="M208,65.9c1,1.1,0.6,3.1,0.4,3.8c-0.2,0.7-1,1.8-1.3,1.8c-0.3,0-1.1-0.1-1.4-1.3
				C205.4,69,205.3,65.3,208,65.9z"/>
		</g>
		<g>
			<path class="st40" d="M220.7,60.4c1-1.1,1.5-3.2,0.3-4.5c-1.1-1.4-3.5-1.3-4-1.1c-0.6,0.1-3.3,0.7-3.5,3.3
				c-0.2,2.6,2.1,3.3,2.1,3.3h4.3L220.7,60.4z"/>
			<path class="st39" d="M217.1,54.8c1.7,0,3.3,0.8,3.4,3c-0.3,1.4-0.8,2.2-1.4,2.2s-3.7,0.8-4.4,0.5c-0.7-0.4-1.2-1.6-1.2-2.4
				C213.6,57.3,213.9,55.4,217.1,54.8z"/>
			<path class="st61" d="M217.9,55.3c0.9,0.5,1.1,2.3-0.5,3.3c-1.6,1-2,1.1-2.8,0.8c-0.8-0.3-1.3-1.9,0.8-3.4
				C216.6,55.1,217.9,55.3,217.9,55.3z"/>
		</g>
		<g>
			<path class="st40" d="M215.2,61.6c1,2.7-3.2,6.3-6.2,4.3c-2.9-2-4.5-6.7-0.3-8.6C211.4,56.1,214,58.3,215.2,61.6z"/>
			<path class="st39" d="M213,60.6c0,2.1-1,3.9-3,4.8c-3.3-0.9-3.9-3.9-3.5-5.7C206.9,57,212.2,54.7,213,60.6z"/>
			<path class="st61" d="M211,62.8c-1.1,1.3-2.4,1.3-3.4,0.4c-0.9-2.3-0.6-4.1,0.4-5S212.5,57.4,211,62.8z"/>
		</g>
		<g>
			<path class="st45" d="M217.6,65.5c1.9,1.5,1.5,5.9-1.5,6.6c-3,0.6-7.4-1.7-4.9-6.1C212.4,63.9,214.5,63,217.6,65.5z"/>
			<path class="st39" d="M215.2,65.6c1.3,0.9,2.3,1.7,1.3,4.5c-2.2,3.1-5.3,1.2-5.4,0.4c-0.1-0.8-1.9-2.2,1.4-5.7
				C214,63.9,215.2,65.6,215.2,65.6z"/>
			<path class="st61" d="M213.7,68.2c0.2,1.3,0.3,3.6-1.2,2.9c-1.5-0.7-1.9-1.7-1.7-2.8C211.1,66,213.7,64.3,213.7,68.2z"/>
		</g>
		<g>
			<path class="st45" d="M221.1,60.7c1.9,1.5,1.5,5.9-1.5,6.6c-3,0.6-6.4-2-5.5-4.3S218,58.2,221.1,60.7z"/>
			<path class="st39" d="M218.5,59.9c1.3,0.9,3,2.3,2,5.1c-1.7,3.2-4.9,1.1-5.4,0.5c-0.5-0.6-2.1-2.8,0.5-4.9
				C217.2,59.9,218.5,59.9,218.5,59.9z"/>
			<path class="st61" d="M217.8,60.8c0,1-0.1,2.2,0.5,3.1c0.2,1.3-0.6,2.7-2,2s-1.8-1.7-1.7-2.8c0.1-1.1,2-2.9,2.6-2.6
				C217.8,60.8,217.8,60.8,217.8,60.8z"/>
		</g>
	</g>
</g>
<g id="Healthy_alternatives">
	<g>
		<path class="st64" d="M380.4,22.4c-1.8-3.4-4.9-6.5-9.8-8.6c-13.8-4.6-20.8,5.4-22.7,11.3c-1.9-5.9-8.9-15.9-22.7-11.3
			c-13.1,5.7-12.8,18.5-12.1,23.9c2.9,15.3,18,29.3,28.4,36c0.7-0.1,1.6-0.1,2.5-0.2C364.2,72.1,380.7,36.1,380.4,22.4z"/>
		<path class="st65" d="M347.9,77.2C347.9,77.2,347.9,77.2,347.9,77.2C347.9,77.2,347.9,77.2,347.9,77.2
			C347.9,77.2,347.9,77.1,347.9,77.2c8.8-3.5,31.3-20.4,34.9-39.5c0.5-3.4,0.8-9.7-2.3-15.3c0.3,13.8-16.2,49.8-36.5,51.1
			c-0.9,0.1-1.7,0.1-2.5,0.2C343.9,75.3,346.2,76.5,347.9,77.2C347.9,77.1,347.9,77.2,347.9,77.2z"/>
		<path class="st66" d="M314.9,34.4c-2.1-3.1,5.9-30.1,27.7-15.3C337.2,18.5,323.2,10.2,314.9,34.4z"/>
	</g>
	<g>
		<circle class="st67" cx="378.4" cy="15.3" r="11.4"/>
		<rect x="376.5" y="9.1" class="st64" width="3.7" height="12"/>
		
			<rect x="376.5" y="9.1" transform="matrix(-1.344384e-10 1 -1 -1.344384e-10 393.4586 -363.2536)" class="st64" width="3.7" height="12"/>
	</g>
</g>
<g id="Gluten_Free">
	<g>
		<circle class="st68" cx="479.3" cy="14.7" r="11.4"/>
		<g>
			
				<rect x="477.4" y="8.6" transform="matrix(0.7211 0.6928 -0.6928 0.7211 143.7274 -327.9718)" class="st69" width="3.7" height="12"/>
			
				<rect x="477.4" y="8.6" transform="matrix(-0.6928 0.7211 -0.7211 -0.6928 821.7665 -320.9796)" class="st69" width="3.7" height="12"/>
		</g>
	</g>
	<path class="st69" d="M456.3,51c0.2,0.2,0.6,0.3,1.6,0.6c4.2-0.1,6.9-4.9,7.1-8.2c-5.3,1-7.2,1.9-8.1,3.5c0.2-1.2,0.4-2.4,0.5-3.7
		c0.2,0.1,0.5,0.3,1.1,0.6c4.4,0.5,6.9-4.4,7.2-7.8c-5.3,1.1-6.8,2.6-8,4.7c0.2-1.4,0.4-2.9,0.5-4.4c0,0,0,0,0,0
		c4.8,1.6,7-3.5,7.3-6.8c-4.3,0.5-6.4,2.6-6.8,3.7c0,0.5-0.2,1-0.3,1.4c0.2-1.7,0.3-3.4,0.4-5.1c0.2,0.2,0.4,0.4,0.8,0.6
		c4.4,0.5,5.1-3.5,5.4-6.9c-4,0.7-5.5,2.2-6,3.5c0-1.2,0-2.4,0-3.6c0.2,0.2,0.4,0.3,0.7,0.5c4.4,0.5,4.2-3,4.5-6.4
		c-4.3,0.8-4.9,2-5.3,3.4c-0.1-1.4-0.3-2.8-0.5-4c0.2,0.3,0.4,0.5,0.9,0.8c4.4,0.5,3.4-3.5,3.2-5.5c-4.5,0.8-4.1,2.1-4.3,3.3
		c0,0.1,0,0.1,0,0.1c-0.1-0.5-0.2-0.9-0.3-1.4c0.3,1.3,0.5,2.7,0.6,4.1c-1-2.4-3.9-3.2-5.6-3.6c-0.1,0.7,0.4,2.2,1.8,4.7
		c1.9,2.6,3.6,1.8,3.9,0.8c0.1,0.7,0.1,1.5,0.1,2.3c0,0.1,0,0.2,0,0.3c0,0.4,0,0.8,0,1.2c-0.9-2-4.2-3.5-5.6-3.5
		c-0.1,0.7,0.1,2.5,0.9,4.4c1.8,3.7,4.1,2.6,4.6,1.5c0,1.3-0.1,2.6-0.1,3.9c-0.8-2.2-4.5-3.8-6-3.6c-0.1,0.6,0,1.4,0.5,3.4
		c2,5.1,4.5,3.5,5.3,2.4c-0.1,1.5-0.2,2.9-0.4,4.3c-1-2.4-4.3-3.6-6.2-4c-0.2,1.3-0.2,3.2,0.7,5.8c0.9,2.6,4.1,2.5,5.1,1.3
		c-0.2,1.4-0.4,2.7-0.6,4c-1.4-2.7-5.2-4.1-6.9-4.2c-0.4,1.1-0.2,4.3,0.4,5.8c1,2.6,4.3,2.9,6,1.6c-0.3,1.8-0.6,3.4-0.9,4.9
		c-1-3.4-5.9-4.8-7.4-4.8c-0.1,0.7-0.5,4.4,0.9,6.2c2.6,3.3,5.2,2.2,6.1,0.8c-0.1,0.3-0.1,0.6-0.2,0.9c-0.3,1.5-0.6,2.9-0.8,4.4
		c-1.4-3.4-6.3-4.5-8.2-4.9c-0.2,1.8,0.1,4.8,1.4,6.8c2.9,3.2,5.4,1.9,6.5,0.8c-0.2,1.7-0.4,3.4-0.5,5.1c-2.6-3.5-7.3-4.5-9-4.5
		c-0.2,0.5-0.7,2.2,1,5.6c2.2,4.7,6.2,3.9,7.8,2.8c0,5.5,0.6,9.6,1.3,11.2c0.4,1.7,2.2,1.8,1.9,0.7c-1.3-7.2-1.7-12.3-1.6-16.5
		c0.5,0.8,1.4,1.2,3.5,0.8c3.5-0.7,6-5.5,6.2-8.8c-5.7,0.6-8.3,2.1-9.6,4.2c0.1-1.4,0.3-2.8,0.4-4.1c0.2,0.1,0.7,0.2,1.8,0.5
		c4.2-0.1,7.5-4.9,7.7-8.3c-5,0.5-7.7,1.7-9,3.4c0-0.1,0-0.2,0-0.4C455.9,53.2,456.1,52.1,456.3,51z M456.9,43.9
		c-0.2,1.1-0.3,2.2-0.5,3.2C456.4,47.1,456.6,44.8,456.9,43.9z M455.1,54.1c0-0.2,0.1-0.6,0.4-2C455.3,52.9,455.2,53.5,455.1,54.1z"
		/>
	<path class="st70" d="M436.3,56.1c0.2,0.1,0.6,0,1.7-0.3c3.5-2.4,3.2-7.8,1.6-10.7c-3.9,3.7-5,5.4-5,7.3c-0.5-1.1-1-2.2-1.5-3.4
		c0.2,0,0.6,0,1.3-0.1c4-1.9,3.4-7.5,1.9-10.4c-3.9,3.7-4.3,5.8-4.2,8.3c-0.6-1.3-1.3-2.7-1.9-4c0,0,0,0,0,0c4.9-1.2,4-6.7,2.5-9.7
		c-3.3,2.7-4,5.7-3.7,6.8c0.3,0.4,0.4,0.9,0.5,1.4c-0.8-1.5-1.6-3-2.4-4.5c0.2,0.1,0.5,0.1,1,0.1c4-1.9,2.4-5.7,0.8-8.7
		c-3,2.8-3.4,4.8-3.2,6.2c-0.6-1-1.3-2-1.9-3c0.2,0,0.5,0.1,0.8,0c4-1.9,1.9-4.8,0.3-7.8c-3.2,3-3,4.3-2.6,5.7
		c-0.9-1.1-1.7-2.2-2.6-3.1c0.3,0.2,0.6,0.2,1.2,0.2c4-1.9,1-4.8-0.3-6.4c-3.4,3.2-2.3,4-1.8,5.1c0,0,0.1,0.1,0.1,0.1
		c-0.3-0.3-0.7-0.7-1-1c0.9,1,1.9,2,2.8,3.2c-2.1-1.5-5-0.6-6.6-0.1c0.3,0.7,1.6,1.7,4.1,3c3,1.2,4-0.4,3.7-1.5
		c0.4,0.6,0.9,1.2,1.3,1.8c0,0.1,0.1,0.2,0.2,0.2c0.2,0.3,0.5,0.7,0.7,1c-1.8-1.2-5.4-0.7-6.6,0c0.3,0.6,1.4,2.1,3.2,3.2
		c3.5,2.1,4.9,0,4.7-1.2c0.7,1.1,1.4,2.2,2,3.4c-1.9-1.4-5.9-0.8-6.9,0.2c0.3,0.5,0.7,1.2,2.3,2.6c4.4,3.2,5.7,0.5,5.8-0.8
		c0.7,1.3,1.3,2.6,2,3.8c-2.1-1.5-5.6-0.7-7.4-0.1c0.5,1.2,1.6,2.8,3.7,4.5c2.1,1.7,4.8-0.1,5-1.6c0.6,1.3,1.1,2.5,1.7,3.7
		c-2.6-1.5-6.6-0.7-8.1,0.2c0.3,1.1,2.2,3.7,3.5,4.7c2.3,1.7,5.2,0.1,5.9-1.9c0.7,1.7,1.3,3.2,1.9,4.6c-2.7-2.4-7.5-0.9-8.9-0.1
		c0.3,0.6,2,3.9,4.1,4.8c3.9,1.4,5.6-0.9,5.6-2.6c0.1,0.3,0.2,0.6,0.3,0.8c0.5,1.4,1.1,2.8,1.7,4.2c-3-2.1-7.8-0.4-9.6,0.3
		c0.8,1.7,2.6,4,4.8,5c4.2,1.1,5.6-1.3,5.9-2.8c0.8,1.6,1.5,3.1,2.3,4.5c-4.1-1.5-8.6,0.2-10,1c0.1,0.5,0.6,2.2,3.8,4.2
		c4.4,2.8,7.4,0,8.1-1.8c2.9,4.6,5.7,7.8,7.1,8.8c1.3,1.2,2.8,0.3,2-0.5c-5-5.3-8.1-9.5-10.3-13c0.8,0.5,1.8,0.3,3.4-1.2
		c2.6-2.5,2.1-7.8,0.5-10.8c-4.5,3.6-5.9,6.2-5.8,8.7c-0.7-1.3-1.3-2.5-1.9-3.7c0.3,0,0.7-0.2,1.8-0.5c3.5-2.4,3.6-8.2,2.1-11.1
		c-3.9,3.1-5.5,5.6-5.7,7.7c-0.1-0.1-0.1-0.2-0.2-0.3C437.2,58.1,436.7,57.1,436.3,56.1z M433,49.8c0.4,1,0.9,2,1.3,3
		C434.3,52.7,433.3,50.7,433,49.8z M436.9,59.4c-0.1-0.1-0.2-0.6-0.7-1.9C436.5,58.2,436.7,58.8,436.9,59.4z"/>
	<path class="st71" d="M473,55.8c0.1,0.2,0.4,0.5,1.2,1.3c3.9,1.6,8.2-1.6,9.9-4.5c-5.2-1.3-7.3-1.2-8.8-0.1c0.7-1,1.3-2.1,2-3.1
		c0.1,0.2,0.4,0.5,0.8,1c3.8,2.3,8.2-1.2,9.8-4.1c-5.2-1.2-7.2-0.4-9.2,1c0.8-1.2,1.5-2.5,2.3-3.8c0,0,0,0,0,0
		c3.7,3.4,7.8-0.3,9.5-3.2c-4.1-1.3-6.9-0.3-7.7,0.6c-0.2,0.4-0.5,0.8-0.9,1.2c0.8-1.5,1.6-3,2.4-4.5c0.1,0.2,0.2,0.5,0.5,0.8
		c3.8,2.3,6.1-1.1,7.7-4.1c-4-1-5.9-0.3-7,0.8c0.5-1.1,1-2.2,1.4-3.2c0.1,0.2,0.2,0.4,0.4,0.7c3.8,2.3,5.1-1,6.7-4
		c-4.3-1-5.2-0.2-6.2,0.9c0.5-1.4,0.9-2.7,1.2-3.9c0,0.3,0.2,0.6,0.4,1.1c3.8,2.3,4.5-1.8,5.2-3.8c-4.5-1.1-4.7,0.2-5.3,1.3
		c0,0,0,0.1,0,0.1c0.1-0.5,0.2-0.9,0.2-1.4c-0.3,1.3-0.7,2.7-1.1,4c0.1-2.5-2.2-4.5-3.6-5.6c-0.4,0.6-0.5,2.2-0.3,5.1
		c0.6,3.2,2.5,3.2,3.2,2.3c-0.3,0.7-0.5,1.4-0.8,2.1c-0.1,0.1-0.1,0.2-0.1,0.3c-0.2,0.4-0.3,0.8-0.5,1.1c0-2.2-2.4-4.9-3.6-5.5
		c-0.4,0.6-1,2.3-0.9,4.4c0.2,4.1,2.7,4.1,3.6,3.3c-0.6,1.2-1.1,2.4-1.7,3.5c0.2-2.4-2.5-5.4-4-5.7c-0.3,0.5-0.6,1.3-1,3.3
		c-0.2,5.5,2.7,5.1,3.9,4.4c-0.7,1.3-1.4,2.5-2.1,3.8c0-2.6-2.4-5.1-4-6.2c-0.7,1.1-1.5,2.9-1.7,5.6c-0.2,2.7,2.7,4,4.1,3.3
		c-0.7,1.2-1.5,2.3-2.2,3.4c-0.2-3-3.1-5.9-4.6-6.6c-0.8,0.8-1.9,3.8-2,5.5c-0.1,2.8,2.7,4.4,4.8,3.9c-1,1.5-2,2.9-2.8,4.1
		c0.5-3.5-3.4-6.8-4.8-7.4c-0.4,0.6-2.2,3.8-1.8,6.1c1,4,3.9,4.2,5.2,3.2c-0.2,0.3-0.4,0.5-0.5,0.7c-0.9,1.2-1.8,2.4-2.6,3.7
		c0.2-3.7-3.9-6.7-5.5-7.8c-1,1.6-1.9,4.4-1.6,6.8c1.3,4.1,4.2,4,5.6,3.4c-0.9,1.5-1.7,3-2.5,4.4c-1-4.2-4.8-7.1-6.3-7.8
		c-0.3,0.4-1.5,1.8-1.4,5.5c0.1,5.2,4.1,6.1,6,5.8c-2.3,5-3.4,9-3.5,10.8c-0.3,1.7,1.3,2.5,1.5,1.4c1.7-7.1,3.5-11.9,5.3-15.7
		c0.1,1,0.7,1.7,2.9,2.2c3.5,0.8,7.7-2.6,9.3-5.5c-5.4-1.8-8.4-1.5-10.4-0.1c0.7-1.3,1.4-2.4,2.1-3.6c0.2,0.2,0.6,0.5,1.4,1.2
		c3.9,1.6,8.8-1.4,10.4-4.4c-4.8-1.6-7.7-1.6-9.6-0.5c0.1-0.1,0.1-0.2,0.2-0.3C471.8,57.6,472.4,56.7,473,55.8z M476.4,49.6
		c-0.6,0.9-1.2,1.8-1.8,2.7C474.7,52.3,475.8,50.3,476.4,49.6z M470.6,58.2c0.1-0.1,0.4-0.5,1.2-1.7
		C471.3,57.1,470.9,57.7,470.6,58.2z"/>
</g>
<g id="No_bake">
	<g id="Oven">
		<g>
			<rect x="526.8" y="31.2" class="st72" width="60.5" height="50"/>
			<rect x="526.8" y="20.2" class="st72" width="60.5" height="9.2"/>
		</g>
		<path class="st73" d="M570.4,70.6h-26.7c-2.1,0-3.8-1.7-3.8-3.8V50c0-2.1,1.7-3.8,3.8-3.8h26.7c2.1,0,3.8,1.7,3.8,3.8v16.9
			C574.1,68.9,572.5,70.6,570.4,70.6z"/>
		<path class="st74" d="M567.8,68.8h-21.6c-2.1,0-3.8-1.7-3.8-3.8V51.8c0-2.1,1.7-3.8,3.8-3.8h21.6c2.1,0,3.8,1.7,3.8,3.8V65
			C571.6,67.1,569.9,68.8,567.8,68.8z"/>
		<rect x="539.9" y="22.2" class="st73" width="34.2" height="5.3"/>
		<path class="st75" d="M562.9,26.5h-10.4c-1,0-1.8-0.8-1.8-1.8v0c0-1,0.8-1.8,1.8-1.8h10.4c1,0,1.8,0.8,1.8,1.8v0
			C564.6,25.7,563.8,26.5,562.9,26.5z"/>
		<path class="st76" d="M576.2,40.9h-37.5c-0.6,0-1.1-0.5-1.1-1.1v0c0-0.6,0.5-1.1,1.1-1.1h37.5c0.6,0,1.1,0.5,1.1,1.1v0
			C577.3,40.4,576.8,40.9,576.2,40.9z"/>
	</g>
	<g>
		<circle class="st77" cx="587.3" cy="16.1" r="11.4"/>
		<g>
			
				<rect x="585.4" y="10" transform="matrix(0.7211 0.6928 -0.6928 0.7211 174.8291 -402.4071)" class="st72" width="3.7" height="12"/>
			
				<rect x="585.4" y="10" transform="matrix(-0.6928 0.7211 -0.7211 -0.6928 1005.6269 -396.473)" class="st72" width="3.7" height="12"/>
		</g>
	</g>
</g>
<g id="Vanilla">
	<g id="Vanilla_stick">
		<path class="st78" d="M646.1,38.4C646,38.4,646,38.4,646.1,38.4C646.1,38.4,646.1,38.4,646.1,38.4
			C646.1,38.4,646.1,38.4,646.1,38.4z"/>
		<path class="st79" d="M695.6,85.3c0.7,0.7-3,1.9-5.7,0c-7.4-5.8-10.1-9.7-16.6-16.5c-4.8-5.1-18-18.4-27.2-30.3
			C685.1,80.3,687.1,80.7,695.6,85.3z"/>
		<path class="st79" d="M634.5,16.1c2.2,8,5.8,13,11.5,22.3c-5.5-7.1-9.9-13.5-10.7-17.1c-3.5-14.6-13-4.7-14.1-1.2
			c-1.1,3.3-2.1,2.6-2.3,0.5c0.7-1.1,1.5-2.3,2.2-3.5C621.3,13.7,632.3,8.1,634.5,16.1z"/>
		<g>
			<path class="st80" d="M636,18.7c0.2,0.8,2.6,2.4,2.6,2.4s0.5,0.1,1.2,0.2c-0.6-1.1-1-2.1-1.3-2.6c-0.2-0.5-0.4-1-0.7-1.4
				C636.8,17.6,635.9,18.1,636,18.7z"/>
			<path class="st80" d="M674.7,65.2c-6.9-7.1-12.4-11.9-18.2-18.9c-7.2-8.7-13.8-19.6-16.6-25c-0.6-0.1-1.2-0.2-1.2-0.2
				s-2.4-1.6-2.6-2.4c-0.2-0.6,0.7-1.1,1.8-1.5c-3.8-6.2-14.1-8.1-17.4-3.6c-1.5,2-1.8,5-1.6,6.9c0.7-1.1,1.5-2.3,2.2-3.5
				c1.8-3.3,8.9-7.5,13.4-0.9c2.2,8,5.8,13,11.5,22.3c0,0,0.1,0.1,0.1,0.1c40.6,43.6,31.2,33.7,40,42.6c0.8,0.8,5.1,4.2,7.3,4.8
				c2.2,0.6,2.9-0.8,1.7-1.3C691.3,83.1,687,77.7,674.7,65.2z"/>
		</g>
	</g>
	<g id="Vanilla_stick_1_">
		<path class="st78" d="M652.8,28.5C652.8,28.5,652.8,28.5,652.8,28.5C652.8,28.5,652.9,28.5,652.8,28.5
			C652.9,28.6,652.9,28.5,652.8,28.5z"/>
		<path class="st79" d="M698.9,69.7c-6.5-2.7-35.7-30.1-46-41.1C695.4,66.7,694,65.1,698.9,69.7z"/>
		<path class="st79" d="M639.3,7.3c2.9,7.8,6.9,12.5,13.5,21.1c-6.1-6.6-10.3-12.9-12.2-16.1C635.6,4.1,636.4-0.5,639.3,7.3z"/>
		<path class="st80" d="M700.5,68.8c-2.3-0.2-4.3-3.1-5.3-3.8c-3-2.2-10.5-9.8-16.3-15.4c-7.5-6.4-8.6-7.7-15-14.1
			c-8-8-15.5-18.3-18.8-23.4c-0.7-1.1-1.2-2-1.5-2.5c-0.2-0.5-0.5-0.9-0.9-1.4c-4.3-5.8-8.6-6.9-3.4-0.8c2.9,7.8,6.9,12.5,13.5,21.1
			c0,0,0.1,0.1,0.1,0.1c44.3,39.8,39.2,35.8,46,41.1c3.1,1.9,9,1.4,8.4-3.1C706.4,60.8,705.3,69.2,700.5,68.8z"/>
	</g>
	<g id="Vanilla_Stick">
		<path class="st78" d="M685.7,72.8c-0.4-0.3-0.8-0.6-1.2-1C684.8,72.2,685.2,72.5,685.7,72.8z"/>
		<path class="st81" d="M665.7,50.8c-0.8-1.4-19.8-23.9-20.8-25.3c-0.9-1.3-0.3-2.8-2.3-4.9c-0.1,0-0.4,0.9-0.2,1.4
			c0.1,0.5,1.6,2.8,3.4,5.4c7.9,10.3,29.5,36.7,38.8,44.4c-0.1-0.1-0.2-0.2-0.2-0.3C683.1,69.7,666.5,52.2,665.7,50.8z"/>
		<path class="st80" d="M689.5,74c0.6-0.1,1.1-0.3,1.2-0.4c0.3-0.2-3-1.2-3-1.2s-3.2-1.9-6.6-6.1c-0.5-0.6-24.9-29.8-33.2-40
			c-3.8-3.8-4-6.6-5.4-5.8c1.2,4,1.4,3.6,2.3,4.9c1,1.4,20,23.9,20.8,25.3c0.8,1.4,17.4,18.9,18.5,20.8c0.1,0.1,0.1,0.2,0.2,0.3
			c0.4,0.4,0.8,0.7,1.2,1C686.8,73.5,688.2,73.9,689.5,74z"/>
		<path class="st79" d="M685.7,72.8c0.5,0.4,0.9,0.6,1.3,0.8c0.9,0.4,1.8,0.5,2.5,0.4C688.2,73.9,686.8,73.5,685.7,72.8z"/>
	</g>
	<g id="Flower">
		<g id="Shadows">
			<path class="st82" d="M639.8,36.1c1.7,14.8,10.1,15.4,16.8,14.3C650.6,50.1,643.1,50.5,639.8,36.1z"/>
			<path class="st82" d="M658,23C658,23,658,23,658,23c-1.5,4.5-2.8,9.1-1.4,15.9c0.5,0.7,1.1,1.3,1.8,2C657.1,39,657,28.4,658,23z"
				/>
			<path class="st82" d="M678.7,46.8c4.9-0.2,10.1-7.9,8.5-14.2C686.6,36.4,686.5,41.3,678.7,46.8z"/>
			<path class="st82" d="M669.1,54.3c5.3,10.8,17.6,5.3,23.2-1.2C677.8,64.5,672,56.5,669.1,54.3z"/>
			<path class="st82" d="M656.5,50.5c-3.9,3.5-5.7,12.1,0.4,12.5c9.6-0.9,10.1-1.8,12.2-8.7C669.9,51.7,655.6,51.6,656.5,50.5z"/>
		</g>
		<path class="st83" d="M687.2,32.6c-3.4-0.1-11.1-0.1-15.2,3.6c-0.3-7.7-9.3-12.7-14-13.2c-1,5.4-0.9,15.9,0.3,17.9
			c-0.6-0.7-1.2-1.3-1.8-2c0,0,0,0,0,0.1c-8.7-6.1-10.7-0.7-16.8-2.9c3.3,14.3,10.8,13.9,16.8,14.3c-4.5,5.6-2.6,8.1,0.8,9.7
			c1.9-1,9.4,3,11.8-5.9c2.9,2.2,8.7,10.2,23.2-1.2c-4-0.4-6-5.1-13.6-6.3C686.5,41.3,686.6,36.4,687.2,32.6z"/>
		<g id="Inside">
			<path class="st82" d="M671,44.9c3.7-1.3,7.7-4.5,8.7-7.1C676.8,40.1,674.4,42.4,671,44.9z"/>
			<path class="st82" d="M665.1,35.3c-0.3,3.6,0.1,4.3,1.2,6.8C666,39.5,666.2,38.8,665.1,35.3z"/>
			<path class="st82" d="M664.8,49.4c-1.3,2-1.9,2.7-3.6,3.3C663.3,53.4,664.5,51.2,664.8,49.4z"/>
			<path class="st82" d="M652.9,43.4c1.4,2.3,6.9,3.7,10.2,3.3C660.2,46.1,657.1,45.6,652.9,43.4z"/>
			<path class="st82" d="M671.8,49.1c1.6,1.4,5.4,3.2,8.1,3.9C678.2,54.2,672.6,50.7,671.8,49.1z"/>
		</g>
	</g>
	<g id="Flower_1_">
		<g id="Shadows_1_">
			<path class="st84" d="M659.2,40.5c-1.6,6.5,1.2,7.2,3.7,7.1C660.9,47.1,658.2,46.9,659.2,40.5z"/>
			<path class="st84" d="M667.4,35.7C667.4,35.7,667.4,35.7,667.4,35.7c-1.1,1.9-2.2,3.8-2.7,6.8c0.1,0.3,0.2,0.6,0.3,0.9
				C664.8,42.5,666.3,38,667.4,35.7z"/>
			<path class="st84" d="M671.5,47.1c1.8,0.2,4.8-3.1,5.1-5.9C675.8,42.8,675.1,45,671.5,47.1z"/>
			<path class="st84" d="M666.9,50c0.4,5.3,5.7,3.4,8.8,0.7C668.6,55.2,667.6,51.1,666.9,50z"/>
			<path class="st84" d="M662.9,47.6c-1.9,1.4-3.8,5.2-1.7,5.7c3.6,0.1,3.9-0.2,5.7-3.3C667.6,48.9,662.5,48.1,662.9,47.6z"/>
		</g>
		<path class="st85" d="M676.6,41.1c-1.2-0.2-4.1-0.6-6,0.9c1-3.4-1.5-5.9-3.1-6.3c-1.1,2.2-2.6,6.8-2.4,7.7
			c-0.1-0.3-0.2-0.6-0.3-0.9c0,0,0,0,0,0c-2.1-3-3.6-0.8-5.4-2c-1,6.4,1.7,6.6,3.7,7.1c-2.4,2.3-2.1,3.5-1.2,4.4
			c0.8-0.3,2.9,1.9,5.1-2c0.7,1.2,1.7,5.2,8.8,0.7c-1.4-0.4-1.5-2.7-4.2-3.6C675.1,45,675.8,42.8,676.6,41.1z"/>
		<g id="Inside_1_">
			<path class="st84" d="M668.9,45.8c1.5-0.4,3.4-1.6,4.2-2.8C671.7,44,670.5,44.9,668.9,45.8z"/>
			<path class="st84" d="M668.2,41.3c-0.6,1.6-0.6,1.9-0.5,3.1C667.9,43.2,668.1,42.9,668.2,41.3z"/>
			<path class="st84" d="M666,47.5c-0.8,0.8-1.1,1.1-1.8,1.3C664.9,49.3,665.7,48.3,666,47.5z"/>
			<path class="st84" d="M662.7,44.3c0.2,1.1,1.9,2,3.1,2C664.9,45.9,663.9,45.5,662.7,44.3z"/>
			<path class="st84" d="M668.6,47.8c0.4,0.7,1.5,1.7,2.4,2.2C670.2,50.4,668.7,48.6,668.6,47.8z"/>
		</g>
	</g>
</g>
</svg>
