<svg id="Layer_1" data-name="Layer 1" xmlns="http://www.w3.org/2000/svg" viewBox="0 0 258.95 476.75"><defs><style>.cls-1{fill:none;}.cls-2{fill:#ff3636;}.cls-3{fill:#6b6b6b;}.cls-4{fill:#252628;}.cls-5{fill:#202123;}</style></defs><title>display</title><path class="cls-1" d="M86.67,69.26C95,60.91,98.79,51.69,92.78,40.49,86,49,84,58.59,86.67,69.26Z"/><path class="cls-1" d="M184.76,401.39c-3.89-2.53-7.56-3.42-11-4.65-7.38-2.6-15.37-4.42-21.35-9.42A143.13,143.13,0,0,1,118.62,347c-.86-1.55-1.49-3.05-.11-4.57,1.24-1.36,2.75-1,4.13-.28a23.9,23.9,0,0,1,4.24,2.56,57.46,57.46,0,0,1,11,12.17c3.8,5.5,8,10.74,14.92,12.59,1.67.45,3.78,1.65,5.13-.08,1.14-1.45-.28-3.11-1-4.57a38.14,38.14,0,0,0-8-11.41c-11.23-10.72-21.19-22.54-30.84-34.66-1.34-1.69-3-3.12-4.42-4.74-2.36-2.68-5.23-3.7-8.82-3.76-11.63-.18-23.33-.08-34.28-5.12a7.81,7.81,0,0,0-5.9-.17c-8.06,3-14,8.33-16.66,16.67a60.46,60.46,0,0,0-2.39,18.26c0,4.16,1.47,7.44,5.24,9.48a32.54,32.54,0,0,1,11.64,10.72c3.43,5.11,6.82,10.24,10.24,15.35,8.07,12.11,14.75,25,27.64,33.56s25.66,13,40.7,7.75c1.84-.64,5.12-.74,4.45-3.54s-3.47-1-5.11-.6c-7.88,1.89-14.84,1-21.58-4.15-8.17-6.28-17.27-11.25-26.38-16.1-1.38-.73-3.41-1.18-3.43-3.47,2.23-.75,3.42.74,4.81,1.47a337.52,337.52,0,0,1,30.22,18.43c2.58,1.71,5.16,3,8.36,2.5,8.86-1.44,17.75-2.75,26.59-4.33a28,28,0,0,0,9.48-2.93c-2.53-1.19-4.7-.53-7,0-9.32,2-18.51,2.15-27-3.15-.89-.56-2.68-.76-1.93-2.29s2.1-.31,2.94.2a26.56,26.56,0,0,0,16.23,3.87,1.91,1.91,0,0,0-.08-1,16.33,16.33,0,0,1-7.42-3.81c-6.09-4.89-11.72-10.41-18.63-14.2-7.63-4.18-13.17-10.62-18.81-17-.68-.76-2.15-1.7-.78-2.85,1-.84,1.87.32,2.4,1.07,7.15,10,18.25,15.34,27.22,23.14s18.42,13.29,30.7,12.88c2.94-.09,5.9,1,8.88,1.22S181.05,403,184.76,401.39Zm-98.6-14.17a1.4,1.4,0,0,1-1.28.07,42.08,42.08,0,0,1-7.13-10.07c-.21-.4.07-1.34,1.18-1.37a3.71,3.71,0,0,1,1,.74q3.17,4.44,6.26,8.93C86.59,386.08,86.91,386.75,86.16,387.22Zm4.11-10.6-.35-.36.35-.64c.12.11.34.24.32.33A3.4,3.4,0,0,1,90.27,376.62Zm13.17,8.77a1.29,1.29,0,0,1-1.16.49,24,24,0,0,1-7.84-4,1.35,1.35,0,0,1-.22-1.27c.15-.33.72-.47,1.08-.68,2.74,1.45,5.36,2.79,7.93,4.23A1.32,1.32,0,0,1,103.44,385.39Zm7.26,1.95c1.09.07,2.73-.28,2.82,1.67v.3l-1.9.37,1.9-.37a1.37,1.37,0,0,1,2.25-.05l8.78,3.76a12.89,12.89,0,0,1,1.84.75c1,.56,2.5,1.14,1.73,2.47s-2,0-3-.38a9.17,9.17,0,0,1-1.64-1h0l-8.09-3.47-3.82-1.68-1.5-.7C109.73,388.21,109.47,387.26,110.7,387.34Z"/><path class="cls-2" d="M141.86,51.58a1.36,1.36,0,0,1,.06.33c0-.11.07-.21.1-.32a28.83,28.83,0,0,1,1-2.92,18.41,18.41,0,0,0,.29-2.49.36.36,0,0,0,0-.11c0,.88-.84,1.31-1.66,1.36-3,.18-6,.44-9,.38-6.82-.14-13.65-.65-20.33,1.28-1-2.34,1-2.33,2.29-2.78,3.2-1.1,6.52-1.07,9.86-1.1,3.18,0,6.42.67,9.65-.8C130,42,126,38.32,120.77,40.21c-2.56.91-4.66,1.35-7,.07-2.07-1.11-3.72-.47-5.34,1.12s-.38,3,.33,4.42,1.73,2.81,2.61,4.21c4.07,5.35,9.92,5.67,15.72,4.91,4.06-.54,8-2.3,12-3.47C140,51.19,141.27,49.74,141.86,51.58Z"/><path class="cls-3" d="M102.47,76.61A13.21,13.21,0,0,1,95.56,84c-7,3.36-13.92,7.08-20.82,10.74a18.69,18.69,0,0,0-9.2,10.13A115.34,115.34,0,0,0,58.92,131c-3.44,30.28-6.74,60.61-6.73,91.16,0,2,0,3.89-1.21,5.73-13,19.9-24,41.12-37.73,60.58a22.06,22.06,0,0,0-3.61,8.69c-.15.8-.34,1.77.6,2.17s1.52-.46,1.66-1.27c1.18-7.27,6.34-12.36,10.09-18.16,12.1-18.74,22.6-38.45,35-57,8.35-12.43,18.83-23.52,25.33-37.06,12.58-26.2,29-50.59,37.63-78.66a14.29,14.29,0,0,1,7-8.77c18.5-9.59,37.44-13.65,58-6.53,14.08,4.86,25.19,15,38.7,20.49,16,6.53,20.29,20.58,23.62,35.06,1.53,6.7,1.2,13.89.93,20.91-.29,7.37-.07,14.75-.07,22.2.33-.25.68-.38.8-.62a3.84,3.84,0,0,0,.44-1.43c1.09-20,4.26-40.05-5.5-59.28-3.89-7.65-8.28-13.84-16.14-17.4a138.93,138.93,0,0,1-20.4-11.53c-19.44-13.15-40.52-18-63.53-11.71-13.22,3.65-24.66,9.07-28.93,24.24C111.5,125.1,106,136.79,99.6,148c-6.82,11.81-13,24-19.07,36.19C74,197.4,63.76,208.27,55,221.68c-.14-2.3-.25-3.23-.23-4.16a564.25,564.25,0,0,1,3.39-56.35c2-17.5,2.88-35.18,8.47-52.15,1.84-5.58,4.86-9.77,9.94-12.47,6.6-3.52,13.19-7.07,20-10.25a15.17,15.17,0,0,0,8.2-8.85c1.18-3.08,2.44-6.14,3.84-9.55-.64-.49-1.26-1-1.85-1.57Q104.56,71.46,102.47,76.61Z"/><path class="cls-3" d="M115.53,75.47a9.33,9.33,0,0,0,6.56,6.29c10.43,2.77,20.14,3.51,29.58-4.28,13.5-11.15,25.74-23.7,39.32-34.7C200.41,35.16,208.5,27,211.33,14.7c.19-.85,0-2.13,2.06-1.88,7.29.9,13.6-4.88,14-12.82-3,2.29-4.28,5.62-6.39,8.24-1.63,2-3.44,4.07-6.26,2.51-4.17-2.29-5.07.06-5.89,3.44a40.31,40.31,0,0,1-15.3,23.28C188.91,41,184.72,45.08,180.38,49c-11.42,10.19-22.22,21.14-35,29.72-5.16,3.47-19.86,3.23-24.84-.29a6.42,6.42,0,0,1-2.25-2.58c-.58-1.36-1.15-2.73-1.71-4.09a20.42,20.42,0,0,1-2.9-.93C114.34,72.39,115,73.92,115.53,75.47Z"/><path class="cls-3" d="M199.44,471.26q-8.15-20.91-16.29-41.81a76.93,76.93,0,0,1-4.6-19.89c-.36-3.54,0-5.4,4.12-4.85a3.43,3.43,0,0,0,3.87-2.52c.64-2.21-1-3.53-2.67-4.25a85.59,85.59,0,0,0-9.83-3.6c-12-3.6-22.79-9.13-30.95-19.06-2.84-3.46-6.62-6.2-9.24-9.8-4.82-6.62-9.1-13.63-14-21.06,3.11-.05,4.55,1.39,6,2.61a59.32,59.32,0,0,1,10.26,11.52c4.45,6.3,9.37,12.23,17.66,13.67,2.11.37,4.29,1.09,6-.91,1.94-2.21.84-4.46-.14-6.53a51.53,51.53,0,0,0-10.36-14.57c-8.65-8.55-17.34-17.1-24.25-27.18-7.59-11.06-17-18-31.3-15.58a23.6,23.6,0,0,1-5.49-.19,40.32,40.32,0,0,1-16.53-4.95c1.54-1.36,2.84-2.39,4-3.56,19.36-19.27,38.89-38.41,53.5-61.79,5.29-8.47,10.14-17.25,16.8-24.76S159.5,196.67,171.13,197c.83,0,1.79-.12,1.67-1.26s-1.13-1-1.93-1.1c-5.81-.48-10.76,1.68-15.31,5a75.07,75.07,0,0,0-20.48,23.64c-16.84,29.45-40,53.5-64.18,76.75-.93.89-1.7,2.08-3.17,2.26-10.47,1.27-16.86,7.65-21.4,16.65-3.45,6.86-10.15,9.73-17.29,7.68A110.82,110.82,0,0,0,13,323c-5.14-.68-7.77-3.87-8-8.71-.89-18-3.15-35.89-2.78-53.88a425.53,425.53,0,0,1,7.71-71.46c5.86-30.57,10.94-61.29,18-91.63a26.63,26.63,0,0,0,0-13.73A115.87,115.87,0,0,1,23.79,49c.06-2.66.48-4.8,2.84-6.45,7.76-5.46,15.44-11,23.13-16.59,2.5-1.81,5-2.41,7.94-.21C50.13,33,42.87,40.31,34.84,46.79c-2.26,1.81-4.18,3.88-3.9,7.1.08.89.52,1.8,1.38,1.84S33.6,54.9,33.46,54c-.36-2.53,1.26-4.09,3-5.4,8.58-6.67,16.11-14.47,23.89-22,3.14-3,6.25-3.69,10.45-2.24-.8,1.08-1.36,1.88-2,2.65C62.51,35.21,55,42.28,47.68,49.59a15.48,15.48,0,0,0-4.61,10.67c-.06,1-.27,2.34,1,2.51,1.67.23,1.68-1.36,1.59-2.43C45.24,55.85,47.79,53,50.7,50,58.82,41.91,67,33.83,73.82,24.51c2-2.7,4.22-3.21,7.29-1.84-5.7,10-11.25,19.61-16.69,29.29-1.62,2.87-3,5.91-2.45,10.27,1.21-1.13,1.73-1.38,1.85-1.75,4-12.15,11.89-22.23,17.6-33.46a19.8,19.8,0,0,1,3.19-3.82c2-2.18,3.81-2,6-.15,4.43,3.65,5,8.89.77,14.67-6.87,9.33-9.82,19.47-7.57,31,.33,1.72.77,3.46,2.69,3.74,1.64.24,2.65-1.07,3.43-2.46,2-3.63,3.93-7.37,6.79-10.44,1.89-2,2.17-4.11,1.62-6.83-1.26-6.18-3.2-12.3-2.61-18.72.14-1.54-.48-3.85,1.58-4.21,1.72-.29,2,1.9,2.56,3.19.93,2.17,1.87,4.32,2.86,6.46A19.93,19.93,0,0,1,104.35,37c-4.59-10.14-10-18.75-23.51-17.5-5.8.54-11.42,2.86-17.38,1.88a1.73,1.73,0,0,0-1.33.59c-1.51,1.81-3.18,1.23-4.92.47C54,21,51.16,22,48.39,24Q37.11,32.23,25.65,40.25c-3,2.1-4.09,4.74-4.21,8.45a131.19,131.19,0,0,0,4.61,38,12.87,12.87,0,0,1,.26,6.38C18.25,129.19,11.65,165.56,5.21,202c-6.6,37.37-6.31,74.93-2.58,112.54.64,6.46,3.44,9.58,9.77,10.87,4.73,1,9.56,1.45,14.12,3.16,6.16,2.31,12,2.6,16.93-2.68.08-.08.5.17.74.25-.31,4.18-.78,8.3-.88,12.44s0,8.86,4.11,11.18c10.18,5.8,16,15.25,21.89,24.75,9.45,15.28,18.52,30.69,35,40.08,12.88,7.32,25.78,9.17,39.58,3.84,2.38-.91,5.32-2,4.47-5.59-.55-2.29,1.07-2,2.27-2.19,7.75-1,15.5-2,22.57-5.74,1.92-1,2.52.16,2.71,2.06a92.15,92.15,0,0,0,1.62,11.86c3.37,14.49,9.89,27.88,14.88,41.8,1.75,4.85,3.88,9.56,5.86,14.32.36.85.56,2.26,1.9,1.73s.64-1.68.35-2.59S199.8,472.19,199.44,471.26ZM86.67,69.26C84,58.59,86,49,92.78,40.49,98.79,51.69,95,60.91,86.67,69.26Zm88.58,332.87c-3-.2-5.94-1.31-8.88-1.22-12.28.41-21.67-5-30.7-12.88s-20.07-13.13-27.22-23.14c-.53-.75-1.4-1.91-2.4-1.07-1.37,1.15.1,2.09.78,2.85,5.64,6.35,11.18,12.79,18.81,17,6.91,3.79,12.54,9.31,18.63,14.2a16.33,16.33,0,0,0,7.42,3.81c1.84.15,3.81-.53,6.19,1-2.51,1.12-4.29,1.58-6.11-.06a26.56,26.56,0,0,1-16.23-3.87c-.84-.51-2.16-1.79-2.94-.2s1,1.73,1.93,2.29c8.5,5.3,17.69,5.11,27,3.15,2.31-.48,4.48-1.14,7,0a28,28,0,0,1-9.48,2.93c-8.84,1.58-17.73,2.89-26.59,4.33-3.2.52-5.78-.79-8.36-2.5A337.52,337.52,0,0,0,93.9,390.35c-1.39-.73-2.58-2.22-4.81-1.47,0,2.29,2,2.74,3.43,3.47,9.11,4.85,18.21,9.82,26.38,16.1,6.74,5.17,13.7,6,21.58,4.15,1.64-.39,4.42-2.24,5.11.6s-2.61,2.9-4.45,3.54c-15,5.24-27.84.77-40.7-7.75S80.87,387.54,72.8,375.43c-3.42-5.11-6.81-10.24-10.24-15.35a32.54,32.54,0,0,0-11.64-10.72c-3.77-2-5.26-5.32-5.24-9.48a60.46,60.46,0,0,1,2.39-18.26c2.67-8.34,8.6-13.65,16.66-16.67a7.81,7.81,0,0,1,5.9.17c11,5,22.65,4.94,34.28,5.12,3.59.06,6.46,1.08,8.82,3.76,1.42,1.62,3.08,3.05,4.42,4.74,9.65,12.12,19.61,23.94,30.84,34.66a38.14,38.14,0,0,1,8,11.41c.69,1.46,2.11,3.12,1,4.57-1.35,1.73-3.46.53-5.13.08-6.91-1.85-11.12-7.09-14.92-12.59a57.46,57.46,0,0,0-11-12.17,23.9,23.9,0,0,0-4.24-2.56c-1.38-.7-2.89-1.08-4.13.28-1.38,1.52-.75,3,.11,4.57a143.13,143.13,0,0,0,33.74,40.33c6,5,14,6.82,21.35,9.42,3.49,1.23,7.16,2.12,11,4.65C181.05,403,178.09,402.31,175.25,402.13Z"/><path class="cls-3" d="M141.88,52a.49.49,0,0,0,0-.11,1.37,1.37,0,0,0-.06-.32c-.59-1.84-1.9-.39-2.86-.11-4,1.17-7.89,2.93-12,3.47-5.8.76-11.65.44-15.72-4.91-.88-1.4-1.86-2.75-2.61-4.21s-2.1-2.7-.33-4.42,3.27-2.23,5.34-1.12c2.38,1.28,4.48.84,7-.07C126,38.32,130,42,134.15,44.41c-3.23,1.47-6.47.78-9.65.8-3.34,0-6.66,0-9.86,1.1-1.32.45-3.25.44-2.29,2.78,6.68-1.93,13.51-1.42,20.33-1.28,3,.06,6-.2,9-.38.82,0,1.66-.48,1.66-1.36,0-.13,0-.26-.08-.39a2.08,2.08,0,0,0-1.1-1.07c-8-2.21-14.55-10.31-24.19-6a3.24,3.24,0,0,1-2.38-.27c-3.54-1.71-6.71-1.3-9.6,1.86-.63-1.2-1.13-2-1.53-2.93l-.09-.22a19.93,19.93,0,0,0-1.58,2.37,99.43,99.43,0,0,0,7.09,13.07,5.59,5.59,0,0,1,.25,5.68c-1.15,2.72-2.28,5.44-3.42,8.17.59.55,1.21,1.08,1.85,1.57.63-1.51,1.27-3.07,1.95-4.75,1.17,2.84,2.23,5.3,3.19,7.64a20.42,20.42,0,0,0,2.9.93c-1.47-3.55-2.9-7.12-4.15-10.75-1-3,1.13-5.76,3.55-4.75,8.4,3.5,16,.12,23.69-2.49a5.49,5.49,0,0,0,1.9-.87C141.68,52.58,141.79,52.3,141.88,52Z"/><path class="cls-3" d="M242.85,229.09a262.16,262.16,0,0,0,5.38-29.1l-1.63-.41c-2,10.19-4.11,20.37-5.92,30.59-.24,1.35-2.24,3.81-.12,4.2,2.72.5,1.07-2.27,1.37-3.62C242.06,230.15,242.71,229.68,242.85,229.09Z"/><path class="cls-3" d="M187.79,387.69a9.05,9.05,0,0,0-4,5.88c0,.13.13.29.54,1.11,2.61-1.49,3.6-3.88,4.53-6.3C188.92,388.3,188,387.59,187.79,387.69Z"/><path class="cls-3" d="M258.92,188.05c.2-26.1-2.18-43.84-7.56-61.17-3.66-11.76-7.39-23.54-9.29-35.71a70,70,0,0,0-8.73-24.74A92,92,0,0,1,222.5,36.54c-1-5.57-1.94-11.15-3-16.72-.19-1.06-.16-2.67-1.87-2.31-1.37.29-.82,1.61-.68,2.51,2.85,17.46,6,34.8,15.63,50.17a42.87,42.87,0,0,1,6.11,16.24,202,202,0,0,0,8.66,35.37c12.22,35.45,11.05,71.64,4.93,107.69a357.45,357.45,0,0,1-42.2,118.32c-1.57,2.75-3,5.59-4.41,8.4-.37.72-.85,1.6.13,2.17s1.5-.19,1.91-.95c1.41-2.65,2.84-5.28,4.21-7.94,12.65-24.55,25.22-49.08,32.49-76C252.72,242.86,259.49,212.05,258.92,188.05Z"/><path class="cls-3" d="M206,358.56c-2.49-1.28-2.09,2.33-3.31,3.5-.1.1-.08.31-.12.47-.74.85-1.84,2-.35,2.7,1.79.82,1.75-1.27,2.38-2.23C205.28,361.51,207.58,359.39,206,358.56Z"/><path class="cls-3" d="M201.62,366.13c-1.46-1.15-1.76,1.13-2.43,2.05-.21.26-.52.48-.62.77-.77,2.17-4.3,4.9-2.32,6,2.13,1.22,2.81-3.07,4.23-4.86h0C201.07,368.81,203.36,367.5,201.62,366.13Z"/><path class="cls-3" d="M194.53,379.1c1.13-.28,1.35-1.25,1.78-2.13-.25-.5-.33-1.17-1.22-1-1.13.28-1.46,1.24-1.69,2.12a.83.83,0,0,0,.38.89,1.1,1.1,0,0,0-.48,0c-1.73.34-2.06,2-2.62,3.25-.31.7.35,1.28,1.06,1.1,1.62-.39,2-1.91,2.66-3.22a1.21,1.21,0,0,0-.43-1.05A1.18,1.18,0,0,0,194.53,379.1Z"/><path class="cls-3" d="M191.12,385.26c.38-.87-.39-1-.71-1.19-1.43,0-1.65,1-2,1.88s.33,1.19.87,1.21C190.41,387.19,190.73,386.13,191.12,385.26Z"/><path class="cls-3" d="M151.77,402.6c1.82,1.64,3.6,1.18,6.11.06-2.38-1.54-4.35-.86-6.19-1A1.91,1.91,0,0,1,151.77,402.6Z"/><path class="cls-3" d="M80,376.59a3.71,3.71,0,0,0-1-.74c-1.11,0-1.39,1-1.18,1.37a42.08,42.08,0,0,0,7.13,10.07,1.4,1.4,0,0,0,1.28-.07c.75-.47.43-1.14,0-1.7Q83.11,381,80,376.59Z"/><path class="cls-3" d="M103.23,384.14c-2.57-1.44-5.19-2.78-7.93-4.23-.36.21-.93.35-1.08.68a1.35,1.35,0,0,0,.22,1.27,24,24,0,0,0,7.84,4,1.29,1.29,0,0,0,1.16-.49A1.32,1.32,0,0,0,103.23,384.14Z"/><path class="cls-3" d="M123.52,394.83h0l1-1.81-8.78-3.76-.33,2.1Z"/><path class="cls-3" d="M125.16,395.86c1,.36,2.11,1.82,3,.38s-.78-1.91-1.73-2.47a12.89,12.89,0,0,0-1.84-.75l-1,1.81A9.17,9.17,0,0,0,125.16,395.86Z"/><path class="cls-4" d="M123.52,394.83l1-1.81-1,1.81Z"/><path class="cls-3" d="M115.76,389.26a1.37,1.37,0,0,0-2.25.05l-1.9.37,3.82,1.68Z"/><path class="cls-3" d="M113.52,389c-.09-1.95-1.73-1.6-2.82-1.67s-1,.87-.59,1.64Z"/><path class="cls-3" d="M111.61,389.68l1.9-.37V389l-3.41,0Z"/><path class="cls-5" d="M90.27,375.62l-.35.64.35.36a3.4,3.4,0,0,0,.32-.67C90.61,375.86,90.39,375.73,90.27,375.62Z"/></svg>