<svg xmlns="http://www.w3.org/2000/svg" xmlns:xlink="http://www.w3.org/1999/xlink" viewBox="0 0 1564.82 1605.47"><defs><style>.cls-1{fill:url(#radial-gradient);}.cls-2{fill:url(#radial-gradient-2);}.cls-3{fill:#f0d3a1;}.cls-13,.cls-14,.cls-19,.cls-4{fill:#c48f58;}.cls-22,.cls-4{opacity:0.15;}.cls-15,.cls-20,.cls-5{fill:#dea264;}.cls-5{opacity:0.16;}.cls-6{fill:#bf8c56;}.cls-14,.cls-6{opacity:0.08;}.cls-7{fill:#6b4332;}.cls-8{fill:#513930;}.cls-9{fill:#fff;opacity:0.13;}.cls-10{fill:#754937;}.cls-11,.cls-15,.cls-19{opacity:0.2;}.cls-11{fill:url(#radial-gradient-3);}.cls-12{opacity:0.1;fill:url(#radial-gradient-4);}.cls-13,.cls-21{opacity:0.3;}.cls-16{fill:#55372d;}.cls-17,.cls-22{fill:#a87965;}.cls-17{opacity:0.31;}.cls-18{fill:#4a302a;}.cls-20{opacity:0.07;}.cls-21{fill:#d49a5f;}</style><radialGradient id="radial-gradient" cx="777.09" cy="796.92" r="1444.2" gradientUnits="userSpaceOnUse"><stop offset="0.5" stop-color="#c9a083"/><stop offset="0.54" stop-color="#b18868"/><stop offset="0.63" stop-color="#754c24"/></radialGradient><radialGradient id="radial-gradient-2" cx="1757.64" cy="323.23" fx="1738.4369243781823" r="428.38" gradientUnits="userSpaceOnUse"><stop offset="0" stop-color="#a65200"/><stop offset="0.07" stop-color="#a65506" stop-opacity="0.92"/><stop offset="0.52" stop-color="#a66627" stop-opacity="0.43"/><stop offset="0.84" stop-color="#a6713c" stop-opacity="0.12"/><stop offset="1" stop-color="#a67544" stop-opacity="0"/></radialGradient><radialGradient id="radial-gradient-3" cx="448.72" cy="850.84" r="167.16" gradientUnits="userSpaceOnUse"><stop offset="0" stop-color="#ffeed4"/><stop offset="0.36" stop-color="#f9e3c0" stop-opacity="0.6"/><stop offset="0.67" stop-color="#f4dbaf" stop-opacity="0.28"/><stop offset="0.89" stop-color="#f1d5a5" stop-opacity="0.08"/><stop offset="1" stop-color="#f0d3a1" stop-opacity="0"/></radialGradient><radialGradient id="radial-gradient-4" cx="817.22" cy="998.18" r="130.71" xlink:href="#radial-gradient-3"/></defs><title>byoc-icon</title><g id="Layer_2" data-name="Layer 2"><g id="Step_Three" data-name="Step Three"><path class="cls-1" d="M806.14,65.1c-297.93.82-402.84,126.27-475,141.3S271,269.53,195.86,299.59-8.57,696.43.45,891.84s69.14,228.48,69.14,228.48c39.09,276.58,484,520.1,610.29,481s526.11,6,682.43-234.49,210.45-303.64,186.4-661.39C1473.9,443.39,1212,64,806.14,65.1Z"/><path class="cls-2" d="M1366.34,281.39C1302.83,211.76,1092.6,387.86,1087.23,467S979.65,615.13,1021,676.79s400.82-128.31,472.15-26,71.65,119.37,71.65,119.37c-3.45-50.77,6.51-108.16-19.8-174.9S1485,411.42,1366.34,281.39Z"/><path class="cls-3" d="M816.79,0c-297.93.82-402.85,126.27-475,141.3s-60.13,63.13-135.29,93.2S2.07,631.33,11.09,826.74s69.15,228.48,69.15,228.48c39.08,276.59,484,520.1,610.28,481s526.11,6,682.44-234.5S1583.4,998.1,1559.35,640.35C1484.54,378.3,1222.64-1.12,816.79,0Z"/><path class="cls-4" d="M900.51,1269.27c52-1.51,89.91,54.3,63.31,99s10.23,54.49-30.57,73.31-48.45-8.65-105.41-11.14-85.63-91.23-68-109.92C804.93,1272.63,812.36,1271.82,900.51,1269.27Z"/><path class="cls-5" d="M1480.92,834c-47.51-84-144.38-136.94-241-125.69-97,11.28-175.12,70.82-215.54,159.46-17.54,38.47-30.18,78.12-39.72,119.24-4.28,18.46-7.85,37.06-12,55.54-2.14,9.53-4.17,19.32-7.74,28.44-3.65,9.3-.86,1-.19-.14-.94,1.61-1.71,2.88-2.35,3.95-11.85,10.4-36,18.71-53,24.76a587.78,587.78,0,0,1-76.38,21.59c-46.3,9.77-95.62,11.74-146.74,8-111.79-8.26-222.91-35.39-332.77,2-42.15,14.36-66.73,54.4-56.11,98.82,23.69,99,98.73,183.47,193.4,220,81.59,81.07,207.79,101.91,318.79,90.08,127.9-13.62,261.29-43.67,371.68-112.37,8.7-5.4,17.22-11.17,25.64-17.1a134.16,134.16,0,0,0,30-4.33c56.07-14.87,91.57-61.7,118.19-110.11q24.5-44.55,44.82-91.35a462.22,462.22,0,0,0,64.95-83.58C1517.41,1034.43,1532.33,924.93,1480.92,834Z"/><path class="cls-6" d="M298.76,1228.75c-10.63-44.42,14-84.46,56.1-98.81,109.86-37.43,221-10.3,332.77-2,51.12,3.78,100.44,1.81,146.74-8a588.37,588.37,0,0,0,76.39-21.59c16.92-6,41.1-14.36,53-24.76.65-1.07,1.41-2.34,2.36-3.94-.68,1.14-3.47,9.43.18.14,3.57-9.13,5.6-18.92,7.75-28.45,4.16-18.48,7.72-37.08,12-55.54,9.54-41.12,22.18-80.77,39.72-119.24,40.42-88.64,118.59-148.17,215.54-159.46,79.43-9.25,159,24.95,211.23,84.07-49.86-76.14-141.44-123-232.8-112.33-97,11.29-175.12,70.82-215.54,159.46-17.54,38.47-30.18,78.12-39.71,119.25-4.28,18.45-7.85,37.06-12,55.53-2.15,9.53-4.17,19.33-7.75,28.45-3.64,9.3-.86,1-.18-.14-.94,1.6-1.71,2.88-2.36,3.95-11.85,10.4-36,18.7-52.95,24.75a586.39,586.39,0,0,1-76.39,21.6c-46.29,9.77-95.62,11.74-146.73,8-111.79-8.27-222.92-35.4-332.77,2-42.15,14.36-66.73,54.4-56.11,98.82,11.41,47.71,34.82,91.94,66.51,129.15A307.76,307.76,0,0,1,298.76,1228.75Z"/><path class="cls-7" d="M853.55,1290.93c33.12-8.56,59.89,3.88,73.33,33.26s46.83,84.24-22.23,99.3-145.41.82-166.18-54.79,38.47-49.9,59.77-56.37S826.4,1298,853.55,1290.93Z"/><path class="cls-8" d="M767.77,1406.07c49.47,14.8,176.65,8.79,174-48.36,14.85,47.57-5.47,74.85-114.94,69.67C790.52,1425.37,767.77,1406.07,767.77,1406.07Z"/><path class="cls-9" d="M865.29,1306.93c11.16-6.9,29.37-8.17,34.81,4.58S872.1,1306.47,865.29,1306.93Z"/><path class="cls-10" d="M753.44,1350.17c-12,15.18,62.42,67.12,110.16,33.94C829.39,1382.77,770.63,1328.37,753.44,1350.17Z"/><path class="cls-11" d="M519.63,1102.86c-75.54,61.77-195.69,22.24-207.35-74.62S234.72,959,273.79,884.34s81.86-42.59,169.34-104.09S674.74,817.78,670,865.67C657.77,988.47,647.66,998.17,519.63,1102.86Z"/><path class="cls-12" d="M840,1061.84c-29.24,23.91-75.76,8.61-80.27-28.89s-30-26.8-14.9-55.71,31.69-16.49,65.56-40.3,89.66,14.53,87.82,33.07C893.53,1017.56,889.61,1021.31,840,1061.84Z"/><path class="cls-13" d="M497.62,883.72c36.58-1.06,63.23,38.18,44.52,69.63s7.19,38.32-21.5,51.56-34.07-6.09-74.14-7.84-60.22-64.16-47.84-77.3C430.39,886.08,435.62,885.51,497.62,883.72Z"/><path class="cls-4" d="M893.82,619.38c52-1.51,89.91,54.3,63.31,99s10.23,54.49-30.57,73.31-48.45-8.65-105.42-11.14-85.63-91.23-68-109.92C798.23,622.74,805.66,621.93,893.82,619.38Z"/><path class="cls-14" d="M1279.85,589c-45.38,25.47-104.83-6.39-102-58.33s-34.34-43.53-6.93-79.14,46.93-14.81,98.55-39,118.19,41.09,111.27,65.81C1363,541.64,1356.76,545.8,1279.85,589Z"/><path class="cls-7" d="M468.64,877.93c17.65-11.7,35.44,7.6,49.41,25.94s45.33,51.91,4.28,67.55-92.18,12.47-115.66-22.62,9.18-46.59,21.5-52.63S450.76,889.79,468.64,877.93Z"/><path class="cls-8" d="M432.19,971.12c34.16,5.74,113.79-8.68,101.52-46.28,18.24,30.26,10.38,50-60.08,55.54A77.06,77.06,0,0,1,432.19,971.12Z"/><path class="cls-9" d="M475.75,897.5c5.81-5.48,17.14-7.81,23,.18S480,896.64,475.75,897.5Z"/><path class="cls-10" d="M412.75,935.3c-4.79,11,52.05,39.3,76.22,13.42C467,950.65,419.62,919.46,412.75,935.3Z"/><path class="cls-15" d="M1168.45,147.91C983.1,3.32,740.89-28.29,527.23,73c-94.32,44.72-280.65,134.13-331.37,226.55-54.45,99.21-41.9,215.78,48.39,295.7,35.33,31.27,155,48.62,196.13,70.9,10.18,5.52,20.33,11.14,30.18,17.25,3.95,2.45,16.85,11.72,15.43,10.14a216.19,216.19,0,0,1,17,16.57l.41.82c3,5.95,6.44,11.56,9.21,17.66C523.78,753.15,550.3,766.7,577,768.9c7.17,28.48,28.63,52.87,58.5,61.07,43.25,11.89,91.48-14.54,102.93-58.44,1.7-6.51,12.7-27.16,2-9,3-5.19,6.17-10.5,9-15.77.36-.65.61-1.14.87-1.66l.85-.84c5.79-6,11.28-12.21,17.39-17.93,4.67-4.38,9.65-8.39,14.4-12.66l2.14-1.94,1.48-1.06q18.87-13.66,38-26.89c53.83-37.16,110.86-76.06,142.71-135.15,22.2-41.17,24.57-82,28.22-127.75,1.06-13.28.22-2.2,2.66-13.06,0-.21.07-.33.11-.52a26.25,26.25,0,0,0,2.34-3.87c1.27-1.89,2.19-3.28,2.77-4.22,1.46-1.63,2.86-3.33,4.39-4.91,4.72-4.9,9.91-9.24,14.9-13.85.84-.78,1.54-1.44,2.12-2,.77-.46,1.72-1.05,3.1-2,8-5.29,15.81-10.85,23.82-16.11,12.2-8,24.54-15.79,36.57-24,36.6-25.15,66.29-51.76,93.16-87C1201.52,223.06,1194.91,168.55,1168.45,147.91Z"/><path class="cls-13" d="M305.43,642.11c41.62-28.37,101.62-2.64,103.27,47.69s36.76,39.08,13.32,75.72-44,18.22-91.75,45.91-117.4-29.71-112.8-54.12C229.26,694.72,234.9,690.19,305.43,642.11Z"/><path class="cls-13" d="M1266.26,476.94c35.14-23.95,85.79-2.23,87.18,40.26s31,33,11.25,63.92-37.15,15.38-77.46,38.75-99.11-25.07-95.22-45.68C1202,521.35,1206.72,517.52,1266.26,476.94Z"/><path class="cls-7" d="M314.35,601.94c67.81-7.55,100.39,123.79,35.48,160s-139.64,10.57-151-11.32-5.29-163.67,48.31-149C280.39,614,291,604.2,314.35,601.94Z"/><path class="cls-16" d="M343.7,607.9c3.66,60.69,6.13,154.06-144.83,142.74,27.77,39.15,124.15,39.57,161.8,3.64C398.73,718,400.05,649.34,343.7,607.9Z"/><path class="cls-17" d="M210.1,639.44c7.24-18.05,27.86-35.58,45.56-25.16S217.82,632.91,210.1,639.44Z"/><path class="cls-18" d="M382.9,659.9c-2.34,44.55-30,101.71-59.24,113.84C373.28,766,400,702.59,382.9,659.9Z"/><path class="cls-7" d="M1281.55,468.28c49.38-18.91,99.47,73.22,57.86,113.07s-102.65,35.2-115.42,21-30.42-128.24,6.62-132.42S1264.45,474.54,1281.55,468.28Z"/><path class="cls-16" d="M1304.72,467c14.6,44.79,34.69,114.33-80.73,135.32,28.48,23.94,100.84,5.43,122-28.87C1367.49,538.8,1355.07,487.08,1304.72,467Z"/><path class="cls-17" d="M1210.7,516.76c1.9-14.95,13.94-32.12,29.25-27.76S1215.21,510.35,1210.7,516.76Z"/><path class="cls-18" d="M1344.28,498.35c6.94,33.87-2.65,82.14-22.19,96.94C1357.79,579.81,1365.46,527,1344.28,498.35Z"/><path class="cls-7" d="M281.7,1180.84c31.62-42.37,123.21,8.71,109.35,64.63s-67.93,84.62-86.31,79.45-94.28-92.11-65.21-115.45S270.6,1195.29,281.7,1180.84Z"/><path class="cls-16" d="M300.61,1167.39c36.29,30,90.44,78.08,4.13,157.53,36.86,5,88.11-49.33,87.71-89.65C392,1194.5,353.89,1157.43,300.61,1167.39Z"/><path class="cls-17" d="M247.75,1259.7c-6.39-13.65-5.39-34.6,9.87-39.1S248.13,1251.87,247.75,1259.7Z"/><path class="cls-18" d="M350.79,1172.73c24,24.9,41.68,70.83,33.08,93.79C405.76,1234.35,384,1185.64,350.79,1172.73Z"/><path class="cls-19" d="M1126.49,1081.79c29.79-14.47,72.45-.79,73.41,25.32s26,20.49,9.19,39.35-31.45,9.2-65.6,23.29-83.57-16.08-80.18-28.72C1072,1108.64,1076,1106.32,1126.49,1081.79Z"/><path class="cls-14" d="M1164.63,1025.59c52-1.51,89.91,54.3,63.31,99s10.23,54.49-30.57,73.32-48.45-8.66-105.42-11.15-85.63-91.23-68-109.91C1069.05,1029,1076.48,1028.15,1164.63,1025.59Z"/><path class="cls-7" d="M855.65,622.48c59.35-22.72,119.56,88,69.55,135.91S801.81,800.7,786.47,783.63s-36.58-154.15,7.95-159.17S835.09,630,855.65,622.48Z"/><path class="cls-16" d="M883.5,621c17.55,53.84,41.7,137.42-97,162.66,34.22,28.77,121.2,6.53,146.7-34.7C959,707.25,944,645.09,883.5,621Z"/><path class="cls-17" d="M779.88,675.1c2.29-18,16.76-38.61,35.16-33.37S785.31,667.4,779.88,675.1Z"/><path class="cls-18" d="M931.05,658.63c8.35,40.71-3.18,98.73-26.68,116.53C947.29,756.55,956.5,693.1,931.05,658.63Z"/><path class="cls-7" d="M1176.29,1048.66c44.76,28.14,1.15,123.51-55.69,114.16s-89.78-61-86.08-79.71,84.3-101.32,109.87-74.2S1161,1038.75,1176.29,1048.66Z"/><path class="cls-16" d="M1191.21,1066.44c-27.06,38.56-70.61,96.38-156.69,16.67-2,37.15,56.19,83.91,96.36,80.28C1171.48,1159.73,1205.39,1118.75,1191.21,1066.44Z"/><path class="cls-17" d="M1095,1021.1c13.1-7.45,34.06-8.13,39.77,6.73S1102.81,1020.87,1095,1021.1Z"/><path class="cls-18" d="M1189.89,1116.88c-22.91,25.89-67.28,47.2-90.85,40.45C1132.86,1176.59,1179.68,1151,1189.89,1116.88Z"/><path class="cls-20" d="M1067.05,123.22C915.86,5.28,718.28-20.5,544,62.15c-76.94,36.48-151.81,98.11-193.19,173.5-44.41,80.93-46.86,184.29,26.8,249.48,28.81,25.51,62,42.7,95.55,60.87,8.3,4.51,16.58,9.09,24.61,14.08,3.23,2,13.75,9.55,12.6,8.27a176.74,176.74,0,0,1,13.87,13.51l.33.67c2.43,4.86,5.25,9.43,7.52,14.41,9.1,20,30.73,31,52.52,32.85,5.84,23.23,23.35,43.12,47.71,49.82,35.28,9.69,74.63-11.87,84-47.68,1.39-5.31,10.36-22.15,1.65-7.32,2.49-4.23,5-8.57,7.39-12.87.29-.53.49-.93.71-1.35l.69-.69c4.72-4.91,9.2-10,14.19-14.63,3.8-3.56,7.86-6.84,11.74-10.32.7-.63,1.25-1.12,1.74-1.58l1.21-.86q15.39-11.16,31-21.94c43.9-30.31,90.43-62.05,116.41-110.24,18.11-33.59,20-66.9,23-104.21.86-10.84.18-1.8,2.17-10.66,0-.17,0-.27.09-.43a21.61,21.61,0,0,0,1.91-3.15c1-1.54,1.78-2.68,2.26-3.44,1.19-1.34,2.33-2.72,3.58-4,3.85-4,8.08-7.54,12.15-11.3.69-.63,1.26-1.17,1.73-1.63.63-.37,1.41-.86,2.53-1.6,6.52-4.31,12.89-8.85,19.43-13.14,10-6.53,20-12.88,29.83-19.62,29.86-20.51,54.08-42.22,76-71C1094,184.53,1088.64,140.06,1067.05,123.22Z"/><path class="cls-13" d="M712,164.13c40.4-16.22,86.27,16.64,78.32,59.42s23.78,39.82-2.81,66.39-40.53,7.21-86,21.72S608,264.8,616.36,245C637.94,194.4,643.54,191.62,712,164.13Z"/><path class="cls-8" d="M811.27,173.15c-2.13-4.27-5.94-8.49-11-12.53,16.86,42.86,35,132-43.34,119.23-87.15-14.21-56.84-31.26-112.72-37-11.76-1.19-20.94-4.28-28-8.82,3.32,18.65,17.4,31,44.49,33.79,55.88,5.68,25.57,22.73,112.71,36.94S828.32,207.25,811.27,173.15Z"/><path class="cls-7" d="M756.9,279.85c78.39,12.78,60.2-76.37,43.34-119.23-35.58-28.2-133.82-47-160.41-3.57-18.55,30.26-27.19,57.2-23.65,77,7.06,4.54,16.24,7.63,28,8.82C700.06,248.59,669.75,265.64,756.9,279.85Z"/><path class="cls-17" d="M780.51,182.44c9.15-19-82.58-56.78-125.64-10C691.7,165.72,767.36,209.79,780.51,182.44Z"/><path class="cls-13" d="M1541.43,1000c1.09,37.5-33,75.13-60.45,63.9s-33.35,17.3-45-8.93,5.14-36.76,6.49-78.58,55.61-78.71,67.11-69.31C1539.06,931.17,1539.58,936.42,1541.43,1000Z"/><path class="cls-21" d="M137.78,1071.72s-60.13-33.07-69.14-228.48S188.89,281.05,264.05,251s63.13-78.16,135.28-93.2S576.4,17.32,874.33,16.5a630.13,630.13,0,0,1,128.76,12.81A627.94,627.94,0,0,0,816.79,1.78C518.86,2.6,413.94,128,341.79,143.07s-60.13,63.14-135.29,93.2S2.07,633.11,11.09,828.52,80.24,1057,80.24,1057c33.66,238.2,368.32,451.85,541.22,481.6C440.89,1479.66,168,1285.59,137.78,1071.72Z"/><path class="cls-13" d="M956.62,212.65c18.89,3.84,27.84,27.16,14.48,41s-.91,20.5-17.21,23.85-16.73-7.2-37.06-12.91-23.18-40.11-15.26-45.36C921.88,205.8,924.63,206.14,956.62,212.65Z"/><path class="cls-7" d="M954.91,177.74c30.28-28.21,63.31,35.61,37.35,67.25s-28.64,25.25-67.82,11.26C861.79,233.89,887.18,155.3,954.91,177.74Z"/><path class="cls-8" d="M892.16,196.88c1.86,18.25,23,48.83,79,68.55-11.88,6-33.5-2.36-53.23-11.85S878.7,219.7,892.16,196.88Z"/><path class="cls-17" d="M988.75,188.39c3.15-3.51-14.14-17.29-26.26-10C970.79,179.28,984.24,193.43,988.75,188.39Z"/><path class="cls-7" d="M1561.37,873.68c-23.91-52.62-103.14-44.85-84.5,29.72s-92.31,131.3,40.84,192.26C1561.37,1023,1561.37,873.68,1561.37,873.68Z"/><path class="cls-22" d="M1501.21,852.49c31,8.56,63.53,39.18,49.68,70.15S1513.35,864,1501.21,852.49Z"/><path class="cls-18" d="M1474,951.43c-5.15,33.71-30.59,85.07,48.06,132.05,2.14,4.77-4.31,12.18-4.31,12.18-15.32-5.13-71.18-32-66.57-72.11S1474,951.43,1474,951.43Z"/><path class="cls-16" d="M1477.26,945.53c-5.16,33.71-29.1,85.64,49.54,132.62,0,3.92-5.79,11.61-5.79,11.61-15.33-5.13-71.19-32-66.57-72.11S1477.26,945.53,1477.26,945.53Z"/></g></g></svg>