<svg xmlns="http://www.w3.org/2000/svg" viewBox="0 0 211 180.9"><defs><style>.cls-1{fill:#9b451f;}.cls-2{fill:#913c22;}.cls-11,.cls-3{fill:#3d1600;}.cls-4{fill:#a5502f;}.cls-5{fill:#81350e;}.cls-6{fill:#451804;}.cls-7{fill:#6b280b;}.cls-8{fill:#732a01;}.cls-9{fill:#662808;}.cls-10{fill:#56200b;}.cls-11{opacity:0.65;}.cls-12{fill:#5d1e03;}</style></defs><title>chocolate-icon</title><g id="Layer_2" data-name="Layer 2"><g id="Step_Three" data-name="Step Three"><g id="Chocolate"><path class="cls-1" d="M0,119.07a33.22,33.22,0,0,1,3.79-6.37c8.15-12.86,49-64.5,56.07-72.39C68.09,42.1,101.4,49.49,125,56.8c-13.82,27.25-53.86,99.81-53.86,99.81C59.93,153.57,11.87,125.67,0,119.07Z"/><path class="cls-2" d="M59.71,46.69a5,5,0,0,0-2.05,2C62.43,50,96.49,58.35,104.17,61c8.5,2.94,8.24-2,8.24-2S61.61,47.17,59.71,46.69Z"/><path class="cls-3" d="M71.17,156.61l11,24.29C64.26,177.82,6,145.79,4,142.35c-1.7-10.69-2-16-4-23.28C13.52,126.18,62.79,153.69,71.17,156.61Z"/><path class="cls-4" d="M111.46,59.91A16.89,16.89,0,0,1,104.17,61c-3.7,7-36.5,60.86-38.79,62.16-2.77,5.81.19,4.31,1,8s15.47-16,15.47-16Z"/><path class="cls-5" d="M116.63,58.92c-4.31,13.57-45.51,82.3-47.12,84.08-2.05-4.26-3.18-11.82-3.18-11.82,3.78-7,42.94-66.13,44-71.14-9.54-3.42-42.67-10.91-50.64-13.35.52-.4,3.26-1.58,3.57-1.79C63.75,45.12,116.63,58.92,116.63,58.92Z"/><path class="cls-6" d="M66.33,131.18c-6.72-.56-53.89-21.8-55.95-23.11l-6,8s59.2,36.57,65.1,26.91A67.76,67.76,0,0,1,66.33,131.18Z"/><path class="cls-7" d="M15.26,101.46c-1.17,1.69-2.93,4.08-4.88,6.61-3.47,4.49,52.09,29.51,56,23.11-.65-2.78-1.54-6-1-8C57.25,120.74,16.55,106.16,15.26,101.46Z"/><path class="cls-8" d="M98.09,64.46c.47,4.77-26.83,43.3-33.27,52.8-5.3,1.21-41.95-15-44-18C24,91.9,54.86,55.1,57.31,53.57,63.39,53.54,97.85,62,98.09,64.46Z"/><path class="cls-9" d="M55.37,45.6c1.09-.06,5.94-1.11,7.91-.7-1.79,1.43-4.49,1.7-5.62,3.74C45.39,62.2,17.13,97.76,15.26,101.46c-3.85,5.26-8.9,11.62-10.85,14.63a12.92,12.92,0,0,0-4.41,3,33.22,33.22,0,0,1,3.79-6.37C11.94,99.84,52.34,49,55.37,45.6Z"/><path class="cls-10" d="M71.17,156.61s40-72.56,53.86-99.81c10.91,3.37,17.31,5.05,19.31,7.39L82.18,180.9C76.74,169.47,74.22,163.33,71.17,156.61Z"/><polygon class="cls-11" points="75.34 43.8 65.67 52.98 57.66 61.24 81.69 80.41 96.35 108.36 104.2 139.56 126.18 96.24 75.34 43.8"/><path class="cls-12" d="M133.56,118.24S99.9,44.9,86.83,13.29C73,16.34,64.89,17.78,62.15,20.36L117.39,142.5C124.48,132.25,129.46,124.39,133.56,118.24Z"/><path class="cls-1" d="M210.75,84.06A24.56,24.56,0,0,0,208.48,78c-5.19-12.56-36.87-68.53-43.1-78-9.55,1.29-49.19,6.82-78.55,13.29,13.07,31.61,46.73,105,46.73,105C145.48,115.4,198,90,210.75,84.06Z"/><path class="cls-2" d="M164.3,7.21a4.87,4.87,0,0,1,1.89,2.35c-5.52,1.11-45.58,7.8-54.94,10.21-10.45,2.7-9.49-2.86-9.49-2.86S162.12,7.58,164.3,7.21Z"/><path class="cls-3" d="M133.56,118.24,117.39,142.5c18.55-3.08,82.12-34.15,84.74-37.22,7.93-10.71,9.6-16.25,8.62-21.22C196.3,90.43,142.56,115.52,133.56,118.24Z"/><path class="cls-4" d="M102.78,18a20,20,0,0,0,8.47,1.81c3.31,8.09,31.28,65.63,33.47,66.93,1.94,5.66-.89,4.17-2.27,7.72s-13.94-16-13.94-16Z"/><path class="cls-5" d="M96.74,16.43c3.36,15.67,39.17,87.49,40.57,89.17,2.77-4,5.14-11.18,5.14-11.18-2.86-6.79-37.77-70.45-38.36-76.21,11.73-3.15,50.9-8.93,60.21-11-.49-.5-3.3-2.06-3.61-2.32C160.12,5.09,96.74,16.43,96.74,16.43Z"/><path class="cls-6" d="M142.45,94.42c7-.45,58.34-19.79,60.63-21l4.09,7.75s-65.28,33.4-69.86,24.42A68.94,68.94,0,0,0,142.45,94.42Z"/><path class="cls-7" d="M199.67,66.91c.81,1.68,2,4,3.41,6.52,2.42,4.37-57.66,27.12-60.63,21,1.11-2.65,2.56-5.76,2.27-7.72C153.57,84.51,197.43,71.42,199.67,66.91Z"/><path class="cls-8" d="M117.83,24.11C116.59,29.39,141,71.36,146.26,81c5.35,1.3,45.7-13.55,48.38-16.39-1.65-7.38-26.65-47.63-29-49.51C158.94,14.55,118.47,21.4,117.83,24.11Z"/><path class="cls-9" d="M169.3,6.35c-1.19-.15-6.34-1.75-8.61-1.46,1.71,1.76,4.65,2.3,5.5,4.67,10.62,15.74,32.41,53.67,33.48,57.35,2.68,5.2,6.25,11.39,7.5,14.27a9.24,9.24,0,0,1,3.58,2.88A24.56,24.56,0,0,0,208.48,78C203.29,65.44,172,10.4,169.3,6.35Z"/></g></g></g></svg>