<svg xmlns="http://www.w3.org/2000/svg" viewBox="0 0 209.37 209.37"><defs><style>.cls-1{opacity:0.47;}.cls-2{fill:#d1bdb6;}.cls-3{fill:#ba9d93;}.cls-4{fill:#5e2f18;}.cls-5{fill:#823a16;opacity:0.46;}.cls-6{fill:#894d24;opacity:0.3;}.cls-7{fill:#a87965;opacity:0.31;}</style></defs><title>chocolate-button</title><g id="Layer_2" data-name="Layer 2"><g id="Step_Three" data-name="Step Three"><g id="icons" class="cls-1"><circle class="cls-2" cx="104.69" cy="104.69" r="104.66"/><path class="cls-3" d="M196.31,155.26A104.66,104.66,0,0,1,22.08,40.41,104.66,104.66,0,1,0,196.31,155.26Z"/></g><g id="triangle"><path class="cls-4" d="M96.53,141.58c-33-14.61,11.53-51.93,9.54-84.36,24.31,9.28,43.4,29.59,55.91,48.9C177,129.26,137.5,159.7,96.53,141.58Z"/><path class="cls-5" d="M111.74,65.68c-13.37,24.95-22.6,56.88-11.89,66.67s46.46,10.19,55.11-8.1S136,78.45,111.74,65.68Z"/><path class="cls-6" d="M112.14,75.55c-6.9,7.94-14.12,29-9.89,33.91s36.87,2,36.07-9.53S123.19,74.12,112.14,75.55Z"/></g><path class="cls-7" d="M115.48,77.24c6.09-.49,13.9,2.85,13.45,9.28S118.4,78.5,115.48,77.24Z"/><g id="triangle-2" data-name="triangle"><path class="cls-4" d="M38.06,109.62C25.66,94.54,56.22,87.36,63.14,71.23,72.62,81.61,76.9,96,78.25,108.4,79.86,123.2,53.43,128.31,38.06,109.62Z"/><path class="cls-5" d="M63.82,76.69C51.31,85.48,39.1,98.65,41.9,106s19.94,16.2,28.55,9.47S72.45,88.75,63.82,76.69Z"/><path class="cls-6" d="M61.62,81.55c-5.26,2.15-13.86,10.57-13,14s17.31,9.91,19.72,4.15S67.3,83.54,61.62,81.55Z"/></g><path class="cls-7" d="M62.82,83.17c3.06,1.24,6,4.75,4.24,7.75S63.92,84.49,62.82,83.17Z"/></g></g></svg>