<svg xmlns="http://www.w3.org/2000/svg" viewBox="0 0 209.37 209.37"><defs><style>.cls-1{opacity:0.47;}.cls-2{fill:#d1bdb6;}.cls-3{fill:#ba9d93;}.cls-4{fill:#8ebd22;}.cls-5{fill:#8abd00;}.cls-6{fill:#438b2c;}.cls-7{fill:#548c2e;}.cls-8{fill:#d50029;}.cls-9{fill:#f01141;}.cls-10{fill:#ff3e56;}.cls-11{fill:#c00001;}.cls-12{fill:#ff682a;}.cls-13{fill:#3e5072;}.cls-14{fill:#3f4269;}.cls-15,.cls-16{fill:#282a4e;}.cls-16,.cls-17{opacity:0.48;}.cls-17{fill:#6179aa;}.cls-18{fill:#332f48;}.cls-19{fill:#c40c38;}.cls-19,.cls-24,.cls-29{stroke:#bf0008;stroke-miterlimit:10;}.cls-19,.cls-29{stroke-width:0.3px;}.cls-20{fill:#c9001f;}.cls-21{fill:#af043d;}.cls-22{fill:#c10024;}.cls-23{fill:#fb0030;}.cls-24,.cls-29{fill:#d20029;}.cls-24{stroke-width:0.35px;}.cls-25{fill:#e7002f;}.cls-26{fill:#ff527c;}.cls-27{fill:#c20024;}.cls-28{fill:#fe002e;}.cls-30{fill:#f7001f;}.cls-31{fill:#ff2f68;}.cls-32{fill:#f10023;}.cls-33{fill:#ff3769;}.cls-34{fill:#e20016;}.cls-35{fill:#f5001e;}.cls-36{fill:#ff3767;}.cls-37{fill:#ff3168;}.cls-38{fill:#bc1d4a;}.cls-39{fill:#e40019;}.cls-40{fill:#ff316b;}.cls-41{fill:#c50029;}.cls-42{fill:#ff486d;}.cls-43{fill:#f3001e;}.cls-44{fill:#fd0034;}.cls-45{fill:#ff4c71;}.cls-46{fill:#c60029;}.cls-47{fill:#ff3368;}</style></defs><title>fruit-button</title><g id="Layer_2" data-name="Layer 2"><g id="Step_Three" data-name="Step Three"><g id="icons" class="cls-1"><circle class="cls-2" cx="104.69" cy="104.69" r="104.66"/><path class="cls-3" d="M196.31,155.26A104.66,104.66,0,0,1,22.08,40.41,104.66,104.66,0,1,0,196.31,155.26Z"/></g><g id="Strawberry"><g id="Leaf"><path class="cls-4" d="M103.44,55.61c-.85-1.5-.75-3.92-.35-5.65a37.07,37.07,0,0,0-8.65-8C94.06,46.36,96.23,53.55,103.44,55.61Z"/><path class="cls-5" d="M129.47,40.9c.76,6.35-6.9,15.09-9.74,14.49.56-1.12.17-3.29-.42-4.78.39-.93-4-10.08-5.53-14-1.8,3.8-.69,5.52-.53,6.64s.35,6.35-1.35,9.49c-1.4,2.54-1.8,6.75-.48,7.7.63.46-1.59.9-4.08,1.24l5.47,1.15s11.43-3.45,13-6.81C130.69,52.7,132.38,42,129.47,40.9Z"/><path class="cls-6" d="M111.42,60.48c-1.32-.95-.92-5.16.48-7.7,1.7-3.14,1.51-8.37,1.35-9.49s-1.27-2.84.53-6.64c-.67,1.27-9,11.35-10.34,13.89a4.71,4.71,0,0,0-.35-.58c-.4,1.73-.5,4.15.35,5.65-7.21-2.06-9.38-9.25-9-13.61a3.74,3.74,0,0,0-.94-.43c-1.69,5.68.94,11.88,4.55,15.09L99.14,60l8.2,1.74C109.83,61.38,112.05,60.94,111.42,60.48Z"/><path class="cls-7" d="M119.73,55.39c2.84.6,10.5-8.14,9.74-14.49-2,1.27-8.67,7.84-10.16,9.71C119.9,52.1,120.29,54.27,119.73,55.39Z"/></g><g id="Strawberry-2" data-name="Strawberry"><path class="cls-8" d="M98.05,56.66c3.58,2.59,16.53,6.57,27.88,0C139.67,57.85,156,81,143.85,99.87c-5.77,8.17-17.52,18.72-19.51,20.91s-10.16,13.54-18.52,8.57c-3.39,0-5-.8-6.38-1.8s-23.3-35-23.3-37.63-3-12.55,6.38-23.1C92.27,58.05,98.05,56.66,98.05,56.66Z"/><path class="cls-8" d="M98.05,56.66c3.58,2.59,16.53,6.57,27.88,0C139.67,57.85,156,81,143.85,99.87c-5.77,8.17-17.52,18.72-19.51,20.91s-10.16,13.54-18.52,8.57c-3.39,0-5-.8-6.38-1.8s-23.3-35-23.3-37.63-3-12.55,6.38-23.1C92.27,58.05,98.05,56.66,98.05,56.66Z"/><path class="cls-8" d="M125.93,56.66c-11.35,6.57-24.3,2.59-27.88,0A21.93,21.93,0,0,0,92.89,59c5.86.89,15.55,1.64,20.69,7.78,6.18,7.36,19.32,17.52,5.78,40C110.59,120,104.42,123.17,102,122c-1.7-.85-8-5.43-12.26-8.72,4.76,7.44,9.08,13.87,9.67,14.29,1.4,1,3,1.8,6.38,1.8,8.36,5,16.52-6.38,18.52-8.57S138.08,108,143.85,99.87C156,81,139.67,57.85,125.93,56.66Z"/><path class="cls-8" d="M125.93,56.66c-11.35,6.57-24.3,2.59-27.88,0A21.93,21.93,0,0,0,92.89,59c5.86.89,15.55,1.64,20.69,7.78,6.18,7.36,19.32,17.52,5.78,40C110.59,120,104.42,123.17,102,122c-1.7-.85-8-5.43-12.26-8.72,4.76,7.44,9.08,13.87,9.67,14.29,1.4,1,3,1.8,6.38,1.8,8.36,5,16.52-6.38,18.52-8.57S138.08,108,143.85,99.87C156,81,139.67,57.85,125.93,56.66Z"/><path class="cls-9" d="M119.36,106.84c13.54-22.5.4-32.66-5.78-40-5.14-6.14-14.83-6.89-20.69-7.78a64.61,64.61,0,0,0-10.37,7.78c-9.36,10.55-6.38,20.51-6.38,23.1,0,1.48,7.22,13.33,13.63,23.34C94,116.55,100.33,121.13,102,122,104.42,123.17,110.59,120,119.36,106.84Z"/><path class="cls-9" d="M119.36,106.84c13.54-22.5.4-32.66-5.78-40-5.14-6.14-14.83-6.89-20.69-7.78a64.61,64.61,0,0,0-10.37,7.78c-9.36,10.55-6.38,20.51-6.38,23.1,0,1.48,7.22,13.33,13.63,23.34C94,116.55,100.33,121.13,102,122,104.42,123.17,110.59,120,119.36,106.84Z"/><path class="cls-10" d="M94.76,65.12c4.6,1,8.77,8,2.39,19.42-.49,6-3,14.54-1.89,17.62-2.49,2.19-12-3.68-13.34-9.26s-3.29-15.53,1.59-22.3C86.2,67.31,90.58,64.23,94.76,65.12Z"/><path class="cls-10" d="M94.76,65.12c4.6,1,8.77,8,2.39,19.42-.49,6-3,14.54-1.89,17.62-2.49,2.19-12-3.68-13.34-9.26s-3.29-15.53,1.59-22.3C86.2,67.31,90.58,64.23,94.76,65.12Z"/></g><g id="seeds"><g id="seed"><path class="cls-11" d="M119.85,97.28c-.74.41-4.63-5.62-.59-6.17S123.64,95.24,119.85,97.28Z"/><path class="cls-12" d="M119.57,96.48c.75.61,1.83-1.5,1.72-3.63,0-1.27-2.18-2-3.1-.67C117.7,93,118.19,95.35,119.57,96.48Z"/></g><g id="seed-2" data-name="seed"><path class="cls-11" d="M122.05,86.66c-.64.35-4-4.86-.52-5.34S125.32,84.9,122.05,86.66Z"/><path class="cls-12" d="M121.8,86c.65.53,1.58-1.29,1.49-3.13,0-1.1-1.88-1.76-2.68-.58C120.19,83,120.61,85,121.8,86Z"/></g><g id="seed-3" data-name="seed"><path class="cls-11" d="M105.51,86.5c-.78.29-3.43-6.44.47-6.36S109.43,85,105.51,86.5Z"/><path class="cls-12" d="M105.37,85.63c.61.74,2-1.23,2.24-3.4a1.62,1.62,0,0,0-2.82-1.17C104.19,81.85,104.26,84.28,105.37,85.63Z"/></g><g id="seed-4" data-name="seed"><path class="cls-11" d="M109.7,75.6c-.65.42-4-5.79-.52-6.35S113,73.5,109.7,75.6Z"/><path class="cls-12" d="M109.45,74.77c.65.63,1.58-1.54,1.48-3.73a1.43,1.43,0,0,0-2.67-.69A4.93,4.93,0,0,0,109.45,74.77Z"/></g><g id="seed-5" data-name="seed"><path class="cls-11" d="M111.66,88.21c-.45.24-2.78-3.37-.36-3.7S113.93,87,111.66,88.21Z"/><path class="cls-12" d="M111.49,87.73c.45.36,1.1-.9,1-2.18a1,1,0,0,0-1.86-.4A2.56,2.56,0,0,0,111.49,87.73Z"/></g><g id="seed-6" data-name="seed"><path class="cls-11" d="M111.55,81.91c-.48.26-3-3.61-.38-4S114,80.6,111.55,81.91Z"/><path class="cls-12" d="M111.37,81.39c.48.39,1.17-1,1.1-2.32a1.11,1.11,0,0,0-2-.43A2.72,2.72,0,0,0,111.37,81.39Z"/></g><g id="seed-7" data-name="seed"><path class="cls-11" d="M109.3,101c-.53.22-1.94-5,.68-4.93S112,99.92,109.3,101Z"/><path class="cls-12" d="M109.26,100.33c.37.58,1.41-.92,1.7-2.61a1.06,1.06,0,0,0-1.83-1A4,4,0,0,0,109.26,100.33Z"/></g><g id="seed-8" data-name="seed"><path class="cls-11" d="M103.64,109.92c-.42.26-2.6-3.61-.34-4S105.76,108.61,103.64,109.92Z"/><path class="cls-12" d="M103.47,109.4c.43.39,1-1,1-2.33a.94.94,0,0,0-1.74-.43A3,3,0,0,0,103.47,109.4Z"/></g><g id="seed-9" data-name="seed"><path class="cls-11" d="M100.59,98.85c-.48.34-3-4.7-.38-5.16S103,97.15,100.59,98.85Z"/><path class="cls-12" d="M100.41,98.18c.48.51,1.17-1.25,1.1-3a1.05,1.05,0,0,0-2-.57A4.29,4.29,0,0,0,100.41,98.18Z"/></g><g id="seed-10" data-name="seed"><path class="cls-11" d="M97.22,88.59c-.27.13-1.43-2.14,0-2.24S98.56,88,97.22,88.59Z"/><path class="cls-12" d="M97.14,88.29c.24.24.66-.49.68-1.26a.58.58,0,0,0-1-.32A1.61,1.61,0,0,0,97.14,88.29Z"/></g><g id="seed-11" data-name="seed"><path class="cls-11" d="M119.88,76.36c-.57.31-3.54-4.3-.45-4.72S122.78,74.8,119.88,76.36Z"/><path class="cls-12" d="M119.66,75.74c.58.47,1.4-1.14,1.32-2.77a1.32,1.32,0,0,0-2.37-.51A3.26,3.26,0,0,0,119.66,75.74Z"/></g><g id="seed-12" data-name="seed"><path class="cls-11" d="M100.14,76.87c-.6.32-3.7-4.5-.48-4.93S103.16,75.24,100.14,76.87Z"/><path class="cls-12" d="M99.91,76.22c.6.49,1.46-1.19,1.37-2.89a1.38,1.38,0,0,0-2.48-.54A3.4,3.4,0,0,0,99.91,76.22Z"/></g><g id="seed-13" data-name="seed"><path class="cls-11" d="M92.41,82.87c-.78.26-2.86-6.83,1-6.52S96.38,81.58,92.41,82.87Z"/><path class="cls-12" d="M92.35,82c.54.8,2-1.14,2.46-3.37a1.58,1.58,0,0,0-2.68-1.37C91.48,78,91.35,80.51,92.35,82Z"/></g><g id="seed-14" data-name="seed"><path class="cls-11" d="M92.07,71.68c-.6.32-3.7-4.49-.48-4.93S95.09,70.05,92.07,71.68Z"/><path class="cls-12" d="M91.84,71c.6.49,1.46-1.19,1.37-2.89a1.37,1.37,0,0,0-2.47-.54A3.39,3.39,0,0,0,91.84,71Z"/></g><g id="seed-15" data-name="seed"><path class="cls-11" d="M83.35,76.74C82.89,77,80.53,73.32,83,73S85.65,75.5,83.35,76.74Z"/><path class="cls-12" d="M83.17,76.25c.46.37,1.12-.91,1-2.21a1.05,1.05,0,0,0-1.89-.4A2.59,2.59,0,0,0,83.17,76.25Z"/></g><g id="seed-16" data-name="seed"><path class="cls-11" d="M82.72,87.1c-.63.32-3.92-4.47-.51-4.91S85.92,85.48,82.72,87.1Z"/><path class="cls-12" d="M82.48,86.46c.63.48,1.55-1.19,1.45-2.88,0-1-1.84-1.63-2.62-.54C80.9,83.73,81.31,85.57,82.48,86.46Z"/></g><g id="seed-17" data-name="seed"><path class="cls-11" d="M79.45,95.23a1.85,1.85,0,0,0-.71.24c.4.71.94,1.34,1.28,2.09a4.81,4.81,0,0,1,.16.54c.23.28.47.55.69.84L81,99C82.59,97.31,82,94.88,79.45,95.23Z"/></g><g id="seed-18" data-name="seed"><path class="cls-11" d="M89.35,111.57c-.3.16-1.84-2.23-.24-2.45S90.85,110.76,89.35,111.57Z"/><path class="cls-12" d="M89.23,111.25c.3.24.73-.59.69-1.44a.69.69,0,0,0-1.23-.27A1.68,1.68,0,0,0,89.23,111.25Z"/></g><g id="seed-19" data-name="seed"><path class="cls-11" d="M126.9,90.49c-.32.17-2-2.44-.26-2.68S128.54,89.6,126.9,90.49Z"/><path class="cls-12" d="M126.78,90.14c.32.26.79-.65.74-1.57a.74.74,0,0,0-1.34-.3A1.85,1.85,0,0,0,126.78,90.14Z"/></g><g id="seed-20" data-name="seed"><path class="cls-11" d="M107,64.57c-.49-.15,2.89-3.84,3.49-1.44C110.76,64.43,110,65.52,107,64.57Z"/><path class="cls-12" d="M107.37,64.26c-.22.55,1.21.38,2.43-.06.75-.22.78-1.21-.17-1.5A2.59,2.59,0,0,0,107.37,64.26Z"/></g><g id="seed-21" data-name="seed"><path class="cls-11" d="M101.82,64.17c-.4.13-.61-3.89,1.26-2.59C104.08,62.28,104.3,63.36,101.82,64.17Z"/><path class="cls-12" d="M101.88,63.77c.21.46,1-.32,1.47-1.19.32-.49-.27-1.16-1-.9A1.76,1.76,0,0,0,101.88,63.77Z"/></g><g id="seed-22" data-name="seed"><path class="cls-11" d="M91,95.36c-.75.4-4.63-5.62-.6-6.17S94.8,93.32,91,95.36Z"/><path class="cls-12" d="M90.73,94.55c.75.61,1.83-1.49,1.72-3.62,0-1.27-2.18-2-3.1-.67C88.87,91.12,89.35,93.43,90.73,94.55Z"/></g><g id="seed-23" data-name="seed"><path class="cls-11" d="M92.08,104.3c-.53.29-3.3-4-.43-4.4S94.78,102.85,92.08,104.3Z"/><path class="cls-12" d="M91.88,103.72c.53.44,1.3-1.06,1.22-2.58a1.23,1.23,0,0,0-2.21-.48A3,3,0,0,0,91.88,103.72Z"/></g><g id="seed-24" data-name="seed"><path class="cls-11" d="M97.7,110c-.75.4-4.63-5.63-.6-6.17S101.48,108,97.7,110Z"/><path class="cls-12" d="M97.41,109.21c.76.61,1.83-1.49,1.72-3.62,0-1.28-2.18-2-3.1-.67C95.55,105.77,96,108.09,97.41,109.21Z"/></g><g id="seed-25" data-name="seed"><path class="cls-11" d="M101.6,123.18c-.52.33-3.22-4.69-.42-5.15S104.23,121.47,101.6,123.18Z"/><path class="cls-12" d="M101.4,122.5c.52.51,1.27-1.24,1.2-3a1.15,1.15,0,0,0-2.16-.56A4,4,0,0,0,101.4,122.5Z"/></g><g id="seed-26" data-name="seed"><path class="cls-11" d="M111.61,118.94c-.74.4-4.63-5.63-.59-6.17S115.4,116.9,111.61,118.94Z"/><path class="cls-12" d="M111.33,118.13c.75.61,1.83-1.49,1.71-3.62,0-1.28-2.17-2-3.09-.67C109.46,114.7,110,117,111.33,118.13Z"/></g><g id="seed-27" data-name="seed"><path class="cls-11" d="M121.46,106.28c-.5.27-3.12-3.79-.4-4.16S124,104.9,121.46,106.28Z"/><path class="cls-12" d="M121.27,105.74c.51.41,1.23-1,1.16-2.45a1.16,1.16,0,0,0-2.09-.45A2.87,2.87,0,0,0,121.27,105.74Z"/></g><g id="seed-28" data-name="seed"><path class="cls-11" d="M118.42,111.85c-.29.15-1.77-2.16-.23-2.37S119.87,111.07,118.42,111.85Z"/><path class="cls-12" d="M118.31,111.54c.29.23.7-.57.66-1.39a.66.66,0,0,0-1.19-.26A1.65,1.65,0,0,0,118.31,111.54Z"/></g><g id="seed-29" data-name="seed"><path class="cls-11" d="M126.83,110.53c-.74.41-4.63-5.62-.6-6.17S130.62,108.49,126.83,110.53Z"/><path class="cls-12" d="M126.55,109.72c.75.61,1.83-1.49,1.71-3.62,0-1.27-2.17-2-3.1-.67C124.68,106.29,125.16,108.6,126.55,109.72Z"/></g><g id="seed-30" data-name="seed"><path class="cls-11" d="M118.74,121.63c-.66-.29,1.1-6,3.62-3.59S122.08,123.09,118.74,121.63Z"/><path class="cls-12" d="M119.1,121c0,.82,1.94.44,3.24-.73.81-.65.13-2.5-1.24-2.41C120.29,118,119.07,119.52,119.1,121Z"/></g><g id="seed-31" data-name="seed"><path class="cls-11" d="M113,127.32c-.53.28-3.3-4-.42-4.41S115.71,125.86,113,127.32Z"/><path class="cls-12" d="M112.81,126.74c.54.43,1.3-1.07,1.22-2.59a1.23,1.23,0,0,0-2.21-.47A3,3,0,0,0,112.81,126.74Z"/></g><g id="seed-32" data-name="seed"><path class="cls-11" d="M130,99.74c-.53.29-3.3-4-.42-4.4S132.68,98.28,130,99.74Z"/><path class="cls-12" d="M129.78,99.16c.54.44,1.31-1.06,1.23-2.58a1.24,1.24,0,0,0-2.22-.48A3,3,0,0,0,129.78,99.16Z"/></g><g id="seed-33" data-name="seed"><path class="cls-11" d="M136.79,95.5c-.53.29-3.3-4-.43-4.4S139.49,94.05,136.79,95.5Z"/><path class="cls-12" d="M136.59,94.93c.53.43,1.3-1.07,1.22-2.59a1.23,1.23,0,0,0-2.21-.48A3,3,0,0,0,136.59,94.93Z"/></g><g id="seed-34" data-name="seed"><path class="cls-11" d="M135,105.44c-.34.17-2-2.51-.21-2.72S136.67,104.58,135,105.44Z"/><path class="cls-12" d="M134.87,105.08c.32.28.82-.64.79-1.57a.76.76,0,0,0-1.36-.33A1.86,1.86,0,0,0,134.87,105.08Z"/></g><g id="seed-35" data-name="seed"><path class="cls-11" d="M135.35,88.37c-.75.39-4.63-5.34-.6-5.86S139.13,86.43,135.35,88.37Z"/><path class="cls-12" d="M135.06,87.61c.76.58,1.83-1.42,1.72-3.45,0-1.21-2.18-1.94-3.1-.63C133.2,84.34,133.68,86.54,135.06,87.61Z"/></g><g id="seed-36" data-name="seed"><path class="cls-11" d="M129.41,80.49c-.37.2-2.31-2.81-.29-3.09S131.31,79.47,129.41,80.49Z"/><path class="cls-12" d="M129.27,80.09c.38.3.92-.75.86-1.81a.86.86,0,0,0-1.55-.34A2.14,2.14,0,0,0,129.27,80.09Z"/></g><g id="seed-37" data-name="seed"><path class="cls-11" d="M125.85,65.75c-.49.62-6-3.46-2.75-5.35S128.35,62.61,125.85,65.75Z"/><path class="cls-12" d="M125.31,65.12c.87.29,1-2,.16-3.85a1.56,1.56,0,0,0-2.89.47C122.47,62.68,123.73,64.59,125.31,65.12Z"/></g><g id="seed-38" data-name="seed"><path class="cls-11" d="M129.23,73.76c-.5.27-3.08-3.74-.4-4.11S131.75,72.4,129.23,73.76Z"/><path class="cls-12" d="M129,73.22c.5.41,1.22-1,1.14-2.41a1.15,1.15,0,0,0-2.06-.45A2.84,2.84,0,0,0,129,73.22Z"/></g><g id="seed-39" data-name="seed"><path class="cls-11" d="M139.8,64.64a12.86,12.86,0,0,0-1.17-.89.15.15,0,0,1,0-.09c-3.85.65,0,6.55.7,6.15A4.86,4.86,0,0,0,141.74,67C141.18,66.13,140.29,65.54,139.8,64.64Z"/><path class="cls-12" d="M139.81,64.65c-.28-.23-.56-.45-.86-.66a1.61,1.61,0,0,0-1.34.72c-.49.86,0,3.17,1.38,4.29.71.58,1.69-1.25,1.71-3.24A4.58,4.58,0,0,1,139.81,64.65Z"/></g><g id="seed-40" data-name="seed"><path class="cls-11" d="M140.31,77.9c-.39.2-2.38-2.85-.31-3.12S142.25,76.87,140.31,77.9Z"/><path class="cls-12" d="M140.16,77.49c.39.31.94-.76.88-1.83a.88.88,0,0,0-1.59-.34A2.13,2.13,0,0,0,140.16,77.49Z"/></g><g id="seed-41" data-name="seed"><path class="cls-11" d="M142.37,86.35c-.26.14-1.61-2-.21-2.15S143.69,85.64,142.37,86.35Z"/><path class="cls-12" d="M142.27,86.07c.26.21.64-.52.6-1.26a.6.6,0,0,0-1.08-.24A1.49,1.49,0,0,0,142.27,86.07Z"/></g></g></g><g id="small_blueberry" data-name="small blueberry"><path class="cls-13" d="M145,135.3c4.58.75,14.38.65,17.87-10,.41-5.26-3.47-10.88-7.92-12.44s-9.43-1.15-12.84,1.13-5.45,9.66-4,14.22S143.69,135.09,145,135.3Z"/><path class="cls-14" d="M161,129.16c.88-15.83-11-16.26-16.38-16.47a11.29,11.29,0,0,0-2.56,1.26c-2.18,1.46-3.8,5-4.29,8.54.39,1.58,1.57,4.65,1.76,5.66s3.81,4.25,4.3,1.93,2-8.76,9.86-8.26c6.76,1.75,6.58,6,6.07,9A13.78,13.78,0,0,0,161,129.16Z"/><path class="cls-15" d="M161,129.16a17,17,0,0,0,1.82-3.9c.41-5.26-3.47-10.88-7.92-12.44a15.7,15.7,0,0,0-10.28-.13C150,112.9,161.9,113.33,161,129.16Z"/><path class="cls-16" d="M148.57,133.73c-2-.56-5.41-7,2-9.72,4.65-.84,7.7.56,7.29,5,1.17-1,1.74-2.72,0-4.52a7.47,7.47,0,0,0-10.69,0C143.06,128.54,144.31,133.31,148.57,133.73Z"/><path class="cls-15" d="M150.3,130.61c.54.73.93,1.37,2,1s1.91-.91,2-1.5.05-1.93-.65-1.92-2.41-.84-2.8.38A10,10,0,0,0,150.3,130.61Z"/><path class="cls-16" d="M140.38,125.7c.92,1.36,2,1.54,3.41-1.67,1.31-1.83,2.52-3.12,1.55-5.15s-4,.2-4.62,1.06S139.19,124,140.38,125.7Z"/></g><g id="Blueberry"><path class="cls-13" d="M119.64,149c5.94,4.07,19.76,10.39,31.7-2.33,4-7.11,2.3-17.56-2.93-22.69s-12.48-7.82-18.78-6.86-14,10-14.93,17.36S118,147.88,119.64,149Z"/><path class="cls-14" d="M146.22,151c11.66-21.65-4.73-30.08-12.16-33.92a17.7,17.7,0,0,0-4.43.09c-4,.61-8.61,4.5-11.65,9.16-.48,2.48-.85,7.57-1.25,9.11s2.56,8.48,4.76,5.54,8.6-11,19.3-5.11c8.34,6.91,5.3,12.73,2.57,16.67A21.57,21.57,0,0,0,146.22,151Z"/><path class="cls-15" d="M146.22,151a26.86,26.86,0,0,0,5.12-4.28c4-7.11,2.3-17.56-2.93-22.69A24.38,24.38,0,0,0,134.06,117C141.49,120.88,157.88,129.31,146.22,151Z"/><path class="cls-17" d="M125.72,149.18c-2.41-2.09-3-13.42,9.24-12.32,7.08,1.88,10.44,5.86,7,11.75,2.28-.61,4.22-2.67,2.9-6.38s-6.61-10-15-7S120,145.78,125.72,149.18Z"/><path class="cls-18" d="M130.2,145.94c.29,1.38.4,2.53,2.12,2.65s3.29,0,3.75-.82,1.33-2.68.35-3.12-2.83-2.77-4.19-1.32A16.44,16.44,0,0,0,130.2,145.94Z"/><path class="cls-17" d="M119.51,132.51c.4,2.51,1.83,3.5,5.89-.11,3-1.69,5.6-2.71,5.58-6.2s-5.82-2.38-7.19-1.56S119,129.27,119.51,132.51Z"/></g><g id="Raspberry"><path class="cls-19" d="M81.22,118.87a6.66,6.66,0,0,1,5.85,1c.7,1,2.41,2.54.78,3.75s-4.81.28-4.81.28Z"/><path class="cls-20" d="M90.6,130.57c.73-1.17,2.59-5.55-2.06-8.21a1.54,1.54,0,0,1-.69,1.27,20.59,20.59,0,0,0,.12,3.63Z"/><path class="cls-19" d="M90.38,131.27c1.22,2.11,1.19,5.51-1.72,6.46-1.32-.22-2.11-1.59-1.84-2.18a12.79,12.79,0,0,0,.4-2.62Z"/><path class="cls-21" d="M86.82,135.55c1,1.09,1.82,1.87,1.84,2.18s-.44,4.57-4.69,4.46S86.82,135.55,86.82,135.55Z"/><path class="cls-22" d="M65.16,110.41c-.82-1-2.51-2.57-4.33-2.14s-2.4,1.09-2.66,2a1.58,1.58,0,0,0,.72,1.79c.35.1,4.28.48,4.28.48Z"/><path class="cls-23" d="M62.05,108.27c.6.22.44,2.23-.81,2.38s-1.83.5-2.9-.86A3.68,3.68,0,0,1,62.05,108.27Z"/><path class="cls-24" d="M58.12,110.65c-.55-.62-4-3.28-6.33-1.59s-2.88,2.77-2.76,6a48.15,48.15,0,0,0,5.45,2.19l1.9.21,1.39-1.7,1.75-3.62Z"/><path class="cls-25" d="M56.06,109.2c1.13.57-.54,3.5-1.79,3.77s-5,.87-5.25,1.29C48.61,112.75,51,106.45,56.06,109.2Z"/><path class="cls-26" d="M54,110a2.25,2.25,0,0,1-1.62,2.49c-1.47.62-2.42.59-2.49-.23a3.15,3.15,0,0,1,2.89-2.79A3.77,3.77,0,0,1,54,110Z"/><path class="cls-27" d="M63.47,111.75a8.64,8.64,0,0,1,1-.88h0c.07.87,2.41,1.89,4,1.87,1.38,0,2.22-1.39,1.86-2.1a8.88,8.88,0,0,1,2,1.86l-.62,4.64-4.49,3.34-2.39-.76S59.29,116.06,63.47,111.75Z"/><path class="cls-28" d="M68.49,112.75c-1.61,0-3.95-1-4-1.87h0a4.68,4.68,0,0,1,5.88-.22C70.71,111.36,69.87,112.73,68.49,112.75Z"/><path class="cls-29" d="M80.14,118.53c.21-2.06-.56-5.25-4.87-5.92s-5.68,1.86-5.51,4.36S74,120.38,74,120.38l3.72-.34Z"/><path class="cls-30" d="M74.89,119.46c1.24-1.19,2.6-4,0-5.28A3.35,3.35,0,0,0,70.08,117C70.14,118.68,74.89,119.46,74.89,119.46Z"/><path class="cls-31" d="M74.07,114.89c.47.54,1.13,2.26-.72,2.26a4.67,4.67,0,0,0-2.06-.6c-.48-.21-.52-.92.79-1.83C72.75,114.64,73.87,114.65,74.07,114.89Z"/><path class="cls-29" d="M81.35,127c1.07-.69,4.15-5,.32-7.69-1.56-1-4.75-1.83-6.4.84a3.84,3.84,0,0,0,.17,4.63S80,127.85,81.35,127Z"/><path class="cls-32" d="M79.07,124.59a2.54,2.54,0,0,0,.14-4.51c-2.39-.69-3.4.62-3.52.78s-.59,2.54-.59,2.54l.34,1,2.26.41Z"/><path class="cls-33" d="M78.69,121.5c.29.42.26,2.31-1.5,1.7-.73-.62-1.34-1.59-.88-2.17S77.64,120,78.69,121.5Z"/><path class="cls-29" d="M88,133.11c4.13-.59,3.76-11.25-4-10.06-.81,2.59-2,4-2.62,3.93.08.78,2,1.94,2,1.94Z"/><path class="cls-34" d="M87.34,129.75c1.65-.57,2.54-2.9,0-4.42s-3.68.33-3.08,2.21S87.34,129.75,87.34,129.75Z"/><path class="cls-29" d="M79.73,133.58c.84,0,5.21-4.62-.66-9a4,4,0,0,0-3.68-.72,3.3,3.3,0,0,1-1.79,2.74c1,1.4,1.76,3.66,1,4.31A11.1,11.1,0,0,1,79.73,133.58Z"/><path class="cls-35" d="M75,124.39c1.46-.52,7,1.34,3.8,8.19-2.89.48-5.92-2.31-5.92-2.31S73,124.17,75,124.39Z"/><path class="cls-36" d="M77.32,126.39a3,3,0,0,1,0,3.36c-.33.17-1.75.62-2.34-2C75,126.29,75,125,77.32,126.39Z"/><path class="cls-29" d="M73.7,126.31a5.24,5.24,0,0,0-1-8.81c-2.5-1.49-5.52.48-6.53,2.23s0,4.92,0,4.92S72.06,127.43,73.7,126.31Z"/><path class="cls-28" d="M71.63,125.09a4.54,4.54,0,0,0,.32-6.15,5.37,5.37,0,0,0-3.64-1.24c-1,.21-4.06,4.84-4.06,4.84L67,125.09Z"/><path class="cls-37" d="M68.49,123.25c.21.37.47,1.27,1.74,0a2.84,2.84,0,0,0,.49-3.52c-.45-.74-3-.85-3.39-.25s0,.87.61,2A4.19,4.19,0,0,1,68.49,123.25Z"/><path class="cls-38" d="M80,142.53c.87,1.39-1.68,4.36-6.36,3-.65-1.46,1.14-4,1.14-4S77.42,138.35,80,142.53Z"/><path class="cls-29" d="M77.38,140.68c1.2,1.59,7.77,5.24,9.07-4a7.12,7.12,0,0,1-6.44.69C76.69,136.29,77.38,140.68,77.38,140.68Z"/><path class="cls-39" d="M83.66,138.24a2,2,0,0,1-.85,3c-1.09.54-2.46.34-2.8-.36s0-2.48,0-3S83.66,138.24,83.66,138.24Z"/><path class="cls-29" d="M80,137.12c1.66.67,5.29,1.81,7.53-3s-5-7.17-5.9-6.57c.45,2.87,1,4.09-1.91,6.05A10.44,10.44,0,0,1,80,137.12Z"/><path class="cls-34" d="M82.2,129.21c-.14-1.32,4.55,2.21,2.6,5.19A4,4,0,0,1,80,135c-.53-.41-1.65-.33-.28-1.43S82.49,131.84,82.2,129.21Z"/><path class="cls-40" d="M83.36,131.07c1,1,.75,2.79-.4,3s-3,.2-1.74-1C82.17,132.57,82.71,130.37,83.36,131.07Z"/><path class="cls-38" d="M65.29,145.52c-1.29,2.37-4.71,3.34-7.84.18l1.76-4.78,5.33-1.75Z"/><path class="cls-41" d="M76,141.13c0,2.18-2.49,5.62-6.3,5.57s-6.37-2.37-6.33-5.21,6.45-2.66,6.45-2.66Z"/><path class="cls-28" d="M72.86,141.72c-.25,2.51-6.21,5.43-8.61,0a23.6,23.6,0,0,1,6.17-3.08Z"/><path class="cls-42" d="M68.82,141.49c.72.65,2,2.51-.88,2.32s-2.3-1.6-1.76-1.74S68,140.71,68.82,141.49Z"/><path class="cls-29" d="M74.6,130.92c2.29.2,7.66,2.75,4.38,7.72s-8.18,2.32-9.64.76.48-4.39.48-4.39Z"/><path class="cls-43" d="M74.6,131.27c1.79,0,3.93,1.39,2,6.22-1.69,2.58-5.68,4.42-7.07,1.15s0-5.06,0-5.06Z"/><path class="cls-37" d="M74.6,134.8c.89.57.45,4.79-3.64,3.84C69.08,137.1,73.11,133.86,74.6,134.8Z"/><path class="cls-29" d="M69.82,135c.27,2.39-.6,5.58-3.39,6.12s-5.56.69-8.26-1.2c-1.51-3.52-1.62-5.45-.3-5.83s3.32-2.89,5.59-2S69.67,133.67,69.82,135Z"/><path class="cls-44" d="M67,135c.75,1.53.84,6.31-5.43,6.11-3.58-.85-3.6-1.91-4.06-4.71s3.8-2.31,3.8-2.31.72-1,1.61-1S67,135,67,135Z"/><path class="cls-42" d="M64.09,136c.54,1.37-.45,2-.64,2.65s-1.73,2.16-3.34,1.43c-1.19-.54-2.73-1.73-.69-3.28.89,0,1.2-.67,1.82-1S63.79,135.23,64.09,136Z"/><path class="cls-29" d="M67.72,124.15c2.59.13,7.43,1.31,6.83,6.33s-6.32,5.38-8.74,4.53-3.45-1.85-3.43-3.15S63.92,124,67.72,124.15Z"/><path class="cls-23" d="M67.72,124.84c.75-.29,4.14-1,5.14,4.93-.7,4-5,5-6.19,4.85s-4.17-1-3.57-5.41A4.77,4.77,0,0,1,67.72,124.84Z"/><path class="cls-45" d="M65.29,129.82c-.74.61-2.32,1.61-.3,3.29,1.19,1,3.28.2,3.48-.35s1.85-3.82,0-5.37C67.72,127.21,66,129.26,65.29,129.82Z"/><path class="cls-46" d="M49.24,141.17c-.13-.64-2.19-2.93-3.84-4-.76-.48-.09-.9.85-1.2l.72.41,3.72,2.24s2.9,3,1.76,4.3l-.05.05a.91.91,0,0,1-.31.22c-.87.39-2.34,1.22-5.36-.19h0A2,2,0,0,0,49.24,141.17Z"/><path class="cls-23" d="M44.54,135l1.71,1c-.94.3-1.61.72-.85,1.2,1.65,1.05,3.71,3.34,3.84,4A2,2,0,0,1,46.7,143l-.63-.34C41.29,139,43.43,136.49,44.54,135Z"/><path class="cls-47" d="M43.78,137.89c1.29.07,4,1.44,3.24,3.63S42.83,138.64,43.78,137.89Z"/><path class="cls-29" d="M61,141.12c.45,1.88-2.54,7.32-8.37,2.39a7.12,7.12,0,0,1-2.32-5.42c0-.6,2.07-3.47,2.07-3.47l5.11.39C57.57,137.19,56.77,140.38,61,141.12Z"/><path class="cls-28" d="M57.32,136c-.15,1.74.51,3.83.85,4,.2,1.54-.85,6-5.53,3.58-2-1.34-2.34-4-2-4.87s1.36-3.23,1.36-3.23l2.81-1.31Z"/><path class="cls-42" d="M53.24,136a4.27,4.27,0,0,1,.66,7c-1.46.34-3-2.39-2.81-5.16S53.24,136,53.24,136Z"/><path class="cls-29" d="M47.54,125.58c-1.62.91-5.45,4.69-2.14,11.11,1.62,1.75,4.2,2.29,4.92,1.75S53.24,136,53.24,136l1.14-4.83-2.08-3.73Z"/><path class="cls-28" d="M44.82,135.41c.45,1.37,4,1.69,5.5-1.41.28-2.63.67-6,0-7.36a2.09,2.09,0,0,0-2.78-1.06C46.65,126.2,42.52,128.36,44.82,135.41Z"/><path class="cls-42" d="M47.91,127.21c1.33,1.57.9,4.36.6,5.3S47.12,135,46.67,135s-1.59-.15-1.94-1.79S44.13,126.43,47.91,127.21Z"/><path class="cls-24" d="M65.6,119.61c1.38-1.59,2-4.42.48-6.32s-4.79-1.74-5.57-1.54-4.58,1-4.88,4.58a4.25,4.25,0,0,0,2.88,4.53h5.93Z"/><path class="cls-23" d="M60.51,111.75c2.39,0,4.53,1.1,4.78,4.19-.45,1.93-1.18,3-1.94,3s-5.16,1.17-6.09.67a4.26,4.26,0,0,1-1.63-3.28C55.68,115.34,56.13,112.7,60.51,111.75Z"/><path class="cls-45" d="M61.7,112.55c1.25.69,1.55,3.18-.69,4.58s-2.84,1.51-3.89,1-1.83-2.59,1.05-4.73A5.18,5.18,0,0,1,61.7,112.55Z"/><path class="cls-24" d="M58,121.24c1.38,3.81-4.51,8.71-8.6,6s-6.19-9.33-.44-11.95C52.69,113.55,56.31,116.68,58,121.24Z"/><path class="cls-23" d="M54.86,119.89a7,7,0,0,1-4.11,6.72,6.58,6.58,0,0,1-4.8-7.94C46.44,114.84,53.76,111.6,54.86,119.89Z"/><path class="cls-45" d="M52.12,123c-1.49,1.76-3.36,1.86-4.7.55-1.23-3.16-.89-5.71.58-7S54.21,115.48,52.12,123Z"/><path class="cls-29" d="M61.27,126.69c2.69,2.13,2.09,8.21-2.09,9.11s-10.35-2.32-6.88-8.41C54,124.42,56.94,123.25,61.27,126.69Z"/><path class="cls-23" d="M57.94,126.84c1.87,1.21,3.15,2.31,1.81,6.19-3.09,4.34-7.34,1.63-7.45.58s-2.64-3,1.91-8C56.22,124.47,57.94,126.84,57.94,126.84Z"/><path class="cls-45" d="M55.9,130.37c.23,1.87.35,5-1.68,4.08s-2.61-2.32-2.39-3.88C52.3,127.39,55.9,125,55.9,130.37Z"/><path class="cls-29" d="M66.08,120c2.7,2.13,2.1,8.21-2.09,9.11s-9-2.84-7.61-6S61.75,116.53,66.08,120Z"/><path class="cls-23" d="M62.58,118.94c1.87,1.21,4.18,3.27,2.83,7.15-2.31,4.4-6.79,1.57-7.47.75s-2.85-3.9.7-6.81A7.84,7.84,0,0,1,62.58,118.94Z"/><path class="cls-45" d="M61.6,120.11c0,1.42-.15,3.07.75,4.26.22,1.87-.81,3.7-2.84,2.76a3.63,3.63,0,0,1-2.39-3.88c.08-1.58,2.84-4,3.66-3.58Z"/></g></g></g></svg>