<svg xmlns="http://www.w3.org/2000/svg" viewBox="0 0 174.74 192.75"><defs><style>.cls-1{fill:#8ebd22;}.cls-2{fill:#8abd00;}.cls-3{fill:#438b2c;}.cls-4{fill:#548c2e;}.cls-5{fill:#d50029;}.cls-6{fill:#f01141;}.cls-7{fill:#ff3e56;}.cls-8{fill:#c00001;}.cls-9{fill:#ff682a;}.cls-10{fill:#3e5072;}.cls-11{fill:#3f4269;}.cls-12,.cls-13{fill:#282a4e;}.cls-13,.cls-14{opacity:0.48;}.cls-14{fill:#6179aa;}.cls-15{fill:#332f48;}.cls-16{fill:#c40c38;}.cls-16,.cls-21,.cls-26{stroke:#bf0008;stroke-miterlimit:10;}.cls-16,.cls-26{stroke-width:0.5px;}.cls-17{fill:#c9001f;}.cls-18{fill:#af043d;}.cls-19{fill:#c10024;}.cls-20{fill:#fb0030;}.cls-21,.cls-26{fill:#d20029;}.cls-21{stroke-width:0.59px;}.cls-22{fill:#e7002f;}.cls-23{fill:#ff527c;}.cls-24{fill:#c20024;}.cls-25{fill:#fe002e;}.cls-27{fill:#f7001f;}.cls-28{fill:#ff2f68;}.cls-29{fill:#f10023;}.cls-30{fill:#ff3769;}.cls-31{fill:#e20016;}.cls-32{fill:#f5001e;}.cls-33{fill:#ff3767;}.cls-34{fill:#ff3168;}.cls-35{fill:#bc1d4a;}.cls-36{fill:#e40019;}.cls-37{fill:#ff316b;}.cls-38{fill:#c50029;}.cls-39{fill:#ff486d;}.cls-40{fill:#f3001e;}.cls-41{fill:#fd0034;}.cls-42{fill:#ff4c71;}.cls-43{fill:#c60029;}.cls-44{fill:#ff3368;}</style></defs><title>fruit-icon</title><g id="Layer_2" data-name="Layer 2"><g id="Step_Three" data-name="Step Three"><g id="Fruits"><g id="Strawberry"><g id="Leaf"><path class="cls-1" d="M89,31.63c-1.42-2.51-1.25-6.53-.58-9.43C85.64,18.1,77.77,11.17,74,8.93,73.32,16.2,76.94,28.2,89,31.63Z"/><path class="cls-2" d="M132.39,7.1c1.26,10.58-11.52,25.16-16.26,24.16,1-1.87.3-5.48-.7-8,.66-1.55-6.62-16.81-9.22-23.29-3,6.35-1.15,9.22-.89,11.08s.6,10.59-2.24,15.82c-2.34,4.24-3,11.26-.8,12.85,1,.77-2.66,1.5-6.8,2.06l9.12,1.93S123.65,38,126.36,32.38C134.42,26.78,137.23,8.84,132.39,7.1Z"/><path class="cls-3" d="M102.28,39.75c-2.2-1.59-1.54-8.61.8-12.85,2.84-5.23,2.51-13.95,2.24-15.82s-2.1-4.73.89-11.08C105.09,2.12,91.15,18.93,89,23.16a9.82,9.82,0,0,0-.58-1c-.67,2.9-.84,6.92.58,9.43-12-3.43-15.65-15.43-15-22.7a5.79,5.79,0,0,0-1.57-.71C69.58,17.68,74,28,80,33.38l1.82,5.54,13.68,2.89C99.62,41.25,103.33,40.52,102.28,39.75Z"/><path class="cls-4" d="M116.13,31.26c4.74,1,17.52-13.58,16.26-24.16-3.34,2.12-14.47,13.08-17,16.19C116.43,25.78,117.08,29.39,116.13,31.26Z"/></g><g id="Strawberry-2" data-name="Strawberry"><path class="cls-5" d="M80,33.38c6,4.31,27.56,11,46.49,0,22.92,2,50.15,40.51,29.89,72.06-9.63,13.62-29.22,31.22-32.54,34.88S106.88,162.9,92.93,154.6c-5.65,0-8.3-1.33-10.63-3S43.45,93.16,43.45,88.84s-5-20.92,10.62-38.53C70.35,35.7,80,33.38,80,33.38Z"/><path class="cls-5" d="M80,33.38c6,4.31,27.56,11,46.49,0,22.92,2,50.15,40.51,29.89,72.06-9.63,13.62-29.22,31.22-32.54,34.88S106.88,162.9,92.93,154.6c-5.65,0-8.3-1.33-10.63-3S43.45,93.16,43.45,88.84s-5-20.92,10.62-38.53C70.35,35.7,80,33.38,80,33.38Z"/><path class="cls-5" d="M126.47,33.38c-18.93,11-40.51,4.31-46.49,0,0,0-3,.73-8.61,4,9.78,1.48,25.94,2.73,34.51,13,10.3,12.29,32.22,29.23,9.63,66.76C100.9,139,90.61,144.3,86.62,142.31c-2.84-1.42-13.39-9.05-20.45-14.54,7.94,12.4,15.14,23.13,16.13,23.84,2.33,1.66,5,3,10.63,3,13.95,8.3,27.57-10.63,30.89-14.28s22.91-21.26,32.54-34.88C176.62,73.89,149.39,35.37,126.47,33.38Z"/><path class="cls-5" d="M126.47,33.38c-18.93,11-40.51,4.31-46.49,0,0,0-3,.73-8.61,4,9.78,1.48,25.94,2.73,34.51,13,10.3,12.29,32.22,29.23,9.63,66.76C100.9,139,90.61,144.3,86.62,142.31c-2.84-1.42-13.39-9.05-20.45-14.54,7.94,12.4,15.14,23.13,16.13,23.84,2.33,1.66,5,3,10.63,3,13.95,8.3,27.57-10.63,30.89-14.28s22.91-21.26,32.54-34.88C176.62,73.89,149.39,35.37,126.47,33.38Z"/><path class="cls-6" d="M115.51,117.07c22.59-37.53.67-54.47-9.63-66.76-8.57-10.23-24.73-11.48-34.51-13a108.39,108.39,0,0,0-17.3,13C38.46,67.92,43.45,84.52,43.45,88.84c0,2.48,12,22.23,22.72,38.93,7.06,5.49,17.61,13.12,20.45,14.54C90.61,144.3,100.9,139,115.51,117.07Z"/><path class="cls-6" d="M115.51,117.07c22.59-37.53.67-54.47-9.63-66.76-8.57-10.23-24.73-11.48-34.51-13a108.39,108.39,0,0,0-17.3,13C38.46,67.92,43.45,84.52,43.45,88.84c0,2.48,12,22.23,22.72,38.93,7.06,5.49,17.61,13.12,20.45,14.54C90.61,144.3,100.9,139,115.51,117.07Z"/><path class="cls-7" d="M74.5,47.49c7.66,1.64,14.61,13.29,4,32.38-.83,10-5,24.25-3.15,29.39-4.15,3.66-19.93-6.14-22.25-15.44s-5.48-25.9,2.65-37.2C60.22,51.14,67.52,46,74.5,47.49Z"/><path class="cls-7" d="M74.5,47.49c7.66,1.64,14.61,13.29,4,32.38-.83,10-5,24.25-3.15,29.39-4.15,3.66-19.93-6.14-22.25-15.44s-5.48-25.9,2.65-37.2C60.22,51.14,67.52,46,74.5,47.49Z"/></g><g id="seeds"><g id="seed"><path class="cls-8" d="M116.34,101.13c-1.24.67-7.72-9.38-1-10.3S122.65,97.72,116.34,101.13Z"/><path class="cls-9" d="M115.87,99.78c1.25,1,3-2.49,2.86-6,0-2.13-3.63-3.41-5.17-1.12C112.75,94.05,113.56,97.91,115.87,99.78Z"/></g><g id="seed-2" data-name="seed"><path class="cls-8" d="M120,83.41c-1.08.58-6.68-8.11-.86-8.9S125.46,80.47,120,83.41Z"/><path class="cls-9" d="M119.59,82.24c1.09.88,2.64-2.15,2.48-5.22,0-1.84-3.14-2.94-4.47-1C116.9,77.29,117.6,80.63,119.59,82.24Z"/></g><g id="seed-3" data-name="seed"><path class="cls-8" d="M92.41,83.14c-1.28.48-5.71-10.73.8-10.6S99,80.68,92.41,83.14Z"/><path class="cls-9" d="M92.19,81.69c1,1.23,3.3-2,3.73-5.67.37-2.16-2.86-4-4.7-2C90.21,75.39,90.33,79.44,92.19,81.69Z"/></g><g id="seed-4" data-name="seed"><path class="cls-8" d="M99.41,65c-1.08.69-6.68-9.65-.87-10.59S104.86,61.47,99.41,65Z"/><path class="cls-9" d="M99,63.58c1.09,1,2.64-2.56,2.48-6.21A2.39,2.39,0,0,0,97,56.21C96.3,57.69,97,61.66,99,63.58Z"/></g><g id="seed-5" data-name="seed"><path class="cls-8" d="M102.68,86c-.75.4-4.63-5.63-.6-6.18S106.47,84,102.68,86Z"/><path class="cls-9" d="M102.39,85.19c.76.61,1.83-1.5,1.72-3.63,0-1.27-2.18-2-3.1-.67C100.53,81.75,101,84.07,102.39,85.19Z"/></g><g id="seed-6" data-name="seed"><path class="cls-8" d="M102.5,75.49c-.8.43-5-6-.64-6.61S106.55,73.31,102.5,75.49Z"/><path class="cls-9" d="M102.19,74.62c.81.66,2-1.59,1.84-3.87,0-1.37-2.33-2.19-3.32-.72C100.19,71,100.71,73.43,102.19,74.62Z"/></g><g id="seed-7" data-name="seed"><path class="cls-8" d="M98.75,107.33c-.9.36-3.24-8.42,1.13-8.22S103.29,105.52,98.75,107.33Z"/><path class="cls-9" d="M98.68,106.21c.61,1,2.34-1.54,2.83-4.36a1.76,1.76,0,0,0-3.05-1.58C97.71,101.28,97.56,104.43,98.68,106.21Z"/></g><g id="seed-8" data-name="seed"><path class="cls-8" d="M89.29,122.2c-.69.43-4.33-6-.56-6.61S92.84,120,89.29,122.2Z"/><path class="cls-9" d="M89,121.33c.7.65,1.71-1.6,1.6-3.88a1.56,1.56,0,0,0-2.9-.72C87.28,117.65,87.73,120.13,89,121.33Z"/></g><g id="seed-9" data-name="seed"><path class="cls-8" d="M84.22,103.75c-.8.56-5-7.86-.64-8.62S88.27,100.9,84.22,103.75Z"/><path class="cls-9" d="M83.91,102.62c.81.85,2-2.09,1.84-5.06,0-1.78-2.33-2.85-3.32-.94C81.91,97.82,82.43,101.05,83.91,102.62Z"/></g><g id="seed-10" data-name="seed"><path class="cls-8" d="M78.59,86.63c-.44.21-2.37-3.57-.07-3.73S80.82,85.56,78.59,86.63Z"/><path class="cls-9" d="M78.46,86.13c.4.4,1.11-.82,1.14-2.1a1,1,0,0,0-1.73-.53A2.66,2.66,0,0,0,78.46,86.13Z"/></g><g id="seed-11" data-name="seed"><path class="cls-8" d="M116.39,66.23c-1,.51-5.91-7.18-.76-7.88S121.22,63.63,116.39,66.23Z"/><path class="cls-9" d="M116,65.2c1,.78,2.33-1.91,2.19-4.62,0-1.63-2.78-2.61-4-.86C113.64,60.82,114.26,63.77,116,65.2Z"/></g><g id="seed-12" data-name="seed"><path class="cls-8" d="M83.46,67.08c-1,.53-6.17-7.5-.8-8.23S88.5,64.36,83.46,67.08Z"/><path class="cls-9" d="M83.08,66c1,.81,2.43-2,2.29-4.82,0-1.7-2.91-2.72-4.13-.9C80.59,61.42,81.24,64.51,83.08,66Z"/></g><g id="seed-13" data-name="seed"><path class="cls-8" d="M70.58,77.1c-1.31.42-4.78-11.4,1.61-10.88S77.2,74.94,70.58,77.1Z"/><path class="cls-9" d="M70.47,75.59c.9,1.33,3.41-1.91,4.11-5.63a2.63,2.63,0,0,0-4.47-2.28C69,69,68.81,73.16,70.47,75.59Z"/></g><g id="seed-14" data-name="seed"><path class="cls-8" d="M70,58.43c-1,.53-6.17-7.5-.8-8.23S75.05,55.71,70,58.43Z"/><path class="cls-9" d="M69.63,57.35c1,.81,2.43-2,2.28-4.82,0-1.7-2.9-2.72-4.12-.9C67.14,52.77,67.79,55.86,69.63,57.35Z"/></g><g id="seed-15" data-name="seed"><path class="cls-8" d="M55.46,66.86c-.75.41-4.69-5.7-.6-6.26S59.3,64.79,55.46,66.86Z"/><path class="cls-9" d="M55.17,66c.76.62,1.86-1.51,1.74-3.67,0-1.29-2.21-2.07-3.14-.68C53.28,62.56,53.77,64.91,55.17,66Z"/></g><g id="seed-16" data-name="seed"><path class="cls-8" d="M54.41,84.15c-1,.53-6.53-7.47-.84-8.19S59.75,81.44,54.41,84.15Z"/><path class="cls-9" d="M54,83.07c1.06.81,2.58-2,2.42-4.8,0-1.69-3.07-2.71-4.37-.89C51.38,78.52,52.06,81.59,54,83.07Z"/></g><g id="seed-17" data-name="seed"><path class="cls-8" d="M49,97.7a2.83,2.83,0,0,0-1.17.41c.66,1.18,1.57,2.23,2.12,3.48a4.67,4.67,0,0,1,.27.9c.39.47.79.92,1.16,1.4l.23.1C54.19,101.17,53.22,97.12,49,97.7Z"/></g><g id="seed-18" data-name="seed"><path class="cls-8" d="M65.47,125c-.5.26-3.07-3.73-.4-4.1S68,123.6,65.47,125Z"/><path class="cls-9" d="M65.28,124.42c.5.4,1.21-1,1.14-2.4a1.15,1.15,0,0,0-2.06-.45A2.82,2.82,0,0,0,65.28,124.42Z"/></g><g id="seed-19" data-name="seed"><path class="cls-8" d="M128.09,89.79c-.54.3-3.35-4.07-.43-4.46S130.83,88.32,128.09,89.79Z"/><path class="cls-9" d="M127.89,89.21c.54.44,1.32-1.08,1.24-2.62a1.24,1.24,0,0,0-2.24-.49A3.08,3.08,0,0,0,127.89,89.21Z"/></g><g id="seed-20" data-name="seed"><path class="cls-8" d="M94.82,46.57c-.82-.26,4.83-6.4,5.82-2.4C101.17,46.33,99.93,48.15,94.82,46.57Z"/><path class="cls-9" d="M95.52,46.05c-.37.91,2,.64,4.06-.09,1.24-.37,1.3-2-.3-2.51C98.31,43.23,96.2,44.38,95.52,46.05Z"/></g><g id="seed-21" data-name="seed"><path class="cls-8" d="M86.26,45.9c-.66.22-1-6.49,2.1-4.32C90,42.76,90.4,44.54,86.26,45.9Z"/><path class="cls-9" d="M86.38,45.23c.33.77,1.64-.53,2.44-2,.53-.83-.45-1.95-1.75-1.52C86.34,42.06,85.75,43.81,86.38,45.23Z"/></g><g id="seed-22" data-name="seed"><path class="cls-8" d="M68.25,97.92c-1.24.67-7.72-9.38-1-10.29S74.56,94.52,68.25,97.92Z"/><path class="cls-9" d="M67.78,96.57c1.25,1,3-2.49,2.86-6,0-2.13-3.63-3.4-5.17-1.12C64.66,90.84,65.47,94.7,67.78,96.57Z"/></g><g id="seed-23" data-name="seed"><path class="cls-8" d="M70,112.83c-.89.48-5.51-6.69-.72-7.35S74.53,110.4,70,112.83Z"/><path class="cls-9" d="M69.68,111.87c.9.72,2.18-1.78,2-4.31,0-1.52-2.59-2.43-3.69-.8C67.46,107.78,68,110.53,69.68,111.87Z"/></g><g id="seed-24" data-name="seed"><path class="cls-8" d="M79.4,122.36c-1.25.68-7.73-9.38-1-10.29S85.71,119,79.4,122.36Z"/><path class="cls-9" d="M78.92,121c1.25,1,3-2.5,2.86-6,0-2.12-3.63-3.4-5.17-1.12C75.81,115.29,76.61,119.15,78.92,121Z"/></g><g id="seed-25" data-name="seed"><path class="cls-8" d="M85.9,144.31c-.87.56-5.38-7.82-.69-8.58S90.29,141.47,85.9,144.31Z"/><path class="cls-9" d="M85.57,143.18c.87.85,2.12-2.07,2-5a1.92,1.92,0,0,0-3.6-.93C83.4,138.41,84,141.63,85.57,143.18Z"/></g><g id="seed-26" data-name="seed"><path class="cls-8" d="M102.6,137.24c-1.25.68-7.72-9.38-1-10.29S108.91,133.84,102.6,137.24Z"/><path class="cls-9" d="M102.12,135.89c1.26,1,3-2.49,2.87-6,0-2.12-3.64-3.4-5.17-1.12C99,130.17,99.82,134,102.12,135.89Z"/></g><g id="seed-27" data-name="seed"><path class="cls-8" d="M119,116.13c-.84.45-5.21-6.33-.67-6.94S123.28,113.84,119,116.13Z"/><path class="cls-9" d="M118.71,115.22c.84.69,2.05-1.68,1.93-4.07,0-1.44-2.45-2.3-3.49-.76C116.6,111.36,117.15,114,118.71,115.22Z"/></g><g id="seed-28" data-name="seed"><path class="cls-8" d="M114,125.42c-.47.25-3-3.6-.38-4S116.37,124.11,114,125.42Z"/><path class="cls-9" d="M113.77,124.9c.48.39,1.17-1,1.1-2.31a1.1,1.1,0,0,0-2-.43A2.72,2.72,0,0,0,113.77,124.9Z"/></g><g id="seed-29" data-name="seed"><path class="cls-8" d="M128,123.22c-1.24.67-7.72-9.38-1-10.29S134.29,119.82,128,123.22Z"/><path class="cls-9" d="M127.5,121.87c1.26,1,3.05-2.49,2.87-6,0-2.12-3.64-3.4-5.17-1.12C124.39,116.14,125.2,120,127.5,121.87Z"/></g><g id="seed-30" data-name="seed"><path class="cls-8" d="M114.48,141.73c-1.1-.48,1.84-10,6-6S120.05,144.16,114.48,141.73Z"/><path class="cls-9" d="M115.09,140.71c0,1.36,3.23.74,5.39-1.22,1.37-1.09.22-4.17-2.06-4C117.07,135.68,115,138.22,115.09,140.71Z"/></g><g id="seed-31" data-name="seed"><path class="cls-8" d="M104.93,151.21c-.88.48-5.51-6.69-.71-7.34S109.44,148.78,104.93,151.21Z"/><path class="cls-9" d="M104.59,150.25c.9.73,2.18-1.78,2-4.31,0-1.52-2.59-2.43-3.69-.8C102.37,146.16,103,148.92,104.59,150.25Z"/></g><g id="seed-32" data-name="seed"><path class="cls-8" d="M133.24,105.22c-.89.48-5.51-6.69-.71-7.34S137.74,102.79,133.24,105.22Z"/><path class="cls-9" d="M132.9,104.26c.89.73,2.17-1.78,2-4.31,0-1.52-2.59-2.43-3.69-.8C130.68,100.17,131.25,102.93,132.9,104.26Z"/></g><g id="seed-33" data-name="seed"><path class="cls-8" d="M144.59,98.16c-.89.48-5.51-6.7-.71-7.35S149.09,95.73,144.59,98.16Z"/><path class="cls-9" d="M144.25,97.19c.89.73,2.18-1.77,2-4.31,0-1.51-2.59-2.42-3.69-.8C142,93.11,142.6,95.86,144.25,97.19Z"/></g><g id="seed-34" data-name="seed"><path class="cls-8" d="M141.58,114.73c-.55.28-3.3-4.2-.34-4.53S144.38,113.29,141.58,114.73Z"/><path class="cls-9" d="M141.38,114.13c.54.46,1.37-1.06,1.32-2.62a1.27,1.27,0,0,0-2.26-.55A3.12,3.12,0,0,0,141.38,114.13Z"/></g><g id="seed-35" data-name="seed"><path class="cls-8" d="M142.18,86.27c-1.24.64-7.72-8.92-1-9.79S148.49,83,142.18,86.27Z"/><path class="cls-9" d="M141.71,85c1.25,1,3-2.37,2.86-5.74,0-2-3.63-3.24-5.17-1.07C138.59,79.54,139.4,83.21,141.71,85Z"/></g><g id="seed-36" data-name="seed"><path class="cls-8" d="M132.29,73.12c-.63.34-3.86-4.69-.5-5.15S135.44,71.42,132.29,73.12Z"/><path class="cls-9" d="M132.05,72.45c.63.5,1.52-1.25,1.43-3a1.43,1.43,0,0,0-2.58-.56C130.49,69.58,130.9,71.51,132.05,72.45Z"/></g><g id="seed-37" data-name="seed"><path class="cls-8" d="M126.35,48.54c-.82,1-10-5.78-4.59-8.92S130.51,43.3,126.35,48.54Z"/><path class="cls-9" d="M125.45,47.49c1.44.49,1.71-3.29.26-6.42-.76-1.92-4.34-1.81-4.83.77C120.71,43.41,122.8,46.61,125.45,47.49Z"/></g><g id="seed-38" data-name="seed"><path class="cls-8" d="M132,61.89c-.83.45-5.14-6.24-.66-6.85S136.18,59.63,132,61.89Z"/><path class="cls-9" d="M131.66,61c.84.67,2-1.66,1.91-4,0-1.42-2.42-2.27-3.44-.75C129.59,57.18,130.13,59.75,131.66,61Z"/></g><g id="seed-39" data-name="seed"><path class="cls-8" d="M149.6,46.69a20.34,20.34,0,0,0-1.94-1.49s-.06-.08-.08-.14c-6.43,1.07-.08,10.92,1.16,10.25a8.2,8.2,0,0,0,4.11-4.75C151.91,49.16,150.42,48.19,149.6,46.69Z"/><path class="cls-9" d="M149.62,46.71c-.46-.38-.93-.76-1.43-1.1A2.63,2.63,0,0,0,146,46.8c-.81,1.44,0,5.3,2.3,7.16,1.18,1,2.81-2.09,2.85-5.4A8.29,8.29,0,0,1,149.62,46.71Z"/></g><g id="seed-40" data-name="seed"><path class="cls-8" d="M150.45,68.8c-.64.34-4-4.75-.51-5.21S153.69,67.07,150.45,68.8Z"/><path class="cls-9" d="M150.21,68.11c.64.52,1.56-1.26,1.47-3,0-1.08-1.87-1.72-2.66-.57C148.61,65.22,149,67.17,150.21,68.11Z"/></g><g id="seed-41" data-name="seed"><path class="cls-8" d="M153.9,82.89c-.44.24-2.69-3.26-.35-3.58S156.09,81.71,153.9,82.89Z"/><path class="cls-9" d="M153.73,82.42c.44.36,1.06-.86,1-2.1a1,1,0,0,0-1.8-.39A2.47,2.47,0,0,0,153.73,82.42Z"/></g></g></g><g id="small_blueberry" data-name="small blueberry"><path class="cls-10" d="M144.89,162.86c7.64,1.24,24,1.08,29.8-16.75.69-8.76-5.78-18.14-13.21-20.74s-15.72-1.92-21.41,1.88S131,143.36,133.46,151,142.76,162.51,144.89,162.86Z"/><path class="cls-11" d="M171.66,152.62c1.46-26.4-18.34-27.12-27.32-27.47a19.49,19.49,0,0,0-4.27,2.1c-3.64,2.43-6.33,8.32-7.16,14.24.66,2.64,2.62,7.76,2.94,9.45s6.36,7.08,7.16,3.22,3.36-14.61,16.46-13.79c11.26,2.92,11,10,10.11,15A23.66,23.66,0,0,0,171.66,152.62Z"/><path class="cls-12" d="M171.66,152.62a28.67,28.67,0,0,0,3-6.51c.69-8.76-5.78-18.14-13.21-20.74a26.19,26.19,0,0,0-17.14-.22C153.32,125.5,173.12,126.22,171.66,152.62Z"/><path class="cls-13" d="M150.89,160.24c-3.3-.92-9-11.71,3.37-16.2,7.75-1.41,12.83.93,12.16,8.25,2-1.64,2.9-4.54-.08-7.55s-11-6.75-17.83,0S143.79,159.54,150.89,160.24Z"/><path class="cls-12" d="M153.77,155c.91,1.22,1.55,2.29,3.27,1.62s3.2-1.53,3.28-2.51.07-3.21-1.08-3.2-4-1.41-4.69.63A17.16,17.16,0,0,0,153.77,155Z"/><path class="cls-13" d="M137.23,146.85c1.54,2.26,3.38,2.58,5.69-2.79,2.19-3,4.21-5.19,2.59-8.59s-6.74.34-7.7,1.77S135.25,143.94,137.23,146.85Z"/></g><g id="Blueberry"><path class="cls-10" d="M109.31,184.06c9.91,6.78,33,17.32,52.88-3.9,6.74-11.84,3.83-29.28-4.89-37.83s-20.81-13-31.32-11.45-23.36,16.64-24.9,29S106.54,182.17,109.31,184.06Z"/><path class="cls-11" d="M153.65,187.31c19.44-36.11-7.89-50.16-20.28-56.58a30.37,30.37,0,0,0-7.39.15c-6.7,1-14.36,7.52-19.43,15.29-.81,4.13-1.42,12.61-2.09,15.19s4.27,14.14,8,9.24,14.33-18.31,32.18-8.52c13.9,11.52,8.84,21.23,4.29,27.8A37.09,37.09,0,0,0,153.65,187.31Z"/><path class="cls-12" d="M153.65,187.31a44.34,44.34,0,0,0,8.54-7.15c6.74-11.84,3.83-29.28-4.89-37.83a40.79,40.79,0,0,0-23.93-11.6C145.76,137.15,173.09,151.2,153.65,187.31Z"/><path class="cls-14" d="M119.46,184.33c-4-3.47-5-22.38,15.4-20.53,11.82,3.12,17.41,9.76,11.65,19.59,3.81-1,7.05-4.46,4.85-10.64s-11-16.75-25.07-11.68S110,178.67,119.46,184.33Z"/><path class="cls-15" d="M126.93,178.93c.48,2.31.67,4.23,3.53,4.43s5.49,0,6.25-1.36,2.22-4.48.59-5.22-4.72-4.62-7-2.19A27,27,0,0,0,126.93,178.93Z"/><path class="cls-14" d="M109.09,156.53c.68,4.19,3.06,5.85,9.83-.17,5.08-2.83,9.33-4.52,9.3-10.35s-9.69-4-12-2.59S108.22,151.14,109.09,156.53Z"/></g><g id="Raspberry"><path class="cls-16" d="M63.58,138.79c1.87-.54,6.4-1.12,9.76,1.69,1.16,1.68,4,4.23,1.31,6.25s-8,.47-8,.47Z"/><path class="cls-17" d="M79.23,158.31c1.21-2,4.32-9.25-3.44-13.7a2.57,2.57,0,0,1-1.14,2.12c-.36.2.2,6.05.2,6.05Z"/><path class="cls-16" d="M78.86,159.47c2,3.53,2,9.19-2.86,10.78-2.2-.36-3.53-2.66-3.08-3.64a20.61,20.61,0,0,0,.67-4.36Z"/><path class="cls-18" d="M72.92,166.61c1.62,1.82,3,3.13,3.08,3.64s-.74,7.63-7.83,7.44S72.92,166.61,72.92,166.61Z"/><path class="cls-19" d="M36.8,124.69c-1.36-1.59-4.18-4.29-7.22-3.58s-4,1.83-4.43,3.28a2.66,2.66,0,0,0,1.2,3c.57.16,7.14.79,7.14.79Z"/><path class="cls-20" d="M31.62,121.11c1,.38.73,3.72-1.36,4s-3,.83-4.83-1.43C26.72,121.65,29.89,120.45,31.62,121.11Z"/><path class="cls-21" d="M25.06,125.09c-.91-1-6.75-5.48-10.56-2.65s-4.8,4.61-4.59,10A79.52,79.52,0,0,0,19,136.05l3.16.36,2.32-2.83,2.92-6.05Z"/><path class="cls-22" d="M21.62,122.67c1.89,1-.89,5.84-3,6.29s-8.41,1.45-8.76,2.15C9.2,128.58,13.15,118.08,21.62,122.67Z"/><path class="cls-23" d="M18.25,124c.21,1.41-.25,3.12-2.7,4.15s-4,1-4.15-.38,1.83-4.66,4.82-4.65A6,6,0,0,1,18.25,124Z"/><path class="cls-24" d="M34,126.92a14.35,14.35,0,0,1,1.66-1.46h0c.12,1.45,4,3.15,6.71,3.11,2.29,0,3.69-2.31,3.1-3.49a14.24,14.24,0,0,1,3.26,3.1l-1,7.73L40.2,141.5l-4-1.26S27,134.1,34,126.92Z"/><path class="cls-25" d="M42.36,128.58c-2.69,0-6.59-1.66-6.71-3.11h0c3.89-3,7.35-2,9.81-.37C46.05,126.27,44.65,128.55,42.36,128.58Z"/><path class="cls-26" d="M61.79,138.23c.34-3.43-.94-8.76-8.13-9.88s-9.46,3.1-9.18,7.28,7.07,5.68,7.07,5.68l6.19-.56Z"/><path class="cls-27" d="M53,139.78c2.05-2,4.32-6.66,0-8.81a5.59,5.59,0,0,0-8,4.66C45.1,138.47,53,139.78,53,139.78Z"/><path class="cls-28" d="M51.67,132.15c.77.91,1.87,3.77-1.21,3.77a8.17,8.17,0,0,0-3.43-1c-.81-.34-.87-1.53,1.31-3C49.46,131.75,51.33,131.75,51.67,132.15Z"/><path class="cls-26" d="M63.8,152.32c1.79-1.16,6.92-8.27.54-12.82-2.61-1.59-7.93-3.05-10.67,1.4a6.38,6.38,0,0,0,.27,7.72S61.55,153.78,63.8,152.32Z"/><path class="cls-29" d="M60,148.33c1.78-.52,4.36-5.09.22-7.52-4-1.15-5.67,1-5.87,1.3s-1,4.24-1,4.24l.56,1.71,3.77.69Z"/><path class="cls-30" d="M59.36,143.18c.49.7.44,3.85-2.49,2.83-1.21-1-2.24-2.65-1.47-3.61S57.62,140.7,59.36,143.18Z"/><path class="cls-26" d="M74.87,162.54c6.9-1,6.28-18.76-6.7-16.77-1.35,4.32-3.34,6.68-4.37,6.55.14,1.29,3.27,3.24,3.27,3.24Z"/><path class="cls-31" d="M73.8,157c2.74-1,4.23-4.84,0-7.39s-6.15.55-5.15,3.69S73.8,157,73.8,157Z"/><path class="cls-26" d="M61.09,163.33c1.4,0,8.71-7.71-1.08-15-3.32-2.23-5.31-1.32-6.14-1.19a5.55,5.55,0,0,1-3,4.57c1.67,2.32,2.94,6.09,1.67,7.17C55.45,159.14,60.18,162.21,61.09,163.33Z"/><path class="cls-32" d="M53.19,148c2.42-.86,11.72,2.23,6.33,13.66-4.82.8-9.88-3.86-9.88-3.86S49.88,147.64,53.19,148Z"/><path class="cls-33" d="M57.08,151.33c1.61,2.42.55,5.34,0,5.62s-2.92,1-3.89-3.38C53.21,151.17,53.14,149,57.08,151.33Z"/><path class="cls-26" d="M51.05,151.21c2.42-1.66,6.79-9.67-1.63-14.7-4.16-2.49-9.2.8-10.89,3.73s0,8.19,0,8.19S48.31,153.07,51.05,151.21Z"/><path class="cls-25" d="M47.59,149.17c2.52-2.76,3.33-6.74.53-10.26-1.81-1.4-4.46-2.4-6.06-2.06s-6.77,8.07-6.77,8.07l4.55,4.25Z"/><path class="cls-34" d="M42.36,146.1c.34.62.78,2.12,2.9,0a4.71,4.71,0,0,0,.81-5.86c-.75-1.24-5.07-1.43-5.65-.43s0,1.45,1,3.37A7,7,0,0,1,42.36,146.1Z"/><path class="cls-35" d="M61.58,178.25c1.44,2.32-2.81,7.27-10.62,5-1.08-2.44,1.9-6.74,1.9-6.74S57.24,171.29,61.58,178.25Z"/><path class="cls-26" d="M57.18,175.16c2,2.66,13,8.74,15.12-6.63a11.84,11.84,0,0,1-10.72,1.15C56,167.85,57.18,175.16,57.18,175.16Z"/><path class="cls-36" d="M67.65,171.09c1.08,2.24.42,4.09-1.41,5s-4.1.56-4.66-.6,0-4.15,0-5S67.65,171.09,67.65,171.09Z"/><path class="cls-26" d="M61.58,169.23c2.75,1.11,8.81,3,12.55-5s-8.27-12-9.85-11c.75,4.8,1.63,6.82-3.19,10.1A17.38,17.38,0,0,1,61.58,169.23Z"/><path class="cls-31" d="M65.23,156c-.25-2.21,7.57,3.68,4.33,8.66-2.82,3.07-7.09,1.68-8,1s-2.76-.54-.49-2.38S65.71,160.42,65.23,156Z"/><path class="cls-37" d="M67.15,159.14c1.6,1.71,1.25,4.65-.66,5.06s-5,.33-2.91-1.66C65.18,161.65,66.08,158,67.15,159.14Z"/><path class="cls-35" d="M37,183.25c-2.15,3.95-7.85,5.55-13.07.3l2.94-8,8.88-2.94Z"/><path class="cls-38" d="M55,175.92c.08,3.64-4.16,9.37-10.51,9.29s-10.62-4-10.56-8.7,10.77-4.43,10.77-4.43Z"/><path class="cls-25" d="M49.64,176.9c-.42,4.18-10.35,9-14.35,0a39.42,39.42,0,0,1,10.28-5.14Z"/><path class="cls-39" d="M42.91,176.51c1.2,1.1,3.36,4.2-1.48,3.87s-3.83-2.66-2.92-2.9S41.5,175.23,42.91,176.51Z"/><path class="cls-26" d="M52.54,158.88c3.82.34,12.79,4.59,7.31,12.88S46.21,175.64,43.77,173s.8-7.32.8-7.32Z"/><path class="cls-40" d="M52.54,159.47c3,0,6.56,2.32,3.41,10.38-2.83,4.31-9.47,7.37-11.79,1.91s0-8.43,0-8.43Z"/><path class="cls-34" d="M52.54,165.36c1.49.95.75,8-6.06,6.4C43.34,169.2,50.05,163.79,52.54,165.36Z"/><path class="cls-26" d="M44.57,165.71c.45,4-1,9.3-5.64,10.21s-9.28,1.15-13.78-2c-2.52-5.86-2.71-9.08-.51-9.71s5.54-4.83,9.33-3.33S44.32,163.47,44.57,165.71Z"/><path class="cls-41" d="M39.84,165.71c1.24,2.56,1.4,10.53-9.05,10.2-6-1.43-6-3.19-6.78-7.86s6.35-3.85,6.35-3.85,1.19-1.74,2.68-1.66S39.84,165.71,39.84,165.71Z"/><path class="cls-39" d="M35,167.34c.91,2.29-.74,3.35-1.08,4.42s-2.88,3.61-5.56,2.4c-2-.91-4.55-2.9-1.16-5.48,1.49,0,2-1.13,3-1.64S34.52,166.08,35,167.34Z"/><path class="cls-26" d="M41.07,147.59c4.33.23,12.39,2.2,11.39,10.57s-10.53,9-14.57,7.55-5.76-3.09-5.72-5.25S34.74,147.26,41.07,147.59Z"/><path class="cls-20" d="M41.07,148.76c1.26-.5,6.91-1.75,8.57,8.22-1.17,6.64-8.26,8.37-10.32,8.09s-7-1.75-6-9A8,8,0,0,1,41.07,148.76Z"/><path class="cls-42" d="M37,157.06c-1.23,1-3.87,2.67-.5,5.48,2,1.66,5.48.33,5.81-.58s3.07-6.38,0-9C41.07,152.7,38.15,156.12,37,157.06Z"/><path class="cls-43" d="M10.25,176c-.22-1.08-3.64-4.9-6.4-6.64-1.27-.81-.15-1.5,1.42-2l1.19.69,6.21,3.73s4.84,5,2.93,7.17a.61.61,0,0,0-.07.1,2.07,2.07,0,0,1-.52.36c-1.46.64-3.91,2-8.94-.31l-.05,0C8.69,180,10.47,177.06,10.25,176Z"/><path class="cls-20" d="M2.42,165.71l2.85,1.63c-1.57.51-2.69,1.2-1.42,2,2.76,1.74,6.18,5.56,6.4,6.64S8.69,180,6,179.05c-.35-.18-.69-.36-1-.57C-3,172.42.57,168.19,2.42,165.71Z"/><path class="cls-44" d="M1.15,170.51c2.15.12,6.72,2.41,5.39,6.06S-.43,171.76,1.15,170.51Z"/><path class="cls-26" d="M29.88,175.91c.75,3.12-4.24,12.2-13.95,4-3.87-3.24-3.84-8-3.87-9s3.45-5.77,3.45-5.77l8.52.64C24.15,169.35,22.82,174.66,29.88,175.91Z"/><path class="cls-25" d="M23.73,167.27c-.25,2.91.85,6.4,1.42,6.64.32,2.58-1.42,10.05-9.22,6-3.26-2.24-3.92-6.75-3.26-8.13s2.26-5.38,2.26-5.38l4.69-2.18Z"/><path class="cls-39" d="M16.92,167.27c3,1.58,6,7.31,1.11,11.71-2.44.58-5.05-4-4.7-8.59S16.92,167.27,16.92,167.27Z"/><path class="cls-26" d="M7.42,150c-2.7,1.52-9.09,7.83-3.57,18.54,2.69,2.9,7,3.82,8.21,2.9s4.86-4.15,4.86-4.15l1.91-8.05L15.36,153Z"/><path class="cls-25" d="M2.88,166.38c.75,2.29,6.71,2.82,9.18-2.35.46-4.4,1.11-10,0-12.29A3.5,3.5,0,0,0,7.42,150C5.93,151-.95,154.61,2.88,166.38Z"/><path class="cls-39" d="M8,152.7c2.21,2.62,1.49,7.27,1,8.84S6.71,165.61,6,165.69s-2.66-.24-3.24-3S1.73,151.4,8,152.7Z"/><path class="cls-21" d="M37.54,140c2.3-2.65,3.38-7.38.8-10.54s-8-2.9-9.29-2.57-7.64,1.66-8.14,7.64a7.08,7.08,0,0,0,4.81,7.55H35.6Z"/><path class="cls-20" d="M29.05,126.92c4,0,7.55,1.83,8,7-.75,3.22-2,5-3.24,5s-8.59,2-10.15,1.12-2.8-3.81-2.72-5.47S21.74,128.5,29.05,126.92Z"/><path class="cls-42" d="M31,128.25c2.07,1.16,2.57,5.31-1.16,7.64s-4.74,2.53-6.49,1.74-3-4.32,1.76-7.89A8.62,8.62,0,0,1,31,128.25Z"/><path class="cls-21" d="M24.81,142.75c2.31,6.34-7.52,14.51-14.33,9.95S.14,137.14,9.73,132.78C16,129.92,22,135.14,24.81,142.75Z"/><path class="cls-20" d="M19.62,140.5a11.64,11.64,0,0,1-6.85,11.21,11,11,0,0,1-8-13.25C5.59,132.07,17.79,126.67,19.62,140.5Z"/><path class="cls-42" d="M15.06,145.6c-2.49,2.93-5.61,3.1-7.85.92-2-5.28-1.48-9.52,1-11.63S18.54,133.15,15.06,145.6Z"/><path class="cls-26" d="M30.31,151.83c4.5,3.56,3.49,13.7-3.48,15.19s-17.25-3.86-11.47-14C18.17,148.05,23.09,146.1,30.31,151.83Z"/><path class="cls-20" d="M24.77,152.08c3.11,2,5.25,3.86,3,10.34-5.15,7.22-12.24,2.71-12.42,1s-4.41-5.07,3.18-13.26C21.89,148.14,24.77,152.08,24.77,152.08Z"/><path class="cls-42" d="M21.36,158c.38,3.11.59,8.38-2.8,6.81s-4.36-3.87-4-6.47C15.36,153,21.36,149.09,21.36,158Z"/><path class="cls-26" d="M38.34,140.62c4.5,3.56,3.49,13.7-3.48,15.19s-14.95-4.73-12.71-10S31.12,134.89,38.34,140.62Z"/><path class="cls-20" d="M32.5,138.91c3.12,2,7,5.45,4.72,11.92-3.86,7.35-11.33,2.62-12.45,1.25s-4.77-6.5,1.16-11.35A12.94,12.94,0,0,1,32.5,138.91Z"/><path class="cls-42" d="M30.87,140.87c0,2.37-.25,5.11,1.25,7.1.37,3.11-1.35,6.17-4.74,4.61s-4.11-3.85-4-6.48,4.73-6.72,6.1-6Z"/></g></g></g></g></svg>