<svg xmlns="http://www.w3.org/2000/svg" viewBox="0 0 120.6 115.85"><defs><style>.cls-1{fill:#8ebd22;}.cls-2{fill:#8abd00;}.cls-3{fill:#438b2c;}.cls-4{fill:#548c2e;}.cls-5{fill:#d50029;}.cls-6{fill:#f01141;}.cls-7{fill:#ff3e56;}.cls-8{fill:#c00001;}.cls-9{fill:#ff682a;}.cls-10{fill:#c40c38;}.cls-10,.cls-15,.cls-20{stroke:#bf0008;stroke-miterlimit:10;}.cls-10,.cls-20{stroke-width:0.26px;}.cls-11{fill:#c9001f;}.cls-12{fill:#af043d;}.cls-13{fill:#c10024;}.cls-14{fill:#fb0030;}.cls-15,.cls-20{fill:#d20029;}.cls-15{stroke-width:0.3px;}.cls-16{fill:#e7002f;}.cls-17{fill:#ff527c;}.cls-18{fill:#c20024;}.cls-19{fill:#fe002e;}.cls-21{fill:#f7001f;}.cls-22{fill:#ff2f68;}.cls-23{fill:#f10023;}.cls-24{fill:#ff3769;}.cls-25{fill:#e20016;}.cls-26{fill:#f5001e;}.cls-27{fill:#ff3767;}.cls-28{fill:#ff3168;}.cls-29{fill:#bc1d4a;}.cls-30{fill:#e40019;}.cls-31{fill:#ff316b;}.cls-32{fill:#c50029;}.cls-33{fill:#ff486d;}.cls-34{fill:#f3001e;}.cls-35{fill:#fd0034;}.cls-36{fill:#ff4c71;}.cls-37{fill:#c60029;}.cls-38{fill:#ff3368;}.cls-39{fill:#bf844d;}.cls-40{fill:#a1694a;}.cls-41{fill:#ebcea2;opacity:0.21;}.cls-42{fill:#3e5072;}.cls-43{fill:#3f4269;}.cls-44{fill:#282a4e;}.cls-45{fill:#6179aa;opacity:0.48;}.cls-46{fill:#332f48;}</style></defs><title>fruuit-nut-icon</title><g id="Layer_2" data-name="Layer 2"><g id="Step_Three" data-name="Step Three"><g id="Strawberry"><g id="Leaf"><path class="cls-1" d="M55.35,19c-.85-1.51-.75-3.92-.35-5.66a37,37,0,0,0-8.65-7.95C46,9.72,48.14,16.91,55.35,19Z"/><path class="cls-2" d="M81.38,4.26c.76,6.34-6.9,15.08-9.75,14.48.57-1.12.18-3.28-.42-4.78.4-.92-4-10.08-5.52-14-1.8,3.81-.7,5.53-.54,6.65s.36,6.34-1.34,9.48c-1.41,2.54-1.8,6.75-.48,7.71.63.45-1.59.9-4.08,1.23l5.47,1.16s11.42-3.45,13-6.81C82.6,16.06,84.28,5.3,81.38,4.26Z"/><path class="cls-3" d="M63.33,23.84c-1.32-1-.93-5.17.48-7.71,1.7-3.14,1.51-8.36,1.34-9.48S63.89,3.81,65.69,0c-.67,1.27-9,11.35-10.34,13.89a5.59,5.59,0,0,0-.35-.58c-.4,1.74-.5,4.15.35,5.66-7.21-2.06-9.39-9.25-9-13.61a3.41,3.41,0,0,0-.94-.43C43.72,10.6,46.35,16.8,50,20l1.09,3.33,8.2,1.73C61.74,24.74,64,24.29,63.33,23.84Z"/><path class="cls-4" d="M71.63,18.74c2.85.6,10.51-8.14,9.75-14.48-2,1.27-8.67,7.84-10.17,9.7C71.81,15.46,72.2,17.62,71.63,18.74Z"/></g><g id="Strawberry-2" data-name="Strawberry"><path class="cls-5" d="M50,20c3.58,2.59,16.53,6.58,27.88,0,13.74,1.2,30.07,24.3,17.92,43.22C90,71.39,78.23,82,76.24,84.14S66.09,97.68,57.72,92.7c-3.38,0-5-.8-6.37-1.79s-23.3-35-23.3-37.64-3-12.55,6.37-23.1C44.18,21.41,50,20,50,20Z"/><path class="cls-5" d="M50,20c3.58,2.59,16.53,6.58,27.88,0,13.74,1.2,30.07,24.3,17.92,43.22C90,71.39,78.23,82,76.24,84.14S66.09,97.68,57.72,92.7c-3.38,0-5-.8-6.37-1.79s-23.3-35-23.3-37.64-3-12.55,6.37-23.1C44.18,21.41,50,20,50,20Z"/><path class="cls-5" d="M77.84,20C66.49,26.59,53.54,22.6,50,20A21.78,21.78,0,0,0,44.8,22.4c5.86.88,15.55,1.63,20.69,7.77,6.17,7.37,19.32,17.52,5.77,40C62.5,83.34,56.33,86.53,53.94,85.33c-1.7-.85-8-5.43-12.26-8.72,4.76,7.44,9.08,13.87,9.67,14.3,1.39,1,3,1.79,6.37,1.79,8.37,5,16.53-6.37,18.52-8.56S90,71.39,95.76,63.23C107.91,44.31,91.58,21.21,77.84,20Z"/><path class="cls-5" d="M77.84,20C66.49,26.59,53.54,22.6,50,20A21.78,21.78,0,0,0,44.8,22.4c5.86.88,15.55,1.63,20.69,7.77,6.17,7.37,19.32,17.52,5.77,40C62.5,83.34,56.33,86.53,53.94,85.33c-1.7-.85-8-5.43-12.26-8.72,4.76,7.44,9.08,13.87,9.67,14.3,1.39,1,3,1.79,6.37,1.79,8.37,5,16.53-6.37,18.52-8.56S90,71.39,95.76,63.23C107.91,44.31,91.58,21.21,77.84,20Z"/><path class="cls-6" d="M71.26,70.2c13.55-22.51.4-32.66-5.77-40C60.35,24,50.66,23.28,44.8,22.4a63.8,63.8,0,0,0-10.38,7.77c-9.36,10.55-6.37,20.51-6.37,23.1,0,1.49,7.21,13.33,13.63,23.34,4.23,3.29,10.56,7.87,12.26,8.72C56.33,86.53,62.5,83.34,71.26,70.2Z"/><path class="cls-6" d="M71.26,70.2c13.55-22.51.4-32.66-5.77-40C60.35,24,50.66,23.28,44.8,22.4a63.8,63.8,0,0,0-10.38,7.77c-9.36,10.55-6.37,20.51-6.37,23.1,0,1.49,7.21,13.33,13.63,23.34,4.23,3.29,10.56,7.87,12.26,8.72C56.33,86.53,62.5,83.34,71.26,70.2Z"/><path class="cls-7" d="M46.67,28.48c4.59,1,8.76,8,2.39,19.41-.5,6-3,14.54-1.89,17.63-2.49,2.19-12-3.69-13.34-9.26S30.54,40.72,35.42,34C38.11,30.67,42.49,27.58,46.67,28.48Z"/><path class="cls-7" d="M46.67,28.48c4.59,1,8.76,8,2.39,19.41-.5,6-3,14.54-1.89,17.63-2.49,2.19-12-3.69-13.34-9.26S30.54,40.72,35.42,34C38.11,30.67,42.49,27.58,46.67,28.48Z"/></g><g id="seeds"><g id="seed"><path class="cls-8" d="M71.76,60.64c-.74.4-4.63-5.63-.6-6.18S75.55,58.6,71.76,60.64Z"/><path class="cls-9" d="M71.48,59.83c.75.61,1.83-1.49,1.71-3.62,0-1.28-2.17-2-3.1-.68C69.61,56.39,70.09,58.71,71.48,59.83Z"/></g><g id="seed-2" data-name="seed"><path class="cls-8" d="M74,50c-.65.35-4-4.86-.52-5.33S77.23,48.25,74,50Z"/><path class="cls-9" d="M73.71,49.31c.65.53,1.58-1.29,1.49-3.13a1.49,1.49,0,0,0-2.68-.58C72.1,46.35,72.52,48.35,73.71,49.31Z"/></g><g id="seed-3" data-name="seed"><path class="cls-8" d="M57.41,49.85c-.77.29-3.42-6.43.48-6.35S61.33,48.37,57.41,49.85Z"/><path class="cls-9" d="M57.28,49c.61.73,2-1.23,2.23-3.41a1.62,1.62,0,0,0-2.81-1.17C56.09,45.21,56.16,47.63,57.28,49Z"/></g><g id="seed-4" data-name="seed"><path class="cls-8" d="M61.61,39c-.65.41-4-5.79-.52-6.36S64.88,36.86,61.61,39Z"/><path class="cls-9" d="M61.36,38.13c.65.62,1.58-1.54,1.48-3.73a1.43,1.43,0,0,0-2.68-.69A4.92,4.92,0,0,0,61.36,38.13Z"/></g><g id="seed-5" data-name="seed"><path class="cls-8" d="M63.57,51.57c-.45.24-2.78-3.38-.36-3.71S65.84,50.34,63.57,51.57Z"/><path class="cls-9" d="M63.4,51.08c.45.37,1.1-.9,1-2.17a1,1,0,0,0-1.86-.41A2.55,2.55,0,0,0,63.4,51.08Z"/></g><g id="seed-6" data-name="seed"><path class="cls-8" d="M63.46,45.27c-.48.25-3-3.61-.38-4S65.89,44,63.46,45.27Z"/><path class="cls-9" d="M63.28,44.75c.48.39,1.17-1,1.1-2.33a1.11,1.11,0,0,0-2-.43A2.74,2.74,0,0,0,63.28,44.75Z"/></g><g id="seed-7" data-name="seed"><path class="cls-8" d="M61.21,64.36c-.53.21-1.94-5,.68-4.93S63.93,63.27,61.21,64.36Z"/><path class="cls-9" d="M61.17,63.68c.37.59,1.4-.92,1.7-2.61a1.06,1.06,0,0,0-1.83-1A4,4,0,0,0,61.17,63.68Z"/></g><g id="seed-8" data-name="seed"><path class="cls-8" d="M55.54,73.27c-.42.26-2.6-3.61-.33-4S57.67,72,55.54,73.27Z"/><path class="cls-9" d="M55.38,72.75c.42.39,1-1,1-2.32A.94.94,0,0,0,54.61,70,3,3,0,0,0,55.38,72.75Z"/></g><g id="seed-9" data-name="seed"><path class="cls-8" d="M52.5,62.21c-.48.33-3-4.71-.38-5.17S54.93,60.5,52.5,62.21Z"/><path class="cls-9" d="M52.32,61.53c.48.51,1.17-1.25,1.1-3a1.05,1.05,0,0,0-2-.56A4.27,4.27,0,0,0,52.32,61.53Z"/></g><g id="seed-10" data-name="seed"><path class="cls-8" d="M49.12,51.94c-.26.13-1.42-2.14,0-2.23S50.46,51.3,49.12,51.94Z"/><path class="cls-9" d="M49.05,51.65c.24.24.66-.5.68-1.26a.58.58,0,0,0-1-.32A1.59,1.59,0,0,0,49.05,51.65Z"/></g><g id="seed-11" data-name="seed"><path class="cls-8" d="M71.79,39.71c-.57.31-3.54-4.3-.46-4.72S74.69,38.15,71.79,39.71Z"/><path class="cls-9" d="M71.57,39.09c.58.47,1.4-1.14,1.32-2.77a1.33,1.33,0,0,0-2.38-.51A3.24,3.24,0,0,0,71.57,39.09Z"/></g><g id="seed-12" data-name="seed"><path class="cls-8" d="M52,40.22c-.59.32-3.7-4.49-.47-4.93S55.07,38.59,52,40.22Z"/><path class="cls-9" d="M51.81,39.58c.61.48,1.47-1.2,1.38-2.9a1.38,1.38,0,0,0-2.48-.54A3.41,3.41,0,0,0,51.81,39.58Z"/></g><g id="seed-13" data-name="seed"><path class="cls-8" d="M44.32,46.23c-.78.25-2.87-6.83,1-6.52S48.29,44.94,44.32,46.23Z"/><path class="cls-9" d="M44.25,45.33c.54.79,2-1.15,2.47-3.38A1.58,1.58,0,0,0,44,40.58C43.39,41.37,43.26,43.87,44.25,45.33Z"/></g><g id="seed-14" data-name="seed"><path class="cls-8" d="M44,35c-.6.33-3.7-4.49-.48-4.93S47,33.4,44,35Z"/><path class="cls-9" d="M43.75,34.39c.6.49,1.46-1.19,1.37-2.89A1.37,1.37,0,0,0,42.65,31C42.26,31.64,42.65,33.49,43.75,34.39Z"/></g><g id="seed-15" data-name="seed"><path class="cls-8" d="M35.26,40.09c-.46.25-2.82-3.42-.37-3.75S37.56,38.85,35.26,40.09Z"/><path class="cls-9" d="M35.08,39.6c.46.37,1.11-.91,1.05-2.2A1.05,1.05,0,0,0,34.24,37,2.59,2.59,0,0,0,35.08,39.6Z"/></g><g id="seed-16" data-name="seed"><path class="cls-8" d="M34.63,50.46c-.63.32-3.92-4.48-.51-4.92S37.83,48.83,34.63,50.46Z"/><path class="cls-9" d="M34.39,49.81c.63.49,1.54-1.19,1.45-2.88,0-1-1.84-1.62-2.62-.53C32.81,47.08,33.22,48.92,34.39,49.81Z"/></g><g id="seed-17" data-name="seed"><path class="cls-8" d="M31.35,58.58a1.7,1.7,0,0,0-.7.25c.4.71.94,1.34,1.27,2.08a2.76,2.76,0,0,1,.16.54c.24.29.48.56.7.84l.13.06C34.49,60.66,33.91,58.23,31.35,58.58Z"/></g><g id="seed-18" data-name="seed"><path class="cls-8" d="M41.26,74.93c-.3.16-1.84-2.24-.24-2.46S42.76,74.12,41.26,74.93Z"/><path class="cls-9" d="M41.14,74.6c.3.25.73-.59.68-1.43a.68.68,0,0,0-1.23-.27A1.68,1.68,0,0,0,41.14,74.6Z"/></g><g id="seed-19" data-name="seed"><path class="cls-8" d="M78.81,53.84c-.33.18-2-2.44-.26-2.68S80.45,53,78.81,53.84Z"/><path class="cls-9" d="M78.68,53.49c.33.27.8-.65.75-1.57a.75.75,0,0,0-1.35-.29A1.84,1.84,0,0,0,78.68,53.49Z"/></g><g id="seed-20" data-name="seed"><path class="cls-8" d="M58.86,27.92c-.5-.15,2.89-3.84,3.48-1.43C62.67,27.78,61.92,28.87,58.86,27.92Z"/><path class="cls-9" d="M59.28,27.61c-.23.55,1.21.39,2.43-.05.74-.22.78-1.21-.18-1.51A2.59,2.59,0,0,0,59.28,27.61Z"/></g><g id="seed-21" data-name="seed"><path class="cls-8" d="M53.73,27.52c-.4.13-.61-3.89,1.25-2.59C56,25.64,56.21,26.71,53.73,27.52Z"/><path class="cls-9" d="M53.79,27.12c.21.46,1-.32,1.47-1.18.32-.5-.27-1.17-1-.91A1.77,1.77,0,0,0,53.79,27.12Z"/></g><g id="seed-22" data-name="seed"><path class="cls-8" d="M42.93,58.72c-.75.4-4.63-5.63-.6-6.18S46.71,56.67,42.93,58.72Z"/><path class="cls-9" d="M42.64,57.91c.75.61,1.83-1.5,1.72-3.63,0-1.27-2.18-2-3.1-.67C40.77,54.47,41.26,56.79,42.64,57.91Z"/></g><g id="seed-23" data-name="seed"><path class="cls-8" d="M44,67.66c-.53.28-3.31-4-.43-4.41S46.69,66.2,44,67.66Z"/><path class="cls-9" d="M43.78,67.08c.54.43,1.31-1.07,1.23-2.59A1.23,1.23,0,0,0,42.8,64,3,3,0,0,0,43.78,67.08Z"/></g><g id="seed-24" data-name="seed"><path class="cls-8" d="M49.61,73.37c-.75.4-4.63-5.62-.6-6.17S53.39,71.33,49.61,73.37Z"/><path class="cls-9" d="M49.32,72.56c.75.61,1.83-1.49,1.72-3.62,0-1.27-2.18-2-3.1-.67C47.45,69.13,47.94,71.44,49.32,72.56Z"/></g><g id="seed-25" data-name="seed"><path class="cls-8" d="M53.51,86.53c-.52.33-3.23-4.69-.42-5.14S56.14,84.83,53.51,86.53Z"/><path class="cls-9" d="M53.31,85.86c.52.5,1.27-1.25,1.19-3a1.15,1.15,0,0,0-2.15-.56A4,4,0,0,0,53.31,85.86Z"/></g><g id="seed-26" data-name="seed"><path class="cls-8" d="M63.52,82.29c-.75.41-4.63-5.62-.6-6.17S67.3,80.25,63.52,82.29Z"/><path class="cls-9" d="M63.23,81.49C64,82.1,65.06,80,65,77.86c0-1.27-2.18-2-3.1-.67C61.37,78.05,61.85,80.37,63.23,81.49Z"/></g><g id="seed-27" data-name="seed"><path class="cls-8" d="M73.37,69.64c-.5.27-3.12-3.8-.4-4.17S75.92,68.26,73.37,69.64Z"/><path class="cls-9" d="M73.18,69.09c.51.41,1.23-1,1.16-2.44a1.16,1.16,0,0,0-2.09-.46A2.87,2.87,0,0,0,73.18,69.09Z"/></g><g id="seed-28" data-name="seed"><path class="cls-8" d="M70.33,75.2c-.29.16-1.78-2.15-.23-2.36S71.78,74.42,70.33,75.2Z"/><path class="cls-9" d="M70.22,74.89c.29.24.7-.57.66-1.39a.66.66,0,0,0-1.19-.25A1.61,1.61,0,0,0,70.22,74.89Z"/></g><g id="seed-29" data-name="seed"><path class="cls-8" d="M78.74,73.89c-.75.4-4.63-5.63-.6-6.18S82.52,71.85,78.74,73.89Z"/><path class="cls-9" d="M78.45,73.08c.76.61,1.83-1.5,1.72-3.62,0-1.28-2.18-2-3.1-.68C76.59,69.64,77.07,72,78.45,73.08Z"/></g><g id="seed-30" data-name="seed"><path class="cls-8" d="M70.65,85c-.66-.29,1.1-6,3.62-3.58S74,86.44,70.65,85Z"/><path class="cls-9" d="M71,84.37c0,.82,1.94.45,3.23-.73.82-.65.14-2.5-1.23-2.4C72.2,81.36,71,82.88,71,84.37Z"/></g><g id="seed-31" data-name="seed"><path class="cls-8" d="M64.92,90.67c-.53.29-3.3-4-.43-4.4S67.62,89.21,64.92,90.67Z"/><path class="cls-9" d="M64.72,90.09c.53.44,1.3-1.06,1.22-2.58A1.23,1.23,0,0,0,63.73,87,3,3,0,0,0,64.72,90.09Z"/></g><g id="seed-32" data-name="seed"><path class="cls-8" d="M81.89,63.09c-.53.29-3.3-4-.42-4.4S84.59,61.64,81.89,63.09Z"/><path class="cls-9" d="M81.69,62.52c.53.43,1.3-1.07,1.22-2.59a1.23,1.23,0,0,0-2.21-.48A3,3,0,0,0,81.69,62.52Z"/></g><g id="seed-33" data-name="seed"><path class="cls-8" d="M88.7,58.86c-.53.28-3.31-4-.43-4.41S91.4,57.4,88.7,58.86Z"/><path class="cls-9" d="M88.49,58.28c.54.43,1.31-1.07,1.23-2.58a1.23,1.23,0,0,0-2.21-.48A3,3,0,0,0,88.49,58.28Z"/></g><g id="seed-34" data-name="seed"><path class="cls-8" d="M86.89,68.79c-.33.17-2-2.51-.2-2.71S88.57,67.93,86.89,68.79Z"/><path class="cls-9" d="M86.78,68.44c.32.27.81-.64.78-1.58a.75.75,0,0,0-1.35-.32A1.87,1.87,0,0,0,86.78,68.44Z"/></g><g id="seed-35" data-name="seed"><path class="cls-8" d="M87.26,51.73c-.75.38-4.63-5.35-.6-5.87S91,49.79,87.26,51.73Z"/><path class="cls-9" d="M87,51c.75.58,1.83-1.42,1.72-3.44,0-1.21-2.18-1.94-3.1-.64C85.1,47.69,85.59,49.89,87,51Z"/></g><g id="seed-36" data-name="seed"><path class="cls-8" d="M81.32,43.84C81,44.05,79,41,81,40.76S83.21,42.82,81.32,43.84Z"/><path class="cls-9" d="M81.18,43.44c.38.3.91-.75.86-1.81a.86.86,0,0,0-1.55-.34A2.14,2.14,0,0,0,81.18,43.44Z"/></g><g id="seed-37" data-name="seed"><path class="cls-8" d="M77.76,29.11c-.49.62-6-3.47-2.75-5.35S80.26,26,77.76,29.11Z"/><path class="cls-9" d="M77.22,28.48c.87.29,1-2,.16-3.85a1.57,1.57,0,0,0-2.9.46C74.38,26,75.64,28,77.22,28.48Z"/></g><g id="seed-38" data-name="seed"><path class="cls-8" d="M81.14,37.11c-.5.27-3.08-3.74-.4-4.11S83.66,35.75,81.14,37.11Z"/><path class="cls-9" d="M81,36.57c.5.41,1.22-1,1.14-2.41A1.15,1.15,0,0,0,80,33.72,2.82,2.82,0,0,0,81,36.57Z"/></g><g id="seed-39" data-name="seed"><path class="cls-8" d="M91.7,28a12.62,12.62,0,0,0-1.16-.88.19.19,0,0,1-.05-.09c-3.85.64,0,6.55.7,6.15a5,5,0,0,0,2.46-2.85C93.09,29.48,92.2,28.9,91.7,28Z"/><path class="cls-9" d="M91.71,28c-.27-.23-.56-.45-.85-.66a1.61,1.61,0,0,0-1.34.71c-.49.86,0,3.18,1.38,4.3.71.57,1.68-1.25,1.71-3.24A5.34,5.34,0,0,1,91.71,28Z"/></g><g id="seed-40" data-name="seed"><path class="cls-8" d="M92.21,41.25c-.38.21-2.38-2.84-.3-3.12S94.16,40.22,92.21,41.25Z"/><path class="cls-9" d="M92.07,40.84c.38.31.94-.75.88-1.83a.89.89,0,0,0-1.59-.34A2.12,2.12,0,0,0,92.07,40.84Z"/></g><g id="seed-41" data-name="seed"><path class="cls-8" d="M94.28,49.7c-.26.14-1.61-2-.21-2.14S95.6,49,94.28,49.7Z"/><path class="cls-9" d="M94.18,49.42c.26.21.64-.52.6-1.26a.6.6,0,0,0-1.08-.23A1.47,1.47,0,0,0,94.18,49.42Z"/></g></g></g><g id="Raspberry"><path class="cls-10" d="M32.62,78.39a5.68,5.68,0,0,1,5,.86c.59.86,2.06,2.17.67,3.21s-4.12.24-4.12.24Z"/><path class="cls-11" d="M40.65,88.4c.62-1,2.22-4.75-1.76-7a1.35,1.35,0,0,1-.59,1.09,17.54,17.54,0,0,0,.1,3.1Z"/><path class="cls-10" d="M40.46,89c1,1.81,1,4.72-1.47,5.53-1.13-.18-1.81-1.36-1.57-1.86a10.92,10.92,0,0,0,.34-2.24Z"/><path class="cls-12" d="M37.42,92.66A9.54,9.54,0,0,1,39,94.52c0,.27-.38,3.92-4,3.82S37.42,92.66,37.42,92.66Z"/><path class="cls-13" d="M18.88,71.15c-.7-.81-2.15-2.2-3.7-1.84s-2.06.94-2.28,1.69a1.37,1.37,0,0,0,.62,1.53c.29.08,3.66.41,3.66.41Z"/><path class="cls-14" d="M16.22,69.31c.51.2.38,1.91-.69,2s-1.57.43-2.48-.73A3.15,3.15,0,0,1,16.22,69.31Z"/><path class="cls-15" d="M12.86,71.35c-.47-.53-3.47-2.8-5.42-1.36S5,72.36,5.08,75.11A40.89,40.89,0,0,0,9.75,77l1.62.18,1.19-1.45,1.5-3.1Z"/><path class="cls-16" d="M11.09,70.12c1,.48-.45,3-1.53,3.22s-4.31.74-4.49,1.11C4.72,73.15,6.74,67.76,11.09,70.12Z"/><path class="cls-17" d="M9.36,70.8A1.92,1.92,0,0,1,8,72.94c-1.26.53-2.07.5-2.13-.2a2.71,2.71,0,0,1,2.47-2.39A3.28,3.28,0,0,1,9.36,70.8Z"/><path class="cls-18" d="M17.44,72.29a9.33,9.33,0,0,1,.85-.75h0c.06.74,2.06,1.62,3.44,1.6,1.18,0,1.9-1.19,1.6-1.8A7.6,7.6,0,0,1,25,73l-.53,4-3.85,2.86-2-.64S13.86,76,17.44,72.29Z"/><path class="cls-19" d="M21.73,73.15c-1.38,0-3.38-.86-3.44-1.6h0a4,4,0,0,1,5-.19C23.63,72,22.91,73.13,21.73,73.15Z"/><path class="cls-20" d="M31.7,78.1c.18-1.76-.48-4.5-4.17-5.07s-4.85,1.59-4.71,3.73,3.63,2.91,3.63,2.91l3.18-.28Z"/><path class="cls-21" d="M27.21,78.89c1.06-1,2.22-3.42,0-4.52a2.87,2.87,0,0,0-4.12,2.39C23.14,78.22,27.21,78.89,27.21,78.89Z"/><path class="cls-22" d="M26.51,75c.4.46,1,1.93-.62,1.93a4.17,4.17,0,0,0-1.76-.51c-.42-.18-.45-.79.67-1.57C25.38,74.77,26.33,74.77,26.51,75Z"/><path class="cls-20" d="M32.74,85.33c.91-.6,3.55-4.25.27-6.58-1.34-.82-4.07-1.57-5.48.72a3.29,3.29,0,0,0,.15,4S31.58,86.07,32.74,85.33Z"/><path class="cls-23" d="M30.79,83.28a2.17,2.17,0,0,0,.11-3.86,2.61,2.61,0,0,0-3,.67c-.1.13-.5,2.17-.5,2.17l.29.88,1.93.35Z"/><path class="cls-24" d="M30.46,80.64c.25.36.22,2-1.28,1.45-.63-.53-1.15-1.36-.75-1.86S29.56,79.37,30.46,80.64Z"/><path class="cls-20" d="M38.42,90.57C42,90.07,41.63,80.94,35,82c-.7,2.22-1.72,3.43-2.24,3.37C32.81,86,34.41,87,34.41,87Z"/><path class="cls-25" d="M37.86,87.7c1.41-.5,2.18-2.48,0-3.79s-3.15.28-2.64,1.89S37.86,87.7,37.86,87.7Z"/><path class="cls-20" d="M31.35,91c.71,0,4.46-4-.56-7.7a3.38,3.38,0,0,0-3.15-.61A2.84,2.84,0,0,1,26.1,85c.86,1.19,1.51,3.13.86,3.68A9.45,9.45,0,0,1,31.35,91Z"/><path class="cls-26" d="M27.29,83.11c1.24-.44,6,1.14,3.25,7-2.47.41-5.07-2-5.07-2S25.59,82.92,27.29,83.11Z"/><path class="cls-27" d="M29.28,84.82a2.51,2.51,0,0,1,0,2.88c-.28.14-1.49.53-2-1.73C27.3,84.73,27.26,83.62,29.28,84.82Z"/><path class="cls-20" d="M26.19,84.75a4.48,4.48,0,0,0-.83-7.54c-2.14-1.27-4.73.42-5.59,1.92s0,4.2,0,4.2S24.78,85.71,26.19,84.75Z"/><path class="cls-19" d="M24.42,83.71a3.89,3.89,0,0,0,.27-5.27,4.56,4.56,0,0,0-3.11-1c-.82.18-3.47,4.14-3.47,4.14l2.33,2.18Z"/><path class="cls-28" d="M21.73,82.13c.18.32.4,1.09,1.49,0a2.4,2.4,0,0,0,.42-3c-.39-.64-2.6-.73-2.9-.22s0,.74.52,1.73A3.5,3.5,0,0,1,21.73,82.13Z"/><path class="cls-29" d="M31.59,98.63c.74,1.19-1.44,3.73-5.44,2.56-.56-1.25,1-3.45,1-3.45S29.37,95.06,31.59,98.63Z"/><path class="cls-20" d="M29.33,97c1,1.37,6.66,4.49,7.77-3.4a6.09,6.09,0,0,1-5.51.59C28.75,93.3,29.33,97,29.33,97Z"/><path class="cls-30" d="M34.71,95A1.76,1.76,0,0,1,34,97.52c-.94.46-2.11.29-2.4-.31a7.51,7.51,0,0,1,0-2.55C31.59,94.23,34.71,95,34.71,95Z"/><path class="cls-20" d="M31.59,94c1.42.57,4.53,1.55,6.44-2.58S33.79,85.29,33,85.79c.39,2.46.84,3.5-1.63,5.19A8.86,8.86,0,0,1,31.59,94Z"/><path class="cls-25" d="M33.47,87.23c-.13-1.13,3.88,1.89,2.22,4.45a3.4,3.4,0,0,1-4.1.51c-.46-.34-1.41-.27-.24-1.21S33.71,89.48,33.47,87.23Z"/><path class="cls-31" d="M34.45,88.82c.82.88.64,2.39-.34,2.6s-2.55.17-1.49-.85C33.44,90.11,33.9,88.23,34.45,88.82Z"/><path class="cls-29" d="M19,101.19c-1.1,2-4,2.85-6.7.16l1.5-4.09,4.56-1.51Z"/><path class="cls-32" d="M28.19,97.43c0,1.87-2.13,4.81-5.39,4.77s-5.45-2-5.42-4.46,5.53-2.28,5.53-2.28Z"/><path class="cls-19" d="M25.47,97.94c-.22,2.14-5.31,4.64-7.36,0a20,20,0,0,1,5.27-2.64Z"/><path class="cls-33" d="M22,97.74c.61.56,1.72,2.15-.76,2s-2-1.36-1.5-1.49S21.29,97.08,22,97.74Z"/><path class="cls-20" d="M27,88.69c2,.18,6.56,2.36,3.75,6.61s-7,2-8.25.65.41-3.76.41-3.76Z"/><path class="cls-34" d="M27,89c1.53,0,3.36,1.2,1.74,5.33-1.44,2.21-4.85,3.78-6,1s0-4.32,0-4.32Z"/><path class="cls-28" d="M27,92c.76.48.38,4.1-3.11,3.28C22.24,94,25.68,91.21,27,92Z"/><path class="cls-20" d="M22.87,92.19c.23,2-.51,4.78-2.9,5.24s-4.76.59-7.07-1c-1.29-3-1.39-4.67-.26-5s2.84-2.48,4.79-1.71S22.74,91.05,22.87,92.19Z"/><path class="cls-35" d="M20.44,92.19c.64,1.32.72,5.41-4.64,5.24-3.07-.73-3.08-1.64-3.48-4s3.25-2,3.25-2,.61-.89,1.38-.85A17.12,17.12,0,0,1,20.44,92.19Z"/><path class="cls-33" d="M18,93c.46,1.18-.38,1.72-.55,2.27a2.33,2.33,0,0,1-2.86,1.23c-1-.47-2.34-1.49-.59-2.81.76,0,1-.58,1.56-.84S17.71,92.38,18,93Z"/><path class="cls-20" d="M21.07,82.9c2.22.12,6.36,1.13,5.84,5.42s-5.4,4.6-7.47,3.87-3-1.58-2.94-2.69S17.82,82.73,21.07,82.9Z"/><path class="cls-14" d="M21.07,83.5c.65-.26,3.54-.9,4.4,4.22-.6,3.4-4.24,4.29-5.3,4.15s-3.56-.9-3.05-4.64A4.08,4.08,0,0,1,21.07,83.5Z"/><path class="cls-36" d="M19,87.76c-.63.52-2,1.37-.25,2.81a2.35,2.35,0,0,0,3-.3c.17-.47,1.57-3.27,0-4.6C21.07,85.52,19.57,87.28,19,87.76Z"/><path class="cls-37" d="M5.26,97.47A10.53,10.53,0,0,0,2,94.06c-.66-.41-.08-.76.72-1l.62.35L6.5,95.3S9,97.89,8,99l0,0a1.43,1.43,0,0,1-.27.19c-.75.32-2,1-4.59-.17h0A1.69,1.69,0,0,0,5.26,97.47Z"/><path class="cls-14" d="M1.24,92.19,2.7,93c-.8.27-1.38.62-.72,1a10.53,10.53,0,0,1,3.28,3.41A1.69,1.69,0,0,1,3.09,99c-.18-.09-.36-.18-.54-.29C-1.54,95.64.29,93.47,1.24,92.19Z"/><path class="cls-38" d="M.59,94.66c1.1.06,3.45,1.23,2.77,3.11S-.22,95.3.59,94.66Z"/><path class="cls-20" d="M15.33,97.43c.39,1.6-2.17,6.26-7.16,2a6.07,6.07,0,0,1-2-4.64c0-.51,1.77-3,1.77-3l4.37.32C12.39,94.06,11.71,96.79,15.33,97.43Z"/><path class="cls-19" d="M12.18,93c-.13,1.49.43,3.28.72,3.41.17,1.32-.72,5.15-4.73,3.06A4.15,4.15,0,0,1,6.5,95.3c.34-.7,1.16-2.76,1.16-2.76l2.41-1.12Z"/><path class="cls-33" d="M8.68,93a3.65,3.65,0,0,1,.57,6c-1.25.3-2.59-2-2.41-4.4S8.68,93,8.68,93Z"/><path class="cls-20" d="M3.81,84.12c-1.39.78-4.67,4-1.84,9.52,1.39,1.49,3.6,2,4.22,1.49S8.68,93,8.68,93l1-4.13-1.78-3.2Z"/><path class="cls-19" d="M1.48,92.54c.38,1.18,3.44,1.45,4.71-1.2.24-2.26.57-5.12,0-6.31a1.8,1.8,0,0,0-2.38-.91C3,84.66-.49,86.5,1.48,92.54Z"/><path class="cls-33" d="M4.12,85.52c1.14,1.34.77,3.73.52,4.54s-1.2,2.09-1.58,2.13S1.7,92.06,1.4,90.65.89,84.85,4.12,85.52Z"/><path class="cls-15" d="M19.26,79c1.18-1.36,1.73-3.79.41-5.4s-4.1-1.49-4.77-1.33-3.92.86-4.17,3.92a3.64,3.64,0,0,0,2.46,3.88h5.08Z"/><path class="cls-14" d="M14.9,72.29c2,0,3.88.94,4.09,3.59-.38,1.65-1,2.56-1.66,2.56s-4.41,1-5.21.58a3.6,3.6,0,0,1-1.39-2.81C10.77,75.36,11.15,73.1,14.9,72.29Z"/><path class="cls-36" d="M15.92,73c1.07.59,1.33,2.72-.59,3.92s-2.43,1.29-3.33.89-1.56-2.22.9-4.05A4.41,4.41,0,0,1,15.92,73Z"/><path class="cls-15" d="M12.73,80.42c1.18,3.25-3.86,7.44-7.36,5.1S.07,77.54,5,75.3C8.22,73.83,11.31,76.51,12.73,80.42Z"/><path class="cls-14" d="M10.07,79.26A6,6,0,0,1,6.55,85a5.65,5.65,0,0,1-4.11-6.79C2.87,74.94,9.13,72.17,10.07,79.26Z"/><path class="cls-36" d="M7.72,81.88c-1.27,1.5-2.87,1.59-4,.47-1.05-2.71-.76-4.88.5-6S9.51,75.49,7.72,81.88Z"/><path class="cls-20" d="M15.55,85.07c2.31,1.83,1.79,7-1.79,7.8s-8.85-2-5.88-7.2C9.32,83.14,11.85,82.13,15.55,85.07Z"/><path class="cls-14" d="M12.71,85.2c1.6,1,2.69,2,1.54,5.31C11.61,94.21,8,91.9,7.88,91s-2.26-2.6,1.63-6.8C11.23,83.18,12.71,85.2,12.71,85.2Z"/><path class="cls-36" d="M11,88.23c.19,1.59.3,4.29-1.44,3.49s-2.24-2-2-3.32C7.88,85.67,11,83.67,11,88.23Z"/><path class="cls-20" d="M19.67,79.32c2.31,1.83,1.79,7-1.79,7.8S10.22,84.69,11.37,82,16,76.38,19.67,79.32Z"/><path class="cls-14" d="M16.68,78.45c1.59,1,3.57,2.79,2.42,6.11-2,3.77-5.82,1.34-6.39.64a3.81,3.81,0,0,1,.6-5.82A6.68,6.68,0,0,1,16.68,78.45Z"/><path class="cls-36" d="M15.84,79.45c0,1.22-.13,2.62.64,3.64.19,1.6-.69,3.17-2.43,2.37a3.1,3.1,0,0,1-2-3.33c.06-1.35,2.42-3.45,3.13-3.06Z"/></g><path class="cls-39" d="M67.59,110.07C79,101.49,66.69,79,43.73,76.46,37.86,96.19,53.75,120.5,67.59,110.07Z"/><path class="cls-40" d="M43.78,76.56C72.68,84,74.22,100.8,70,107.61,73.28,103.24,68.28,88.3,43.78,76.56Z"/><path class="cls-40" d="M43.9,76.76c4.26,4.4,25.25,25,23.85,33.31C65.37,100.79,43.9,76.76,43.9,76.76Z"/><path class="cls-40" d="M43.66,77.71c-.91,13.14,1.09,25.33,13.86,33.17C43.56,98.4,44.16,87.86,43.66,77.71Z"/><path class="cls-41" d="M51.64,94.24C47.49,96.69,43.11,83,46.29,80.71,46.25,86.67,52.09,91.5,51.64,94.24Z"/><path class="cls-39" d="M80.94,102.88c17,13,44.58-13.94,38.9-48.18C88.92,54.24,60.23,87.12,80.94,102.88Z"/><path class="cls-40" d="M119.72,54.81c.94,44.85-22.67,53.89-34.24,50.53C93.14,108.34,112.71,95,119.72,54.81Z"/><path class="cls-40" d="M119.48,55.06C114.86,63,93.66,101.74,81,103.12,93.47,95.89,119.48,55.06,119.48,55.06Z"/><path class="cls-40" d="M118,55.11C98.64,59.14,81.81,67,75.68,88.66,88,63.38,103.54,60,118,55.11Z"/><path class="cls-41" d="M97.36,73.38c-5.24-5,12.77-16.91,17.38-13.25C106.11,62.5,101.5,72.91,97.36,73.38Z"/><g id="Blueberry"><path class="cls-42" d="M79.47,111.52c3.61,2.47,12,6.32,19.28-1.42,2.46-4.32,1.4-10.68-1.78-13.8s-7.59-4.75-11.42-4.17S77,98.2,76.47,102.69,78.46,110.83,79.47,111.52Z"/><path class="cls-43" d="M95.64,112.7c7.09-13.16-2.88-18.29-7.4-20.63a11,11,0,0,0-2.69.06c-2.44.37-5.24,2.74-7.09,5.57-.29,1.51-.51,4.6-.76,5.54s1.56,5.16,2.9,3.37,5.23-6.67,11.74-3.11c5.06,4.2,3.22,7.75,1.56,10.14A12.36,12.36,0,0,0,95.64,112.7Z"/><path class="cls-44" d="M95.64,112.7a15.72,15.72,0,0,0,3.11-2.6c2.46-4.32,1.4-10.68-1.78-13.8a14.92,14.92,0,0,0-8.73-4.23C92.76,94.41,102.73,99.54,95.64,112.7Z"/><path class="cls-45" d="M83.17,111.62c-1.47-1.27-1.81-8.16,5.62-7.49,4.31,1.14,6.35,3.56,4.25,7.15,1.39-.37,2.57-1.63,1.77-3.88a7.05,7.05,0,0,0-9.15-4.26C80.54,105,79.7,109.56,83.17,111.62Z"/><path class="cls-46" d="M85.9,109.65c.17.84.24,1.54,1.28,1.62s2,0,2.28-.5.81-1.63.22-1.9-1.73-1.69-2.55-.8A9.34,9.34,0,0,0,85.9,109.65Z"/><path class="cls-45" d="M79.39,101.48c.25,1.53,1.12,2.13,3.59-.06,1.85-1,3.4-1.65,3.39-3.78S82.83,96.2,82,96.7,79.07,99.52,79.39,101.48Z"/></g><g id="Blueberry-2" data-name="Blueberry"><path class="cls-42" d="M23.47,112.52c3.61,2.47,12,6.32,19.28-1.42,2.46-4.32,1.4-10.68-1.78-13.8s-7.59-4.75-11.42-4.17S21,99.2,20.47,103.69,22.46,111.83,23.47,112.52Z"/><path class="cls-43" d="M39.64,113.7c7.09-13.16-2.88-18.29-7.4-20.63a11,11,0,0,0-2.69.06c-2.44.37-5.24,2.74-7.09,5.57-.29,1.51-.51,4.6-.76,5.54s1.56,5.16,2.9,3.37,5.23-6.67,11.74-3.11c5.06,4.2,3.22,7.75,1.56,10.14A12.36,12.36,0,0,0,39.64,113.7Z"/><path class="cls-44" d="M39.64,113.7a15.72,15.72,0,0,0,3.11-2.6c2.46-4.32,1.4-10.68-1.78-13.8a14.92,14.92,0,0,0-8.73-4.23C36.76,95.41,46.73,100.54,39.64,113.7Z"/><path class="cls-45" d="M27.17,112.62c-1.47-1.27-1.81-8.16,5.62-7.49,4.31,1.14,6.35,3.56,4.25,7.15,1.39-.37,2.57-1.63,1.77-3.88a7.05,7.05,0,0,0-9.15-4.26C24.54,106,23.7,110.56,27.17,112.62Z"/><path class="cls-46" d="M29.9,110.65c.17.84.24,1.54,1.28,1.62s2,0,2.28-.5.81-1.63.22-1.9-1.73-1.69-2.55-.8A9.34,9.34,0,0,0,29.9,110.65Z"/><path class="cls-45" d="M23.39,102.48c.25,1.53,1.12,2.13,3.59-.06,1.85-1,3.4-1.65,3.39-3.78S26.83,97.2,26,97.7,23.07,100.52,23.39,102.48Z"/></g><g id="Blueberry-3" data-name="Blueberry"><path class="cls-42" d="M7.08,100.86c-2,2.33-5.33,7.9-.49,13.56a8.62,8.62,0,0,0,9.76-.18,9.83,9.83,0,0,0,3.79-7.65c-.11-2.71-3.58-6.41-6.67-7.14A7.44,7.44,0,0,0,7.08,100.86Z"/><path class="cls-43" d="M5,112.05c8.64,6,13-.6,15-3.57a7.16,7.16,0,0,0,.17-1.89c-.07-1.73-1.51-3.86-3.34-5.37-1-.32-3.17-.71-3.81-1S9.27,101,10.42,102s4.25,4.16,1.26,8.42c-3.32,3.22-5.64,1.66-7.19.31A9.94,9.94,0,0,0,5,112.05Z"/><path class="cls-44" d="M5,112.05a11.49,11.49,0,0,0,1.58,2.37,8.62,8.62,0,0,0,9.76-.18A10.42,10.42,0,0,0,20,108.48C18,111.45,13.65,118,5,112.05Z"/><path class="cls-45" d="M6.73,103.44c1-.93,5.83-.64,4.79,4.49-1.13,2.92-3,4.16-5.31,2.41a1.88,1.88,0,0,0,2.57,1.54,5,5,0,0,0,3.68-6C11.56,102.11,8.43,101.17,6.73,103.44Z"/><path class="cls-46" d="M7.89,105.49c-.6.05-1.09.05-1.22.77s-.15,1.4.17,1.63,1.07.69,1.31.3,1.31-1.08.75-1.72A6.32,6.32,0,0,0,7.89,105.49Z"/><path class="cls-45" d="M14.09,101.58c-1.08,0-1.57.61-.23,2.5.58,1.37.89,2.5,2.37,2.66s1.28-2.36,1-3S15.49,101.51,14.09,101.58Z"/></g></g></g></svg>