<svg xmlns="http://www.w3.org/2000/svg" viewBox="0 0 50.77 37.98"><defs><style>.cls-1{fill:#fff;fill-rule:evenodd;}</style></defs><title>hamburgerMenu</title><g id="Layer_2" data-name="Layer 2"><g id="Layer_1-2" data-name="Layer 1"><g id="Step_Three" data-name="Step Three"><g id="Menu"><path class="cls-1" d="M3.24,0H47.53a3.31,3.31,0,0,1,3.24,3.38h0a3.31,3.31,0,0,1-3.24,3.38H3.24A3.31,3.31,0,0,1,0,3.38H0A3.31,3.31,0,0,1,3.24,0Z"/></g></g><path class="cls-1" d="M3.24,15.61H47.53A3.31,3.31,0,0,1,50.77,19h0a3.31,3.31,0,0,1-3.24,3.38H3.24A3.31,3.31,0,0,1,0,19H0A3.31,3.31,0,0,1,3.24,15.61Z"/><path class="cls-1" d="M3.24,31.22H47.53a3.31,3.31,0,0,1,3.24,3.38h0A3.31,3.31,0,0,1,47.53,38H3.24A3.31,3.31,0,0,1,0,34.6H0A3.31,3.31,0,0,1,3.24,31.22Z"/></g></g></svg>