<svg xmlns="http://www.w3.org/2000/svg" viewBox="0 0 2546 2464"><defs><style>.cls-1{fill:#d1e9e4;}.cls-2{fill:#f2e9e7;}.cls-3{fill:#6d5553;}</style></defs><title>home-icon</title><g id="Layer_2" data-name="Layer 2"><g id="Step_Three" data-name="Step Three"><circle class="cls-1" cx="428" cy="2149" r="236"/><circle class="cls-2" cx="1232" cy="1232" r="1232"/><circle class="cls-1" cx="2262" cy="732" r="284"/><circle class="cls-1" cx="2095" cy="151" r="117"/><circle class="cls-1" cx="664" cy="849" r="117"/><circle class="cls-1" cx="698" cy="2149" r="117"/><rect class="cls-1" x="993" y="1448" width="459" height="540"/><g id="XsSK4z.tif"><path class="cls-3" d="M1877.68,1592.94q0,166.33,0,332.65c-.05,43.39-15.47,58.65-59.23,58.68q-208.17.17-416.33,0c-26.51,0-28.46-1.9-28.44-29.46.07-110.89.41-221.77.45-332.65,0-55.44-19.47-75.07-74.49-75.24q-84.71-.27-169.39,0c-45.52.22-62.24,17.72-62.25,63.66q-.06,172.44-.37,344.89c-.07,30.85-1.91,32.5-32.28,32.51q-206.13.06-412.25,0c-10.89,0-21.66-.35-32.33-3.39-14.69-4.18-23.56-13.56-25.82-28.32a244.55,244.55,0,0,1-3-36.53c-.17-216.33.07-432.66-.4-649,0-23.32,6-40.37,25-56.2,159.08-132,317.22-265.19,475.63-398,52.63-44.13,105.67-87.79,157.58-132.76,14.7-12.74,24.93-13.89,39.83-.51q158.63,142.44,318.27,283.76,140.19,124.78,280.62,249.3c13.25,11.68,19.75,23.53,19.62,41.84C1877.28,1369.81,1877.69,1481.38,1877.68,1592.94Z"/><path class="cls-3" d="M2055.81,1228.42c-42.89-5.12-83.45-24.08-117.54-54.46q-242.1-215.78-483-432.93c-63.76-57.2-128.07-113.81-191.12-171.79-13.75-12.64-22.41-11.89-35.69-.55Q1092,685.24,954.63,800.8,762.3,963.46,569.87,1126c-34.79,29.35-67.75,61.1-106.84,85-32.13,19.63-65.95,28.91-102.82,13.53a89.08,89.08,0,0,1-12.8-6.24c-35.46-22.11-36.33-33.62-5.74-60.56Q572,954.82,802.21,751.73,1016.5,563,1230.81,374.33c12.79-11.32,20.5-10,32.22.71q205.71,187.62,412.11,374.48Q1901.9,954.93,2129,1159.94c20.72,18.73,20.9,22.26.95,41.5S2085.52,1226.65,2055.81,1228.42Z"/><path class="cls-3" d="M1933,734.22q0,83.55-.08,167.11c0,5.85,1.93,13.61-4.83,16.4-5.64,2.33-9.41-4.07-13.42-7.46q-76.28-64.37-152.51-128.8c-8.74-7.35-14.23-15.26-14.15-27.6.4-62.49.47-125-.2-187.47-.16-15.28,6-20.54,20.35-20.45,47.54.28,95.1.48,142.64-.12,17-.22,22.52,7.21,22.38,23.33C1932.71,624.18,1933,679.2,1933,734.22Z"/></g></g></g></svg>