<svg xmlns="http://www.w3.org/2000/svg" viewBox="0 0 25.08 25.23"><defs><style>.cls-1,.cls-5,.cls-7{fill:#796562;}.cls-1{opacity:0.2;}.cls-2{fill:#fffefd;}.cls-3{fill:#c7dce2;opacity:0.59;}.cls-4{fill:#916650;}.cls-5{opacity:0.12;}.cls-6{fill:#c1e8e1;}</style></defs><title>home-icon_1</title><g id="Layer_2" data-name="Layer 2"><g id="Layer_1-2" data-name="Layer 1"><path class="cls-1" d="M2.52,23.44v.95a.84.84,0,0,0,.84.84h18.8a.85.85,0,0,0,.85-.87l0-.92Z"/><path class="cls-2" d="M9.73,24.26l-6.24.07c-1,.05-.9-.61-.9-1.25l-.06-9.81c-.1-.63.4-.95.76-1.31q4-4,8-7.88c1.2-1.16,1.68-1.14,2.82,0,2.78,2.79,5.51,5.63,8.39,8.33.29.28.79.5.51,1.06,0,3.22-.07,6.45,0,9.68,0,.95-.3,1.24-1.26,1.19-2-.09-3.93-.07-5.89-.09a2.72,2.72,0,0,1-.39-1.94c0-1.92,0-3.85,0-5.77,0-1-.42-1.41-1.41-1.37s-1.67,0-2.51,0c-1,0-1.38.45-1.38,1.4,0,1.93,0,3.85,0,5.77A2.7,2.7,0,0,1,9.73,24.26Z"/><path class="cls-3" d="M9.42,24.34c0-2.94,0-5.88,0-8.82,0-.9.26-1.28,1.26-1.23a41,41,0,0,0,4.15,0c1,0,1.29.29,1.27,1.21-.05,2.93,0,5.87,0,8.81Z"/><path class="cls-4" d="M9.66,24.34c0-2.88,0-5.75,0-8.62,0-.89.25-1.26,1.18-1.21a38.43,38.43,0,0,0,3.87,0c.92-.06,1.2.28,1.18,1.18,0,2.87,0,5.75,0,8.62Z"/><polygon class="cls-5" points="2.56 14.5 12.54 4.42 23.03 14.63 23.03 10.81 12.83 0.6 2.43 11.53 2.56 14.5"/><circle class="cls-6" cx="14.83" cy="19.95" r="0.28"/><path class="cls-7" d="M23,13.72c-3.12-3.51-6.6-6.67-9.86-10-.42-.44-.71-.35-1.09,0Q7.26,8.64,2.42,13.53c-1,1.06-1.46.13-2.07-.45-.86-.81.1-1.11.46-1.48C4.49,7.88,8.23,4.21,11.91.48c.65-.67,1-.61,1.61,0C16.91,4,20.34,7.37,23.77,10.79c1.72,1.7,1.74,1.68.09,3.38Z"/><rect class="cls-3" x="4.75" y="14.5" width="2.46" height="4.42" rx="0.6"/><rect class="cls-3" x="18.13" y="14.65" width="2.46" height="4.42" rx="0.6"/></g></g></svg>