<svg xmlns="http://www.w3.org/2000/svg" viewBox="0 0 209.37 209.37"><defs><style>.cls-1{opacity:0.47;}.cls-2{fill:#d1bdb6;}.cls-3{fill:#ba9d93;}.cls-4{fill:#bf844d;}.cls-5{fill:#a1694a;}.cls-6{fill:#ebcea2;opacity:0.21;}</style></defs><title>nuts-button</title><g id="Layer_2" data-name="Layer 2"><g id="Step_Three" data-name="Step Three"><g id="icons" class="cls-1"><circle class="cls-2" cx="104.69" cy="104.69" r="104.66"/><path class="cls-3" d="M196.31,155.26A104.66,104.66,0,0,1,22.08,40.41,104.66,104.66,0,1,0,196.31,155.26Z"/></g><path class="cls-4" d="M96.6,129.15c5.18,27.22,55,25.15,79.11-12.7C146.36,89.26,90.31,96.07,96.6,129.15Z"/><path class="cls-5" d="M175.49,116.45c-37.88,44-68.42,32.24-76.64,19C103.62,145,134,149.08,175.49,116.45Z"/><path class="cls-5" d="M175.05,116.49c-11.33,3.65-65.22,22.56-78.57,13C114.71,133.27,175.05,116.49,175.05,116.49Z"/><path class="cls-5" d="M173.6,115.27c-22.13-12.89-45.11-19.88-69.75-4.36C137.6,97.3,155.48,107.41,173.6,115.27Z"/><path class="cls-6" d="M137.92,115c-.7-9.35,26.91-5.22,28.18,2.29C155.75,112.07,142.31,118.1,137.92,115Z"/><path class="cls-4" d="M93.48,137.26h0a24,24,0,0,1-2.74-6.51l-.26-.15.23,0c0-.13-.07-.25-.1-.37-4.79-20.07,11.46-32.39,32.88-34.86a87.77,87.77,0,0,0-19-49.18c-45.19,23.94-60.6,94.44-18,100.8a26.15,26.15,0,0,0,14.89-2A23.52,23.52,0,0,1,93.48,137.26Z"/><path class="cls-5" d="M122.27,94.74c-1.66-13.39-7-29.44-17.87-48.26C111,65.7,114,82.27,114.54,96.13A39.3,39.3,0,0,1,122.27,94.74Z"/><path class="cls-5" d="M101.37,102.57C104,79.62,104.06,55.13,104.26,47c0,0-2,30.5-6.41,58.62A33.45,33.45,0,0,1,101.37,102.57Z"/><path class="cls-5" d="M91.88,134.38a56.43,56.43,0,0,1-5.12,12.91c2.7-1.88,5-5.26,6.88-9.67A22,22,0,0,1,91.88,134.38Z"/><path class="cls-5" d="M102.18,48.26c-24.88,21.28-43,46.05-34.67,82.32C65.32,84.12,85.05,66.82,102.18,48.26Z"/><path class="cls-6" d="M86.78,91.19c-11.58-3.1,5-34.67,14.64-33C90.8,68.46,92.4,87.21,86.78,91.19Z"/></g></g></svg>