<svg xmlns="http://www.w3.org/2000/svg" viewBox="0 0 967.31 701.01"><defs><style>.cls-1{fill:#f2e9e7;}.cls-2{fill:#9db2af;}.cls-3{fill:#786562;}.cls-4{fill:#d1e9e4;}.cls-5{fill:#fff;}.cls-6,.cls-7{fill:#606060;}.cls-6{opacity:0.32;}.cls-7{opacity:0.25;}</style></defs><title>recipies-icon</title><g id="Layer_2" data-name="Layer 2"><g id="Step_Three" data-name="Step Three"><path class="cls-1" d="M389.78,58.73C370.66,51.29,351.62,43.67,331.87,38A410.43,410.43,0,0,0,233,21.85c-34.61-1.27-69.16-.33-103.58,4.39C100,30.26,71,35.6,42.49,43.89c-5.19,1.51-6.29,4-6.28,8.86q.21,112.59.1,225.18,0,113.76,0,227.52c0,6,0,6.05,5.72,4.72,25.6-6,51.23-11.92,77.24-15.87a752.45,752.45,0,0,1,77.48-7.88,603.41,603.41,0,0,1,84.41,1.52,520.9,520.9,0,0,1,107.19,20.89c6.46,2,6.53,1.88,6.53-5q0-103.43,0-206.84,0-115.17.09-230.34C395,62.4,393.93,60.35,389.78,58.73Z"/><path class="cls-1" d="M585.91,504.82a494.34,494.34,0,0,0-49.73,2c-2.89.27-5.45,1.46-8.54,1.69a301.59,301.59,0,0,0-46.31,6.8c-16.91,3.94-33.9,7.49-50.86,11.2l0,.35H724c-7.92-2.51-15.91-4.53-23.94-6.45C662.56,511.47,624.65,505.17,585.91,504.82Z"/><path class="cls-1" d="M89.38,526.89H379.13C284.13,498.53,186.54,496.81,89.38,526.89Z"/><path class="cls-1" d="M756.91,43.85c-26.35-7.76-53.18-13-80.31-17.12-28.42-4.31-57-5.65-85.68-5.54a441.75,441.75,0,0,0-66.42,5.17c-36.89,5.75-72.56,15.3-106.23,31.74-3.81,1.86-5,4.08-5,8.23q.19,106,.09,212,0,113.55,0,227.09c0,2.89-.76,5.64,4.26,3.88,48.7-17.08,99.22-22.81,150.48-23.61,18.95-.29,37.88.33,56.8,1.67a743.55,743.55,0,0,1,88.84,11.88c14.75,2.85,29.33,6.48,43.78,10.62,5,1.43,5.17,1.28,5.24-4.1,0-1.41,0-2.82,0-4.23V278.25q0-113.08.1-226.15C762.88,47.43,761.59,45.22,756.91,43.85Z"/><g id="rL4o9k"><path d="M404.24,580.93q-139.15,0-278.29,0c-38.86,0-77.72.05-116.58-.06-11.35,0-9.21,0-9.21-9Q.09,329.72.12,87.6c0-8,0-7.94,8-8,9.75,0,9.17.94,9.17-9.12,0-11.59.24-23.2-.11-34.78-.15-5,2.12-6.81,6.43-8A759.84,759.84,0,0,1,117.51,6.86,586.06,586.06,0,0,1,208.25,0C249.71.07,290.73,4.53,331,15c24.61,6.39,48.52,14.61,71.15,26.31,2.4,1.24,4.16,1,6.49-.21,32.88-16.46,67.79-26.51,103.84-33.15C543.38,2.22,574.6,0,605.92,0a564.71,564.71,0,0,1,85.13,6.49,729.31,729.31,0,0,1,92.09,20.29c7.09,2,7.33,2.28,7.33,9.65,0,12.69.12,25.39-.07,38.08,0,3.86,1.2,5.59,5.1,5.13a13.26,13.26,0,0,1,1.41,0c13,.09,11.33-1.38,11.34,11.18q0,241.43,0,482.84c0,7.24,0,7.25-7.28,7.25H404.24Zm-367.93-303q0,113.76,0,227.52c0,6,0,6.05,5.72,4.72,25.6-6,51.23-11.92,77.24-15.87a752.45,752.45,0,0,1,77.48-7.88,603.41,603.41,0,0,1,84.41,1.52,520.9,520.9,0,0,1,107.19,20.89c6.46,2,6.53,1.88,6.53-5q0-103.43,0-206.84,0-115.17.09-230.34c0-4.21-1.06-6.26-5.21-7.88C370.66,51.29,351.62,43.67,331.87,38A410.43,410.43,0,0,0,233,21.85c-34.61-1.27-69.16-.33-103.58,4.39C100,30.26,71,35.61,42.49,43.89c-5.2,1.51-6.29,4-6.28,8.86Q36.42,165.34,36.31,277.93Zm726.46.32q0-113.08.1-226.15c0-4.67-1.28-6.88-6-8.25-26.35-7.76-53.18-13-80.31-17.12-28.42-4.31-57-5.65-85.68-5.54a441.75,441.75,0,0,0-66.42,5.17c-36.89,5.75-72.56,15.3-106.23,31.74-3.81,1.86-5,4.08-5,8.23q.19,106,.09,212,0,113.55,0,227.09c0,2.89-.76,5.64,4.26,3.88,48.7-17.08,99.22-22.81,150.48-23.61,18.95-.29,37.88.33,56.8,1.67a743.55,743.55,0,0,1,88.84,11.88c14.75,2.85,29.33,6.48,43.78,10.62,5,1.43,5.17,1.28,5.24-4.1,0-1.41,0-2.82,0-4.23ZM89.38,526.89H379.13C284.13,498.54,186.54,496.81,89.38,526.89Zm341.09-.34,0,.35H724c-7.92-2.51-15.91-4.53-23.94-6.45-37.54-9-75.45-15.28-114.19-15.63a494.34,494.34,0,0,0-49.73,2c-2.89.27-5.45,1.46-8.54,1.69a301.59,301.59,0,0,0-46.31,6.8C464.42,519.29,447.43,522.84,430.47,526.55Z"/></g><path class="cls-2" d="M961.31,406.79c0,46.12-140,96-306.5,96s-301.5-37.38-301.5-83.5,135-83.5,301.5-83.5S961.31,360.68,961.31,406.79Z"/><path d="M654.81,508.79c-81.06,0-157.34-8.76-214.79-24.67-76.62-21.22-92.71-47-92.71-64.83s16.09-43.6,92.71-64.82c57.45-15.91,133.73-24.68,214.79-24.68,84.84,0,161.88,6.52,217,18.34,63.4,13.62,95.54,33.35,95.54,58.66C967.31,460.18,818.37,508.79,654.81,508.79Zm0-167c-80,0-155.15,8.61-211.59,24.24-52.54,14.55-83.91,34.46-83.91,53.26s31.37,38.71,83.91,53.26c56.44,15.63,131.59,24.24,211.59,24.24,76.75,0,154.69-11.08,213.83-30.41,53.46-17.46,86.67-40.3,86.67-59.59,0-8.83-7.2-17.35-21.41-25.31-14.81-8.31-36.57-15.58-64.65-21.61C815,348.21,738.82,341.79,654.81,341.79Z"/><path class="cls-3" d="M687,514.16l224.68-306a23.75,23.75,0,0,1,35.18-3.47h0a23.76,23.76,0,0,1,3.36,31.26L703.31,584.79h-89Z"/><path d="M704.61,587.29H608.16l76.92-74.78L909.64,206.64a26.26,26.26,0,0,1,42.6,30.71Zm-84.14-5H702L948.16,234.46a21.26,21.26,0,0,0-34.49-24.86L688.87,515.8l-.15.15Z"/><path class="cls-4" d="M353.31,426.79c268,30,363,53,604-24,0,189-187.48,273.5-292.5,273.5C485.81,676.29,376.31,574.79,353.31,426.79Z"/><path d="M664.81,682.29c-44.4,0-85.73-6.21-122.83-18.47-35.93-11.87-68-29.42-95.26-52.17-53.18-44.33-87.52-107.94-99.34-183.94l-1.2-7.75,7.8.87c27.23,3.05,52.36,6,76.66,8.83,212.55,24.86,309.56,36.2,524.85-32.58l7.82-2.5v8.21C963.31,511,903.89,578,854,615.23a352.36,352.36,0,0,1-97.3,50.59C724.69,676.6,692.9,682.29,664.81,682.29ZM360.54,433.64c12.43,69.64,44.78,127.87,93.87,168.79,26.11,21.78,56.84,38.6,91.33,50,35.89,11.86,76,17.87,119.07,17.87,26.43,0,57.71-5.62,88.1-15.84a340.33,340.33,0,0,0,94-48.84C893.23,571,948.27,509.45,951.19,411c-101.34,31.88-179.2,46.71-259,49.42-78.7,2.68-156-6.36-263-18.87C407.33,439,384.73,436.37,360.54,433.64Z"/><path class="cls-5" d="M383.39,654.22c-34.3,51.4-139.38,17.22-161.53-58.36a46.22,46.22,0,0,1,23.54-54.43C317.88,504.9,441,567.91,383.39,654.22Z"/><path d="M332.36,683.52a100.63,100.63,0,0,1-15.21-1.19c-37.78-5.78-85.14-34.88-99.87-85.13a51.09,51.09,0,0,1,26-60c21.73-10.95,48.77-13.94,76.14-8.4,26.31,5.31,50.09,18.18,65.24,35.3,10.95,12.37,17.27,26.82,18.28,41.79,1.13,16.7-4.11,33.86-15.55,51l-4-2.65,4,2.65C375.8,674.18,356.22,683.52,332.36,683.52ZM292.69,535.59c-16.38,0-31.89,3.42-45.15,10.1a41.55,41.55,0,0,0-21.1,48.83c6,20.35,18.58,38.75,36.49,53.2,16.44,13.26,36.2,22.2,55.66,25.18,26.88,4.11,49.05-3.66,60.84-21.33,19.38-29,18.69-57.86-1.95-81.17-13.8-15.6-35.66-27.36-60-32.28A125.56,125.56,0,0,0,292.69,535.59Z"/><path class="cls-5" d="M432.27,696.07c-61.59,5-99.94-98.67-54.39-162.91a46.22,46.22,0,0,1,57.29-15.3C508.78,552.07,535.71,687.74,432.27,696.07Z"/><path d="M428,701c-23.22,0-44.48-14.17-58.88-39.48C350.25,628.31,343.7,573.11,374,530.4a51.07,51.07,0,0,1,63.19-16.86c22.06,10.25,41.17,29.61,53.81,54.52,12.14,23.93,16.79,50.57,12.76,73.07-2.91,16.26-10.33,30.18-21.44,40.26-12.4,11.24-29.11,17.78-49.65,19.43l-.39-4.75.39,4.75C431.11,701,429.56,701,428,701ZM415.74,518.33a41.64,41.64,0,0,0-34,17.58c-12.27,17.3-18.87,38.61-19.1,61.63-.21,21.12,5,42.17,14.76,59.28,13.44,23.62,33.27,36.2,54.46,34.5,34.8-2.81,57-21.23,62.47-51.87,3.68-20.51-.65-45-11.88-67.07-11.67-23-29.19-40.84-49.32-50.19A41.23,41.23,0,0,0,415.74,518.33Z"/><rect class="cls-6" x="459.31" y="136.79" width="255" height="17"/><rect class="cls-6" x="459.31" y="174.79" width="255" height="17"/><rect class="cls-6" x="459.31" y="212.79" width="255" height="17"/><rect class="cls-7" x="106.31" y="136.79" width="255" height="17"/><rect class="cls-7" x="106.31" y="174.79" width="255" height="17"/><rect class="cls-7" x="106.31" y="212.79" width="255" height="17"/><rect class="cls-7" x="106.31" y="252.79" width="255" height="17"/><rect class="cls-7" x="106.31" y="290.79" width="255" height="17"/><rect class="cls-7" x="106.31" y="328.79" width="255" height="17"/><rect class="cls-6" x="459.31" y="250.79" width="189" height="17"/><rect class="cls-6" x="459.31" y="281.79" width="94" height="17"/></g></g></svg>