<svg xmlns="http://www.w3.org/2000/svg" viewBox="0 0 973 729"><defs><style>.cls-1{fill:#d1e9e4;}.cls-2{fill:#f4eeed;}.cls-3,.cls-4{fill:#606060;}.cls-3{opacity:0.32;}.cls-4{opacity:0.25;}.cls-5{fill:#786562;opacity:0.24;}</style></defs><title>recipes2-icon</title><g id="Layer_2" data-name="Layer 2"><g id="Step_Three" data-name="Step Three"><circle class="cls-1" cx="794" cy="75" r="75"/><circle class="cls-1" cx="166" cy="373" r="166"/><circle class="cls-1" cx="753" cy="509" r="220"/><path class="cls-2" d="M466.47,94.94c-19.12-7.44-38.16-15.06-57.91-20.75a410.45,410.45,0,0,0-98.92-16.14c-34.61-1.26-69.16-.32-103.58,4.39-29.37,4-58.39,9.37-86.88,17.65-5.2,1.51-6.29,4-6.28,8.87q.21,112.59.1,225.17,0,113.76,0,227.53c0,6,0,6.05,5.72,4.72,25.61-6,51.23-11.92,77.24-15.88a755.7,755.7,0,0,1,77.49-7.87,601.92,601.92,0,0,1,84.41,1.52A520.37,520.37,0,0,1,465.05,545c6.46,2,6.53,1.87,6.53-5q0-103.41,0-206.83,0-115.17.08-230.35C471.68,98.61,470.62,96.56,466.47,94.94Z"/><path class="cls-2" d="M662.6,541a491.28,491.28,0,0,0-49.73,2c-2.89.26-5.45,1.46-8.54,1.68A302.84,302.84,0,0,0,558,551.56c-16.91,3.94-33.91,7.48-50.86,11.2l0,.35H800.73c-7.92-2.52-15.92-4.53-23.94-6.45C739.24,547.68,701.33,541.38,662.6,541Z"/><path class="cls-2" d="M166.07,563.1H455.82C360.81,534.74,263.22,533,166.07,563.1Z"/><path class="cls-2" d="M833.59,80.05c-26.34-7.75-53.18-13-80.3-17.11-28.42-4.31-57-5.66-85.69-5.55a441.73,441.73,0,0,0-66.41,5.18C564.3,68.32,528.63,77.87,495,94.31c-3.81,1.86-5,4.07-5,8.23q.21,106,.1,212,0,113.54,0,227.08c0,2.9-.76,5.64,4.26,3.89,48.69-17.08,99.22-22.81,150.47-23.61,19-.3,37.88.33,56.81,1.66a743.41,743.41,0,0,1,88.83,11.89c14.76,2.85,29.34,6.48,43.79,10.62,5,1.42,5.16,1.28,5.23-4.1,0-1.41,0-2.82,0-4.23V314.45q0-113.07.09-226.14C839.56,83.64,838.27,81.43,833.59,80.05Z"/><g id="rL4o9k"><path d="M480.93,617.14H202.63c-38.86,0-77.72.05-116.58-.06-11.35,0-9.2,0-9.2-9q-.09-242.13,0-484.25c0-8,0-8,8-8,9.75,0,9.16.94,9.17-9.12,0-11.6.24-23.2-.11-34.79-.16-5,2.11-6.8,6.42-8A758.57,758.57,0,0,1,194.2,43.07a586.06,586.06,0,0,1,90.74-6.86c41.45.07,82.48,4.53,122.73,15,24.61,6.39,48.53,14.61,71.16,26.3,2.4,1.24,4.16,1,6.49-.2,32.88-16.47,67.79-26.51,103.84-33.16,30.91-5.7,62.12-7.93,93.45-7.92a566.1,566.1,0,0,1,85.13,6.48A727.6,727.6,0,0,1,859.83,63c7.09,2,7.33,2.28,7.33,9.65,0,12.69.12,25.39-.07,38.08-.06,3.86,1.2,5.59,5.1,5.13a11.06,11.06,0,0,1,1.41,0c13,.09,11.33-1.38,11.33,11.18q0,241.41,0,482.84c0,7.23,0,7.25-7.28,7.25H480.93ZM113,314.13q0,113.76,0,227.53c0,6,0,6.05,5.72,4.72,25.61-6,51.23-11.92,77.24-15.88a755.7,755.7,0,0,1,77.49-7.87,601.92,601.92,0,0,1,84.41,1.52A520.37,520.37,0,0,1,465.05,545c6.46,2,6.53,1.87,6.53-5q0-103.41,0-206.83,0-115.17.08-230.35c0-4.2-1.05-6.25-5.2-7.87-19.12-7.44-38.16-15.06-57.91-20.75a410.45,410.45,0,0,0-98.92-16.14c-34.61-1.26-69.16-.32-103.58,4.39-29.37,4-58.39,9.37-86.88,17.65-5.2,1.51-6.29,4-6.28,8.87Q113.11,201.55,113,314.13Zm726.46.32q0-113.07.09-226.14c0-4.67-1.28-6.88-6-8.26-26.34-7.75-53.18-13-80.3-17.11-28.42-4.31-57-5.66-85.69-5.55a441.73,441.73,0,0,0-66.41,5.18C564.3,68.32,528.63,77.87,495,94.31c-3.81,1.86-5,4.07-5,8.23q.21,106,.1,212,0,113.54,0,227.08c0,2.9-.76,5.64,4.26,3.88,48.69-17.08,99.22-22.8,150.47-23.6,19-.3,37.88.33,56.81,1.67a743.39,743.39,0,0,1,88.83,11.88c14.76,2.85,29.34,6.48,43.79,10.62,5,1.42,5.16,1.28,5.23-4.1,0-1.41,0-2.82,0-4.23ZM166.07,563.1H455.82C360.81,534.74,263.22,533,166.07,563.1Zm341.09-.34,0,.35H800.73c-7.92-2.51-15.92-4.53-23.94-6.45-37.55-9-75.46-15.28-114.19-15.63a491.28,491.28,0,0,0-49.73,2c-2.89.26-5.45,1.46-8.54,1.68A302.84,302.84,0,0,0,558,551.56C541.11,555.5,524.11,559,507.16,562.76Z"/></g><rect class="cls-3" x="536" y="318" width="255" height="17"/><rect class="cls-3" x="536" y="356" width="255" height="17"/><rect class="cls-3" x="536" y="394" width="255" height="17"/><rect class="cls-4" x="183" y="173" width="255" height="17"/><rect class="cls-4" x="183" y="211" width="255" height="17"/><rect class="cls-4" x="183" y="249" width="255" height="17"/><rect class="cls-4" x="183" y="289" width="255" height="17"/><rect class="cls-4" x="183" y="327" width="255" height="17"/><rect class="cls-4" x="183" y="365" width="255" height="17"/><rect class="cls-4" x="183" y="405" width="255" height="17"/><rect class="cls-4" x="183" y="443" width="255" height="17"/><rect class="cls-3" x="536" y="432" width="189" height="17"/><rect class="cls-3" x="536" y="463" width="94" height="17"/><rect class="cls-5" x="559" y="150" width="209" height="140" rx="44.52"/></g></g></svg>