<svg xmlns="http://www.w3.org/2000/svg" viewBox="0 0 1480.71 1097.32"><defs><style>.cls-1{fill:#efd8b6;}.cls-2{fill:#fee9c6;}.cls-3{opacity:0.33;}.cls-4{fill:#ddc4a2;opacity:0.48;}.cls-5{fill:none;stroke:#e5c6a1;stroke-miterlimit:10;stroke-width:30.98px;opacity:0.31;}.cls-6{fill:#efd0a4;}.cls-7{fill:#f6e4b8;}.cls-8{fill:#ecc391;}.cls-9{fill:#edc696;}.cls-10{fill:#edc390;}</style></defs><title>shortbread-icon</title><g id="Layer_2" data-name="Layer 2"><g id="Step_Three" data-name="Step Three"><g id="BgKW1n"><path class="cls-1" d="M875.5,853.75c-11.11-3.63-17,6.21-24.12,13.54-2.21,2.27-1.86,5.35-2,8.24-1.45,35.64-26.4,61.28-61.87,63.53a48.2,48.2,0,0,1-17.15-2.37c-6.57-2-12-.76-17.9,2.41-8.24,4.47-14.53,9.3-17.7,19.34-12.19,38.56-61.31,54.6-94.53,31.41-4.22-3-7.91-3.42-12.76-2.47-10.25,2-17.7,6.08-24.4,15.35-22.46,31.09-68.19,34-94.47,6.14-9.17-9.72-19.48-9.86-30.71-10-3.17-.05-5.28,2.1-7.36,4.16-28.5,28.45-79.09,21.51-98.84-16.81-3.7-7.17-8.36-10.74-15.62-13.33-8.54-3.05-15.63-3.25-24.57.27-38.45,15.15-77.27-7-85.68-47.91-2.5-12.18-17.07-22.32-29.31-20.4-39.2,6.12-75.75-29-71.09-68.67.63-5.32.15-9.42-4-12.95a16.24,16.24,0,0,1-3.1-4c-4.08-6.81-9.67-10-17.91-11.36-42.4-7.15-64.77-48.19-48.54-88.11,1.41-3.49,1.13-6.22-.07-9.62C68,699.08,61.57,692,50.39,686.28,14.3,668,6.31,623,29.85,592.31c8.13-10.6,6.32-26.22-4-34.11C-6,533.82-8.87,488.77,19.65,461a28.36,28.36,0,0,1,6.85-5.24c5.72-2.83,8-7.18,9.37-13.42,2.16-9.43.9-16.7-5.18-24.68-12.66-16.61-12-47.41-.76-65.37a65.24,65.24,0,0,1,34.23-27.55C72,322,77.92,308,74.8,300c-9.06-23.13-7.15-45.18,8-65,11.07-14.54,26.67-22,44.92-23.22,11.59-.77,23.79-14.6,22.21-25.89-5.44-38.83,33-76.48,71.52-68.82,10.74,2.14,17.51-1.79,24.75-7.63,2.26-1.82,3.06-4.17,3.27-7,3.82-49.29,58.78-74.18,98.13-48.47,4.88,3.19,9,1.7,11.44-4,3.15-7.31,6.14-14.6,11.09-21C392.58-.5,436.3-4.08,463,21.48c1.39,1.34,2.8,2.67,4.11,4.09,3.34,3.63,6,3.69,9.33-.49,9.47-11.82,21.32-20.25,36.43-23.41C540-4,561.67,5,578.84,26.2c6.69,8.23,19,10,27.23,3.79,35.26-26.65,84.28-12.14,99.14,29.35,3.66,10.24,18.19,16.84,28,12.72,43.68-18.27,88.86,10.41,90.14,57.22.28,10.16,9.92,18.35,20,16.74,19.09-3,36.56.37,51.67,12.93,19.79,16.44,28,37.63,21.81,62.55-2.53,10.26.29,17.13,5.84,24.43,2,2.59,4.58,3.25,7.61,3.4,47.32,2.37,76.22,55.48,49.07,97.79-5,7.85-.07,22.93,8.64,26.63,38,16.13,51.8,55.53,32.37,91.79-3,5.69-7.8,9.78-12.19,14.24-8,8.16-7.53,21.84,1.26,29,39.17,31.87,27.36,88.93-11.13,106.17-9.39,4.2-12.83,20-6.78,28.31,26.25,36.17,7.37,87.74-36.2,98.87-13.79,3.52-19.75,15.31-16.32,29.07C950.1,815.54,920.58,854.64,875.5,853.75Z"/><path class="cls-2" d="M553.27,998a31.07,31.07,0,0,1-22.84-9.75c-17.84-18.9-38.39-19.22-52-19.43h-.64c-15.48,0-24.84,9.34-28.36,12.86l-.08.08a30.17,30.17,0,0,1-21.53,8.65,32.62,32.62,0,0,1-29.46-18c-7-13.66-17.27-22.51-32.19-27.84A65.17,65.17,0,0,0,344,940.53a63.13,63.13,0,0,0-23.5,4.69A36.87,36.87,0,0,1,307,947.91c-15.73,0-28.22-11.28-31.81-28.74-5.15-25-29.59-44.59-55.64-44.59a49.14,49.14,0,0,0-7.69.6,28.63,28.63,0,0,1-4.34.33c-8.85,0-17.64-4.17-24.12-11.45-3.65-4.11-9.58-12.75-8.2-24.4,1.77-15.09-2.2-27.52-11.82-37-8.43-13.36-21.19-21.56-38-24.38-11.16-1.89-20-7.73-24.85-16.45-5-9-5.32-19.9-.89-30.78,4.07-10,4.22-20.12.45-30.86C93.76,681.93,81.92,668.63,64,659.52a31,31,0,0,1-16.67-20.95,33.69,33.69,0,0,1,6.37-28,54.68,54.68,0,0,0,10.91-39.81,53.79,53.79,0,0,0-20.46-36.38c-8.47-6.49-13.46-15.59-14-25.61a33.47,33.47,0,0,1,10.5-26.22l.57-.54c18.73-10,22.67-27.19,24-32.94,4.22-18.48.77-34.69-10.58-49.56-4.26-5.6-4.58-22.68.79-31.21a35.18,35.18,0,0,1,19-15.29C85.6,349,95,339.82,100.64,327.29c5.82-12.82,6.58-26.76,2.09-38.24-5.5-14.07-4.3-25.15,3.9-35.92,3.41-4.48,9.52-10.55,23.05-11.45,14.16-1,28-8.51,37.94-20.75,9.47-11.66,13.84-26,12-39.25-1.1-7.84,1.87-16.48,8.16-23.7C194.26,150.5,203,146,211.24,146a22.18,22.18,0,0,1,4.31.42,58.92,58.92,0,0,0,11.54,1.17c17.27,0,29.33-8,37.91-14.87,5.93-4.78,13.23-13.52,14.35-28,1.55-20.18,18.57-31.07,33.8-31.07a32.47,32.47,0,0,1,18,5.39,38.7,38.7,0,0,0,21.16,6.54c14.78,0,27.9-9.13,34.23-23.82l.58-1.34c2.37-5.5,4.41-10.25,6.79-13.35a32.61,32.61,0,0,1,26.16-12.74,31.76,31.76,0,0,1,22.11,8.75l.56.54c.9.86,1.75,1.68,2.25,2.21,9.41,10.23,19.66,12.38,26.61,12.38,6.22,0,18.15-1.88,28.2-14.42C505.58,36.63,511.67,32.56,519,31a45.4,45.4,0,0,1,9.21-1c7,0,16.5,1.72,27.37,15.1a50.2,50.2,0,0,0,39.17,18.61,48.42,48.42,0,0,0,29.43-9.79,35.18,35.18,0,0,1,21.26-7.4c14.18,0,26.56,9,31.55,22.93,7,19.62,27.94,33.85,49.73,33.85a46.8,46.8,0,0,0,18.12-3.56,40,40,0,0,1,15.44-3.24c16,0,32.53,11.54,33.13,33.6a47.76,47.76,0,0,0,47.44,46.12,46.7,46.7,0,0,0,7.28-.57A50,50,0,0,1,856,175a29.11,29.11,0,0,1,19.86,7c11.52,9.58,15.07,19.24,11.85,32.3-6.55,26.59,6.73,44,11.1,49.78,4.94,6.49,14.15,14.4,30,15.19a32.37,32.37,0,0,1,27.34,17.78c2.63,5.13,7.71,18.68-2,33.85-7.11,11.08-8.71,25.49-4.38,39.52,4.43,14.37,14.1,25.64,26.53,30.92,10.66,4.53,18,11.69,21.15,20.71s2,19.13-3.48,29.3a49.73,49.73,0,0,1-4.37,4.62c-.93.92-1.86,1.83-2.78,2.77a50.18,50.18,0,0,0-14.21,37.87,49.22,49.22,0,0,0,17.94,35.42c13.27,10.79,13.73,23.94,12.82,30.82-1.46,11.11-8.08,20.57-17.28,24.69-12.49,5.59-21.87,17.07-25.71,31.48-4,14.79-1.37,30.43,6.91,41.83a32.72,32.72,0,0,1,4.25,30.75,33.59,33.59,0,0,1-23.6,21.43c-29.59,7.56-45.57,35.07-38,65.41,3.14,12.61,1.15,24.33-5.63,33-5.84,7.49-14.8,11.8-25.37,12.26a43.72,43.72,0,0,0-8-.75c-20.08,0-32,13.34-38.38,20.51-1,1.09-1.9,2.12-2.65,2.9-10.17,10.45-10.36,22.72-10.43,27.33,0,.21,0,.41,0,.61-.83,20.19-13.78,33.53-33.8,34.8h-.48a20.82,20.82,0,0,1-5.93-1.1,50.93,50.93,0,0,0-15.06-2.32c-8.78,0-17.27,2.3-26,7-11.47,6.22-25.48,16-32,36.67-4.6,14.57-19.41,21.21-31.22,21.21a30.52,30.52,0,0,1-17.52-5.36,44.45,44.45,0,0,0-25.83-8.31,50.85,50.85,0,0,0-9.85,1c-18.51,3.61-32.17,12.26-43,27.23A31,31,0,0,1,553.27,998Z"/></g><g class="cls-3"><circle class="cls-4" cx="564.97" cy="532" r="26"/><circle class="cls-4" cx="453.97" cy="303" r="26"/><circle class="cls-4" cx="301.97" cy="410" r="26"/><circle class="cls-4" cx="401.97" cy="619" r="26"/><circle class="cls-4" cx="564.97" cy="702" r="26"/><circle class="cls-4" cx="453.97" cy="462" r="26"/><circle class="cls-4" cx="640.97" cy="292" r="26"/><circle class="cls-4" cx="676.97" cy="436" r="26"/><circle class="cls-4" cx="757.97" cy="593" r="26"/><circle class="cls-4" cx="788.97" cy="410" r="26"/><circle class="cls-4" cx="233.97" cy="532" r="26"/><circle class="cls-4" cx="358.97" cy="728" r="26"/></g><circle class="cls-5" cx="516.97" cy="507" r="368.5"/><g id="o5EdHg"><path class="cls-6" d="M1241.79,687a414,414,0,0,0-149.26,27.41C1042.07,733.69,990.8,749.13,937,759c-81.46,14.91-164.67,24.65-241.84,58.37-43.74,19.11-90.1,29.45-136.26,40.94-25.83,6.43-45,3.08-64.84-15.2s-39.34-38-63.77-50.91A250,250,0,0,0,402,810.44c-8,6.34-15.66,13.11-23,20.2-5.16,8.54-10,17.35-15.36,25.68,0-3.38.69-7.23.5-10.52-6.84,7.35-13.43,14.94-19.84,22.67-1.07,7.11-4.1,14.32-5.69,21.46-18.54,83.32-18.46,83.2,52,130.88a216.25,216.25,0,0,1,30.71,24.8c42.51,42,90.64,47.09,145.39,27.11a1203.57,1203.57,0,0,1,120.72-37.32c66-16.51,134.49-24.69,197-54.06C856.68,959,821.3,957.8,794.11,969.8c-59.19,26.13-124.66,22.38-183.58,46.26-7.5,3-16.63,10.07-24.68-.09,22.89-57,40.1-65.79,98.42-50.46,10.31,2.72,20.75,4.92,31.32,3.35,48.78-7.26,96-27,147.29-14.17,12,3,24.1-9.18,35.72-15.41,25-13.44,51.1-19.94,80-11-30.06,9.9-72.94-4.12-78.34,46,76.41-14.24,151.88-31.78,223.2-63.84-16.14-14.69-1.93-18.72,8.58-22.45,51.61-18.31,84.27-52.91,90-108.27,3.36-32.33,20.3-17.43,35.18-12.87C1256.05,739.46,1263.6,710.41,1241.79,687Z"/><path class="cls-7" d="M1081.86,634.14c-62.22,18.73-128.1,25.14-192.2,37.87-44.68,8.87-89.24,18.3-133.81,27.72q-12.9,6.72-26.13,12.85c-29.92,13.82-61,25.77-93.16,33.34-33.54,7.89-68,10.93-102.08,15.36-28.94,4-57.59,10.19-84.72,21.21a244.6,244.6,0,0,0-27.17,14.14c24.84,20.87,50.31,41.09,73.68,63.49,16.36,15.68,30.59,17.06,52.92,12.41C623,857.16,692,827.38,763.57,805.65c94-28.5,195.29-26.8,286.36-64.86,62.31-26,129-32,191.86-53.75C1196.59,645.19,1151.11,613.29,1081.86,634.14Z"/><path class="cls-8" d="M884.43,981.34c-51.12-11.8-97.1,3.63-146.29,17.87-48.12,13.94-100.07,16-147.92,35.64-14.53,6-26.07-.11-20.34-20.41,15.17-53.77,59.39-76.54,113.48-58.93,25.73,8.38,52.33,6.64,76.07-5.71C779,939.61,797.12,934,819,940.94c28.73,9.11,53.88,5,80.51-13.7,32.59-23,70.71-15.92,112.41-3.52-34.15,32.66-92.14.2-111.72,50.52Q892.34,977.81,884.43,981.34Z"/><path class="cls-9" d="M1123.44,910.41c-10.2-1.72-20.41-3.44-27.8-14.5,10.67-5.6,20.43-12.66,31.34-16.14,53-16.94,80.1-54,88.16-107.86,1.94-12.92-.63-31.83,18.69-34.78,22.77-3.47,9.58,24.35,23.4,29.69C1261,878.38,1261,878.39,1154.15,903.5,1143.94,905.9,1133.68,908.11,1123.44,910.41Z"/><path class="cls-10" d="M625.68,864.14c2.57,16.82-7.26,23-16,27.47-55.35,28.21-79.32,77-90.57,134.68-1.25,6.39-2.49,13-5,18.9-3.05,7.16-6.91,15.25-16.86,13.27-10.21-2-11.17-11.39-9.61-18.77,11.43-53.93-11.09-99.44-34.22-145.14-4.61-9.12-5.84-19.92-8.84-29.88-1.88-6.27-5.17-12.86,3.71-16.37,5.65-2.22,10.89.18,13.6,4.93C509.75,937.31,567.48,886.34,625.68,864.14Z"/></g><circle class="cls-4" cx="543.97" cy="801" r="14"/><circle class="cls-4" cx="619.97" cy="824" r="14"/><circle class="cls-4" cx="666.97" cy="773" r="14"/><circle class="cls-4" cx="745.97" cy="781" r="14"/><circle class="cls-4" cx="793.97" cy="728" r="14"/><circle class="cls-4" cx="868.97" cy="751" r="14"/><circle class="cls-4" cx="924.97" cy="701" r="14"/><circle class="cls-4" cx="1011.97" cy="714" r="14"/><circle class="cls-4" cx="1075.97" cy="673" r="14"/><g id="o5EdHg-2" data-name="o5EdHg"><path class="cls-6" d="M1473.09,874.44a339.14,339.14,0,0,0-124.3,1.9c-43.39,8.7-86.9,14.22-131.69,14.87-67.83,1-136.39-2.42-203.3,14.36-37.94,9.51-76.8,11.57-115.65,14.59-21.74,1.69-36.76-3.61-50.33-21.07S821.2,863,803.21,849.31a204.28,204.28,0,0,0-25.32,10.92c-7.34,4-14.43,8.47-21.32,13.2-5.33,6.2-10.42,12.67-15.89,18.67.42-2.74,1.53-5.75,1.82-8.44-6.52,5-12.87,10.25-19.1,15.63-1.82,5.6-5.26,11-7.51,16.57-26.28,64.8-26.19,64.71,24.23,112.79a177.17,177.17,0,0,1,21.45,24.2c28.65,39.69,66.84,50.34,113.79,41.63A983.83,983.83,0,0,1,978,1080.7c55.58-4.38,112-1.71,166.5-17-19.4-21.79-47.81-27.59-71.41-21.58-51.36,13.08-103.75,1.17-154.59,12.47-6.48,1.44-14.81,5.88-19.93-3.42,26.22-42.93,41.33-47.72,86.36-27.41,8,3.59,16.1,6.78,24.85,7,40.4.75,81.26-8.81,120.93,8.53,9.31,4.06,20.71-4.15,30.94-7.61,22.07-7.46,44-9.18,66.12,2-25.64,3.92-58.37-13.23-69.53,26.53,63.66-1.14,127-5.08,189-21.3-11-14.07,1-15.39,10-17,44.17-7.8,75.25-31.32,87.42-75.27,7.1-25.66,18.76-11.33,30.17-5.62C1477.5,918.72,1487.54,896.28,1473.09,874.44Z"/><path class="cls-7" d="M1351.06,810c-52.81,6.7-106.91,2.94-160.42,4.53-37.3,1.11-74.59,2.68-111.88,4.24q-11.33,3.69-22.85,6.85c-26.05,7.1-52.8,12.54-79.79,14.29-28.16,1.83-56.4-.39-84.56-1.43-23.92-.66-47.91.42-71.32,5.64a200.16,200.16,0,0,0-23.87,7.74c17.23,20.24,35.07,40,50.92,61.29,11.09,14.89,22.4,17.93,41.06,17.21,61.74-2.41,121.49-17.12,182.28-25,79.79-10.28,161.42,4.84,240.16-13.56,53.87-12.58,108.61-8.33,162.3-17.4C1442.25,834.49,1409.83,802.55,1351.06,810Z"/><path class="cls-8" d="M1144.45,1063.75c-39.7-16.48-78.94-10.24-120.62-5.41-40.77,4.73-83-.68-124.34,8.73-12.55,2.85-21-3.63-13.66-19.25,19.55-41.38,58.36-53.79,99.67-32.22,19.66,10.26,41.38,12.46,62.24,5.7,17.2-5.57,32.6-7.66,49.36.93,22,11.26,42.85,11.39,66.9-.15,29.45-14.12,59.29-3.27,91.31,12.4-32,21.76-74.48-12.33-97.12,25.67Z"/><path class="cls-9" d="M1347.18,1038.86c-8-2.78-16-5.55-20.49-15.49,9.37-3.08,18.22-7.46,27.5-8.79,45.17-6.49,72-32.74,85.87-75.19,3.31-10.17,3.8-25.8,19.81-25.56,18.87.28,4.43,21,14.88,27.16-12.09,90.64-12.09,90.65-101.82,96.44C1364.35,1038,1355.76,1038.39,1347.18,1038.86Z"/><path class="cls-10" d="M951.29,934c-.2,13.94-9,17.61-16.65,20-48.55,15.29-74.54,51.49-91.44,96.53-1.88,5-3.77,10.14-6.62,14.59-3.44,5.38-7.65,11.39-15.42,8.44-8-3-7.49-10.72-5.22-16.47,16.55-42,4.53-81.84-8-121.9-2.49-8-2-16.89-3.09-25.35-.67-5.32-2.44-11.09,5.22-12.72a8.72,8.72,0,0,1,10.32,5.83C847.71,977.35,901.26,944,951.29,934Z"/></g><circle class="cls-4" cx="893.84" cy="871.86" r="11.47"/><circle class="cls-4" cx="952.12" cy="900.75" r="11.47"/><circle class="cls-4" cx="997.02" cy="865.92" r="11.47"/><circle class="cls-4" cx="1059.76" cy="883.1" r="11.47"/><circle class="cls-4" cx="1105.73" cy="846.79" r="11.47"/><circle class="cls-4" cx="1163.2" cy="875.54" r="11.47"/><circle class="cls-4" cx="1215.23" cy="842.74" r="11.47"/><circle class="cls-4" cx="1283.76" cy="865.05" r="11.47"/><circle class="cls-4" cx="1341.03" cy="840.6" r="11.47"/></g></g></svg>