<svg xmlns="http://www.w3.org/2000/svg" viewBox="0 0 39.2 39.2"><defs><style>.cls-1{fill:#f0f7f7;opacity:0.86;}.cls-2{fill:#796562;}</style></defs><title>top_2</title><g id="Layer_2" data-name="Layer 2"><g id="Layer_1-2" data-name="Layer 1"><rect class="cls-1" width="39.2" height="39.2" rx="7.07"/><path class="cls-2" d="M21.63,12.75c-1.44-1.5-2.66-1.38-4,0Q13.46,16.91,9.28,21C8.33,22,7.87,22.89,9,24s2.2.94,3.25-.11c1.83-1.83,3.74-3.58,5.47-5.49,1.31-1.44,2.31-1.51,3.65,0,1.79,2,3.76,3.78,5.65,5.65a1.89,1.89,0,0,0,2.26.58,2.65,2.65,0,0,0,1.56-1.86,2.75,2.75,0,0,0-1.12-1.85C27,18.18,24.27,15.52,21.63,12.75Z"/></g></g></svg>