<?xml version="1.0" encoding="utf-8"?>
<!-- Generator: Adobe Illustrator 23.0.3, SVG Export Plug-In . SVG Version: 6.00 Build 0)  -->
<svg version="1.1" id="Layer_1" xmlns="http://www.w3.org/2000/svg" xmlns:xlink="http://www.w3.org/1999/xlink" x="0px" y="0px"
	 viewBox="0 0 1205.3 1284.5" style="enable-background:new 0 0 1205.3 1284.5;" xml:space="preserve">
<style type="text/css">
	.st0{fill:#786562;}
	.st1{fill:#6D5553;}
</style>
<title>tutorial-icon_1</title>
<g>
	<g id="Step_Three">
		<g id="PWRJCp">
			<path class="st0" d="M1091.2,564.9c0,85.2,0.4,170.4-0.1,255.6c-0.6,95.1-52.4,147.8-146.6,149.2c-69.3,1-138.7,1.1-208,0.9
				c-24.5-0.1-45.4,7-65,21.7c-64.7,48.7-130.5,96.1-194.9,145.1c-35.2,26.8-72.1,35-112,14.6c-39.6-20.2-56.3-55-55.9-98.9
				c0.2-16.7-0.8-33.4-0.6-50.1c0.2-20.7-10.6-30.6-30.3-32.2c-16.6-1.4-33.4-1.5-49.9-3.9c-64.4-9.7-108.4-61.3-110.7-125.5
				c-6-166.1-2.9-332.3-3.1-498.5c0-35.9,1.6-71.8,3.8-107.6c3.1-50.1,52.7-103.2,105.3-109.7c66.5-8.2,133.5-3,200.2-3.5
				c107.7-0.8,215.5-0.1,323.2,0.4c18.3,0.1,36.7,1.8,54.9,3.4c17.5,1.5,27.6,11.8,28.9,29c1.3,16.8-5.8,29.7-22.9,34.2
				c-9.7,2.4-19.7,3.6-29.7,3.6c-166.2,0.5-332.4,0.9-498.7,1c-63.3,0.1-93.6,31.1-93.3,93.7c0.5,111.5,0.1,223,0,334.5
				c0,64.9,0,129.8,0.1,194.8c0.1,47.9,32,80.4,79.4,81.5c11.7,0.3,23.4,0.3,35,1.5c45,4.4,76.8,37.1,79.1,82.4
				c1.3,25,0.4,50.1,1.2,75.2c1,34.3,21.2,45.3,49.4,25.3c51.1-36.3,102.6-72.1,150.8-112c61.9-51.2,128.4-80.6,211-72.7
				c49.6,4.7,100.1,0.8,150.3,0.1c45.1-0.7,76.9-32.9,77.1-77.7c0.6-172,1.2-344.1,1.6-516.2c0-5-0.2-10,0.2-15
				c1.8-21.4,16.2-37.3,34.1-35.9c21.7,1.6,31.5,14.1,33,36.3c5.1,74.3,2.2,148.6,3.2,222.9c0.3,17.5,0,35.1,0,52.6L1091.2,564.9z"
				/>
			<path class="st0" d="M917.1,127c17.8,0.2,33.9,16.7,33.5,34.1c-0.4,15.9-17.4,32.4-33,32.2c-17.3-0.3-33.7-17.3-33.3-34.5
				C884.7,141.8,900.3,126.8,917.1,127z"/>
			<circle class="st0" cx="1030.2" cy="172.7" r="46.5"/>
		</g>
		<path class="st1" d="M553.5,561.4c6.7-7,15-10.4,25-10.4c33.3-1,60.5-10.4,81.6-28c21.2-17.6,31.7-42.9,31.7-75.6
			c0-28.3-9.7-51.8-29.1-70.5s-43.2-28-71.5-27.9c-15.8,0-31.5,3.4-45.8,10c-14.4,6.6-27.4,15.8-38.4,27.2
			c-9.9,8.9-19.8,13.4-29.8,13.4c-7,0-13.8-2.4-19.4-6.7c-10.9-7.9-16.4-17.1-16.4-27.6c0-9,3.7-17.2,11.2-24.6
			c17-19.4,38-34.9,61.5-45.4c24.2-11,50.5-16.6,77.1-16.4c31.8,0,60.7,7.2,86.8,21.6c25.7,14.1,47.2,34.8,62.2,60
			c15.4,25.6,23.1,54.5,23.1,86.8c0,29.8-6.6,56.2-19.7,79.3c-13,22.9-31.6,42.2-54,55.9c-22.9,14.1-48.7,22.7-77.5,25.7
			c-0.5,0-0.6,0.1-0.4,0.4c0.2,0.2,0.8,0.1,1.8-0.4v49.2c0,9.9-3.3,18.4-10,25.4c-6.5,6.8-15.6,10.6-25,10.4
			c-10.4,0-19-3.5-25.7-10.4c-6.7-6.9-9.8-15.4-9.3-25.4v-70C543.4,577,546.8,568.3,553.5,561.4z M548.6,818.8
			c-6.4-6.7-9.6-16-9.6-28v-14.1c0-11.9,3.2-21.2,9.6-28c6.4-6.7,15.6-10.1,27.6-10.1h7.5c11.9,0,21.1,3.3,27.6,10.1
			c6.5,6.7,9.6,16,9.6,28v14.1c0,11.9-3.2,21.3-9.6,28c-6.4,6.7-15.6,10.1-27.6,10.1h-7.5C564.3,828.9,555.1,825.5,548.6,818.8
			L548.6,818.8z"/>
	</g>
</g>
</svg>
