<svg xmlns="http://www.w3.org/2000/svg" viewBox="0 0 88.55 83.06"><defs><style>.cls-1{fill:none;}.cls-2{fill:#542a29;}.cls-3{fill:#733936;}.cls-4{fill:#603131;}.cls-5{fill:#e5ca2e;}.cls-6{fill:#fdea36;}.cls-7{fill:#ccb025;}.cls-8{fill:#f4d93b;}</style></defs><title>vanilla-bean-icon</title><g id="Layer_2" data-name="Layer 2"><g id="Vanilla"><g id="Vanilla_stick" data-name="Vanilla stick"><path class="cls-1" d="M27.25,35.19l0-.06.1.12Z"/><path class="cls-2" d="M76.75,82.06c.69.65-3,1.9-5.66,0C63.68,76.24,61,72.31,54.54,65.51c-4.85-5.1-18-18.36-27.23-30.26C66.26,77,68.28,77.51,76.75,82.06Z"/><path class="cls-2" d="M15.68,12.87c2.2,8,5.79,13,11.53,22.26C21.72,28.05,17.36,21.63,16.49,18,13,3.41,3.52,13.29,2.41,16.76c-1,3.29-2.05,2.58-2.33.55.7-1.15,1.5-2.34,2.16-3.54C2.44,10.47,13.47,4.84,15.68,12.87Z"/><path class="cls-3" d="M17.23,15.43c.23.82,2.62,2.4,2.62,2.4L21,18c-.59-1.15-1-2.06-1.26-2.64A9.26,9.26,0,0,0,19,14C18,14.35,17.07,14.84,17.23,15.43Z"/><path class="cls-3" d="M55.86,61.94c-6.92-7-12.45-11.92-18.23-18.89A160.18,160.18,0,0,1,21,18l-1.17-.21s-2.39-1.58-2.62-2.4c-.16-.59.73-1.08,1.8-1.47C15.27,7.8,5,5.85,1.66,10.39A10.35,10.35,0,0,0,.08,17.31c.7-1.15,1.5-2.34,2.16-3.54,1.78-3.26,8.87-7.49,13.44-.9,2.2,8,5.79,13,11.53,22.26l.1.12c40.56,43.6,31.24,33.66,40,42.61.79.79,5.11,4.19,7.34,4.83s2.88-.83,1.65-1.31C72.47,79.91,68.18,74.52,55.86,61.94Z"/></g><g id="Vanilla_stick-2" data-name="Vanilla stick"><path class="cls-1" d="M34,25.31l0-.06.1.11Z"/><path class="cls-2" d="M80.08,66.5c-6.49-2.7-35.71-30.11-46-41.14C76.63,63.49,75.19,61.92,80.08,66.5Z"/><path class="cls-2" d="M20.49,4.12C23.4,11.9,27.43,16.58,34,25.25A100.31,100.31,0,0,1,21.76,9.14C16.83.93,17.57-3.68,20.49,4.12Z"/><path class="cls-3" d="M81.65,65.55c-2.26-.18-4.32-3.07-5.31-3.81-3-2.22-10.55-9.84-16.32-15.4-7.52-6.41-8.57-7.71-15-14.13A159.63,159.63,0,0,1,26.28,8.79c-.7-1.09-1.21-2-1.5-2.52a9.2,9.2,0,0,0-.85-1.37C19.63-.9,15.35-2,20.49,4.12,23.4,11.9,27.43,16.58,34,25.25l.1.11c44.31,39.79,39.23,35.82,46,41.14,3.07,1.88,9,1.42,8.43-3.09C87.57,57.55,86.53,65.94,81.65,65.55Z"/></g><g id="Vanilla_Stick-3" data-name="Vanilla Stick"><path class="cls-1" d="M66.89,69.6c-.37-.28-.78-.59-1.21-.95A5,5,0,0,0,66.89,69.6Z"/><path class="cls-4" d="M46.89,47.58c-.83-1.43-19.77-23.89-20.8-25.3s-.31-2.77-2.34-4.93a2.36,2.36,0,0,0-.22,1.45,37.73,37.73,0,0,0,3.38,5.43C34.77,34.49,56.42,61,65.68,68.65a3.24,3.24,0,0,1-.24-.31C64.26,66.5,47.73,49,46.89,47.58Z"/><path class="cls-3" d="M70.73,70.81A3.7,3.7,0,0,0,72,70.46c.31-.19-3-1.18-3-1.18A29.4,29.4,0,0,1,62.3,63.2c-.53-.64-24.85-29.81-33.17-40.05-3.77-3.78-4-6.57-5.38-5.8,1.21,4,1.41,3.65,2.34,4.93s20,23.87,20.8,25.3S64.26,66.5,65.44,68.34a3.24,3.24,0,0,0,.24.31c.43.36.84.67,1.21.95A10,10,0,0,0,70.73,70.81Z"/><path class="cls-2" d="M66.89,69.6a10.26,10.26,0,0,0,1.32.84,4.2,4.2,0,0,0,2.52.37A10,10,0,0,1,66.89,69.6Z"/></g><g id="Flower"><g id="Shadows"><path class="cls-5" d="M21,32.9c1.7,14.82,10.1,15.38,16.75,14.33C31.8,46.84,24.28,47.24,21,32.9Z"/><path class="cls-5" d="M39.2,19.79h0c-1.44,4.55-2.74,9.13-1.38,15.9.53.66,1.13,1.31,1.76,2C38.3,35.74,38.21,25.18,39.2,19.79Z"/><path class="cls-5" d="M59.88,43.55c4.94-.16,10.13-7.9,8.53-14.16C67.84,33.21,67.73,38.08,59.88,43.55Z"/><path class="cls-5" d="M50.31,51c5.35,10.79,17.58,5.3,23.18-1.16C59,61.29,53.17,53.25,50.31,51Z"/><path class="cls-5" d="M37.72,47.23c-3.86,3.54-5.71,12.14.41,12.49,9.57-.9,10-1.79,12.18-8.68C51.09,48.52,36.82,48.36,37.72,47.23Z"/></g><path class="cls-6" d="M68.41,29.39C65,29.31,57.27,29.27,53.21,33c-.28-7.69-9.28-12.7-14-13.22-1,5.39-.9,16,.34,17.86-.63-.65-1.23-1.3-1.76-2a.15.15,0,0,0,0,.07c-8.65-6-10.7-.72-16.82-2.86C24.28,47.24,31.8,46.84,37.72,47.23c-4.48,5.6-2.62,8.15.76,9.66,1.86-1,9.36,3,11.83-5.85,2.86,2.21,8.69,10.25,23.18-1.16-4-.4-6-5.05-13.61-6.33C67.73,38.08,67.84,33.21,68.41,29.39Z"/><g id="Inside"><path class="cls-5" d="M52.24,41.65C56,40.3,60,37.14,60.92,34.52,58,36.86,55.55,39.2,52.24,41.65Z"/><path class="cls-5" d="M46.26,32c-.28,3.65.13,4.27,1.22,6.82C47.15,36.24,47.43,35.55,46.26,32Z"/><path class="cls-5" d="M46,46.16c-1.31,2-1.86,2.68-3.58,3.3C44.53,50.22,45.7,48,46,46.16Z"/><path class="cls-5" d="M34.07,40.17c1.45,2.31,6.88,3.71,10.19,3.3A33.09,33.09,0,0,1,34.07,40.17Z"/><path class="cls-5" d="M53,45.86c1.59,1.45,5.45,3.19,8.13,3.88C59.4,51,53.82,47.52,53,45.86Z"/></g></g><g id="Flower-2" data-name="Flower"><g id="Shadows-2" data-name="Shadows"><path class="cls-7" d="M40.41,37.31c-1.61,6.51,1.23,7.18,3.73,7.06C42.11,43.89,39.43,43.69,40.41,37.31Z"/><path class="cls-7" d="M48.56,32.51h0a17.51,17.51,0,0,0-2.72,6.78,9.74,9.74,0,0,0,.34.94C46,39.32,47.47,34.76,48.56,32.51Z"/><path class="cls-7" d="M52.66,43.86c1.84.18,4.83-3.06,5.08-5.94A10.25,10.25,0,0,1,52.66,43.86Z"/><path class="cls-7" d="M48.1,46.76c.38,5.29,5.73,3.44,8.75.74C49.8,52,48.82,47.92,48.1,46.76Z"/><path class="cls-7" d="M44.14,44.37c-1.89,1.38-3.84,5.17-1.71,5.67,3.58.14,3.89-.25,5.67-3.28C48.74,45.65,43.65,44.83,44.14,44.37Z"/></g><path class="cls-8" d="M57.74,37.92c-1.25-.19-4.05-.56-6,.9a5.18,5.18,0,0,0-3.14-6.31c-1.09,2.25-2.56,6.81-2.39,7.71a9.74,9.74,0,0,1-.34-.94v0c-2.14-3-3.62-.81-5.41-2-1,6.38,1.7,6.58,3.73,7.06C41.72,46.65,42,47.9,43,48.77c.81-.33,2.93,1.93,5.13-2,.72,1.16,1.7,5.24,8.75.74-1.45-.41-1.54-2.66-4.19-3.64A10.25,10.25,0,0,0,57.74,37.92Z"/><g id="Inside-2" data-name="Inside"><path class="cls-7" d="M50.14,42.61a8.06,8.06,0,0,0,4.15-2.76C52.91,40.76,51.69,41.68,50.14,42.61Z"/><path class="cls-7" d="M49.34,38.08a5.69,5.69,0,0,0-.52,3.05A12.8,12.8,0,0,0,49.34,38.08Z"/><path class="cls-7" d="M47.24,44.31c-.76.83-1.06,1.12-1.77,1.3C46.13,46.07,46.88,45.1,47.24,44.31Z"/><path class="cls-7" d="M43.88,41.06c.17,1.09,1.89,2,3.13,2A8.28,8.28,0,0,1,43.88,41.06Z"/><path class="cls-7" d="M49.81,44.55a6.73,6.73,0,0,0,2.44,2.2C51.43,47.22,49.88,45.34,49.81,44.55Z"/></g></g></g></g></svg>