<svg xmlns="http://www.w3.org/2000/svg" viewBox="0 0 173.45 173.03"><defs><style>.cls-1{fill:#a95e10;}.cls-2{fill:#e18600;}.cls-3{fill:#ffa726;}.cls-4{fill:#ffb245;}.cls-5{fill:#5e2f18;}.cls-6{fill:#823a16;opacity:0.46;}.cls-7{fill:#894d24;opacity:0.45;}.cls-8{fill:#c97300;}</style></defs><title>viewall-icon</title><g id="Layer_2" data-name="Layer 2"><g id="Step_Three" data-name="Step Three"><g id="Cookie"><path class="cls-1" d="M95.18,0l-1.3,2V3.62c.73,1.09,6.59,10.65-2.4,20.4-.93,1-1.87,2.66-2.13,2.66s-.06,4.54-6.08,9.07a17.66,17.66,0,0,1-.69,11.58c-2.61,1-4.23,1.77-5.61,8-1.48,1.28-6.59,4.12-9.21,3.83s-16.32.71-17.82,4.25c-4.83.7-15.55-.53-16.33-1-2.27.71-.4,2.2-4.34,1.75s-7.7-1.57-10.06.61-8.67,1.19-9.55.65A19.14,19.14,0,0,0,6.5,64.28L2.16,67.12,82,85l29.12-46.9L107,8.45Z"/><g id="Cookie-2" data-name="Cookie"><path class="cls-2" d="M171.7,69a21.7,21.7,0,0,1-2.4-3.65c-2.1-4.08-1.75-8.3-2.93-12.61a26.53,26.53,0,0,0-1.15-3.28L164.51,48c-.17-.35-.34-.7-.52-1s-.49-.92-.74-1.39c-3-5.22-7.1-9.93-10.22-15.09A86.56,86.56,0,0,0,95.18,0a24.42,24.42,0,0,1,.31,2.71c2.38,3.88,2.15,8.74,1.45,13.51s-3.62,7.56-6.64,10.17a12.27,12.27,0,0,1-.51,3.13c-.87,2.67-3.29,4.32-5.15,6.35a19.69,19.69,0,0,1-.22,8.18,12.91,12.91,0,0,1-3.35,5.56c-1,1.48-1.16,2.47-2.3,4.11a4.74,4.74,0,0,0-.91,2.92c-2.62.5-8,4.12-11.15,3.16a12.53,12.53,0,0,0-3.78.39,5.32,5.32,0,0,0-1.18.29c-.51.17-3.9.7-4.82,1.35-2.43.58-4.43,1.49-6.93,1.91-5.31.89-12.6.1-17.86,0a6.83,6.83,0,0,1-2.47,1.47,33.2,33.2,0,0,1-5.32-.89c-3.3.47-5.12,3.66-8.28,4.14-2.54.39-5.35-1.15-8-1.79a23.66,23.66,0,0,1-5.87.45,85.94,85.94,0,0,0-.81,34.32c2.31,4.8,4.17,9.75,4.36,15.2,0,.2,0,.41,0,.6.48,1.26,1,2.5,1.51,3.72a32.52,32.52,0,0,1,6.61,12.31A87.42,87.42,0,0,0,38.74,158.5a43.24,43.24,0,0,1,9.45,1.05c7.47,1.9,14,6.08,19.48,11.33A86.13,86.13,0,0,0,111,169.55c2-1,4.11-2,6.19-2.81,4.69-1.86,9.51-3.82,14.09-6.05,2.27-1.36,4.46-2.83,6.59-4.38,2.82-3,4.38-6.55,8.08-9.23a20.22,20.22,0,0,1,5-2.55,86.41,86.41,0,0,0,22.46-58.22A87.51,87.51,0,0,0,171.7,69Z"/><path class="cls-1" d="M0,86.31a86.79,86.79,0,0,0,1.35,15.13c2.31,4.8,4.17,9.75,4.36,15.2,0,.2,0,.41,0,.6.48,1.26,1,2.5,1.51,3.72a32.52,32.52,0,0,1,6.61,12.31A87.42,87.42,0,0,0,38.74,158.5a43.24,43.24,0,0,1,9.45,1.05c7.47,1.9,14,6.08,19.48,11.33A86.13,86.13,0,0,0,111,169.55c2-1,4.11-2,6.19-2.81,4.69-1.86,9.51-3.82,14.09-6.05,2.27-1.36,4.46-2.83,6.59-4.38,2.82-3,4.38-6.55,8.08-9.23a20.22,20.22,0,0,1,5-2.55,86.41,86.41,0,0,0,22.46-58.22A87.51,87.51,0,0,0,171.7,69a21.7,21.7,0,0,1-2.4-3.65c-2.1-4.08-1.75-8.3-2.93-12.61a26.53,26.53,0,0,0-1.15-3.28L164.51,48c-.17-.35-.34-.7-.52-1s-.49-.92-.74-1.39c-3-5.22-7.1-9.93-10.22-15.09A86.56,86.56,0,0,0,95.18,0a24.42,24.42,0,0,1,.31,2.71c2.38,3.88,2.15,8.74,1.45,13.51a12.73,12.73,0,0,1-1.88,5.06c3.06,1.6,7.26,2.87,9.6,1.07,3.84-3,1.77-11.24,14.49-10.94S154,39.79,159.65,47.48c-1.48,5.32,2.66,20.1,6.8,23.06,16,12.12-13.6,66.52-16.85,68.29s-7.39-1.48-11.83-2.66c1.18,2.66.14,8,0,12.42C128,164.55,85.15,175.79,73,166c-5.61-1.48-9.16-19.81-12.41-20.69s-12.72,3.25-20.4,6.21c-7.69,0-16.76-13.41-23.06-24.44s-5.92-18.73,6.21-28.49c-2.57.6-13.9,7.4-17.45,1.09C3,94.59,4.57,79.87,7.78,66.71a23.18,23.18,0,0,1-5.62.41A86.69,86.69,0,0,0,0,86.31Z"/><path class="cls-2" d="M166.45,70.54c-4.14-3-8.28-17.74-6.8-23.06-5.62-7.69-27.79-35.78-40.5-36.07s-10.65,8-14.49,10.94c-2.34,1.8-6.54.53-9.6-1.07a24.07,24.07,0,0,1-4.76,5.11,12.27,12.27,0,0,1-.51,3.13,10,10,0,0,1-2.72,3.94c4.77-2.2,10.61-3.18,16.7-.13,14.78,7.39,24.24,5,32.82,5.32s.59,17.44,7.09,19.81S155.89,67.3,158.17,73c3.46,8.57,1.81,19,0,23.94-2.07,5.62-12.12,7.4-15.67,21-3.11,17.79-8.28,27.5-21.29,31.64-14.48,1.18-6.79-5-36.06-5S57.06,130.3,47.89,123.8s4.44-21.88-8.27-25.13c-23.78-6.15-13.43-25.58-7.37-34.93h-.11a6.83,6.83,0,0,1-2.47,1.47,33.2,33.2,0,0,1-5.32-.89c-3.3.47-5.12,3.66-8.28,4.14-2.54.39-5.35-1.15-8-1.79l-.25,0C4.57,79.87,3,94.59,5.91,99.71c3.55,6.31,8.68,3.94,11.24,3.35-2.37,5.12-6.31,13,0,24s15.37,24.44,23.06,24.44c7.68-3,17.15-7.1,20.4-6.21S67.41,164.55,73,166c12.13,9.76,55-1.48,64.75-17.44.14-4.43,1.18-9.76,0-12.42,4.44,1.18,8.57,4.44,11.83,2.66S182.41,82.66,166.45,70.54Z"/><path class="cls-3" d="M39.62,98.67c12.71,3.25-.89,18.62,8.27,25.13s8,20.69,37.26,20.69,21.58,6.21,36.06,5c13-4.14,18.18-13.85,21.29-31.64,3.55-13.59,13.6-15.37,15.67-21,1.81-4.9,3.46-15.37,0-23.94-2.28-5.65-8-12.12-14.49-14.49s1.48-19.51-7.09-19.81-18,2.07-32.82-5.32c-6.09-3-11.93-2.07-16.7.13-.81.8-1.66,1.57-2.43,2.41a19.69,19.69,0,0,1-.22,8.18,12.91,12.91,0,0,1-3.35,5.56c-1,1.48-1.16,2.47-2.3,4.11a4.74,4.74,0,0,0-.91,2.92c-2.62.5-8,4.12-11.15,3.16a12.53,12.53,0,0,0-3.78.39,5.32,5.32,0,0,0-1.18.29c-.51.17-3.9.7-4.82,1.35-2.43.58-4.43,1.49-6.93,1.91-5.27.88-12.5.11-17.75,0C26.19,73.09,15.84,92.52,39.62,98.67Z"/><path class="cls-4" d="M59.92,83.55c4.33-1.58,11.82-3.33,12.61.31s2,7.18,6.31,9.94,25.73.52,29.56-3.26C117.08,82,110.65,73.3,112.68,65S98.63,48.48,94.21,39A9.65,9.65,0,0,0,87,33.54c-.78.78-1.61,1.52-2.35,2.33a19.69,19.69,0,0,1-.22,8.18,12.91,12.91,0,0,1-3.35,5.56c-1,1.48-1.16,2.47-2.3,4.11a4.74,4.74,0,0,0-.91,2.92c-2.62.5-8,4.12-11.15,3.16a12.53,12.53,0,0,0-3.78.39,5.32,5.32,0,0,0-1.18.29c-.51.17-3.9.7-4.82,1.35-2.43.58-4.43,1.49-6.93,1.91l-.61.08a11.44,11.44,0,0,0-.9,4.35C48.12,80.88,55.58,85.12,59.92,83.55Z"/></g><g id="choco_chips" data-name="choco chips"><g id="chip"><path class="cls-5" d="M56,145.79a15.38,15.38,0,0,1,3.15-13.56c2.69-1.49,8.67-1.77,11-.59s-.79,10.56,0,14.15S57.22,151.63,56,145.79Z"/><path class="cls-6" d="M59.72,133.11c-2,2.95-3.28,5.27-3,9,1.63.76,10.43.64,11.17-1.16s2-8.69,1.55-8.69S62.09,130.92,59.72,133.11Z"/><path class="cls-7" d="M60.51,133.22c-1.26,1.88-2,2.95-2,3.94s8.08.49,8.67-.5,1.28-3.84.59-3.94S61.34,132,60.51,133.22Z"/></g><g id="chip-2" data-name="chip"><path class="cls-5" d="M102,95.22a10.57,10.57,0,0,1,2.25-9.31c1.86-1,6-1.17,7.6-.34s-.61,7.27-.09,9.74S102.83,99.25,102,95.22Z"/><path class="cls-6" d="M104.67,86.52c-1.41,2-2.29,3.6-2.09,6.16,1.11.53,7.17.5,7.69-.73s1.42-6,1.12-6S106.31,85,104.67,86.52Z"/><path class="cls-7" d="M105.21,86.6c-.88,1.29-1.37,2-1.38,2.7s5.56.39,6-.29.91-2.63.43-2.71S105.79,85.75,105.21,86.6Z"/></g><g id="chip-3" data-name="chip"><path class="cls-5" d="M51.82,83.15a7.51,7.51,0,0,1-1.71-6.58,7.73,7.73,0,0,1,4.65-2.76c1.29,0,2.05,4.75,3.21,6.13S53.68,85.4,51.82,83.15Z"/><path class="cls-6" d="M50.57,76.82a6.1,6.1,0,0,0,.75,4.55c.88,0,4.66-2.08,4.58-3s-1.11-4.22-1.3-4.11S51.1,75.33,50.57,76.82Z"/><path class="cls-7" d="M50.93,76.68a4.25,4.25,0,0,0,0,2.16c.23.42,3.61-1.62,3.65-2.18s-.32-2-.64-1.84S51,76,50.93,76.68Z"/></g><g id="triangle"><path class="cls-5" d="M13.59,104.34c-1-4.71,5.27-4.27,10.23-6.31a16.35,16.35,0,0,1-.92,9.86C21.57,111.31,14.83,110.18,13.59,104.34Z"/><path class="cls-6" d="M23.21,99.14c-3.74.5-7.91,2-8.13,3.92s2.52,5.81,5.17,5.32S23.73,102.76,23.21,99.14Z"/><path class="cls-7" d="M22.17,100c-1.39-.13-4.23.73-4.43,1.57s2.66,4.14,3.84,3.16S23.19,101,22.17,100Z"/></g><g id="triangle-2" data-name="triangle"><path class="cls-5" d="M115,154.83c-4.2-2.35.26-6.78,2-11.85a16.42,16.42,0,0,1,6.8,7.18C125.48,153.42,120.19,157.75,115,154.83Z"/><path class="cls-6" d="M117.4,144.17c-2.08,3.15-3.7,7.27-2.4,8.7s6,1.93,7.41-.39S120.47,146.17,117.4,144.17Z"/><path class="cls-7" d="M117.33,145.49c-1,1-2.23,3.67-1.73,4.37s4.87.73,4.9-.81S118.82,145.43,117.33,145.49Z"/></g><g id="circle"><path class="cls-5" d="M64.45,106.16c-2,1.67-4,9.17,2.07,9.17,3.84,0,2.81-3.51,3.88-4,1.48.19,2.85-3.12,2.62-4S70.07,101.43,64.45,106.16Z"/><path class="cls-6" d="M64.82,106.72c-1.15,1-1.88,5.47-.37,6.24s4.25.48,4.62-1.62,1.4-1.09,1.92-1.3,2-1.7,1.18-2.51S69.37,102.8,64.82,106.72Z"/><path class="cls-7" d="M67.76,105.72c-1.42-.07-2.87,1.63-2.75,2.44s2.32,1.85,3.32,1.37,1.92.14,2.44-.19S72.11,105.94,67.76,105.72Z"/></g><g id="circle-2" data-name="circle"><path class="cls-5" d="M100.73,43.9c-2.14,1.44-5,8.68,1.06,9.34,3.82.42,7.47-6.37,7.33-7.22S106.83,39.81,100.73,43.9Z"/><path class="cls-6" d="M101,44.49c-1.25.87-2.27,5-1.05,6.17,3.24,3.17,9-3.66,8.27-4.55S106,41.1,101,44.49Z"/><path class="cls-7" d="M104.07,43.82c-1.4-.22-3,1.31-3,2.13s2.12,2.09,3.16,1.72,1.89.36,2.45.08S108.36,44.52,104.07,43.82Z"/></g><g id="circle-3" data-name="circle"><path class="cls-5" d="M102.89,131.24c-1.11.75-2.59,4.52.55,4.87,2,.22,3.9-3.32,3.82-3.77S106.07,129.11,102.89,131.24Z"/><path class="cls-6" d="M103.05,131.55c-.65.45-1.18,2.59-.54,3.21,1.68,1.66,4.66-1.9,4.3-2.37S105.63,129.78,103.05,131.55Z"/><path class="cls-7" d="M104.63,131.2a1.54,1.54,0,0,0-1.56,1.11c0,.43,1.1,1.09,1.64.9s1,.18,1.27,0S106.87,131.56,104.63,131.2Z"/></g><g id="circle-4" data-name="circle"><path class="cls-5" d="M141.73,67.48c-1.12.75-2.59,4.52.55,4.87,2,.22,3.89-3.32,3.82-3.77S144.91,65.35,141.73,67.48Z"/><path class="cls-6" d="M141.89,67.79c-.65.45-1.18,2.6-.55,3.22,1.69,1.65,4.67-1.91,4.31-2.38S144.47,66,141.89,67.79Z"/><path class="cls-7" d="M143.47,67.44a1.57,1.57,0,0,0-1.57,1.11c0,.43,1.1,1.09,1.65.9s1,.18,1.27,0S145.71,67.81,143.47,67.44Z"/></g><g id="circle-5" data-name="circle"><path class="cls-5" d="M142.16,58.12c-.24,2.25,3,8.22,6.85,4.56,2.43-2.32,0-8.59-.7-9S142.87,51.73,142.16,58.12Z"/><path class="cls-6" d="M142.73,58.25c-.13,1.32,2.05,4.33,3.54,4.18,3.95-.38,2.6-8.06,1.62-8.1S143.25,53,142.73,58.25Z"/><path class="cls-7" d="M144,55.84a2.61,2.61,0,0,0-.27,3.21c.56.45,2.59-.23,2.93-1.14s1.31-1.06,1.44-1.59S146.88,53.36,144,55.84Z"/></g><g id="triangle-3" data-name="triangle"><path class="cls-5" d="M110.53,29.1c-3.14-3.65,2.57-6.28,5.94-10.45a16.35,16.35,0,0,1,3.93,9.09C120.88,31.38,114.43,33.63,110.53,29.1Z"/><path class="cls-6" d="M116.47,19.92c-3,2.24-6,5.55-5.25,7.34s5,3.89,7.1,2.18S118.66,22.85,116.47,19.92Z"/><path class="cls-7" d="M116,21.13c-1.28.56-3.36,2.69-3.13,3.52s4.32,2.35,4.89.91S117.36,21.59,116,21.13Z"/></g><g id="circle-6" data-name="circle"><path class="cls-5" d="M145,108.61c-2.54.5-7.93,6.09-2.63,9,3.37,1.86,4.16-1.72,5.35-1.65,1.2.88,4-1.35,4.21-2.19S152.15,107.18,145,108.61Z"/><path class="cls-6" d="M145,109.27c-1.49.31-4.29,3.88-3.34,5.29s3.48,2.47,4.83.81,1.75-.27,2.31-.21,2.53-.53,2.24-1.62S150.87,108,145,109.27Z"/><path class="cls-7" d="M148.06,109.82c-1.21-.75-3.3,0-3.59.8s1.14,2.74,2.25,2.81,1.61,1.06,2.22,1S151.75,112.11,148.06,109.82Z"/></g></g><g id="cracks"><path class="cls-8" d="M77.88,166.08c1.42-3-.57-3.15.76-5.07s3-3.55,3-4.73c-.45,3.74-2.37,5.22-2.42,6s.49,3.39.44,3.84a17.07,17.07,0,0,1-1.47,2.66S77.41,167.07,77.88,166.08Z"/><path class="cls-8" d="M89.14,161c.49-1,2.51-1.53,2.71-1.73s1.38-1.43,1.38-1.92,1.57-2,1.57-2c-.39,1-1.38,1.72-1.13,2.81s-1.7,1.67-1.7,1.67-1.55.2-1.8.89-2,2.12-2,2.12Z"/><path class="cls-8" d="M92,138.93A56.9,56.9,0,0,0,98,141.69s4.43-1.18,6.45-.69,4.49-.34,4.88-.86,4.44-1.9,4.44-1.9c-3.16,1.9-3.85,2.37-4.54,3.45s-6.12.67-7,0-3.57.8-4.46,1.29S92,138.93,92,138.93Z"/><path class="cls-8" d="M29.56,122.87l-3.94,7.59s6.61,3.94,8.08,7.78,7.69.4,9.46,1.23,2.07,3.11,4,3.06,2.56-2.56,3.35-2.39c-2.37-.32-1.58,3.42-6.51-1.9-3.94.2-6.7,1.18-8.18,0s-5.61-7-7.88-7.38S29.56,122.87,29.56,122.87Z"/><path class="cls-8" d="M31.54,112.08S33.9,115,34,116.9s-1.87,5.47-1.77,6.66,3,5.52,3,5.52c-.89-2.76-2.17-4.93-.79-7.49S35,115.18,31.54,112.08Z"/><path class="cls-8" d="M98.16,111.34c1.77,1.48,7.6,0,10.15,0a23,23,0,0,1,9.56,3.1c1.87,1.33,8.08-6.48,10.44-5.38-3.84-1.27-7,3-8.43,3.58s-11.16-2.26-11.16-2.26l-6.17.88s-4.54-.52-4.76-2.44S98.16,111.34,98.16,111.34Z"/><path class="cls-8" d="M116.83,70.09c.82-2.09.81-5.12-1.94-6.46a10.32,10.32,0,0,1,1.33-3.69c1-1.42,1-6,.81-6.3-.39-1.48.69-6.56,1.43-7.39-1.88,1.58-1.73,7.44-1.73,8.5a33.55,33.55,0,0,1-.84,4.44L114,63.28l0,0a8.84,8.84,0,0,0-2.6-.35c-6.16,0-10.34-2.6-12-6,0,1.79,2.68,4.86,5.23,5.47s9.45,1.4,9.45,1.4,2.61,1.6,2.56,3.26-1.33,5.36-1,6.2a17.67,17.67,0,0,0,2.41,2.9C116.78,74.14,115.75,72.85,116.83,70.09Z"/><path class="cls-8" d="M158.37,80c-1.28,1-1.78,4.07-3,5.68s.59,5.16-2,7.33-9,5.22-9,5.22l-.92,3.65s1.5-4.54,5.42-5,6.68-4.73,6.68-4.73l.29-4.83L158.37,79"/></g><g id="circles"><circle class="cls-8" cx="24.49" cy="112.47" r="1.13"/><circle class="cls-8" cx="20.38" cy="111.9" r="0.57"/><ellipse class="cls-8" cx="19.27" cy="119.07" rx="1.13" ry="0.84"/><circle class="cls-8" cx="47.96" cy="85.16" r="1.35"/><circle class="cls-8" cx="53.11" cy="86.91" r="0.39"/><circle class="cls-8" cx="47.03" cy="92.93" r="2.39"/><circle class="cls-8" cx="24.25" cy="88.79" r="0.9"/><circle class="cls-8" cx="27.17" cy="90.22" r="0.32"/><circle class="cls-8" cx="22.47" cy="92.17" r="0.89"/><circle class="cls-8" cx="27.33" cy="93.66" r="0.16"/><circle class="cls-8" cx="38.85" cy="97.47" r="0.17"/><ellipse class="cls-8" cx="59.13" cy="112" rx="0.25" ry="0.07"/><circle class="cls-8" cx="60.99" cy="116.2" r="0.38"/><ellipse class="cls-8" cx="60.53" cy="109.59" rx="0.81" ry="0.96"/><ellipse class="cls-8" cx="57.65" cy="114.89" rx="0.59" ry="0.44"/><circle class="cls-8" cx="71.01" cy="116.55" r="0.35"/><ellipse class="cls-8" cx="77.75" cy="141.92" rx="2.66" ry="2.44"/><circle class="cls-8" cx="80.23" cy="135.84" r="1.35"/><circle class="cls-8" cx="76.53" cy="131.05" r="1.19"/><circle class="cls-8" cx="144.08" cy="82.12" r="1.92"/><circle class="cls-8" cx="146" cy="76.53" r="0.32"/><circle class="cls-8" cx="138.07" cy="75.51" r="0.7"/><circle class="cls-8" cx="93.88" cy="41.4" r="2.4"/><circle class="cls-8" cx="91.97" cy="47.82" r="0.49"/><circle class="cls-8" cx="89.35" cy="42.6" r="1.2"/><circle class="cls-8" cx="120.99" cy="36.4" r="1.74"/><circle class="cls-8" cx="122.58" cy="30.85" r="0.78"/><circle class="cls-8" cx="128.25" cy="33.48" r="2.3"/><circle class="cls-8" cx="115.48" cy="99.94" r="2.39"/><circle class="cls-8" cx="116" cy="92.99" r="0.82"/><circle class="cls-8" cx="138.77" cy="122.87" r="2.69"/><circle class="cls-8" cx="142.74" cy="132.14" r="1.68"/><circle class="cls-8" cx="145.11" cy="122.87" r="2.17"/><circle class="cls-8" cx="136.6" cy="130.39" r="0.52"/><circle class="cls-8" cx="139" cy="128.64" r="0.23"/><circle class="cls-8" cx="151.5" cy="71.87" r="0.43"/><circle class="cls-8" cx="71.84" cy="64.8" r="2.37"/><ellipse class="cls-8" cx="65.06" cy="65.45" rx="1.46" ry="0.65"/><circle class="cls-8" cx="67.93" cy="68.64" r="0.17"/><circle class="cls-8" cx="39.95" cy="67.36" r="1.91"/><circle class="cls-8" cx="45.11" cy="69.74" r="0.46"/><circle class="cls-8" cx="63.72" cy="67.23" r="0.13"/><circle class="cls-8" cx="66.54" cy="61.83" r="0.61"/><circle class="cls-8" cx="97.43" cy="54.47" r="0.31"/><circle class="cls-8" cx="104.97" cy="55.87" r="1.1"/></g></g></g></g></svg>