<?xml version="1.0" encoding="utf-8"?>
<!-- Generator: Adobe Illustrator 23.0.1, SVG Export Plug-In . SVG Version: 6.00 Build 0)  -->
<svg version="1.1" id="Layer_1" xmlns="http://www.w3.org/2000/svg" xmlns:xlink="http://www.w3.org/1999/xlink" x="0px" y="0px"
	 viewBox="0 0 209.4 209.4" style="enable-background:new 0 0 209.4 209.4;" xml:space="preserve">
<style type="text/css">
	.st0{opacity:0.47;}
	.st1{fill:#D1BDB6;}
	.st2{fill:#BA9D93;}
	.st3{enable-background:new    ;}
	.st4{fill:#55372D;}
</style>
<title>x1button</title>
<g>
	<g id="Step_Three">
		<g id="icons" class="st0">
			<circle class="st1" cx="104.7" cy="104.7" r="104.7"/>
			<path class="st2" d="M196.3,155.3c-35.5,45.6-101.2,53.8-146.9,18.3C8.8,142-2.8,85.5,22.1,40.4C-13.4,86-5.2,151.8,40.4,187.3
				s111.4,27.3,146.9-18.3C190.7,164.6,193.7,160,196.3,155.3z"/>
		</g>
		<g class="st3">
			<path class="st4" d="M93.8,105.8l15.8,24.1H99.2l-10.4-17.4l-11,17.4H67.7l16.2-24.2L68.7,82.3h10.4l9.9,16.8l10.2-16.8h10.3
				L93.8,105.8z"/>
			<path class="st4" d="M113.3,87.6v-9.8l15.3-9.1h8.3v61.3h-9.1V78.7L113.3,87.6z"/>
		</g>
	</g>
</g>
</svg>
