<?xml version="1.0" encoding="utf-8"?>
<!-- Generator: Adobe Illustrator 23.0.1, SVG Export Plug-In . SVG Version: 6.00 Build 0)  -->
<svg version="1.1" id="Layer_1" xmlns="http://www.w3.org/2000/svg" xmlns:xlink="http://www.w3.org/1999/xlink" x="0px" y="0px"
	 viewBox="0 0 209.4 209.4" style="enable-background:new 0 0 209.4 209.4;" xml:space="preserve">
<style type="text/css">
	.st0{opacity:0.47;}
	.st1{fill:#D1BDB6;}
	.st2{fill:#BA9D93;}
	.st3{enable-background:new    ;}
	.st4{fill:#55372D;}
</style>
<title>x2button</title>
<g>
	<g id="Step_Three">
		<g id="icons" class="st0">
			<circle class="st1" cx="104.7" cy="104.7" r="104.7"/>
			<path class="st2" d="M196.3,155.3c-35.5,45.6-101.2,53.8-146.9,18.3C8.8,142-2.8,85.5,22.1,40.4C-13.4,86-5.2,151.8,40.4,187.3
				s111.4,27.3,146.9-18.3C190.7,164.6,193.7,160,196.3,155.3z"/>
		</g>
		<g class="st3">
			<path class="st4" d="M92.4,105.8l15.8,24.1H97.9l-10.4-17.4l-11,17.4H66.4l16.2-24.2L67.4,82.3h10.4l9.9,16.8L98,82.3h10.3
				L92.4,105.8z"/>
			<path class="st4" d="M126.5,122h26.6v8h-39.3v-7.6c7.9-5.8,14.5-11.7,19.9-17.9c5.4-6.2,8.1-11.8,8.1-16.8c0-3.6-1-6.3-3.1-8.2
				c-2.1-1.9-4.9-2.9-8.5-2.9c-5,0-9.9,1.9-14.7,5.6v-9.1c4.5-3.4,9.8-5.2,16-5.2c5.8,0,10.5,1.6,14.3,4.8c3.8,3.2,5.6,7.8,5.6,13.7
				C151.4,97.5,143.1,109.3,126.5,122z"/>
		</g>
	</g>
</g>
</svg>
