<?xml version="1.0" encoding="utf-8"?>
<!-- Generator: Adobe Illustrator 23.0.1, SVG Export Plug-In . SVG Version: 6.00 Build 0)  -->
<svg version="1.1" id="Layer_1" xmlns="http://www.w3.org/2000/svg" xmlns:xlink="http://www.w3.org/1999/xlink" x="0px" y="0px"
	 viewBox="0 0 209.4 209.4" style="enable-background:new 0 0 209.4 209.4;" xml:space="preserve">
<style type="text/css">
	.st0{opacity:0.47;}
	.st1{fill:#D1BDB6;}
	.st2{fill:#BA9D93;}
	.st3{enable-background:new    ;}
	.st4{fill:#55372D;}
</style>
<title>x3button</title>
<g>
	<g id="Step_Three">
		<g id="icons" class="st0">
			<circle class="st1" cx="104.7" cy="104.7" r="104.7"/>
			<path class="st2" d="M196.3,155.3c-35.5,45.6-101.2,53.8-146.9,18.3C8.8,142-2.8,85.5,22.1,40.4C-13.4,86-5.2,151.8,40.4,187.3
				s111.4,27.3,146.9-18.3C190.7,164.6,193.7,160,196.3,155.3z"/>
		</g>
		<g class="st3">
			<path class="st4" d="M93.1,104.8l15.8,24.1H98.5l-10.4-17.4l-11,17.4H67l16.2-24.2L68.1,81.3h10.4l9.9,16.8l10.2-16.8h10.3
				L93.1,104.8z"/>
			<path class="st4" d="M116.4,79.2v-8.9c3.9-2.3,8.2-3.4,12.9-3.4c6.2,0,11.1,1.5,14.7,4.6c3.5,3.1,5.3,7,5.3,11.7
				c0,3.4-0.8,6.3-2.5,8.9c-1.7,2.5-4.1,4.5-7.4,5.8c3.6,0.9,6.3,2.5,8.3,5c2,2.4,3,5.5,3,9.2c0,5.1-1.8,9.2-5.4,12.5
				c-3.6,3.3-8.7,4.9-15.3,4.9c-6.2,0-11.4-1.1-15.7-3.2v-9c4.6,2.5,9.7,3.8,15.2,3.8c3.7,0,6.6-0.9,8.7-2.8
				c2.1-1.8,3.1-4.2,3.1-7.1c0-3-1.2-5.3-3.5-6.9c-2.3-1.6-5.8-2.4-10.4-2.4h-3.8V94h3.8c3.4,0,6.3-0.9,8.7-2.6
				c2.3-1.7,3.5-4.1,3.5-7.1s-1-5.2-2.9-6.8c-1.9-1.5-4.5-2.2-7.8-2.2C124.8,75.3,120.6,76.6,116.4,79.2z"/>
		</g>
	</g>
</g>
</svg>
