<svg xmlns="http://www.w3.org/2000/svg" viewBox="0 0 45.91 44.12"><defs><style>.cls-1{fill:#fff;fill-rule:evenodd;}</style></defs><title>xMenu</title><g id="Layer_2" data-name="Layer 2"><g id="Layer_1-2" data-name="Layer 1"><g id="Step_Three" data-name="Step Three"><g id="Menu"><path class="cls-1" d="M6.47,1.48,44.6,37.74a3.65,3.65,0,0,1,.47,5.11h0a3.65,3.65,0,0,1-5.13-.21L1.82,6.37a3.63,3.63,0,0,1-.47-5.1h0A3.64,3.64,0,0,1,6.47,1.48Z"/></g></g><path class="cls-1" d="M1.26,38.09,38.8,1.21A3.65,3.65,0,0,1,43.92.92h0A3.65,3.65,0,0,1,43.54,6L6,42.91a3.65,3.65,0,0,1-5.12.29h0A3.63,3.63,0,0,1,1.26,38.09Z"/></g></g></svg>