<svg xmlns="http://www.w3.org/2000/svg" xmlns:xlink="http://www.w3.org/1999/xlink" viewBox="0 0 649.05 667.09"><defs><style>.cls-1{fill:url(#radial-gradient);}.cls-2{fill:url(#radial-gradient-2);}.cls-3{fill:#917154;opacity:0.3;}.cls-4{fill:#c69f7b;}.cls-4,.cls-5,.cls-6{opacity:0.08;}.cls-5{fill:#3d2c20;}.cls-6{fill:#261b13;}</style><radialGradient id="radial-gradient" cx="385.19" cy="683.73" r="354.44" gradientUnits="userSpaceOnUse"><stop offset="0" stop-color="#362b23"/><stop offset="0.14" stop-color="#472e16"/></radialGradient><radialGradient id="radial-gradient-2" cx="288.93" cy="359.36" r="902.56" gradientUnits="userSpaceOnUse"><stop offset="0" stop-color="#8c6239"/><stop offset="0.36" stop-color="#896139"/><stop offset="0.58" stop-color="#815c39"/><stop offset="0.77" stop-color="#725438"/><stop offset="0.94" stop-color="#5d4837"/><stop offset="1" stop-color="#544337"/></radialGradient></defs><title>Chocolate_1</title><g id="Layer_2" data-name="Layer 2"><g id="Step_Three" data-name="Step Three"><path class="cls-1" d="M334.37,28.18c-123.58.34-167.09,52.37-197,58.61S112.41,113,81.24,125.44-3.56,290,.19,371.09s28.68,94.77,28.68,94.77C45.08,580.58,229.62,681.58,282,665.37s218.21,2.49,283-97.26,87.29-125.94,77.31-274.33C611.34,185.08,502.71,27.71,334.37,28.18Z"/><path class="cls-2" d="M338.78,1.18c-123.57.34-167.09,52.37-197,58.6S116.83,86,85.65,98.44.86,263,4.6,344.09s28.68,94.77,28.68,94.77C49.49,553.58,234,654.58,286.41,638.37s218.22,2.49,283.06-97.26,87.29-125.94,77.31-274.33C615.75,158.08,507.12.71,338.78,1.18Z"/><path class="cls-3" d="M57.15,445.7S32.21,432,28.47,350.93s49.88-233.18,81.05-245.65,26.19-32.42,56.11-38.65S239.08,8.36,362.65,8a261.78,261.78,0,0,1,53.41,5.31A261.08,261.08,0,0,0,338.78,1.91c-123.57.34-167.09,52.38-197,58.61S116.83,86.71,85.65,99.18.86,263.77,4.6,344.83s28.68,94.76,28.68,94.76c14,98.8,152.77,187.42,224.49,199.76C182.87,614.9,69.68,534.41,57.15,445.7Z"/><path class="cls-4" d="M497.88,55.63c-77-60-177.58-73.18-266.32-31.09C192.38,43.11,115,80.25,93.93,118.64c-22.62,41.2-17.41,89.62,20.1,122.81,14.67,13,64.38,20.19,81.46,29.45,4.23,2.29,8.44,4.63,12.53,7.16,1.64,1,7,4.87,6.41,4.22a90,90,0,0,1,7.07,6.88l.17.34c1.23,2.47,2.67,4.8,3.82,7.33,4.64,10.19,15.65,15.82,26.74,16.73a34.93,34.93,0,0,0,24.3,25.37c18,4.93,38-6,42.75-24.28.7-2.7,5.27-11.28.84-3.73,1.26-2.15,2.56-4.36,3.76-6.55.15-.27.25-.47.36-.69s.21-.2.35-.35c2.41-2.5,4.69-5.07,7.22-7.44,1.94-1.82,4-3.49,6-5.26l.88-.81.62-.44q7.83-5.67,15.79-11.16c22.36-15.44,46.05-31.6,59.28-56.14C423.59,205,424.57,188,426.09,169c.44-5.51.09-.91,1.1-5.42l.05-.22a10.61,10.61,0,0,0,1-1.61c.53-.78.91-1.36,1.15-1.75.61-.68,1.19-1.38,1.82-2,2-2,4.12-3.84,6.19-5.75l.89-.83c.31-.19.71-.44,1.28-.82,3.32-2.19,6.57-4.5,9.9-6.69,5.06-3.32,10.19-6.56,15.18-10,15.21-10.44,27.54-21.5,38.7-36.15C511.62,86.85,508.88,64.21,497.88,55.63Z"/><path class="cls-5" d="M606.23,291.91c15.18-33.59,11-71.67-12.31-100.49-10.3-12.71-30.82-37.8-46.79-42.11-17.13-4.63-34.43,1.59-43.27,18.31-3.46,6.54-1.67,25.42-3.55,32.51-.46,1.76-.94,3.51-1.51,5.24-.23.69-1.16,3-1,2.73a34.53,34.53,0,0,1-1.9,3.2l-.11.1c-.8.67-1.52,1.4-2.35,2-3.32,2.61-4.41,7.15-3.76,11.3a13.06,13.06,0,0,0,5.58,24.7c1,0,4.6.93,1.44,0,.9.27,1.83.55,2.74.79l.28.08.16.09c1.13.66,2.28,1.27,3.38,2,.84.55,1.63,1.16,2.46,1.73l.37.25.22.19q2.78,2.37,5.51,4.8c7.65,6.83,15.69,14.08,25.87,16.75,7.1,1.86,13.41.71,20.51-.43,2.07-.33.35-.05,2.09-.08h.09a4.57,4.57,0,0,0,.67.21c.34.13.58.22.75.27s.61.31.91.49c.92.54,1.77,1.17,2.66,1.75l.38.25c.1.1.23.23.42.4,1.1,1,2.24,2,3.33,3,1.68,1.56,3.32,3.15,5,4.68a60.92,60.92,0,0,0,16.71,11C596,299.73,604.07,296.71,606.23,291.91Z"/><path class="cls-6" d="M603.42,337.59c-19.73-34.88-60-56.88-100.09-52.21s-72.74,29.41-89.52,66.23a259.71,259.71,0,0,0-16.5,49.53c-1.78,7.66-3.26,15.39-5,23.06A80.34,80.34,0,0,1,389.1,436c-1.51,3.86-.35.42-.07-.06-.39.67-.71,1.2-1,1.64-4.92,4.32-15,7.77-22,10.28a244.35,244.35,0,0,1-31.73,9c-19.23,4.06-39.72,4.88-60.95,3.31-46.43-3.43-92.58-14.7-138.21.84-17.51,6-27.72,22.6-23.3,41.05,9.83,41.13,41,76.2,80.32,91.37,33.89,33.68,86.31,42.33,132.41,37.42,53.12-5.66,108.52-18.14,154.38-46.67,3.61-2.25,7.15-4.64,10.65-7.11a55.58,55.58,0,0,0,12.43-1.79c23.29-6.18,38-25.63,49.09-45.74,6.78-12.33,13-25,18.62-37.94a192.79,192.79,0,0,0,27-34.72C618.58,420.81,624.77,375.33,603.42,337.59Z"/></g></g></svg>