<svg xmlns="http://www.w3.org/2000/svg" viewBox="0 0 295.11 299.28"><defs><style>.cls-1{fill:#b78c6c;}.cls-2,.cls-3{fill:#d3ac92;}.cls-2{opacity:0.57;}.cls-4{fill:#a3765f;opacity:0.15;}.cls-5{fill:#e0c7bd;}.cls-6{fill:#6b4b3d;}</style></defs><title>cookie-2</title><g id="Layer_2" data-name="Layer 2"><g id="Chocolate_lines_Cookie" data-name="Chocolate lines Cookie"><g id="Base"><path class="cls-1" d="M143.58,0c22,.67,38.7,9.83,62.64,13C217,17.68,231.73,22.11,241,29.17c8.15,6.29,36.95,44.71,36.34,54s18.49,45.09,17.75,66.81c-1.19,34.66-15.4,67.28-37.86,93.12-27.65,16.21-65.41,52.06-107.65,55.55C115.27,301.5,83,294.56,58,276.33c-8.79-6.4-16.37-18-23.3-27-8.32-10.85-19.49-23.06-24.57-37.66C8.73,208,.4,192.5,1,181.83,1.68,166.5-1.16,168.26.56,153c2.55-22.67,10.21-40,12.13-70.67C18.27,59.17,38.47,43.18,57.81,29.7,83.87,11.54,109.58,3.33,143.58,0Z"/><path class="cls-2" d="M19.25,80.67c0,9.22-1,55-7,73s3,44,8,50,23,31,26,41,40,37,53,39,56,13,90-6c35-11,53-40,64-42s40-57,38-68,2-51-20-77c0-12-29-62-41-60s-43,1-52-5-23-20-43-14-48-1-82,34C38.25,46.67,19.25,73.67,19.25,80.67Z"/><path class="cls-3" d="M90.25,48.67c-10.87,11.95-43,0-52,35s6,64,1,77-5,42,14,56,17,27,51,31,71-49,93-39,55,5,60-3,27-45,19-47-6-6-4-13,0-35-15-46-23-38-38-46S110.25,26.67,90.25,48.67Z"/><path class="cls-4" d="M211.58,230.67c-9.58,1.32-31,4.33-35,10s-9,20.66-13.67,24.33,7.67,7,17,4,21.67-16.67,27-20,10-10.33,17.34-11,12.33-3.33,14.66-5.33S221.25,229.33,211.58,230.67Z"/><path class="cls-4" d="M116.91,114.67c10.72.82,12,1.33,16,7.33s-4,6,.67,18-4.67,8.67-14.67,8.67-24.66-12-18.66-19.34S108.25,114,116.91,114.67Z"/><path class="cls-4" d="M68.25,58.67c10.71.82,12,1.33,16,7.33s12.66-.67,17.33,11.33S80.25,92.67,70.25,92.67s-24.67-12-18.67-19.34S59.58,58,68.25,58.67Z"/></g><g id="Choco_chips" data-name="Choco chips"><path class="cls-5" d="M64.75,65.67c-3.12.55-1,11,3.5,10S81.75,62.67,64.75,65.67Z"/><path class="cls-5" d="M246.88,181.47c-1.64.55-.53,10.85,1.83,9.86S255.78,178.52,246.88,181.47Z"/><path class="cls-5" d="M115.75,121.17c-3.12.55-1,11,3.5,10,2.25-.5,9-3.17,6.31-6.5C123.25,120,120.25,121,115.75,121.17Z"/><path class="cls-5" d="M233.75,89.83c-3.12.55-1,11,3.5,10,2.25-.5,9-3.16,6.31-6.5C241.25,88.67,238.25,89.67,233.75,89.83Z"/><path class="cls-5" d="M152.25,28c-3.12.55-1.17,5.17,3.33,4.17,2.25-.5,5.35-1.17,2.67-4.5C155.58,27.67,154.58,28,152.25,28Z"/><path class="cls-5" d="M128.58,82c-3.12.55-1.17,5.17,3.33,4.17,2.25-.5,5.36-1.17,2.67-4.5C131.91,81.67,130.91,82,128.58,82Z"/><path class="cls-5" d="M185.58,219.67c-2.91,1.24.33,3.66,2.67,6,2-2,6.47-5.06,3.1-7.69C188.75,218.58,187.85,219.14,185.58,219.67Z"/><path class="cls-5" d="M187.25,137.67c-3.12.55-1,11,3.5,10S204.25,134.67,187.25,137.67Z"/><path class="cls-5" d="M47.75,156.17c-3-.85-1,11,3.5,10S56.75,158.67,47.75,156.17Z"/><path class="cls-5" d="M144.57,243c-1.38-1.45-4.58,9.95-1.72,10S148.64,247.26,144.57,243Z"/></g><g id="Choco_lines" data-name="Choco lines"><path class="cls-6" d="M10.32,130c3.24-6,4-16.67,7.93-19.33s32.93-23.34,40.06-30c5.48-5.12,36.33-34.67,42.16-36s40.87-33.34,51.89-32,15.57-1.34,20.76-.67,5.19,2.67,7.13,5.33-9.08,3.34-13,3.34-20.11-1.34-27.89,6.66-64.21,50-68.1,52S28.75,112.67,22.91,120c-7.13,7.33-8,20-10.65,20S10.32,130,10.32,130Z"/><path class="cls-6" d="M16,173.43a3.68,3.68,0,0,1-6.66-1.79c-.74-7.56-1.72-11,2.95-18,3.29-4.95,47.48-33.25,56.34-41.89,6.79-6.62,46.41-42.13,52.33-46.64,12-9.14,50.9-38.7,64.42-41.47,4.91-1,9.13-2.53,15.57-1.67s7.3,9.37,2.67,8c-13.61-4-24.67,9.33-42,19.33-12.28,7.08-60,50-76,63.34-17.22,14.34-54,40.66-60.94,50.08A102.61,102.61,0,0,0,16,173.43Z"/><path class="cls-6" d="M85.58,278.67c-3.08,1.46-12.85-3.95-10.33-6.25,4.08-3.75,8.5-5.5,13.66-9.75,7.34-2,44.82-34.25,53.68-42.89,6.79-6.62,46.41-42.13,52.33-46.64,12-9.14,53.33-55.81,72.66-71.14,3.92-3.11,8.63,12,4,10.67-13.61-4-43.33,50.66-60.67,60.66-12.27,7.08-35.33,34-51.33,47.34-17.22,14.34-54,40.66-60.94,50.08C95.08,274.56,88.75,277.17,85.58,278.67Z"/><path class="cls-6" d="M63.75,261.17c-5,1.5-12.34-3.67-9.5-6.5,4.5-4.5,4-8,6.36-12.1,3.44-5.94,49-42.57,62.16-49.29,9.63-4.9,52.26-48.49,57.73-54.89C196.25,120,247.29,82,261.58,76.67c10.67-4,14.77,15.61,9.67,14-7.45-13.72-14.88-2.6-34,9.16-13.55,8.34-42,33.81-59.67,49.5-8,7.07-35.33,49.34-52,58C101,220.1,78.73,246.82,74.28,253.26,70.36,257.74,68,259.9,63.75,261.17Z"/><path class="cls-6" d="M24.82,213.1c-2.22-9.64-1.69-21.38,3.44-25.36S78.63,149.5,88,139.57c7.21-7.62,49.24-48.47,55.52-53.66,12.72-10.51,42.94-27.1,54.7-35.91,5.33-4,30.5-15,37.33-14,0,0,8.77,1.36,11.33,5.33C234.54,44.16,214,52.5,195.58,64c-13,8.15-72.55,61.24-89.52,76.58-18.27,16.5-57,46.68-64.66,57.61-9.39,10.93-9.24,23-12.65,23S24.82,213.1,24.82,213.1Z"/><path class="cls-6" d="M38.91,241.33c-2.21-9.63,4.22-25,9.35-28.92S98.63,174.17,108,164.23c7.21-7.62,44.22-38.9,55.52-53.65,10-13.1,34.7-25.25,54.7-35.91C224.13,71.53,242.08,55,248.91,56s8.67,4.67,6.67,8.67c-12.38,2.83-21.61,12.49-40,24-13,8.14-50.67,32.66-69.33,56.66-12.67,22-85.32,60.41-93,71.34-9.4,10.93-3.59,28-7,28S38.91,241.33,38.91,241.33Z"/><path class="cls-6" d="M113.58,284c16.22-7.21,45.33-34,57.33-38s31.43-27.86,35.34-32c5.5-5.83,40-43.64,47.33-50,10-8.67,25.33-28.67,27.33-33.33s5.34,1.33,5.34,1.33a25.15,25.15,0,0,0-4,10.67c-.67,6-8.67,18.66-15.34,23.33s-31,24.61-39.33,36c-7.83,10.67-37.93,44-46.67,50.67-9.16,7-28.83,19-38.16,27s-20.5,10-26.5,10.33c-10.14.56-16.67-2.67-12.67-4S107.58,286.67,113.58,284Z"/></g></g></g></svg>