<svg xmlns="http://www.w3.org/2000/svg" viewBox="0 0 307.59 304.75"><defs><style>.cls-1{fill:#5a3432;}.cls-2,.cls-5{fill:#2d1a1a;}.cls-2{opacity:0.21;}.cls-3,.cls-4{fill:#442322;}.cls-3{opacity:0.44;}.cls-5{opacity:0.46;}.cls-6{fill:#eee;}.cls-7{fill:#f7f7f7;}</style></defs><title>cookie-3</title><g id="Layer_2" data-name="Layer 2"><g id="Chocolate_Crinkles" data-name="Chocolate Crinkles"><g id="Base"><path class="cls-1" d="M57,51.41c0-11.34,48.66-40.67,54-38s18.66-.67,20.66-4S130.35.74,143,.07s41.33,3.34,48,9.34,15.33,0,20,1.33,19.33,5.33,25.33,13.33,16,17.34,16,22.67c13.33,6,17.33,8,16.67,20.67,13.33-2.67,21.33,8.66,25.33,18s17.33,40.66,12,65.33c-6,12.67-7.33,22-4.67,26,2.67,10.67-8,40.67-18,54.67s-19.33,18-26,18.66-2,9.34-4,12.67-20.66,24-40,26.67-28.66-4.67-37.33,1.33-12,10.67-25.33,12.67-41.34,3.33-46.67-8c-6-5.34-9.33-7.34-15.33-5.34-5.34-4.66-23.34-22-34.67-25.33S39,250.07,41,244.07c-8.67,0-11.34-14-18-24s-24.67-32-16-40.66c8-6.67-.67-14.67-5.34-18.67-3.33-10-1.33-27.33,2.67-32,12-8,18.67-20.67,18.67-30s-2.67-18.67,5.33-25.33S43,62.07,50.35,62.74,57,51.41,57,51.41Z"/><path class="cls-2" d="M107.52,34.24c-10.71,23.41-35,21-41.5,41s-22,22.5-32.5,41.5-3.5,32-3,58-5,44,15,59.5,13.5,24.5,55.5,45,57.5,5,81.5-.5,25-32.5,38.5-41,43-5.5,54-15,14.5-71,18-85,21.5-34.5-20.5-30.5S220,87.74,219,65.74s-.5-14.5-35-29.5S115.52,16.74,107.52,34.24Z"/><path class="cls-3" d="M111,22.74c-15.55,6.28,7.5,36,19,55s4.5,28,9.5,40,10.5,22.5,33,5.5,36-43.5,25.5-55.5-23-41-36-42S163,1.74,111,22.74Z"/><path class="cls-3" d="M228,127.74c-11.5,12.77-55,8-57,25.5s4.5,25.5,1,39-8.5,22,20,19.5,36-14,48.5-27.5,27-52,7.5-56S232.52,122.74,228,127.74Z"/><path class="cls-3" d="M30,167.74c7.86-2.05,15.79-6.56,22.77-9.86,11.66-5.5,20.66-7.6,22.23,10.86,2.5,29.5,10,50-13,43.5s-40-10-40.5-23C21.52,189.24,7,173.74,30,167.74Z"/><path class="cls-4" d="M84,126.74c-4.73,20.17-26,43-7,75.5s10.5,36.5,46.5,55.5,49,31,60.5-2,14.5-46-1.5-59-32-21-33.5-49.5S91.52,94.74,84,126.74Z"/><path class="cls-4" d="M132,177.24a1.5,1.5,0,0,0,0-3,1.5,1.5,0,0,0,0,3Z"/><path class="cls-4" d="M219,82.24c-4.5,14-6,28.5-16,32.5s-17.5,14.5.5,26,39,15,47.5,9,12-21.5,13-37-5.5-24.5-10-32.5-17-32.5-23-18S219,82.24,219,82.24Z"/><path class="cls-5" d="M203,131.24c-22.77,6.61-47,10-45.5,36s-4.5,20.5,12.5,31,41,7,58-6.5S277,109.74,203,131.24Z"/><path class="cls-5" d="M209.52,164.74c-22.77,6.61-47,10-45.5,36s-4.5,20.5,12.5,31,41,7,58-6.5S283.52,143.24,209.52,164.74Z"/><path class="cls-5" d="M229,194.74c-22.77,6.61-47,10-45.5,36s-4.5,20.5,12.5,31,41,7,58-6.5S303,173.24,229,194.74Z"/><path class="cls-5" d="M209.85,59.47c-22.77,6.62-47,10-45.5,36s-4.5,20.5,12.5,31,41,7,58-6.5S283.85,38,209.85,59.47Z"/><path class="cls-5" d="M52.52,187.24c-19.44,14.95-39.5,28-9,41s30,41.5,53.5,8.5S72,172.24,52.52,187.24Z"/><path class="cls-5" d="M62.52,95.24c-4.71,28.25-52.5,33-18.5,43.5s30.5,33.5,50.5,5,17.5-59-4-61S64,86.24,62.52,95.24Z"/></g><g id="white_powder" data-name="white powder"><path class="cls-6" d="M76.16,71.26c0,6.24-2.74,20.11-2.74,20.11l8.92,2.09c-4.12,6.93-13,6.93-15.1,9.7s-8.24,9-3.44,14.57,7.56,4.16,8.24,13.87,5.5,18,8.93,19.42c-.69,6.93-2.75,17.33,2.06,22.19-2.06,6.24-5.49,21.5-.69,22.19s16.48-2.08,27.47-5.55,17.16-6.93,20.59-2.77c5.5-.69,11.68-6.94,8.24-9.71s-17.85-9-19.22-13.18c7.55,0,19.91,9,25.4,10.41s18.54,9,26.09,6.24,28.84-14.57,21.29-32.6c7.55-2.77,15.1-9,14.42-32.59S213.48,86.52,220.35,81C208.68,74,186,67.8,180.53,69.18s-13.74-11.79-13.74-15.26c-10.29-2.77-27.46-2.77-37.07-2.77,1.37-10.4-1.38-12.48-6.18-15.95,2.06-4.85,5.49-8.32-8.93-15.26a47.53,47.53,0,0,0-1.31-5.81,9,9,0,0,1-2.28-.72c-5-2.48-47.11,22.54-53.25,35.24,2.84,2.16,7.17,4,9.47,6C71.36,58.09,68.61,69.88,76.16,71.26Z"/><path class="cls-6" d="M145.68,42.74c5.34,2,16.67-3.33,21.34,2s16,16,15.33,4.67-6-28-1.33-31.34c4.1-2.93,5.62-7.91,7.29-10.44-9.67-5-33.92-8.16-45.29-7.56-11.17.59-9.9,4.8-10.82,8.08,1.8,6,6.11,12,8.15,15.26C143.68,28.74,140.35,40.74,145.68,42.74Z"/><path class="cls-6" d="M195,62.07c2.66,2.67,19.33,1.34,30.66,5.34,8.42,3,21.26-10.62,27.57-20.26l-.9-.41c0-5.33-10-14.67-16-22.67s-20.67-12-25.33-13.33c-1.66-.47-3.82,0-6.21.49-2,3.19-3.06,8.08-7.13,14.18C192.35,33.41,192.35,59.41,195,62.07Z"/><path class="cls-6" d="M236.35,114.07c-.67,9.34-3.33,40.67-17.33,48.67-.67,12,8,11.33,14,9.33s27.33-16,27.33-19.33c7.33.67,29.33,1.33,34-1.33,3.82-2.19,8.09-7.94,13.17-9.95,1-22.71-9.66-47.86-13.17-56.05-2.23-5.21-5.71-11-10.66-14.71C270.73,84.23,237,105.62,236.35,114.07Z"/><path class="cls-6" d="M283.68,231.41c10-14,20.67-44,18-54.67a6.85,6.85,0,0,1-.39-.71c-10.89-.84-30.08-13.57-44.27-2-14.67,12-28,17.34-26.67,24.67s10,2.67,10,7.33-3.33,14.67,7.33,24.67c8,7.46,14.8,12.69,21.08,15.42C273.36,243.36,278.43,238.76,283.68,231.41Z"/><path class="cls-6" d="M223.68,215.41c-4.66-12-14-23.34-17.33-18.67s-6.67,14-11.33,14.67-18.67-3.34-19.34,2-1.33,22.66,6.67,30.66,6,26.67,2,28,1.33,10.67,14,17.34l.7.35a65,65,0,0,0,14.63-.35c15.55-2.15,30.66-15.93,37-23C240.89,256.94,224.25,241.05,223.68,215.41Z"/><path class="cls-6" d="M159.68,287.41c3.34-8,13.34-18,6-20s-20.66,6-28,11.33-12.66,3.33-17.33.67-10.55,7.78-17.78,14.46c.57.48,1.16,1,1.78,1.54,5.33,11.33,33.33,10,46.67,8,7.59-1.14,11.94-3.15,15.87-5.77C162.85,296.17,157.28,293.18,159.68,287.41Z"/><path class="cls-6" d="M103.68,278.74c5.34,0,4.67-6,6.67-11.33,1.33,4.66,16,4.66,24,0s18.67-4,29.33-6c-2-6-.66-20,2-28s-3.33-19.34-17.33-22.67-39.33,12-46.67,16.67c.67,7.33-13.33,27.33-14.66,38.66,1.3,7.82-1.36,15.07-3.37,19.18,2.29,2.05,4.16,3.76,5.37,4.82,3.43-1.14,6-1,8.67.37C97.75,283.61,98.59,278.74,103.68,278.74Z"/><path class="cls-6" d="M73,246.07c4.66-9.33,9.33-14.66,9.33-22s-.67-16-6.67-18-.66-14.66-2-19.33-10-30.67-14-30.67-.66-1.33-2-8-12-18.66-20-18-2,5.34-8,.67-6-14.67-12.66-13.33c-.32.06-.67.11-1,.15A46,46,0,0,1,4.35,128.74c-4,4.67-6,22-2.67,32a49.56,49.56,0,0,1,4.22,4c3.77.93,10,1.93,14.45-4,2.74,2.74-5.15,5.79-10.4,10.44.78,2.73.24,5.58-2.93,8.23A7.64,7.64,0,0,0,5.78,181a116.71,116.71,0,0,0,3.33,17.9C13.36,206.87,19.64,215,23,220.07A92.83,92.83,0,0,1,29,231.24a12,12,0,0,1,2.05,4.1c2.65,5,5.53,8.73,10,8.73-1,3-.51,7.23,1.59,11.18a58.21,58.21,0,0,0,9.07,6.82C62.35,263.41,68.35,255.41,73,246.07Z"/><path class="cls-6" d="M45.68,92.07c8,6.67,9.34,10,17.34,9.34s10.4-10,6-16.67C64.78,78.35,58.19,67,52.35,62.57a5.35,5.35,0,0,1-2,.17c-7.33-.67-14,4-22,10.67-6,5-6,11.58-5.62,18.51a3.73,3.73,0,0,0,.95-.51C31,86.07,37.68,85.41,45.68,92.07Z"/></g><g id="Highlights"><path class="cls-7" d="M92.46,78.13c7.86,7,4.52,14.93.45,19S87,122,89.74,130.62s6.79,44.79,2.72,47c6.33,5,21.26,0,25.33-1.81s-1.81-11.31-2.71-16.28,5.88-10.41,11.76-9.05,31.67,20.81,38.46,19,21.27-14.93,16.29-24.89.45-10.4,4.07-13.57-.45-26.69,6.79-33.93S184.76,79,176.61,79.49,159,83.56,151.73,75s-22.63-6.79-29-18.55-16.29-21.27-14.93-24.89c-14.93,5-35.29,18.55-32.58,21.72s5.43,3.17,11.77,9.5S84.31,70.89,92.46,78.13Z"/><path class="cls-7" d="M284,95.74c-9.45,4.36-26,14.5-28,24.5s-15.5,24.5-14.5,28.5,13.5-6.5,19.5-5,17.5,4.5,27-1S297,89.74,284,95.74Z"/><path class="cls-7" d="M267.52,183.24c-8.82,10.17-31,24.5-18,36s16.5,25,22,17,20.5-37.5,20.5-45S274,175.74,267.52,183.24Z"/><path class="cls-7" d="M212.52,22.74c-5.34,7.62-10.5,15-8,21.5s10.5,12,18,12,14.5-5.5,18-8S216,17.74,212.52,22.74Z"/><path class="cls-7" d="M187.52,226.74c10.29,9.08,16.5,34,12,42.5s-8.5,20.5,7,16,37-8,30-19-13.5-24-20.5-40S179,219.24,187.52,226.74Z"/><path class="cls-7" d="M124.52,224.74c-8.25,5.13-22,9-17.5,20.5s19,18,28.5,14.5,20-9,21.5-15S151,208.24,124.52,224.74Z"/><path class="cls-7" d="M32.52,151.74c8.12,14.53,17,7.5,19.5,23.5s-1.5,21.5,8,33,17,25,7,32-26.5,7-25-2.5-3.5,2.5-12-23-6-27.5-3-43,0-25.5-8.5-22-13-8.5-6.5-13S23,134.74,32.52,151.74Z"/><path class="cls-7" d="M42,71.74c2.5,7.5,3.5,15.5,12,19.5s11.5,7,10.5-2-9-16-12.5-18.5S42,71.74,42,71.74Z"/></g></g></g></svg>