<svg xmlns="http://www.w3.org/2000/svg" viewBox="0 0 300.17 295.04"><defs><style>.cls-1{fill:#edaf5b;}.cls-2{fill:#bc5719;opacity:0.3;}.cls-3,.cls-4{fill:#e26527;}.cls-3{opacity:0.2;}.cls-4{opacity:0.15;}.cls-5{fill:#da001f;}.cls-6{fill:#af002a;opacity:0.32;}.cls-7{fill:#ededed;}</style></defs><title>cookie-4</title><g id="Layer_2" data-name="Layer 2"><g id="Dewberry"><path class="cls-1" d="M295.1,164.41c-.4,12.78,1,29-8.14,38.33-1.86,11.67-7.86,32.67-26.86,35.67,2,15-11,30-24,32-7,10-29,18-39,16-10,5.31-23,11-39,6-12,2-31,6-44-3-16,2-51-15-48-29-27,2-38-23-35-36-13.83-8.4-29-19-26-40-8-23-7-37,6-47-1-8-8-21,1-40,10-17,18.2-15.23,24-21-2.13-7.23-4.47-23.54,9-37,10-10,25-14,38-14,12-24,34-30,58-22,14-7,48-3,52,10,18-2,44,4,51,24,22,10,34,33,25,44,13,4,28,22,22,34C300.1,126.41,304.1,146.41,295.1,164.41Z"/><g id="Shadows"><path class="cls-2" d="M193.1,13.41c1.5,69.5-7.68,82.19-20,98.48,2.22.89.93,2.82,3,4C188.45,102.14,205.1,72.41,193.1,13.41Z"/><path class="cls-2" d="M244.1,37.41c-2.92,3.24-32.67,71.48-60.06,83.15a50.13,50.13,0,0,1,4.16,5C201.15,114.57,250.55,59.54,244.1,37.41Z"/><path class="cls-2" d="M269.1,81.41c-39.15,35-62.45,47.82-76,52.57a47.89,47.89,0,0,1,2,5.23C206.64,134.78,234.6,122.91,269.1,81.41Z"/><path class="cls-2" d="M291.1,115.41c-10.67,22-88,38.66-93.67,38.79a49.89,49.89,0,0,1-.4,6.15C218.88,157.53,284.74,142,291.1,115.41Z"/><path class="cls-2" d="M295.1,164.41C260.77,175.75,212.93,176.1,193,174.52a48,48,0,0,1-2.87,5.4C215.46,183,288.7,178.65,295.1,164.41Z"/><path class="cls-2" d="M223.76,204.07c13.34.67,54.39,2,63.2-1.33-16.3,0-84.81-.52-101.06-17-.37.44-.74.87-1.12,1.3C192.39,196.15,213.64,203.57,223.76,204.07Z"/><path class="cls-2" d="M260.1,238.41C254,244,199,218.54,174.67,195.57l-1,.63C194.77,218.31,252.43,252.88,260.1,238.41Z"/><path class="cls-2" d="M189.76,242.07c2.67,2,20.67,26.67,46.34,28.34-36.24-15.53-62.44-48.37-70.67-66.59C170.94,221.32,187.63,240.47,189.76,242.07Z"/><path class="cls-2" d="M165.43,203.82c-.36-1.12-.67-2.23-.92-3.33l-.4.13C164.48,201.63,164.92,202.7,165.43,203.82Z"/><path class="cls-2" d="M158.1,106.91c3.58-25.36,4-50.84-17-103.5,8.13,26.58,16.66,76.17,12.08,102C153.32,105.43,157.11,106.81,158.1,106.91Z"/><path class="cls-2" d="M197.1,286.41c.62-7.51-40.46-45.27-43.29-83.51l-.54.06C152.84,238.28,179,267.73,197.1,286.41Z"/><path class="cls-2" d="M158.1,292.41s-23.34-62.53-15.9-89.62c-.37,0-.75-.08-1.12-.14C132.9,217.54,136.68,275.34,158.1,292.41Z"/><path class="cls-2" d="M114.1,289.41c-11.45-28.47,4.91-69.07,16-89.76q-1-.37-1.89-.81C113.52,222.1,91.08,282.75,114.1,289.41Z"/><path class="cls-2" d="M83.1,25.41c24.35,26,40.36,64.26,45.88,83.81a49.11,49.11,0,0,1,6.28-2.21C135.07,86.48,116.07,49,83.1,25.41Z"/><path class="cls-2" d="M114.57,118.8C103,91.45,41.75,68.37,36.1,76.41c30.59,4.77,62.35,31.51,75.21,45.82C112.35,121,113.43,119.89,114.57,118.8Z"/><path class="cls-2" d="M11.1,137.41c11.52-4.85,56.14-10.81,91.21.2a50.91,50.91,0,0,1,2.31-5.36C76.07,122.05,17.41,123.06,11.1,137.41Z"/><path class="cls-2" d="M5.1,184.41c7.35-18.07,49-32.48,94.53-25.91q-.16-1.77-.18-3.57C59.93,151.2,10.4,154.66,5.1,184.41Z"/><path class="cls-2" d="M31.1,224.41c23.42-35.4,58.74-43,76.44-43.21q-1.32-2-2.44-4.12C83.59,177.8,40.67,186.94,31.1,224.41Z"/><path class="cls-2" d="M113.49,188.55c-28.57,12.58-50.3,66.38-47.39,71.86C71.25,248.2,97,202.2,116.39,191.26,115.39,190.4,114.42,189.49,113.49,188.55Z"/><g id="Shadows-2" data-name="Shadows"><path class="cls-3" d="M103,118.14c.67-4.75,6.21-10.37,12-15.89s25.78-13.35,36.14-7.83,34.54,6.45,41.22,15.89,16.16,19.25,17.55,30.76-8.11,40.84-6.73,43.83-4.38,18.42-14.28,21.64-49.53,11.51-58.51,4.37S105.91,192.65,99.23,191s-17.84-31.23-12.32-40.21S102.34,123,103,118.14Z"/><path class="cls-4" d="M291.1,115.41c4.17-8.35-1.83-19.61-10.24-27-5,11.85,7.77,30.14-.43,47,12,5.33,3.22,63.27-1.83,66.5-12.5,8-19,24-28,29.5s-16,30-27,41.5-41,7.5-57.5,11-33.5-4-43-5-34-6.17-42-15.5-7.34-18.67-32-26c-4.77-6.17-11.9-10.45-18.56-13.34l.56.34c-3,13,8,38,35,36-3,14,32,31,48,29,13,9,32,5,44,3,16,5,29-.69,39-6,10,2,32-6,39-16,13-2,26-17,24-32,19-3,25-24,26.86-35.67,9.14-9.33,7.74-25.55,8.14-38.33C304.1,146.41,300.1,126.41,291.1,115.41Z"/></g></g><g id="Jelly"><path class="cls-5" d="M193,174.52a48.54,48.54,0,0,0,4-14.17,49.89,49.89,0,0,0,.4-6.15,48.89,48.89,0,0,0-2.35-15,47.89,47.89,0,0,0-2-5.23,49.45,49.45,0,0,0-4.86-8.38,50.13,50.13,0,0,0-4.16-5,49.07,49.07,0,0,0-10.92-8.67,47.44,47.44,0,0,0-6.4-3.14,48.49,48.49,0,0,0-13.54-3.32c-1.57-.15-3.15-.23-4.75-.23-.61,0-1.22,0-1.82,0A48.28,48.28,0,0,0,135.26,107a48.44,48.44,0,0,0-20.69,11.79c-1.14,1.09-2.22,2.23-3.26,3.43a49.19,49.19,0,0,0-6.69,10,50.91,50.91,0,0,0-2.31,5.36,49.06,49.06,0,0,0-2.88,16.59c0,.25,0,.49,0,.73q0,1.8.18,3.57a48.65,48.65,0,0,0,5.47,18.58q1.13,2.13,2.44,4.12a49.55,49.55,0,0,0,5.95,7.35c.93.94,1.9,1.85,2.9,2.71a48.86,48.86,0,0,0,11.84,7.58q.93.43,1.89.81a48.51,48.51,0,0,0,11,3c.37.06.75.1,1.12.14a49.26,49.26,0,0,0,6.23.41,48.41,48.41,0,0,0,4.84-.24l.54-.06a48.86,48.86,0,0,0,10.3-2.28l.4-.13a49.17,49.17,0,0,0,9.17-4.29l1-.63a49.37,49.37,0,0,0,10.11-8.51c.38-.43.75-.86,1.12-1.3a49.67,49.67,0,0,0,4.24-5.84A48,48,0,0,0,193,174.52Z"/><path class="cls-6" d="M190.1,135.41c0,18.12-28.22-16-46.34-16s-37.33,37.79-37.33,19.66,22-33.82,40.18-33.82S190.1,117.29,190.1,135.41Z"/><path class="cls-6" d="M102.43,150.07c.37,5.42-1.33,36.67,32,47.67s38-8.67,40.67-10.67,9-20-6.34-21-20.33,9-28.66,11.67-14.34-6.33-14-18.33S101.76,140.41,102.43,150.07Z"/></g><g id="Sugar"><path class="cls-7" d="M153.68,121.74c.08-.58.92-1,.92-1l.58.92-.83.41Z"/><path class="cls-7" d="M142.51,129.07c.09-.58.92-1,.92-1l.58.92-.83.42Z"/><path class="cls-7" d="M138.26,133.82c.09-.58.92-1,.92-1l.58.92-.83.42Z"/><path class="cls-7" d="M138.07,128c.06-.41.64-.71.64-.71l.41.65-.58.29Z"/><path class="cls-7" d="M148.78,146.61c.06-.41.65-.7.65-.7l.41.64-.59.3Z"/><path class="cls-7" d="M165.29,147.3c.06-.41.65-.7.65-.7l.41.64-.59.29Z"/><path class="cls-7" d="M144.87,143.94c.06-.41.64-.7.64-.7l.41.65-.58.29Z"/><path class="cls-7" d="M141.55,132.09c0-.27.43-.46.43-.46l.27.43-.38.19Z"/><path class="cls-7" d="M133.7,134.84c0-.28.43-.47.43-.47l.27.43L134,135Z"/><path class="cls-7" d="M134.51,121.91c0-.27.43-.47.43-.47l.27.43-.39.19Z"/><path class="cls-7" d="M129.54,151.84c0-.28.42-.47.42-.47l.27.43-.38.19Z"/><path class="cls-7" d="M140.15,162.61c0-.27.42-.46.42-.46l.28.42-.39.2Z"/><path class="cls-7" d="M144.6,156c0-.27.42-.46.42-.46l.27.42-.38.2Z"/><path class="cls-7" d="M160.6,152.57c0-.27.42-.46.42-.46l.27.43-.38.19Z"/><path class="cls-7" d="M141.75,154.12c0-.27.43-.46.43-.46l.27.43-.39.19Z"/><path class="cls-7" d="M144.79,150.09c0-.28.42-.47.42-.47l.27.43-.38.19Z"/><path class="cls-7" d="M141.92,144.46c0-.27.43-.47.43-.47l.27.43-.39.19Z"/><path class="cls-7" d="M169.76,155.41c0-.27.43-.47.43-.47l.27.43-.39.19Z"/><path class="cls-7" d="M146.87,151.42c0-.27.43-.47.43-.47l.27.43-.39.19Z"/><path class="cls-7" d="M166.84,137.62c0-.27.42-.46.42-.46l.27.43-.38.19Z"/><path class="cls-7" d="M144.73,172.28c0-.27.43-.47.43-.47l.27.43-.39.2Z"/><path class="cls-7" d="M128.76,139.41c0-.22.35-.38.35-.38l.22.35-.31.16Z"/><path class="cls-7" d="M150.28,150.06c0-.22.34-.38.34-.38l.23.35-.32.16Z"/><path class="cls-7" d="M152.18,160.78c0-.22.34-.38.34-.38l.23.35-.32.16Z"/><path class="cls-7" d="M144.53,162.19c0-.22.34-.38.34-.38l.23.35-.32.16Z"/><path class="cls-7" d="M153.33,147.46c0-.23.35-.39.35-.39l.22.35-.32.16Z"/><path class="cls-7" d="M144.56,156.53c0-.22.35-.38.35-.38l.22.35-.32.15Z"/><path class="cls-7" d="M127.78,134.11c.06-.41.65-.7.65-.7l.41.64-.59.3Z"/><path class="cls-7" d="M123.87,131.44c.06-.41.64-.7.64-.7l.41.65-.58.29Z"/><path class="cls-7" d="M123.79,137.59c0-.28.42-.47.42-.47l.27.43-.38.19Z"/><path class="cls-7" d="M120.92,132c0-.27.43-.47.43-.47l.27.43-.39.19Z"/><path class="cls-7" d="M129.28,137.56c0-.22.34-.38.34-.38l.23.35-.32.16Z"/><path class="cls-7" d="M148.78,146.61c0-.22.35-.38.35-.38l.22.35-.31.16Z"/><path class="cls-7" d="M132.33,135c0-.23.35-.39.35-.39l.22.35-.32.16Z"/><path class="cls-7" d="M149.68,128.75c.06-.41.64-.71.64-.71l.41.65-.58.29Z"/><path class="cls-7" d="M143.7,122.66c.06-.41.65-.71.65-.71l.41.65-.59.29Z"/><path class="cls-7" d="M143.62,128.8c0-.27.43-.47.43-.47l.27.43-.39.19Z"/><path class="cls-7" d="M140.75,123.17c0-.27.43-.47.43-.47l.27.43-.39.19Z"/><path class="cls-7" d="M149.11,128.78c0-.22.35-.38.35-.38l.22.35-.32.15Z"/><path class="cls-7" d="M152.16,126.17c0-.22.35-.38.35-.38l.22.35-.31.15Z"/><path class="cls-7" d="M146.58,153c0-.23.35-.39.35-.39l.22.35-.32.16Z"/><path class="cls-7" d="M146.17,157.79c0-.27.43-.47.43-.47l.27.43-.39.2Z"/><path class="cls-7" d="M122,155.34c0-.28.42-.47.42-.47l.27.43-.38.19Z"/><path class="cls-7" d="M134.76,130.41c.09-.59.92-1,.92-1l.58.91-.83.42Z"/><path class="cls-7" d="M143.1,117.07c.08-.58.91-1,.91-1l.59.92-.84.42Z"/><path class="cls-7" d="M120.51,141.07c.09-.58.92-1,.92-1l.58.92-.83.42Z"/><path class="cls-7" d="M130.51,127.07c.09-.58.92-1,.92-1l.58.92-.83.42Z"/><path class="cls-7" d="M145.64,153.57c.21-1.45,2.29-2.5,2.29-2.5l1.46,2.3-2.09,1Z"/><path class="cls-7" d="M133.76,159.07c.21-1.45,2.29-2.5,2.29-2.5l1.46,2.3-2.08,1Z"/><path class="cls-7" d="M165,139.66c.21-1.46,2.29-2.5,2.29-2.5l1.46,2.29-2.08,1Z"/><path class="cls-7" d="M163.47,173.24c.21-1.46,2.29-2.5,2.29-2.5l1.46,2.29-2.08,1Z"/><path class="cls-7" d="M131.47,142.57c.21-1.45,2.29-2.5,2.29-2.5l1.46,2.3-2.08,1Z"/><path class="cls-7" d="M133.43,113.41c.21-1.46,2.29-2.5,2.29-2.5l1.46,2.29-2.08,1Z"/><path class="cls-7" d="M118.8,126.91c.21-1.46,2.3-2.5,2.3-2.5l1.45,2.29-2.08,1Z"/><path class="cls-7" d="M123.14,120.91c.21-1.46,2.29-2.5,2.29-2.5l1.46,2.29-2.09,1Z"/><path class="cls-7" d="M164.1,159.74c.08-.58.91-1,.91-1l.59.92-.84.41Z"/><path class="cls-7" d="M108.51,164.24c.09-.58.92-1,.92-1l.58.92-.83.41Z"/><path class="cls-7" d="M131,166.16c.09-.59.92-1,.92-1l.58.91-.83.42Z"/><path class="cls-7" d="M136.26,157.24c.09-.58.92-1,.92-1l.58.92-.83.41Z"/><path class="cls-7" d="M142.43,151.74c.08-.58.92-1,.92-1l.58.92-.83.41Z"/><path class="cls-7" d="M132,125.94c.06-.41.65-.7.65-.7l.41.65-.59.29Z"/><path class="cls-7" d="M128,123.28c.06-.41.65-.71.65-.71l.41.65-.59.29Z"/><path class="cls-7" d="M124.92,133.46c0-.27.43-.47.43-.47l.27.43-.39.19Z"/><path class="cls-7" d="M128,129.42c0-.27.43-.47.43-.47l.27.43-.39.19Z"/><path class="cls-7" d="M125.09,123.79c0-.27.42-.47.42-.47l.27.43-.38.2Z"/><path class="cls-7" d="M130,130.75c0-.27.42-.46.42-.46l.27.42-.38.2Z"/><path class="cls-7" d="M132,125.94c0-.22.35-.38.35-.38l.22.35-.32.16Z"/><path class="cls-7" d="M129.75,132.29c0-.22.35-.38.35-.38l.22.35-.32.16Z"/><path class="cls-7" d="M128.8,132.91c.21-1.46,2.3-2.5,2.3-2.5l1.45,2.29-2.08,1Z"/><path class="cls-7" d="M125.6,131.07c.08-.58.91-1,.91-1l.59.92-.84.42Z"/><path class="cls-7" d="M156.87,156.75c0-.27.43-.46.43-.46l.27.42-.39.2Z"/><path class="cls-7" d="M159,158.09c0-.28.43-.47.43-.47l.27.43-.39.19Z"/><path class="cls-7" d="M162.36,156.73c0-.22.35-.38.35-.38l.22.35-.32.16Z"/><path class="cls-7" d="M158.66,159.62c0-.22.35-.38.35-.38l.22.35-.31.16Z"/><path class="cls-7" d="M158.85,159.74c.08-.58.91-1,.91-1l.59.92-.84.41Z"/><path class="cls-7" d="M154.51,158.41c.09-.59.92-1,.92-1l.58.91-.83.42Z"/><path class="cls-7" d="M107.68,135.85c0-.27.43-.47.43-.47l.27.43L108,136Z"/><path class="cls-7" d="M118.3,146.63c0-.28.42-.47.42-.47l.27.43-.38.19Z"/><path class="cls-7" d="M122.74,140c0-.27.43-.46.43-.46l.27.42-.39.2Z"/><path class="cls-7" d="M119.9,138.14c0-.28.43-.47.43-.47l.27.43-.39.19Z"/><path class="cls-7" d="M125,135.43c0-.27.42-.46.42-.46l.27.42-.38.2Z"/><path class="cls-7" d="M114.41,133.46c0-.23.35-.39.35-.39l.22.35-.31.16Z"/><path class="cls-7" d="M130.32,144.79c0-.22.35-.38.35-.38l.22.35-.31.16Z"/><path class="cls-7" d="M122.67,146.2c0-.22.35-.38.35-.38l.22.35-.31.16Z"/><path class="cls-7" d="M124.73,137c0-.23.35-.38.35-.38l.22.35-.32.15Z"/><path class="cls-7" d="M124.32,141.8c0-.27.42-.46.42-.46l.28.42-.39.2Z"/><path class="cls-7" d="M135.68,129.41c.21-1.46,2.29-2.5,2.29-2.5l1.46,2.29-2.08,1Z"/><path class="cls-7" d="M127.37,167.17c0-.27.43-.47.43-.47l.27.43-.39.19Z"/><path class="cls-7" d="M128.18,154.24c0-.27.43-.46.43-.46l.27.42-.39.2Z"/><path class="cls-7" d="M121.45,166.44c.06-.41.65-.7.65-.7l.41.65-.59.29Z"/><path class="cls-7" d="M117.53,163.78c.06-.41.65-.71.65-.71l.41.65L118,164Z"/><path class="cls-7" d="M114.59,164.29c0-.27.42-.47.42-.47l.27.43-.38.2Z"/><path class="cls-7" d="M126,167.29c0-.22.35-.38.35-.38l.22.35-.32.16Z"/><path class="cls-7" d="M128.43,162.74c.08-.58.92-1,.92-1l.58.92-.83.41Z"/><path class="cls-7" d="M124.18,159.41c.08-.59.92-1,.92-1l.58.91-.83.42Z"/><path class="cls-7" d="M112.47,159.24c.21-1.46,2.29-2.5,2.29-2.5l1.46,2.29-2.08,1Z"/><path class="cls-7" d="M116.8,153.24c.21-1.46,2.3-2.5,2.3-2.5l1.45,2.29-2.08,1Z"/><path class="cls-7" d="M125.62,158.28c.06-.41.64-.71.64-.71l.41.65-.58.29Z"/><path class="cls-7" d="M121.7,155.61c.06-.41.65-.7.65-.7l.41.64-.59.3Z"/><path class="cls-7" d="M118.59,165.79c0-.27.42-.47.42-.47l.27.43-.38.2Z"/><path class="cls-7" d="M121.62,161.75c0-.27.43-.46.43-.46l.27.42-.39.2Z"/><path class="cls-7" d="M118.75,156.12c0-.27.43-.46.43-.46l.27.43-.39.19Z"/><path class="cls-7" d="M123.7,163.09c0-.28.43-.47.43-.47l.27.43-.39.19Z"/><path class="cls-7" d="M125.62,158.28c0-.22.35-.38.35-.38l.22.35-.32.15Z"/><path class="cls-7" d="M123.41,164.62c0-.22.35-.38.35-.38l.22.35-.31.16Z"/><path class="cls-7" d="M122.47,165.24c.21-1.46,2.29-2.5,2.29-2.5l1.46,2.29-2.08,1Z"/><path class="cls-7" d="M119.26,163.41c.09-.59.92-1,.92-1l.58.91-.83.42Z"/><path class="cls-7" d="M129.35,161.74c.2-1.46,2.29-2.5,2.29-2.5l1.46,2.29-2.09,1Z"/><path class="cls-7" d="M132.37,186.17c0-.27.43-.47.43-.47l.27.43-.39.19Z"/><path class="cls-7" d="M133.18,173.24c0-.27.43-.46.43-.46l.27.42-.39.2Z"/><path class="cls-7" d="M126.45,185.44c.06-.41.65-.7.65-.7l.41.65-.59.29Z"/><path class="cls-7" d="M122.53,182.78c.06-.41.65-.71.65-.71l.41.65L123,183Z"/><path class="cls-7" d="M119.59,183.29c0-.27.42-.47.42-.47l.27.43-.38.2Z"/><path class="cls-7" d="M131,186.29c0-.22.35-.38.35-.38l.22.35-.32.16Z"/><path class="cls-7" d="M133.43,181.74c.08-.58.92-1,.92-1l.58.92-.83.41Z"/><path class="cls-7" d="M129.18,178.41c.08-.59.92-1,.92-1l.58.91-.83.42Z"/><path class="cls-7" d="M117.47,178.24c.21-1.46,2.29-2.5,2.29-2.5l1.46,2.29-2.08,1Z"/><path class="cls-7" d="M121.8,172.24c.21-1.46,2.3-2.5,2.3-2.5l1.45,2.29-2.08,1Z"/><path class="cls-7" d="M130.62,177.28c.06-.41.64-.71.64-.71l.41.65-.58.29Z"/><path class="cls-7" d="M126.7,174.61c.06-.41.65-.7.65-.7l.41.64-.59.3Z"/><path class="cls-7" d="M123.59,184.79c0-.27.42-.47.42-.47l.27.43-.38.2Z"/><path class="cls-7" d="M126.62,180.75c0-.27.43-.46.43-.46l.27.42-.39.2Z"/><path class="cls-7" d="M123.75,175.12c0-.27.43-.46.43-.46l.27.43-.39.19Z"/><path class="cls-7" d="M128.7,182.09c0-.28.43-.47.43-.47l.27.43-.39.19Z"/><path class="cls-7" d="M130.62,177.28c0-.22.35-.38.35-.38l.22.35-.32.15Z"/><path class="cls-7" d="M128.41,183.62c0-.22.35-.38.35-.38l.22.35-.31.16Z"/><path class="cls-7" d="M127.47,184.24c.21-1.46,2.29-2.5,2.29-2.5l1.46,2.29-2.08,1Z"/><path class="cls-7" d="M124.26,182.41c.09-.59.92-1,.92-1l.58.91-.83.42Z"/><path class="cls-7" d="M134.35,180.74c.2-1.46,2.29-2.5,2.29-2.5l1.46,2.29-2.09,1Z"/><path class="cls-7" d="M109.34,162c.24-.14.63,0,.63,0l-.17.47-.39-.18Z"/><path class="cls-7" d="M120,154.69a.86.86,0,0,1,.63.05l-.17.48-.39-.19Z"/><path class="cls-7" d="M106.26,156.91c.36-.21,1,.07,1,.07l-.26.72-.59-.28Z"/><path class="cls-7" d="M106,152.18c.36-.2,1,.08,1,.08l-.25.72-.59-.28Z"/><path class="cls-7" d="M103.73,150.17a.86.86,0,0,1,.63.05l-.17.48-.39-.19Z"/><path class="cls-7" d="M108.4,161c.19-.11.51,0,.51,0l-.13.39-.32-.15Z"/><path class="cls-7" d="M115.43,172.41c.51-.3,1.35.1,1.35.1l-.36,1-.84-.4Z"/><path class="cls-7" d="M113.49,154.72c.51-.29,1.35.11,1.35.11l-.36,1-.84-.4Z"/><path class="cls-7" d="M106.41,145.4c1.27-.74,3.38.26,3.38.26l-.91,2.56-2.1-1Z"/><path class="cls-7" d="M113.8,145.12c1.28-.74,3.38.26,3.38.26l-.9,2.56-2.11-1Z"/><path class="cls-7" d="M115.26,155.16c.36-.2,1,.08,1,.08L116,156l-.59-.28Z"/><path class="cls-7" d="M115,150.43c.36-.2,1,.08,1,.08l-.25.72-.59-.28Z"/><path class="cls-7" d="M105,154.25c.24-.14.63.05.63.05l-.16.48-.4-.19Z"/><path class="cls-7" d="M110.06,154.15a.86.86,0,0,1,.63,0l-.17.48-.39-.19Z"/><path class="cls-7" d="M116.37,161.71a.86.86,0,0,1,.63,0l-.17.48-.39-.19Z"/><path class="cls-7" d="M110.3,156.61c.23-.13.63,0,.63,0l-.17.48-.39-.19Z"/><path class="cls-7" d="M112.71,174.8c.19-.11.51,0,.51,0l-.14.39-.32-.16Z"/><path class="cls-7" d="M108.91,157.33c.19-.11.51,0,.51,0l-.13.39-.32-.15Z"/><path class="cls-7" d="M105.8,169.47c1.28-.73,3.38.27,3.38.27l-.91,2.56-2.1-1Z"/><path class="cls-7" d="M107.31,153.32c.51-.3,1.35.1,1.35.1l-.36,1-.84-.4Z"/><path class="cls-7" d="M111.63,163.56c1.28-.73,3.38.26,3.38.26l-.9,2.57-2.11-1Z"/><path class="cls-7" d="M111.91,143.09c.21-1.46,2.29-2.5,2.29-2.5l1.46,2.29-2.08,1Z"/><path class="cls-7" d="M109.16,150.17c.08-.58.92-1,.92-1l.58.92-.83.41Z"/><path class="cls-7" d="M114.41,141.25c.08-.58.92-1,.92-1l.58.92-.83.42Z"/><path class="cls-7" d="M120.58,135.75c.08-.58.91-1,.91-1l.59.92-.84.42Z"/><path class="cls-7" d="M135,140.76c0-.27.42-.46.42-.46l.27.43-.38.19Z"/><path class="cls-7" d="M132.66,142.42c.08-.58.92-1,.92-1l.58.92-.83.41Z"/><path class="cls-7" d="M150.1,140.66c.08-.59.91-1,.91-1l.59.91-.84.42Z"/><path class="cls-7" d="M155.6,152.49c.08-.58.91-1,.91-1l.59.92-.84.41Z"/><path class="cls-7" d="M125.6,176.49c.08-.58.91-1,.91-1l.59.92-.84.41Z"/><path class="cls-7" d="M164.63,149.2c.24-.12.62.09.62.09l-.2.47-.38-.22Z"/><path class="cls-7" d="M146.21,146.63a.85.85,0,0,1,.62.1l-.2.46-.38-.21Z"/><path class="cls-7" d="M157.41,140.13a.82.82,0,0,1,.62.09l-.2.46-.38-.21Z"/><path class="cls-7" d="M143.53,141.31c.37-.18.94.15.94.15l-.31.7-.57-.33Z"/><path class="cls-7" d="M143.57,136.57c.37-.18.94.15.94.15l-.31.7-.57-.33Z"/><path class="cls-7" d="M145.35,145.56c.2-.1.51.08.51.08l-.17.38-.3-.18Z"/><path class="cls-7" d="M150.48,145.06c.53-.26,1.34.2,1.34.2l-.44,1-.81-.46Z"/><path class="cls-7" d="M150.89,139.67c.53-.25,1.34.21,1.34.21l-.44,1-.81-.46Z"/><path class="cls-7" d="M144.52,129.84c1.33-.63,3.36.52,3.36.52l-1.1,2.49-2-1.16Z"/><path class="cls-7" d="M151.92,130.11c1.33-.63,3.35.52,3.35.52l-1.09,2.48-2-1.15Z"/><path class="cls-7" d="M152.63,140.24c.37-.18.94.14.94.14l-.3.7-.57-.32Z"/><path class="cls-7" d="M152.67,135.5c.38-.18.94.15.94.15l-.3.7-.57-.33Z"/><path class="cls-7" d="M142.48,138.57c.24-.12.62.09.62.09l-.2.47-.38-.22Z"/><path class="cls-7" d="M147.52,138.84a.85.85,0,0,1,.62.1l-.2.46-.38-.21Z"/><path class="cls-7" d="M150.61,133.33c.24-.11.62.1.62.1l-.2.46-.38-.21Z"/><path class="cls-7" d="M147.57,141.32a.82.82,0,0,1,.62.09l-.2.47-.38-.22Z"/><path class="cls-7" d="M152.63,140.24c.2-.1.51.08.51.08l-.17.38-.3-.18Z"/><path class="cls-7" d="M146.13,141.93c.2-.1.51.08.51.08l-.17.38-.3-.18Z"/><path class="cls-7" d="M145.09,141.49c1.33-.64,3.35.52,3.35.52l-1.09,2.48-2-1.15Z"/><path class="cls-7" d="M144.83,137.81c.54-.26,1.34.2,1.34.2l-.43,1-.81-.47Z"/><path class="cls-7" d="M151.82,145.26c1.33-.63,3.35.52,3.35.52l-1.09,2.48-2-1.15Z"/><path class="cls-7" d="M150.49,135.63c.54-.26,1.34.2,1.34.2l-.43,1-.81-.46Z"/><path class="cls-7" d="M181.93,145.16c.08-.59.92-1,.92-1l.58.91-.83.42Z"/><path class="cls-7" d="M171.1,161.74c.08-.58.91-1,.91-1l.59.92-.84.41Z"/><path class="cls-7" d="M138.26,147.24c0-.27.43-.46.43-.46l.27.42-.39.2Z"/><path class="cls-7" d="M147.43,150.07c0-.27.43-.46.43-.46l.27.43-.39.19Z"/><path class="cls-7" d="M128.6,159.64c0-.22.35-.38.35-.38l.22.35-.32.16Z"/><path class="cls-7" d="M129.84,155.45c0-.22.35-.38.35-.38l.22.35-.31.15Z"/><path class="cls-7" d="M123.3,148.24c.21-1.46,2.3-2.5,2.3-2.5l1.45,2.29-2.08,1Z"/><path class="cls-7" d="M141.76,154.41c.09-.59.92-1,.92-1l.58.91-.83.42Z"/><path class="cls-7" d="M134.54,151.42c0-.27.42-.47.42-.47l.27.43-.38.19Z"/><path class="cls-7" d="M136.62,152.75c0-.27.43-.46.43-.46l.27.42-.39.2Z"/><path class="cls-7" d="M140,151.4c0-.22.34-.38.34-.38l.23.35-.32.16Z"/><path class="cls-7" d="M136.33,154.29c0-.22.35-.38.35-.38l.22.35-.32.16Z"/><path class="cls-7" d="M136.51,154.41c.09-.59.92-1,.92-1l.58.91-.83.42Z"/><path class="cls-7" d="M132.18,153.07c.08-.58.92-1,.92-1l.58.92-.83.42Z"/><path class="cls-7" d="M133.26,147.16c.09-.59.92-1,.92-1l.58.91-.83.42Z"/><path class="cls-7" d="M148.76,156.41c.09-.59.92-1,.92-1l.58.91-.83.42Z"/><path class="cls-7" d="M154.31,184.22c.05-.41.64-.7.64-.7l.41.65-.59.29Z"/><path class="cls-7" d="M150.39,181.56c.06-.41.64-.71.64-.71l.41.65-.58.29Z"/><path class="cls-7" d="M150.12,193.6c0-.27.42-.46.42-.46l.27.43-.38.19Z"/><path class="cls-7" d="M166.12,190.19c0-.27.42-.47.42-.47l.27.43-.38.19Z"/><path class="cls-7" d="M147.27,191.74c0-.28.43-.47.43-.47l.27.43-.39.19Z"/><path class="cls-7" d="M150.31,187.7c0-.27.42-.47.42-.47l.27.43-.38.19Z"/><path class="cls-7" d="M147.44,182.07c0-.27.43-.47.43-.47l.27.43-.39.19Z"/><path class="cls-7" d="M152.39,189c0-.27.43-.46.43-.46l.27.42-.39.2Z"/><path class="cls-7" d="M155.8,187.68c0-.22.34-.38.34-.38l.23.35-.32.15Z"/><path class="cls-7" d="M157.7,198.39c0-.22.34-.38.34-.38l.23.35-.32.16Z"/><path class="cls-7" d="M158.85,185.07c0-.22.35-.38.35-.38l.22.35-.32.15Z"/><path class="cls-7" d="M150.08,194.14c0-.22.35-.38.35-.38l.22.35-.32.16Z"/><path class="cls-7" d="M154.31,184.22c0-.22.34-.38.34-.38l.23.35-.32.16Z"/><path class="cls-7" d="M152.1,190.57c0-.22.35-.38.35-.38l.22.35-.32.15Z"/><path class="cls-7" d="M151.69,195.4c0-.27.43-.46.43-.46l.27.42-.39.2Z"/><path class="cls-7" d="M151.16,191.19c.21-1.46,2.29-2.5,2.29-2.5l1.46,2.29-2.09,1Z"/><path class="cls-7" d="M139.28,196.69c.21-1.46,2.29-2.5,2.29-2.5l1.46,2.29-2.08,1Z"/><path class="cls-7" d="M137,180.19c.21-1.46,2.29-2.5,2.29-2.5l1.46,2.29-2.08,1Z"/><path class="cls-7" d="M141.78,194.85c.09-.58.92-1,.92-1l.58.92-.83.42Z"/><path class="cls-7" d="M148,189.35c.08-.58.92-1,.92-1l.58.92-.83.42Z"/><path class="cls-7" d="M162.39,194.37c0-.28.43-.47.43-.47l.27.43-.39.19Z"/><path class="cls-7" d="M164.47,195.7c0-.27.43-.47.43-.47l.27.43-.39.19Z"/><path class="cls-7" d="M164.18,197.23c0-.22.35-.38.35-.38l.22.35-.31.16Z"/><path class="cls-7" d="M164.37,197.35c.08-.58.91-1,.91-1l.59.92-.84.42Z"/><path class="cls-7" d="M160,196c.09-.58.92-1,.92-1l.58.92-.83.41Z"/><path class="cls-7" d="M138.18,180c.08-.58.92-1,.92-1l.58.92-.83.42Z"/><path class="cls-7" d="M161.12,190.1c.08-.58.91-1,.91-1l.59.92-.84.42Z"/><path class="cls-7" d="M151.73,184.25c.25-.12.63.09.63.09l-.21.47-.38-.22Z"/><path class="cls-7" d="M149.05,178.92c.37-.17.94.15.94.15l-.31.7-.57-.33Z"/><path class="cls-7" d="M150.87,183.17c.2-.09.51.08.51.08l-.17.38-.3-.18Z"/><path class="cls-7" d="M156,182.67c.53-.26,1.34.21,1.34.21l-.44,1-.8-.46Z"/><path class="cls-7" d="M153.09,178.93c.25-.12.62.1.62.1l-.2.46-.38-.22Z"/><path class="cls-7" d="M151.65,179.54c.2-.09.51.08.51.08L152,180l-.31-.18Z"/><path class="cls-7" d="M150.61,179.1c1.33-.63,3.35.52,3.35.52l-1.09,2.49-2-1.16Z"/><path class="cls-7" d="M157.34,182.88c1.33-.64,3.35.51,3.35.51l-1.09,2.49-2-1.16Z"/><path class="cls-7" d="M143.78,184.85c0-.27.43-.46.43-.46l.27.43-.39.19Z"/><path class="cls-7" d="M153,187.69c0-.27.43-.47.43-.47l.27.43-.39.19Z"/><path class="cls-7" d="M147.28,192c.09-.58.92-1,.92-1l.58.92-.83.41Z"/><path class="cls-7" d="M140.06,189c0-.27.42-.46.42-.46l.27.42-.38.2Z"/><path class="cls-7" d="M142.14,190.37c0-.28.43-.47.43-.47l.27.43-.39.19Z"/><path class="cls-7" d="M145.55,189c0-.22.34-.38.34-.38l.23.35-.32.16Z"/><path class="cls-7" d="M141.85,191.9c0-.22.35-.38.35-.38l.22.35-.32.16Z"/><path class="cls-7" d="M142,192c.09-.58.92-1,.92-1l.58.92-.83.41Z"/><path class="cls-7" d="M137.7,190.69c.08-.59.92-1,.92-1l.58.91-.83.42Z"/><path class="cls-7" d="M138.78,184.77c.09-.58.92-1,.92-1l.58.92-.83.41Z"/><path class="cls-7" d="M154.28,194c.09-.58.92-1,.92-1l.58.92-.83.41Z"/><path class="cls-7" d="M175.52,180c.45-.09.94.39.94.39l-.55.62-.49-.47Z"/><path class="cls-7" d="M177.09,175.26a1.34,1.34,0,0,1,.94.39l-.54.63-.5-.48Z"/><path class="cls-7" d="M164.31,179.09a.92.92,0,0,1,.63.26l-.37.41-.32-.31Z"/><path class="cls-7" d="M173,193.61a.88.88,0,0,1,.63.25l-.37.42-.32-.32Z"/><path class="cls-7" d="M165.38,175.67a.92.92,0,0,1,.63.26l-.37.41-.32-.31Z"/><path class="cls-7" d="M170.59,177.27a.92.92,0,0,1,.63.26l-.37.41-.32-.31Z"/><path class="cls-7" d="M175.62,172.55c.3-.06.62.26.62.26l-.36.41-.33-.32Z"/><path class="cls-7" d="M169.85,179.76a.89.89,0,0,1,.62.26l-.36.42-.33-.32Z"/><path class="cls-7" d="M172.35,182.64a.73.73,0,0,1,.51.21l-.29.34-.27-.26Z"/><path class="cls-7" d="M161.66,188.15c.25-.05.51.21.51.21l-.29.34-.27-.26Z"/><path class="cls-7" d="M176.07,184.75c.24-.05.51.21.51.21l-.3.33L176,185Z"/><path class="cls-7" d="M163.74,179.24c.24-.05.51.21.51.21l-.3.34-.27-.26Z"/><path class="cls-7" d="M175.52,180c.24,0,.51.21.51.21l-.3.33-.26-.25Z"/><path class="cls-7" d="M168.14,180c.24,0,.51.22.51.22l-.3.33-.26-.25Z"/><path class="cls-7" d="M162.91,181.25c.3-.06.63.26.63.26l-.36.41-.33-.32Z"/><path class="cls-7" d="M167.19,179.29c1.6-.29,3.36,1.4,3.36,1.4l-2,2.2-1.75-1.68Z"/><path class="cls-7" d="M157.64,169.53c1.6-.29,3.36,1.39,3.36,1.39l-2,2.21-1.75-1.68Z"/><path class="cls-7" d="M174.3,161.67c1.6-.29,3.35,1.4,3.35,1.4l-2,2.21L174,163.59Z"/><path class="cls-7" d="M160.36,171.35a1.93,1.93,0,0,1,1.34.56l-.78.89-.7-.68Z"/><path class="cls-7" d="M168.1,175.53a1.9,1.9,0,0,1,1.35.55l-.78.89-.71-.68Z"/><path class="cls-7" d="M167.39,191.37a.92.92,0,0,1,.63.26l-.37.42-.32-.32Z"/><path class="cls-7" d="M166.64,193.87c.3-.06.63.26.63.26l-.36.41-.33-.31Z"/><path class="cls-7" d="M164.94,194.11c.24-.05.51.21.51.21l-.3.34-.27-.26Z"/><path class="cls-7" d="M164.87,194.33c.64-.12,1.34.56,1.34.56l-.78.88-.7-.68Z"/><path class="cls-7" d="M144.28,198.78c0-.27.43-.47.43-.47l.27.43-.39.19Z"/><path class="cls-7" d="M146.37,200.11c0-.27.42-.46.42-.46l.28.42-.39.2Z"/><path class="cls-7" d="M146.26,201.77c.08-.59.92-1,.92-1l.58.91-.83.42Z"/><path class="cls-7" d="M141.93,200.43c.08-.58.91-1,.91-1l.59.92-.84.42Z"/><path class="cls-7" d="M154.87,198c.29-.06.62.26.62.26l-.36.41-.33-.31Z"/><path class="cls-7" d="M149.29,195.79c.29-.06.62.26.62.26l-.36.41-.33-.31Z"/><path class="cls-7" d="M148.54,198.28a.92.92,0,0,1,.63.26l-.37.41-.33-.31Z"/><path class="cls-7" d="M146.83,198.52a.76.76,0,0,1,.51.21l-.3.34-.26-.26Z"/><path class="cls-7" d="M146.76,198.74c.64-.12,1.35.56,1.35.56l-.79.88-.7-.67Z"/><path class="cls-7" d="M132.24,196.54c-.27.06-.59-.22-.59-.22l.29-.41.32.28Z"/><path class="cls-7" d="M132.68,194.1c-.27.07-.6-.22-.6-.22l.29-.41.33.29Z"/><path class="cls-7" d="M134.25,193.57c-.57.14-1.28-.47-1.28-.47l.63-.89.7.61Z"/><path class="cls-7" d="M134.67,198.08c-.57.15-1.28-.46-1.28-.46l.63-.89.7.61Z"/><path class="cls-7" d="M127.5,187.05a.87.87,0,0,1,0-.68l.52.18-.17.42Z"/><path class="cls-7" d="M127.57,193.06a.87.87,0,0,1,0-.68l.52.18-.17.42Z"/><path class="cls-7" d="M130.16,192.79a.85.85,0,0,1,0-.67l.52.17-.17.43Z"/><path class="cls-7" d="M131,194.28a.74.74,0,0,1,0-.55l.42.14-.13.35Z"/><path class="cls-7" d="M131.26,194.26a1.92,1.92,0,0,1,0-1.45l1.12.38-.36.91Z"/><path class="cls-7" d="M164.9,189.63c.64-.12,1.35.56,1.35.56l-.79.88-.7-.67Z"/><path class="cls-7" d="M174.84,162.79c.64-.12,1.34.55,1.34.55l-.78.89-.7-.68Z"/><path class="cls-7" d="M151.1,200.07a1.93,1.93,0,0,1,1.34.56l-.78.89-.7-.68Z"/><path class="cls-7" d="M174.68,177.49c.2.21.1.65.1.65l-.56,0,.11-.44Z"/><path class="cls-7" d="M179.44,173.05c.31.31.14,1,.14,1l-.83-.07.16-.67Z"/><path class="cls-7" d="M175.54,176.28c.17.17.08.53.08.53l-.45,0,.08-.37Z"/><path class="cls-7" d="M177.69,181.14c.44.43.21,1.38.21,1.38l-1.19-.09.23-1Z"/><path class="cls-7" d="M180.71,177c.2.21.1.65.1.65l-.55,0,.1-.45Z"/><path class="cls-7" d="M179.61,175.82c.17.16.08.52.08.52l-.45,0,.09-.36Z"/><path class="cls-7" d="M179.75,174.65c1.09,1.08.51,3.46.51,3.46l-3-.23.57-2.37Z"/><path class="cls-7" d="M177.9,182.52c1.09,1.09.52,3.46.52,3.46l-3-.22.58-2.38Z"/><path class="cls-7" d="M171.53,169.91a.89.89,0,0,1,.62.26l-.36.41-.33-.31Z"/><path class="cls-7" d="M171.44,179.86c.3-.06.63.26.63.26l-.37.41-.32-.32Z"/><path class="cls-7" d="M165.08,175.78c.64-.12,1.35.56,1.35.56l-.78.88-.71-.67Z"/><path class="cls-7" d="M166,167.68a.89.89,0,0,1,.62.26l-.36.41-.33-.31Z"/><path class="cls-7" d="M165.2,170.18c.3-.06.63.26.63.26l-.37.41-.32-.32Z"/><path class="cls-7" d="M167.71,173.05c.24,0,.51.22.51.22l-.3.33-.27-.25Z"/><path class="cls-7" d="M163.49,170.42c.25,0,.51.21.51.21l-.29.34-.27-.26Z"/><path class="cls-7" d="M163.42,170.64a1.93,1.93,0,0,1,1.35.55l-.78.89-.71-.68Z"/><path class="cls-7" d="M163.46,165.94c.64-.12,1.34.56,1.34.56l-.78.88-.7-.68Z"/><path class="cls-7" d="M170,165a1.9,1.9,0,0,1,1.35.55l-.78.89-.71-.68Z"/><path class="cls-7" d="M165.19,183.32c.64-.12,1.34.55,1.34.55l-.78.89-.7-.68Z"/><path class="cls-7" d="M154.62,173.69c.06-.41.64-.7.64-.7l.41.65-.58.29Z"/><path class="cls-7" d="M150.7,171c.06-.41.65-.71.65-.71l.41.65-.59.29Z"/><path class="cls-7" d="M146,189.7c0-.27.43-.47.43-.47l.27.43-.39.19Z"/><path class="cls-7" d="M150.43,183.07c0-.27.43-.46.43-.46l.27.43-.39.19Z"/><path class="cls-7" d="M147.59,181.21c0-.27.42-.47.42-.47l.27.43-.38.19Z"/><path class="cls-7" d="M150.62,177.17c0-.27.43-.47.43-.47l.27.43-.39.19Z"/><path class="cls-7" d="M147.75,171.54c0-.27.43-.47.43-.47l.27.43-.39.2Z"/><path class="cls-7" d="M152.7,178.5c0-.27.43-.46.43-.46l.27.42-.39.2Z"/><path class="cls-7" d="M156.11,177.15c0-.22.35-.38.35-.38l.22.35-.32.16Z"/><path class="cls-7" d="M158,187.86c0-.22.35-.38.35-.38l.22.35-.32.16Z"/><path class="cls-7" d="M150.36,189.27c0-.22.35-.38.35-.38l.22.35-.32.16Z"/><path class="cls-7" d="M159.16,174.54c0-.22.35-.38.35-.38l.22.35-.31.16Z"/><path class="cls-7" d="M150.39,183.61c0-.22.35-.38.35-.38l.22.35-.32.16Z"/><path class="cls-7" d="M154.62,173.69c0-.22.35-.38.35-.38l.22.35-.32.16Z"/><path class="cls-7" d="M152.41,180c0-.22.35-.38.35-.38l.22.35-.31.16Z"/><path class="cls-7" d="M152,184.87c0-.27.43-.46.43-.46l.27.43-.39.19Z"/><path class="cls-7" d="M151.47,180.66c.21-1.46,2.29-2.5,2.29-2.5l1.46,2.29-2.08,1Z"/><path class="cls-7" d="M139.6,186.16c.2-1.46,2.29-2.5,2.29-2.5l1.46,2.29-2.09,1Z"/><path class="cls-7" d="M137.3,169.66c.21-1.46,2.3-2.5,2.3-2.5l1.45,2.29-2.08,1Z"/><path class="cls-7" d="M136.85,193.24c.08-.58.91-1,.91-1l.59.92-.84.41Z"/><path class="cls-7" d="M142.1,184.32c.08-.58.91-1,.91-1l.59.92-.84.42Z"/><path class="cls-7" d="M148.26,178.82c.09-.58.92-1,.92-1l.58.92-.83.42Z"/><path class="cls-7" d="M135.18,188.82c.21-1.45,2.29-2.5,2.29-2.5l1.46,2.3-2.08,1Z"/><path class="cls-7" d="M135.63,170.78c.4-2.81,4.42-4.82,4.42-4.82l2.81,4.41-4,2Z"/><path class="cls-7" d="M128.76,149.69c.4-2.81,4.41-4.81,4.41-4.81l2.81,4.41-4,2Z"/><path class="cls-7" d="M178.92,180.28c.4-2.81,4.42-4.82,4.42-4.82l2.81,4.41-4,2Z"/><path class="cls-7" d="M118.9,169.77c2.83.07,5.29,3.82,5.29,3.82l-4,3.31-2.47-3.75Z"/><path class="cls-7" d="M170.19,150.6c2.83.07,5.29,3.83,5.29,3.83l-4,3.3L169,154Z"/><path class="cls-7" d="M177.38,134.65c2.84.08,5.3,3.83,5.3,3.83l-4.06,3.3L176.16,138Z"/><path class="cls-7" d="M142.75,107.15c2.84.07,5.3,3.82,5.3,3.82L144,114.28l-2.46-3.76Z"/><path class="cls-7" d="M109.42,134.48c2.83.07,5.3,3.83,5.3,3.83l-4.06,3.3-2.46-3.75Z"/><path class="cls-7" d="M152,173.72c.25-.12.63.09.63.09l-.21.47-.37-.22Z"/><path class="cls-7" d="M149.36,168.4c.37-.18.94.14.94.14l-.31.7-.57-.32Z"/><path class="cls-7" d="M151.18,172.64a.7.7,0,0,1,.51.08l-.16.38-.31-.17Z"/><path class="cls-7" d="M149.36,170.82c.53-.25,1.34.21,1.34.21l-.44,1-.81-.46Z"/><path class="cls-7" d="M158.46,167.32c.38-.18.95.15.95.15l-.31.7-.57-.33Z"/><path class="cls-7" d="M153.4,168.4c.25-.12.63.1.63.1l-.21.46-.37-.21Z"/><path class="cls-7" d="M152,169a.7.7,0,0,1,.51.08l-.16.38-.31-.17Z"/><path class="cls-7" d="M150.93,168.57c1.32-.63,3.35.52,3.35.52l-1.1,2.49-2-1.16Z"/><path class="cls-7" d="M147.86,159.89c1.33-.63,3.35.52,3.35.52l-1.09,2.49-2-1.16Z"/><path class="cls-7" d="M144.1,174.32c0-.27.42-.46.42-.46l.27.43-.38.19Z"/><path class="cls-7" d="M153.26,177.16c0-.27.43-.47.43-.47l.27.43-.39.19Z"/><path class="cls-7" d="M147.6,181.49c.08-.58.91-1,.91-1l.59.92-.84.41Z"/><path class="cls-7" d="M140.37,178.5c0-.27.43-.46.43-.46l.27.42-.39.2Z"/><path class="cls-7" d="M142.45,179.84c0-.28.43-.47.43-.47l.27.43-.39.19Z"/><path class="cls-7" d="M145.86,178.48c0-.22.35-.38.35-.38l.22.35-.32.16Z"/><path class="cls-7" d="M142.16,181.37c0-.22.35-.38.35-.38l.22.35-.31.16Z"/><path class="cls-7" d="M142.35,181.49c.08-.58.91-1,.91-1l.59.92-.84.41Z"/><path class="cls-7" d="M138,180.16c.09-.59.92-1,.92-1l.58.91-.83.42Z"/><path class="cls-7" d="M139.1,174.24c.08-.58.91-1,.91-1l.59.92-.84.41Z"/><path class="cls-7" d="M115.51,188.32c.21-1.45,2.29-2.5,2.29-2.5l1.46,2.3-2.08,1Z"/><path class="cls-7" d="M118.16,187.77c.21-1.46,2.29-2.5,2.29-2.5l1.46,2.29-2.09,1Z"/><path class="cls-7" d="M119.35,187.62c.08-.59.91-1,.91-1l.59.91L120,188Z"/><path class="cls-7" d="M125.26,181.91c0-.27.43-.47.43-.47l.27.43-.39.19Z"/><path class="cls-7" d="M121.54,186.09c0-.28.42-.47.42-.47l.27.43-.38.19Z"/><path class="cls-7" d="M123.62,187.42c0-.27.43-.47.43-.47l.27.43-.39.19Z"/><path class="cls-7" d="M123.33,189c0-.23.35-.39.35-.39l.22.35-.32.16Z"/><path class="cls-7" d="M123.51,189.07c.09-.58.92-1,.92-1l.58.92-.83.42Z"/><path class="cls-7" d="M112.18,182.07c.08-.58.92-1,.92-1l.58.92-.83.42Z"/><path class="cls-7" d="M120.26,181.82c.09-.58.92-1,.92-1l.58.92-.83.42Z"/><path class="cls-7" d="M154.6,183.49c.08-.58.91-1,.91-1l.59.92-.84.41Z"/><path class="cls-7" d="M157.23,126.32c.38-.15.93.21.93.21l-.35.67-.55-.35Z"/><path class="cls-7" d="M157.55,121.6c.38-.16.93.2.93.2l-.35.68-.55-.36Z"/><path class="cls-7" d="M139.05,127a.85.85,0,0,1,.62.13l-.23.45-.36-.23Z"/><path class="cls-7" d="M147,127.45c.26-.11.62.13.62.13l-.23.45-.36-.24Z"/><path class="cls-7" d="M147.19,124.05c.25-.11.62.13.62.13l-.23.45-.37-.24Z"/><path class="cls-7" d="M152.21,124.63c.25-.11.61.13.61.13l-.23.45-.36-.24Z"/><path class="cls-7" d="M155.62,119.31c.25-.1.62.13.62.13l-.24.45-.36-.23Z"/><path class="cls-7" d="M152.11,127.1c.25-.1.62.13.62.13l-.24.45-.36-.23Z"/><path class="cls-7" d="M155,129.35a.68.68,0,0,1,.5.11l-.19.37-.29-.19Z"/><path class="cls-7" d="M146.71,136.41c.21-.09.5.11.5.11l-.19.36-.29-.19Z"/><path class="cls-7" d="M141.63,130.52c.21-.09.5.1.5.1l-.19.37-.29-.19Z"/><path class="cls-7" d="M158.79,130.67a.71.71,0,0,1,.51.11l-.19.37-.3-.19Z"/><path class="cls-7" d="M146.53,127.68a.71.71,0,0,1,.51.11l-.19.37-.3-.19Z"/><path class="cls-7" d="M157.23,126.32c.2-.08.5.11.5.11l-.19.37-.3-.19Z"/><path class="cls-7" d="M150.64,127.63c.21-.09.5.1.5.1l-.19.37-.29-.19Z"/><path class="cls-7" d="M146.26,129.71c.25-.1.61.14.61.14l-.23.45-.36-.24Z"/><path class="cls-7" d="M149.63,127.12c1.36-.55,3.31.72,3.31.72l-1.24,2.42L149.75,129Z"/><path class="cls-7" d="M138.88,119.65c1.37-.55,3.32.72,3.32.72L141,122.78l-2-1.27Z"/><path class="cls-7" d="M152,109.34c1.36-.55,3.31.72,3.31.72L154,112.47l-1.95-1.27Z"/><path class="cls-7" d="M131.38,120.86c.55-.23,1.33.28,1.33.28l-.5,1-.78-.51Z"/><path class="cls-7" d="M141.73,120.88c.54-.22,1.32.29,1.32.29l-.49,1-.78-.51Z"/><path class="cls-7" d="M149.59,123.43c.54-.22,1.32.29,1.32.29l-.49,1-.78-.51Z"/><path class="cls-7" d="M134.35,117.19c1.36-.56,3.32.71,3.32.71l-1.25,2.42-1.95-1.27Z"/><path class="cls-7" d="M152.7,110.29c.55-.22,1.33.29,1.33.29l-.5,1-.78-.51Z"/><path class="cls-7" d="M155.91,124.11c.22.16.23.59.23.59l-.5.06v-.43Z"/><path class="cls-7" d="M159.14,119.11c.35.23.35.89.35.89l-.75.08v-.65Z"/><path class="cls-7" d="M156.4,122.83c.18.12.19.48.19.48l-.41,0V123Z"/><path class="cls-7" d="M159.43,127c.48.33.49,1.26.49,1.26l-1.07.13,0-.93Z"/><path class="cls-7" d="M164.67,126.43c.34.23.35.88.35.88l-.76.09v-.66Z"/><path class="cls-7" d="M161.18,122.6c.23.15.23.59.23.59l-.5.06v-.44Z"/><path class="cls-7" d="M159.93,121.67c.18.13.19.48.19.48l-.41,0v-.36Z"/><path class="cls-7" d="M159.78,120.55c1.22.83,1.25,3.16,1.25,3.16l-2.7.31,0-2.33Z"/><path class="cls-7" d="M112.88,126.28c1.22.82,1.25,3.15,1.25,3.15l-2.7.31,0-2.33Z"/><path class="cls-7" d="M151.37,117.56c.25-.1.62.13.62.13l-.24.45-.36-.23Z"/><path class="cls-7" d="M153.55,126.9c.26-.1.62.14.62.14l-.23.45-.36-.24Z"/><path class="cls-7" d="M147,124.2c.55-.22,1.33.29,1.33.29l-.5,1-.78-.51Z"/><path class="cls-7" d="M145.88,116.45c.25-.1.62.14.62.14l-.23.45-.37-.24Z"/><path class="cls-7" d="M145.78,118.93c.26-.11.62.13.62.13l-.23.45-.37-.24Z"/><path class="cls-7" d="M148.67,121.18a.71.71,0,0,1,.51.11l-.19.37-.3-.2Z"/><path class="cls-7" d="M144.31,119.45a.68.68,0,0,1,.5.11l-.18.37-.3-.19Z"/><path class="cls-7" d="M144.3,119.67c.54-.22,1.32.29,1.32.29l-.49,1-.78-.51Z"/><path class="cls-7" d="M143.26,115.26c.55-.23,1.33.28,1.33.28l-.5,1-.78-.51Z"/><path class="cls-7" d="M148.91,113.2c.55-.22,1.33.29,1.33.29l-.5,1L149,114Z"/><path class="cls-7" d="M148.76,131.25c.54-.22,1.33.29,1.33.29l-.5,1-.78-.51Z"/><path class="cls-7" d="M184,138.14a1.3,1.3,0,0,1,.94.2l-.35.68-.55-.35Z"/><path class="cls-7" d="M184.28,133.42c.38-.16.93.2.93.2l-.35.68-.55-.36Z"/><path class="cls-7" d="M165.78,138.77a.85.85,0,0,1,.62.13l-.23.45-.37-.23Z"/><path class="cls-7" d="M173.74,139.27c.26-.11.62.13.62.13l-.23.45-.36-.24Z"/><path class="cls-7" d="M173.92,135.87c.25-.11.62.13.62.13l-.23.45-.37-.24Z"/><path class="cls-7" d="M178.94,136.45c.25-.11.61.13.61.13l-.23.45-.36-.24Z"/><path class="cls-7" d="M182.35,131.13c.25-.1.61.13.61.13l-.23.45-.36-.23Z"/><path class="cls-7" d="M178.84,138.92c.25-.11.61.13.61.13l-.23.45-.36-.24Z"/><path class="cls-7" d="M181.73,141.17c.2-.08.5.11.5.11l-.19.37-.29-.19Z"/><path class="cls-7" d="M173.44,148.23c.2-.09.5.11.5.11l-.19.36-.29-.19Z"/><path class="cls-7" d="M168.36,142.33a.68.68,0,0,1,.5.11l-.19.37-.29-.19Z"/><path class="cls-7" d="M185.52,142.49a.71.71,0,0,1,.51.11l-.19.37-.3-.19Z"/><path class="cls-7" d="M173.26,139.5a.71.71,0,0,1,.51.11l-.19.37-.3-.19Z"/><path class="cls-7" d="M184,138.14a.71.71,0,0,1,.51.11l-.19.37-.3-.19Z"/><path class="cls-7" d="M177.37,139.44c.2-.08.5.11.5.11l-.19.37-.3-.19Z"/><path class="cls-7" d="M173,141.53c.25-.1.61.13.61.13l-.23.45-.36-.23Z"/><path class="cls-7" d="M176.36,138.94c1.36-.55,3.31.72,3.31.72l-1.24,2.41-2-1.27Z"/><path class="cls-7" d="M165.61,131.47c1.36-.55,3.32.72,3.32.72l-1.25,2.41-2-1.27Z"/><path class="cls-7" d="M178.69,121.16c1.37-.56,3.32.72,3.32.72l-1.24,2.41-2-1.27Z"/><path class="cls-7" d="M158.11,132.68c.54-.23,1.32.28,1.32.28l-.49,1-.78-.51Z"/><path class="cls-7" d="M168.46,132.7c.54-.22,1.32.29,1.32.29l-.49,1-.79-.51Z"/><path class="cls-7" d="M176.32,135.25c.54-.22,1.32.28,1.32.28l-.49,1-.78-.51Z"/><path class="cls-7" d="M161.08,129c1.36-.56,3.31.71,3.31.71l-1.24,2.42-2-1.27Z"/><path class="cls-7" d="M179.43,122.11c.54-.22,1.33.29,1.33.29l-.5,1-.78-.51Z"/><path class="cls-7" d="M182.63,135.93c.23.16.24.59.24.59l-.51.06v-.44Z"/><path class="cls-7" d="M185.87,130.93c.35.23.35.88.35.88l-.76.09v-.65Z"/><path class="cls-7" d="M183.13,134.65c.18.12.19.48.19.48l-.41,0v-.35Z"/><path class="cls-7" d="M186.15,138.82c.49.33.5,1.26.5,1.26l-1.08.13v-.93Z"/><path class="cls-7" d="M191.4,138.24c.34.24.35.89.35.89l-.76.09v-.66Z"/><path class="cls-7" d="M187.91,134.42c.23.15.23.59.23.59l-.5.06v-.44Z"/><path class="cls-7" d="M186.65,133.49c.19.13.19.48.19.48l-.41.05v-.36Z"/><path class="cls-7" d="M186.51,132.37c1.22.83,1.25,3.15,1.25,3.15l-2.7.31,0-2.32Z"/><path class="cls-7" d="M186.65,140.08c1.22.83,1.25,3.16,1.25,3.16l-2.7.31,0-2.33Z"/><path class="cls-7" d="M178.1,129.38c.25-.1.61.13.61.13l-.23.45-.36-.23Z"/><path class="cls-7" d="M180.28,138.72c.25-.1.62.14.62.14l-.23.45-.37-.24Z"/><path class="cls-7" d="M143.54,136.23c.26-.11.62.13.62.13l-.23.45-.36-.24Z"/><path class="cls-7" d="M173.68,136c.54-.22,1.32.29,1.32.29l-.49,1-.78-.51Z"/><path class="cls-7" d="M172.61,128.27c.25-.1.62.14.62.14l-.24.45-.36-.24Z"/><path class="cls-7" d="M172.51,130.74c.25-.1.62.14.62.14l-.23.45-.37-.24Z"/><path class="cls-7" d="M175.4,133a.68.68,0,0,1,.5.11l-.19.37-.29-.2Z"/><path class="cls-7" d="M171,131.27a.68.68,0,0,1,.5.11l-.19.37-.29-.2Z"/><path class="cls-7" d="M171,131.49c.54-.22,1.32.28,1.32.28l-.49,1-.78-.51Z"/><path class="cls-7" d="M170,127.08c.55-.23,1.33.28,1.33.28l-.5,1-.78-.51Z"/><path class="cls-7" d="M175.64,125c.55-.22,1.33.29,1.33.29l-.5,1-.78-.5Z"/><path class="cls-7" d="M175.49,143.07c.54-.22,1.32.29,1.32.29l-.49,1-.78-.5Z"/><path class="cls-7" d="M185.28,166.27a1.3,1.3,0,0,1,.94.2l-.35.68-.55-.35Z"/><path class="cls-7" d="M185.61,161.55c.38-.16.93.2.93.2l-.35.68-.55-.36Z"/><path class="cls-7" d="M167.11,166.9c.25-.1.62.13.62.13l-.23.45-.37-.23Z"/><path class="cls-7" d="M175.07,167.4c.26-.11.62.13.62.13l-.23.45-.36-.24Z"/><path class="cls-7" d="M175.25,164c.25-.11.62.13.62.13l-.24.45-.36-.24Z"/><path class="cls-7" d="M180.27,164.58c.25-.11.61.13.61.13l-.23.45-.36-.24Z"/><path class="cls-7" d="M183.68,159.26c.25-.1.61.13.61.13l-.23.45-.36-.23Z"/><path class="cls-7" d="M180.17,167.05c.25-.11.61.13.61.13l-.23.45-.36-.24Z"/><path class="cls-7" d="M183.06,169.3c.2-.08.5.11.5.11l-.19.37-.29-.19Z"/><path class="cls-7" d="M174.77,176.36c.2-.09.5.11.5.11l-.19.36-.29-.19Z"/><path class="cls-7" d="M169.69,170.47c.2-.09.5.1.5.1l-.19.37-.29-.19Z"/><path class="cls-7" d="M186.85,170.62a.71.71,0,0,1,.51.11l-.19.37-.3-.19Z"/><path class="cls-7" d="M174.59,167.63a.71.71,0,0,1,.51.11l-.19.37-.3-.19Z"/><path class="cls-7" d="M185.28,166.27a.71.71,0,0,1,.51.11l-.19.37-.3-.19Z"/><path class="cls-7" d="M178.7,167.57c.2-.08.5.11.5.11l-.19.37-.3-.19Z"/><path class="cls-7" d="M174.31,169.66a.85.85,0,0,1,.62.13l-.23.45-.36-.23Z"/><path class="cls-7" d="M177.68,167.07c1.37-.55,3.32.72,3.32.72l-1.24,2.42-1.95-1.28Z"/><path class="cls-7" d="M166.94,159.6c1.36-.55,3.32.72,3.32.72L169,162.73l-1.95-1.27Z"/><path class="cls-7" d="M169.36,120.29c1.36-.56,3.31.72,3.31.72l-1.24,2.41-2-1.27Z"/><path class="cls-7" d="M159.44,160.81c.54-.23,1.32.28,1.32.28l-.49,1-.78-.51Z"/><path class="cls-7" d="M169.79,160.83c.54-.22,1.32.29,1.32.29l-.5,1-.78-.51Z"/><path class="cls-7" d="M177.65,163.38c.54-.22,1.32.29,1.32.29l-.49,1-.78-.51Z"/><path class="cls-7" d="M162.41,157.14c1.36-.56,3.31.71,3.31.71l-1.24,2.42L162.53,159Z"/><path class="cls-7" d="M180.76,150.24c.54-.22,1.32.29,1.32.29l-.49,1-.78-.51Z"/><path class="cls-7" d="M184,164.06c.23.16.24.59.24.59l-.51.06v-.43Z"/><path class="cls-7" d="M187.2,159.06c.35.23.35.89.35.89l-.76.08v-.65Z"/><path class="cls-7" d="M184.46,162.78c.18.12.19.48.19.48l-.41.05V163Z"/><path class="cls-7" d="M187.48,167c.49.33.5,1.26.5,1.26l-1.08.13v-.93Z"/><path class="cls-7" d="M192.73,166.37c.34.24.35.89.35.89l-.76.09v-.66Z"/><path class="cls-7" d="M189.24,162.55c.23.15.23.59.23.59l-.5.06v-.44Z"/><path class="cls-7" d="M188,161.62c.19.13.19.48.19.48l-.41.05v-.36Z"/><path class="cls-7" d="M187.84,160.5c1.22.83,1.25,3.15,1.25,3.15l-2.7.31,0-2.32Z"/><path class="cls-7" d="M188,168.21c1.22.83,1.25,3.16,1.25,3.16l-2.7.31,0-2.33Z"/><path class="cls-7" d="M179.43,157.51c.25-.1.61.13.61.13l-.23.45-.36-.23Z"/><path class="cls-7" d="M181.61,166.85c.25-.1.62.14.62.14l-.23.45-.37-.24Z"/><path class="cls-7" d="M175,164.15c.54-.22,1.32.29,1.32.29l-.49,1-.78-.51Z"/><path class="cls-7" d="M173.94,156.4c.25-.1.62.14.62.14l-.24.45-.36-.24Z"/><path class="cls-7" d="M173.84,158.87c.25-.1.62.14.62.14l-.23.45-.37-.24Z"/><path class="cls-7" d="M176.73,161.13a.68.68,0,0,1,.5.11l-.19.37-.29-.2Z"/><path class="cls-7" d="M172.37,159.4a.68.68,0,0,1,.5.11l-.19.37-.29-.2Z"/><path class="cls-7" d="M172.36,159.62c.54-.22,1.32.29,1.32.29l-.49,1-.78-.51Z"/><path class="cls-7" d="M171.32,155.21c.54-.23,1.33.28,1.33.28l-.5,1-.78-.51Z"/><path class="cls-7" d="M169.66,142.92c.54-.22,1.32.29,1.32.29l-.49,1-.78-.51Z"/><path class="cls-7" d="M135.1,133.12c.55-.22,1.33.29,1.33.29l-.5,1-.78-.5Z"/><path class="cls-7" d="M134,135c.55-.22,1.33.29,1.33.29l-.5,1-.78-.5Z"/><path class="cls-7" d="M120.58,135.75c.54-.22,1.32.29,1.32.29l-.49,1-.78-.51Z"/><path class="cls-7" d="M177,153.15c.55-.22,1.33.29,1.33.29l-.5,1-.78-.51Z"/><path class="cls-7" d="M176.82,171.2c.54-.22,1.32.29,1.32.29l-.49,1-.78-.5Z"/><path class="cls-7" d="M173.93,146.66c.08-.59.92-1,.92-1l.58.91-.83.42Z"/><path class="cls-7" d="M165.72,126.17c.09-.58.92-1,.92-1l.58.92-.83.42Z"/><path class="cls-7" d="M167.75,119.16c.38-.16.93.2.93.2l-.35.68-.55-.36Z"/><path class="cls-7" d="M168.07,114.43c.39-.16.93.2.93.2l-.34.68-.55-.36Z"/><path class="cls-7" d="M139,110.16c.26-.11.62.13.62.13l-.23.45-.36-.24Z"/><path class="cls-7" d="M157.71,116.88c.26-.1.62.14.62.14l-.23.45-.36-.24Z"/><path class="cls-7" d="M162.73,117.46c.25-.1.62.13.62.13l-.23.45-.37-.23Z"/><path class="cls-7" d="M166.14,112.14c.25-.1.62.14.62.14l-.23.45-.37-.24Z"/><path class="cls-7" d="M162.63,119.93c.26-.1.62.14.62.14l-.23.45-.37-.24Z"/><path class="cls-7" d="M165.52,122.19c.21-.09.51.11.51.11l-.19.37-.3-.2Z"/><path class="cls-7" d="M169.32,123.51c.2-.09.5.11.5.11l-.19.36-.29-.19Z"/><path class="cls-7" d="M150.53,149.56c.21-.09.5.11.5.11l-.18.36-.3-.19Z"/><path class="cls-7" d="M167.75,119.16c.21-.09.5.11.5.11l-.19.36-.29-.19Z"/><path class="cls-7" d="M161.16,120.46c.21-.09.5.11.5.11l-.18.37-.3-.2Z"/><path class="cls-7" d="M141.14,109.94a.85.85,0,0,1,.62.13l-.23.45-.36-.23Z"/><path class="cls-7" d="M159.31,135.55c1.36-.56,3.31.71,3.31.71l-1.24,2.42-1.95-1.27Z"/><path class="cls-7" d="M160.11,116.26c.55-.22,1.33.29,1.33.29l-.5,1-.78-.51Z"/><path class="cls-7" d="M166.43,117c.23.15.23.59.23.59l-.5,0v-.43Z"/><path class="cls-7" d="M169.67,111.94c.34.23.35.89.35.89l-.76.09v-.66Z"/><path class="cls-7" d="M166.92,115.66c.19.13.19.48.19.48l-.41,0v-.35Z"/><path class="cls-7" d="M170,119.84c.49.33.5,1.26.5,1.26l-1.08.12v-.93Z"/><path class="cls-7" d="M170.45,114.5c.18.13.19.48.19.48l-.41,0v-.35Z"/><path class="cls-7" d="M170.3,113.39c1.22.82,1.25,3.15,1.25,3.15l-2.7.31,0-2.33Z"/><path class="cls-7" d="M170.45,121.1c1.22.82,1.24,3.15,1.24,3.15l-2.69.31,0-2.33Z"/><path class="cls-7" d="M164.08,119.74c.25-.11.61.13.61.13l-.23.45-.36-.24Z"/><path class="cls-7" d="M157.47,117c.55-.22,1.33.29,1.33.29l-.5,1-.78-.51Z"/><path class="cls-7" d="M159.19,114c.21-.09.51.1.51.1l-.19.37-.3-.19Z"/><path class="cls-7" d="M154.82,112.5c.55-.22,1.33.29,1.33.29l-.5,1-.78-.51Z"/><path class="cls-7" d="M125.6,113.49c.54-.22,1.33.29,1.33.29l-.5,1-.78-.51Z"/><path class="cls-7" d="M157.72,127.67c.09-.58.92-1,.92-1l.58.92-.83.42Z"/><path class="cls-7" d="M187.46,158c.08-.59.92-1,.92-1l.58.91-.83.42Z"/><path class="cls-7" d="M189.49,150.94c.38-.15.93.2.93.2l-.35.68-.55-.36Z"/><path class="cls-7" d="M189.81,146.21c.38-.15.93.21.93.21l-.35.68-.54-.36Z"/><path class="cls-7" d="M179.28,152.06c.25-.1.61.14.61.14l-.23.45-.36-.24Z"/><path class="cls-7" d="M179.45,148.67c.26-.11.62.13.62.13l-.23.45-.37-.24Z"/><path class="cls-7" d="M184.47,149.24c.25-.1.62.14.62.14l-.24.45-.36-.24Z"/><path class="cls-7" d="M187.88,143.93c.25-.11.62.13.62.13l-.23.45-.37-.24Z"/><path class="cls-7" d="M184.37,151.72c.25-.11.62.13.62.13l-.23.45-.37-.24Z"/><path class="cls-7" d="M187.26,154a.68.68,0,0,1,.5.11l-.19.37-.29-.19Z"/><path class="cls-7" d="M191.05,155.29a.71.71,0,0,1,.51.11l-.19.37-.3-.2Z"/><path class="cls-7" d="M178.79,152.3a.71.71,0,0,1,.51.11l-.19.37-.3-.2Z"/><path class="cls-7" d="M189.49,150.94c.2-.08.5.11.5.11l-.19.37-.29-.2Z"/><path class="cls-7" d="M182.9,152.24a.68.68,0,0,1,.5.11l-.19.37-.29-.19Z"/><path class="cls-7" d="M178.52,154.33c.25-.1.61.13.61.13l-.23.45-.36-.23Z"/><path class="cls-7" d="M181.89,151.74c1.36-.55,3.31.72,3.31.72L184,154.87l-2-1.27Z"/><path class="cls-7" d="M181.85,148.05c.55-.23,1.33.28,1.33.28l-.5,1-.78-.51Z"/><path class="cls-7" d="M188.17,148.73c.22.16.23.59.23.59l-.5.06v-.44Z"/><path class="cls-7" d="M191.41,143.73c.34.23.35.88.35.88l-.76.09v-.65Z"/><path class="cls-7" d="M188.66,147.45c.19.12.19.48.19.48l-.41,0v-.35Z"/><path class="cls-7" d="M191.69,151.62c.48.33.5,1.26.5,1.26l-1.08.13v-.94Z"/><path class="cls-7" d="M192.19,146.29c.18.12.19.48.19.48l-.41,0v-.36Z"/><path class="cls-7" d="M192,145.17c1.22.82,1.25,3.15,1.25,3.15l-2.7.31,0-2.33Z"/><path class="cls-7" d="M192.19,152.88c1.22.83,1.24,3.16,1.24,3.16l-2.7.31,0-2.33Z"/><path class="cls-7" d="M185.81,151.52a.85.85,0,0,1,.62.13l-.23.45-.36-.23Z"/><path class="cls-7" d="M179.21,148.82c.55-.22,1.33.28,1.33.28l-.5,1-.78-.51Z"/><path class="cls-7" d="M180.93,145.8c.21-.09.51.11.51.11l-.19.37-.3-.2Z"/><path class="cls-7" d="M176.56,144.29c.55-.23,1.33.28,1.33.28l-.5,1-.78-.51Z"/><path class="cls-7" d="M181,155.87c.55-.22,1.33.29,1.33.29l-.5,1-.78-.51Z"/><path class="cls-7" d="M179.46,159.46c.08-.59.92-1,.92-1l.58.91-.83.42Z"/><path class="cls-7" d="M148.29,150.14c.06-.41.65-.71.65-.71l.41.65-.59.29Z"/><path class="cls-7" d="M143.6,155.41c0-.27.43-.47.43-.47l.27.43-.39.2Z"/><path class="cls-7" d="M138.6,155.33c.08-.59.92-1,.92-1l.58.91-.83.42Z"/><path class="cls-7" d="M147.63,152c.25-.12.62.1.62.1l-.2.46-.38-.21Z"/><path class="cls-7" d="M164.93,148c.09-.58.92-1,.92-1l.58.92-.83.42Z"/><path class="cls-7" d="M164.73,144c.21-.09.5.11.5.11l-.18.37-.3-.2Z"/><path class="cls-7" d="M156.44,151.06a.68.68,0,0,1,.5.11l-.18.37-.3-.2Z"/><path class="cls-7" d="M151.36,145.17a.71.71,0,0,1,.51.11l-.19.37-.3-.2Z"/><path class="cls-7" d="M168.53,145.33c.2-.09.5.11.5.11l-.19.36-.3-.19Z"/><path class="cls-7" d="M156,144.37c.25-.11.62.13.62.13l-.24.45-.36-.24Z"/><path class="cls-7" d="M159.36,141.78c1.36-.56,3.31.71,3.31.71l-1.24,2.42-2-1.27Z"/><path class="cls-7" d="M169.66,142.92c1.22.82,1.24,3.15,1.24,3.15l-2.69.31,0-2.33Z"/><path class="cls-7" d="M158.49,145.91c.55-.23,1.33.28,1.33.28l-.5,1-.78-.51Z"/><path class="cls-7" d="M163,152.13c1.36-.56,3.31.71,3.31.71l-1.24,2.42L163.15,154Z"/><path class="cls-7" d="M163.76,153.07c.55-.22,1.33.29,1.33.29l-.5,1-.78-.51Z"/><path class="cls-7" d="M160,156c.54-.22,1.32.28,1.32.28l-.49,1-.78-.51Z"/><path class="cls-7" d="M156.93,149.49c.09-.58.92-1,.92-1l.58.92-.83.42Z"/></g></g></g></svg>