<svg xmlns="http://www.w3.org/2000/svg" viewBox="0 0 307.61 299.28"><defs><style>.cls-1,.cls-6{fill:#bc874d;}.cls-2{fill:#e2a771;}.cls-2,.cls-3{opacity:0.29;}.cls-3{fill:#eab081;}.cls-4{opacity:0.5;}.cls-5{fill:#a3765f;opacity:0.15;}.cls-6{opacity:0.55;}.cls-7{fill:#6d4d3f;}.cls-8{fill:#563c35;opacity:0.4;}.cls-9{fill:#895f4e;opacity:0.24;}</style></defs><title>cookie-1</title><g id="Layer_2" data-name="Layer 2"><g id="Regular"><g id="Base"><path class="cls-1" d="M143.58,0c22,.67,38.7,9.83,62.64,13C217,17.68,231.73,22.11,241,29.17c8.15,6.29,39.77,34,48.77,44,1.88,2.08,22.15,15.65,17,88-2.46,34.59-24.54,76.16-47,102-27.65,16.21-67.95,32-110.19,35.47C115.27,301.5,83,294.56,58,276.33c-8.79-6.4-16.37-18-23.3-27-8.32-10.85-19.49-23.06-24.57-37.66C8.73,208,.4,192.5,1,181.83,1.68,166.5-1.16,168.26.56,153c2.55-22.67,10.21-40,12.13-70.67C18.27,59.17,38.47,43.18,57.81,29.7,83.87,11.54,109.58,3.33,143.58,0Z"/><path class="cls-2" d="M19.25,80.67c0,9.22-1,55-7,73s3,44,8,50,23,31,26,41,40,37,53,39,56,13,90-6c35-11,53-40,64-42s40-57,38-68,2-51-20-77c0-12-29-62-41-60s-43,1-52-5-23-20-43-14-48-1-82,34C38.25,46.67,19.25,73.67,19.25,80.67Z"/><path class="cls-3" d="M90.25,48.67c-10.87,11.95-43,0-52,35s6,64,1,77-5,42,14,56,17,27,51,31,71-49,93-39,55,5,60-3,27-45,19-47-6-6-4-13,0-35-15-46-23-38-38-46S110.25,26.67,90.25,48.67Z"/><g class="cls-4"><path class="cls-5" d="M211.58,230.67c-9.58,1.32-31,4.33-35,10s-9,20.66-13.67,24.33,7.67,7,17,4,21.67-16.67,27-20,10-10.33,17.34-11,12.33-3.33,14.66-5.33S221.25,229.33,211.58,230.67Z"/><path class="cls-5" d="M116.91,114.67c10.72.82,12,1.33,16,7.33s-4,6,.67,18-4.67,8.67-14.67,8.67-24.66-12-18.66-19.34S108.25,114,116.91,114.67Z"/><path class="cls-5" d="M68.25,58.67c10.71.82,12,1.33,16,7.33s12.66-.67,17.33,11.33S80.25,92.67,70.25,92.67s-24.67-12-18.67-19.34S59.58,58,68.25,58.67Z"/></g></g><g id="cracks"><polygon class="cls-6" points="53.31 74.6 64.74 79.86 70.39 90.05 72.34 99.41 68.75 91.8 63.67 81.96 50.91 77.13 49.96 73.22 53.31 74.6"/><path class="cls-6" d="M181.85,63.19,167.39,53.3s-20.29-.76-22.71-.27l-9.28,1.86,9.75-1.22,22,.47Z"/><path class="cls-6" d="M138,60c-.23.36-8.88,12.26-8.88,12.26l-7.53,3-7.73-4.85-3.28,6.8-6.47-.75h6.24l2.75-7.64,8.38,5.77,7.42-2.73Z"/><path class="cls-6" d="M259.71,182.26c.29-.16,9.76-4.34,9.76-4.34l1.54,4.32-5.59,12.94,5.66-4-1.67,7.27,1-6.25-6.51,5.47,6.53-14.57-1.34-4.47Z"/><path class="cls-6" d="M227.29,257.74c.19.1,5.66,3.91,5.66,3.91l-3.66,5-12.75,7,4.67.92-6.91,5.09,5.85-4.75-6.11-.32,14.4-7.71,3.83-5Z"/><path class="cls-6" d="M34.68,146.68c.47.29,15.6,11.87,15.6,11.87l2,12.93-10,16.32,9.2,3.5-3.34,12.39L50.25,192,39.6,189.81l11.6-17.88-1.62-12.81Z"/><polygon class="cls-6" points="177.31 96.82 163.13 83.73 145.54 91.45 118.09 96.95 104.04 91.38 90.19 86.61 89.17 98.14 91.06 88 119.99 98.67 144.57 92.69 162.87 85.25 177.31 96.82"/><polygon class="cls-6" points="80.07 108.35 65.83 120.37 72.43 138.68 76.1 166.31 69.49 179.27 63.7 192.15 75.3 194.77 65.18 191.5 77.97 164.7 73.62 139.81 67.36 120.85 80.07 108.35"/><ellipse class="cls-6" cx="90.61" cy="76.56" rx="3.85" ry="1.19" transform="translate(-22.65 111.81) rotate(-57.48)"/><path class="cls-6" d="M250.25,112.58c-1.65-3.15-22.41-26.28-22.41-26.28L204.5,73.37l-13.65-.54L179.41,72l22.78,4.23,28,18Z"/><path class="cls-6" d="M25.84,136.74c.9,1.08,14.07-2.19,21.15.79s8.72,4.55,13.09,13.42,4.81,19.8,4.81,19.8-5.45-23.76-14-27.7S25.84,136.74,25.84,136.74Z"/><path class="cls-6" d="M59.31,193.58c7.15,9.49,13.62,17.57,15.14,23.47s2.08,16.62,6.68,23.49S101,255.7,106.51,258.7c-6.67-.31-28.21-12.07-28.6-14.78s-7-13.84-7.19-21.85S59.31,193.58,59.31,193.58Z"/><path class="cls-6" d="M123.6,252.31c10.83,5,20.38,9.1,24.61,13.62s10,13.8,17.38,17.71,24.55,3.93,30.73,4c-5.85,2.94-30.12,2.82-31.79.59s-12.88-9-17-16S123.6,252.31,123.6,252.31Z"/></g><g id="Shadows"><path class="cls-6" d="M137.65,225c-11,8-7.58,26.15,0,26.15s34.54.62,37.91-2.51,10.11-13.15,4.21-20.66-27.21-11.23-32.22-8.61S137.65,225,137.65,225Z"/><path class="cls-6" d="M173.44,100c-8.67,8.5-6,27.84,0,27.84s27.33.66,30-2.67,8-14,3.33-22-21.54-12-25.5-9.17S173.44,100,173.44,100Z"/><path class="cls-6" d="M66.32,172.34c-10.95,8-7.58,26.14,0,26.14s34.54.63,37.91-2.5,10.11-13.15,4.21-20.67-27.22-11.23-32.22-8.61S66.32,172.34,66.32,172.34Z"/></g><g id="Chip"><g id="Chip-2" data-name="Chip"><path class="cls-7" d="M174.27,116.53c-2.87-9.11-4-25.33,0-26.83,2.31-.86,13.41-4,19.17-.5,4.25,2.59,8,26.17,2.5,27.17C191.94,119.37,180.61,120.2,174.27,116.53Z"/><path class="cls-8" d="M191.11,89.53c-1,4.5,6,19.5,3,22.5-1.17,5.34-13.17,2-18.34,4-3.36,1.3,20.84,3.17,21.5-3.33C197.63,109.18,196.94,90,191.11,89.53Z"/><path class="cls-9" d="M174.11,91.53c-1.05,1.75-.67,8.5-.67,8.5s3,2.34,4.5,1.17,4.67-3.67,3.33-7.17S175.11,89.87,174.11,91.53Z"/></g><g id="Chip-3" data-name="Chip"><path class="cls-7" d="M147.93,233c-.54-9.54,4.17-21.85,9.84-22.13,3.34-.17,5.95-1,10.67,3.83,3.48,3.56,2.17,15.17-.5,19.67C163.32,236.29,153.17,238.12,147.93,233Z"/><path class="cls-8" d="M165.27,213.7c-2.08,4.11,5,15.33,1.34,17.5-2.45,4.88-11.6,1-17.1,1.69-3.58.43,16.85,6.28,19.1.14C169.82,229.71,170.8,215.62,165.27,213.7Z"/><path class="cls-9" d="M155.11,213.07c-1.06,1.05-2,4.89-2.49,6.87a2.34,2.34,0,0,0,.69,2.22c.84.79,2.09,1.67,3.13,1.22,1.74-.76,5.42-2.4,5-6.12S156.49,211.7,155.11,213.07Z"/></g><g id="Chip-4" data-name="Chip"><path class="cls-7" d="M239,191.23c3.19-3.46,9.16-6,11.21-4.1,1.2,1.12,2.39,1.77,2.29,5.09-.07,2.45-4.63,6-7.13,6.56C243.06,197.8,238.94,194.83,239,191.23Z"/><path class="cls-8" d="M251.73,190.76c-2.17.67-3.72,7-5.74,6.46-2.57.81-4.33-3.75-6.45-5.47-1.38-1.12,3.54,8.11,6.49,6.81C247.62,197.85,253,193.37,251.73,190.76Z"/><path class="cls-9" d="M248.47,186.94a9.74,9.74,0,0,0-3.28,1.47,1.16,1.16,0,0,0-.55,1c0,.57.12,1.31.64,1.52.86.36,2.71,1.1,3.88-.32S249.43,187,248.47,186.94Z"/></g><g id="Chip-5" data-name="Chip"><path class="cls-7" d="M192.79,141.91c1.57-1.71,4.51-3,5.52-2a2.55,2.55,0,0,1,1.13,2.5c0,1.21-2.28,2.94-3.52,3.24C194.81,145.15,192.78,143.68,192.79,141.91Z"/><path class="cls-8" d="M199.08,141.67c-1.07.33-1.83,3.46-2.83,3.19-1.26.4-2.13-1.85-3.18-2.7-.68-.55,1.75,4,3.2,3.36C197.05,145.17,199.68,143,199.08,141.67Z"/><path class="cls-9" d="M197.48,139.79a4.69,4.69,0,0,0-1.62.73.55.55,0,0,0-.28.49c0,.28.07.65.32.76.43.17,1.34.54,1.91-.17S198,139.8,197.48,139.79Z"/></g><g id="Chip-6" data-name="Chip"><path class="cls-7" d="M109.25,180c1.57-1.7,4.51-3,5.52-2a2.56,2.56,0,0,1,1.13,2.51c0,1.21-2.28,2.94-3.51,3.23C111.27,183.24,109.24,181.78,109.25,180Z"/><path class="cls-8" d="M115.54,179.77c-1.07.33-1.83,3.46-2.83,3.18-1.26.4-2.13-1.85-3.18-2.69-.68-.56,1.75,4,3.2,3.35C113.52,183.26,116.14,181.06,115.54,179.77Z"/><path class="cls-9" d="M113.94,177.89a4.93,4.93,0,0,0-1.62.72.55.55,0,0,0-.27.5c0,.28.06.65.31.75.43.18,1.34.54,1.91-.16S114.41,177.9,113.94,177.89Z"/></g><g id="Chip-7" data-name="Chip"><path class="cls-7" d="M191.29,40.59c1.57-1.71,4.52-3,5.52-2a2.56,2.56,0,0,1,1.14,2.5c0,1.21-2.29,2.94-3.52,3.24C193.31,43.83,191.28,42.36,191.29,40.59Z"/><path class="cls-8" d="M197.59,40.35c-1.07.33-1.84,3.46-2.83,3.19-1.27.4-2.14-1.85-3.18-2.7-.68-.55,1.74,4,3.19,3.36C195.56,43.85,198.18,41.64,197.59,40.35Z"/><path class="cls-9" d="M196,38.47a4.77,4.77,0,0,0-1.62.73.57.57,0,0,0-.27.49c0,.28.06.65.31.76.43.17,1.34.54,1.92-.17S196.45,38.48,196,38.47Z"/></g><g id="Chip-8" data-name="Chip"><path class="cls-7" d="M201.85,47.48c.59-.64,1.71-1.08,2.11-.67a1.15,1.15,0,0,1,.45,1c0,.48-.86,1.12-1.33,1.21C202.65,48.84,201.86,48.2,201.85,47.48Z"/><path class="cls-8" d="M204.26,47.55c-.41.1-.68,1.34-1.06,1.21-.49.13-.83-.8-1.24-1.17s.7,1.66,1.25,1.44C203.51,48.91,204.5,48.08,204.26,47.55Z"/><path class="cls-9" d="M203.63,46.75A1.79,1.79,0,0,0,203,47a.19.19,0,0,0-.1.19c0,.12,0,.27.12.31s.52.26.74,0S203.82,46.76,203.63,46.75Z"/></g><g id="Chip-9" data-name="Chip"><path class="cls-7" d="M86,193.59c-9.23-2.45-23.53-10.19-22.66-14.37.51-2.41,3.79-13.47,9.84-16.46,4.47-2.2,26.39,7.26,24.29,12.44C97.9,180.18,92.53,190.2,86,193.59Z"/><path class="cls-8" d="M72.26,164.91c3.26,3.26,19.68,5.38,20.6,9.52,3.88,3.84-5.36,12.19-6.44,17.62-.7,3.54,13.84-15.9,8.7-19.94C92.35,169.92,75.8,160.25,72.26,164.91Z"/><path class="cls-9" d="M64.84,180.34c.91,1.82,6.82,5.11,6.82,5.11s3.58-1.28,3.4-3.17-.6-5.91-4.27-6.66S64,178.6,64.84,180.34Z"/></g><g id="Chip-10" data-name="Chip"><path class="cls-7" d="M108.29,257.32c-4-3.82-9.05-11.73-7.44-13.6.93-1.08,5.68-5.75,9.58-5.57,2.87.13,11.31,11,8.8,13.08C118,253.86,112.52,257.43,108.29,257.32Z"/><path class="cls-8" d="M109.34,239c.74,2.55,8.45,8.22,7.76,10.57.89,3-6.12,4.67-8.19,7.11-1.34,1.6,11.44-4.17,10-7.65C118.1,247.12,112.43,237.6,109.34,239Z"/><path class="cls-9" d="M101.27,244.7c0,1.17,2,4.49,2,4.49s2.17.35,2.61-.66,1.35-3.15-.3-4.55S101.32,243.57,101.27,244.7Z"/></g><g id="Chip-11" data-name="Chip"><path class="cls-7" d="M126.77,50.28c-4-3.82-6.36-9-4.75-10.83.93-1.08,2.52-3.43,6.42-3.25,2.87.13,7.83,5.39,7,8.08C134.24,46.91,129.69,52.37,126.77,50.28Z"/><path class="cls-8" d="M127.18,37c.54,1.88,6.18,6,5.68,7.74.65,2.21-4.48,3.41-6,5.2-1,1.17,8.37-3,7.3-5.6C133.59,42.93,129.44,36,127.18,37Z"/></g><g id="Chip-12" data-name="Chip"><path class="cls-7" d="M253.69,104.78c-4-3.82-6.36-9-4.75-10.83.93-1.08,2.52-3.43,6.42-3.25,2.87.13,7.83,5.39,7,8.08C261.16,101.41,256.61,106.87,253.69,104.78Z"/><path class="cls-8" d="M254.1,91.46c.54,1.88,6.18,6,5.67,7.74.65,2.21-4.47,3.41-6,5.2-1,1.17,8.37-3.05,7.29-5.6C260.5,97.43,256.36,90.47,254.1,91.46Z"/></g><g id="Chip-13" data-name="Chip"><path class="cls-7" d="M37.37,136c-4-3.82-6.36-9-4.75-10.84.93-1.07,2.52-3.43,6.42-3.25,2.87.14,7.83,5.39,7,8.09C44.84,132.65,40.29,138.1,37.37,136Z"/><path class="cls-8" d="M37.77,122.7c.55,1.87,6.19,6,5.68,7.73.65,2.22-4.47,3.42-6,5.21-1,1.16,8.36-3.06,7.29-5.6C44.18,128.66,40,121.7,37.77,122.7Z"/></g><g id="Chip-14" data-name="Chip"><path class="cls-7" d="M86.42,96.4c-.72-4.9-1-13.63,0-14.43.59-.47,3.4-2.16,4.85-.27,1.08,1.39,2,14.08.64,14.61A3.45,3.45,0,0,1,86.42,96.4Z"/><path class="cls-8" d="M90.68,81.88c-.25,2.42,1.52,10.49.76,12.1-.29,2.87-3.33,1.08-4.64,2.16-.85.7,5.27,1.7,5.44-1.8C92.33,92.45,92.16,82.15,90.68,81.88Z"/><path class="cls-9" d="M86.38,83a30.42,30.42,0,0,0-.17,4.58s.76,1.25,1.14.62a5.34,5.34,0,0,0,.85-3.85C87.86,82.42,86.64,82.06,86.38,83Z"/></g><g id="Chip-15" data-name="Chip"><path class="cls-7" d="M198.48,260.61c3.46-3.5,10-9.26,11.05-9.29.59,0,3,.24,2.17,2.16-.63,1.42-9.95,10-10.93,9.72C199.13,263.75,197.62,262.65,198.48,260.61Z"/><path class="cls-8" d="M211.32,253.31c-1.95,1.44-7.41,7.49-8.95,8.16-2.32,1.71-2.17-.91-3.53-.85-.88,0,.83,3.64,3.58,1.47C203.9,260.91,211.72,254.2,211.32,253.31Z"/><path class="cls-9" d="M208.76,251.93c-.83.48-3.57,2.87-3.57,2.87s-.65,1.17,0,.95a7.76,7.76,0,0,0,3.29-2.08C209.77,252.3,209.55,251.48,208.76,251.93Z"/></g></g></g></g></svg>