<svg xmlns="http://www.w3.org/2000/svg" viewBox="0 0 290.99 305.83"><defs><style>.cls-1,.cls-3{fill:#933e28;}.cls-2{fill:#a5531c;}.cls-2,.cls-7{opacity:0.37;}.cls-3{opacity:0.34;}.cls-4{opacity:0.5;}.cls-5,.cls-6{fill:#752a1b;}.cls-5{opacity:0.55;}.cls-7{fill:#541c13;}.cls-8{fill:#892b21;opacity:0.28;}.cls-9{fill:#ffdf95;}.cls-10{fill:#c67a2e;}.cls-11{fill:#a56226;opacity:0.46;}.cls-12{fill:#ede2be;}</style></defs><title>cookie-5</title><g id="Layer_2" data-name="Layer 2"><g id="Peanut_butter_chocolate" data-name="Peanut butter chocolate"><g id="BOdy"><path class="cls-1" d="M291,157.69c0,77.87-26.58,128.91-155.58,147.91C66.41,310.6,0,232.56,0,154.69S46.41,21.6,142.41,1.6C255.41-13.4,291,79.82,291,157.69Z"/><path class="cls-2" d="M105,19.62C83.44,30.09,39,38.7,30,82.15S4,148.92,22,197.68s91,79.49,119,81.61,25-4.24,66-18,71-44.51,76-63.59S310,92.75,222,14.32C175-7.94,129,8,105,19.62Z"/><path class="cls-2" d="M161,8.69c-32.68,2.33-95,21-104,47s-26,50-22,74,26,80,50,99,81,20,106,16,64-15,75-39,22-56,13-87S245,2.69,161,8.69Z"/><path class="cls-3" d="M118,61.69c-7.92,11.87-32,12-39.34,24S74,131,74.65,143s-8.66,32,8,50,40.67,28,49.34,30.67,25.33,3.33,36.66,2,32-11.33,37.34-16.67,17.33-20.66,20.66-40,4.67-50,6.67-59.33-2.67-28-12-36-60-28-65.33-28S123.32,53.69,118,61.69Z"/></g><g id="cracks" class="cls-4"><polygon class="cls-5" points="123.99 301.19 121.99 287.19 128.49 275.69 136.49 268.19 131.24 276.19 124.74 286.94 127.99 301.94 124.74 305.19 123.99 301.19"/><path class="cls-5" d="M32,186.36,31.32,206s12,19.67,14,21.67L53,235.36l-7.34-8.5L32.32,205.77Z"/><path class="cls-5" d="M56.4,229.86c.5,0,17.67,1,17.67,1l7.67,5.33.08,10.25,8.75-1L93.9,252,90,246.11l-9.25,2,.41-11.42-7.35-5.38Z"/><path class="cls-5" d="M100.43,40.77C100.09,40.59,90,34.14,90,34.14l3.28-4.07,16.27-2.51L102,24.64l8.22-2.8-6.76,2.85L113,27.55,94.49,30.16l-3.56,4Z"/><path class="cls-5" d="M195.19,25.9c0-.24.3-7.71.3-7.71l7.26.42,14.91,7.85-2-5L225,25l-8.36-2.67,3.52,6-16.65-9-7.34-.6Z"/><path class="cls-5" d="M206.74,275.32c0-.62,1.89-21.94,1.89-21.94l11.51-9.65,22.36-.4-2.32-10.82,14.31-4.32-12.85,5,4.51,11.42-24.91-.19-11.6,9.27Z"/><polygon class="cls-5" points="67.99 170.35 63.99 191.69 82.65 203.69 105.32 226.35 108.65 243.02 112.65 259.02 124.65 253.02 113.49 257.36 105.82 223.52 84.49 203.85 65.65 191.02 67.99 170.35"/><polygon class="cls-5" points="140.44 255.47 161.23 261.7 175.13 244.4 200.06 224.25 216.99 222.69 233.32 220.4 228.62 207.83 231.75 219.39 197.3 223.45 175.49 242.59 160.75 259.97 140.44 255.47"/><ellipse class="cls-5" cx="102.49" cy="264.69" rx="4.5" ry="1.33"/><path class="cls-5" d="M37.69,91.78c-2.06,3.46-11.82,37.08-11.82,37.08l1.92,29.9,8,13.26,6.38,11.33L32.07,159.22l.17-37.39Z"/><path class="cls-5" d="M202.49,289.69c.5-1.5-11-12-12.5-20.5s-1-11,5-20.5,16.5-16.5,16.5-16.5-20,19.5-18.5,30S202.49,289.69,202.49,289.69Z"/><path class="cls-5" d="M237.49,223.69c4.86-12.5,8.75-23.5,13.61-28.5s15.07-12,19-20.5,2.44-28,1.95-35c3.89,6.5,5.83,34,3.4,36s-9.24,15-17,20S237.49,223.69,237.49,223.69Z"/><path class="cls-5" d="M255,127.36c-1.86-13.28-3.84-24.78-2-31.52s7.3-17.83,6.54-27.15S247.93,43.07,244.09,37.2C250.65,41,265.78,64,264.64,67s-.74,17.6-5.09,25.77S255,127.36,255,127.36Z"/></g><g id="Chocolate"><path class="cls-6" d="M218.58,94.64c-13.52-9.47-68.27-59.53-103.42-16.24C106.38,89.21,80.68,104.78,80,121.69c-.19,5,1.19,12.83,3.64,21.62a9.15,9.15,0,0,1,1.68.38c15.31,5.1,25.33,35.33,38,45.33s23.45,8,33.33,16a38.9,38.9,0,0,1,8.07,8.56,6.63,6.63,0,0,0,1.81-.57c8.11-4.06,27-12.17,37.86-31.11S232.1,104.11,218.58,94.64Z"/><path class="cls-6" d="M156.65,205c-9.88-8-20.66-6-33.33-16s-22.69-40.23-38-45.33a9.15,9.15,0,0,0-1.68-.38c5.86,21.07,17.84,47.54,28.81,52.79,14.56,7,42.15,19.27,52.27,17.48A38.9,38.9,0,0,0,156.65,205Z"/><path class="cls-7" d="M156.65,205c-9.88-8-20.66-6-33.33-16s-22.69-40.23-38-45.33a9.15,9.15,0,0,0-1.68-.38c5.86,21.07,17.84,47.54,28.81,52.79,14.56,7,42.15,19.27,52.27,17.48A38.9,38.9,0,0,0,156.65,205Z"/><path class="cls-7" d="M114.65,97.69C126,87,130,103.69,142,110.36s11.33,20,24,26.66,24,14,19.33,24,5.33,21.34,4,28-14,1.34-24.67-9.33-8-26-26.66-35.33-35.34-20.67-42-16S89.32,107,94.65,103,106.65,93.69,114.65,97.69Z"/><path class="cls-8" d="M150.65,65c-12.28,5.06-25.33,26-13.33,35.34s23.33,24.66,30,31.33,16,17.33,28.67,10,19.33-22,19.33-32.67-5.33-16.66-16-23.33S162,60.36,150.65,65Z"/></g><g id="Nuts"><path class="cls-9" d="M140.07,102.86c-3.25-6.5-7.25-7-8.5-7a9.74,9.74,0,0,0-3.29,1.84A69.92,69.92,0,0,1,137.62,116c4.37,0,5.21-1.47,6.2-1.86C145.07,113.61,143.32,109.36,140.07,102.86Z"/><path class="cls-10" d="M115.32,109.86c-1,4,9.75,4.5,18,5.75a29.18,29.18,0,0,0,4.3.36,69.92,69.92,0,0,0-9.34-18.27A76.42,76.42,0,0,0,115.32,109.86Z"/><path class="cls-9" d="M174.64,193.06c3.41,2,5.15,1.71,5.64,1.56.17-.05.43-.45.71-1.1a60.07,60.07,0,0,1-9.66-5.67c-1.72.54-1.58,1.19-1.84,1.46S171.24,191,174.64,193.06Z"/><path class="cls-10" d="M182.15,187.37c-.91-1.63-5.33-.48-9,.08a11.92,11.92,0,0,0-1.82.4,60.07,60.07,0,0,0,9.66,5.67A18.14,18.14,0,0,0,182.15,187.37Z"/><path class="cls-11" d="M157.22,74.69a6.82,6.82,0,0,0-2.33,1.44,57.07,57.07,0,0,1,6.61,14.28c3.08,0,2.38-1.28,3.08-1.59C165.46,88.43,158.1,74.69,157.22,74.69Z"/><path class="cls-10" d="M148.09,83.09c1.41,4.16,1.18,5.47,4.48,8.85,1.22.21,8.1-1.53,8.93-1.53a57.07,57.07,0,0,0-6.61-14.28A29.79,29.79,0,0,0,148.09,83.09Z"/><path class="cls-10" d="M176.06,95.88c1.07,1.8,1.09,2.43,3,3.69.59,0,3.63-1.51,4-1.59a27.74,27.74,0,0,0-4.48-6A14.35,14.35,0,0,0,176.06,95.88Z"/><path class="cls-10" d="M183.08,153.6c2.32,2.28,2.2,3.18,6.78,4.47,1.56-.19,9.93-3.1,10.95-3.32a34.79,34.79,0,0,0-10.16-7.37A37.12,37.12,0,0,0,183.08,153.6Z"/><path class="cls-10" d="M151.79,109.62c.61,1,.62,1.38,1.68,2.09.33,0,2.05-.85,2.27-.9a15.27,15.27,0,0,0-2.53-3.41A8.21,8.21,0,0,0,151.79,109.62Z"/><path class="cls-11" d="M151.46,112.62c.61,1,.62,1.38,1.67,2.09.34,0,2.06-.85,2.28-.9a15.29,15.29,0,0,0-2.54-3.41A8.24,8.24,0,0,0,151.46,112.62Z"/><path class="cls-10" d="M181.28,141.79c-5.84-8.53-14.13-26.67-18.15-35.4-2.11.76-2.34,3.87-3.46,10,4.49,3.89,7.67,3.3,9.55,10.44,2,7.57,3.74,14.66,7.14,18.56,1.21-.93,2.54-2,4-3.18C180.66,142.1,181,142,181.28,141.79Z"/><path class="cls-12" d="M193,128.56c-2.19-7-12.38-15.88-17.58-20.27s-9.66-2.69-12.13-2l-.15.06c4,8.73,12.31,26.87,18.15,35.4C186,139.29,191.36,133.6,193,128.56Z"/><path class="cls-10" d="M159.67,116.41c-.11.61-.22,1.23-.35,1.89-1.49,7.57,3,21.7,11.14,28.82,1.49,1.31,3.44.2,5.9-1.71-3.4-3.9-5.15-11-7.14-18.56C167.34,119.71,164.16,120.3,159.67,116.41Z"/><path class="cls-11" d="M159.67,116.41c-.11.61-.22,1.23-.35,1.89-1.49,7.57,3,21.7,11.14,28.82,1.49,1.31,3.44.2,5.9-1.71-3.4-3.9-5.15-11-7.14-18.56C167.34,119.71,164.16,120.3,159.67,116.41Z"/><path class="cls-10" d="M133.73,85.79c.55-3.93,2.9-11.22,4-14.74-.8-.33-1.67.49-3.59,2,.27,2.26,1.33,2.92,0,5.43-1.4,2.67-2.74,5.13-2.79,7.12.58,0,1.25.07,2,.13A3.44,3.44,0,0,0,133.73,85.79Z"/><path class="cls-12" d="M140.47,85.08c1.2-2.56.61-7.71.28-10.31a4.38,4.38,0,0,0-2.94-3.7l-.05,0c-1.13,3.52-3.48,10.81-4,14.74A10.13,10.13,0,0,0,140.47,85.08Z"/><path class="cls-10" d="M134.17,73l-.58.44c-2.39,1.76-4.77,6.94-4.32,11.06.09.76.93,1,2.12,1,.05-2,1.39-4.45,2.79-7.12C135.5,75.92,134.44,75.26,134.17,73Z"/><path class="cls-11" d="M134.17,73l-.58.44c-2.39,1.76-4.77,6.94-4.32,11.06.09.76.93,1,2.12,1,.05-2,1.39-4.45,2.79-7.12C135.5,75.92,134.44,75.26,134.17,73Z"/><path class="cls-10" d="M212.19,132a71.38,71.38,0,0,1,7-6.19c-.3-.43-1-.3-2.48-.2-.61,1.25-.29,1.94-1.8,2.78s-3.11,1.7-3.79,2.7l.95.72Z"/><path class="cls-12" d="M215.88,133.84c1.46-.91,2.87-3.74,3.57-5.17a2.66,2.66,0,0,0-.27-2.87l0,0a71.38,71.38,0,0,0-7,6.19A6.29,6.29,0,0,0,215.88,133.84Z"/><path class="cls-10" d="M216.68,125.57l-.44,0a8.56,8.56,0,0,0-5.89,4.21c-.21.42.16.8.74,1.24.68-1,2.18-1.81,3.79-2.7S216.07,126.82,216.68,125.57Z"/><path class="cls-11" d="M216.68,125.57l-.44,0a8.56,8.56,0,0,0-5.89,4.21c-.21.42.16.8.74,1.24.68-1,2.18-1.81,3.79-2.7S216.07,126.82,216.68,125.57Z"/><path class="cls-10" d="M193.8,115.8a31.5,31.5,0,0,1,2.81-3.88c-.17-.32-.49-.28-1.15-.3-.21.83,0,1.34-.66,1.83a4.35,4.35,0,0,0-1.57,1.64c.15.17.32.36.49.57A.64.64,0,0,1,193.8,115.8Z"/><path class="cls-12" d="M195.63,117.36c.61-.54,1.08-2.43,1.3-3.39a2.82,2.82,0,0,0-.31-2v0a31.5,31.5,0,0,0-2.81,3.88A3.89,3.89,0,0,0,195.63,117.36Z"/><path class="cls-10" d="M195.46,111.62h-.21c-.83,0-2.06,1.06-2.44,2.57-.07.27.13.56.42.91a4.35,4.35,0,0,1,1.57-1.64C195.44,113,195.25,112.45,195.46,111.62Z"/><path class="cls-11" d="M195.46,111.62h-.21c-.83,0-2.06,1.06-2.44,2.57-.07.27.13.56.42.91a4.35,4.35,0,0,1,1.57-1.64C195.44,113,195.25,112.45,195.46,111.62Z"/></g></g></g></svg>