<svg xmlns="http://www.w3.org/2000/svg" viewBox="0 0 371.87 354.91"><defs><style>.cls-1{fill:#bf8a5e;}.cls-1,.cls-2{opacity:0.46;}.cls-2{fill:#c68859;}.cls-3{fill:#e5dacc;}.cls-4{fill:#f0c3f4;}.cls-5{fill:#f8c7f9;}.cls-6{fill:#f7b2f9;opacity:0.59;}.cls-7{fill:#f2e748;}.cls-8{fill:#1ec0a2;}.cls-9{fill:#f5eb6e;}.cls-10{fill:#eead81;}.cls-11{fill:#ed9091;}.cls-12{fill:#acdad2;}.cls-13{fill:#ec89b1;}.cls-14{fill:#eea776;}.cls-15{fill:#eb938a;}.cls-16{fill:#ea8a86;}.cls-17{fill:#0ead91;}.cls-18{fill:#f5d9e1;}.cls-19{fill:#f3e419;}.cls-20{fill:#fbf7e6;}.cls-21{fill:#fdf9c7;}.cls-22{fill:#fda4a8;}.cls-23{fill:#f46078;}.cls-24{fill:#fda2a7;}.cls-25{fill:#fdd689;}.cls-26{fill:#faf672;}.cls-27{fill:#ddc8d5;}.cls-28{fill:#de6c86;}.cls-29{fill:#eb647c;}.cls-30{fill:#b4e2f0;}.cls-31{fill:#abe5ee;}.cls-32{fill:#fcd5dc;}.cls-33{fill:#f9fafa;}.cls-34{fill:#ea6b5f;}</style></defs><title>cookie-7</title><g id="Layer_2" data-name="Layer 2"><g id="Star"><g id="Base"><path class="cls-1" d="M292.86,354.91a12.73,12.73,0,0,1-7.53-2.49L187,281a1.78,1.78,0,0,0-1.09-.36,1.8,1.8,0,0,0-1.09.36l-98.3,71.42A12.75,12.75,0,0,1,79,354.91a13,13,0,0,1-10.48-5.38,12.65,12.65,0,0,1-1.77-11.48l37.55-115.57a1.85,1.85,0,0,0-.68-2.07L5.33,149a12.85,12.85,0,0,1,7.55-23.25H134.4a1.85,1.85,0,0,0,1.76-1.28L173.71,8.88a12.86,12.86,0,0,1,24.45,0l37.55,115.57a1.85,1.85,0,0,0,1.76,1.28H359A12.85,12.85,0,0,1,366.54,149l-98.31,71.43a1.85,1.85,0,0,0-.67,2.07l37.55,115.57a12.63,12.63,0,0,1-1.77,11.47,13,13,0,0,1-10.48,5.39Z"/><path class="cls-2" d="M292.86,352.16a10,10,0,0,1-5.91-2l-98.31-71.43a4.6,4.6,0,0,0-5.41,0L84.92,350.2a10,10,0,0,1-5.91,2,10.26,10.26,0,0,1-8.26-4.25,10,10,0,0,1-1.38-9l37.55-115.57a4.59,4.59,0,0,0-1.67-5.15L6.94,146.76a10.1,10.1,0,0,1,5.94-18.28H134.4a4.58,4.58,0,0,0,4.37-3.18L176.32,9.73a10.11,10.11,0,0,1,19.22,0L233.09,125.3a4.6,4.6,0,0,0,4.38,3.18H359a10.1,10.1,0,0,1,5.94,18.28l-98.31,71.42a4.59,4.59,0,0,0-1.67,5.15L302.5,338.9a10,10,0,0,1-1.38,9A10.27,10.27,0,0,1,292.86,352.16Z"/><path class="cls-3" d="M192.93,10.58l37.55,115.57a7.35,7.35,0,0,0,7,5.08H359a7.35,7.35,0,0,1,4.32,13.3L265,216a7.35,7.35,0,0,0-2.67,8.22l37.55,115.57A7.35,7.35,0,0,1,288.56,348l-98.3-71.42a7.34,7.34,0,0,0-8.65,0L83.3,348A7.35,7.35,0,0,1,72,339.75l37.55-115.57a7.37,7.37,0,0,0-2.67-8.22L8.56,144.53a7.35,7.35,0,0,1,4.32-13.3H134.4a7.36,7.36,0,0,0,7-5.08L178.94,10.58A7.36,7.36,0,0,1,192.93,10.58Z"/><path class="cls-4" d="M287.29,341.38a6,6,0,0,1-3.55-1.18l-88.45-64.26a15.91,15.91,0,0,0-18.71,0L88.13,340.2a6,6,0,0,1-3.56,1.18,6.14,6.14,0,0,1-4.95-2.55,6,6,0,0,1-.83-5.41l33.78-104a15.87,15.87,0,0,0-5.78-17.8L18.34,147.38a6.07,6.07,0,0,1,3.57-11H131.24a15.89,15.89,0,0,0,15.14-11l33.78-104a6.07,6.07,0,0,1,11.55,0l33.78,104a15.88,15.88,0,0,0,15.14,11H350a6.07,6.07,0,0,1,3.57,11l-88.45,64.26a15.87,15.87,0,0,0-5.78,17.8l33.78,104a6,6,0,0,1-.84,5.41A6.11,6.11,0,0,1,287.29,341.38Z"/><path class="cls-5" d="M196.76,273.92a18.4,18.4,0,0,0-21.65,0L86.66,338.18a3.57,3.57,0,0,1-5.49-4l33.78-104a18.37,18.37,0,0,0-6.69-20.59L19.81,145.36a3.57,3.57,0,0,1,2.1-6.46H131.24a18.36,18.36,0,0,0,17.51-12.72l33.79-104a3.57,3.57,0,0,1,6.79,0l33.78,104a18.39,18.39,0,0,0,17.52,12.73H350a3.57,3.57,0,0,1,2.1,6.46l-88.45,64.26a18.36,18.36,0,0,0-6.69,20.59l33.78,104a3.57,3.57,0,0,1-5.49,4Z"/><path class="cls-6" d="M47.86,147.73c-4.41,8.09,55,57,70,59s-21,85-16,94,45-11,55-25,25-25,35-20,12,20,28,20,48-20,25-60c3-16,20-25,37-38s-6-33-36-32-29-29-39-36-46,1-50,28S53.86,136.73,47.86,147.73Z"/></g><g id="Sprinkles"><path class="cls-7" d="M182.84,241.75c1.19,2.66-1.15,4.44-2,6.56-.41,1.06-1.91,2.07-2.75.94-2-2.66,1.27-4.3,1.8-6.53C180.23,241.4,181.31,241,182.84,241.75Z"/><path class="cls-7" d="M305.82,167.9c2,2,4.41,3.49,3.69,6.35-.29,1.16-1.87.52-2.53-.1-1.7-1.6-4.25-2.86-3.91-5.63C303.18,167.67,305,167.44,305.82,167.9Z"/><path class="cls-7" d="M331.56,142.07c1.73,1.25,3.8,2.86,3.38,5.67-.15,1-1.84.81-2.57.21-1.88-1.53-3.53-3.42-3.79-5.89C328.52,141.45,330.25,141.36,331.56,142.07Z"/><path class="cls-7" d="M248.31,293c-.49,2.49-.86,5-2.91,6.62a1.08,1.08,0,0,1-1.69-1c.61-2.4-.41-5.48,2.4-7C247,291.22,247.92,292,248.31,293Z"/><path class="cls-7" d="M105.77,303.75c-1.24.28-2.32.34-2.35-.73-.09-2.95,2.78-2.55,4.41-3.51,1-.57,1.64.12,1.69,1.07C109.69,303.56,106.42,302.3,105.77,303.75Z"/><path class="cls-8" d="M129.41,232.59c-.26-1.06.22-1.66,1-1.52,1.94.36,4.22-.66,5.79,1.09.55.62-.28,1.4-1,1.36C133.22,233.42,131.05,234.16,129.41,232.59Z"/><path class="cls-9" d="M238.36,263.54c-.57,1.63.94,4.47-2.23,4.59-2.17.09-1.7-2-1.72-3.4,0-2,.12-4.54,2.51-4.73C239.08,259.83,238,262.22,238.36,263.54Z"/><path class="cls-7" d="M92.48,180.57c-.87,1.71.72,4.55-2.26,4.91-1.93.23-1.69-1.69-1.59-2.92.14-1.94,0-4.51,2.34-4.92C92.88,177.29,92,179.54,92.48,180.57Z"/><path class="cls-7" d="M176.3,133c-1.24,0-2.23-.71-1.91-1.74.69-2.22,2.92-2.92,4.8-3.84.88-.43,1.82,0,1.72,1C180.63,131.11,178.36,132,176.3,133Z"/><path class="cls-8" d="M276.34,309.14c-.68,1-1.17,3-2.26,1.86-1.53-1.63-.22-3.95.3-5.92.23-.89.9-2.35,1.86-1.58C278.36,305.21,276.38,307.33,276.34,309.14Z"/><path class="cls-10" d="M184.26,156.76a1.4,1.4,0,0,1-2.24-.08c-1.51-1.89-3.31-3.84-2.86-6.45.17-1,1.68-1,2.33,0C182.74,152.28,184.66,154.08,184.26,156.76Z"/><path class="cls-8" d="M154.21,236.3c1.8-.37,3.09-3.25,5.07-1.88,1.65,1.14-.37,2.11-1.29,2.86-1.46,1.21-3,3.23-5,1.79C151.67,238.1,153.68,237.29,154.21,236.3Z"/><path class="cls-8" d="M150.88,269.19c-2.16-3.73-3.37-6.4-1.15-10.33C151.38,262.31,152.17,265,150.88,269.19Z"/><path class="cls-8" d="M140.75,209.34c-1.11.15-1.78-.32-1.64-1,.6-2.76,3.22-3.48,5.22-4.75.72-.45,2,.24,1.59,1.08C144.8,207,142.5,208.08,140.75,209.34Z"/><path class="cls-8" d="M63.54,149.19c-1.1.15-1.77-.32-1.63-1,.6-2.76,3.21-3.49,5.22-4.75.71-.45,2,.24,1.59,1.08C67.6,146.8,65.3,147.93,63.54,149.19Z"/><path class="cls-10" d="M162.84,226.86c-2.14.6-3.92,3.18-6.54,2-1.07-.46-.26-1.89.66-2.26,2.11-.86,3.83-3.49,6.53-1.88C164.27,225.24,163.67,226.22,162.84,226.86Z"/><path class="cls-8" d="M79.24,180.5c-1.31,1.94-3.48,2.66-5.57,3.41-.76.27-2,0-1.68-1,.69-2.69,3.51-2.46,5.41-3.48C78.29,178.93,78.92,179.43,79.24,180.5Z"/><path class="cls-8" d="M146.44,255.32c-1.31,1.94-3.48,2.65-5.58,3.41-.75.27-2,0-1.68-1,.7-2.69,3.51-2.46,5.42-3.47C145.48,253.75,146.12,254.24,146.44,255.32Z"/><path class="cls-8" d="M166.56,213.61a9,9,0,0,1,.12-1.75c1.6-2.51,4.27-2.75,6.84-3.16.17,0,.76.89.66,1.07C172.54,212.56,169.62,212.35,166.56,213.61Z"/><path class="cls-8" d="M202.72,227.12a13.09,13.09,0,0,1-7.06-.71,1,1,0,0,1,.06-1.88c2.41-.77,4.79-.11,7,.8C203.35,225.57,203.41,226.4,202.72,227.12Z"/><path class="cls-11" d="M178.55,83.55c-.08,1.35.13,3.28-1.24,3-2.76-.67-1.39-3.65-2.17-5.51-.47-1.12.11-2.89,1.39-2.38C178.57,79.44,178,82,178.55,83.55Z"/><path class="cls-8" d="M105.36,280.42c-.64-.68-.82-.78-.85-.91-.69-2.93,1.26-4.9,2.66-7a1.77,1.77,0,0,1,1.26.27C109.1,275.84,107.14,277.84,105.36,280.42Z"/><path class="cls-8" d="M173,187l2.65,4.1,0,0c0,1,1.14,2.38-.26,3s-2-.72-2.45-1.72c-.81-1.94-3.09-3.6-1.36-6.11Z"/><path class="cls-11" d="M315.31,153.54c-.82-1.85-3.73-3-3.23-5.83.15-.87,1.49-.78,2-.05,1.32,1.79,3.73,3,3.5,5.64C317.53,154.17,316.46,154.31,315.31,153.54Z"/><path class="cls-8" d="M225.42,262.7c-.41,1.68-1.94,1.77-3,2.4-1.23.73-2.42,1.84-4,1.21-.29-.11-.6-1-.47-1.16a9.91,9.91,0,0,1,6.72-3.4C224.87,261.72,225.19,262.4,225.42,262.7Z"/><path class="cls-8" d="M236.88,203.12c1.16.77,1.73,1.89,1,2.21-2.36,1.06-4.26-.81-6.32-1.55-.74-.26-1.49-1.37-.59-1.94C233.49,200.26,235.12,203.05,236.88,203.12Z"/><path class="cls-12" d="M174.72,224.92c-2.2,1.13-4.05-.08-5.86-1.19-.78-.48-2-1.59-1-2.27,2.33-1.51,4.17,1,6.34,1.42C175.22,223.05,175.29,224,174.72,224.92Z"/><path class="cls-13" d="M187.14,60c-.95,1.22-2.35,2.41-2.93,1.31-1.26-2.37,1.69-3.51,2.42-5.4.36-.94,1.53-2,2.16-1.06C190.36,57.17,187.46,58.4,187.14,60Z"/><path class="cls-14" d="M185,190.12c-1.33,1.31-3.09.13-4.54.79-1.08-1.08-2.92-1.16-3.64-2.73,1.24-2,3.15-.51,4.71-.88l1.43.63,1.81.29C184.88,188.85,185,189.49,185,190.12Z"/><path class="cls-12" d="M273.6,177.4c-3.15-2.38-3.93-4.88-3.49-7.77a.89.89,0,0,1,1.52-.49C273.47,171.35,274.05,173.91,273.6,177.4Z"/><path class="cls-10" d="M234.13,276.31c-.81,2-.84,4.64-3.22,5.75-1,.45-1.32-.73-1.28-1.57a7,7,0,0,1,3.23-5.76C233.61,274.24,234.26,275.2,234.13,276.31Z"/><path class="cls-15" d="M296.66,164.1a1.4,1.4,0,0,1-1.83-.82c-1.12-1.93-2.83-3.7-2.23-6.18a.93.93,0,0,1,1.61-.18C295.46,159.16,298,161.09,296.66,164.1Z"/><path class="cls-15" d="M201.86,262.73a1.41,1.41,0,0,1-1.82-.82c-1.12-1.94-2.84-3.7-2.23-6.19a.93.93,0,0,1,1.61-.17C200.67,257.79,203.15,259.72,201.86,262.73Z"/><path class="cls-13" d="M190.72,244.74c.46,1.72,3.07,3,1.92,5.07-.68,1.25-2.15.16-2.69-.89-.87-1.69-3-3.29-2-5.24C188.67,242.28,189.79,244,190.72,244.74Z"/><path class="cls-14" d="M229,211.32c-1.31.2-2.64.53-3.55-.88a1.33,1.33,0,0,0,.39-.69c1-.59,1.91-1.23,2.91-1.74,1.61-.82,3.87-1.75,4.66.2.67,1.66-1.56,2.45-3.18,2.85Z"/><path class="cls-11" d="M178.37,121.4a7.19,7.19,0,0,1-.17-1.94c.33-1.8-1.73-3.81.41-5.39a.92.92,0,0,1,1.39.79c-.29,2.51,3.46,5.45-.76,7.52Z"/><path class="cls-11" d="M141.36,162.73c1.23.48,1.45.49,1.5.59,1.14,2.38,2.19,4.8,1,7.46a1.4,1.4,0,0,1-1.24.23C140.68,168.59,141.5,165.88,141.36,162.73Z"/><path class="cls-10" d="M135.84,154.32c-1.26,0-2.76.05-2.51-1.14.61-2.89,3.51-1.44,5.27-2.27.9-.42,2.47-.2,2.21,1C140.18,154.58,137.28,153.38,135.84,154.32Z"/><path class="cls-10" d="M259.76,198.4c-.61,4.12-2,6.32-4.65,7.61-.17.08-1-.51-1-.76C254.34,202.16,256.49,200.6,259.76,198.4Z"/><path class="cls-10" d="M223.18,280.4c1,.07,1.28,0,1.35.1,1.91,2.16,2,4.7,1.41,7.32-.05.24-1,.59-1.14.46C222.23,286.07,223.5,283.24,223.18,280.4Z"/><path class="cls-11" d="M169.32,237.29c-.75,1.11-1.57,1.2-1.93.69-1.37-2-2.8-4.06-2.54-6.62a1,1,0,0,1,1.89-.39A17.84,17.84,0,0,1,169.32,237.29Z"/><path class="cls-11" d="M144.61,244.47c-.74,1.11-1.57,1.2-1.92.69-1.37-2-2.8-4.06-2.54-6.62a1,1,0,0,1,1.88-.39A17.47,17.47,0,0,1,144.61,244.47Z"/><path class="cls-16" d="M182.66,234.77c-.45-1.79-3.73-2.54-2.38-5.09.51-1,2-.17,2.35.7.75,1.9,3.76,2.91,2.75,5.25C184.76,237.07,183.51,235.75,182.66,234.77Z"/><path class="cls-14" d="M316.6,161.88c-1.59,1.6-2.84,3.81-5.36,3.91-1,0-1-1.27-.44-1.91,1.47-1.69,2.81-3.76,5.31-3.88C317,160,317.16,161,316.6,161.88Z"/><path class="cls-10" d="M129.12,251.74c-.9.31-1.85.24-1.77-.58.24-2.38,2.66-2.55,4.18-3.62.59-.42,1.73-.29,1.6.53C132.78,250.32,130.43,250.61,129.12,251.74Z"/><path class="cls-10" d="M203.21,137.61a12.09,12.09,0,0,1-3.24-6.23c-.14-.77.75-1.37,1.24-1a8.85,8.85,0,0,1,3.6,6.12C204.89,137.27,204.19,137.57,203.21,137.61Z"/><path class="cls-16" d="M193.1,235.63c1.65-.36,2.47-3.6,4.71-1.87,1.16.91-.34,2.24-1.29,2.54-1.7.53-2.53,3.75-4.75,2C190.61,237.37,192.14,236.39,193.1,235.63Z"/><path class="cls-12" d="M231.15,224c-.43-2.2-1.23-4.47.23-6.57.5-.73,1.63-.92,1.86.17.44,2.19,1,4.51-.43,6.58C232.34,224.8,231.69,224.48,231.15,224Z"/><path class="cls-8" d="M305.16,157.59c-2.12.93-4.4,1.81-6.9,1.31-.81-.16-.73-1.22-.28-1.55a8.54,8.54,0,0,1,6.8-1.45C305.48,156,305.65,156.76,305.16,157.59Z"/><path class="cls-13" d="M145.66,144.41c1,.54,1.07,1.29.81,1.86-.87,1.92-.79,4.33-2.7,5.67-.63.45-1.49-.43-1.34-1C143.1,148.59,142.89,145.66,145.66,144.41Z"/><path class="cls-13" d="M156.63,142.63a1.39,1.39,0,0,1,.8,1.87c-.86,1.91-.79,4.33-2.69,5.66-.64.45-1.49-.43-1.34-1C154.07,146.81,153.85,143.88,156.63,142.63Z"/><path class="cls-7" d="M220.52,219.66,217,222.78l-1.64-1.07-.09-1.65,5.09-4.48,1.51,1Z"/><path class="cls-7" d="M120,195.71l-3.54,3.13-1.64-1.08-.09-1.64,5.09-4.48,1.51,1C120.89,193.64,120.45,194.68,120,195.71Z"/><path class="cls-10" d="M260.57,296.64c1.16.4,2.26,1.27,1.29,2.09-1.88,1.59-4-.22-6-.36-1-.07-2.09-1.13-1.16-2C256.61,294.56,258.65,296.9,260.57,296.64Z"/><path class="cls-16" d="M97.69,320.4c-.64-.15-1.2-.11-1.36-.35-1.14-1.65-3.12-2.84-3-5.18,0-.14.86-.48,1-.36C96.08,316,97.8,317.57,97.69,320.4Z"/><path class="cls-15" d="M107.49,159.54c.81.49,1,.55,1.05.65.74,2.62.72,5.16-.94,7.44a1.46,1.46,0,0,1-1.24,0C105.18,164.81,106.47,162.35,107.49,159.54Z"/><path class="cls-16" d="M182,133c.57.42,1,.58,1,.79.29,2.46.53,4.95-1.24,7a1.47,1.47,0,0,1-1.21-.12A8.61,8.61,0,0,1,182,133Z"/><path class="cls-16" d="M189.33,162.05c-.51-.61-.69-.73-.7-.85a8.12,8.12,0,0,1,2.39-7c.15-.15,1.16.27,1.15.36C191.89,157.23,191.86,160,189.33,162.05Z"/><path class="cls-14" d="M257.48,175.87c.34.71.77,1.16.72,1.55-.31,2.27-.43,4.64-2.23,6.36-.15.14-1.18-.24-1.18-.41C254.64,180.6,254.91,177.94,257.48,175.87Z"/><path class="cls-12" d="M262.49,272.31c.37.89.93,2-.09,2.21-2.95.58-3.2-2.68-4.94-3.92a1.09,1.09,0,0,1,.47-1.91C260.55,268.47,260.77,271.47,262.49,272.31Z"/><path class="cls-12" d="M93.47,307.45c.65-.21.8-.32.91-.29,2.49.85,2.94,3.15,3.64,5.23,0,.12-.77.73-.87.66C95.14,311.66,94.25,309.64,93.47,307.45Z"/><path class="cls-13" d="M249.16,206.83c.77.72,1.12.9,1.2,1.16.68,2.13,2.24,4.14,1.28,6.54a.92.92,0,0,1-1.62.07C249,212.29,247.72,209.94,249.16,206.83Z"/><path class="cls-16" d="M159,201.06c.65.71.85.83.84.94-.15,2.75-1.66,4.78-3.6,6.53-.13.12-1.12-.34-1.11-.48C155.29,205.18,156.77,203,159,201.06Z"/><path class="cls-12" d="M189.19,107.08c-1.21.06-2.85,1.78-3.49.16-.79-2,1.54-2.17,2.8-2.46,1.6-.37,4.34-4,4.56,1.18Z"/><path class="cls-11" d="M245.21,278.52c-.92-.84-1.39-1.09-1.58-1.47-1-2-2.76-3.66-2.24-6.14a1.56,1.56,0,0,1,1.22-.24C244.36,272.74,246.25,274.8,245.21,278.52Z"/><path class="cls-13" d="M111.7,291.46c1.52-.29,1.83.39,2,1,.73,1.93,2.59,3.49,2,5.83a1.55,1.55,0,0,1-1.24.26C112.73,296.45,111.36,294.23,111.7,291.46Z"/><path class="cls-12" d="M136.67,166.07c-.77-.12-1-.09-1.06-.18-1.54-2-2.49-4.19-2-6.76,0-.22,1.08-.54,1.21-.4A7.55,7.55,0,0,1,136.67,166.07Z"/><path class="cls-12" d="M284.57,169.11c-.77-.13-1-.1-1.06-.18-1.54-2-2.49-4.19-1.95-6.76,0-.23,1.07-.55,1.2-.4A7.5,7.5,0,0,1,284.57,169.11Z"/><path class="cls-16" d="M167.23,263.25c4.17.41,6.59,1.31,8.05,3.94.09.15-.55,1-.74,1C171.84,267.65,169.61,266.36,167.23,263.25Z"/><path class="cls-10" d="M138.23,287.28c-.79,1.94-.58,4.57-3.12,5.63-.19.09-1.24-1-1.15-1.23.73-2.1.64-4.72,2.9-5.95C137.72,285.26,138.27,286.18,138.23,287.28Z"/><path class="cls-11" d="M104.4,314.29c-1.56-.16-1.71-1-1.54-1.56.53-1.75.2-4,2.31-4.9.76-.32,1.18.55.94,1.33C105.56,310.94,104.93,312.69,104.4,314.29Z"/><path class="cls-11" d="M117.86,272.73c1.82,1.17,4.65,1.18,5.65,3.78.24.63-.85,1-1.44.8-2.23-.74-4.85-1-5.77-3.69C116.07,273,117,272.66,117.86,272.73Z"/><path class="cls-13" d="M258.16,172.72c.44-.71.5-.92.6-.95,3-.82,4.86,1.14,6.87,2.72.15.12-.13,1.21-.29,1.23C262.28,176.08,260.52,173.87,258.16,172.72Z"/><path class="cls-13" d="M264.59,289.52a8.28,8.28,0,0,1,1.54-.51c2.83.69,4.14,2.89,5.09,5.36.07.18-.71,1-.89.91C267.68,294.29,266.82,291.72,264.59,289.52Z"/><path class="cls-11" d="M217.51,207.16c.32-1.17-1.28-3.28,1.21-3.32,1.56,0,2.53,1.17,2,3a2.92,2.92,0,0,0,1,3l-.24,1.32-2.18-.37Z"/><path class="cls-11" d="M158.81,249.48c.33-1.17-1.27-3.28,1.22-3.33,1.56,0,2.53,1.18,2,3a2.91,2.91,0,0,0,1,3l-.24,1.32-2.18-.36C160,252,159.42,250.72,158.81,249.48Z"/><path class="cls-16" d="M234.53,230.48c2.45-3.47,5-4,8.81-3.09C240.76,230.09,238.1,230.39,234.53,230.48Z"/><path class="cls-16" d="M247.82,199.88c-.84.21-1,.32-1.12.27-2.57-1.23-3.58-3.53-4.11-6.12,0-.15.9-.74,1.07-.63C246,194.87,246.91,197.21,247.82,199.88Z"/><path class="cls-10" d="M199.12,95.05c-.72,1.06-1.92,1.3-2.17.61-.89-2.39.68-4.4,1.6-6.47.24-.54,1.18-1,1.61-.33C201.61,91.28,199.42,93.14,199.12,95.05Z"/><path class="cls-14" d="M88.28,319.74c.33-1.33-1-3.46,1.27-4.14,1-.3,1.22,1.17,1,1.85-.56,1.51.84,3.78-1.14,4.5C88,322.47,88.34,320.8,88.28,319.74Z"/><path class="cls-13" d="M145.79,277.1c.37-.87.41-1.32.61-1.41,2.12-1,3.93-3,6.61-2.05.2.07.33,1.16.19,1.24C151,276.15,149,277.82,145.79,277.1Z"/><path class="cls-11" d="M239.16,157.3c1.62-.73,3.21-1.57,4.89-2.16S246.66,155,246,157l-3.05,1.86-3.92,1.1C239.07,159.06,239.11,158.18,239.16,157.3Z"/><path class="cls-11" d="M127.26,238.08c-.23-.74-.08-1.38.6-1.35,2.38.08,3,2.32,4.21,3.74.63.72.06,1.65-.62,1.47C129.42,241.39,128.56,239.39,127.26,238.08Z"/><path class="cls-16" d="M259,215c.18,1,.38,1.36.27,1.6-1,2.15-1.45,4.66-4,5.68-.13.05-.89-.78-.81-1C255.41,219,256,216.33,259,215Z"/><path class="cls-13" d="M100.42,179.06c1,0,1.38-.1,1.63,0,2,1,4.34,1.68,5.39,3.92a.88.88,0,0,1-1.13,1.1C104,183.09,101.46,182.36,100.42,179.06Z"/><path class="cls-17" d="M166.3,168.84c.23,1,0,1.89-.73,1.69-2.81-.73-3-3.54-4.1-5.62-.27-.53,0-1.67.73-1.43C164.89,164.32,164.94,167.28,166.3,168.84Z"/><path class="cls-12" d="M168.75,273.72c-2.23,2.08-4.68,3.3-8.35,2.09C163.1,273.42,165.86,273.35,168.75,273.72Z"/><path class="cls-18" d="M131.65,171.15c-.93.13-1.11.22-1.25.17-2.63-.89-3.38-3.25-4.16-5.53-.06-.19.63-.94.85-.9C130.3,165.61,129.81,168.93,131.65,171.15Z"/><path class="cls-18" d="M141.13,222.07c-.93.14-1.11.22-1.25.17-2.64-.89-3.38-3.24-4.16-5.52-.07-.2.63-.95.85-.9C139.78,216.53,139.29,219.85,141.13,222.07Z"/><path class="cls-19" d="M158.92,270.3c-.78-.41-1-.45-1.06-.57a7.2,7.2,0,0,1,.33-7c.09-.15,1.21,0,1.26.21A10.69,10.69,0,0,1,158.92,270.3Z"/><path class="cls-13" d="M189.43,119.3c.37.88.52,1.06.47,1.17a9.08,9.08,0,0,1-5.1,5c-.23.09-1.09-.6-1.05-.73C184.62,122,187.05,120.92,189.43,119.3Z"/><path class="cls-13" d="M119.55,161.79a20.9,20.9,0,0,1,2.5-1.26c1.69-.56,2.43-4.44,4.37-2.35,1.34,1.47-1.81,2.91-3,4.32C122.73,163.34,121.67,164.09,119.55,161.79Z"/><path class="cls-18" d="M93.88,159.27c1,0,1.42.74,1.2,1.3-.73,1.92-.9,4.31-3.3,5.09a.94.94,0,0,1-1.11-1.2C91.46,162.55,91.9,160.34,93.88,159.27Z"/><path class="cls-18" d="M102.54,149.19c-.86.61-1,.79-1.12.78-2.58-.39-5-1.13-6.43-3.55-.08-.13.55-1,.76-.95C98.34,145.89,100.2,147.57,102.54,149.19Z"/><path class="cls-16" d="M131.37,270.63c-.38.84-.42,1.07-.51,1.1a8.76,8.76,0,0,1-7.05-.51,1.51,1.51,0,0,1,0-1.28C126.4,268.61,128.72,270,131.37,270.63Z"/><path class="cls-18" d="M212.36,242.18c-1.49-.62-1.92-.66-2-.87-1-1.92-3.37-3.26-2.67-5.91.07-.28,1-.68,1.13-.56C210.87,236.56,211.51,238.92,212.36,242.18Z"/><path class="cls-13" d="M116.25,234.85c.83-.43,1.32-.25,1.71.19,1.15,1.33,3.23,1.81,3.59,3.8.09.47-.74.92-1.27.6C118.47,238.33,116.59,237.23,116.25,234.85Z"/><path class="cls-18" d="M119.21,264.71c-1.23,0-1.61.11-1.85,0-1.71-.93-3.92-1.2-4.85-3.18-.31-.65.39-1.33,1.12-1.2A7.15,7.15,0,0,1,119.21,264.71Z"/><path class="cls-16" d="M256.86,259.73c-.14.57-.13.82-.22.86-2.69,1.32-4.95-.16-7.24-1.21a1.94,1.94,0,0,1,.09-1.24A9.87,9.87,0,0,1,256.86,259.73Z"/><path class="cls-18" d="M80.86,153.73c-4-1.84-5.08-4.12-6-7.42C78.67,147.29,79.14,150.12,80.86,153.73Z"/><path class="cls-18" d="M242,217.22c3.13-.82,4.73,1.34,7.69,2.77C245.42,221.36,243.68,219.22,242,217.22Z"/><path class="cls-18" d="M238.42,267c.52-3.14,2.68-4.44,6.21-5.72C243.61,265.36,240.47,265.57,238.42,267Z"/><path class="cls-18" d="M217.66,277.4c.52-3.14,2.68-4.44,6.21-5.72C222.85,275.77,219.71,276,217.66,277.4Z"/><path class="cls-12" d="M80.54,171.19c-2.46-2.84-2.72-5.19-1.68-8.46C81,165.37,81.7,167.65,80.54,171.19Z"/><path class="cls-18" d="M123.88,227.59c1,3.07.19,4.81-1.29,6.33-.14.14-1.06-.17-1.06-.25C121.62,231.62,122.53,229.9,123.88,227.59Z"/><path class="cls-18" d="M267.36,214.66c-2.27-.76-4.76-1.19-6.38-3.9C264.72,210.08,266.31,212,267.36,214.66Z"/><path class="cls-18" d="M70.35,168.8c3.59,1.69,4.06,4.38,4.44,7.12C72.14,174.65,71.28,172.21,70.35,168.8Z"/><path class="cls-18" d="M176.48,234.52c.73,2.55.78,4.93-1.73,7.44C174.33,238.78,174.47,236.46,176.48,234.52Z"/><path class="cls-18" d="M167.93,200.73c-2.15-1-4.69-1.38-6.34-4C165.29,196.25,166.76,198.3,167.93,200.73Z"/><path class="cls-18" d="M154.17,216.88c-2.14-1-4.69-1.38-6.33-4C151.54,212.4,153,214.45,154.17,216.88Z"/><path class="cls-18" d="M239.23,185.89c0-2.39-.81-5.14,2.7-6.23C242.3,182.59,240.67,184.26,239.23,185.89Z"/><path class="cls-18" d="M289.17,152.29c1-2.16,1.4-5,5.05-4.54C293.34,150.57,291.16,151.4,289.17,152.29Z"/><path class="cls-14" d="M171.86,109.54c.82-1.05,1.66-1.19,2.53-.07l.09,4c-.11,1-.21,1.95-.32,2.92l-2,.15-.08-.08C172,114.18,171.94,111.86,171.86,109.54Z"/><path class="cls-14" d="M255.43,240.17a9.9,9.9,0,0,1,0,9.21C253.88,245.93,253.84,243.56,255.43,240.17Z"/><path class="cls-18" d="M147.45,161.13c-.48-2.76.7-4.62,2.34-7.17C150.33,158.34,150.33,158.34,147.45,161.13Z"/><path class="cls-17" d="M252.05,165.73c2.42-1.75,5-1.65,8.22-.84C257.39,167.47,254.7,166.7,252.05,165.73Z"/><path class="cls-17" d="M132.33,179.61c-2.47,1.51-5,1.59-8.18.52C127.17,177.81,129.73,178.25,132.33,179.61Z"/><path class="cls-18" d="M180.32,171c-1.19-3-.89-4.91.1-6.78C181.57,166.18,181.82,168.12,180.32,171Z"/><path class="cls-18" d="M270.74,153.14c1.84,1.83,1.1,3.77,1.12,6.59C269,157.19,270.47,155.07,270.74,153.14Z"/><path class="cls-20" d="M181.84,206.87l3-1.86c.42,1.25,1.83,2.71-.06,3.67C183.35,209.42,182.05,208.78,181.84,206.87Z"/><path class="cls-20" d="M200.16,114.43c.08,2.32.15,4.64.23,7C197.61,119.16,197.72,116.83,200.16,114.43Z"/><path class="cls-21" d="M164,119.25l-5.09,4.48C159.92,121.52,159.45,117.56,164,119.25Z"/><path class="cls-21" d="M186.86,68.73l-5.08,4.48C182.84,71,182.37,67,186.86,68.73Z"/><path class="cls-20" d="M207.08,186.09c0,.88-.08,1.76-.13,2.64l-5-2.88,3.87-1.12Z"/><path class="cls-20" d="M138.09,184.93l.24-1.32c1.36-.42,2.7-1.37,4.13-.18a1.32,1.32,0,0,1-.39.7A3.39,3.39,0,0,1,138.09,184.93Z"/><path class="cls-8" d="M218.26,152.55c1.8-.37,3.09-3.25,5.07-1.88,1.65,1.13-.38,2.11-1.29,2.86-1.46,1.21-3,3.23-5,1.79C215.71,154.35,217.73,153.54,218.26,152.55Z"/><path class="cls-11" d="M233.37,153.54c-.75,1.11-1.57,1.2-1.93.69-1.37-2-2.8-4.06-2.54-6.62a1,1,0,0,1,1.89-.39A17.84,17.84,0,0,1,233.37,153.54Z"/><path class="cls-11" d="M208.66,160.72c-.75,1.11-1.57,1.2-1.92.69-1.37-2-2.8-4.06-2.54-6.62a1,1,0,0,1,1.88-.39A17.65,17.65,0,0,1,208.66,160.72Z"/><path class="cls-11" d="M222.86,165.73c.33-1.17-1.28-3.28,1.22-3.33,1.55,0,2.52,1.18,2,3a2.91,2.91,0,0,0,1,3l-.24,1.32-2.19-.36Z"/><path class="cls-18" d="M240.52,150.77c.73,2.55.79,4.93-1.72,7.44C238.37,155,238.51,152.71,240.52,150.77Z"/><path class="cls-17" d="M222.08,172.4c-2.46,1.51-5,1.59-8.18.52C216.92,170.6,219.48,171,222.08,172.4Z"/><path class="cls-20" d="M227.84,177.72l.24-1.32c1.36-.42,2.7-1.37,4.14-.18a1.45,1.45,0,0,1-.4.7A3.39,3.39,0,0,1,227.84,177.72Z"/><path class="cls-20" d="M113.75,292.42l-.09-4C116.42,289.67,116.37,291,113.75,292.42Z"/><path class="cls-21" d="M198,211.15c.45-1,.89-2.06,1.33-3.1.74.85,1.86,1.63.9,2.94C199.65,211.8,198.81,211.54,198,211.15Z"/><path class="cls-20" d="M320.68,143.69c0,1.72,1.64,2.56,2.18,4l-4.55-1.81h0Z"/><path class="cls-20" d="M189.23,208.43l1.8,3.72C189,211.59,187.61,210.75,189.23,208.43Z"/><path class="cls-20" d="M129.33,202.61c-.16-1.29-.31-2.59-.47-3.88C130.56,199.84,130.28,201.18,129.33,202.61Z"/><path class="cls-20" d="M194.18,69.46c.11-.63.13-1.36,1-1.47.17,0,.57.38.55.55-.11.84-.84.84-1.46,1Z"/><path class="cls-20" d="M245.48,172c-.08-.64-.15-1.27-.23-1.91.76.06,1.76-.09,1.68,1.05C246.91,171.43,246,171.68,245.48,172Z"/><path class="cls-20" d="M115.32,300l-2,.05c.14-.73.13-1.71,1.2-1.5C114.86,298.57,115.06,299.45,115.32,300Z"/><path class="cls-20" d="M270.86,167.73c-.36-.66-.73-1.31-1.1-2C271.11,165.87,272.49,166,270.86,167.73Z"/><path class="cls-20" d="M178.37,121.4l.87,1c-.37.58-.9,1.15-1.49.49S177.78,121.74,178.37,121.4Z"/><path class="cls-21" d="M144.33,194.61l1.64,1.08c-.53.52-1.09,1.3-1.84.54C143.89,196,144.25,195.17,144.33,194.61Z"/><path class="cls-20" d="M152.44,159.64l2-.14C153.84,160.56,153.18,160.59,152.44,159.64Z"/><path class="cls-20" d="M137.29,269.36l-1.43-.63Z"/><path class="cls-20" d="M186.07,88c-.45-.28-.9-.56-1.34-.85l1.46-.06.05,0C186.18,87.43,186.12,87.72,186.07,88Z"/><path class="cls-20" d="M221.25,225.06l1.23-.26Z"/></g><g id="Stars"><path class="cls-22" d="M272.44,168.52l-.28-.45c.07-1.21,1.21-1.21,1.92-1.56a2.86,2.86,0,0,0,1.87-2.66,6.91,6.91,0,0,1,.23-1.17c.63-.17.41-1.16,1.17-1.21l.39.66a.52.52,0,0,0,.7.31l.28.41c.29.51.35,1.35,1.3.94h.05c.92.59,1.9.22,2.85.15.64,0,1,.1,1.25.7a1.39,1.39,0,0,0-.48.92.82.82,0,0,0-.37,1,1,1,0,0,1-.23.78c-.46.42-.15.82,0,1.21.39.79.8,1.58,1.2,2.38l-1.94.43a.61.61,0,0,1-.24.07l-.35-.69c.19-.15.53-.18.44-.54,0,0-.15-.1-.2-.09-.36.1-.3.37-.24.63l-.75.39-1.62.83c-.4.46-1.21.59-1.16,1.43l-.47.28c-1-.09-.57-1.44-1.42-1.69C276.05,169.76,274.37,169,272.44,168.52Zm10.94,1.28-.11-.06c0,.07,0,.14,0,.2s.07,0,.1.06Z"/><path class="cls-23" d="M277.74,162.13l-.39-.66c-1.22-1.18-1.14.11-1.4.74a3.07,3.07,0,0,1-.37-.72c-.13-.54-1.06-1.22-.21-1.57.63-.26,1.6-.79,2.37.34a4.74,4.74,0,0,0,4.58,2.33,1.47,1.47,0,0,1,1.26.34c-1.05.79-2.43.22-3.51.87h0a1.94,1.94,0,0,0-1.31-.94l-.28-.41A.6.6,0,0,0,277.74,162.13Z"/><path class="cls-23" d="M272.44,168.52c1.93.48,3.61,1.24,3.94,3.51a11.41,11.41,0,0,0,.48,2.73l0,.08c-.74.09-1-.2-1-1a4.2,4.2,0,0,0-2.29-3.67A1.75,1.75,0,0,1,272.44,168.52Z"/><path class="cls-23" d="M276.18,162.68a6.91,6.91,0,0,0-.23,1.17,2.86,2.86,0,0,1-1.87,2.66c-.71.35-1.85.35-1.92,1.56-.91.17-1.13-.16-.64-.93a2.28,2.28,0,0,1,1.12-1.13,4.49,4.49,0,0,0,2.89-2.94,2.62,2.62,0,0,1,.49-.63Z"/><path class="cls-24" d="M280.07,163.8c1.08-.65,2.46-.08,3.51-.87l.28-.07c1.27.39.68,1.11.31,1.79-.21-.6-.61-.74-1.25-.7C282,164,281,164.39,280.07,163.8Z"/><path class="cls-24" d="M276.18,162.68l-.16-.24a1,1,0,0,0-.07-.23c.26-.63.18-1.92,1.4-.74C276.59,161.52,276.81,162.51,276.18,162.68Z"/><path class="cls-24" d="M278.72,162.85a1.94,1.94,0,0,1,1.31.94C279.07,164.2,279,163.36,278.72,162.85Z"/><path class="cls-24" d="M277.74,162.13a.6.6,0,0,1,.7.31A.52.52,0,0,1,277.74,162.13Z"/><path class="cls-22" d="M97.34,160.51c0-.18,0-.36,0-.54.77-.93,1.69-.27,2.47-.13a2.87,2.87,0,0,0,3.08-1.05,6.82,6.82,0,0,1,.88-.81c.6.23,1-.7,1.65-.29l-.07.76a.51.51,0,0,0,.38.66l0,.5c-.06.58-.5,1.3.51,1.52l0,0c.4,1,1.41,1.3,2.21,1.8.55.34.79.69.61,1.3a1.33,1.33,0,0,0-.93.46.83.83,0,0,0-.91.62,1,1,0,0,1-.65.5c-.61.07-.6.57-.68,1l-.42,2.63-1.82-.79a.62.62,0,0,1-.24-.08l.12-.77c.24,0,.53.17.67-.17a.22.22,0,0,0-.11-.2c-.34-.13-.45.12-.56.37l-.83-.12-1.8-.28c-.6.13-1.33-.24-1.78.47l-.55,0c-.79-.68.39-1.5-.16-2.2C99.54,163.63,98.62,162,97.34,160.51Zm8.1,7.46,0-.11a1,1,0,0,0-.14.15s0,.07,0,.11Z"/><path class="cls-23" d="M105.39,158.45c0-.26,0-.51.07-.76-.3-1.68-1-.59-1.57-.23a3.61,3.61,0,0,1,.13-.8c.21-.51-.15-1.61.75-1.39.66.16,1.76.3,1.71,1.67a4.73,4.73,0,0,0,2.34,4.57,1.5,1.5,0,0,1,.82,1c-1.31,0-2.09-1.26-3.35-1.36l0,0a1.86,1.86,0,0,0-.51-1.52c0-.17,0-.33,0-.5A.6.6,0,0,0,105.39,158.45Z"/><path class="cls-23" d="M97.34,160.51c1.28,1.52,2.2,3.12,1.12,5.15a11.47,11.47,0,0,0-1.21,2.49l-.07,0c-.65-.36-.71-.76-.25-1.4a4.17,4.17,0,0,0,.3-4.31A1.76,1.76,0,0,1,97.34,160.51Z"/><path class="cls-23" d="M103.81,158a6.82,6.82,0,0,0-.88.81,2.87,2.87,0,0,1-3.08,1.05c-.78-.14-1.7-.8-2.47.13-.84-.39-.81-.79,0-1.13a2.34,2.34,0,0,1,1.57-.25,4.49,4.49,0,0,0,4.07-.68,2.68,2.68,0,0,1,.76-.22Z"/><path class="cls-24" d="M106.29,161.17c1.26.1,2,1.38,3.35,1.36l.27.1c.79,1.07-.1,1.31-.8,1.64.18-.61-.06-1-.61-1.3C107.7,162.47,106.69,162.19,106.29,161.17Z"/><path class="cls-24" d="M103.81,158v-.29a.9.9,0,0,0,.08-.23c.58-.36,1.27-1.45,1.57.23C104.82,157.28,104.41,158.21,103.81,158Z"/><path class="cls-24" d="M105.75,159.61a1.86,1.86,0,0,1,.51,1.52C105.25,160.91,105.69,160.19,105.75,159.61Z"/><path class="cls-24" d="M105.39,158.45a.6.6,0,0,1,.38.66A.51.51,0,0,1,105.39,158.45Z"/><path class="cls-25" d="M173.18,200.41a3.16,3.16,0,0,0,1.93-3.64c-.15-.92.6-1.47,1.3-1.84s1,.28,1.39.69a5.33,5.33,0,0,0,5.4,1.88c.56-.13,1.32-.26,1.71.31s-.32,1-.51,1.5c-.71,1.91-1.09,3.8.45,5.53.39.44.76.93.32,1.5a1.52,1.52,0,0,1-1.8.74c-.49-.16-1-.11-1.52-.26-1.43-.45-2.33.29-3.12,1.3a2.74,2.74,0,0,1-.91.85c-1.81.95-2.36.65-2.42-1.38a4.25,4.25,0,0,0-2.65-4c-2.18-1-2.15-1.21-.14-2.67C172.76,200.77,172.9,200.64,173.18,200.41Zm6.18,5.43a5.34,5.34,0,0,1,2-.52c1.11-.2,1.58-1,1-1.93a1.94,1.94,0,0,1,.48-2.61,1.78,1.78,0,0,0,.59-.93c.07-.38.61-.71.17-1.14s-.72-.12-1.06,0a3.53,3.53,0,0,1-4.38-1c-.46-.53-1-.78-1.56-.21s-.95,1.15-.39,1.86c.81,1,.49,1.47-.68,1.64a6.33,6.33,0,0,0-.94.28c-.87.3-1,.64-.25,1.34a6.42,6.42,0,0,1,2,2.52C177.26,207.55,177.21,207.56,179.36,205.84Z"/><path class="cls-26" d="M179.36,205.84c-2.15,1.72-2.1,1.71-3-.73a6.42,6.42,0,0,0-2-2.52c-.8-.7-.62-1,.25-1.34a6.33,6.33,0,0,1,.94-.28c1.17-.17,1.49-.62.68-1.64-.56-.71-.13-1.34.39-1.86s1.1-.32,1.56.21a3.53,3.53,0,0,0,4.38,1c.34-.14.72-.34,1.06,0s-.1.76-.17,1.14a1.78,1.78,0,0,1-.59.93,1.94,1.94,0,0,0-.48,2.61c.54,1,.07,1.73-1,1.93A5.34,5.34,0,0,0,179.36,205.84Z"/><path class="cls-27" d="M193.54,137.07l-.68-.47a6.9,6.9,0,0,1-.76-1.12,2.36,2.36,0,0,0-2.48-1.35,10.54,10.54,0,0,1-1.13-.11c-.6-.08-.83-.32-.41-.89s.79-1.16,1.19-1.72c.27-.36.47-.71.09-1.11l0-.22a3.12,3.12,0,0,0-.21-1.42c-.25-1.12-.06-1.4,1-1a3.77,3.77,0,0,0,4.31-.55c.1-.09.25-.12.36-.2.59-.41.83-.15.85.46s0,1,0,1.56a2.06,2.06,0,0,0,.49,1.55c.74.68,1.47,1.38,2.2,2.07h0a10.71,10.71,0,0,1-2.14.77,2,2,0,0,0-1.55,1.24C194.25,135.43,193.89,136.25,193.54,137.07Zm-2.95-8.65c-.63-.23-.53.14-.42.51l-.07.74.15,2.09-1.17,1.15c-.17.66.09.8.67.57l1.16-.13.82.64.65.54c.1.09.24.16.3.28.55.94.91.69,1.25-.16a3.52,3.52,0,0,1,2.09-2c.8-.32.86-.65.15-1.22a3.79,3.79,0,0,1-1.39-1.75l.2-.31c.08-.49.15-1-.32-1.32s-.82.18-1.2.36a2,2,0,0,0-.32.25l-.28.3c-.62.19-1.18-.37-1.8-.16Z"/><path class="cls-28" d="M198.28,132.59c-.73-.69-1.46-1.39-2.2-2.07a2.06,2.06,0,0,1-.49-1.55c0-.52,0-1,0-1.56s-.26-.87-.85-.46c-.11.08-.26.11-.36.2a3.77,3.77,0,0,1-4.31.55c-1-.44-1.21-.16-1,1a3.12,3.12,0,0,1,.21,1.42l-.92-1-.18-.43a2.13,2.13,0,0,0,.18-1.19c.73-1.1,1.73-.64,2.53-.29a2.29,2.29,0,0,0,2.86-.45,1.49,1.49,0,0,1,1.88-.41,1.78,1.78,0,0,1,.71,1.62c-.07,1.23-.08,2.3,1.31,2.94A1.24,1.24,0,0,1,198.28,132.59Z"/><path class="cls-28" d="M189.36,130.3c.38.4.18.75-.09,1.11-.4.56-.77,1.16-1.19,1.72s-.19.81.41.89a10.54,10.54,0,0,0,1.13.11,2.36,2.36,0,0,1,2.48,1.35,6.9,6.9,0,0,0,.76,1.12c-.56,0-.83-.54-1.26-.8l-.66-.83c-.38-.74-1-.19-1.45-.21a3.4,3.4,0,0,0-1.09.29,3.74,3.74,0,0,1-1-1.07c.06-.31.13-.62.19-.94a9.73,9.73,0,0,1,1.33-1.61Z"/><path class="cls-28" d="M193.54,137.07c.35-.82.71-1.64,1.05-2.46a2,2,0,0,1,1.55-1.24,10.71,10.71,0,0,0,2.14-.77l.34.26c-.28.51-.86.38-1.28.6l-.27.3-.58.07a3.19,3.19,0,0,0-2,2.38C194.38,136.65,194.34,137.32,193.54,137.07Z"/><path class="cls-23" d="M188.93,131.43A9.73,9.73,0,0,0,187.6,133c-.42-.61-.28-1.06.38-1.39a4.36,4.36,0,0,0,.65-.48Z"/><path class="cls-29" d="M188.93,131.43l-.3-.26a1,1,0,0,0-.06-1.14c-.19-.28-.38-.57-.16-.93l.92,1,0,.22C189.22,130.68,189.07,131.05,188.93,131.43Z"/><path class="cls-23" d="M187.41,134a3.74,3.74,0,0,0,1,1.07c-.23.37-.44.3-.7,0S186.93,134.5,187.41,134Z"/><path class="cls-23" d="M190.94,135l.66.83c-.25.23-.54.36-.81.07S190.71,135.24,190.94,135Z"/><path class="cls-30" d="M191.06,128.77c.62-.21,1.18.35,1.8.16.15.58.55,1.16,0,1.75a.6.6,0,0,0,0,.93.91.91,0,0,0,.95.29c.45-.12.44-.48.42-.84a1.72,1.72,0,0,1,.58-1.41,3.79,3.79,0,0,0,1.39,1.75c.71.57.65.9-.15,1.22a3.52,3.52,0,0,0-2.09,2c-.34.85-.7,1.1-1.25.16-.06-.12-.2-.19-.3-.28.28-.22.89,0,.86-.63a.78.78,0,0,0-.64-.72c-.67-.17-.63.49-.87.81l-.82-.64c.36-.41,1.05-.69.49-1.44a.7.7,0,0,0-1.15-.15l-.15-2.09c.37.24.67.79,1.2.21S191.36,129.09,191.06,128.77Z"/><path class="cls-31" d="M194.78,129.65a1.72,1.72,0,0,0-.58,1.41c0,.36,0,.72-.42.84a.91.91,0,0,1-.95-.29.6.6,0,0,1,0-.93c.58-.59.18-1.17,0-1.75l.28-.3a1.54,1.54,0,0,1,1.84.71Z"/><path class="cls-31" d="M190.25,131.76a.7.7,0,0,1,1.15.15c.56.75-.13,1-.49,1.44l-1.16.12c-.23-.18-.45-.37-.67-.56Z"/><path class="cls-31" d="M191.06,128.77c.3.32.7.6.24,1.11s-.83,0-1.2-.21c0-.24.05-.49.07-.74l.42-.51Z"/><path class="cls-31" d="M191.73,134c.24-.32.2-1,.87-.81a.78.78,0,0,1,.64.72c0,.64-.58.41-.86.63Z"/><path class="cls-30" d="M195,129.34a1.54,1.54,0,0,0-1.84-.71,2,2,0,0,1,.32-.25c.38-.18.72-.67,1.2-.36S195.06,128.85,195,129.34Z"/><path class="cls-30" d="M189.08,132.91c.22.19.44.38.67.56C189.17,133.71,188.91,133.57,189.08,132.91Z"/><path class="cls-27" d="M244.58,211.24l-1-.45a9.26,9.26,0,0,1-1.3-1.28c-.93-1.35-2.21-1.41-3.63-1.14a12.78,12.78,0,0,1-1.53.16c-.81.05-1.17-.22-.76-1.08s.73-1.73,1.12-2.58c.26-.55.44-1.05-.17-1.49,0-.09-.07-.18-.11-.28a4,4,0,0,0-.64-1.82c-.63-1.42-.45-1.84,1-1.53a5.06,5.06,0,0,0,5.55-1.84c.12-.15.3-.23.43-.37.67-.69,1.05-.42,1.24.39s.22,1.39.4,2.07a2.78,2.78,0,0,0,1.05,1.92c1.16.7,2.3,1.43,3.45,2.16h0a13.13,13.13,0,0,1-2.62,1.58,2.68,2.68,0,0,0-1.72,2C245.09,208.88,244.83,210.06,244.58,211.24Zm-6.16-10.66c-.89-.14-.66.32-.42.78l.09,1,.75,2.71-1.24,1.83c-.06.92.32,1,1,.58l1.5-.47,1.25.63,1,.54a1.83,1.83,0,0,1,.47.28c1,1.11,1.39.68,1.61-.53a4.7,4.7,0,0,1,2.23-3.22c1-.63,1-1.09-.12-1.66a5.19,5.19,0,0,1-2.3-1.94l.19-.47c0-.66-.07-1.37-.77-1.65s-1,.44-1.49.79a2.86,2.86,0,0,0-.36.41l-.29.46c-.77.42-1.66-.17-2.43.27Z"/><path class="cls-28" d="M249.67,204.08c-1.15-.73-2.29-1.46-3.45-2.16a2.78,2.78,0,0,1-1.05-1.92c-.18-.68-.24-1.39-.4-2.07s-.57-1.08-1.24-.39c-.13.14-.31.22-.43.37a5.06,5.06,0,0,1-5.55,1.84c-1.46-.31-1.64.11-1,1.53a4,4,0,0,1,.64,1.82L235.72,202l-.36-.52a2.88,2.88,0,0,0-.07-1.62c.67-1.63,2.12-1.3,3.27-1a3.06,3.06,0,0,0,3.65-1.35,2,2,0,0,1,2.39-1,2.37,2.37,0,0,1,1.35,2c.23,1.64.5,3.07,2.51,3.54A1.69,1.69,0,0,1,249.67,204.08Z"/><path class="cls-28" d="M237.29,203.38c.61.44.43.94.17,1.49-.39.85-.72,1.74-1.12,2.58s-.05,1.13.76,1.08a12.78,12.78,0,0,0,1.53-.16c1.42-.27,2.7-.21,3.63,1.14a9.26,9.26,0,0,0,1.3,1.28c-.76.1-1.24-.49-1.87-.72l-1.1-.93c-.69-.88-1.33,0-2,.1a4.65,4.65,0,0,0-1.36.67,5.18,5.18,0,0,1-1.59-1.15c0-.43,0-.86,0-1.29A12.07,12.07,0,0,1,237,205Z"/><path class="cls-28" d="M244.58,211.24c.25-1.18.51-2.36.75-3.54a2.68,2.68,0,0,1,1.72-2,13.13,13.13,0,0,0,2.62-1.58l.52.27c-.24.74-1,.72-1.53,1.12l-.28.46-.76.24c-1.44.81-1.76,2.19-2,3.67C245.58,210.46,245.7,211.36,244.58,211.24Z"/><path class="cls-23" d="M237,205a12.07,12.07,0,0,0-1.33,2.48c-.72-.7-.65-1.33.13-1.94a5.62,5.62,0,0,0,.74-.8Z"/><path class="cls-29" d="M237,205l-.46-.26a1.39,1.39,0,0,0-.38-1.5c-.32-.32-.65-.65-.45-1.19l1.46,1.06c0,.1.07.19.11.28C237.19,203.92,237.1,204.45,237,205Z"/><path class="cls-23" d="M235.67,208.76a5.18,5.18,0,0,0,1.59,1.15c-.21.55-.5.52-.93.19S235.17,209.56,235.67,208.76Z"/><path class="cls-23" d="M240.59,209.14l1.1.93c-.28.36-.63.61-1.05.3S240.36,209.56,240.59,209.14Z"/><path class="cls-30" d="M239.12,200.92c.77-.44,1.66.15,2.43-.27.35.74,1,1.4.42,2.33a.82.82,0,0,0,.24,1.23,1.24,1.24,0,0,0,1.33.13c.56-.28.46-.75.34-1.22a2.3,2.3,0,0,1,.39-2,5.19,5.19,0,0,0,2.3,1.94c1.09.57,1.1,1,.12,1.66a4.7,4.7,0,0,0-2.23,3.22c-.22,1.21-.64,1.64-1.61.53a1.83,1.83,0,0,0-.47-.28c.31-.36,1.18-.22,1-1.05a1,1,0,0,0-1-.79c-.93-.05-.7.81-.94,1.3l-1.25-.63c.37-.64,1.21-1.2.27-2a.94.94,0,0,0-1.56.09l-.75-2.71c.55.21,1.1.87,1.64,0S239.61,201.26,239.12,200.92Z"/><path class="cls-31" d="M244.27,201.11a2.3,2.3,0,0,0-.39,2c.12.47.22.94-.34,1.22a1.24,1.24,0,0,1-1.33-.13A.82.82,0,0,1,242,203c.61-.93-.07-1.59-.42-2.33l.29-.46a2.07,2.07,0,0,1,2.62.45Z"/><path class="cls-31" d="M238.84,205.07a.94.94,0,0,1,1.56-.09c.94.83.1,1.39-.27,2l-1.5.47-1-.58Z"/><path class="cls-31" d="M239.12,200.92c.49.34,1.09.61.61,1.4s-1.09.25-1.64,0l-.09-1,.42-.78Z"/><path class="cls-31" d="M241.38,207.64c.24-.49,0-1.35.94-1.3a1,1,0,0,1,1,.79c.21.83-.66.69-1,1.05Z"/><path class="cls-30" d="M244.46,200.64a2.07,2.07,0,0,0-2.62-.45,2.86,2.86,0,0,1,.36-.41c.46-.35.77-1.08,1.49-.79S244.44,200,244.46,200.64Z"/><path class="cls-30" d="M237.6,206.9l1,.58C237.92,207.94,237.54,207.82,237.6,206.9Z"/><path class="cls-27" d="M151.69,212.77l-.69.46a6.83,6.83,0,0,1-1.32.31c-1.21,0-1.76.82-2.16,1.81a9.78,9.78,0,0,1-.5,1c-.3.52-.61.65-1,.05s-.79-1.15-1.17-1.73c-.24-.38-.49-.7-1-.49l-.21,0a3,3,0,0,0-1.4-.33c-1.14-.17-1.33-.45-.56-1.24a3.75,3.75,0,0,0,1.06-4.21c0-.13,0-.28-.06-.42-.17-.7.16-.82.74-.62s1,.42,1.45.57a2,2,0,0,0,1.62.11l2.73-1.3h0a10.15,10.15,0,0,1-.06,2.27,2,2,0,0,0,.59,1.89C150.42,211.51,151.05,212.14,151.69,212.77Zm-9.13-.38c-.44.5-.07.54.32.57l.67.34,2,.61.65,1.51c.55.4.78.21.77-.42l.31-1.13.89-.53.73-.41a1.64,1.64,0,0,1,.38-.18c1.07-.17,1-.6.3-1.22a3.52,3.52,0,0,1-1.13-2.68c0-.87-.29-1-1.09-.59a3.81,3.81,0,0,1-2.13.67l-.22-.31c-.42-.25-.88-.5-1.34-.17s-.13.82-.1,1.25a1.94,1.94,0,0,0,.12.39l.17.36c0,.65-.77,1-.8,1.63Z"/><path class="cls-28" d="M149.23,206.73,146.5,208a2,2,0,0,1-1.62-.11c-.49-.15-1-.39-1.45-.57s-.91-.08-.74.62c0,.14,0,.29.06.42a3.75,3.75,0,0,1-1.06,4.21c-.77.79-.58,1.07.56,1.24a3,3,0,0,1,1.4.33l-1.25.49-.47,0a2,2,0,0,0-1-.6c-.76-1.07,0-1.85.65-2.46a2.3,2.3,0,0,0,.61-2.83,1.52,1.52,0,0,1,.3-1.91,1.8,1.8,0,0,1,1.76-.07c1.13.51,2.12.91,3.22-.16A1.25,1.25,0,0,1,149.23,206.73Z"/><path class="cls-28" d="M143.86,214.21c.52-.21.77.11,1,.49.38.58.8,1.14,1.17,1.73s.68.47,1-.05a9.78,9.78,0,0,0,.5-1c.4-1,.95-1.77,2.16-1.81a6.83,6.83,0,0,0,1.32-.31c-.23.52-.8.59-1.19.89l-1,.31c-.83.08-.53.84-.73,1.28a4.05,4.05,0,0,0-.12,1.12,4,4,0,0,1-1.35.54l-.8-.52a9.35,9.35,0,0,1-1-1.82Z"/><path class="cls-28" d="M151.69,212.77c-.64-.63-1.27-1.26-1.92-1.88a2,2,0,0,1-.59-1.89,10.15,10.15,0,0,0,.06-2.27l.37-.22c.36.45,0,.94.09,1.4l.18.37-.15.57a3.25,3.25,0,0,0,1.51,2.69C151.6,211.84,152.21,212.12,151.69,212.77Z"/><path class="cls-23" d="M144.76,215a9.35,9.35,0,0,0,1,1.82c-.73.17-1.1-.12-1.17-.86a4.25,4.25,0,0,0-.2-.78Z"/><path class="cls-29" d="M144.76,215l-.34.18a1,1,0,0,0-1.09-.36c-.34.07-.68.15-.93-.19l1.25-.49.21,0Z"/><path class="cls-23" d="M146.59,217.37a4,4,0,0,0,1.35-.54c.26.35.13.52-.25.66S146.89,218,146.59,217.37Z"/><path class="cls-23" d="M148.79,214.43l1-.31c.11.31.13.63-.24.77S149,214.75,148.79,214.43Z"/><path class="cls-30" d="M143.05,212.08c0-.66.76-1,.8-1.63.6.08,1.29-.08,1.63.67a.6.6,0,0,0,.86.34.92.92,0,0,0,.61-.79c.05-.46-.28-.58-.63-.7a1.68,1.68,0,0,1-1.1-1,3.81,3.81,0,0,0,2.13-.67c.8-.45,1.08-.28,1.09.59a3.52,3.52,0,0,0,1.13,2.68c.67.62.77,1.05-.3,1.22a1.64,1.64,0,0,0-.38.18c-.09-.34.34-.82-.26-1a.79.79,0,0,0-.91.34c-.4.56.23.76.44,1.1l-.89.53c-.26-.48-.27-1.23-1.16-1a.71.71,0,0,0-.57,1l-2-.61c.35-.26,1-.34.62-1S143.46,211.91,143.05,212.08Z"/><path class="cls-31" d="M145.22,208.93a1.68,1.68,0,0,0,1.1,1c.35.12.68.24.63.7a.92.92,0,0,1-.61.79.6.6,0,0,1-.86-.34c-.34-.75-1-.59-1.63-.67-.06-.12-.12-.24-.17-.36a1.55,1.55,0,0,1,1.32-1.47Z"/><path class="cls-31" d="M145.54,213.91a.71.71,0,0,1,.57-1c.89-.25.9.5,1.16,1-.1.38-.21.76-.31,1.13l-.77.42Z"/><path class="cls-31" d="M143.05,212.08c.41-.17.82-.44,1.12.18s-.27.78-.62,1l-.67-.34-.32-.57Z"/><path class="cls-31" d="M148.16,213.34c-.21-.34-.84-.54-.44-1.1a.79.79,0,0,1,.91-.34c.6.21.17.69.26,1Z"/><path class="cls-30" d="M145,208.62a1.55,1.55,0,0,0-1.32,1.47,1.94,1.94,0,0,1-.12-.39c0-.43-.37-.92.1-1.25S144.58,208.37,145,208.62Z"/><path class="cls-30" d="M146.19,215.42,147,215C147,215.63,146.74,215.82,146.19,215.42Z"/><path class="cls-28" d="M154.21,257.76c.32.91-.3,1.26-.93,1.65-2.1,1.29-2.65,2.77-2,5.18.32,1.18-.56,1.77-1.27,2.41s-1-.28-1.4-.55q-1.74-1.18-3.42-2.46c-.94-.7-1.83-.14-2.62.17-1.22.49-2.42.74-3.28-.37a3.17,3.17,0,0,1-.29-3.59c1.2-2.57,1.57-2.3-.39-4.42-1-1.12-1-2.1.1-2.64a2.27,2.27,0,0,0,1.15,2.4.32.32,0,0,0,.08.2,5.15,5.15,0,0,1,.17,5.68,1.77,1.77,0,0,0-.15.46c-.09.51-.55,1.06,0,1.53s.93,0,1.39-.08c2.19-.6,4.35-1.16,6.19.87a8.51,8.51,0,0,0,1.46,1c.51.36.85.24.88-.38.07-1.19.51-2.36.24-3.57l.09-.95c.68-.65,1.66-1,2.1-1.87a.26.26,0,0,0,.19-.09Z"/><path class="cls-29" d="M139,253.1c.87-1.29,2.17-.46,3.27-.63,1.36-.22,1.59-.66.78-1.86a6.92,6.92,0,0,0,3.71-2.15c.67-.9,1.65-.37,2.14.94.94,2.52,2.32,4.88,5,5.71,1.11.35,1.42.74,1.54,1.61s-.37.61-.8.33c-.21-.89-1-1.05-1.68-1.34-1.51-.63-3.12-1.14-3.92-2.78l-.47-1.81c0-.6.08-1.3-.58-1.56s-1.16.35-1.44.82c-1.46,2.5-3.68,3.13-6.37,2.77A8.7,8.7,0,0,0,139,253.1Z"/><path class="cls-32" d="M139,253.1a8.7,8.7,0,0,1,1.14.05c2.69.36,4.91-.27,6.37-2.77.28-.47.73-1.1,1.44-.82s.6,1,.58,1.56a2.69,2.69,0,0,0-2,.95,5.39,5.39,0,0,1-4.66,1.68c-1.4-.21-2,.44-2,1.79a2.27,2.27,0,0,1-1.15-2.4A.59.59,0,0,0,139,253.1Z"/><path class="cls-32" d="M149,252.93c.8,1.64,2.41,2.15,3.92,2.78.69.29,1.47.45,1.68,1.34l-.4.71-1.73.61a2.7,2.7,0,0,0-2.23-2.93C148.85,255.14,148.69,254.13,149,252.93Z"/><path class="cls-33" d="M149,252.93c-.32,1.2-.16,2.21,1.24,2.51a2.7,2.7,0,0,1,2.23,2.93.26.26,0,0,1-.19.09c-1.15.11-2.27.26-2.1,1.87l-.09.95c-1.22.48-2.2,1.88-3.69,1.28a7.11,7.11,0,0,0-3.79-.3c-1.44.19-1.88-.44-1.51-1.85a8.09,8.09,0,0,1,.4-1.07,2.54,2.54,0,0,0-1.56-3.6.32.32,0,0,1-.08-.2c0-1.35.63-2,2-1.79a5.39,5.39,0,0,0,4.66-1.68,2.69,2.69,0,0,1,2-.95C148.7,251.73,148.85,252.33,149,252.93Z"/><path class="cls-32" d="M140.35,255.37a2.54,2.54,0,0,1,1.27,3.71,6.43,6.43,0,0,0-.48,1c-.48,1.38-.09,2.05,1.35,2a7.07,7.07,0,0,1,3.76.58c1.44.72,2.53-.59,3.78-1,.17,1.23-.35,2.36-.51,3.54-.09.62-.43.71-.91.31a8.54,8.54,0,0,1-1.38-1.14c-1.67-2.16-3.88-1.78-6.1-1.34-.47.09-1,.38-1.4,0s0-1,.15-1.52a1.6,1.6,0,0,1,.19-.45A5.17,5.17,0,0,0,140.35,255.37Z"/><path class="cls-32" d="M150,260.49c-.2-1.88,1.11-2.06,2.46-2.2C152,259.37,150.81,259.73,150,260.49Z"/><path class="cls-28" d="M209.24,181.79c.31.37.08.65-.15.94a2,2,0,0,0,0,2.77c.35.5,0,.93-.18,1.35s-.51,0-.75,0c-.68-.17-1.36-.36-2-.56s-.88.25-1.2.53c-.49.44-1,.77-1.6.4a1.59,1.59,0,0,1-.76-1.63c.11-1.42.33-1.35-.95-2-.68-.35-.81-.82-.41-1.26a1.14,1.14,0,0,0,.95.92.16.16,0,0,0,.08.08,2.58,2.58,0,0,1,1.06,2.63,1,1,0,0,0,0,.25c.05.25-.08.59.25.72s.45-.14.64-.28c.92-.66,1.84-1.3,3.05-.67a3.6,3.6,0,0,0,.87.23c.3.08.44,0,.34-.33a6,6,0,0,0-.51-1.71l-.12-.46c.21-.42.61-.74.66-1.25a.11.11,0,0,0,.08-.07Z"/><path class="cls-29" d="M201.31,182.25c.18-.76.94-.6,1.42-.87s.63-.58,0-1a3.45,3.45,0,0,0,1.37-1.66c.16-.53.71-.45,1.16.08a4.24,4.24,0,0,0,3.32,1.81c.58,0,.79.1,1,.49s-.07.35-.32.29c-.25-.38-.64-.32-1-.33a3.25,3.25,0,0,1-2.31-.62l-.54-.77c-.1-.29-.19-.63-.54-.63s-.48.36-.53.63a2.86,2.86,0,0,1-2.51,2.4A4.88,4.88,0,0,0,201.31,182.25Z"/><path class="cls-32" d="M201.31,182.25a4.88,4.88,0,0,1,.54-.18,2.86,2.86,0,0,0,2.51-2.4c0-.27.15-.64.53-.63s.44.34.54.63a1.32,1.32,0,0,0-.76.79,2.68,2.68,0,0,1-1.9,1.59c-.69.15-.86.56-.64,1.19a1.14,1.14,0,0,1-.95-.92A.33.33,0,0,0,201.31,182.25Z"/><path class="cls-32" d="M206,180.44a3.25,3.25,0,0,0,2.31.62c.38,0,.77-.05,1,.33l-.06.4-.7.59a1.37,1.37,0,0,0-1.56-1C206.27,181.5,206,181.05,206,180.44Z"/><path class="cls-33" d="M206,180.44c.06.61.3,1.06,1,.95a1.37,1.37,0,0,1,1.56,1,.11.11,0,0,1-.08.07c-.52.26-1,.52-.66,1.25l.12.46c-.48.44-.7,1.26-1.5,1.24a3.45,3.45,0,0,0-1.83.52c-.64.34-1,.11-1-.61a3.62,3.62,0,0,1,0-.57,1.26,1.26,0,0,0-1.35-1.42.16.16,0,0,1-.08-.08c-.22-.63,0-1,.64-1.19a2.68,2.68,0,0,0,1.9-1.59,1.32,1.32,0,0,1,.76-.79Z"/><path class="cls-32" d="M202.33,183.08a1.27,1.27,0,0,1,1.24,1.52,3.64,3.64,0,0,0,0,.56c0,.73.31,1,1,.69a3.6,3.6,0,0,1,1.86-.38c.8.09,1.08-.71,1.6-1.11a6.08,6.08,0,0,1,.38,1.75c.06.3-.08.4-.37.3a3.89,3.89,0,0,1-.85-.3c-1.16-.72-2.13-.16-3.09.43-.21.13-.4.36-.66.23s-.17-.48-.2-.74a1.93,1.93,0,0,1,0-.24A2.56,2.56,0,0,0,202.33,183.08Z"/><path class="cls-32" d="M207.74,183.8c-.42-.84.17-1.16.78-1.45C208.46,182.94,208,183.31,207.74,183.8Z"/><path class="cls-34" d="M235.32,244.58c.74-.11,1.48-.2,2.22-.33a3.09,3.09,0,0,0,2.51-2.08c.65-1.75,2.2-2,3.42-.56a5.12,5.12,0,0,1,.69,1.31,3.88,3.88,0,0,0,2.61,2.48,7.75,7.75,0,0,1,3,1.32,1.8,1.8,0,0,1,.73,1.69c-.06.78-.71.54-1.13.69a3.17,3.17,0,0,0-1.82,4.39c.91,1.8.36,2.55-1.78,2.42l0-.07a2.11,2.11,0,0,0,.26-1.74c-.77-2.7.56-4.5,2.48-6,1.05-.85.82-1.31-.37-1.55-2.21-.44-4.33-1-5.15-3.47h0a1.5,1.5,0,0,0-1-1.66c-.7-.16-.9.65-1.16,1.17-.84,1.63-1.69,3.28-3.91,3.09-.67,0-1.27.18-1.91.19C234.61,245.28,235,244.93,235.32,244.58Z"/><path class="cls-25" d="M234.22,246.75l.81-.93c.64,0,1.24-.24,1.91-.19,2.22.19,3.07-1.46,3.91-3.09.26-.52.46-1.33,1.16-1.17a1.5,1.5,0,0,1,1,1.66c-.78-.3-1.29-.17-1.6.73a4.15,4.15,0,0,1-3.92,2.75c-.48,0-1.06-.2-1.26.45s.24,1,.68,1.38c1.22,1.06,2,2.27,1.22,3.95a.89.89,0,0,0,.32,1.19c.44.3.77,0,1-.29,1.23-1.17,2.37-1.45,3.39.24a1.75,1.75,0,0,0,.47.37c.47.36,1,.89,1.58.37s.35-1.1.16-1.67c-.57-1.69-.31-2.52,1.13-3.56.44-.31,1-.53.93-1.22s-.62-.87-1.17-1.05-.85-.28-1.27-.44A2.66,2.66,0,0,1,243,243c.82,2.49,2.94,3,5.15,3.47,1.19.24,1.42.7.37,1.55-1.92,1.55-3.25,3.35-2.48,6a2.11,2.11,0,0,1-.26,1.74,2.7,2.7,0,0,1-.55-.24,6.25,6.25,0,0,0-7.58-.6c-.3.18-.59.45-.94.15s-.25-.72-.14-1.11c.14-.58.29-1.16.44-1.74C237.67,249.65,235.63,248.35,234.22,246.75Z"/><path class="cls-26" d="M243,243a2.66,2.66,0,0,0,1.71,3.2c.42.16.84.31,1.27.44s1.06.43,1.17,1.05-.49.91-.93,1.22c-1.44,1-1.7,1.87-1.13,3.56.19.57.36,1.23-.16,1.67s-1.11,0-1.58-.37a1.75,1.75,0,0,1-.47-.37c-1-1.69-2.16-1.41-3.39-.24-.28.28-.61.59-1,.29a.89.89,0,0,1-.32-1.19c.76-1.68,0-2.89-1.22-3.95-.44-.38-.86-.77-.68-1.38s.78-.41,1.26-.45a4.15,4.15,0,0,0,3.92-2.75c.31-.9.82-1,1.6-.73Z"/><path class="cls-34" d="M190.82,84c.41-.06.82-.11,1.22-.18a1.7,1.7,0,0,0,1.38-1.14,1,1,0,0,1,1.88-.31,2.91,2.91,0,0,1,.38.72,2.12,2.12,0,0,0,1.43,1.36,4.29,4.29,0,0,1,1.65.73,1,1,0,0,1,.4.92c0,.44-.39.3-.62.38a1.74,1.74,0,0,0-1,2.41c.5,1,.2,1.4-1,1.33v0a1.19,1.19,0,0,0,.14-1c-.42-1.48.31-2.47,1.36-3.32.58-.47.45-.72-.2-.85-1.21-.25-2.38-.54-2.83-1.91h0c0-.41-.14-.82-.52-.91s-.49.36-.64.64c-.46.9-.93,1.8-2.15,1.7-.37,0-.7.1-1.05.1C190.43,84.34,190.63,84.15,190.82,84Z"/><path class="cls-25" d="M190.22,85.14l.44-.51c.35,0,.68-.13,1.05-.1,1.22.1,1.69-.8,2.15-1.7.15-.28.25-.73.64-.64s.53.5.52.91c-.43-.17-.71-.09-.88.4A2.28,2.28,0,0,1,192,85c-.27,0-.59-.11-.69.25s.13.55.37.76a1.72,1.72,0,0,1,.67,2.17.48.48,0,0,0,.18.65c.24.16.42,0,.57-.16.68-.64,1.3-.79,1.86.14a1.37,1.37,0,0,0,.26.2c.26.19.54.49.87.2s.19-.6.09-.92a1.41,1.41,0,0,1,.62-2c.24-.18.57-.3.51-.67s-.34-.48-.64-.58-.47-.15-.7-.24A1.46,1.46,0,0,1,195,83.1c.45,1.37,1.62,1.66,2.83,1.91.65.13.78.38.2.85-1.05.85-1.78,1.84-1.36,3.32a1.19,1.19,0,0,1-.14,1,2.08,2.08,0,0,1-.3-.13,3.42,3.42,0,0,0-4.17-.33c-.17.1-.33.24-.52.08s-.13-.4-.08-.61.16-.64.25-1C192.11,86.74,191,86,190.22,85.14Z"/><path class="cls-26" d="M194.81,83.81a1.11,1.11,0,0,0,.71,1.34l.54.19c.23.07.44.18.49.44s-.21.38-.39.51a1.09,1.09,0,0,0-.48,1.49c.08.24.16.52-.06.71s-.47,0-.67-.16-.15-.09-.19-.15c-.43-.71-.91-.6-1.42-.11-.12.12-.26.25-.44.13a.37.37,0,0,1-.14-.5,1.32,1.32,0,0,0-.51-1.66c-.19-.16-.36-.32-.29-.58s.33-.17.53-.19a1.75,1.75,0,0,0,1.65-1.16c.13-.37.34-.43.67-.3Z"/></g></g></g></svg>