<svg xmlns="http://www.w3.org/2000/svg" viewBox="0 0 327.47 376.66"><defs><style>.cls-1{fill:#d8c8ab;}.cls-2{fill:#70251d;opacity:0.37;}.cls-3{fill:#f4e9d9;}.cls-4{fill:#e5dacc;opacity:0.46;}.cls-5{fill:#752a1b;}.cls-6{fill:#f2e748;}.cls-7{fill:#1ec0a2;}.cls-8{fill:#f5eb6e;}.cls-9{fill:#eead81;}.cls-10{fill:#ed9091;}.cls-11{fill:#acdad2;}.cls-12{fill:#ec89b1;}.cls-13{fill:#eea776;}.cls-14{fill:#eb938a;}.cls-15{fill:#ea8a86;}.cls-16{fill:#0ead91;}.cls-17{fill:#f5d9e1;}.cls-18{fill:#f3e419;}.cls-19{fill:#fbf7e6;}.cls-20{fill:#fdf9c7;}</style></defs><title>cookie-6</title><g id="Layer_2" data-name="Layer 2"><g id="Snowflake"><g id="Base"><g id="Left"><path class="cls-1" d="M162.35,371.45c-1.09-.71-4.28-3.53-8.72-14-7.44-17.5-11.3-22.24-14.82-24l-.52-.25-.57-.13a45.8,45.8,0,0,1-9.86-3.78l-1-.5c-2.66-2.36-3.41-4.13-2-11,.47-2.33,1.49-6.24,2.66-10.76,3.83-14.77,6.51-25.63,6-30.85-.08-.78-.12-1.66-.16-2.6-.18-3.87-.41-8.69-3.33-12.94l-2-2.9-3.4.91a5.45,5.45,0,0,1-1.38.21,1.39,1.39,0,0,1-1.11-.39l-.21-.2-.22-.17a17.86,17.86,0,0,0-11.08-3.83c-4.17,0-8.65,1.41-13.68,4.29C88,263.7,78.77,272.34,71.33,279.29c-4.24,4-8.26,7.71-10.72,9.35a24.46,24.46,0,0,1-4.78,1.81c-2.23-4-7-10.91-13.92-11.72a58.85,58.85,0,0,0-11.08-1.12A37.43,37.43,0,0,0,20.55,279c-1.11,0-2.33.12-3.6.19-2.24.14-4.55.28-6.73.28A20.73,20.73,0,0,1,5,279c.08-1.33,1-5.51,7.75-14.53,11.44-15.19,13.61-20.9,13.35-24.81l0-.59-.17-.55a45.64,45.64,0,0,1-1.66-10.43c0-.42-.06-.81-.09-1.15.71-3.48,1.87-5,8.52-7.23,2.26-.76,6.15-1.83,10.66-3.08,14.7-4.07,25.44-7.18,29.72-10.22.64-.46,1.38-.94,2.16-1.44,3.27-2.09,7.33-4.7,9.55-9.35l1.51-3.19-2.49-2.49c-1.32-1.32-1.16-1.95-1.09-2.25l.07-.28,0-.28c1.1-8.62-3.08-15.55-12.79-21.2-8.84-5.15-21-8.85-30.69-11.82-5.55-1.7-10.81-3.3-13.46-4.61a24.27,24.27,0,0,1-4-3.24c2.1-3.55,6-11.46,3.19-17.91-2.74-7.89-6.41-14.06-10.9-18.37-.59-.94-1.26-2-2-3C10.6,104.49,7,99,6.39,96.54c.78-.41,2.88-1.15,7.7-1.16a69.43,69.43,0,0,1,8.77.6A148.06,148.06,0,0,0,40.17,97.3c5.29,0,8.64-.68,10.86-2.17l.48-.33.4-.43a46.16,46.16,0,0,1,8.2-6.65l.94-.64A9.8,9.8,0,0,1,64,86.53c1.65,0,3.57.73,7.61,4.31,1.78,1.58,4.66,4.41,8,7.69,10.87,10.7,18.94,18.44,23.71,20.62.72.33,1.5.73,2.33,1.16,3.14,1.63,7,3.65,11.67,3.64.4,0,.8,0,1.2,0l3.52-.28.91-3.41c.48-1.8,1.11-2,1.41-2.06l.27-.08.26-.11c8-3.35,11.94-10.44,12-21.67,0-10.23-2.81-22.58-5.11-32.49-1.31-5.66-2.54-11-2.74-14a24.4,24.4,0,0,1,.83-5.06h.44c5.53,0,12.88-1.1,16.66-6.19,5.46-6.32,9-12.58,10.47-18.62.52-1,1.06-2.07,1.63-3.22,1.22-2.43,3.81-7.61,5.65-9.77-.11-1.95-.23-3.83-.34-5.65-4.35.78-8.73,11.46-11.66,16.86C151.35,24.14,147.79,30,143,35.48c-3.25,4.59-12.5,4.36-14.25,4.27s-4,.54-4.78,10c.37,8.46,7.92,30.57,7.86,46.5,0,8.66-2.49,14.4-8.9,17.07-2.52.74-4.07,2.71-4.84,5.57-4.76.39-9-2.6-12.72-4.31-6.21-2.83-24.22-22-30.46-27.5S65,80.35,58.75,82.58C57,83.86,52.21,86.69,48.24,91c-3.16,2.12-14,1.35-24.77,0S4,90.29,1.73,94.2s5.23,13.54,8.56,19c4.5,4.1,7.76,10.1,10.14,17,2.36,5.1-2.47,13-3.42,14.47s-1.55,3.77,6.29,9.15c7.51,3.91,30.43,8.43,44.2,16.44,7.48,4.35,11.22,9.36,10.34,16.24-.63,2.56.3,4.88,2.4,7-2,4.32-6.74,6.47-10.09,8.86-5.56,4-31.14,10-39.06,12.63s-10.81,5.24-12,11.74c.24,2.12.28,7.71,2,13.29.25,3.8-5.83,12.8-12.35,21.47S-1.61,278,.66,281.89,15,284.12,21.37,284c5.8-1.84,12.63-1.67,19.8-.28,5.6.52,10,8.65,10.82,10.21s2.49,3.22,11.07-.88C70.2,288.46,85.58,270.87,99.4,263c7.51-4.3,13.72-5,19.24-.83,1.89,1.83,4.37,2.18,7.24,1.41,2.71,3.93,2.24,9.08,2.63,13.17.65,6.8-6.92,32-8.59,40.14s-.87,12,4.17,16.25c2,.85,6.82,3.61,12.52,4.9,3.42,1.68,8.17,11.45,12.42,21.44s9.12,17.25,13.63,17.23c1.28,0,2.57-.91,3.82-2.34.19-3.25.38-6.7.55-10.31C165.58,366.8,163.68,370.2,162.35,371.45Z"/><path class="cls-2" d="M160.86,373.76c-2.08-1.34-5.46-5.07-9.76-15.21C143.56,340.79,140,337.17,137.6,336l-.23-.11-.26-.06a48.59,48.59,0,0,1-10.46-4l-1.36-.65-.29-.26c-3.72-3.3-4.36-6.35-2.88-13.61.5-2.41,1.52-6.35,2.7-10.9,3.64-14,6.38-25.13,5.93-29.9-.08-.81-.12-1.72-.17-2.68-.17-3.76-.37-8-2.85-11.56l-.9-1.3-1.53.41a8.15,8.15,0,0,1-2.08.3,4.13,4.13,0,0,1-3-1.16l-.09-.09-.11-.08a15.16,15.16,0,0,0-9.36-3.26c-3.72,0-7.75,1.29-12.35,3.93-8.6,4.92-17.73,13.44-25.06,20.29-4.34,4-8.44,7.87-11.08,9.64L62,291l-.19.09a27.5,27.5,0,0,1-5.34,2l-2,.46-1-1.8c-1.6-2.88-6-9.64-11.83-10.32l-.1,0h-.1a55.74,55.74,0,0,0-10.47-1.08,34.39,34.39,0,0,0-9.6,1.26l-.33.1h-.34c-1.06,0-2.23.11-3.45.18-2.23.14-4.67.29-7,.29h-.1a23.74,23.74,0,0,1-5.84-.55l-2.14-.6.13-2.21c.14-2.47,1.69-7.26,8.29-16,11.61-15.41,13-20.26,12.8-23v-.26l-.08-.25a48.81,48.81,0,0,1-1.78-11.05l-.11-1.51.08-.38c1-4.87,3.31-6.95,10.34-9.29,2.33-.78,6.26-1.86,10.8-3.12,14-3.86,24.95-7,28.85-9.81.7-.5,1.5-1,2.28-1.51,3.13-2,6.67-4.28,8.54-8.22L83,193l-1.12-1.12c-1.64-1.64-2.22-3.18-1.81-4.85l0-.13,0-.13c1-7.49-2.67-13.36-11.44-18.47-8.56-5-20.5-8.63-30.09-11.55-5.7-1.75-11-3.38-13.89-4.78l-.19-.09-.17-.12a27.53,27.53,0,0,1-4.41-3.63l-1.4-1.51,1.05-1.76c1.69-2.84,5.35-10,3-15.42l0-.09,0-.1c-2.59-7.47-6-13.28-10.2-17.29l-.24-.23-.18-.29c-.59-.92-1.25-1.92-1.94-3-2.87-4.34-5.61-8.72-6.21-11.3l-.5-2.1,1.91-1c1.29-.66,3.89-1.45,9-1.46h.1a75.11,75.11,0,0,1,9,.62A146.13,146.13,0,0,0,40,94.55h.13c4.64,0,7.61-.55,9.33-1.71l.21-.14.18-.19a48.59,48.59,0,0,1,8.68-7.07l1.26-.85.38-.13A12.35,12.35,0,0,1,64,83.78c2.74,0,5.39,1.4,9.44,5,1.84,1.63,4.74,4.49,8.1,7.79,10.33,10.16,18.57,18.09,22.93,20.08.74.34,1.56.76,2.43,1.21,3,1.57,6.45,3.34,10.38,3.34.36,0,.69,0,1,0l1.59-.13.41-1.53c.6-2.25,1.65-3.52,3.29-4l.12,0,.12,0c7-2.92,10.25-9,10.28-19.14,0-9.91-2.78-22.08-5-31.86-1.33-5.78-2.59-11.23-2.8-14.4l0-.21,0-.2a27.94,27.94,0,0,1,.94-5.64l.61-2,2.45,0c4.88,0,11.35-.9,14.47-5.08l.06-.08.06-.08c5.17-6,8.5-11.86,9.88-17.48l.08-.32.15-.3c.52-1,1.05-2,1.61-3.16,2-3.91,4.2-8.2,6-10.33L167,0l.4,6.83C172,85.11,174,276.09,169.77,364.14l0,.6-.28.54c-3,5.7-4.41,7.4-5.23,8.17l-1.57,1.48Z"/><path class="cls-3" d="M157.38,20c-1.49,6-5,12.3-10.47,18.62-3.78,5.09-11.13,6.18-16.66,6.19h-.44a24.4,24.4,0,0,0-.83,5.06c.2,2.94,1.43,8.3,2.74,14,2.3,9.91,5.15,22.26,5.11,32.49,0,11.23-4,18.32-12,21.67l-.26.11-.27.08c-.3.08-.93.26-1.41,2.06l-.91,3.41-3.52.28c-.4,0-.8,0-1.2,0-4.62,0-8.53-2-11.67-3.64-.83-.43-1.61-.83-2.33-1.16-4.77-2.18-12.84-9.92-23.71-20.62-3.33-3.28-6.21-6.11-8-7.69-4-3.58-6-4.32-7.61-4.31a9.8,9.8,0,0,0-2.93.55l-.94.64a46.16,46.16,0,0,0-8.2,6.65l-.4.43-.48.33c-2.22,1.49-5.57,2.16-10.86,2.17A148.06,148.06,0,0,1,22.86,96a69.43,69.43,0,0,0-8.77-.6c-4.82,0-6.92.75-7.7,1.16C7,99,10.6,104.49,12.23,107c.7,1.06,1.37,2.08,2,3,4.49,4.31,8.16,10.48,10.9,18.37,2.77,6.45-1.09,14.36-3.19,17.91a24.27,24.27,0,0,0,4,3.24c2.65,1.31,7.91,2.91,13.46,4.61,9.74,3,21.85,6.67,30.69,11.82,9.71,5.65,13.89,12.58,12.79,21.2l0,.28-.07.28c-.07.3-.23.93,1.09,2.25l2.49,2.49-1.51,3.19c-2.22,4.65-6.28,7.26-9.55,9.35-.78.5-1.52,1-2.16,1.44-4.28,3-15,6.15-29.72,10.22-4.51,1.25-8.4,2.32-10.66,3.08-6.65,2.21-7.81,3.75-8.52,7.23,0,.34.06.73.09,1.15a45.64,45.64,0,0,0,1.66,10.43l.17.55,0,.59c.26,3.91-1.91,9.62-13.35,24.81C6,273.49,5.09,277.67,5,279a20.73,20.73,0,0,0,5.21.45c2.18,0,4.49-.14,6.73-.28,1.27-.07,2.49-.15,3.6-.19a37.43,37.43,0,0,1,10.28-1.37,58.85,58.85,0,0,1,11.08,1.12c6.89.81,11.69,7.73,13.92,11.72a24.46,24.46,0,0,0,4.78-1.81c2.46-1.64,6.48-5.39,10.72-9.35,7.44-7,16.71-15.59,25.58-20.68,5-2.88,9.51-4.28,13.68-4.29a17.86,17.86,0,0,1,11.08,3.83l.22.17.21.2a1.39,1.39,0,0,0,1.11.39,5.45,5.45,0,0,0,1.38-.21l3.4-.91,2,2.9c2.92,4.25,3.15,9.07,3.33,12.94,0,.94.08,1.82.16,2.6.5,5.22-2.18,16.08-6,30.85-1.17,4.52-2.19,8.43-2.66,10.76-1.41,6.87-.66,8.64,2,11l1,.5a45.8,45.8,0,0,0,9.86,3.78l.57.13.52.25c3.52,1.73,7.38,6.47,14.82,24,4.44,10.45,7.63,13.27,8.72,14,1.33-1.25,3.23-4.65,4.68-7.44,4.15-87.44,2.24-277.6-2.37-357-1.84,2.16-4.43,7.34-5.65,9.77C158.44,17.9,157.9,19,157.38,20Z"/><path class="cls-4" d="M151.08,42.89c-8.17,12.55-8,69.33-16,77.33s-27.33,10.67-35.33,36.67-18.67,54.66-30,62.66-42,24-38,40,31.33,2.67,37.33,1.34,42.67-20.67,56-11.34,15.33,30.67,14.67,37.34-6.67,13.33-2,25.33,10.66,22.67,15.33,26.67,42.1-105.58,52.67-112.67S178.41.89,151.08,42.89Z"/></g><g id="Right"><path class="cls-1" d="M307,247.76c-2.36-5.1,2.47-13,3.42-14.47s1.55-3.77-6.29-9.15c-7.51-3.91-30.43-8.43-44.2-16.44-7.48-4.35-11.22-9.36-10.34-16.24.63-2.56-.3-4.88-2.4-7,2.05-4.32,6.74-6.48,10.09-8.86,5.56-4,31.13-10,39.05-12.63s10.81-5.24,12-11.74c-.24-2.12-.29-7.71-2-13.29-.26-3.81,5.82-12.81,12.35-21.47s10.38-16.54,8.11-20.43S312.47,93.83,306.1,94c-5.8,1.84-12.63,1.67-19.8.28-5.6-.52-10-8.65-10.83-10.21s-2.48-3.22-11.07.88c-7.13,4.55-22.51,22.14-36.33,30.06-7.51,4.3-13.72,5-19.24.83-1.9-1.83-4.38-2.18-7.24-1.41-2.71-3.93-2.24-9.08-2.63-13.17-.65-6.8,6.91-32,8.59-40.14s.87-12-4.17-16.25c-2-.85-6.83-3.61-12.52-4.9-3.42-1.68-8.18-11.45-12.42-21.44S169.31,1.27,164.8,1.29A31.81,31.81,0,0,0,164.66,7a5.37,5.37,0,0,1,.46-.48c1.09.7,4.28,3.53,8.72,14,7.43,17.5,11.3,22.24,14.81,24l.53.25.57.13a45.8,45.8,0,0,1,9.86,3.78l1,.5c2.65,2.35,3.41,4.13,2,11-.48,2.33-1.49,6.24-2.67,10.77-3.83,14.76-6.5,25.62-6,30.84.08.78.12,1.66.16,2.59.18,3.88.4,8.7,3.33,13l2,2.9,3.41-.91a5.38,5.38,0,0,1,1.37-.21,1.4,1.4,0,0,1,1.12.39l.2.2.23.17a17.86,17.86,0,0,0,11.08,3.83c4.17,0,8.65-1.41,13.67-4.3,8.88-5.08,18.14-13.72,25.59-20.67,4.24-4,8.26-7.71,10.71-9.35a24.7,24.7,0,0,1,4.79-1.81c2.22,4,7,10.91,13.92,11.72a58.77,58.77,0,0,0,11.08,1.12A37.48,37.48,0,0,0,306.92,99c1.11,0,2.32-.12,3.6-.19,2.23-.14,4.55-.28,6.73-.28a20.19,20.19,0,0,1,5.2.45c-.07,1.33-.95,5.51-7.74,14.53-11.44,15.19-13.61,20.9-13.35,24.81l0,.58.17.56a45.8,45.8,0,0,1,1.66,10.44q0,.63.09,1.14c-.71,3.48-1.87,5-8.53,7.23-2.26.76-6.15,1.83-10.66,3.08-14.7,4.07-25.43,7.18-29.71,10.22-.64.46-1.38.94-2.17,1.44-3.26,2.09-7.33,4.7-9.54,9.35l-1.51,3.19,2.49,2.49c1.32,1.32,1.16,2,1.09,2.25l-.07.28,0,.28c-1.1,8.62,3.08,15.55,12.78,21.2,8.85,5.15,21,8.85,30.7,11.82,5.55,1.7,10.81,3.3,13.45,4.61a24,24,0,0,1,4,3.24c-2.11,3.55-6,11.46-3.19,17.91,2.74,7.89,6.4,14.06,10.89,18.37.6.94,1.27,2,2,3,1.63,2.47,5.26,8,5.84,10.42-.79.4-2.88,1.15-7.71,1.16h0a71.35,71.35,0,0,1-8.77-.6,145.59,145.59,0,0,0-17.3-1.32c-5.29,0-8.64.68-10.86,2.17l-.49.33-.39.43a46.51,46.51,0,0,1-8.2,6.65c-.35.23-.67.44-.95.64a9.74,9.74,0,0,1-2.92.55c-1.65,0-3.57-.73-7.61-4.31-1.78-1.58-4.66-4.41-8-7.69C237,268.72,229,261,224.17,258.8c-.71-.33-1.49-.73-2.32-1.16-3.14-1.63-7-3.65-11.67-3.64-.4,0-.8,0-1.2.05l-3.52.28-.91,3.41c-.49,1.8-1.11,2-1.41,2.06l-.27.08-.26.11c-8,3.35-11.94,10.44-12,21.67,0,10.23,2.82,22.58,5.12,32.49,1.3,5.66,2.54,11,2.74,14a24.4,24.4,0,0,1-.83,5.06h-.44c-5.54,0-12.88,1.1-16.67,6.19-5.46,6.32-9,12.58-10.46,18.62-.52,1-1.06,2.07-1.63,3.21-.37.74-.87,1.73-1.43,2.82-.17,3.61-.36,7.06-.55,10.31,3.17-3.62,6.15-10.55,8.33-14.56,1.31-5.95,4.87-11.77,9.66-17.29,3.25-4.59,12.5-4.36,14.25-4.27s4-.54,4.78-10c-.38-8.46-7.92-30.57-7.87-46.5,0-8.66,2.5-14.4,8.9-17.07,2.53-.74,4.08-2.71,4.84-5.58,4.77-.38,9,2.61,12.73,4.31,6.21,2.84,24.21,22,30.46,27.51s9.94,6.74,16.15,4.51c1.72-1.27,6.54-4.1,10.51-8.39,3.17-2.12,14-1.35,24.77,0s19.51.72,21.75-3.19-5.24-13.54-8.57-19C312.68,260.67,309.41,254.67,307,247.76Z"/><path class="cls-2" d="M164.28,363.88C168.46,276,164.66,7,164.66,7S163,4.69,163.23,4.49L164.8,3l1.81,1.18c2.08,1.34,5.46,5.08,9.76,15.21,7.54,17.76,11,21.38,13.5,22.58l.23.11.26.06a48.59,48.59,0,0,1,10.46,4l1.36.65.29.26c3.72,3.29,4.36,6.35,2.88,13.61-.5,2.41-1.52,6.35-2.7,10.91-3.64,14-6.39,25.12-5.93,29.89.08.84.12,1.74.17,2.69.17,3.75.36,7.95,2.84,11.55l.91,1.3,1.53-.41a8.15,8.15,0,0,1,2.08-.3,4.09,4.09,0,0,1,3,1.16l.1.09.1.07a15.16,15.16,0,0,0,9.37,3.27c3.72,0,7.75-1.29,12.35-3.93,8.59-4.92,17.72-13.44,25.05-20.28,4.35-4.06,8.45-7.88,11.08-9.65l.18-.11.18-.09a27.79,27.79,0,0,1,5.35-2l2-.46,1,1.8c2,3.57,6.17,9.66,11.84,10.32l.1,0h.1a55.66,55.66,0,0,0,10.47,1.08,34.87,34.87,0,0,0,9.6-1.26l.32-.1h.34c1.07,0,2.23-.11,3.45-.18,2.24-.14,4.68-.29,7-.29h.11a23.31,23.31,0,0,1,5.84.55l2.14.6-.13,2.21c-.14,2.47-1.69,7.26-8.29,16-11.61,15.41-13,20.26-12.81,23l0,.26.08.26a48.65,48.65,0,0,1,1.78,11c0,.42.11,1.51.11,1.51l-.08.38c-1,4.87-3.31,6.95-10.35,9.29-2.32.78-6.25,1.87-10.8,3.12-14,3.86-24.94,7-28.84,9.81-.68.49-1.43,1-2.23,1.48-3.18,2-6.72,4.31-8.59,8.25l-.69,1.44,1.13,1.12c1.64,1.64,2.22,3.18,1.81,4.84l0,.13,0,.13c-1,7.5,2.67,13.37,11.44,18.48,8.56,5,20.51,8.63,30.11,11.56,5.66,1.73,11,3.36,13.87,4.77l.19.09.17.12a27.53,27.53,0,0,1,4.41,3.63l1.39,1.51-1,1.76c-1.69,2.84-5.36,10-3,15.42l0,.09,0,.09c2.59,7.48,6,13.29,10.2,17.3l.24.23.18.29c.55.87,1.17,1.8,1.81,2.78l.13.19c2.87,4.35,5.6,8.72,6.21,11.3l.5,2.09-1.92,1c-1.28.66-3.88,1.45-8.95,1.46h-.11a75.09,75.09,0,0,1-9-.62,146.27,146.27,0,0,0-16.85-1.3h-.12c-4.64,0-7.61.55-9.33,1.71l-.22.14-.18.2a48,48,0,0,1-8.67,7.05l-1.25.86-.39.13a12.66,12.66,0,0,1-3.76.68c-2.78,0-5.33-1.35-9.45-5-1.84-1.63-4.74-4.49-8.1-7.79-10.32-10.16-18.56-18.09-22.92-20.08-.74-.34-1.56-.76-2.42-1.21-3-1.57-6.46-3.34-10.4-3.34-.35,0-.68,0-1,0l-1.59.13-.41,1.53c-.6,2.24-1.64,3.51-3.28,4l-.14,0-.11,0c-7,2.92-10.25,9-10.29,19.14,0,9.91,2.78,22.08,5,31.86,1.34,5.78,2.6,11.23,2.81,14.4v.41a27.94,27.94,0,0,1-.94,5.64l-.61,1.95h-2.46c-4.88,0-11.35.9-14.46,5.08l-.06.08-.06.08c-5.18,6-8.5,11.86-9.88,17.48l-.08.32-.16.3c-.51,1-1,2-1.6,3.16-.38.75-.88,1.76-1.45,2.86Z"/><path class="cls-5" d="M167,364c.56-1.09,1.06-2.08,1.43-2.82.57-1.14,1.11-2.23,1.63-3.21,1.49-6,5-12.3,10.46-18.62,3.79-5.09,11.13-6.18,16.67-6.19h.44a24.4,24.4,0,0,0,.83-5.06c-.2-2.95-1.44-8.3-2.74-14-2.3-9.91-5.15-22.26-5.12-32.49,0-11.23,4-18.32,12-21.67l.26-.11.27-.08c.3-.08.92-.26,1.41-2.06l.91-3.41,3.52-.28c.4,0,.8-.05,1.2-.05,4.62,0,8.53,2,11.67,3.64.83.43,1.61.83,2.32,1.16C229,261,237,268.72,247.88,279.42c3.34,3.28,6.22,6.11,8,7.69,4,3.58,6,4.32,7.61,4.31a9.74,9.74,0,0,0,2.92-.55c.28-.2.6-.41.95-.64a46.51,46.51,0,0,0,8.2-6.65l.39-.43.49-.33c2.22-1.49,5.57-2.16,10.86-2.17A145.59,145.59,0,0,1,304.6,282a71.35,71.35,0,0,0,8.77.6h0c4.83,0,6.92-.76,7.71-1.16-.58-2.46-4.21-8-5.84-10.42-.7-1.06-1.37-2.08-2-3-4.49-4.31-8.15-10.48-10.89-18.37-2.78-6.45,1.08-14.36,3.19-17.91a24,24,0,0,0-4-3.24c-2.64-1.31-7.9-2.91-13.45-4.61-9.74-3-21.85-6.67-30.7-11.82-9.7-5.65-13.88-12.58-12.78-21.2l0-.28.07-.28c.07-.3.23-.93-1.09-2.25l-2.49-2.49,1.51-3.19c2.21-4.65,6.28-7.26,9.54-9.35.79-.5,1.53-1,2.17-1.44,4.28-3,15-6.15,29.71-10.22,4.51-1.25,8.4-2.32,10.66-3.08,6.66-2.21,7.82-3.75,8.53-7.23q0-.51-.09-1.14a45.8,45.8,0,0,0-1.66-10.44l-.17-.56,0-.58c-.26-3.91,1.91-9.62,13.35-24.81,6.79-9,7.67-13.2,7.74-14.53a20.19,20.19,0,0,0-5.2-.45c-2.18,0-4.5.14-6.73.28-1.28.07-2.49.15-3.6.19a37.48,37.48,0,0,1-10.28,1.37,58.77,58.77,0,0,1-11.08-1.12c-6.9-.81-11.7-7.73-13.92-11.72a24.7,24.7,0,0,0-4.79,1.81c-2.45,1.64-6.47,5.39-10.71,9.35-7.45,7-16.71,15.59-25.59,20.67-5,2.89-9.5,4.29-13.67,4.3a17.86,17.86,0,0,1-11.08-3.83l-.23-.17-.2-.2a1.4,1.4,0,0,0-1.12-.39,5.38,5.38,0,0,0-1.37.21l-3.41.91-2-2.9c-2.93-4.25-3.15-9.07-3.33-13,0-.93-.08-1.81-.16-2.59-.5-5.22,2.17-16.08,6-30.84,1.18-4.53,2.19-8.44,2.67-10.77,1.41-6.87.65-8.65-2-11l-1-.5a45.8,45.8,0,0,0-9.86-3.78l-.57-.13-.53-.25c-3.51-1.73-7.38-6.47-14.81-24C169.4,10,166.21,7.2,165.12,6.5a5.37,5.37,0,0,0-.46.48c-6.79,59.21-14.58,105.57-22.58,145.57C142.08,249.55,151.08,312.55,167,364Z"/></g></g><g id="Sprinkles"><path class="cls-6" d="M189.88,162.15c1.19,2.66-1.15,4.44-2,6.56-.41,1.06-1.91,2.07-2.76.94-2-2.66,1.28-4.3,1.81-6.53C187.28,161.8,188.36,161.42,189.88,162.15Z"/><path class="cls-6" d="M251,141c2.65,1,5.47,1.34,6,4.24.22,1.17-1.48,1.25-2.34,1-2.21-.75-5.06-.82-5.9-3.49C248.53,141.92,250.06,141,251,141Z"/><path class="cls-6" d="M263.65,106.81c2.09.42,4.64,1,5.43,3.74.29,1-1.34,1.5-2.25,1.27-2.34-.61-4.63-1.64-5.9-3.78C260.62,107.52,262.16,106.71,263.65,106.81Z"/><path class="cls-6" d="M262.73,276.36c1.57,2,3.21,3.91,3.11,6.53a1.09,1.09,0,0,1-1.85.64c-1.41-2-4.4-3.28-3.71-6.39C260.5,276.15,261.73,276,262.73,276.36Z"/><path class="cls-6" d="M186.74,320.23c-1.24.27-2.32.34-2.35-.73-.1-3,2.77-2.55,4.4-3.52,1-.57,1.65.12,1.7,1.07C190.66,320,187.39,318.77,186.74,320.23Z"/><path class="cls-7" d="M172.36,300.07c-.26-1.06.22-1.66,1-1.52,2,.36,4.22-.66,5.79,1.09.55.62-.28,1.4-1,1.36C176.17,300.9,174,301.64,172.36,300.07Z"/><path class="cls-8" d="M227.78,229.7c-.57,1.62.94,4.46-2.22,4.58-2.17.09-1.71-2-1.73-3.4,0-2,.12-4.54,2.51-4.73C228.5,226,227.43,228.37,227.78,229.7Z"/><path class="cls-6" d="M179,242.93c-.88,1.71.72,4.55-2.26,4.91-1.93.23-1.69-1.69-1.6-2.92.15-1.94.05-4.51,2.35-4.92C179.42,239.65,178.54,241.9,179,242.93Z"/><path class="cls-6" d="M242.21,247.07c-1.23,0-2.22-.71-1.9-1.74.69-2.22,2.91-2.92,4.79-3.84.89-.43,1.82,0,1.72,1C246.55,245.23,244.28,246.09,242.21,247.07Z"/><path class="cls-7" d="M293.26,265.71c.31,1.16,1.52,2.86-.07,2.93-2.24.08-3.13-2.43-4.29-4.11-.52-.76-1.18-2.22,0-2.44C291.62,261.61,291.91,264.49,293.26,265.71Z"/><path class="cls-9" d="M250.17,270.88a1.4,1.4,0,0,1-2.24-.08c-1.51-1.89-3.3-3.84-2.86-6.45.18-1,1.69-1,2.34,0C248.66,266.4,250.58,268.2,250.17,270.88Z"/><path class="cls-7" d="M161.26,156.71c1.79-.38,3.09-3.26,5.07-1.89,1.64,1.14-.38,2.11-1.3,2.86-1.46,1.21-3,3.23-5,1.79C158.71,158.51,160.72,157.69,161.26,156.71Z"/><path class="cls-7" d="M166.09,268c-2.16-3.74-3.36-6.41-1.14-10.33C166.59,261.13,167.39,263.85,166.09,268Z"/><path class="cls-7" d="M173.5,206.29c-1.11.14-1.78-.33-1.64-1,.6-2.76,3.22-3.48,5.22-4.75.72-.45,2,.24,1.59,1.08C177.55,203.89,175.25,205,173.5,206.29Z"/><path class="cls-7" d="M150.08,211.55c-1.11.15-1.78-.32-1.63-1,.59-2.76,3.21-3.49,5.21-4.75.72-.45,2,.24,1.59,1.08C154.13,209.16,151.84,210.29,150.08,211.55Z"/><path class="cls-9" d="M169.89,147.26c-2.14.6-3.93,3.18-6.55,2.05-1.07-.46-.25-1.89.66-2.26,2.12-.86,3.84-3.49,6.53-1.88C171.31,145.64,170.72,146.63,169.89,147.26Z"/><path class="cls-7" d="M165.78,242.86c-1.31,1.94-3.48,2.66-5.58,3.41-.75.27-1.95,0-1.68-1,.7-2.69,3.51-2.46,5.42-3.48C164.82,241.29,165.46,241.79,165.78,242.86Z"/><path class="cls-7" d="M161.66,254.14c-1.31,1.94-3.48,2.66-5.58,3.41-.75.27-2,0-1.68-1,.7-2.69,3.51-2.46,5.42-3.48C160.7,252.57,161.34,253.07,161.66,254.14Z"/><path class="cls-7" d="M173.6,134a9.49,9.49,0,0,1,.13-1.75c1.59-2.51,4.27-2.75,6.83-3.16.17,0,.77.89.66,1.07C179.59,133,176.67,132.75,173.6,134Z"/><path class="cls-7" d="M209.76,147.52a13,13,0,0,1-7-.71,1,1,0,0,1,.06-1.88c2.4-.77,4.79-.11,7,.8C210.39,146,210.45,146.8,209.76,147.52Z"/><path class="cls-10" d="M168.49,78.11c-.07,1.34.14,3.28-1.24,2.94-2.76-.66-1.39-3.64-2.17-5.5-.47-1.12.12-2.9,1.39-2.38C168.52,74,167.92,76.54,168.49,78.11Z"/><path class="cls-7" d="M273.94,128.46c-.65-.67-.83-.77-.86-.91-.69-2.92,1.26-4.89,2.66-7,.09-.14,1.22.08,1.26.27C277.67,123.89,275.71,125.89,273.94,128.46Z"/><path class="cls-7" d="M180,107.43q1.32,2.05,2.65,4.1l0,0c0,1,1.14,2.38-.26,3s-2-.72-2.44-1.72c-.81-1.94-3.1-3.6-1.37-6.11Z"/><path class="cls-10" d="M253.66,124c-1.51-1.35-4.62-1.14-5.37-4-.22-.85,1-1.32,1.82-.89,1.95,1.08,4.65,1.17,5.54,3.67C255.94,123.66,255,124.23,253.66,124Z"/><path class="cls-7" d="M214.85,228.85c-.42,1.68-1.95,1.77-3,2.4-1.24.73-2.43,1.84-4,1.21-.28-.11-.6-1-.47-1.16a9.94,9.94,0,0,1,6.72-3.4C214.3,227.87,214.61,228.55,214.85,228.85Z"/><path class="cls-7" d="M209.71,171.61c1.16.78,1.73,1.89,1,2.21-2.36,1.06-4.26-.81-6.32-1.54-.74-.27-1.49-1.38-.59-1.95C206.32,168.75,208,171.54,209.71,171.61Z"/><path class="cls-11" d="M181.77,145.32c-2.21,1.13-4.06-.08-5.86-1.19-.78-.48-2-1.59-1-2.27,2.32-1.51,4.16,1,6.34,1.42C182.27,143.45,182.34,144.36,181.77,145.32Z"/><path class="cls-12" d="M177.08,54.55c-1,1.21-2.34,2.41-2.93,1.31-1.25-2.37,1.7-3.51,2.42-5.4.36-.94,1.54-2,2.17-1.06C180.3,51.73,177.4,53,177.08,54.55Z"/><path class="cls-13" d="M192.08,110.53c-1.33,1.3-3.1.13-4.54.78-1.09-1.08-2.93-1.16-3.65-2.73,1.25-2,3.16-.51,4.71-.88l1.43.63,1.82.29C191.92,109.25,192,109.89,192.08,110.53Z"/><path class="cls-11" d="M260.92,164.18c-3.16-2.38-3.94-4.88-3.5-7.77a.89.89,0,0,1,1.52-.48C260.78,158.13,261.36,160.7,260.92,164.18Z"/><path class="cls-9" d="M223.55,242.46c-.8,2-.84,4.64-3.22,5.75-1,.45-1.32-.73-1.28-1.57a7,7,0,0,1,3.24-5.76C223,240.39,223.68,241.35,223.55,242.46Z"/><path class="cls-14" d="M269.48,132.59a1.39,1.39,0,0,1-1.82-.82c-1.12-1.93-2.83-3.7-2.23-6.18a.93.93,0,0,1,1.61-.18C268.29,127.65,270.77,129.58,269.48,132.59Z"/><path class="cls-14" d="M171.53,41.73a1.4,1.4,0,0,1-1.83-.82c-1.12-1.93-2.83-3.7-2.23-6.18a.93.93,0,0,1,1.61-.18C170.33,36.79,172.82,38.72,171.53,41.73Z"/><path class="cls-12" d="M197.76,165.15c.47,1.71,3.08,3,1.93,5.06-.69,1.25-2.15.16-2.69-.88-.88-1.7-3-3.29-2-5.25C195.72,162.68,196.84,164.37,197.76,165.15Z"/><path class="cls-13" d="M201.85,179.82c-1.31.2-2.64.52-3.55-.89a1.33,1.33,0,0,0,.39-.69c1-.58,1.91-1.23,2.91-1.74,1.61-.81,3.87-1.74,4.66.21.67,1.65-1.56,2.44-3.18,2.84Z"/><path class="cls-10" d="M244.28,235.52a7.59,7.59,0,0,1-.16-1.94c.32-1.8-1.73-3.81.4-5.39a.93.93,0,0,1,1.4.79c-.3,2.51,3.46,5.45-.76,7.52Z"/><path class="cls-10" d="M221,215.79c1.23.47,1.46.49,1.51.59,1.14,2.38,2.18,4.79,1,7.46a1.44,1.44,0,0,1-1.24.23C220.33,221.65,221.14,218.94,221,215.79Z"/><path class="cls-9" d="M215.49,207.38c-1.27,0-2.76,0-2.51-1.14.61-2.89,3.51-1.44,5.27-2.27.9-.42,2.46-.2,2.2.94C219.83,207.64,216.93,206.44,215.49,207.38Z"/><path class="cls-9" d="M232.59,166.9c-.61,4.12-2,6.31-4.65,7.6-.17.09-1-.51-1-.76C227.17,170.66,229.32,169.1,232.59,166.9Z"/><path class="cls-9" d="M287.74,235.73c1.05.07,1.28,0,1.35.09,1.91,2.16,2,4.7,1.41,7.33-.05.24-1,.59-1.14.45C286.79,241.4,288.06,238.57,287.74,235.73Z"/><path class="cls-10" d="M176.37,157.69c-.75,1.11-1.58,1.2-1.93.69-1.37-2-2.8-4.06-2.54-6.61a1,1,0,0,1,1.89-.4A17.84,17.84,0,0,1,176.37,157.69Z"/><path class="cls-10" d="M151.66,164.87c-.75,1.11-1.57,1.2-1.93.69-1.37-2-2.79-4.06-2.53-6.61a1,1,0,0,1,1.88-.4A17.65,17.65,0,0,1,151.66,164.87Z"/><path class="cls-15" d="M189.71,155.17c-.45-1.79-3.73-2.54-2.39-5.09.51-1,2-.17,2.36.7.74,1.9,3.76,2.91,2.74,5.25C191.8,157.47,190.56,156.15,189.71,155.17Z"/><path class="cls-13" d="M258.31,131.06c-.77,2.12-1,4.64-3.24,5.79-.86.44-1.43-.74-1.19-1.56.63-2.14,1-4.59,3.2-5.74C257.86,129.15,258.47,130.06,258.31,131.06Z"/><path class="cls-9" d="M172.07,319.22c-.9.32-1.85.25-1.77-.58.24-2.38,2.66-2.55,4.18-3.62.59-.42,1.73-.29,1.6.53C175.73,317.8,173.38,318.1,172.07,319.22Z"/><path class="cls-9" d="M269.12,251.73a12.24,12.24,0,0,1-3.24-6.23c-.14-.77.76-1.37,1.25-1a8.8,8.8,0,0,1,3.59,6.12C270.8,251.39,270.1,251.69,269.12,251.73Z"/><path class="cls-15" d="M200.15,156c1.65-.36,2.47-3.6,4.7-1.86,1.17.9-.34,2.23-1.28,2.53-1.7.53-2.53,3.75-4.75,2C197.66,157.77,199.19,156.79,200.15,156Z"/><path class="cls-11" d="M204,192.44c-.43-2.2-1.23-4.46.22-6.57.51-.73,1.64-.92,1.87.17.44,2.19,1,4.51-.43,6.58C205.17,193.3,204.52,193,204,192.44Z"/><path class="cls-7" d="M246.13,131.93c-1.55,1.73-3.25,3.48-5.72,4.07-.81.19-1.18-.81-.91-1.29a8.56,8.56,0,0,1,5.58-4.16C245.77,130.38,246.23,131,246.13,131.93Z"/><path class="cls-12" d="M225.31,197.46a1.39,1.39,0,0,1,.8,1.87c-.86,1.91-.79,4.33-2.69,5.67-.64.44-1.49-.44-1.34-1C222.75,201.64,222.53,198.71,225.31,197.46Z"/><path class="cls-12" d="M236.27,195.69c1,.54,1.07,1.29.81,1.86-.86,1.92-.79,4.33-2.7,5.67-.63.44-1.48-.44-1.33-1C233.71,199.87,233.5,196.94,236.27,195.69Z"/><path class="cls-6" d="M193.35,188.15l-3.54,3.12-1.64-1.07-.09-1.65,5.09-4.48,1.51,1C194.24,186.08,193.79,187.11,193.35,188.15Z"/><path class="cls-6" d="M152.75,192.65l-3.54,3.13-1.64-1.08-.09-1.64,5.09-4.48,1.51,1C153.64,190.59,153.2,191.62,152.75,192.65Z"/><path class="cls-9" d="M273.49,269.44c1.06-.61,2.44-.87,2.42.4,0,2.46-2.77,2.87-4.21,4.31-.71.72-2.23.84-2.27-.43C269.32,271.08,272.43,271.07,273.49,269.44Z"/><path class="cls-15" d="M178.66,336.88c-.64-.15-1.2-.12-1.37-.36-1.14-1.65-3.11-2.83-3-5.17,0-.15.87-.49,1-.37C177.05,332.48,178.77,334,178.66,336.88Z"/><path class="cls-14" d="M194,221.9c.8.49,1,.55,1.05.65.74,2.62.71,5.16-1,7.44-.15.22-1.17.18-1.23,0C191.71,227.17,193,224.71,194,221.9Z"/><path class="cls-15" d="M247.94,247.13c.57.42,1,.58,1,.79.29,2.46.53,5-1.25,7a1.47,1.47,0,0,1-1.21-.12A8.65,8.65,0,0,1,247.94,247.13Z"/><path class="cls-15" d="M255.24,276.17c-.51-.62-.68-.73-.69-.85a8.09,8.09,0,0,1,2.38-7c.15-.15,1.17.27,1.16.36C257.8,271.35,257.78,274.12,255.24,276.17Z"/><path class="cls-13" d="M230.31,144.37c.34.7.77,1.15.72,1.54-.31,2.27-.43,4.64-2.23,6.36-.15.14-1.18-.24-1.19-.41C227.47,149.09,227.74,146.43,230.31,144.37Z"/><path class="cls-11" d="M286.17,256.49c.38.89.94,2-.09,2.21-2.94.57-3.2-2.68-4.94-3.92a1.09,1.09,0,0,1,.47-1.91C284.23,252.65,284.45,255.65,286.17,256.49Z"/><path class="cls-11" d="M174.44,323.92c.64-.21.8-.32.91-.28,2.49.84,2.93,3.14,3.64,5.23,0,.11-.77.72-.87.65C176.11,328.14,175.22,326.11,174.44,323.92Z"/><path class="cls-12" d="M222,175.32c.77.72,1.12.9,1.2,1.16.68,2.13,2.24,4.14,1.28,6.54a.92.92,0,0,1-1.62.07C221.84,180.78,220.54,178.44,222,175.32Z"/><path class="cls-15" d="M166,121.46c.65.72.85.84.85.94-.15,2.75-1.66,4.78-3.6,6.53-.13.12-1.12-.34-1.11-.48C162.34,125.58,163.81,123.44,166,121.46Z"/><path class="cls-11" d="M179.13,101.64c-1.2.06-2.84,1.78-3.48.16-.8-2,1.54-2.17,2.79-2.46,1.6-.37,4.34-4,4.57,1.18Z"/><path class="cls-10" d="M234.63,244.67c-.92-.84-1.39-1.09-1.58-1.47-1-2-2.75-3.66-2.24-6.14,0-.17,1.08-.4,1.22-.24C233.78,238.89,235.67,241,234.63,244.67Z"/><path class="cls-12" d="M280.28,139.51c1.51-.3,1.83.39,2,1,.74,1.93,2.59,3.48,2,5.82,0,.2-1.09.43-1.24.26C281.3,144.5,279.94,142.28,280.28,139.51Z"/><path class="cls-11" d="M216.32,219.13c-.77-.13-1-.1-1.07-.19-1.53-2-2.49-4.18-1.95-6.75,0-.23,1.07-.55,1.21-.41A7.57,7.57,0,0,1,216.32,219.13Z"/><path class="cls-11" d="M271.89,155.9c-.77-.13-1-.1-1.06-.19-1.54-2-2.5-4.18-2-6.75.05-.23,1.08-.55,1.21-.41A7.57,7.57,0,0,1,271.89,155.9Z"/><path class="cls-15" d="M182.45,262.08c4.16.41,6.59,1.3,8.05,3.93.09.16-.55,1-.74,1C187.06,266.48,184.83,265.19,182.45,262.08Z"/><path class="cls-9" d="M294.45,143.11c-.79,1.94-.59,4.56-3.12,5.63-.19.08-1.25-1-1.15-1.24.73-2.1.64-4.72,2.9-5.95C293.94,141.09,294.48,142,294.45,143.11Z"/><path class="cls-10" d="M185.36,330.76c-1.56-.15-1.71-1-1.53-1.56.53-1.74.2-4,2.31-4.9.75-.31,1.18.56.93,1.34C186.52,327.41,185.9,329.16,185.36,330.76Z"/><path class="cls-10" d="M286.44,120.78c1.81,1.17,4.65,1.18,5.64,3.77.25.64-.84,1-1.43.81-2.23-.74-4.85-1-5.77-3.69C284.64,121,285.53,120.71,286.44,120.78Z"/><path class="cls-12" d="M245.48,159.51c.44-.71.49-.93.6-1,3-.81,4.86,1.15,6.87,2.73.15.12-.14,1.21-.29,1.23C249.59,162.86,247.84,160.66,245.48,159.51Z"/><path class="cls-12" d="M270.73,261.75a8.38,8.38,0,0,1,.63-1.5c2.38-1.69,4.89-1.24,7.38-.35a1.68,1.68,0,0,1,.11,1.28C276.37,262.53,273.85,261.5,270.73,261.75Z"/><path class="cls-10" d="M190.33,175.65c.33-1.17-1.27-3.28,1.22-3.32,1.56,0,2.53,1.18,2,3a2.92,2.92,0,0,0,1,3l-.24,1.32-2.18-.37C191.54,178.13,190.94,176.89,190.33,175.65Z"/><path class="cls-10" d="M165.86,169.88c.32-1.17-1.28-3.28,1.22-3.33,1.55,0,2.52,1.18,2,3a2.92,2.92,0,0,0,1,3c-.08.44-.16.88-.25,1.32l-2.18-.36Z"/><path class="cls-15" d="M207.36,199c2.45-3.48,5-4,8.81-3.1C213.58,198.58,210.92,198.88,207.36,199Z"/><path class="cls-15" d="M220.65,168.37c-.84.21-1,.32-1.12.27-2.57-1.22-3.58-3.53-4.11-6.12,0-.14.9-.73,1.07-.63C218.8,163.36,219.74,165.7,220.65,168.37Z"/><path class="cls-9" d="M189.07,89.61c-.73,1.06-1.92,1.3-2.18.61-.89-2.39.68-4.41,1.6-6.47.24-.54,1.18-1,1.61-.33C191.55,85.84,189.37,87.7,189.07,89.61Z"/><path class="cls-13" d="M169.25,336.21c.33-1.32-1-3.45,1.27-4.14,1-.29,1.22,1.18,1,1.85-.57,1.51.83,3.78-1.14,4.5C168.94,338.94,169.31,337.27,169.25,336.21Z"/><path class="cls-12" d="M161,275.92c.36-.87.41-1.31.61-1.41,2.12-1,3.93-3,6.61-2,.2.07.33,1.15.19,1.24C166.25,275,164.18,276.65,161,275.92Z"/><path class="cls-10" d="M212,125.79c1.62-.73,3.21-1.57,4.89-2.16s2.61-.15,1.94,1.85l-3,1.86-3.92,1.09C211.9,127.55,211.94,126.67,212,125.79Z"/><path class="cls-10" d="M170.21,305.57c-.22-.75-.08-1.38.6-1.36,2.39.08,3,2.32,4.21,3.75.63.71.07,1.64-.62,1.46C172.37,308.87,171.51,306.87,170.21,305.57Z"/><path class="cls-15" d="M231.87,183.47c.18,1,.38,1.36.27,1.6-1,2.16-1.45,4.67-4,5.68-.13.05-.89-.78-.81-1C228.24,187.44,228.79,184.82,231.87,183.47Z"/><path class="cls-12" d="M187,241.42c1,0,1.38-.1,1.63,0,2,1,4.33,1.68,5.38,3.92a.87.87,0,0,1-1.12,1.1C190.58,245.45,188,244.72,187,241.42Z"/><path class="cls-16" d="M246,221.9c.22,1,0,1.88-.74,1.69-2.8-.74-3-3.54-4.09-5.62-.28-.54,0-1.67.73-1.44C244.53,217.38,244.58,220.34,246,221.9Z"/><path class="cls-11" d="M184,272.54c-2.22,2.08-4.67,3.31-8.34,2.1C178.32,272.25,181.08,272.17,184,272.54Z"/><path class="cls-17" d="M211.3,224.21a6.61,6.61,0,0,1-1.25.17c-2.64-.89-3.38-3.25-4.16-5.53-.07-.19.63-.95.85-.9C210,218.67,209.46,222,211.3,224.21Z"/><path class="cls-17" d="M184.08,289.55c-.93.14-1.11.22-1.25.17-2.64-.88-3.38-3.24-4.16-5.52-.07-.2.63-.95.85-.9C182.73,284,182.24,287.33,184.08,289.55Z"/><path class="cls-18" d="M174.13,269.13c-.77-.42-1-.46-1-.58a7.15,7.15,0,0,1,.33-7,1.7,1.7,0,0,1,1.26.2A10.67,10.67,0,0,1,174.13,269.13Z"/><path class="cls-12" d="M255.35,233.42c.36.88.51,1.06.47,1.17a9.13,9.13,0,0,1-5.11,5c-.22.09-1.09-.6-1.05-.73C250.54,236.12,253,235,255.35,233.42Z"/><path class="cls-12" d="M199.2,214.85a20.9,20.9,0,0,1,2.5-1.26c1.69-.56,2.43-4.45,4.36-2.35,1.35,1.46-1.8,2.91-3,4.31C202.37,216.4,201.31,217.15,199.2,214.85Z"/><path class="cls-17" d="M180.42,221.63c1,0,1.41.74,1.2,1.3-.74,1.92-.9,4.31-3.3,5.09a.94.94,0,0,1-1.12-1.2C178,224.91,178.44,222.7,180.42,221.63Z"/><path class="cls-17" d="M189.08,211.55c-.86.61-1,.79-1.12.78-2.59-.39-5-1.13-6.43-3.55-.08-.13.55-1,.76-.95C184.88,208.25,186.74,209.93,189.08,211.55Z"/><path class="cls-15" d="M309.08,107.55c-.38.85-.41,1.08-.5,1.1a8.74,8.74,0,0,1-7.06-.51,1.55,1.55,0,0,1,0-1.28C304.11,105.54,306.44,106.87,309.08,107.55Z"/><path class="cls-17" d="M201.79,208.33c-1.5-.62-1.93-.66-2-.87-1-1.92-3.37-3.26-2.67-5.91a1.48,1.48,0,0,1,1.14-.56C200.29,202.71,200.93,205.07,201.79,208.33Z"/><path class="cls-12" d="M159.2,302.33c.83-.43,1.32-.25,1.71.19,1.15,1.33,3.24,1.81,3.59,3.8.09.48-.74.92-1.27.6C161.42,305.81,159.54,304.71,159.2,302.33Z"/><path class="cls-17" d="M287.78,112.75c-1.22,0-1.6.12-1.84,0-1.71-.94-3.92-1.2-4.86-3.19-.3-.64.4-1.32,1.13-1.19A7.14,7.14,0,0,1,287.78,112.75Z"/><path class="cls-15" d="M280.55,243.91c-.15.57-.14.81-.23.86-2.69,1.32-4.94-.16-7.24-1.22a1.92,1.92,0,0,1,.09-1.23A9.89,9.89,0,0,1,280.55,243.91Z"/><path class="cls-17" d="M167.4,216.09c-4-1.84-5.08-4.12-6-7.42C165.21,209.65,165.68,212.48,167.4,216.09Z"/><path class="cls-17" d="M214.77,185.71c3.14-.82,4.74,1.34,7.7,2.77C218.25,189.86,216.51,187.71,214.77,185.71Z"/><path class="cls-17" d="M227.84,233.14c.52-3.14,2.69-4.44,6.21-5.71C233,231.51,229.9,231.72,227.84,233.14Z"/><path class="cls-17" d="M207.08,243.55c.52-3.14,2.69-4.44,6.21-5.72C212.28,241.92,209.13,242.13,207.08,243.55Z"/><path class="cls-11" d="M167.08,233.55c-2.47-2.84-2.72-5.19-1.68-8.46C167.51,227.73,168.24,230,167.08,233.55Z"/><path class="cls-17" d="M166.83,295.07c1,3.07.19,4.81-1.29,6.33-.14.14-1.06-.17-1-.25C164.58,299.1,165.49,297.38,166.83,295.07Z"/><path class="cls-17" d="M240.19,183.16c-2.27-.77-4.76-1.2-6.38-3.91C237.55,178.57,239.14,180.44,240.19,183.16Z"/><path class="cls-17" d="M156.89,231.16c3.59,1.69,4.06,4.38,4.44,7.12C158.67,237,157.82,234.56,156.89,231.16Z"/><path class="cls-17" d="M183.52,154.92c.73,2.55.79,4.93-1.72,7.44C181.37,159.18,181.51,156.86,183.52,154.92Z"/><path class="cls-17" d="M175,121.13c-2.14-1-4.69-1.38-6.33-4C172.34,116.65,173.81,118.7,175,121.13Z"/><path class="cls-17" d="M161.22,137.28c-2.15-1-4.69-1.38-6.34-4C158.58,132.8,160.05,134.85,161.22,137.28Z"/><path class="cls-17" d="M212.06,154.38c0-2.39-.81-5.13,2.7-6.23C215.13,151.08,213.5,152.75,212.06,154.38Z"/><path class="cls-17" d="M229.38,133.79c0-2.39-.81-5.14,2.7-6.24C232.45,130.49,230.82,132.15,229.38,133.79Z"/><path class="cls-13" d="M237.78,223.66c.81-1,1.65-1.19,2.53-.07,0,1.35.05,2.7.08,4-.1,1-.2,2-.31,2.92l-2,.15-.09-.08C237.93,228.3,237.85,226,237.78,223.66Z"/><path class="cls-13" d="M279.11,224.35a9.85,9.85,0,0,1,0,9.2C277.56,230.11,277.52,227.73,279.11,224.35Z"/><path class="cls-17" d="M227.1,214.19c-.49-2.77.69-4.62,2.33-7.17C230,211.4,230,211.4,227.1,214.19Z"/><path class="cls-16" d="M239.37,152.52c2.42-1.75,4.95-1.65,8.22-.84C244.7,154.26,242,153.49,239.37,152.52Z"/><path class="cls-16" d="M165.08,176.55c-2.46,1.51-5,1.59-8.18.52C159.92,174.75,162.48,175.19,165.08,176.55Z"/><path class="cls-17" d="M260,224c-1.19-3-.9-4.91.1-6.78C261.22,219.24,261.46,221.17,260,224Z"/><path class="cls-17" d="M235.91,157.91c1.84,1.83,1.1,3.78,1.12,6.59C234.21,162,235.64,159.84,235.91,157.91Z"/><path class="cls-19" d="M188.88,127.27l3.05-1.86c.43,1.25,1.84,2.71-.05,3.67C190.4,129.83,189.1,129.18,188.88,127.27Z"/><path class="cls-19" d="M266.08,228.55c.08,2.32.15,4.64.23,7C263.53,233.28,263.64,231,266.08,228.55Z"/><path class="cls-20" d="M174.17,92.07l-5.09,4.48C170.14,94.34,169.67,90.39,174.17,92.07Z"/><path class="cls-20" d="M176.81,63.29l-5.09,4.48C172.78,65.55,172.31,61.6,176.81,63.29Z"/><path class="cls-19" d="M166.3,108.92c0,.87-.09,1.75-.13,2.63l-5-2.87,3.87-1.13C165.49,108,165.9,108.46,166.3,108.92Z"/><path class="cls-19" d="M170.84,181.87l.24-1.32c1.36-.42,2.7-1.37,4.13-.18a1.32,1.32,0,0,1-.39.7A3.39,3.39,0,0,1,170.84,181.87Z"/><path class="cls-19" d="M197.17,238.59l-.09-4C199.84,235.84,199.79,237.19,197.17,238.59Z"/><path class="cls-20" d="M205.08,131.55l1.33-3.1c.73.85,1.86,1.63.89,2.94C206.7,132.2,205.86,131.94,205.08,131.55Z"/><path class="cls-19" d="M254.43,112.82c.73,1.57,2.56,1.65,3.65,2.73l-4.88.25,0,0Z"/><path class="cls-19" d="M196.28,128.83l1.8,3.72C196.09,132,194.65,131.15,196.28,128.83Z"/><path class="cls-19" d="M162.08,199.55c-.15-1.29-.31-2.59-.47-3.88C163.31,196.78,163,198.12,162.08,199.55Z"/><path class="cls-19" d="M184.12,64c.12-.62.13-1.35,1-1.46.17,0,.57.38.55.55-.1.83-.84.84-1.46,1Z"/><path class="cls-19" d="M218.31,140.46c-.08-.63-.15-1.27-.23-1.91.76.07,1.76-.08,1.68,1C219.74,139.92,218.82,140.18,218.31,140.46Z"/><path class="cls-19" d="M283.9,148l-2,.05c.13-.73.12-1.7,1.19-1.5C283.43,146.62,283.63,147.5,283.9,148Z"/><path class="cls-19" d="M258.18,154.51l-1.1-2C258.43,152.66,259.8,152.75,258.18,154.51Z"/><path class="cls-19" d="M244.28,235.52l.88,1c-.37.58-.9,1.15-1.5.49S243.7,235.86,244.28,235.52Z"/><path class="cls-20" d="M177.08,191.55l1.64,1.08c-.53.52-1.09,1.3-1.84.54C176.64,192.93,177,192.11,177.08,191.55Z"/><path class="cls-19" d="M232.09,212.7l2-.15C233.49,213.62,232.83,213.64,232.09,212.7Z"/><path class="cls-19" d="M293.51,125.18l-1.43-.63Z"/><path class="cls-19" d="M176,82.56l-1.34-.85,1.46-.06.05,0C176.12,82,176.06,82.27,176,82.56Z"/><path class="cls-19" d="M194.08,193.55l1.23-.26Z"/></g></g></g></svg>