<svg xmlns="http://www.w3.org/2000/svg" xmlns:xlink="http://www.w3.org/1999/xlink" viewBox="0 0 646.21 663"><defs><style>.cls-1{fill:url(#radial-gradient);}.cls-2{fill:#f9e4ca;}.cls-3{opacity:0.2;fill:url(#radial-gradient-2);}.cls-4{fill:#f4e3c6;opacity:0.63;}.cls-5,.cls-7{fill:#dea264;}.cls-5{opacity:0.05;}.cls-6{opacity:0.1;fill:url(#radial-gradient-3);}.cls-7{opacity:0.08;}.cls-8{fill:#d49a5f;opacity:0.3;}</style><radialGradient id="radial-gradient" cx="305.91" cy="87.63" r="697.89" gradientUnits="userSpaceOnUse"><stop offset="0.5" stop-color="#f5ca8e"/><stop offset="0.87" stop-color="#dac2a6"/><stop offset="1" stop-color="#cfbfb0"/></radialGradient><radialGradient id="radial-gradient-2" cx="185.31" cy="351.36" r="69.03" gradientUnits="userSpaceOnUse"><stop offset="0" stop-color="#ffeed4"/><stop offset="0.36" stop-color="#f9e3c0" stop-opacity="0.6"/><stop offset="0.67" stop-color="#f4dbaf" stop-opacity="0.28"/><stop offset="0.89" stop-color="#f1d5a5" stop-opacity="0.08"/><stop offset="1" stop-color="#f0d3a1" stop-opacity="0"/></radialGradient><radialGradient id="radial-gradient-3" cx="337.48" cy="412.21" r="53.98" xlink:href="#radial-gradient-2"/></defs><title>Shortbread_1</title><g id="Layer_2" data-name="Layer 2"><g id="Step_2" data-name="Step 2"><path class="cls-1" d="M332.91,26.88c-123,.34-166.36,52.15-196.16,58.35s-24.83,26.08-55.87,38.49S-3.54,287.6.19,368.3s28.55,94.35,28.55,94.35c16.14,114.22,199.88,214.78,252,198.64S498,663.77,562.58,564.45s86.91-125.39,77-273.13C608.66,183.1,500.51,26.42,332.91,26.88Z"/><path class="cls-2" d="M337.3,0c-123,.34-166.36,52.14-196.15,58.35S116.32,84.42,85.28,96.84.86,260.72,4.58,341.41s28.56,94.36,28.56,94.36C49.27,550,233,650.55,285.16,634.41S502.42,636.89,567,537.57s86.91-125.39,77-273.13C613.06,156.22,504.91-.46,337.3,0Z"/><path class="cls-3" d="M214.59,455.44c-31.2,25.51-80.82,9.18-85.63-30.82s-32-28.59-15.9-59.42,33.81-17.59,69.93-43,95.65,15.49,93.69,35.27C271.64,408.2,267.46,412.21,214.59,455.44Z"/><path class="cls-4" d="M439.9,548.92c-51,41.73-132.21,15-140.09-50.41s-52.4-46.78-26-97.22S329.11,372.51,388.21,331s156.48,25.36,153.27,57.72C533.23,471.64,526.4,478.19,439.9,548.92Z"/><path class="cls-5" d="M642.36,364c-3.93,65.81-78.6,107.37-132,68.8s-69.91,6.8-89.09-46.8,16.34-60.17,25.87-131.78S571.83,156.4,593.44,180.7C648.83,243,649,252.48,642.36,364Z"/><path class="cls-6" d="M346.91,438.5c-12.08,9.87-31.29,3.55-33.15-11.93s-12.4-11.07-6.16-23,13.09-6.81,27.08-16.64,37,6,36.26,13.66C369,420.21,367.37,421.76,346.91,438.5Z"/><path class="cls-7" d="M482.52,61.08C406,1.37,306-11.68,217.72,30.16c-38.94,18.47-115.89,55.4-136.84,93.56-22.48,41-17.3,89.11,20,122.11,14.58,12.92,64,20.08,81,29.28,4.21,2.28,8.39,4.6,12.46,7.13,1.63,1,7,4.83,6.38,4.18a92.47,92.47,0,0,1,7,6.84l.17.34c1.23,2.46,2.66,4.78,3.8,7.3,4.61,10.12,15.56,15.72,26.59,16.63a34.72,34.72,0,0,0,24.16,25.22c17.86,4.91,37.78-6,42.5-24.14.7-2.69,5.25-11.21.84-3.7,1.26-2.15,2.55-4.34,3.74-6.52l.36-.68.34-.35c2.4-2.49,4.66-5,7.19-7.41,1.93-1.8,4-3.46,5.95-5.22l.88-.8.61-.44q7.78-5.64,15.7-11.1C362.78,267,386.34,251,399.49,226.57c9.17-17,10.14-33.86,11.65-52.75.44-5.49.09-.91,1.1-5.4l.05-.21a11.13,11.13,0,0,0,1-1.6c.53-.78.9-1.36,1.14-1.74.61-.68,1.19-1.38,1.82-2,2-2,4.09-3.82,6.15-5.72.35-.32.64-.59.88-.83s.71-.43,1.28-.81c3.3-2.18,6.52-4.48,9.84-6.65,5-3.3,10.13-6.52,15.09-9.93,15.12-10.39,27.38-21.38,38.48-35.95C496.18,92.12,493.45,69.6,482.52,61.08Z"/><path class="cls-7" d="M38.18,251C8.14,299.63,6.9,359,37,407.94c13.3,21.61,34,41.79,57.65,51.61,25.41,10.54,56.11,7.92,73-16,6.63-9.37,10.64-19.76,14.94-30.28,1.07-2.6,2.16-5.2,3.37-7.74.49-1,2.39-4.39,2-4a52,52,0,0,1,3.56-4.55l.19-.12c1.36-.88,2.62-1.86,4-2.69,5.63-3.35,8.21-10.11,8-16.62a20.45,20.45,0,0,0,13.21-15.75c1.73-10.77-5.93-21.72-16.84-23.33-1.61-.24-6.89-2.35-2.22-.25-1.33-.6-2.7-1.21-4.05-1.77l-.42-.17-.23-.18c-1.61-1.24-3.25-2.4-4.79-3.73-1.18-1-2.28-2.11-3.44-3.15l-.52-.46-.3-.33q-3.8-4.2-7.5-8.48c-10.4-12-21.31-24.78-36.43-30.91-10.53-4.28-20.46-3.78-31.61-3.45-3.24.1-.54,0-3.23-.3h-.13a6.11,6.11,0,0,0-1-.46l-1.09-.56c-.44-.31-.89-.6-1.31-.93-1.31-1-2.49-2.15-3.74-3.24l-.54-.46-.55-.69c-1.49-1.8-3-3.54-4.52-5.33-2.26-2.74-4.47-5.52-6.78-8.2a94.22,94.22,0,0,0-23.49-20.22C55.47,241.05,42.47,244.08,38.18,251Z"/><path class="cls-8" d="M56.9,442.58s-24.83-13.66-28.56-94.36S78,116.06,109,103.65s26.07-32.28,55.87-38.49S238,7.15,361.07,6.81a260.84,260.84,0,0,1,53.17,5.29A259.83,259.83,0,0,0,337.3.73c-123,.34-166.36,52.15-196.15,58.35S116.32,85.16,85.28,97.57.86,261.45,4.58,342.15,33.14,436.5,33.14,436.5c13.9,98.37,152.1,186.6,223.5,198.88C182.07,611,69.38,530.9,56.9,442.58Z"/></g></g></svg>