<svg xmlns="http://www.w3.org/2000/svg" xmlns:xlink="http://www.w3.org/1999/xlink" viewBox="0 0 645.92 662.7"><defs><style>.cls-1{fill:url(#radial-gradient);}.cls-2{fill:#f0d3a1;}.cls-3{fill:#bf8c56;}.cls-3,.cls-7{opacity:0.08;}.cls-4{opacity:0.2;fill:url(#radial-gradient-2);}.cls-5{opacity:0.1;fill:url(#radial-gradient-3);}.cls-6,.cls-7,.cls-9{fill:#dea264;}.cls-6{opacity:0.15;}.cls-8{fill:#d49a5f;opacity:0.3;}.cls-9{opacity:0.16;}.cls-10{fill:url(#radial-gradient-4);}</style><radialGradient id="radial-gradient" cx="320.76" cy="328.95" r="596.13" gradientUnits="userSpaceOnUse"><stop offset="0.5" stop-color="#c9a083"/><stop offset="0.54" stop-color="#b18868"/><stop offset="0.63" stop-color="#754c24"/></radialGradient><radialGradient id="radial-gradient-2" cx="185.22" cy="351.2" r="69" gradientUnits="userSpaceOnUse"><stop offset="0" stop-color="#ffeed4"/><stop offset="0.36" stop-color="#f9e3c0" stop-opacity="0.6"/><stop offset="0.67" stop-color="#f4dbaf" stop-opacity="0.28"/><stop offset="0.89" stop-color="#f1d5a5" stop-opacity="0.08"/><stop offset="1" stop-color="#f0d3a1" stop-opacity="0"/></radialGradient><radialGradient id="radial-gradient-3" cx="337.33" cy="412.02" r="53.96" xlink:href="#radial-gradient-2"/><radialGradient id="radial-gradient-4" cx="729.05" cy="122.95" fx="721.1231532538637" r="176.82" gradientUnits="userSpaceOnUse"><stop offset="0" stop-color="#a65200"/><stop offset="0.07" stop-color="#a65506" stop-opacity="0.92"/><stop offset="0.52" stop-color="#a66627" stop-opacity="0.43"/><stop offset="0.84" stop-color="#a6713c" stop-opacity="0.12"/><stop offset="1" stop-color="#a67544" stop-opacity="0"/></radialGradient></defs><title>Vanilla_1</title><g id="Layer_2" data-name="Layer 2"><g id="Step_Three" data-name="Step Three"><path class="cls-1" d="M332.76,26.87C209.78,27.21,166.47,79,136.69,85.2s-24.82,26.06-55.84,38.46S-3.54,287.47.18,368.13s28.55,94.31,28.55,94.31C44.86,576.61,228.52,677.12,280.64,661s217.16,2.48,281.69-96.79,86.86-125.34,76.94-273C608.39,183,500.28,26.41,332.76,26.87Z"/><path class="cls-2" d="M337.15,0c-123,.34-166.29,52.12-196.07,58.33S116.26,84.38,85.24,96.79.86,260.6,4.58,341.26s28.54,94.31,28.54,94.31C49.25,549.74,232.91,650.25,285,634.12s217.16,2.48,281.69-96.79,86.87-125.34,76.94-273C612.78,156.15,504.68-.46,337.15,0Z"/><path class="cls-3" d="M123.32,507.2c-4.39-18.34,5.76-34.86,23.16-40.79,45.34-15.45,91.21-4.25,137.36-.84,21.1,1.56,41.46.75,60.57-3.29a241.71,241.71,0,0,0,31.53-8.91c7-2.5,17-5.92,21.85-10.22.27-.44.59-1,1-1.63-.28.48-1.43,3.9.07.06a79.27,79.27,0,0,0,3.2-11.74c1.72-7.63,3.19-15.31,5-22.93a258.08,258.08,0,0,1,16.39-49.22c16.69-36.59,48.95-61.16,89-65.82,32.79-3.82,65.64,10.3,87.19,34.71-20.58-31.43-58.38-50.76-96.09-46.37-40,4.66-72.29,29.23-89,65.82a258.08,258.08,0,0,0-16.39,49.22c-1.77,7.62-3.24,15.3-5,22.93a80.85,80.85,0,0,1-3.2,11.74c-1.5,3.84-.35.41-.07-.06-.39.66-.71,1.19-1,1.63C384,435.78,374,439.21,367,441.71a242.7,242.7,0,0,1-31.52,8.91c-19.12,4-39.47,4.85-60.57,3.29-46.15-3.41-92-14.61-137.36.84-17.4,5.92-27.55,22.45-23.16,40.79a129,129,0,0,0,27.45,53.31A127.32,127.32,0,0,1,123.32,507.2Z"/><path class="cls-4" d="M214.49,455.23c-31.18,25.5-80.78,9.18-85.59-30.8S96.89,395.85,113,365s33.79-17.58,69.9-43,95.61,15.49,93.64,35.26C271.51,408,267.34,412,214.49,455.23Z"/><path class="cls-5" d="M346.75,438.3c-12.07,9.87-31.27,3.55-33.14-11.92s-12.39-11.07-6.15-23,13.08-6.81,27.06-16.63,37,6,36.25,13.65C368.82,420,367.21,421.57,346.75,438.3Z"/><path class="cls-6" d="M482.31,61.05C405.8,1.37,305.82-11.68,217.63,30.15,178.69,48.61,101.78,85.52,80.85,123.66c-22.48,41-17.3,89.07,20,122.06,14.58,12.91,64,20.07,81,29.27,4.2,2.28,8.39,4.6,12.45,7.12,1.63,1,7,4.83,6.38,4.18a92.42,92.42,0,0,1,7,6.84,3.59,3.59,0,0,0,.17.34c1.22,2.46,2.65,4.77,3.8,7.29,4.6,10.12,15.55,15.72,26.57,16.62a34.71,34.71,0,0,0,24.15,25.21c17.85,4.91,37.76-6,42.49-24.12.7-2.69,5.24-11.21.83-3.71,1.26-2.14,2.55-4.33,3.73-6.51l.37-.68.34-.35c2.39-2.49,4.66-5,7.18-7.4,1.93-1.81,4-3.46,5.95-5.23l.88-.8.61-.43q7.79-5.64,15.7-11.1c22.22-15.34,45.76-31.4,58.91-55.79,9.16-17,10.14-33.85,11.64-52.73.44-5.48.09-.91,1.1-5.39l.05-.22a10.56,10.56,0,0,0,1-1.6c.53-.78.91-1.35,1.15-1.74.6-.67,1.18-1.37,1.81-2,2-2,4.09-3.82,6.15-5.72.35-.32.63-.6.88-.83s.71-.43,1.27-.81c3.3-2.18,6.53-4.47,9.84-6.65,5-3.3,10.13-6.51,15.09-9.92,15.11-10.38,27.37-21.37,38.46-35.93C496,92.07,493.23,69.57,482.31,61.05Z"/><path class="cls-6" d="M440.45,50.86C378,2.18,296.49-8.46,224.55,25.65c-31.76,15.06-62.67,40.5-79.75,71.62-18.33,33.41-19.34,76.07,11.06,103,11.9,10.53,25.6,17.62,39.44,25.13,3.43,1.86,6.85,3.75,10.16,5.81,1.33.82,5.68,3.94,5.2,3.41a71.82,71.82,0,0,1,5.73,5.58l.14.27c1,2,2.16,3.9,3.1,6,3.76,8.26,12.68,12.82,21.68,13.56A28.29,28.29,0,0,0,261,280.52c14.57,4,30.81-4.89,34.66-19.67.57-2.2,4.28-9.15.68-3,1-1.74,2.08-3.53,3.05-5.31.12-.22.2-.38.29-.56l.29-.28c1.95-2,3.8-4.11,5.85-6,1.58-1.47,3.25-2.82,4.85-4.26l.72-.65.5-.36q6.36-4.61,12.81-9.05C342.82,218.8,362,205.7,372.75,185.8c7.47-13.86,8.27-27.61,9.5-43,.36-4.48.07-.75.9-4.4,0-.07,0-.11,0-.18a9.23,9.23,0,0,0,.79-1.3c.43-.64.74-1.11.93-1.42.5-.55,1-1.12,1.48-1.66,1.59-1.64,3.34-3.11,5-4.66.28-.26.52-.48.71-.67l1.05-.66c2.69-1.78,5.32-3.66,8-5.43,4.1-2.69,8.26-5.31,12.31-8.1,12.32-8.46,22.32-17.42,31.37-29.3C451.59,76.17,449.36,57.81,440.45,50.86Z"/><path class="cls-7" d="M38.16,250.91C8.13,299.49,6.89,358.82,37,407.75c13.3,21.6,34,41.78,57.63,51.59,25.39,10.53,56.08,7.91,73-16,6.62-9.35,10.63-19.74,14.93-30.26,1.06-2.6,2.15-5.2,3.37-7.74.49-1,2.38-4.38,2-4a55.41,55.41,0,0,1,3.55-4.54l.19-.12c1.36-.88,2.62-1.86,4-2.69,5.63-3.34,8.2-10.11,8-16.62A20.42,20.42,0,0,0,217,361.63c1.72-10.76-5.93-21.72-16.84-23.32-1.61-.24-6.89-2.35-2.22-.25-1.33-.6-2.7-1.22-4-1.77l-.42-.17-.23-.18c-1.6-1.24-3.24-2.41-4.79-3.73-1.18-1-2.28-2.11-3.43-3.14l-.53-.47-.29-.33c-2.54-2.8-5-5.62-7.5-8.47-10.4-12-21.3-24.77-36.41-30.91-10.53-4.27-20.45-3.76-31.6-3.44-3.24.1-.54,0-3.23-.3h-.12a6.36,6.36,0,0,0-1-.46l-1.09-.56c-.44-.31-.88-.6-1.3-.93-1.31-1-2.5-2.15-3.74-3.23-.21-.19-.39-.34-.54-.46s-.3-.39-.56-.7c-1.48-1.79-3-3.53-4.52-5.33-2.25-2.73-4.46-5.51-6.77-8.19a94.34,94.34,0,0,0-23.48-20.21C55.44,240.94,42.45,244,38.16,250.91Z"/><path class="cls-8" d="M56.87,442.38s-24.82-13.65-28.54-94.31S78,116,109,103.6s26.06-32.26,55.84-38.47,73.09-58,196.07-58.32a260.58,260.58,0,0,1,53.15,5.29A259.61,259.61,0,0,0,337.15.73c-123,.34-166.29,52.12-196.07,58.33S116.26,85.12,85.24,97.53.86,261.33,4.58,342,33.12,436.3,33.12,436.3c13.89,98.32,152,186.52,223.4,198.8C182,610.76,69.35,530.66,56.87,442.38Z"/><path class="cls-9" d="M611.28,344.27c-19.6-34.66-59.59-56.52-99.47-51.88s-72.28,29.23-89,65.82a258.78,258.78,0,0,0-16.39,49.22c-1.76,7.62-3.24,15.3-4.95,22.92a81.92,81.92,0,0,1-3.2,11.75c-1.51,3.83-.36.41-.08-.06-.39.66-.7,1.19-1,1.63-4.89,4.29-14.87,7.72-21.86,10.22a242.39,242.39,0,0,1-31.53,8.91c-19.11,4-39.47,4.85-60.57,3.29-46.14-3.41-92-14.61-137.36.83-17.39,5.93-27.54,22.46-23.16,40.79,9.78,40.89,40.76,75.73,79.83,90.82,33.68,33.46,85.77,42.06,131.59,37.18,52.8-5.62,107.85-18,153.42-46.38,3.59-2.23,7.11-4.61,10.59-7.06a55.63,55.63,0,0,0,12.36-1.79c23.14-6.14,37.8-25.47,48.78-45.45q10.11-18.39,18.5-37.71a190.26,190.26,0,0,0,26.81-34.5C626.35,427,632.51,381.79,611.28,344.27Z"/><path class="cls-10" d="M564,116.15c-26.22-28.74-113,43.95-115.21,76.62s-44.41,61.14-27.33,86.59,165.45-53,194.89-10.72,29.58,49.27,29.58,49.27c-1.43-21,2.68-44.64-8.18-72.19S613,169.82,564,116.15Z"/></g></g></svg>