<?xml version="1.0" encoding="utf-8"?>
<!-- Generator: Adobe Illustrator 23.0.3, SVG Export Plug-In . SVG Version: 6.00 Build 0)  -->
<svg version="1.1" id="Layer_1" xmlns="http://www.w3.org/2000/svg" xmlns:xlink="http://www.w3.org/1999/xlink" x="0px" y="0px"
	 viewBox="0 0 429.01 588.21" style="enable-background:new 0 0 429.01 588.21;" xml:space="preserve">
<style type="text/css">
	.st0{opacity:0.3;fill:none;stroke:#383838;stroke-miterlimit:10;enable-background:new    ;}
	.st1{opacity:0.3;stroke:#383838;stroke-miterlimit:10;enable-background:new    ;}
	.st2{opacity:0.3;fill:#FFFFFF;stroke:#383838;stroke-miterlimit:10;enable-background:new    ;}
	.st3{fill:#FC3A3A;}
</style>
<path class="st0" d="M113.85,164.94C113.84,165.11,113.88,165,113.85,164.94L113.85,164.94z"/>
<path class="st1" d="M113.85,164.94c0-0.04,0.01-0.08,0.02-0.15c-0.09-0.04-0.18-0.07-0.26-0.11c0.08,0.08,0.15,0.16,0.24,0.24
	C113.85,164.92,113.85,164.93,113.85,164.94z"/>
<path class="st1" d="M408.35,397.34c-6.87,4.88-13.58,4.3-19.69-0.95c-5.91-5.09-11.69-10.42-16.88-16.23
	c-7.25-8.12-15.59-14.44-25.59-18.7c-18.17-7.74-37.18-8.63-56.44-6.79c-5.53,0.53-10.95,2.26-17.41,3.65
	c-1.26-2.19-3.47-5.15-4.79-8.46c-9.35-23.33-20.07-46.33-23.06-71.58c-1.26-10.6,0.19-21.52,0.44-32.3
	c0.01-0.46,0.33-0.95,0.6-1.36c2.43-3.54,2.57-6.73-2.24-9.18c9.62-7.61,18.62-14.75,27.64-21.85
	c13.59-10.7,28.75-16.65,46.28-17.74c13.4-0.83,26.73-3.43,40-5.79c14.76-2.63,28.55-7.57,40.06-17.91
	c4.89-4.39,6.28-9.13,4.77-15.14c-2.48-9.91-7.63-17.99-17.42-21.75c-16.78-6.43-33.76-12.35-50.67-18.42
	c-11.89-4.27-23.51-3.88-34.76,2.26c-1.75,0.96-3.61,1.71-5.44,2.51c-8.14,3.57-16.29,7.13-25.94,11.35
	c1.63-7.53,3.01-13.48,4.18-19.47c1.32-6.81,3.59-13.7,3.37-20.48c-0.3-9.27,2.31-16.88,7.82-24.01
	c5.5-7.11,11.36-14.06,15.87-21.79c6.38-10.92,11.94-22.25,20.24-32.02c2.48-2.92,3.23-7.49,4.13-11.46
	c0.23-1.03-2.1-3.85-3.02-3.75c-9.06,1-18.34,1.51-27.02,4.03c-9.04,2.62-17.75,6.79-26.08,11.26c-6.64,3.57-13.59,7.64-18.49,13.18
	c-15.49,17.52-31.38,34.99-38.4,58.46c-0.54-0.58-0.98-1.03-1.4-1.5c-9.8-11.1-19.44-22.33-29.45-33.24
	c-5.05-5.5-11.98-7.38-19.19-6.55c-14.6,1.68-27.91,6.39-37.61,18.35c-3.04,3.75-6.14,7.46-9.26,11.14
	c-4.75,5.6-6.73,12.22-6.91,19.38c-0.34,13.65-0.06,27.33-0.85,40.94c-0.63,10.83-0.53,21.06,7.88,29.22
	c0.09,0.04,0.18,0.07,0.26,0.11c-0.01,0.07-0.01,0.11-0.02,0.15c0.03,0.06-0.01,0.17,0,0c0-0.01-0.01-0.01-0.01-0.02
	c-0.08-0.08-0.15-0.16-0.24-0.24c-10.79-4.4-21.46-9.68-32.69-13.04c-16.2-4.85-32.76-6.12-48.86,1.32
	c-5.65,2.61-10.42,6.18-12.43,12.28c-2.85,8.68-5.68,17.39-7.88,26.25c-1.25,5.05-3.04,9.41-6.95,12.9
	c-1.75,1.56-3.21,3.45-4.8,5.19c0.2,0.45,0.39,0.9,0.59,1.35c3.23-0.15,6.5-0.03,9.67-0.52c8.01-1.23,15.15-0.03,22.43,4.18
	c12.96,7.49,26.54,13.91,39.88,20.75c2.13,1.09,4.33,2.04,7.05,3.31c-1.8,1.05-2.88,1.8-4.06,2.34
	c-18.8,8.69-34.2,21.83-47.82,37.13c-3.81,4.29-7.9,9.11-9.54,14.41c-5.02,16.19-9.36,32.64-12.97,49.2
	c-1.08,4.96-0.17,11.23,2.04,15.84c5.05,10.54,9.47,10.7,17.18,2.05c0.33-0.37,0.68-0.74,0.98-1.14
	c9.94-13.34,19.65-26.87,29.93-39.95c4.15-5.28,8.88-10.67,14.52-14.08c14.52-8.8,29.61-16.65,44.64-24.58
	c4.05-2.14,8.56-3.71,13.05-4.66c12.21-2.59,24.51-4.73,36.79-7.02c1.81-0.34,3.66-0.47,5.49-0.7c-1.31,1.95-2.93,2.72-4.34,3.78
	c-5.68,4.28-11.53,8.39-16.84,13.1c-3.18,2.83-3.67,6.97-2.07,11.12c11.24,29.09,30.89,49.36,61.16,58.63
	c3.81,1.17,7.55,2.61,11.22,4.15c6.94,2.91,9.31,1.78,10.44-5.89c1.08-7.41,1.48-14.93,2.55-22.34c2.53-17.47,5.29-34.9,7.98-52.34
	c0.07-0.43,0.4-0.83,0.41-0.84c4.19,14.35,7.73,28.75,12.65,42.66c4.94,13.95,11.26,27.4,16.58,40.14
	c-7.72-1.39-16.48-3.24-25.33-4.46c-7.43-1.03-13.91,1.3-18.33,7.73c-5.18,7.54-10.76,14.88-15.15,22.87
	c-13.32,24.23-19.51,50.87-24.96,77.68c-1.36,6.68-2.4,13.44-3.23,20.21c-0.18,1.5,0.73,3.71,1.9,4.6c0.77,0.58,2.95-0.5,4.39-1.09
	c0.89-0.36,1.62-1.16,2.36-1.83c23.5-21.45,46.99-42.92,70.5-64.37c1.04-0.95,2.17-1.82,3.92-3.28
	c-6.37,57.44-13.29,113.85-17.93,170.51c1.66-4.81,2.54-9.71,3.11-14.64c5.96-51.97,11.86-103.94,17.84-155.9
	c0.18-1.58,0.54-3.58,1.58-4.55c10.59-9.79,21.34-19.41,30.79-27.95c6.96,2,12.25,4.04,17.72,5c16.9,2.95,33.88,5.43,50.81,8.19
	c11.02,1.8,21.98,3.93,33.02,5.57c6.37,0.95,12.11-3.73,12.42-10.29C412.56,394.99,410.3,395.95,408.35,397.34z M213.88,83.1
	c4.03-7.76,7.73-15.82,12.77-22.91c7.5-10.54,15.89-20.47,24.21-30.42c5.31-6.36,12.1-10.75,20.05-13.45
	c4.55-1.54,9.02-3.53,13.21-5.87c11.43-6.39,23.9-7.56,38.2-7.91c-1.8,4.36-2.47,9-5.1,11.78c-9.35,9.89-14.33,22.33-21.19,33.68
	c-4.72,7.81-10.37,15.06-15.75,22.46c-4.35,6-6.77,12.4-6.19,19.99c0.64,8.24-1.1,16.13-4.02,23.92c-1.84,4.92-2.3,10.35-3.59,15.5
	c-0.41,1.63-1.11,3.83-2.36,4.51c-11.97,6.49-19.9,16.99-27.9,27.44c-0.61,0.79-1.23,1.57-1.85,2.35c-0.41-0.03-0.81-0.06-1.22-0.09
	c0-1.74-0.15-3.5,0.02-5.22c2.28-23.57-6.32-44.14-17.96-63.72C212.75,90.98,211.74,87.23,213.88,83.1z M208.86,251.34
	c8.52,2.6,13.98-3.44,21.07-7.15c-4.54,6.6-8.33,12.57-12.65,18.13c-1.25,1.61-4.11,1.89-6.02,3.11c-2.57,1.63-3.7-0.39-5.38-1.55
	c-1.3-0.9-2.99-1.25-4.99-2.04C205.09,259.18,211.41,259.23,208.86,251.34z M202.28,245.57c1.57-0.93,2.79-1.83,4.14-2.41
	c2.29-0.98,4.83-1.47,6.97-2.68c7.36-4.15,6.17-3.98,12.89,2.11C217.13,250.05,210.18,251.09,202.28,245.57z M223.01,186.38
	c2.6-6,6.32-11.7,10.43-16.82c7.56-9.43,15.69-18.41,23.82-27.37c1.89-2.09,4.75-3.3,7.89-5.41c-2.41,37.94-17.8,68.84-42.33,96.58
	C217.54,216.99,216.47,201.51,223.01,186.38z M210.88,94.72c0.56-0.27,1.12-0.54,1.68-0.82c0.19,0.65,0.27,1.36,0.59,1.94
	c9.89,18.4,19.56,36.85,17.61,58.81c-0.13,1.49-0.18,3.02,0.03,4.49c0.91,6.46-1.37,11.61-4.93,17.04
	c-4.2,6.39-6.79,13.84-10.16,21.02c-4.28-7.54-7.65-16.16-7.93-25.14c-0.56-17.41-0.09-34.87,0.47-52.29
	C208.49,111.4,209.96,103.07,210.88,94.72z M108.77,95.02c0.15-7.35,1.9-14.15,6.86-19.88c2.94-3.4,5.83-6.85,8.59-10.4
	c9.34-11.97,22.51-16.46,36.75-17.41c5.12-0.34,11.97,1.62,15.48,5.1c11.06,11.01,21.05,23.12,31.1,35.11
	c1.6,1.91,2.05,5.44,1.83,8.13c-1.69,21.08-4.1,42.11-5.42,63.21c-0.93,14.95,3.46,28.99,10.43,42.2c0.54,1.03,1.43,2.03,1.53,3.1
	c0.89,8.98,1.63,17.98,2.46,27.46c-1.37-1.71-2.8-3.24-3.94-4.96c-12.29-18.48-23.59-37.51-32.09-58.08
	c-2-4.84-2.47-9.43-1.66-14.89c1.94-13.11-1.95-25.38-8.54-36.73c-0.69-1.19-2.62-1.65-3.98-2.45c-0.87,1.49-2.47,2.96-2.5,4.47
	c-0.26,12.27,0.41,24.88,5.95,35.7c12.26,23.94,25.9,47.19,39.1,70.64c1.69,3,4.14,5.58,6.69,8.95c-2.03,1.49-3.6,2.65-6.08,4.48
	c-7.07-7.35-14.26-14.45-21.01-21.95c-7.79-8.67-15.32-17.6-22.65-26.66c-1.74-2.15-2.92-5.25-3.18-8.02
	c-1.04-11.04-3-21.81-8.46-31.57c-0.93-1.67-2.9-2.76-4.64-3.97c9.1,12.43,11.05,25.56,11.79,40.89c-2.63-1.81-4.7-2.53-5.63-3.97
	c-6.14-9.56-8.98-20.17-8.95-31.5c0.01-1.55,1.03-3.11,2.09-5.92c-0.1-0.08-0.2-0.15-0.3-0.23c-1.13,2.24-3.22,4.47-3.24,6.73
	c-0.13,11.41,3.13,22.01,9.01,31.77c0.72,1.2,2.11,2.7,3.31,2.81c4.64,0.42,6.72,3.92,9.3,6.91c12.97,14.98,25.95,29.95,39.14,45.18
	c-1.99,1.8-4.05,1.84-6.81-0.16c-21.7-15.68-41.01-34.04-59.76-53.02c-1.62-1.63-2.24-4.24-3.35-6.38
	c-2.65-5.12-4.39-11.08-8.17-15.16c-5.71-6.16-12.9-10.93-19.3-16.47c-1.26-1.1-2.57-3.03-2.56-4.57
	C108.08,127.33,108.43,111.17,108.77,95.02z M176.5,158.64c-6.17-6.3-11.41-34.48-7.79-41.96
	C177.2,123.02,182.25,150.24,176.5,158.64z M108.61,149.28c12.18,8.96,24.54,16.44,27.89,32.67
	C130.22,181.48,109.83,157.71,108.61,149.28z M77.54,234.34c-14.9-7.05-29.8-14.12-44.39-21.79c-7.01-3.68-13.89-5.18-21.6-3.65
	c-2.72,0.54-5.56,0.5-8.36,0.72c-0.04-0.73-0.19-1.21-0.05-1.32c7.34-5.71,10.02-13.79,11.69-22.47c0.53-2.77,1.66-5.42,2.25-8.19
	c4.63-21.53,19.58-26.84,38.56-27.16c16.62-0.28,32.2,4.57,46.85,12.34c5.59,2.97,11.26,5.8,16.72,8.98
	c1.94,1.13,3.48,3.03,5.03,4.74c3.34,3.7,6.24,7.91,11.78,8.64c0.71,0.09,1.36,0.87,1.96,1.42c19.5,17.64,39,35.3,58.5,52.95
	c1.28,1.16,2.56,2.31,4.56,4.11c-1.79,0.29-2.25,0.5-2.39,0.37c-9.68-9.25-22.08-11.86-34.56-14.51
	c-9.12-1.94-18.06-4.71-27.18-6.61c-11.06-2.3-21.84-1.08-32.21,3.69c-6.49,2.99-13.03,5.93-19.75,8.32
	C82.81,235.7,79.67,235.35,77.54,234.34z M111.44,278.92c-14.21,7.65-28.76,14.78-42.42,23.33c-6.53,4.09-11.93,10.45-16.84,16.59
	c-10.37,12.98-19.88,26.66-30.15,39.72c-5.3,6.74-7.14,6.3-12.21-0.73c-3.49-4.85-3.95-10.34-2.59-15.77
	c4.07-16.29,8.21-32.57,13-48.65c1.31-4.41,4.59-8.45,7.63-12.1c17.11-20.52,39.66-33.29,62.9-45.73
	c21.49-11.5,42.53-14.04,65.24-5.7c4.32,1.59,9.13,1.8,13.62,3.01c4.73,1.27,9.35,2.98,14.02,4.5c-0.01,0.6-0.02,1.21-0.03,1.81
	c-8.62,4.28-17.13,8.81-25.89,12.79c-12.75,5.79-25.49,11.37-35.72,21.48C119.32,276.13,114.94,277.03,111.44,278.92z M127.57,272.9
	c-0.24-0.36-0.48-0.73-0.72-1.09c3.21-2.25,6.21-4.89,9.65-6.68c15.95-8.25,32.01-16.28,48.08-24.3c1.05-0.52,2.84-0.88,3.66-0.35
	c6.64,4.32,13.12,8.86,19.66,13.34c-0.05,0.7-0.09,1.4-0.14,2.1c-4.17,1.63-8.21,3.96-12.54,4.78
	C172.71,264.98,150.12,268.88,127.57,272.9z M229.81,326.18c-1.62,8.47-1.63,17.24-2.8,25.81c-0.8,5.83-1.73,6.03-7.21,3.84
	c-3.86-1.54-7.77-2.99-11.74-4.17c-29.64-8.85-48.06-29.28-59.05-57.29c-2.3-5.86,1.64-9.88,5.72-12.61
	c8.14-5.45,16.51-10.7,25.33-14.91c7.56-3.61,15.9-4.14,24-1.08c0.11,0.48,0.23,0.96,0.34,1.44c-8.44,2.4-16.89,4.81-25.33,7.21
	c0.08,0.67,0.17,1.33,0.25,2c1.45,0.45,2.97,1.42,4.34,1.25c4.92-0.6,10.04-0.9,14.61-2.6c6.33-2.36,12.32-5.7,18.25-9.01
	c1.9-1.06,3.23-3.23,4.64-5.03c4.41-5.63,8.64-11.4,13.15-16.93c0.85-1.04,2.72-1.26,4.12-1.85c0.23,1.38,0.71,2.78,0.66,4.15
	C238.29,273.24,234.85,299.79,229.81,326.18z M237.19,237.39c-6.43,5.05-7.99,4.8-14.19-1.17c19.5-20.11,32.68-43.55,39.96-70.15
	c2.4-8.77,2.97-18.04,4.64-27.03c0.31-1.66,1.56-3.84,2.96-4.49c11.48-5.3,23.13-10.21,34.66-15.4c6.8-3.06,13.82-4.21,20.9-1.82
	c19.37,6.54,38.73,13.12,57.89,20.22c9.79,3.63,14.24,12,16.12,21.89c0.78,4.13-0.46,7.29-3.54,10.25
	c-10.92,10.48-24.41,15.4-38.85,18.02c-12.6,2.28-25.28,5.18-37.98,5.53c-21.11,0.58-38.65,8.62-54.56,21.58
	C255.9,222.4,246.62,229.99,237.19,237.39z M291.79,389.5c-4.26,3.45-9.2,6.15-13.1,9.94c-4.59,4.47-8.24,9.87-12.54,14.66
	c-3.44,3.83-7.07,7.51-10.88,10.96c-21.48,19.42-43.04,38.76-64.6,58.08c-1.53,1.37-3.35,2.41-5.65,4.04
	c-0.14-2.04-0.44-3.17-0.26-4.23c5.25-30.9,11.5-61.61,25.33-89.99c5.12-10.51,12.57-19.9,19.14-29.68
	c2.59-3.86,6.56-5.52,11.21-5.39c19.34,0.56,37.04,5.78,52.03,18.51C297.12,380.35,296.86,385.39,291.79,389.5z M301.36,380.33
	c-3.02-2.14-6.04-4.28-9.06-6.41c0.24-0.39,0.48-0.78,0.71-1.18c3.42,1.64,7.48,2.39,9.28,6.25
	C301.98,379.44,301.67,379.88,301.36,380.33z M316.72,388c-2.92-0.47-5.78-1.49-8.58-2.51c-2.63-0.95-4.69-2.21-3.37-5.89
	c0.42-1.18-0.9-3.45-2.05-4.6c-1.48-1.49-3.55-2.42-5.43-3.47c-6.73-3.75-13.49-7.45-20.23-11.17c0.1-0.73,0.19-1.46,0.29-2.19
	c5.4-0.87,10.78-2.13,16.22-2.54c20.37-1.53,40.27,0.23,58.51,10.45c4.6,2.57,9.09,5.66,12.87,9.3c8.23,7.9,15.96,16.3,23.45,24.04
	C364.96,395.7,340.83,391.92,316.72,388z"/>
<path class="st2" d="M110.53,148.06c6.4,5.54,13.59,10.31,19.3,16.47c3.78,4.08,5.52,10.04,8.17,15.16
	c1.11,2.14,1.73,4.75,3.35,6.38c18.75,18.98,38.07,37.34,59.76,53.02c2.77,2,4.82,1.96,6.81,0.16
	c-13.19-15.23-26.17-30.2-39.14-45.18c-2.58-2.98-4.66-6.49-9.3-6.91c-1.19-0.11-2.58-1.6-3.31-2.81
	c-5.88-9.76-9.14-20.37-9.01-31.77c0.03-2.25,2.11-4.49,3.24-6.73c0.1,0.08,0.2,0.15,0.3,0.23c0.04-0.1,0.08-0.19,0.11-0.3
	c0.2,0.27,0.38,0.54,0.58,0.81c1.74,1.22,3.71,2.3,4.64,3.97c5.46,9.77,7.43,20.53,8.46,31.57c0.26,2.77,1.44,5.87,3.18,8.02
	c7.33,9.07,14.86,17.99,22.65,26.66c6.74,7.5,13.94,14.6,21.01,21.95c2.48-1.83,4.05-2.98,6.08-4.48c-2.55-3.37-5-5.95-6.69-8.95
	c-13.2-23.46-26.84-46.7-39.1-70.64c-5.54-10.82-6.22-23.44-5.95-35.7c0.03-1.51,1.63-2.98,2.5-4.47c1.36,0.8,3.29,1.26,3.98,2.45
	c6.59,11.35,10.48,23.62,8.54,36.73c-0.81,5.45-0.34,10.05,1.66,14.89c8.5,20.58,19.8,39.6,32.09,58.08
	c1.14,1.72,2.57,3.25,3.94,4.96c-0.83-9.48-1.58-18.48-2.46-27.46c-0.11-1.07-0.99-2.07-1.53-3.1
	c-6.97-13.21-11.36-27.25-10.43-42.2c1.31-21.1,3.73-42.13,5.42-63.21c0.22-2.69-0.23-6.22-1.83-8.13
	c-10.04-11.99-20.03-24.1-31.1-35.11c-3.5-3.48-10.36-5.44-15.48-5.1c-14.24,0.95-27.42,5.43-36.75,17.41
	c-2.76,3.54-5.65,7-8.59,10.4c-4.96,5.73-6.71,12.53-6.86,19.88c-0.33,16.16-0.69,32.31-0.8,48.47
	C107.96,145.03,109.27,146.96,110.53,148.06z"/>
<path class="st2" d="M319.76,193.25c12.71-0.35,25.39-3.25,37.98-5.53c14.44-2.62,27.93-7.53,38.85-18.02
	c3.09-2.96,4.33-6.12,3.54-10.25c-1.88-9.89-6.33-18.26-16.12-21.89c-19.16-7.11-38.52-13.68-57.89-20.22
	c-7.08-2.39-14.09-1.24-20.9,1.82c-11.53,5.19-23.19,10.1-34.66,15.4c-1.41,0.65-2.66,2.83-2.96,4.49
	c-1.67,8.99-2.24,18.26-4.64,27.03c-7.28,26.6-20.46,50.03-39.96,70.15c6.2,5.97,7.76,6.21,14.19,1.17
	c9.43-7.4,18.71-14.99,28.01-22.56C281.11,201.88,298.64,193.84,319.76,193.25z"/>
<path class="st2" d="M84.97,234.93c6.72-2.39,13.26-5.34,19.75-8.32c10.36-4.77,21.15-6,32.21-3.69c9.12,1.9,18.06,4.67,27.18,6.61
	c12.48,2.65,24.89,5.26,34.56,14.51c0.14,0.13,0.6-0.08,2.39-0.37c-2-1.8-3.28-2.95-4.56-4.11c-19.5-17.65-38.99-35.31-58.5-52.95
	c-0.6-0.54-1.26-1.32-1.96-1.42c-5.55-0.72-8.45-4.94-11.78-8.64c-1.54-1.71-3.09-3.61-5.03-4.74c-5.46-3.18-11.13-6.01-16.72-8.98
	c-14.66-7.77-30.23-12.62-46.85-12.34c-18.98,0.32-33.94,5.63-38.56,27.16c-0.59,2.76-1.72,5.42-2.25,8.19
	c-1.66,8.67-4.35,16.76-11.69,22.47c-0.14,0.11,0.01,0.59,0.05,1.32c2.8-0.22,5.64-0.18,8.36-0.72c7.71-1.53,14.59-0.03,21.6,3.65
	c14.59,7.67,29.49,14.74,44.39,21.79C79.67,235.35,82.81,235.7,84.97,234.93z"/>
<path class="st2" d="M183.61,239.2c0.01-0.6,0.02-1.21,0.03-1.81c-4.67-1.52-9.28-3.22-14.02-4.5c-4.49-1.21-9.29-1.42-13.62-3.01
	c-22.71-8.34-43.74-5.8-65.24,5.7c-23.24,12.44-45.79,25.2-62.9,45.73c-3.04,3.65-6.32,7.69-7.63,12.1
	c-4.79,16.08-8.93,32.36-13,48.65c-1.36,5.43-0.9,10.92,2.59,15.77c5.06,7.04,6.91,7.48,12.21,0.73
	c10.27-13.07,19.77-26.74,30.15-39.72c4.9-6.14,10.3-12.5,16.84-16.59c13.66-8.55,28.2-15.68,42.42-23.33
	c3.5-1.89,7.88-2.79,10.56-5.45c10.23-10.11,22.97-15.69,35.72-21.48C166.48,248.01,174.99,243.48,183.61,239.2z"/>
<path class="st2" d="M233.18,158.87c-0.17,1.72-0.02,3.48-0.02,5.22c0.41,0.03,0.81,0.06,1.22,0.09c0.62-0.78,1.25-1.56,1.85-2.35
	c8.01-10.46,15.94-20.95,27.9-27.44c1.25-0.68,1.95-2.88,2.36-4.51c1.29-5.15,1.75-10.57,3.59-15.5c2.92-7.79,4.65-15.68,4.02-23.92
	c-0.59-7.6,1.83-14,6.19-19.99c5.37-7.4,11.02-14.66,15.75-22.46c6.86-11.35,11.84-23.79,21.19-33.68c2.63-2.78,3.3-7.43,5.1-11.78
	c-14.3,0.35-26.77,1.52-38.2,7.91c-4.19,2.34-8.66,4.33-13.21,5.87c-7.95,2.7-14.74,7.1-20.05,13.45
	c-8.31,9.94-16.7,19.87-24.21,30.42c-5.04,7.08-8.74,15.14-12.77,22.91c-2.14,4.13-1.14,7.88,1.34,12.05
	C226.86,114.73,235.46,135.29,233.18,158.87z"/>
<path class="st2" d="M292.48,376.4c-14.99-12.73-32.7-17.95-52.03-18.51c-4.65-0.13-8.62,1.53-11.21,5.39
	c-6.56,9.78-14.01,19.17-19.14,29.68c-13.83,28.38-20.08,59.09-25.33,89.99c-0.18,1.06,0.12,2.19,0.26,4.23
	c2.3-1.63,4.12-2.67,5.65-4.04c21.57-19.32,43.12-38.66,64.6-58.08c3.82-3.45,7.45-7.13,10.88-10.96
	c4.3-4.79,7.95-10.19,12.54-14.66c3.89-3.8,8.83-6.49,13.1-9.94C296.86,385.39,297.12,380.35,292.48,376.4z"/>
<path class="st2" d="M234.32,244.08c-4.52,5.53-8.75,11.3-13.15,16.93c-1.41,1.8-2.75,3.97-4.64,5.03
	c-5.93,3.3-11.92,6.65-18.25,9.01c-4.57,1.7-9.69,2-14.61,2.6c-1.38,0.17-2.89-0.8-4.34-1.25c-0.08-0.67-0.17-1.33-0.25-2
	c8.44-2.4,16.89-4.81,25.33-7.21c-0.11-0.48-0.23-0.96-0.34-1.44c-8.1-3.06-16.44-2.53-24,1.08c-8.82,4.21-17.19,9.47-25.33,14.91
	c-4.08,2.73-8.02,6.75-5.72,12.61c10.99,28.02,29.41,48.44,59.05,57.29c3.98,1.19,7.89,2.64,11.74,4.17
	c5.48,2.19,6.41,1.99,7.21-3.84c1.18-8.57,1.18-17.34,2.8-25.81c5.05-26.39,8.48-52.93,9.3-79.79c0.04-1.38-0.43-2.77-0.66-4.15
	C237.04,242.82,235.17,243.04,234.32,244.08z"/>
<path class="st2" d="M364.95,375.39c-3.79-3.64-8.28-6.72-12.87-9.3c-18.25-10.22-38.14-11.98-58.51-10.45
	c-5.44,0.41-10.81,1.67-16.22,2.54c-0.1,0.73-0.19,1.46-0.29,2.19c6.75,3.72,13.51,7.42,20.23,11.17c1.88,1.05,3.95,1.98,5.43,3.47
	c1.15,1.15,2.47,3.43,2.05,4.6c-1.32,3.68,0.74,4.93,3.37,5.89c2.8,1.01,5.66,2.03,8.58,2.51c24.11,3.91,48.24,7.7,71.68,11.42
	C380.92,391.69,373.18,383.29,364.95,375.39z"/>
<path class="st2" d="M257.26,142.19c-8.13,8.95-16.26,17.94-23.82,27.37c-4.11,5.12-7.83,10.82-10.43,16.82
	c-6.55,15.13-5.48,30.61-0.18,46.99c24.53-27.74,39.91-58.65,42.33-96.58C262.01,138.89,259.16,140.11,257.26,142.19z"/>
<path class="st2" d="M207.75,172.06c0.29,8.98,3.65,17.6,7.93,25.14c3.37-7.18,5.97-14.62,10.16-21.02
	c3.57-5.43,5.84-10.59,4.93-17.04c-0.21-1.47-0.16-3-0.03-4.49c1.95-21.95-7.71-40.41-17.61-58.81c-0.31-0.58-0.4-1.29-0.59-1.94
	c-0.56,0.27-1.12,0.54-1.68,0.82c-0.92,8.35-2.39,16.68-2.66,25.04C207.66,137.19,207.19,154.65,207.75,172.06z"/>
<path class="st2" d="M207.76,255.92c0.05-0.7,0.09-1.4,0.14-2.1c-6.53-4.48-13.02-9.02-19.66-13.34c-0.82-0.53-2.61-0.17-3.66,0.35
	c-16.07,8.02-32.13,16.05-48.08,24.3c-3.45,1.78-6.45,4.43-9.65,6.68c0.24,0.36,0.48,0.73,0.72,1.09
	c22.56-4.03,45.14-7.92,67.65-12.2C199.54,259.88,203.58,257.56,207.76,255.92z"/>
<path class="st3" d="M146.65,152.01c-0.05,11.33,3.41,25.53,11,35.09c1.15,1.45,3.75-1.42,7,0.39c-0.91-15.33,1-24.39-9-38.39
	c-0.29-0.17-4.72-3.83-5-4C149.34,147.91,146.66,150.46,146.65,152.01z"/>
<path class="st2" d="M150.71,146.08c0.23,0.17,0.46,0.34,0.69,0.51c-0.2-0.27-0.38-0.54-0.58-0.81
	C150.78,145.89,150.74,145.98,150.71,146.08z"/>
<path class="st3" d="M167.65,113.1c-6,5-1,47,8.84,45.54C186.65,154.1,180.65,119.1,167.65,113.1z"/>
<path class="st3" d="M137.65,184.1c3-13-16-31-33-39C103.65,158.1,130.65,192.1,137.65,184.1z"/>
<path class="st2" d="M200.89,261.85c2,0.78,3.68,1.14,4.99,2.04c1.68,1.16,2.81,3.18,5.38,1.55c1.91-1.22,4.77-1.49,6.02-3.11
	c4.32-5.56,8.11-11.53,12.65-18.13c-7.1,3.71-12.56,9.74-21.07,7.15C211.41,259.23,205.09,259.18,200.89,261.85z"/>
<path class="st2" d="M213.39,240.49c-2.14,1.21-4.68,1.7-6.97,2.68c-1.35,0.58-2.57,1.48-4.14,2.41c7.9,5.51,14.84,4.48,24-2.98
	C219.56,236.51,220.75,236.34,213.39,240.49z"/>
<path class="st2" d="M293.01,372.74c-0.24,0.39-0.48,0.78-0.71,1.18c3.02,2.14,6.04,4.28,9.06,6.41c0.31-0.45,0.63-0.89,0.94-1.34
	C300.49,375.13,296.43,374.38,293.01,372.74z"/>
</svg>
