<svg id="Layer_1" data-name="Layer 1" xmlns="http://www.w3.org/2000/svg" viewBox="0 0 141.08 361.97"><defs><style>.cls-1{fill:none;}.cls-2{fill:#f72d2d;}.cls-3{fill:#777;stroke:#fff;stroke-miterlimit:10;stroke-width:0.59px;}</style></defs><title>lineart4</title><path class="cls-1" d="M71.87,78.34A17.87,17.87,0,0,1,78.54,73c3.36-1.44,6.91-1.36,10.41-1.69a18,18,0,0,0,6.82-2.57,38.09,38.09,0,0,1,5.83-3.06,28.09,28.09,0,0,1,8.21-1.21,10,10,0,0,0,8.27-4.42c1.52-2.13,2.24-4.65,3.21-7a36.91,36.91,0,0,1,2.61-5.28,3.18,3.18,0,0,1-.4,0c-3.52-.5-6.87.92-10.35,1a6.73,6.73,0,0,0-3.1.41c-3.09,1.62-6.61,1.81-9.85,3-2.38.86-4.89,1.38-7.33,2.09-5,1.45-9.37,4.4-14.06,6.6a5.55,5.55,0,0,0-2.53,2,72,72,0,0,0-3.09,6.61c-1.45,3-2.39,6.12-3.58,9.17-.44,1.13-1.24,2.21-1.2,3.54C70.13,81.34,70.78,79.65,71.87,78.34Z"/><path class="cls-1" d="M46.26,144.16A22.56,22.56,0,0,0,41.89,141c-1.27-.8-1.23-1.17,0-1.95a28.59,28.59,0,0,1,4.81-2.36c2.4-1,4.89-.45,7.34-.57a4.87,4.87,0,0,0,4.16-2.93c-1.91,0-1.91,0-1.91-1.94,0-2.89-.14-5.79,0-8.68.19-3.25-1.39-5.86-3-8.31a16.74,16.74,0,0,0-8.83-6.67,36.67,36.67,0,0,0-10.88-2.09c-3.39-.08-6.77,0-10.16,0a13.76,13.76,0,0,1-3.27-.42c-1.88-.41-1.87-.46-1.87,1.44,0,3.09.55,6.3-.13,9.24A67.38,67.38,0,0,0,16.44,131a16.65,16.65,0,0,0,2.69,9,26.13,26.13,0,0,0,4.65,5.56,26.52,26.52,0,0,0,7.59,4.64,15.31,15.31,0,0,0,6.48,1.49c4.21-.09,8.43,0,12.65,0h1.17c-.3-1.34-1.56-1.81-2-2.9A15.59,15.59,0,0,0,46.26,144.16Z"/><path class="cls-1" d="M44.27,28.18c-1.55-2.44-2.9-5-4.69-7.31a39.53,39.53,0,0,0-5.12-5.8c-2.6-2.26-5-4.7-8.16-6.21s-6.25-2.93-9.37-4.43c-2.14-1-4.07-2.54-6.82-2.85,8.09,17.55,19,32.53,35,43.46a11.65,11.65,0,0,1,.38-4.63C46.72,36.16,46.76,32.09,44.27,28.18Z"/><path class="cls-1" d="M64.9,133.39c2.86-.52,4.92.82,6.47,3a19.84,19.84,0,0,1,2.25,5.31c1.07,3.06,1.51,6.37,3.27,9.16s2,5.61,2,8.64c0,2.06,0,4.12,0,6.18A2.5,2.5,0,0,0,80.41,168c1,.5,1.29-.46,1.74-.91,2.43-2.43,4.23-5.4,6.8-7.73a9,9,0,0,0,3.25-6c.33-4.35,1.11-8.76-1.53-12.72a30.85,30.85,0,0,0-3.83-5,21.71,21.71,0,0,0-5.68-3.46,9.38,9.38,0,0,0-3.85-.91c-3.41-.15-6.72.63-10.06,1-1.44.16-3.08-.16-4.72,1.1A15.11,15.11,0,0,0,64.9,133.39Z"/><path class="cls-1" d="M60.49,132.76c-.93,1-1.68,1.66-2.33,2.44a5.15,5.15,0,0,1-4,2c-3,.07-6-.31-8.78,1.2-.86.47-1.75.91-2.79,1.44a23,23,0,0,1,8.49,8.95,15.09,15.09,0,0,0,4.55,4.93,41.91,41.91,0,0,1,3.58,2.54A52.42,52.42,0,0,0,72,164.34a30,30,0,0,0,5.64,2.29,6.85,6.85,0,0,0-1.48-2.51c-1.6-2.36-1.8-5.16-2.47-7.78-.9-3.48-1.61-7.05-3.44-10.14a31.76,31.76,0,0,0-7.92-8.82A4.4,4.4,0,0,1,60.49,132.76Z"/><path class="cls-1" d="M124.94,137.22c-2.09-3-4.45-5.84-6.54-8.85a95.29,95.29,0,0,0-11.18-12.87,56.75,56.75,0,0,0-15.46-11.17c-4.28-2.07-8.67-2.58-13,.22,2.32,0,4.64,0,7,0a20.59,20.59,0,0,1,3.84.49,10.87,10.87,0,0,1,6.73,4.88q3.8,5.58,7,11.48c1.61,2.92,2,6.39,4,9.17,1.89,2.53,3.8,5.07,7,5.71A21.06,21.06,0,0,1,126,142.61a13.3,13.3,0,0,0,3.33,2.4,3,3,0,0,0-.13-.9C127.79,141.8,126.48,139.43,124.94,137.22Z"/><path class="cls-1" d="M62.6,136.15a25.53,25.53,0,0,1,4.69,4.36,29.54,29.54,0,0,1,5.31,7.87c1.36,3.16,1.72,6.58,2.81,9.8.66,1.93.47,4.18,2.34,5.92,0-1.34,0-2.46,0-3.58a17.46,17.46,0,0,0-2.44-10.27,7.92,7.92,0,0,1-1.07-2.16,93.15,93.15,0,0,0-3-9.56c-.75-1.91-1.89-3.56-4-3.89-1.83-.29-3.73.1-6-.39C62.05,134.92,61.94,135.7,62.6,136.15Z"/><path class="cls-2" d="M69.21,48.61c-.08-.66,0-1.41-.92-1.47-.78,0-1.45-.17-1.85,1a65.72,65.72,0,0,0-1.7,7.92c-.08.39-.15.77-.2,1.16a10.15,10.15,0,0,0,1.37.1h0a14.77,14.77,0,0,1,1.66-2.82A7.79,7.79,0,0,0,69.21,48.61Z"/><polygon class="cls-3" points="72.77 166.08 72.76 166.07 72.76 166.07 72.77 166.08"/><path class="cls-3" d="M63.05,57.12c-.12,1.75.2,3.55-.35,5.25a6.75,6.75,0,0,0-.27,2c0,.66.13,1.31-.52,1.92-.33.31-.14,1.19.18,1.76.15,1.46-.73,2.78-.51,4.4-1-.7-1.8-1.39-1.83-2.62-.71-.36-.71-1.21-1.16-1.75-.73-.38-1-1.18-1.47-1.76-.16,0-.3-.12-.23-.33-.2-.39-.4-.78-.59-1.18-.82-1.83-2.2-3.31-3.17-5.05a2.31,2.31,0,0,1-.15-.53A1.86,1.86,0,0,1,52.39,58c-.46-1.39-1.74-2.35-2.06-3.83-.34-.07-.23-.37-.29-.58-.47-.43-1.22-.8-.19-1.46.38-.23.29-.64,0-1-.54-.65-1.06-1.31-1.58-2-.25-.14-.51-.26-.51-.6-2.51-2.78-1.66-5.81-.68-8.85l.09-.87a18.68,18.68,0,0,0-.5-8.85l-.3-.93-.44-.49c-1.52-2.47-3.06-4.94-4.55-7.43a9,9,0,0,0-.71-.78,38.22,38.22,0,0,0-3.87-4.75L36,14.81l-5.63-5a2,2,0,0,1-1.46-.88c-2.81-1.48-5.61-3-8.54-4.22-.21.07-.28-.07-.32-.23l-2-.87A1.78,1.78,0,0,1,16.78,3c-2-.93-3.74-2.25-6-2.57A4.41,4.41,0,0,0,9.39.33c-.73.13-1.58.16-.8,1.41A35.23,35.23,0,0,1,10.85,6c1.27,2.86,3,5.47,4.31,8.32a23,23,0,0,0,4.34,6.45,14.45,14.45,0,0,1,3.27,4.4,9,9,0,0,0,1.82,2.11A8.33,8.33,0,0,1,26.12,30v0q0-.32.33-.18l1.27,1.62c.27.95,1.18,1.34,1.75,2a2.71,2.71,0,0,1,1.11,1.21c2,1.55,3.88,3.33,5.88,4.93,2.68,2.15,5.4,4.26,7.93,6.6a5.7,5.7,0,0,1,1,1.39c.17,0,.3.12.24.33l.62,1.09.91,1.82.74,1.86c.62,1.06,1.24,2.12,1.85,3.18l3.6,6.81s0,.11,0,.13c1.47,1.08,1.83,2.91,2.82,4.32.84,1.2,2.32,2.07,2.45,3.75.32.07.24.35.27.56.56.21.58.82.9,1.2.88.18.95,1.26,1.74,1.54A1.16,1.16,0,0,0,62.68,73c-.06-1.81.72-3.48.69-5.27.18-1.86.25-3.73.58-5.56.29-1.64.35-3.3.59-5A9.49,9.49,0,0,1,63.19,57ZM45.47,40.41A11.65,11.65,0,0,0,45.09,45C29.15,34.11,18.2,19.13,10.11,1.58c2.75.31,4.68,1.83,6.82,2.85,3.12,1.5,6.26,2.93,9.37,4.43s5.56,4,8.16,6.21a39.53,39.53,0,0,1,5.12,5.8c1.79,2.3,3.14,4.87,4.69,7.31C46.76,32.09,46.72,36.16,45.47,40.41Z"/><path class="cls-3" d="M63.05,108.94h0Z"/><path class="cls-3" d="M130.72,144.79a2.5,2.5,0,0,1-.3-1.06,5.07,5.07,0,0,1-1.18-2.06c-1.26-1.1-1.5-2.85-2.57-4.09-.3-.36-.82-.66-.88-1.23-.17-.41-.74-.6-.67-1.16-1.43-1.07-2-2.83-3.16-4.1a3.91,3.91,0,0,1-1-1.2,1.91,1.91,0,0,1-.59-1.18c-2.21-2.14-3.8-4.79-5.87-7.05l-.85-.84L109,115.48l-.9-.91c-.59-.29-.74-1.08-1.44-1.24a5.64,5.64,0,0,0-1.49-1.39c-2-1.72-4.28-3-6.18-4.79-.21.07-.27-.07-.32-.23a5.28,5.28,0,0,1-2.3-1.33,19.08,19.08,0,0,0-9.74-4H82.46c-1.55-.23-2.6.81-3.8,1.48l-1.64.59c-.16.17-.3.46-.5.51-2.73.66-4.6,2.63-6.7,4.26.09.67-.58.59-.88.88-.22.82-1.46.8-1.49,1.79-1.09,2.48-2.47,4.81-3.91,7.41.27-2.4.38-4.61.81-6.75.19-.92-.25-1.93.41-2.77.11-6,.44-12.06.35-18.1,0-1.93.19-4,1.52-5.48.85-.92,1.63-2.32,3.25-2.3v0c-.32-1.21,1-1.11,1.45-1.78,1.21-1.85,2.21-3.94,4.34-5l1.78-1.39c2-1.07,4.15-1.36,6.24-2a4.48,4.48,0,0,1,1.71-.06h1.47l5.6-.88a.58.58,0,0,1,.26-.06,103.4,103.4,0,0,1,9.37-5.1,5.67,5.67,0,0,1,1.25-.22c.4-.56,1-.11,1.48-.3a12.05,12.05,0,0,1,4.43-.5h.58a10.15,10.15,0,0,0,6.49-2.2,14.27,14.27,0,0,0,4.73-6.64c.52-1.59,1.37-3.09,2-4.64.45-1.23,1.18-2.28,1.6-3.49.42-.5,1.13-.91.81-1.7s-1.16-.48-1.78-.51c-1.36-.06-2.72,0-4.08-.06H119l-1.91.59c-2.53.48-5.15.26-7.65,1-1.93.53-3.8,1.25-5.71,1.86-1.07.35-2.26.2-3.27.8-.61.48-1.41.22-2.07.51-2,1.3-4.5,1.19-6.68,2.06a26.3,26.3,0,0,0-5.37,2.35,37.44,37.44,0,0,1-5,2.44h0c-2.18,1.3-4.69,2.1-6.33,4.21.15.32.24.63-.18.83-1.53,1.26-1.57,3.27-2.43,4.87-.72,1.36-1.1,2.88-2,4.18a4.2,4.2,0,0,0-.37,1.2c.21.73-.3,1.21-.59,1.77-.87,1.24-.73,2.82-1.39,4.14l-1.46,3.9a15.25,15.25,0,0,1-1.17-5.39,41,41,0,0,1-.26-9.9c.06-1.48-.16-3.09.55-4.53,0-.32-.23-.68.21-.89a10.83,10.83,0,0,1,1.39-5.2,10.88,10.88,0,0,1-1.41.1,23.42,23.42,0,0,0-1.72,8c0,.81-.22,1.61-.34,2.41,0,2.16,0,4.32,0,6.47a26.16,26.16,0,0,0,.84,7.37c.13.58.25,1.17.38,1.75,1,1.24-.15,2.21-.52,3.17a7.67,7.67,0,0,0-.74,3v11.19a3.09,3.09,0,0,1-.3,1.77v5a1.17,1.17,0,0,1-.5,1.45c.15,0,.27.12.21.32v1.18c.25.56-.29,1-.3,1.47,0,.8.3,1.63-.29,2.36-.47,1.65-.06,3.4-.54,5.06-.26.89.18,1.83-.2,2.74-.07.18.45.82,1.05.72a32.75,32.75,0,0,1,3.56-6.94c-.89,2.52-.63,5.41-2.61,7.56-1.14,2.88-2.94,5.4-4.43,8.09-.46.84-1.09.35-1.62.4-.74.07-.44-.61-.45-1a75.07,75.07,0,0,1,0-7.94c.34-3.47-1.2-6.33-2.92-8.94a18.63,18.63,0,0,0-6.3-6.18c-1.51-.84-3.25-1.12-4.69-2.11a11.67,11.67,0,0,1-3.53-.89l-.58-.08c-.72.19-1.34-.42-2.06-.29-5-.47-9.94-.13-14.91-.27a15.18,15.18,0,0,1-2.76-.61H18c-1.62.32-1,1.51-1,2.47,0,3.41.44,6.84-.26,10.24.19.39-.17.59-.29.88v.59a18.61,18.61,0,0,1-.88,3.53c-.68,4.41,0,8.84-.29,13.25a1.65,1.65,0,0,1,.37,1.17A11.64,11.64,0,0,0,17.06,139a37.64,37.64,0,0,0,2.71,4.13c1,1.24,2.35,2.18,3.24,3.54.43,1.25,1.76,1.47,2.68,2,1.31.73,2.45,1.73,3.83,2.35a8.63,8.63,0,0,0,2.27.74l.78.31,3.36.87H49.18c1.35,0,2.75-.4,4,.58.28.22.5.43.46.81a2.92,2.92,0,0,1,2.06,1.18,3.75,3.75,0,0,1,2,1.8c.32.38.63.77.94,1.15.17,0,.3.11.24.32.16,1,1.27,1.1,1.78,1.78l1-.32c0-.18-.15-.58.22-.4.16.07,1,.33.32.88l.13.12c1-.36,1.52.56,2.24.94a2.94,2.94,0,0,1,2.09,1.41.4.4,0,0,1,.26.06,27.59,27.59,0,0,0,5.6,2.65c.2-.07.27.06.31.22.22.05.5,0,.58.29a20.59,20.59,0,0,1,5.08,2c1.35.7,2.34,1.08,3.71.64.85-1.67,2.53-2.63,3.56-4.14a4.88,4.88,0,0,1,1.5-2.21c1.74-1.71,3.66-3.23,4.9-5.43a10.2,10.2,0,0,0,1.57-5.35c0-2.1,0-4.21,0-6.31a4.84,4.84,0,0,0-.56-2.46l-.3-1.33c-1.34-2.28-3.06-4.3-4.54-6.48-.72-1.08-2.16-1.69-3.32-2.45-.74-.48-1.61-.8-2.36-1.28-3.22-2.07-6.74-1.45-10.23-1.23a29.94,29.94,0,0,1-4,.41c-1.61.6-3.35.4-5,.84-.47.13-.94.55-1.51.27-.28,0-.66.23-.81-.14s.15-.21.31-.12v-.05c-.28-.62.51-.68.57-1.11-.07-.21.07-.28.23-.32,1.29-2.35,2.27-4.85,3.71-7.14,1.23-2,1.27-4.37,1.88-6.57a11.3,11.3,0,0,1,.86-2.47,2,2,0,0,1,.91-1.49,6.48,6.48,0,0,1,3.42-4.7,15.35,15.35,0,0,0,1.65-1.16c2-1.32,4.25-.82,6.43-.83h3.23a15.21,15.21,0,0,1,7.47,1.4,10,10,0,0,1,4.21,4.12c1.62,2.51,3.1,5.15,4.72,7.68a16.33,16.33,0,0,1,2.46,5.32c.31,1.48,1.4,2.57,1.46,4.06a1.86,1.86,0,0,1,.63,1.2l.56.58c.16,0,.31.1.23.32l1.25,2a4.12,4.12,0,0,1,1.19,1.2c.88.36,1.13,1.32,1.85,1.9a10,10,0,0,0,4,2,5.14,5.14,0,0,1,2.06.59c2.55.26,4.39,2,6.49,3.15a6.26,6.26,0,0,1,1.47,1.48c1.56,1.12,2.86,2.6,4.71,3.32h.88C130.83,146.11,131.34,145.75,130.72,144.79ZM69.61,78.56c1.19-3,2.13-6.2,3.58-9.17a72,72,0,0,1,3.09-6.61,5.55,5.55,0,0,1,2.53-2c4.69-2.2,9-5.15,14.06-6.6,2.44-.71,4.95-1.23,7.33-2.09,3.24-1.18,6.76-1.37,9.85-3a6.73,6.73,0,0,1,3.1-.41c3.48-.07,6.83-1.49,10.35-1a3.18,3.18,0,0,0,.4,0A36.91,36.91,0,0,0,121.29,53c-1,2.39-1.69,4.91-3.21,7a10,10,0,0,1-8.27,4.42,28.09,28.09,0,0,0-8.21,1.21,38.09,38.09,0,0,0-5.83,3.06A18,18,0,0,1,89,71.31c-3.5.33-7,.25-10.41,1.69a17.87,17.87,0,0,0-6.67,5.34c-1.09,1.31-1.74,3-3.46,3.76C68.37,80.77,69.17,79.69,69.61,78.56ZM50.5,151.66c-4.22,0-8.44-.06-12.65,0a15.31,15.31,0,0,1-6.48-1.49,26.52,26.52,0,0,1-7.59-4.64A26.13,26.13,0,0,1,19.13,140a16.65,16.65,0,0,1-2.69-9,67.38,67.38,0,0,1,1.69-15.3c.68-2.94.13-6.15.13-9.24,0-1.9,0-1.85,1.87-1.44a13.76,13.76,0,0,0,3.27.42c3.39,0,6.77-.08,10.16,0a36.67,36.67,0,0,1,10.88,2.09,16.74,16.74,0,0,1,8.83,6.67c1.62,2.45,3.2,5.06,3,8.31-.17,2.89,0,5.79,0,8.68,0,1.89,0,1.89,1.91,1.94A4.87,4.87,0,0,1,54,136.07c-2.45.12-4.94-.42-7.34.57A28.59,28.59,0,0,0,41.85,139c-1.19.78-1.23,1.15,0,1.95a22.56,22.56,0,0,1,4.37,3.21,15.59,15.59,0,0,1,3.39,4.6c.46,1.09,1.72,1.56,2,2.9Zm16.75-19.35c3.34-.37,6.65-1.15,10.06-1a9.38,9.38,0,0,1,3.85.91,21.71,21.71,0,0,1,5.68,3.46,30.85,30.85,0,0,1,3.83,5c2.64,4,1.86,8.37,1.53,12.72a9,9,0,0,1-3.25,6c-2.57,2.33-4.37,5.3-6.8,7.73-.45.45-.76,1.41-1.74.91a2.5,2.5,0,0,1-1.49-2.37c0-2.06,0-4.12,0-6.18,0-3-.33-6-2-8.64s-2.2-6.1-3.27-9.16a19.84,19.84,0,0,0-2.25-5.31c-1.55-2.15-3.61-3.49-6.47-3a15.11,15.11,0,0,1-2.37,0C64.17,132.15,65.81,132.47,67.25,132.31Zm-.06,2.33c2.12.33,3.26,2,4,3.89a93.15,93.15,0,0,1,3,9.56,7.92,7.92,0,0,0,1.07,2.16,17.46,17.46,0,0,1,2.44,10.27c0,1.12,0,2.24,0,3.58-1.87-1.74-1.68-4-2.34-5.92-1.09-3.22-1.45-6.64-2.81-9.8a29.54,29.54,0,0,0-5.31-7.87,25.53,25.53,0,0,0-4.69-4.36c-.66-.45-.55-1.23-1.43-1.9C63.46,134.74,65.36,134.35,67.19,134.64Zm-4.86,2.74a31.76,31.76,0,0,1,7.92,8.82c1.83,3.09,2.54,6.66,3.44,10.14.67,2.62.87,5.42,2.47,7.78a6.85,6.85,0,0,1,1.48,2.51A30,30,0,0,1,72,164.34a52.42,52.42,0,0,1-12.8-8.06,41.91,41.91,0,0,0-3.58-2.54,15.09,15.09,0,0,1-4.55-4.93,23,23,0,0,0-8.49-8.95c1-.53,1.93-1,2.79-1.44,2.78-1.51,5.8-1.13,8.78-1.2a5.15,5.15,0,0,0,4-2c.65-.78,1.4-1.47,2.33-2.44A4.4,4.4,0,0,0,62.33,137.38ZM126,142.61a21.06,21.06,0,0,0-11.56-6.31c-3.24-.64-5.15-3.18-7-5.71-2.08-2.78-2.42-6.25-4-9.17q-3.25-5.9-7-11.48a10.87,10.87,0,0,0-6.73-4.88,20.59,20.59,0,0,0-3.84-.49c-2.32-.07-4.64,0-7,0,4.31-2.8,8.7-2.29,13-.22a56.75,56.75,0,0,1,15.46,11.17,95.29,95.29,0,0,1,11.18,12.87c2.09,3,4.45,5.84,6.54,8.85,1.54,2.21,2.85,4.58,4.24,6.89a3,3,0,0,1,.13.9A13.3,13.3,0,0,1,126,142.61Z"/><path class="cls-3" d="M69,46.07A4.38,4.38,0,0,0,66.5,46a9.2,9.2,0,0,1,3.55.9A1.8,1.8,0,0,0,69,46.07Z"/><path class="cls-3" d="M68,56.24a10.11,10.11,0,0,1,1.51-2.68,4.1,4.1,0,0,0,.93-2.31v-.89c0-.62-.08-1.25,0-1.87a2.79,2.79,0,0,0-.35-1.6A9.2,9.2,0,0,0,66.5,46a2.39,2.39,0,0,0-1,.61c-.11.11-.11.35-.16.52,0,.33.22.71-.23.92-.1.29.17.69-.27.87-.13.28.15.7-.3.88-.71,1.69-.34,3.58-1,5.29A2.11,2.11,0,0,1,63.19,57a9.49,9.49,0,0,0,1.35.28c0-.39.12-.77.2-1.16a65.72,65.72,0,0,1,1.7-7.92c.4-1.18,1.07-1.06,1.85-1,.94.06.84.81.92,1.47a7.79,7.79,0,0,1-1.64,5.9,14.77,14.77,0,0,0-1.66,2.82,10.88,10.88,0,0,0,1.41-.1A9.06,9.06,0,0,1,68,56.24Z"/><path class="cls-3" d="M81,220.9a20.52,20.52,0,0,0,4.72,1.47,1.79,1.79,0,0,0,0,.23l-.32,1-5.17-1.44c0,1.12,1.2.84,1.68,1.4-.36.2-.45.59-.63.92-.18-.05-.41,0-.54-.16-2.52-2.33-5.7-2.53-8.87-2.76h-.59A5.16,5.16,0,0,0,68,222.6a.92.92,0,0,0-.91.61c-3.33,1.54-4.23,2.29-3.74,4.14v5c-.2,3-.4,5.89-.59,8.84v2.94a10.6,10.6,0,0,0-.33,1.66c-.31,5.11-.3,5.12,4.89,5.11,2.37,0,4.77-.21,6.91,1.17a.89.89,0,0,0-.63.85c-2.41-1.08-5-.82-7.51-.84a26,26,0,0,0-2.93,0c-.89.09-2.23.58-2,1.34a12.55,12.55,0,0,1-.14,7.16,15.24,15.24,0,0,0-.88,4.3c-.11,4.31,0,8.62,0,12.93,0,.42-.17,1,.32,1.18s.42-.65.84-.77c0,.46,0,.91.65.92-1.23,1.57-1.2,2,.22,3.55,1,.78,1.1,2.16,2.06,2.94l.36,1.45c-.23.13-.56.22-.41.58s.42.3.7.3l.25.05h0c0,.21,0,.5.29.58.24.54,0,1.64,1.21,1.11.21.07.27-.06.31-.23h0l.85-.05c.22.56.51,1,1.24.91-.69,1.42-.93,3.1-2.37,4.07a2.84,2.84,0,0,0,0-.65c-.34-.07-.3.23-.35.44-.36-.56-1-1-.9-1.78.53-.92-.31-.48-.59-.59l0,0a1.38,1.38,0,0,0-1.12-.61c0-.55,1.11-.69.53-1.46v-.35A11.67,11.67,0,0,1,63,286c.1-.11.4-.16.12-.39L63,286l-.54-.33c0-1-1-1.49-1.35-2.29a5.46,5.46,0,0,0-1.1-1.21c-.27.48-.55,1-.81,1.44a.88.88,0,0,0,0,.29l-.54.63c-.22-.37-.59-.31-.94-.33a12.27,12.27,0,0,1,1.34-2.8c.56-.69.26-1.18.19-1.82a92.5,92.5,0,0,1-.09-16.05c.16-2.59,1.86-5,1.12-7.76a2.8,2.8,0,0,0-.76,1.3,44,44,0,0,0-1.59,7.65c-.73,4.78-1,9.61-2,14.35a26.71,26.71,0,0,1-2.33,6.67,1.29,1.29,0,0,1-1.27.75c-.61-.07-.5-.72-.49-1.2,0-1.16.21-2.33.23-3.46a123,123,0,0,1,1.2-13.69c.53-4.18,1.31-8.23,3.41-12,.31-.55,1-.87,1-1.78-3.4.38-6.66-.31-9.95-.8s-6.52-.23-9.78-.34a3.46,3.46,0,0,0-3.14,1.7c-1.75,2.51-2,5.48-2.35,8.39-.27,2.61.8,5,1.83,7.36a21.67,21.67,0,0,0,7.5,9.12c2.35,1.68,3.52,4.34,5.67,6.14a1,1,0,0,0-.62.62c-.28-.16-.65-.25-.83-.49a35.64,35.64,0,0,0-6.55-6.38l-.84-.85-1.48-1.76-1.48-1.69a6.86,6.86,0,0,1-1.31-1.66c-.68-1.55-1.46-3.06-2.2-4.58l-.37-1.46c.19-.4-.18-.6-.3-.89.06-.25.13-.51-.23-.62-.49-3,.31-5.87.88-8.77.17,0,.3-.11.23-.32.32-.68.64-1.35.95-2,.17-.05.3-.12.24-.32A4.72,4.72,0,0,1,37.11,252h8.54a3.46,3.46,0,0,0,.93.33c3.65.14,7.21,1.13,10.9.92,1.81-.11,1.93-.2,1.4-2.17l.27-.52c.11-.21.32-.41.32-.62a45.46,45.46,0,0,1,.57-8,50.29,50.29,0,0,0,.37-5.5c.34-.11.27-.37.21-.61-.23-.71.33-1.33.31-1.95-.14-3.48.54-7-.52-10.43-.12-.28.15-.7-.3-.88a10.51,10.51,0,0,0-1.2-2.67.78.78,0,0,0-.5-.82,4,4,0,0,0-2.19-1.23c-1.22-.4-2.36-1.4-3.68-1.1a4.92,4.92,0,0,1-2.47,0l-.93.3-.71,0,0,0a8,8,0,0,0-4.53,2c-.8.12-1.24.76-1.77,1.26l0-.1a1.1,1.1,0,0,0-.86-.94c.23-.35.69-.15,1-.48A9.35,9.35,0,0,1,47.73,216c2.38-.39,4.78-.82,7.14-.06A11.64,11.64,0,0,1,60,219c-.27-1.84-1.27-3.41-1.35-5.22h1.08c.55.75-.33,1.95.88,2.59V200.25c.1-.64.19-1.28.29-1.93-.12-.87.53-1.6.5-2.45a3.89,3.89,0,0,1,1-2.67c.86-1,.79-2.18,1.19-3.25,0-1.28.56-2.53.3-3.83-.13-.62.21-1.17.24-1.78a107.73,107.73,0,0,0,0-11.92c-.1-1.89,0-3.92-.84-5.74-.42-.43,0-1.18-.56-1.55-.28-.44,0-1.14-.65-1.39v0a2.76,2.76,0,0,0-1.1-2.39l-.24-.24-.09-.58,1-.32.54.48.13.12a12.09,12.09,0,0,1,1.4,3c-.06.21.07.28.23.31h0c.13.28-.17.7.29.88a3.43,3.43,0,0,0,.61,2.08,16.89,16.89,0,0,1,.54,4.84c.18,4.41.13,8.83,0,13.24,0,2-.41,3.91-.67,6.16A10.63,10.63,0,0,1,68,189.33c0,.47.43.61.61.95-1,.59-2.12,1.15-3.12,1.81-.42.27-1,.6-1,1.18,0,1.7-.67,3.38-.19,5.18.23-.38.35-.75.74-.88a1,1,0,0,0,.64.63L64.25,202l-.09.57-.28.3-.55,0c-.63-.91-.13-2-.36-2.91v-4.27l-.22,0c-.29,1.44-.57,2.87-.86,4.31,0,5.79-.08,11.57,0,17.36a17.2,17.2,0,0,0,.89,3.84,2.2,2.2,0,0,0,.42,2c.11-.57.8-.76.72-1.38,2.48-3.1,5.91-1.63,8.94-1.66,1.7,0,3.45.08,5.18.1C79.12,220,79.91,221,81,220.9Zm-20.6,60,.13.07-.12-.07-.13-.07Zm-1.81-25.21a25.13,25.13,0,0,0-2.81,5.75,79,79,0,0,0-1.58,9.14c-.33,2.2-.38,4.42-.69,6.6s.23,4.38-.46,6.52c2.56-5.17,2.18-10.89,3.25-16.33.45-2.27.36-4.59.88-6.83C57.53,258.94,58.09,257.35,58.56,255.73Zm2.61-10.53a7.26,7.26,0,0,0-.49,3.37c.2,1.14-.47,2.24-.12,3.38C61.55,249.77,61.17,247.46,61.17,245.2Z"/><path class="cls-3" d="M78.05,283.63c4.81,0,9.62-.29,14.42.2l2.65,1c3.43,1.47,6.91,2.84,10.29,4.42a15.84,15.84,0,0,1,5.29,3.51,4,4,0,0,0,1.19,1.2,10.86,10.86,0,0,0,5,3.83c.45.61.88,1.25,1.78,1.18l.58.58.34.38a.15.15,0,0,0,.14.14c.12.34.41.34.69.36a.85.85,0,0,0,.87.58l.31.31a51.59,51.59,0,0,0,5.56,4.42c.81.51,1.26,1.51,2.1,2.06l.88.89a49.11,49.11,0,0,0,7,5.53l1.55,1.53.81.83,1.23,1.21c-.39,1-.94,1.2-1.72.5-.33-.29-.59-.17-.9-.17l-.28-.08c-.26-.91-1.07-.92-1.78-1.09a1.15,1.15,0,0,0-1.18-.3c-.48,0-.84-.37-1.37-.36-3.86.05-7.72.05-11.58.07a59.26,59.26,0,0,1-6.47-2.44c-.29-.53-.8-.13-1.18-.29a12.72,12.72,0,0,0-4.89-1.14c-4.79,0-9.59,0-14.38,0a8.84,8.84,0,0,1-3.27-.4,57.56,57.56,0,0,1-5.12-2.77,5.21,5.21,0,0,0-1.78-.38c-.3-.43-.58-.87-1.18-.88-.18-.45-.59-.18-.88-.29h0c0-.16-.11-.29-.32-.23a.58.58,0,0,0-.26-.06c0-.16-.12-.29-.33-.23a22.11,22.11,0,0,1-5.3-3.33c-.77-.65-1.77-1.24-2.16-2.09-.51-1.1-1.47-2-1.78-3-.4-1.36-1.82-2-1.91-3.43L70.63,293l.38-.87.55-.35c.36-.35,1.12,0,1.27-.69l.06-.06c.14.27.38.2.6.16H79c-1.63-.13-3.16-.79-4.78-.85,0-.16-.12-.29-.33-.23h-.59c-1.49-.49-3-.74-4.37.24-.73.12-1-.35-1.24-.91,0-.9.9-.78,1.31-1,2.49-1.46,4.68-3.47,7.54-4.3A2.47,2.47,0,0,0,78.05,283.63Zm58,31.79c.09.28.28.31.52.2l-.27-.4c-1.27-1-2.52-2.06-3.8-3.06-.78-.62-1.57-1.62-2.41-1.67a23.74,23.74,0,0,1-4.46-.95,42.41,42.41,0,0,1-12.53-5.13c-2.84-1.83-5.65-3.89-9.1-4.44s-6.65-2.09-9.83-3.57c-1.87-.87-3.74-1.79-5.69-2.53-4.87-1.83-9.9-1.48-14.91-1.41-1.68,0-1.94.72-1.5,2.41.36,1.33,1.28,2.3,1.87,3.48a16.57,16.57,0,0,0,7.76,7.47c3.17,1.57,6.49,2.84,9.66,4.44a9.17,9.17,0,0,0,4.26,1c3.87,0,7.75.08,11.63,0a26.73,26.73,0,0,1,12.11,2.85,8.82,8.82,0,0,0,3.38,1C127.16,315.21,131.61,314.8,136,315.42Zm-14.27-12a29.76,29.76,0,0,0-5.52-4.48c-1.88-1.28-3.92-2.32-5.29-4.27a10.15,10.15,0,0,0-4.08-3.37c-3.12-1.44-6.3-2.73-9.42-4.16a21.48,21.48,0,0,0-11.21-2.37,32.34,32.34,0,0,1-5.3,0c-3.79-.26-6.63,1.79-9.58,3.74,1.73-.05,3.25.69,4.87,1,4.75.83,9.6,1.29,13.92,3.73a2.54,2.54,0,0,0,.56.13q6.48,1.6,13,3.23a37.54,37.54,0,0,0,4.08,1.14,24,24,0,0,1,10.56,3.89A29.86,29.86,0,0,0,121.76,303.39Zm-25.33-7.5c0,.41.24.36.38.43a24,24,0,0,0,7.23,2.37c3.21.55,6,2.31,8.63,4.11,4.58,3.13,9.74,4.71,15.1,6.09-.81-1.46-2.34-1.75-3.47-2.6-2.27-1.71-5-2.71-7.38-4.22a23.15,23.15,0,0,0-5.7-2.43c-2-.59-4-.63-6-1.3C102.39,297.34,99.4,296.69,96.43,295.89Z"/><path class="cls-3" d="M63.66,291.26a1.38,1.38,0,0,1,1.12.61c-1.51,1.12-1.41,2.94-1.7,4.47-.89,4.74-.64,9.55-.64,14.35,0,.22-.07.51.28.56.51.08,1,0,1.2-.53l2-.09,3.58.35c1.54.14,2,1.56,2.79,2.48,1.94,2.23,3.75,4.57,5.53,6.94a26.85,26.85,0,0,1,2.87,5.3c-.11.61.38,1,.59,1.47a14.45,14.45,0,0,0,2.25,4.72,4.14,4.14,0,0,1,.61,2.43c.1,3.65.14,7.33-.9,10.86a45.08,45.08,0,0,1-2.48,5.62l-.45,1.1a49.28,49.28,0,0,0-3.82,4.82,30.71,30.71,0,0,1-4.5,4.62c-.77.63-1.79.16-2.76.18a13.65,13.65,0,0,0,5.29-4.27c1.91-2.36,4.1-4.58,5.33-7.4,1.39-3.17,3.17-6.19,2.95-10-.12-2.07.27-4.19,0-6.32a3.78,3.78,0,0,0-.71-1.51,32.44,32.44,0,0,1-2.44-5.58,22,22,0,0,0-4-7.25c-1.85-2.05-3.35-4.37-5.25-6.35-1.06-1.1-5.53-1.56-6.49-.44a5.82,5.82,0,0,0-1.44,3.74c0,1.77,0,3.53,0,5.3a52.9,52.9,0,0,1-1.08,11.34c-.44,2.06.11,4.33.66,6.41a43.21,43.21,0,0,1,.91,14.14c-.15,2.15-1.86,3.93-3.66,5.32a21.47,21.47,0,0,1-6,2.82c-1.11.4-1.69-.12-1.72-1.22a6.08,6.08,0,0,1,.83-3.81,84.48,84.48,0,0,0,5.1-9,18.12,18.12,0,0,0,1.38-5.17c.4-2.6.6-5.23,1.2-7.79a5.81,5.81,0,0,0,0-1.18q0-7.5,0-15a6.87,6.87,0,0,1,.86-3.71c.37-.6.47-1.12-.46-1.38-3.61-1-7.16-2.41-11-2.25a3.92,3.92,0,0,0-3.3,1.89C44.8,315.11,43,317,41.7,319.31a98.63,98.63,0,0,0-4.07,9.56A27.65,27.65,0,0,0,36,341.79a41.64,41.64,0,0,0,2,9.42c1.1,3.47,2.74,6.73,3.63,10.25-1.38.28-1.38.28-1.63-1.16,0-.26.13-.6-.26-.75-.06-.21,0-.51-.29-.59a19.56,19.56,0,0,0-1.77-4.41l-.38-1.76c.23-.66-.93-.76-.59-1.47a3.23,3.23,0,0,0-.59-1.77L35,344.25v-1.18c.06-.21-.07-.27-.23-.32h0c0-2.79-.05-5.58,0-8.37.05-1.94,1-3.66,1.5-5.49a12.47,12.47,0,0,1,1.11-3.37c.9-1.37.48-3.12,1.63-4.29,1.15-.2.64-1.51,1.34-2,.74-2,2.24-3.57,3.45-5.3.5-.72,1.12-1.4,1.57-2.12.94-1.51,2.34-1.82,3.87-2,2.39-.29,4.64.44,6.92,1l3.3.78c1.48.36,1.73.15,1.72-1.48v-8.83c-.19-.44.29-.68.26-1.18a14.22,14.22,0,0,1,.92-6.18c-.08-.78.6-1.32.66-2l.28-.28c.17-.05.31-.12.23-.34Zm-3,47.82c0,1.1-.55,2.05-.59,3.07a14.41,14.41,0,0,1-1.3,5.5c-1.36,2.9-3.12,5.6-4.71,8.39-.76,1.32-1.89,2.55-1.21,4.28A19.5,19.5,0,0,0,59,357.49a6.66,6.66,0,0,0,2.78-4.66,45.24,45.24,0,0,0-.23-10.07C61.35,341.51,61,340.3,60.65,339.08Z"/><path class="cls-3" d="M85.39,223.55l.32-1c1,0,1.68.83,2.62,1l.27.28c.05.16.12.29.33.22.63-.08.83.77,1.47.68.2.57.69.57,1.17.58l.28.28c.05.16.11.3.32.23l4.41,1.85c.08.34.38.23.59.3,2.17,1.07,4.32,2.19,6.53,3.19,3.79,1.74,7.57,3.51,11.45,5.07a35.44,35.44,0,0,1,7,3.52l.88.58c.32.61,1.06.7,1.48,1.19,1.46,1,2.48,2.48,3.86,3.58l.54.51,2.37,1.8c-.12.93,1.07.74,1.24,1.43.06.48,1,.83.23,1.44l-.58.08c-.7,0-1.43-.24-2.06.3-1.16-.36-2.08.46-3.13.66a17.52,17.52,0,0,1-3,.52h-3c-1.82-.25-3.55-.22-5.21-1.66a19.88,19.88,0,0,0-7.45-4.23,3.28,3.28,0,0,0-2.34-.68c-.81-.79-2.2-.46-2.82-1-1.52-1.37-3.49-1.86-5.08-3.1-2.33-1.82-4.82-3.43-6.59-5.86,0-.27-.1-.37-.36-.32-.82-.91-2-1.71-2.37-2.77-.42-1.35-1.39-2-2.22-2.84l-.27-.27c-.61-1.24-2-1.6-2.84-2.76-.47-.69-1.59-1.12-2.21-1.91.18-.33.27-.72.63-.92a19.57,19.57,0,0,1,3,2.39,12.56,12.56,0,0,0,2,2.19,12.52,12.52,0,0,1,3.21,3.47,28.06,28.06,0,0,0,5.39,6.13,46.11,46.11,0,0,0,5.92,3.94,24.36,24.36,0,0,0,5.5,2.49,21.91,21.91,0,0,1,7.83,3.83,10.23,10.23,0,0,0,6.56,2.73c3.37.1,6.46-.91,9.79-1.81-.13-.22-.4-.28-.57-.43-2.66-2.34-5.21-4.82-8-7a18.38,18.38,0,0,0-4.23-2.55,82,82,0,0,1-7.88-3.44c-1.2-.64-2.58-.92-3.81-1.51-2.67-1.27-5.29-2.63-7.93-3.95-2.45-1.22-5-2.1-7.45-3.42C89.31,225.52,87.34,224.55,85.39,223.55Z"/><path class="cls-3" d="M42.13,220.23c-1.53.9-3.08,1.78-4.59,2.72a47.6,47.6,0,0,1-6.49,3.19c-1.59.69-3,1.72-4.54,2.43-.61.09-.77,1-1.48.88h-5.3a29.76,29.76,0,0,1-8.47-1.82,18.1,18.1,0,0,1-4.17-2.35,14.52,14.52,0,0,0-5.76-1.75c-.45-.08-.91-.07-1-.61s.38-.81.83-1c1.36-.58,2.15-1.86,3.29-2.71.28-.21.49-.47.87-.47.21.07.28-.06.32-.23A.83.83,0,0,0,6.5,218c.52-.09,1.18.17,1.45-.57L10.57,216c.36-.31,1,.21,1.25-.38a10.19,10.19,0,0,0,1.87-.93c1.59-1.19,3.1-2.47,4.66-3.7a6.67,6.67,0,0,1,2.28-1.24l1.47-.88a75.08,75.08,0,0,1,8-2.82c1.82-.58,3.73-.88,5.6-1.31l2.05-.08h7.06l.92.14a10,10,0,0,0,2.88.81,3.37,3.37,0,0,0,2.39.81,11.43,11.43,0,0,0,3,1.18c2.46.22,3.46,2.07,4.64,3.75.23.32.28.78.62,1.05.19.48.69.84.56,1.44H58.66c-.51-.86-1-1.72-1.52-2.56a5.18,5.18,0,0,0-3-2.45A39.22,39.22,0,0,1,49,207.2c-4.94-2.17-10-1.44-15.08-.88-2.13.24-4.15,1.23-6.22,1.82a24.26,24.26,0,0,0-10.25,5.28c-2.87,2.68-6.61,3.65-9.84,5.59C6,220,4.25,220.75,3,222.14a34.88,34.88,0,0,1,5.47,2.63A20.06,20.06,0,0,0,13.33,227c3.56,1.3,7.28,1.21,11,1.18a1.56,1.56,0,0,0,1-.13,50.7,50.7,0,0,1,7.28-3.87,44.4,44.4,0,0,0,8.68-4.93A1.1,1.1,0,0,1,42.13,220.23Z"/><path class="cls-3" d="M64.76,291.85c.28.11,1.12-.33.59.59Z"/><path class="cls-3" d="M66.25,294.22c0-.21,0-.51.35-.44a2.84,2.84,0,0,1,0,.65C66.37,294.53,66.28,294.43,66.25,294.22Z"/><path class="cls-3" d="M65.71,198.2a1,1,0,0,1-.64-.63,23.45,23.45,0,0,1,5.53-5.84c.83-.61,1.77-1.08,3-1.79-1.89.09-3.43-.25-4.92.34-.18-.34-.65-.48-.61-.95a1.93,1.93,0,0,1,1.66-.57c1.75,0,3.5,0,5.25,0a14.09,14.09,0,0,0,3.55-.36c.43.1.59-.2.75-.5,4.15-1.11,8.39-.95,12.62-.92a8.06,8.06,0,0,1,2.68.24l3,1c.86,1,2.21,1.09,3.24,1.77a4.55,4.55,0,0,0,2,.86,13.48,13.48,0,0,0,3,1.81,24.57,24.57,0,0,1,3.17,1.86,72.7,72.7,0,0,1,7.14,5.2c.26.59.83.8,1.34,1.08.61.49.87,1.55,2,1.21v0a2,2,0,0,0,1.06,1.79c.77.51,1.3,1.26,2.06,1.75l1.2,1.2a17.22,17.22,0,0,0,3.52,3.51l1.19,1.2a31.34,31.34,0,0,1,5.07,5.78c.41.7,1.33,1.39.53,2.4l-.87.08h-.89c-1.22-.23-2.58.36-3.68-.43a12.8,12.8,0,0,0-3.06-1.4,13.42,13.42,0,0,0-3.86-.91,3.59,3.59,0,0,0-2.11-.5,57.41,57.41,0,0,1-7.3-.67,6.65,6.65,0,0,0-2.35-.89,14.19,14.19,0,0,1-4.74-2.38,16,16,0,0,1-4.41-4.74c-.42-.76-1.3-.91-1.79-1.63-.84-1.21-1.22-2.68-2.3-3.76-1.57-1.56-2.53-3.62-4.14-5.15C92.1,196,90.64,195.94,90,195l-.09-.05-1.5-1.21c-.87-1.27-2.46-1.22-3.63-2-2.16-1.41-4.76-1.39-7.21-1.73a3.56,3.56,0,0,0-2.42.57,9,9,0,0,0-3,1.7c-2.28,1.16-3.85,3.1-5.46,5-.26-.05-.38.05-.35.32ZM80.51,189c.67.55,1.28.26,1.82.39,4.39,1.06,7.73,3.88,10.85,6.83a41.11,41.11,0,0,1,5.49,7.15,38.69,38.69,0,0,0,5.39,6.7,20.24,20.24,0,0,0,13.11,5.13,28.92,28.92,0,0,1,11.2,2.53,6.76,6.76,0,0,0,4.38.68,14,14,0,0,0-2.8-3.78c-1.77-1.8-3.8-3.37-5.45-5.28-1.16-1.34-2.48-2.51-3.68-3.8a68.85,68.85,0,0,0-5.3-4.78,56.94,56.94,0,0,0-8.4-5.87c-3.09-1.83-6.27-3.51-9.45-5.16A10.53,10.53,0,0,0,93,188.23C88.9,188.22,84.75,187.71,80.51,189Z"/><path class="cls-3" d="M61.24,278.25c2.35-3.09,5.85-4.67,9-6.6a34,34,0,0,1,4.87-2.53,24.68,24.68,0,0,0,8.33-5.83c1.28-1.31,1.41-3,1.33-4.67,0-.49-.46-.79-.8-1-2.24-1.28-4.39-2.73-7-3.24a16.81,16.81,0,0,1-3.36-1.47.89.89,0,0,1,.63-.85,59,59,0,0,1,6.84,2.43c1.66.82,3.51,1.69,4.62,3.19.73,1,.44,2.51,0,3.78l-.08.61a7.21,7.21,0,0,1-1.48,2.06l-.8,1.05c-2.71,1.81-5.15,4-8.23,5.29a63.64,63.64,0,0,0-7.44,4.24,52,52,0,0,0-4.44,3c-.26.19-.22.38-.29.59l-1.1.89C61.26,279.16,61.25,278.71,61.24,278.25Z"/><path class="cls-3" d="M47.44,285.94a13.72,13.72,0,0,1,2.76,2.93c.74,1,3,1.63,4,.95s1.2-1.7,1.74-2.59,1.13-2,1.69-3.06c.35,0,.72,0,.94.33L58,286.21l-1.78,3c-.48,1.07-1,2.08-2.41,2.08-1.68,0-3.37.32-4.58-1.5-.72-1.09-1.61-2.12-2.41-3.19A1,1,0,0,1,47.44,285.94Z"/><path class="cls-3" d="M64.53,287.11c.35.08.22.4.31.61a.29.29,0,0,0,0,.27c-.28,0-.58,0-.7-.3S64.3,287.24,64.53,287.11Z"/><path class="cls-3" d="M63,286l.12-.39c.28.23,0,.28-.12.39Z"/></svg>