<?xml version="1.0" encoding="utf-8"?>
<!-- Generator: Adobe Illustrator 23.0.3, SVG Export Plug-In . SVG Version: 6.00 Build 0)  -->
<svg version="1.1" id="Layer_1" xmlns="http://www.w3.org/2000/svg" xmlns:xlink="http://www.w3.org/1999/xlink" x="0px" y="0px"
	 viewBox="0 0 415.01 588.21" style="enable-background:new 0 0 415.01 588.21;" xml:space="preserve">
<style type="text/css">
	.st0{opacity:0.3;fill:#FDFDFD;stroke:#383838;stroke-width:1.0298;stroke-miterlimit:10;enable-background:new    ;}
	.st1{opacity:0.3;fill:#FDFCFD;stroke:#383838;stroke-width:1.0298;stroke-miterlimit:10;enable-background:new    ;}
	.st2{opacity:0.3;fill:#FCFCFC;stroke:#383838;stroke-width:1.0298;stroke-miterlimit:10;enable-background:new    ;}
	.st3{opacity:0.3;fill:#7D7C82;stroke:#383838;stroke-width:1.0298;stroke-miterlimit:10;enable-background:new    ;}
	.st4{opacity:0.3;fill:#858589;stroke:#383838;stroke-width:1.0298;stroke-miterlimit:10;enable-background:new    ;}
	.st5{opacity:0.3;fill:#8C8B90;stroke:#383838;stroke-width:1.0298;stroke-miterlimit:10;enable-background:new    ;}
	.st6{opacity:0.3;fill:#908F96;stroke:#383838;stroke-width:1.0298;stroke-miterlimit:10;enable-background:new    ;}
	.st7{opacity:0.3;fill:#74757B;stroke:#383838;stroke-width:1.0298;stroke-miterlimit:10;enable-background:new    ;}
	.st8{opacity:0.3;fill:#FEFEFE;stroke:#383838;stroke-width:1.0298;stroke-miterlimit:10;enable-background:new    ;}
	.st9{opacity:0.3;fill:#646368;stroke:#383838;stroke-width:1.0298;stroke-miterlimit:10;enable-background:new    ;}
	.st10{opacity:0.3;fill:#9C9BA0;stroke:#383838;stroke-width:1.0298;stroke-miterlimit:10;enable-background:new    ;}
	.st11{opacity:0.3;fill:#F7F6F7;stroke:#383838;stroke-width:1.0298;stroke-miterlimit:10;enable-background:new    ;}
	.st12{fill:#FF3131;}
	.st13{opacity:0.3;fill:#FAFAFB;stroke:#383838;stroke-width:1.0298;stroke-miterlimit:10;enable-background:new    ;}
	.st14{opacity:0.3;fill:#EEF0F3;stroke:#383838;stroke-width:1.0298;stroke-miterlimit:10;enable-background:new    ;}
	.st15{opacity:0.3;fill:#F9F9F9;stroke:#383838;stroke-width:1.0298;stroke-miterlimit:10;enable-background:new    ;}
	.st16{opacity:0.3;fill:#858589;stroke:#383838;stroke-width:1.0072;stroke-miterlimit:10;enable-background:new    ;}
</style>
<path class="st0" d="M132.88,292.51c-0.99-0.36-1.96-0.87-2.14-1.98c-0.67-4.24-3.3-4.62-6.65-3.39c-2.25,0.82-3.9,0.25-5.22-1.64
	c3.85-1.59,8.78-0.91,11.34-5.24c-5.02,1.64-9.97,3.7-15.29,3.19c-10.69-1.02-20.26-5.48-29.71-10.27
	c-11.79-5.98-17.01-18.22-25.94-26.91c-1.53-1.49-1.37-4.39-3.9-5.25L55.36,241c0.07-0.32,0.13-0.63,0.2-0.95
	c-0.07-1.17-0.48-2.45-0.15-3.49c3.58-11.11,0.7-21.44-3.54-31.66c-1.06-2.55-2.04-5.23-0.89-8.07c5.12-4.05,7.27-10.37,11.54-15.06
	c0.05-0.11,0.15-0.22,0.14-0.32c-0.04-0.21-0.13-0.41-0.21-0.61l-0.02,0.03c1.98,0.37,3.29-1.04,4.63-1.99
	c2.73-1.94,4.96-4.83,7.93-6.13c8.63-3.79,14.48-10.58,20.36-17.43c2.41-1.64,5.35-0.5,7.88-1.53c1.34-0.05,2.64-0.75,4.01-0.19
	c0.65,1.74,1.35,3.43,3.33,4.06c0.04,0.16,0.14,0.28,0.29,0.35c3.54,4.17,8.96,4.13,13.53,5.99c3.65,0.42,5.32,4.24,8.74,5.06
	l-0.27-0.01c-0.62,1.32,0.12,2.01,1.17,2.57c6.8,12.8,17.04,21.41,31.02,25.46c0.52,1.64,1.16,1.7,1.92,0.14c0.79,0,1.58,0,2.37,0
	c1.02,1.63,1.63,1.18,2.03-0.39c2.24-0.32,4.02,1.27,6.13,1.46c-0.15,0.85-0.15,1.67-1.43,1.78c-1.96,0.18-1.48,2.04-0.6,2.16
	c3.08,0.41,2.12,3.03,3,4.61c-0.92,1.66-1.85,3.32-2.77,4.98c-1.07,0.4-3,0.7-3.06,1.23c-0.26,2.14-5.89,2.73-1.79,6.01
	c-2.83,2.97-5.46,6.1-7.67,9.57c-6.97,10.95-12.47,22.52-14.86,35.4c-1.2,4.45-5.7,6.23-7.95,9.83c-2.32,1.23-4.63,2.46-7.19,3.82
	c3.49,1.79,5.23-2.44,8.13-1.32c-0.19,1.02-0.38,2.04-0.58,3.06C138.11,283.78,136.27,288.61,132.88,292.51z"/>
<path class="st1" d="M173,11.03c0.26-2.23,2.19-4.12,1.07-6.71c-0.39-0.91,0.78-2.22,1.84-1.93c3.05,0.82,5.71-0.66,8.55-1.03
	c1.54-0.2,2.86,0.13,3.47,1.92c2.35,6.96,2.79,7.31,9.67,7.73c3.18,0.19,7.4-1.08,5.94,4.88c-0.13,0.51,1.19,1.77,2.04,2.06
	c3.29,1.12,4.17,3.39,3.62,6.53c-7.11-3.46-12.61-9.9-20.79-11.42c3.37,2.86,7.23,4.94,10.7,7.53c6.04,4.51,12.92,8.34,14.24,17.01
	c0.33,2.18,2.16,4.14,3.3,6.19c4.63,8.32,6.67,17.06,5.59,26.69c-1.37,12.25-5.34,23.72-9.31,35.23
	c-2.77,5.55-5.87,10.87-10.84,14.81c-3.54,2.84-6.64,6.14-10.27,8.93c-5.65,4.35-11.82,8.25-15.93,14.35
	c-0.18,0.23-0.26,0.49-0.24,0.79c-2.46-0.62-1.35-2.81-1.75-4.26c-0.51-1.87,0.05-4.08-1.87-5.47c-0.4-2.49-1.18-4.92-2.58-6.97
	c-5.3-7.75-5.15-16.21-3.61-24.9c0.91-0.91,0.24-1.61-0.3-2.33c0.04-0.21-0.03-0.35-0.22-0.44c-1.18-5.07-4.15-8.6-9-10.54
	c-0.32-1.08-0.82-2.04-1.87-2.59c-0.14-1.27-1.05-1.96-1.91-2.76c-4.8-4.45-9.2-9.19-10.75-15.85c0.92-8.15,1.59-16.35,6.11-23.59
	c0.48-0.76,1.76-1.81,0.33-2.94L148.19,42c0.33,0.02,0.66,0.04,0.99,0.06c-0.02-0.33-0.03-0.66-0.05-0.99l-0.04,0.04
	c1.58,0.9,1.65-0.55,2.14-1.36c4.21-8.31,9.81-15.47,17.08-21.39c3.38-2.75,7.92-3.99,10.3-8c2.65-4.23,4.99,0,7.9,0.76
	c-0.71-2.49-1.03-4.69-3.21-5.35c-2.97-0.91-4.46,1.39-5.92,3.44c-1.23,0.85-2.46,1.69-3.69,2.54
	C173.46,11.51,173.23,11.27,173,11.03z"/>
<path class="st2" d="M249.55,95.08l-0.07-0.01c6.9,1.33,13.81,2.66,20.71,3.99c6.46,2.4,12.92,4.78,19.37,7.22
	c1.02,0.39,2.53,0.27,2.66,1.87c0.65,7.72,1.5,15.45-0.91,23.05c-4.77,1.5-6.43,5.26-7.11,9.74c-2.24,4.25-5.8,6.81-10.35,8.12
	c-4.07,0.55-7.76,2.28-11.56,3.67c-3.91-0.08-7.77,1.34-11.73,0.38c-3.32-0.81-6.72-0.81-10.08-0.46c-7.53,0.8-15,2.16-22.64,1.71
	c-2.2-0.13-4.8-0.13-5.95,2.62c-3.38,1.37-6.43-1.26-9.74-0.79c0.12-1.3,0.38-2.61,0.32-3.9c-0.09-2.1-0.95-3.12-3.05-1.62
	c-2.24,1.33-3.52,3.56-5.15,5.46c-0.32,0.58-0.65,1.16-0.97,1.73l0.04-0.04c-0.95,0.02-1.66-0.3-1.9-1.32
	c-0.74-3.07-2.32-3.59-4.84-1.66c-0.51,0.39-1.36,0.33-2.06,0.48c-1.45-3.83-4.01-0.97-6.09-1.01c-0.6-0.58-1.19-1.17-1.79-1.75
	c-0.73-1.77-0.43-3.06,1.63-3.55c0.43,0.03,0.97,0.25,1.28,0.07c11.76-6.66,22.25-14.63,27.97-27.45
	c6.37-8.37,13.63-15.92,21.7-22.62c3.03-2.51,6.96-4.3,11.02-3.03C243.68,97.05,246.55,96.28,249.55,95.08z"/>
<path class="st3" d="M253.69,515.17c-1.68-11.05-1.76-22.21-2.53-33.33c-1.46-21.12-3.96-42.12-7.51-63
	c-1.45-8.52-2.18-17.17-3.23-25.76c0.33-0.59,0.66-1.19,0.99-1.78c1.3,1.39,1.18,3.19,1.41,4.89l0.05-0.04
	c2.36,16.29,4.86,32.57,7.05,48.88c2.95,21.87,4.03,43.91,5.5,65.91c0.08,1.14,0.47,2.26,0.72,3.4
	C255.53,515.24,254.6,515.18,253.69,515.17z"/>
<path class="st4" d="M212.93,105.73c3.97-11.51,7.93-22.99,9.31-35.23c1.08-9.63-0.96-18.38-5.59-26.69
	c-1.14-2.06-2.97-4.01-3.3-6.19c-1.32-8.67-8.2-12.5-14.24-17.01c-3.47-2.59-7.34-4.67-10.7-7.53c8.18,1.52,13.68,7.96,20.79,11.42
	c6.86,12.05,14.45,23.87,15.53,38.19c0.72,9.49-1.67,18.63-4.17,27.73c-1.48,5.39-4.23,10.46-4.21,16.24l0.02-0.06
	c-0.62-0.74-1.28-0.36-1.93-0.06C213.93,106.27,213.43,106,212.93,105.73z"/>
<path class="st5" d="M249.91,310.15c-2.5,0.83-3.8,3.1-5.65,4.72c-4.88,4.28-9.7,8.63-14.55,12.96c-0.04-0.65-0.07-1.29-0.11-1.94
	c2.52-3.26,4.48-6.67,8.78-8.61c3.49-1.57,6.99-5.1,8.42-8.61c1.14-2.78-3.16-5.45-4.74-8.35c-0.49-0.9-1.23-1.65-1.76-2.53
	c-5.47-9.23-10.52-18.64-12.19-29.45c0.51,0.03,1.02,0.05,1.52,0.08c1.52,4.26,3.1,8.49,4.55,12.78c2.81,8.3,7.75,15.4,12.57,22.56
	c0.54,0.8,1.08,2.02,2.31,1.64c1.23-0.38,0.88-1.72,0.99-2.67c0.44-3.69,0.06-7.24-1.42-10.75c-3.99-9.42-9.96-17.51-16.48-25.26
	c1.36-0.21,2.6-0.67,3.56-1.71c1.53,0.36,2.61,1.38,3.63,2.49c-0.03,0.49-0.06,0.98-0.09,1.46c-0.8-0.24-1.59-0.49-2.39-0.73
	c-0.2-0.11-0.39-0.22-0.59-0.33c0.11,0.19,0.22,0.38,0.33,0.57c5.14,7.09,10.3,14.17,14,22.16c0.59,1.55,1.18,3.1,1.77,4.65
	c0.53,4.79,0.82,9.53-2.36,13.68C249.99,309.36,249.95,309.76,249.91,310.15z"/>
<path class="st3" d="M55.37,241.02c2.54,0.86,2.38,3.76,3.9,5.25c8.93,8.7,14.15,20.93,25.94,26.91
	c9.45,4.79,19.02,9.25,29.71,10.27c5.32,0.51,10.27-1.55,15.29-3.19c-2.56,4.33-7.5,3.65-11.34,5.24c-9.45,1.06-17.8-2.7-26.16-6.14
	c-7.23-2.98-13.62-7.36-19.39-12.67c-2.61-2.39-5.16-4.76-6.62-8.1c-1.32-3.02-3.8-5.1-6.11-7.36
	C57.77,248.47,55.12,245.44,55.37,241.02z"/>
<path class="st6" d="M326.25,152.47c-1.03,7.45,2.51,13.36,5.81,19.66c3.19,6.08,3.41,13.07,1.49,19.82
	c-1.1,3.88-1.16,7.3,1.13,10.92c1.78,2.81,2.63,6.21,3.95,9.33c0.69,1.63,0.7,3.39-0.21,4.68c-3.28,4.62-3.99,10.77-8.72,14.5
	c-0.37-0.37-0.74-0.74-1.11-1.11c0.27-0.51,0.48-1.08,0.83-1.53c6.05-7.63,9.21-15.62,3.31-24.86c-0.7-1.1-1.09-2.4-1.7-3.57
	c-1.09-2.09-1.05-4.2-0.29-6.38c3.06-8.77,1.78-17.17-3.03-24.82c-3.32-5.28-5.01-10.49-3.12-16.57
	C325.15,152.51,325.7,152.49,326.25,152.47z"/>
<path class="st7" d="M301.05,409.88c0.15,1.49,0.28,2.98-0.34,4.41c-0.65,0.02-1.31,0.04-1.96,0.05c-0.59-5.59,3.91-12.16-3.8-16.44
	c-1.85-1.02-2.1-0.85-3.08,0.32c-0.92,1.09-1.68,2.7-3.33,2.54c-2.19-0.21-0.4-2.95-1.98-3.75c-1.92,0.82-2.57,2.78-3.9,4.07
	c-0.58,0-1.17,0-1.75,0c-2.39-2.99-1.48-5.41,1.3-7.51c1.75-1.32,3.53-2.61,5.25-3.97c4.88-3.9,9.67-1.9,14.24,0.48
	c1.7,0.88,4.22,2.56,0.95,4.91c-1.61,1.15-1.15,2.93-0.88,4.46c0.42,2.4-0.42,4.64-0.56,6.96
	C300.02,407.54,300.08,408.69,301.05,409.88z M282.71,396.71c2.47-1,4.32-2.74,5.78-4.92c0.08-0.32,0.17-0.64,0.25-0.97
	c-0.33,0.1-0.66,0.21-0.98,0.31c-2.18,1.37-4.56,2.56-5.2,5.42c-0.1,0.15-0.21,0.29-0.31,0.44
	C282.4,396.89,282.55,396.8,282.71,396.71z M298.77,399.01c-0.24-3.14,0.17-5.78-2-7.76c-0.49-0.44-1.37-0.01-1.43,0.49
	C295,394.46,295.79,396.8,298.77,399.01z"/>
<path class="st7" d="M212.93,105.73c0.5,0.27,1,0.54,1.51,0.81c-0.26,0.72-0.51,1.45-0.77,2.17c-0.03,0.3-0.07,0.6-0.1,0.9
	c2.11,0.09,2.9-1.05,2.8-3.01l-0.02,0.06c3.87-0.86,5.36-4.53,7.81-6.96c4.77-4.73,10.35-6.42,16.74-5.91
	c2.08,0.17,4.09,0.05,6.14-0.09c1.13-0.07,2.48-0.53,2.51,1.39c-3,1.19-5.87,1.96-9.27,0.9c-4.07-1.27-7.99,0.52-11.02,3.03
	c-8.07,6.7-15.34,14.25-21.7,22.62c-0.95-1.24-1.89-1.14-2.81,0.03c-0.46,0.08-0.88,0.21-0.82,0.81l0.03-0.03
	c-0.56,0.11-1.11,0.22-1.67,0.33c-0.06-0.74-0.12-1.49-0.18-2.23C207.06,116.59,210.16,111.28,212.93,105.73z"/>
<path class="st3" d="M132.88,292.51c3.39-3.9,5.23-8.73,7.82-13.1c0.41,0.46,0.81,0.91,1.21,1.37c-2.47,6.36-5.49,12.57-10.75,16.93
	c-7.12,5.89-11.99,13.22-15.84,21.4c-2.06,4.38-1.43,8.6,1.55,11.04c-0.54,0.11-1.07,0.22-1.61,0.32c-2.6,0.36-3.59-0.47-3.35-3.35
	c0.99-11.98,7.23-20.98,15.8-28.72C129.68,296.63,131.61,294.88,132.88,292.51z"/>
<path class="st3" d="M278.25,456.81c-5.41,10.43-6.73,22.07-9.8,33.2c-0.97,3.53-1.95,7.04-3.82,10.24
	c-0.57-0.08-1.13-0.16-1.7-0.24c4.77-13.37,6.04-27.75,11.75-40.84c1.49-3.42-0.96-6.24-0.97-9.4c0.62,0,1.23-0.01,1.85-0.01
	c1.16,0.93-0.01,3.66,2.65,3.43C278.23,454.39,278.24,455.6,278.25,456.81z"/>
<path class="st6" d="M322.69,281.15c-3.12,12.01-7.5,23.55-12.98,34.67c-1.94,3.94-4.68,6.56-9.7,5.55
	c-2.4-0.48-4.96-0.44-7.41,0.39c-1.55,0.52-3.17,0.79-4.52-0.6c-0.03-0.5-0.06-1-0.08-1.5c3.87,1.79,7.64-1.19,11.62-0.14
	c3.84,1.01,6.43-1.07,7.98-4.59c3.9-8.85,8.42-17.44,10.97-26.84c0.76-2.82,0.93-5.85,3.08-8.15
	C321.99,280.34,322.34,280.74,322.69,281.15z"/>
<path class="st7" d="M103.22,153.79c-2.53,1.03-5.47-0.11-7.88,1.53c-1.16-0.36-2.32-0.72-3.49-1.08
	c-8.9-4.41-16.98-19.86-15.55-29.82c0.21-1.44,0.85-2.73,1.88-3.81c0.67,0.04,1.35,0.07,2.02,0.11c0.25,1.93-1.54,3.04-1.65,5.15
	c-0.37,7.06,2.63,12.73,6.13,18.32c5.24,8.35,7.17,9.02,15.8,5.75C100.98,151.52,103.35,151.77,103.22,153.79z"/>
<path class="st3" d="M257.87,537.3c2.41,18.08,0.15,46.05-4.95,50.81c2.27-9.06,2.36-17.38,3-25.65c0.65-8.39,0-16.75,0.12-25.12
	C256.65,537.33,257.26,537.31,257.87,537.3z"/>
<path class="st4" d="M238.62,379.88c-2.21-10.05-4.95-20.02-5.81-30.32c-0.46-5.51-3.89-10.16-4.11-15.68
	c0.49,0.01,0.99,0.01,1.48,0.02c2.24,4.16,3.72,8.66,4.42,13.24c1.59,10.41,3.86,20.68,5.84,31.01c0.1,0.55-0.07,1.15-0.12,1.72
	C239.75,379.88,239.19,379.88,238.62,379.88z"/>
<path class="st4" d="M278.25,456.81c-0.01-1.21-0.02-2.42-0.03-3.63c0.6-1.89,2.01-3.19,3.31-4.58
	c9.12-9.72,15.16-20.98,17.21-34.25c0.65-0.02,1.31-0.04,1.96-0.05c0.47,7.41-3.14,13.59-6.13,19.9
	C290.54,442.72,283.93,449.43,278.25,456.81z"/>
<path class="st4" d="M50.97,196.83c-1.15,2.85-0.17,5.52,0.89,8.07c4.25,10.22,7.13,20.55,3.54,31.66
	c-0.33,1.04,0.08,2.32,0.15,3.49c-0.41,0.46-0.81,0.91-1.22,1.37c-1.55-1.14-1.75-2.91-1.2-4.38c4.43-12.01-0.16-22.84-4.34-33.68
	c-1.31-3.4-1.13-5.95,2.01-8C50.86,195.85,50.91,196.34,50.97,196.83z"/>
<path class="st8" d="M195.99,352.06c-0.14,0.12-0.27,0.25-0.38,0.39c-2.62-1.18-3.6,1.28-4.62,2.55c-1.38,1.74-2.93,2.51-4.96,2.75
	c-0.27,0.01-0.55,0.03-0.82,0.05c-1.22-0.4-1.82-1.73-3.34-1.86c-4.76-0.44-8.95-2.62-13.1-4.8c8.72-2.22,17.47-1.83,26.24-0.44
	c0.29,0,0.59,0,0.88,0C195.5,351.18,195.54,351.63,195.99,352.06z"/>
<path class="st9" d="M130.5,79.16c0.33,0.88,0.66,1.76,0.98,2.64c-0.22,1.01,0.51,1.57,1.04,2.22c-0.04,0.8-0.08,1.59-0.12,2.39
	c1.38,7.97,5.04,15.16,7.75,22.68c-0.55,0.04-1.09,0.08-1.64,0.12c-2.54-0.86-2.54-3.39-3.48-5.3c0.25-1.86-0.48-3.37-1.7-4.71
	c-1.09-2.84-2.19-5.69-3.28-8.53c-0.67-2.47-2.13-3.86-4.84-3.52c1.96-3.14-1.89-4.3-2.26-6.65c0.49-0.47,0.97-0.94,1.46-1.4
	c1.14,1.26,1.88,3.41,3.89,3.06c1.55-0.27,0.38-1.96,0.56-2.99C129.41,79.16,129.96,79.16,130.5,79.16z"/>
<path class="st10" d="M291.32,131.2c2.41-7.6,1.56-15.33,0.91-23.05c-0.14-1.61-1.64-1.49-2.66-1.87
	c-6.45-2.43-12.91-4.82-19.37-7.22c0.02-0.42,0.05-0.83,0.07-1.25c6.85,0.53,12.47,4.93,19.11,6.1c0.85,0.15,1.71,0.88,2.48,0.75
	c3.65-0.58,3.12,1.11,2.67,3.74c-0.78,4.58,1.71,9.17,0.38,13.87c-0.6,2.11-0.95,4.29,0.15,6.39c-0.88,0.4-1.53,0.99-1.71,1.98
	c0.11,0.2,0.13,0.42,0.06,0.64C292.72,131.26,292.02,131.23,291.32,131.2z"/>
<path class="st3" d="M153.65,30.5c5.08-7.96,12.62-13.3,20.04-18.75c1.23-0.84,2.46-1.69,3.69-2.54c0.41,0.38,0.82,0.77,1.22,1.15
	c-2.38,4.01-6.92,5.26-10.3,8c-7.27,5.91-12.86,13.08-17.08,21.39c-0.39-0.42-0.78-0.85-1.17-1.27
	C150.67,35.55,152.5,33.17,153.65,30.5z"/>
<path class="st6" d="M302.77,253.39c5.14,3.81,11.28,3.1,17.12,3.95c5.22,0.76,9.41-2.05,14.09-3.06l-0.01-0.01
	c-3.17,3.58-2.11,8.85-5,12.54c-0.55-0.08-1.11-0.17-1.66-0.25c0.43-1.39,1.07-2.75,1.26-4.17c0.31-2.35,0.39-4.1-3.31-3.32
	c-3.48,0.74-7.35,0.67-10.86,0c-4.18-0.8-8.86-0.28-12.35-3.55C302.12,254.75,302.02,253.93,302.77,253.39z"/>
<path class="st11" d="M132.52,84.01c-0.53-0.66-1.26-1.22-1.04-2.22c3.93,0.8,7.6,1.19,8.48-4.26c0.13-0.84,1.33-1.02,2.23-1.08
	c3.49,3.55,6.98,7.1,10.47,10.65c-0.89,1.48-2.34,1.08-3.43,0.67c-2.65-0.99-5.36-0.62-8.05-0.72
	C138.29,86.04,135.41,85.02,132.52,84.01z M141.67,79.78c-0.24-0.11-0.49-0.21-0.73-0.32c-0.11,0.25-0.35,0.54-0.28,0.72
	c0.07,0.17,0.45,0.23,0.7,0.33C141.46,80.27,141.57,80.03,141.67,79.78z"/>
<path class="st10" d="M288,319.65c0.03,0.5,0.06,1,0.08,1.5c-2.76-0.47-5.53-0.55-8.29-0.17c-2.53,0.35-4.95,0.31-7.35-0.72
	c-0.91-0.39-2.17-0.83-2.96-0.5c-9.38,3.94-13.82-2.98-18.91-8.48c-0.29-0.31-0.45-0.74-0.67-1.12c0.04-0.4,0.08-0.79,0.13-1.19
	c2.83,0.69,3.99,3.28,5.85,5.09c2.49,2.42,4.95,5.56,8.88,4.81c7.41-1.41,14.7,1.33,22.06,0.24
	C287.18,319.05,287.6,319.46,288,319.65z"/>
<path class="st6" d="M91.86,154.23c1.16,0.36,2.32,0.72,3.49,1.08c-5.88,6.86-11.73,13.64-20.36,17.43c-2.96,1.3-5.2,4.19-7.93,6.13
	c-1.34,0.95-2.65,2.36-4.63,1.99c3.68-4.55,8.51-7.66,13.48-10.52c6.28-3.62,11.7-8.15,15.9-14.1
	C92.25,155.62,92.37,154.92,91.86,154.23z"/>
<path class="st7" d="M82.64,112.56c1.93-5.08,3.29-10.24,3.82-15.72c0.62-6.48,4.37-11.64,8.51-16.46c0.19,0.63,0.37,1.25,0.56,1.88
	c-3.98,6.31-7.02,12.86-7.68,20.53c-0.33,3.78-1.64,7.67-4.1,10.89C83.37,113.3,83.01,112.93,82.64,112.56z"/>
<path class="st9" d="M148.24,41.96c1.43,1.14,0.14,2.18-0.33,2.94c-4.52,7.24-5.18,15.44-6.11,23.59c-1.8,0.06-1.26-1.99-2.33-2.59
	c0-0.61,0-1.21,0-1.82c0.84-0.61,0.77-1.19-0.06-1.74c-1.67-3.08,0.4-5.51,1.51-8.03C142.85,49.9,143.65,44.8,148.24,41.96z"/>
<path class="st10" d="M168.77,351.14c4.16,2.18,8.34,4.36,13.11,4.79c1.52,0.14,2.12,1.46,3.34,1.86
	c-4.61,0.55-8.69-1.12-12.75-2.96c-4.04-1.83-7.83-3.76-12.74-1.88c-2.62,1-6.38,1.43-8.8-1.7c-0.07-0.2-0.08-0.4-0.02-0.6
	c0.88,0.21,1.76,0.42,2.63,0.62c0.59,0.04,1.18,0.07,1.77,0.11c1.62,0.27,3.23,0.33,4.71-0.56c2.21-1.33,4.48-1.09,6.79-0.34
	C167.46,350.7,168.11,350.92,168.77,351.14z"/>
<path class="st6" d="M308.28,141.95c1.48,2.15,2.6,4.47,3.23,7.01c0.28,1.12,0.51,2.33,2.14,2.07c0,0.54,0.01,1.08,0.01,1.61
	c-0.59,0.83-1.29,1.8-0.86,2.77c2.5,5.66-0.92,7-5.42,7.62c0-0.4,0-0.79,0-1.19c0.79-0.38,1.56-0.81,2.37-1.12
	c1.22-0.46,2.1-1.16,1.71-2.58c-0.21-0.77-0.14-1.93-1.27-2.02c-1.2-0.1-1.61,1.08-2.28,1.81c-0.78,0.85-1.53,1.72-2.3,2.58
	c-0.37-0.1-0.74-0.2-1.11-0.29c0.47-0.88,0.73-2.03,1.45-2.6c5.48-4.35,3.81-9.12,1.03-14.03c-0.28-0.49-0.36-1.09-0.53-1.64
	C307.07,141.95,307.68,141.95,308.28,141.95z"/>
<path class="st7" d="M302.77,253.39c-0.75,0.54-0.65,1.36-0.71,2.12c-6.01-1.14-10.36-5.93-16.24-7.36
	c-1.82-1.96,3.22-1.52,1.23-3.54c0.05-0.76,0.1-1.52,0.15-2.27c5.27,5.26,9.92,11.96,19.06,8.11c0.4,0.4,0.8,0.8,1.21,1.21
	C306.28,253.24,303.97,251.82,302.77,253.39z"/>
<path class="st6" d="M280.9,401.09c0.58,0,1.17,0,1.75,0c-4.36,7.43-8.17,15.02-7.72,24.01c0.06,1.14-0.27,2.3-0.42,3.45
	c-0.58,0.01-1.17,0.01-1.75,0.02C272.48,418.52,274.25,409.08,280.9,401.09z"/>
<path class="st10" d="M307.47,251.65c-0.4-0.4-0.8-0.8-1.21-1.21c8.49-5.57,15.38-12.91,22.34-20.19c0.37,0.37,0.74,0.74,1.11,1.11
	C323.16,239.07,316.32,246.47,307.47,251.65z"/>
<path class="st9" d="M262.94,500c0.57,0.08,1.13,0.16,1.7,0.24c-2.82,6.58-4.91,13.44-8.03,19.91c-0.72,1.5,0.08,3.73,0.17,5.63
	c-0.64,0.08-1.28,0.16-1.91,0.24c-0.39-3.62-0.79-7.24-1.18-10.86c0.91,0.01,1.84,0.07,2.44-0.83c2.97-2.69,3.22-6.7,4.85-10.04
	C261.68,502.89,261.73,501.18,262.94,500z"/>
<path class="st5" d="M95.52,82.25c-0.19-0.63-0.37-1.25-0.56-1.88c3.31-6.08,9.58-8.89,14.59-13.07c2.09-1.75,4.78-2.78,7.2-4.13
	c0.55,0.09,1.1,0.18,1.65,0.26c-1.02,1.72-2.77,2.72-4.37,3.58C106.84,70.88,100.77,76.05,95.52,82.25z"/>
<path class="st5" d="M220.71,333.74c-6.35,3.96-12.08,8.73-17.72,13.62c-1.89,1.64-3.78,3.22-6.16,4.09
	c-0.31-0.25-0.63-0.5-0.94-0.75c-0.29,0-0.59,0-0.88,0c0.51-0.48,1.02-0.97,1.53-1.45c3.14-0.73,5.08-3.22,7.41-5.13
	c5.27-4.3,10.21-9.06,16.62-11.73C220.62,332.84,220.67,333.29,220.71,333.74z"/>
<path class="st7" d="M139.47,65.9c1.07,0.6,0.52,2.65,2.33,2.59c1.55,6.66,5.95,11.4,10.75,15.85c0.86,0.8,1.77,1.49,1.91,2.76
	c-0.6,0-1.2,0-1.8,0c-3.49-3.55-6.98-7.1-10.47-10.65C141.28,72.94,138.31,69.95,139.47,65.9z"/>
<path class="st6" d="M270.27,97.81c-0.02,0.42-0.05,0.83-0.07,1.25c-6.9-1.33-13.81-2.66-20.71-3.99c-0.06-3.04,2.17-1.61,3.39-1.56
	C258.95,93.75,264.51,96.2,270.27,97.81z"/>
<path class="st5" d="M115.27,330.47c0.54-0.11,1.07-0.22,1.61-0.32c5.88,3.8,11.76,7.6,17.64,11.4c-0.27,0.25-0.53,0.5-0.8,0.76
	C126.97,339.29,121.15,334.84,115.27,330.47z"/>
<path class="st10" d="M50.97,196.83c-0.06-0.49-0.12-0.98-0.18-1.47c3.71-4.75,6.15-10.43,10.76-14.51
	c0.32,0.31,0.64,0.61,0.96,0.92C58.24,186.46,56.09,192.78,50.97,196.83z"/>
<path class="st10" d="M327.32,266.56c0.55,0.08,1.1,0.17,1.66,0.25c-1.47,5.05-2.27,10.4-6.29,14.34c-0.35-0.4-0.7-0.81-1.05-1.21
	C324.17,275.74,325.44,271.02,327.32,266.56z"/>
<path class="st3" d="M272.77,428.57c0.58-0.01,1.17-0.01,1.75-0.02c-1.22,5.32,0.29,10.58,0.35,15.87
	c-0.65-0.29-1.29-0.57-1.94-0.86C271.85,438.57,271.53,433.58,272.77,428.57z"/>
<path class="st9" d="M118.41,63.43c-0.55-0.09-1.1-0.18-1.65-0.26c2.01-3.09,4.07-3.53,6.1-0.05c0.93,1.6,2.87,2.5,3.15,4.55
	c-0.27,0.64-0.54,1.28-0.81,1.93c-0.57-0.03-1.13-0.06-1.7-0.09c-0.46-0.33-0.91-0.67-1.37-1
	C122.03,65.98,121.23,63.96,118.41,63.43z"/>
<path class="st4" d="M293.36,130.66c0.18-1,0.83-1.59,1.71-1.98c5.36,0.42,8.25,3.77,9.98,8.47c-0.17,0.65-0.33,1.31-0.49,1.96
	C301.62,135.22,299.63,130.1,293.36,130.66z"/>
<path class="st4" d="M125.2,69.6c0.27-0.64,0.54-1.28,0.81-1.93c2.45,3.46,4.62,7.02,4.5,11.49c-0.55,0-1.09,0.01-1.64,0.01
	C127.64,75.98,126.42,72.79,125.2,69.6z"/>
<path class="st7" d="M326.25,152.47c-0.55,0.02-1.1,0.04-1.65,0.07c-0.84-1.65,3.13-5.14-1.98-5.16c-0.32-0.3-0.64-0.6-0.96-0.9
	c1.72-0.68,3.06-3.44,4.82-2.32c1.84,1.18,0.53,3.79,0.41,5.77C326.83,150.78,326.47,151.62,326.25,152.47z"/>
<path class="st7" d="M186.03,357.75c2.03-0.24,3.57-1.01,4.96-2.75c1.01-1.28,2-3.73,4.62-2.55c-1.29,1.53-2.96,2.88-3.8,4.62
	C190.08,360.63,188.23,359.96,186.03,357.75z"/>
<path class="st4" d="M150.9,350.65c-0.06,0.2-0.05,0.4,0.02,0.6c-4.4-0.02-7.92-2.05-11.1-4.86c0.48-0.07,0.96-0.13,1.45-0.2
	C144.48,347.68,147.69,349.16,150.9,350.65z"/>
<path class="st3" d="M238.62,379.88c0.57,0,1.13,0,1.7,0c0.75,3.74,1.97,7.43,1.06,11.33c-0.4,0.06-0.79,0.1-1.19,0.15
	C239.67,387.54,239.15,383.71,238.62,379.88z"/>
<path class="st10" d="M321.66,146.47c0.32,0.3,0.64,0.6,0.96,0.9c-2.98,1.76-5.97,3.52-8.95,5.28c0-0.54-0.01-1.08-0.01-1.61
	C315.71,148.42,318.55,147.21,321.66,146.47z"/>
<path class="st5" d="M82.64,112.56c0.37,0.37,0.73,0.74,1.1,1.11c-0.47,2.71-1.96,4.9-3.54,7.05c-0.67-0.04-1.35-0.07-2.02-0.11
	C79.66,117.92,81.15,115.24,82.64,112.56z"/>
<path class="st9" d="M230.18,333.91c-0.49-0.01-0.99-0.01-1.48-0.02c-0.3-0.86-0.61-1.73-0.91-2.59c0.35-1.46-1.17-1.74-1.68-2.65
	c1.11-0.98,1.23-3.23,3.5-2.76c0.04,0.65,0.07,1.29,0.11,1.94C228.02,330,230.23,331.86,230.18,333.91z"/>
<path class="st9" d="M257.87,537.3c-0.61,0.01-1.22,0.03-1.83,0.04c-0.85-2.61-0.62-5.31-0.66-7.98c0.54-0.29,1.09-0.59,1.63-0.88
	C257.3,531.42,257.59,534.36,257.87,537.3z"/>
<path class="st6" d="M226.11,328.64c0.51,0.91,2.03,1.2,1.68,2.65c-3.15-1.5-4.42,2.48-7.07,2.44c-0.05-0.45-0.09-0.9-0.14-1.35
	C222.69,331.53,223.68,329.03,226.11,328.64z"/>
<path class="st6" d="M272.92,443.55c0.65,0.29,1.29,0.58,1.94,0.86c0.91,1.69,0.59,3.54,0.7,5.34c-0.62,0-1.23,0.01-1.85,0.01
	C272.34,447.84,273.02,445.65,272.92,443.55z"/>
<path class="st10" d="M141.27,346.19c-0.48,0.07-0.96,0.13-1.45,0.2c-2.37-0.87-4.49-2.11-6.11-4.09c0.27-0.25,0.53-0.5,0.8-0.75
	C136.77,343.09,139.45,344.02,141.27,346.19z"/>
<path class="st10" d="M304.55,139.1c0.16-0.65,0.33-1.31,0.5-1.96c1.34,1.43,2.77,2.79,3.24,4.81c-0.61,0-1.21,0.01-1.82,0.01
	C305.36,141.32,304.83,140.29,304.55,139.1z"/>
<path class="st4" d="M301.05,409.88c-0.97-1.19-1.02-2.35,0.14-3.45C301.69,407.6,301.62,408.75,301.05,409.88z"/>
<path class="st3" d="M257.01,528.47c-0.54,0.29-1.09,0.59-1.63,0.88c-0.17-1.11-0.34-2.22-0.51-3.33c0.64-0.08,1.28-0.16,1.91-0.24
	C256.86,526.68,256.94,527.58,257.01,528.47z"/>
<path class="st9" d="M150.07,38.48c0.39,0.42,0.78,0.85,1.17,1.27c-0.48,0.81-0.56,2.26-2.14,1.36
	C148.51,39.9,149.6,39.31,150.07,38.48z"/>
<path class="st7" d="M139.41,62.34c0.84,0.55,0.9,1.13,0.06,1.74C139.45,63.5,139.43,62.92,139.41,62.34z"/>
<path class="st4" d="M240.2,391.36c0.4-0.05,0.79-0.1,1.19-0.15c0-0.01,0.02,0.1,0.02,0.09c-0.33,0.59-0.66,1.18-0.98,1.77
	C239.97,392.55,239.84,391.99,240.2,391.36z"/>
<path class="st9" d="M149.14,41.08c0.02,0.33,0.03,0.66,0.05,0.99c-0.33-0.02-0.66-0.04-0.99-0.06
	C148.14,41.32,148.23,40.79,149.14,41.08z"/>
<path class="st4" d="M242.86,396.15l-0.05,0.04L242.86,396.15z"/>
<path class="st6" d="M62.52,181.77c-0.32-0.31-0.64-0.61-0.96-0.92c0.3,0,0.6-0.01,0.89-0.01c0.07,0.2,0.17,0.4,0.21,0.61
	C62.67,181.55,62.57,181.66,62.52,181.77z"/>
<path class="st3" d="M54.33,241.42c0.41-0.46,0.81-0.91,1.22-1.37c-0.07,0.32-0.13,0.63-0.2,0.95
	C55.01,241.15,54.67,241.29,54.33,241.42z"/>
<path class="st7" d="M195.89,350.7c0.31,0.25,0.63,0.5,0.94,0.75c-0.28,0.2-0.57,0.41-0.85,0.61
	C195.54,351.63,195.5,351.18,195.89,350.7z"/>
<path class="st4" d="M165.03,197.08c-13.98-4.05-24.22-12.66-31.02-25.46c0.09-0.57,0.18-1.14,0.27-1.71
	c0.84,0.99,1.76,1.92,2.51,2.98c6.97,9.83,15.29,17.99,27.02,21.93c2.86,0.96,5.79,0.68,8.66,0.03c1.95-0.44,0.32-1.53,0.25-2.33
	c0.55-0.09,1.09-0.17,1.64-0.26c0.39,0.19,0.82,0.32,1.15,0.58c4.05,3.32,3.69,3.16,5.75-1.38c1.79-3.94,1.99-8.72,5.74-11.7
	c0.35,0.91,0.7,1.81,1.06,2.72c-3.46,4.08-4.54,9.18-5.98,14.11c-0.24,0.83,0.92,0.91,1.56,1.18c-0.27,0.54-0.54,1.09-0.81,1.63
	c-1.96,0.48-3.55-0.88-5.36-1.11c-2.11-0.19-3.9-1.78-6.13-1.46c-0.78-0.43-1.4,0.03-2.03,0.39c-0.79,0-1.58,0-2.37,0
	C166.3,197.18,165.67,197.13,165.03,197.08z"/>
<path class="st4" d="M148.3,264.02c2.39-12.87,7.89-24.45,14.86-35.4c2.21-3.47,4.84-6.6,7.67-9.57c1.83-2.27,3.76-4.47,4.85-7.24
	c0.92-1.66,1.85-3.32,2.77-4.98c1.41-1.91,2.81-3.81,4.22-5.72c0.44,1.04,2.2,1.25,1.77,2.83c-2.25-0.83-2.3,1.36-2.99,2.36
	c-3.23,4.71-5.51,10.07-9.45,14.32c-11.29,12.18-17.65,26.85-21.67,42.71c-0.21,0.21-0.33,0.46-0.38,0.76
	C149.4,264.07,148.85,264.04,148.3,264.02z"/>
<path class="st5" d="M132.84,169.05l0.27,0.01c0.05-1.14,0.11-2.27,0.16-3.4c2.65,0.74,5.44,1.14,7.9,2.28
	c5.1,2.34,11.34,2.49,15.04,7.6c-4.9-1.49-9.66-3.38-14.42-5.26c-2.42-0.95-5.01-3.36-7.93-0.88
	C133.52,169.28,133.18,169.17,132.84,169.05z"/>
<path class="st9" d="M148.3,264.02c0.55,0.02,1.1,0.05,1.65,0.07c0.34,0.59,0.67,1.18,1.01,1.77c-3.12,4.91-8.75,8.3-9.04,14.92
	c-0.4-0.46-0.81-0.91-1.21-1.37c0.19-1.02,0.38-2.04,0.58-3.06c1.55-1.53-0.8-1.6-0.94-2.5C142.59,270.25,147.1,268.47,148.3,264.02
	z"/>
<path class="st9" d="M103.22,153.79c0.13-2.02-2.24-2.27-2.73-3.85c1.79-0.59,1.91-2.04,1.85-3.59c0.56,0,1.12,0,1.68,0
	c0.38,0.4,0.76,0.8,1.15,1.2c0.58,1.59,2.1,2.24,3.26,3.25c0.31,0.6,0.61,1.19,0.92,1.79c-0.1,0.28-0.13,0.56-0.09,0.85
	c-0.68,0.05-1.35,0.1-2.03,0.15C105.86,153.04,104.55,153.74,103.22,153.79z"/>
<path class="st5" d="M124.38,164c-4.57-1.86-9.98-1.82-13.53-5.99c0.39-0.39,0.78-0.78,1.18-1.17c4.13,2.53,8.67,4.05,13.26,5.45
	l-0.05-0.05c0.01,0.28,0.06,0.56,0.16,0.83C125.05,163.38,124.71,163.69,124.38,164z"/>
<path class="st11" d="M182.67,201.12c-1.41,1.91-2.81,3.81-4.22,5.72c-0.88-1.57,0.08-4.19-3-4.6c-0.88-0.12-1.36-1.98,0.6-2.16
	c1.28-0.11,1.28-0.93,1.43-1.78c1.82,0.23,3.4,1.59,5.36,1.11C182.78,199.97,182.72,200.55,182.67,201.12z"/>
<path class="st7" d="M124.38,164c0.34-0.31,0.67-0.62,1.01-0.94c0.45-0.37,0.77-0.72-0.16-0.83l0.05,0.05
	c-0.11-0.57-0.22-1.15-0.33-1.72c0.68-0.02,1.36-0.04,2.04-0.05c1.17,2.84,3.82,3.88,6.28,5.14c-0.05,1.13-0.11,2.27-0.16,3.4
	C129.7,168.24,128.02,164.42,124.38,164z"/>
<path class="st3" d="M140.34,273.85c0.14,0.9,2.49,0.97,0.94,2.5c-2.9-1.12-4.64,3.11-8.13,1.32
	C135.71,276.31,138.03,275.08,140.34,273.85z"/>
<path class="st11" d="M175.68,211.82c-1.09,2.77-3.02,4.97-4.85,7.24c-4.11-3.27,1.53-3.87,1.79-6.01
	C172.68,212.52,174.6,212.22,175.68,211.82z"/>
<path class="st7" d="M107.23,153.6c0.68-0.05,1.35-0.1,2.03-0.15c0.79,1.01,1.58,2.01,2.37,3.02c-0.35,0.4-0.71,0.8-1.06,1.2
	C108.57,157.03,107.87,155.34,107.23,153.6z"/>
<path class="st11" d="M165.03,197.08c0.64,0.05,1.28,0.1,1.92,0.14C166.19,198.78,165.55,198.72,165.03,197.08z"/>
<path class="st11" d="M169.31,197.22c0.64-0.35,1.25-0.81,2.03-0.39C170.94,198.4,170.33,198.86,169.31,197.22z"/>
<path class="st7" d="M132.84,169.05c0.34,0.11,0.68,0.23,1.02,0.34c0.23,0.1,0.36,0.28,0.41,0.52c-0.09,0.57-0.18,1.14-0.27,1.71
	C132.97,171.06,132.22,170.37,132.84,169.05z"/>
<path class="st7" d="M112.03,156.84c-0.39,0.39-0.78,0.78-1.18,1.17c-0.15-0.07-0.25-0.18-0.29-0.35c0.35-0.4,0.71-0.8,1.06-1.2
	C111.8,156.54,111.93,156.67,112.03,156.84z"/>
<path class="st9" d="M165.85,103c-1.53,8.7-1.68,17.16,3.61,24.9c1.4,2.04,2.18,4.47,2.58,6.97c-0.57,0-1.13-0.01-1.7-0.01
	c-0.55-1.04-1.02-2.21-2.59-1.63c-0.3-0.68-0.85-1-1.56-1.07c-0.87-5.08-2.36-9.96-4.63-14.61c-0.96-1.95-0.96-4.04-0.14-6
	c1.41-3.36,0.72-6.28-1.47-9.01c0.38-0.42,0.75-0.84,1.13-1.26c0.67,0.5,1.46,1.52,2,1.4c1.2-0.26,0.45-1.42,0.45-2.22
	c0.6-0.08,1.2-0.16,1.8-0.24c0.19,0.09,0.27,0.24,0.22,0.44C165.12,101.52,165.04,102.32,165.85,103z"/>
<path class="st5" d="M202.09,120.54c0.06,0.74,0.12,1.49,0.18,2.23c-1.24,2.22-3.07,3.84-5.1,5.35c-6.85,5.07-13.93,9.88-19.48,16.5
	c-0.6-0.26-1.2-0.53-1.8-0.79c4.11-6.11,10.28-10,15.93-14.35C195.45,126.68,198.55,123.38,202.09,120.54z"/>
<path class="st3" d="M165.33,100.23c-0.6,0.08-1.2,0.16-1.8,0.24c-2.01-2.97-2.78-6.95-7.01-8.73c0.85,3.84,2,7.03,4.56,9.55
	c-0.38,0.42-0.75,0.84-1.13,1.26c-3.41-2.22-4.73-5.69-5.56-9.42c-0.35-1.59-0.53-3.21-2.61-3.45c1.52-1.88,3.03,0.48,4.55,0.01
	C161.18,91.63,164.15,95.16,165.33,100.23z"/>
<path class="st9" d="M175.9,143.83c0.6,0.26,1.2,0.53,1.8,0.79c-0.48,0.88-0.97,1.76-1.45,2.65c-0.33,1.79,1.96,0.46,2.06,1.74
	c-2.06,0.49-2.36,1.78-1.63,3.55c-0.67,0.04-1.34,0.07-2.01,0.11c-2.35-1.76-4.7-3.53-7.05-5.29c0.3-0.67,0.61-1.35,0.91-2.02
	c-0.01-0.38-0.02-0.77-0.03-1.15c2.31-1.47,2.19,1.3,3.32,1.9c1.47,0,3.4,1.17,3.85-1.49C175.64,144.32,175.72,144.06,175.9,143.83z
	"/>
<path class="st3" d="M175.66,144.61c-0.45,2.65-2.38,1.48-3.85,1.49c0.62-3.89-0.32-7.58-1.46-11.24c0.57,0,1.13,0.01,1.7,0.01
	c1.92,1.4,1.35,3.6,1.87,5.47C174.31,141.8,173.21,143.99,175.66,144.61z"/>
<path class="st5" d="M156.33,89.69c-1.52,0.47-3.03-1.89-4.55-0.01c-3.56-0.35-7.11-0.7-10.67-1.05c0.02-0.53,0.04-1.06,0.06-1.58
	c2.69,0.1,5.4-0.27,8.05,0.72c1.09,0.41,2.54,0.81,3.43-0.67c0.6,0,1.2,0,1.8,0C155.52,87.65,156.01,88.6,156.33,89.69z"/>
<path class="st9" d="M178.61,10.36c-0.41-0.38-0.82-0.77-1.22-1.15c1.46-2.05,2.95-4.35,5.92-3.44c2.18,0.66,2.49,2.87,3.21,5.35
	C183.61,10.36,181.26,6.13,178.61,10.36z"/>
<path class="st3" d="M165.85,103c-0.81-0.68-0.73-1.49-0.3-2.33C166.09,101.39,166.76,102.1,165.85,103z"/>
<path class="st3" d="M202.16,156.18c3.31-0.48,6.36,2.15,9.74,0.79c0.45,0.06,0.89,0.11,1.34,0.17c-0.72,2.94,3.01,2.88,3.41,5.06
	c-3.34,1.71-4.28-2.11-6.97-3.29c1.46,4.03,2.75,7.54,4.02,11.07c0.99,2.76,0.76,4.52-2.82,3.19c-2.28-0.85-4.44-0.41-6.93-0.04
	c1.85,3.07,5.41,4.27,5.89,7.78c-0.48,0.31-0.95,0.62-1.43,0.93l0.35,0.01c0,0,0.05,0.35,0.04,0.34c-0.52-0.2-1.03-0.4-1.54-0.59
	c-0.05-0.42-0.14-0.81-0.71-0.75l0.05,0.06c-0.18-3.67-3.54-4.77-5.6-6.91c1.27-0.94,2.54-1.87,3.81-2.81
	c1.29-0.56,3.14,0.54,4.25-1.45c-2.98-1.83-6.06-1.89-9.21-1.61c-0.5-0.55-1-1.09-1.5-1.64c1.32-1.12,2.7-2.18,3.96-3.38
	c1.79-1.71,2.8-3.49-0.1-5.15C202.2,157.37,202.18,156.77,202.16,156.18z M209.96,167.28c-0.2-2.78-1.2-5.92-2.91-6.17
	c-1.92-0.29-2.99,2.94-4.96,4.83C204.97,166.43,207.22,166.81,209.96,167.28z"/>
<path class="st12" d="M178.45,154.3c2.08,0.04,4.64-2.82,6.09,1.01c1.6,1.46,5.17-0.22,5.42,3.56c0.08,1.24,0.38,3.48,2.25,2.96
	c1.57-0.43,1.71-2.38,1.13-4.01l-0.04,0.04c1.1,0.77,1.32-0.34,1.83-0.85c1.95-1.18,2.92-3.54,5.21-4.31
	c-1,4.13-2.27,8.08-6.98,9.49c-2.84-1.22-5.41,0.47-5.46,4.23c-0.03,2.78-1.1,2.79-3.09,2.22c-1.11-0.32-2.23-0.59-3.34-0.89
	c1.7-7.29,1.09-9.64-3.13-12.14C178.39,155.17,178.42,154.73,178.45,154.3z"/>
<path class="st5" d="M213.24,157.14c-0.45-0.06-0.89-0.11-1.34-0.17c1.15-2.75,3.75-2.75,5.95-2.62c7.64,0.45,15.11-0.91,22.64-1.71
	c3.36-0.36,6.76-0.35,10.08,0.46c3.95,0.96,7.81-0.46,11.73-0.38c0,0.5,0.01,1.01,0.01,1.51c-5.05,0.36-10.14,1.71-15.16,0.5
	c-4.01-0.97-7.8,0.25-11.68,0.44c-1.45,0.07-0.18,0.81,0.22,1.17c-0.6,0.22-1.2,0.45-1.79,0.67
	C227.01,155.47,220.13,156.06,213.24,157.14z"/>
<path class="st5" d="M178.3,149c-0.09-1.28-2.39,0.05-2.06-1.74c10.09-1.93,16.15-9.62,22.81-16.3c2.27-2.28,4.69-4.86,4.89-8.52
	l-0.03,0.03c0.75,0.21,0.8-0.29,0.82-0.81c0.93-1.18,1.86-1.27,2.81-0.03c-5.72,12.81-16.21,20.79-27.97,27.45
	C179.27,149.25,178.73,149.03,178.3,149z"/>
<path class="st10" d="M262.32,154.24c0-0.5-0.01-1.01-0.01-1.51c3.8-1.39,7.49-3.12,11.56-3.67c0.6,0.96,2.04,1.41,1.76,2.91
	c-6.1,3.54-12.24,6.97-19.5,7.52c-0.02-0.38-0.05-0.75-0.07-1.13c5.01-0.75,9.57-2.65,14.14-5.34
	C267.03,151.78,264.92,154.4,262.32,154.24z"/>
<path class="st7" d="M193.37,162.18c4.71-1.41,5.97-5.35,6.98-9.49c-0.31-0.68-0.61-1.36-0.92-2.03c2.1-1.5,2.96-0.48,3.05,1.62
	c0.06,1.29-0.2,2.6-0.32,3.9c0.02,0.59,0.04,1.18,0.06,1.78c-2.85,2.17-4.08,6.06-7.79,7.29
	C194.07,164.23,193.72,163.21,193.37,162.18z"/>
<path class="st3" d="M275.62,151.97c0.28-1.5-1.16-1.95-1.76-2.91c4.55-1.31,8.11-3.87,10.35-8.12c0.4,0.04,0.8,0.09,1.21,0.13
	c-0.43,2.21,1.93,1.3,2.58,2.3C283.32,145.44,279.82,149.2,275.62,151.97z"/>
<path class="st5" d="M285.42,141.07c-0.4-0.04-0.8-0.09-1.21-0.13c0.68-4.48,2.34-8.24,7.11-9.74c0.7,0.03,1.4,0.06,2.09,0.09
	c0.19,1.05-0.3,1.88-0.84,2.7c-0.51-0.04-1.02-0.07-1.53-0.11C286.59,134.26,287.74,139.03,285.42,141.07z"/>
<path class="st7" d="M193.34,157.82c0.57,1.63,0.44,3.58-1.13,4.01c-1.87,0.51-2.17-1.73-2.25-2.96c-0.25-3.79-3.82-2.1-5.42-3.56
	c0.69-0.15,1.55-0.09,2.06-0.48c2.53-1.93,4.1-1.41,4.84,1.66C191.69,157.52,192.39,157.83,193.34,157.82z"/>
<path class="st10" d="M199.43,150.66c0.31,0.68,0.61,1.35,0.92,2.03c-2.29,0.77-3.26,3.13-5.21,4.31c-0.29-0.29-0.57-0.59-0.86-0.88
	C195.91,154.23,197.19,151.99,199.43,150.66z"/>
<path class="st10" d="M178.45,154.3c-0.03,0.43-0.06,0.87-0.1,1.3c-0.07,0.53-0.14,1.07-0.2,1.6c-1.77-1.05-2.58-2.84-3.5-4.55
	c0.67-0.04,1.34-0.07,2.01-0.11C177.26,153.13,177.86,153.72,178.45,154.3z"/>
<path class="st7" d="M194.27,156.12c0.29,0.29,0.57,0.59,0.86,0.88c-0.51,0.51-0.73,1.62-1.83,0.85
	C193.63,157.28,193.95,156.7,194.27,156.12z"/>
<path class="st8" d="M216.37,106.6c0.1,1.97-0.7,3.1-2.8,3.02c0.03-0.3,0.07-0.6,0.1-0.9c0.26-0.72,0.51-1.45,0.77-2.17
	C215.09,106.24,215.75,105.85,216.37,106.6z"/>
<path class="st13" d="M239.36,267.5c-1.01-1.11-2.1-2.13-3.63-2.49c-1.89-1.76-3.99-3.35-5.61-5.34c-1.01-1.24-3.34-3.26,0.37-4.39
	c6.03,1.94,11.84,0.11,17.68-1.06c0.11-1.29,0.9-1.56,2.08-1.71c5.3-0.67,10.89,1.28,15.64,0.39c6.88-1.29,7.5,1.71,7.94,6.55
	c-7.24-2.78-14.62-4.72-23.39-4.33c3.92,2.38,7.43,1.67,10.67,2.49c9.51,2.43,18.72,5.79,28.08,8.69c1.93,0.6,5.01,0.87,5.17,2.68
	c0.2,2.22-2.44,3.73-4.38,5.06c-0.36,0.25-0.76,0.45-1.15,0.65c-6.15,3.08-11.88,7.02-18.58,8.96c-1.79-0.18-2.72-1.65-3.89-2.7
	c-2.38-2.14-4.3-4.85-7.5-5.95C253.05,270.71,245.74,270.3,239.36,267.5z"/>
<path class="st13" d="M294.9,272.46c0.04,1.42,1.08,2.38,1.62,3.56c0.61,1.33,0.24,2.55-0.77,3.63c-0.99,1.06-1.95,0.97-3.15,0.37
	c-3.13-1.57-4.99-1.19-6.8,2.53c-2.08,4.28-7.15,3.9-11.28,4.38c-2.61,0.31-5.3-0.07-7.94,0.09c-4.33,0.27-8.23,0.33-8.45-5.68
	c-0.1-2.61-1.55-2.27-3.12-0.75c-1.97,1.92-3.49,3.96-3.29,6.9c0.08,1.16,0.17,2.4-1.08,3.14c-3.7-8-8.86-15.07-14-22.16l0.26-0.24
	c0.8,0.24,1.59,0.49,2.39,0.73c5.98,3.86,13.63,3.35,19.53,7.42c2.4,2.33,5.08,4.45,7.09,7.08c1.33,1.75,2.53,2.11,4.37,1.6
	C279.36,282.59,287.21,277.69,294.9,272.46z"/>
<path class="st11" d="M232.17,266.71c6.52,7.75,12.49,15.84,16.48,25.26c1.48,3.5,1.87,7.05,1.42,10.75
	c-0.11,0.96,0.23,2.29-0.99,2.67c-1.23,0.38-1.77-0.84-2.31-1.64c-4.83-7.16-9.76-14.27-12.57-22.56
	c-1.45-4.28-3.03-8.52-4.55-12.78c0.22-1.09-0.77-2.58,0.25-3.22C230.95,264.54,231.19,266.48,232.17,266.71z"/>
<path class="st9" d="M232.17,266.71c-0.98-0.24-1.22-2.18-2.27-1.51c-1.01,0.64-0.03,2.12-0.25,3.22c-0.51-0.03-1.02-0.05-1.52-0.08
	c-1.66-2.35-1.39-5.1-1.31-7.68c0.13-4.08-0.9-7.47-4.31-9.93c2.06,0.29,3.49-0.26,3.58-2.64c0.5,0.02,1.01,0.03,1.51,0.05
	c0.78,2.15-1.46,5.67,2.84,6.22c0.02,0.31,0.04,0.61,0.06,0.92c-3.71,1.12-1.39,3.15-0.37,4.39c1.62,1.98,3.71,3.58,5.61,5.34
	C234.77,266.05,233.53,266.5,232.17,266.71z"/>
<path class="st10" d="M258.8,276.38c-5.9-4.07-13.55-3.56-19.53-7.42c0.03-0.49,0.06-0.97,0.09-1.46c6.38,2.81,13.69,3.21,19.5,7.52
	C258.84,275.47,258.82,275.92,258.8,276.38z"/>
<path class="st13" d="M236.62,268.48c-0.11-0.19-0.22-0.38-0.33-0.57c0.2,0.11,0.39,0.22,0.59,0.33
	C236.88,268.23,236.62,268.48,236.62,268.48z"/>
<path class="st2" d="M209.84,180.91c-0.47-3.52-4.04-4.72-5.89-7.78c2.49-0.37,4.66-0.81,6.93,0.04c3.58,1.33,3.81-0.43,2.82-3.19
	c-1.27-3.52-2.56-7.04-4.02-11.07c2.68,1.18,3.62,5,6.96,3.29l0.15,0.12c-1,1.82,0.65,2.07,1.6,2.25c2.44,0.47,4.94,0.91,7.41,0.91
	c9.26-0.03,17.96,2.22,26.54,5.56c4.68,1.82,8.53,5.2,13.4,6.5c2.21,1.36,4.66,1.62,7.18,1.59c2.22,1.53,3.93-0.17,5.79-0.91
	l-0.05,0.01c8.69-1.59,15.8-5.89,21.56-12.52l0.03-0.06c0.36-0.21,0.71-0.42,1.07-0.64c2.02-0.66,4.03-1.32,6.05-1.98
	c4.5-0.62,7.92-1.96,5.42-7.62c-0.43-0.97,0.27-1.94,0.86-2.77c2.98-1.76,5.97-3.52,8.95-5.28c5.1,0.02,1.14,3.51,1.98,5.16
	c-1.88,6.08-0.2,11.29,3.12,16.57c4.81,7.65,6.1,16.05,3.03,24.82c-0.76,2.18-0.8,4.28,0.29,6.38c0.61,1.17,1,2.47,1.7,3.57
	c5.91,9.24,2.75,17.23-3.31,24.86c-0.36,0.45-0.56,1.02-0.83,1.53c-6.96,7.27-13.85,14.61-22.34,20.19
	c-9.14,3.85-13.8-2.85-19.06-8.1c-3.85-5.56-8.6-10.36-13.34-15.11c-2.65-2.65-4.55-6.22-8.39-7.56
	c-5.66-5.99-13.05-8.19-20.83-9.56c-2.17-1.14-4.51-1.82-6.62-3.21c-6.72-4.4-11.96-10.48-18.2-15.42c-0.62-1.8-0.95-3.79-1.95-5.36
	c-1.05-1.64,0.56-5.19-2.16-4.91c-2.46,0.25-2.5,3.55-2.74,5.87c-0.09,0.87-0.02,1.76-0.03,2.64c-0.61,0.57-0.63,1.14,0,1.71
	c0.05,1.16,0.1,2.33,0.15,3.49c3.75,9.46,7.51,18.91,11.26,28.37c0.1,1.31-1.48,0.89-1.81,1.75l0.01,0.01
	c0.53-0.72-0.13-0.85-0.55-1.1c-2.89-3.67-6.3-6.79-10.08-9.52c-2.3-3.27-4.3-6.69-5.36-10.59c-0.08-1.16,0.09-2.08,1.09-3
	c2.47-2.28,3.24-5.23,2.61-8.53c-0.06-2.24,1.1-4.85-1.89-6.2l0.03,0.04c0.13-1.33,0.26-2.65,0.4-3.98l-0.05-0.35l-0.35-0.01
	C209.49,182.46,209.85,181.97,209.84,180.91z"/>
<path class="st12" d="M275.57,449.75c-0.12-1.79,0.21-3.65-0.7-5.34c-0.06-5.29-1.57-10.55-0.35-15.87
	c0.15-1.15,0.48-2.31,0.42-3.45c-0.46-8.99,3.35-16.59,7.72-24.01c1.34-1.29,1.98-3.25,3.9-4.07c1.58,0.8-0.21,3.54,1.98,3.75
	c1.64,0.16,2.41-1.45,3.33-2.54c0.99-1.17,1.24-1.34,3.08-0.32c7.72,4.28,3.21,10.86,3.8,16.44c-2.05,13.27-8.09,24.54-17.21,34.25
	c-1.3,1.39-2.71,2.69-3.31,4.58C275.55,453.42,276.73,450.68,275.57,449.75z"/>
<path class="st14" d="M298.77,399.01c-2.97-2.21-3.76-4.55-3.43-7.27c0.06-0.5,0.95-0.93,1.43-0.49
	C298.94,393.23,298.53,395.87,298.77,399.01z"/>
<path class="st14" d="M288.5,391.79c-1.47,2.18-3.32,3.92-5.79,4.92l-0.15-0.17c0.64-2.85,3.02-4.04,5.21-5.41
	C288.01,391.35,288.25,391.57,288.5,391.79z"/>
<path class="st14" d="M287.76,391.13c0.33-0.1,0.66-0.21,0.98-0.31c-0.08,0.32-0.17,0.64-0.25,0.97
	C288.25,391.57,288.01,391.35,287.76,391.13z"/>
<path class="st14" d="M282.71,396.71c-0.15,0.09-0.31,0.18-0.46,0.28c0.1-0.15,0.21-0.29,0.31-0.44
	C282.55,396.54,282.71,396.71,282.71,396.71z"/>
<path class="st14" d="M203.94,122.44c-0.2,3.65-2.62,6.23-4.89,8.52c-6.66,6.69-12.71,14.37-22.81,16.3
	c0.48-0.88,0.97-1.76,1.45-2.65c5.55-6.61,12.63-11.42,19.48-16.5c2.03-1.5,3.86-3.12,5.1-5.35
	C202.83,122.66,203.38,122.55,203.94,122.44z"/>
<path class="st4" d="M213.67,108.71c-0.03,0.3-0.06,0.61-0.1,0.9C213.6,109.31,213.64,109.01,213.67,108.71z"/>
<path class="st14" d="M204.74,121.66c-0.02,0.53-0.08,1.02-0.82,0.81C203.86,121.87,204.28,121.74,204.74,121.66z"/>
<path class="st13" d="M102.34,146.35c0.05,1.54-0.07,3-1.85,3.59c-8.63,3.27-10.57,2.61-15.8-5.75c-3.5-5.59-6.5-11.26-6.13-18.32
	c0.11-2.11,1.9-3.23,1.65-5.15c1.58-2.15,3.07-4.35,3.54-7.05c2.47-3.21,3.78-7.11,4.1-10.89c0.66-7.67,3.7-14.22,7.68-20.53
	c5.25-6.2,11.31-11.37,18.51-15.23c1.61-0.86,3.35-1.86,4.37-3.58c2.82,0.53,3.62,2.55,3.72,5.07c-0.97,4.08-2.15,8.18,0.82,12
	c0.37,2.35,4.22,3.51,2.27,6.65c0.01,0.55,0.02,1.09,0.04,1.64c-0.32,0.33-0.63,0.67-0.95,1l0.07-0.06
	c-4.49,3.88-8.99,7.75-13.45,11.65c-0.1,0.09,0.09,0.52,0.15,0.79l0.04-0.03c-1.05-0.58-1.43,0.18-1.83,0.91l0.05-0.04
	c-4.91,5.52-10.19,10.78-13.06,17.79c-2.04,2.08-0.64,3.81,0.7,5.36c3.46,4.03,4.43,8.76,4.37,13.91
	C101.32,142.16,100.55,144.49,102.34,146.35z"/>
<path class="st1" d="M174.65,152.66c0.92,1.71,1.73,3.49,3.5,4.54c0.66,1.3,1.44,2.56,1.95,3.92c0.6,1.58,0.51,3.33-0.61,4.59
	c-1.16,1.3-2.76,0.46-4.13,0.07c-2.76-0.77-4.91-2.52-6.94-4.48c-0.83-0.81-1.82-1.86-3.03-1.43c-1.58,0.55-1.31,2.25-1.16,3.45
	c0.66,5.33-0.75,10.5-0.97,15.75c-2.82,0.18-3.69-3.11-6.19-3.5c-0.29-0.01-0.57-0.03-0.86-0.04l0.01,0.01
	c-3.7-5.11-9.94-5.26-15.04-7.6c-2.46-1.13-5.26-1.54-7.9-2.28c-2.46-1.27-5.11-2.3-6.28-5.14c-1.62-3.85-5.03-5.99-8.08-8.47
	c0.37-2.95-0.08-5.47-3.73-5.62c-3.18-0.13-2.11,2.45-2.36,4.15c-0.92-0.02-1.84-0.03-2.75-0.05c-0.2-3.36-2.69-2.94-4.9-2.98
	c-0.38-0.4-0.76-0.8-1.14-1.2c-1.16-1.87-0.94-3.96-0.8-5.97c0.37-5.41-0.38-10.44-3.95-14.82c-0.88-1.08-1.92-2.31-1.46-3.97
	c3.08,1.62,4.73,1.01,4.44-2.79c-0.11-1.45-0.07-2.92-0.09-4.38l-0.02,0.01c2.69-0.01,5.02-0.39,4.25-4.04
	c-0.46-3.04,3.65-4.27,2.94-7.4l-0.05,0.04c0.95,0.39,1.56,0.08,1.83-0.91l-0.04,0.03c3.45-0.73,5.62-3.78,8.86-4.9
	c0.11,0.2,0.21,0.41,0.32,0.61c0.1-0.25,0.21-0.5,0.31-0.75c0.23-0.97,0.92-1.53,1.75-1.97c0.34-0.49,0.69-0.98,1.03-1.47
	c-0.61-1.57,1.22-2.5,1.04-3.95l-0.07,0.06c0.33,0,0.66,0,0.99-0.01c1.66-0.12,2.41,4.7,4.76,0.89c1.09,2.84,2.19,5.69,3.28,8.53
	c-1.12,2.18-1.24,3.99,1.7,4.71c0.94,1.91,0.94,4.44,3.48,5.3c5.16,11.89,10.25,23.83,21.22,31.84c2.14,2.71,4.73,4.86,7.87,6.31
	C169.96,149.13,172.31,150.89,174.65,152.66z M120.79,147.91c0.12-0.06,0.24-0.13,0.35-0.19c-0.1-0.08-0.2-0.23-0.31-0.24
	c-0.11-0.01-0.23,0.11-0.35,0.18C120.58,147.75,120.69,147.83,120.79,147.91z M136.1,162.63c-0.13-0.04-0.25-0.12-0.38-0.11
	c-0.04,0-0.08,0.2-0.12,0.31c0.13,0.04,0.25,0.12,0.38,0.11C136.03,162.93,136.06,162.73,136.1,162.63z"/>
<path class="st15" d="M141.12,88.63c3.56,0.35,7.11,0.7,10.67,1.05c2.08,0.24,2.26,1.86,2.61,3.45c0.82,3.73,2.15,7.2,5.56,9.42
	c2.19,2.72,2.89,5.64,1.47,9.01c-0.82,1.96-0.82,4.04,0.14,6c2.27,4.64,3.77,9.52,4.63,14.61c0.32,4.1,0.08,8.31,2.36,12.02
	l-0.06,0.02c0.01,0.38,0.02,0.77,0.03,1.15c-3.01-1.23-5.05-3.84-7.79-5.45c-0.41-0.59-0.72-1.29-1.23-1.77
	c-6.15-5.78-11.44-12.14-14.62-20.12c-1.24-3.1-2.57-6.25-4.72-8.92c-2.71-7.52-6.37-14.71-7.75-22.68
	C135.58,86.1,138.01,88.66,141.12,88.63z"/>
<path class="st5" d="M140.16,109.09c2.15,2.67,3.49,5.82,4.72,8.92c3.18,7.99,8.47,14.34,14.62,20.12c0.51,0.48,0.83,1.17,1.23,1.77
	c-0.33,0.38-0.66,0.77-0.99,1.15c-10.98-8.01-16.06-19.95-21.22-31.84C139.06,109.17,139.61,109.13,140.16,109.09z"/>
<path class="st14" d="M125.2,69.6c1.22,3.19,2.44,6.38,3.67,9.57c-0.18,1.03,0.99,2.72-0.56,2.99c-2.01,0.35-2.75-1.8-3.89-3.06
	c-1.45-3.09-1.15-6.34-0.92-9.59C124.07,69.54,124.63,69.57,125.2,69.6z"/>
<path class="st4" d="M123.5,69.5c-0.23,3.25-0.52,6.5,0.92,9.59c-0.49,0.47-0.97,0.94-1.46,1.4c-2.98-3.81-1.8-7.91-0.83-12
	C122.59,68.84,123.04,69.17,123.5,69.5z"/>
<path class="st7" d="M141.12,88.63c-3.1,0.03-5.54-2.53-8.71-2.22c0.04-0.8,0.08-1.59,0.12-2.39c2.88,1.01,5.77,2.02,8.65,3.03
	C141.16,87.57,141.14,88.1,141.12,88.63z"/>
<path class="st15" d="M130.06,90.67c-2.35,3.81-3.1-1.01-4.76-0.89c-0.01-0.33-0.03-0.66-0.04-0.99c-0.01-0.55-0.02-1.09-0.04-1.64
	C127.94,86.81,129.39,88.2,130.06,90.67z"/>
<path class="st15" d="M135.04,103.91c-2.94-0.71-2.82-2.53-1.7-4.71C134.56,100.53,135.29,102.04,135.04,103.91z"/>
<path class="st13" d="M216.8,162.32c0,0-0.16-0.12-0.15-0.12c-0.4-2.18-4.13-2.12-3.41-5.06c6.89-1.08,13.77-1.66,20.67-0.11
	c7.11,3.46,14.51,4.32,22.21,2.46c7.26-0.54,13.4-3.98,19.5-7.52c4.19-2.77,7.69-6.53,12.37-8.6l0.01-0.08
	c5.85-0.97,3.85-5.8,4.57-9.3c0.55-0.82,1.03-1.65,0.84-2.7c0.07-0.22,0.05-0.44-0.06-0.64c6.27-0.55,8.27,4.56,11.2,8.44
	c0.28,1.19,0.81,2.22,1.92,2.86c0.17,0.55,0.25,1.15,0.53,1.64c2.78,4.91,4.45,9.68-1.03,14.03c-0.72,0.57-0.98,1.72-1.45,2.6
	c-1.96,1.74-4.2,2.99-6.64,3.89c-1.3-0.04-2.6-0.09-3.9-0.13l-0.28-0.27l-0.33,0.21c-0.04,0.27-0.05,0.54-0.01,0.8
	c-4.01-0.01-7.97,0.14-10.71,3.76l0.05-0.04c-3.02,1.07-5.54,2.78-7.22,5.58c-2.65,3.22-6.03,2.84-9.52,1.96
	C251.36,165.01,234.12,163.52,216.8,162.32z"/>
<path class="st8" d="M141.67,79.78c-0.11,0.25-0.21,0.49-0.32,0.74c-0.24-0.11-0.63-0.16-0.7-0.33c-0.07-0.18,0.17-0.48,0.28-0.72
	C141.18,79.57,141.43,79.68,141.67,79.78z"/>
<path class="st8" d="M155.31,351.38c0.06-1.98,1.83-2.92,2.79-4.32c1.34-1.96,2.11-5.04,5.88-3.6c3.72,1.42,3.64,3.98,2.83,7.02
	c-2.31-0.75-4.58-1-6.79,0.34C158.55,351.71,156.94,351.65,155.31,351.38z"/>
<path class="st9" d="M297.88,164.12c2.44-0.9,4.68-2.16,6.64-3.89c0.37,0.1,0.74,0.19,1.11,0.29c0.1,1.09,0.98,1.14,1.75,1.33
	c0,0.4,0,0.79,0,1.19c-2.02,0.66-4.03,1.32-6.05,1.98c-0.55-0.12-0.91,0.09-1.07,0.64l-0.03,0.06c-0.61-0.22-1.21-0.44-1.82-0.66
	C298.24,164.74,298.06,164.43,297.88,164.12z"/>
<path class="st14" d="M307.39,161.84c-0.77-0.19-1.66-0.24-1.75-1.33c0.76-0.86,1.52-1.73,2.3-2.58c0.67-0.73,1.08-1.91,2.28-1.81
	c1.12,0.09,1.06,1.25,1.27,2.02c0.39,1.42-0.49,2.12-1.71,2.58C308.95,161.03,308.18,161.46,307.39,161.84z"/>
<path class="st14" d="M285.82,248.16l-0.02-0.04c0-1.02-0.23-1.68-1.4-0.92l0.02,0.02c1.04-3.6-2.19-4.58-4.07-5.99
	c-5.41-4.05-10.6-8.29-15.31-13.16c-6.36-6.56-13.15-12.57-22.14-15.37c0.11-1.2,1.07-0.8,1.75-0.93c6.74,1.88,13.43,3.9,19.14,8.21
	c7.76,8.21,15.52,16.43,23.28,24.64C289.04,246.63,284,246.2,285.82,248.16z"/>
<path class="st6" d="M287.06,244.61c-7.76-8.21-15.52-16.43-23.28-24.64c0.56-0.1,1.13-0.2,1.69-0.31c3.84,1.34,5.75,4.91,8.39,7.56
	c4.75,4.75,9.49,9.55,13.34,15.11C287.15,243.1,287.1,243.86,287.06,244.61z"/>
<path class="st12" d="M183.65,197.77c-0.64-0.26-1.8-0.35-1.56-1.18c1.44-4.93,2.52-10.03,5.98-14.11c0.16,0.24,0.38,0.39,0.67,0.44
	c0.23,0.26,0.45,0.52,0.68,0.79c1.05,1.51,1.98,1.73,2.71-0.24c0.09-2.34-2.25-5.46,0.23-6.8c2.41-1.29,5.06,0.12,7.49,2.42
	c2.64,2.51,4.7,6,8.58,7.08l-0.03-0.04c-1.16,2.09,0.57,4.1,0.18,6.18c-1.27,8.29-3.82,10.19-11.89,8.88
	c-2.73-0.44-4.89-2.59-7.76-2.59C187.15,198.32,185.4,198.04,183.65,197.77z"/>
<path class="st11" d="M134.28,169.92c-0.05-0.24-0.19-0.42-0.41-0.52c2.93-2.47,5.52-0.07,7.93,0.88c4.77,1.88,9.52,3.77,14.42,5.26
	l-0.01-0.01c-0.08,0.34-0.16,0.69-0.23,1.03c1.62,1.7,3.06,3.63,5.45,4.37c1.16,1.33,2.32,2.66,3.48,3.99
	c2.54,2.6,4.29,6.02,7.81,7.61c0.07,0.8,1.7,1.89-0.25,2.33c-2.87,0.65-5.8,0.93-8.66-0.03c-11.73-3.94-20.05-12.1-27.02-21.93
	C136.04,171.84,135.12,170.91,134.28,169.92z"/>
<path class="st12" d="M187,179.76c-3.75,2.98-3.96,7.76-5.74,11.7c-2.06,4.55-1.7,4.7-5.75,1.38c-0.32-0.27-0.76-0.39-1.15-0.58
	c-0.41-2.33,2.17-3.18,2.54-5.13c1.56-1.41,2.22-3.25,2.56-5.25c1.51-3.4,4.52-5.5,6.99-8.07c0.36-0.37,0.94-1.04,1.34-0.37
	c0.3,0.5,0.02,1.34,0,2.04C186.6,176.74,187.42,178.36,187,179.76z"/>
<path class="st7" d="M176.9,187.14c-0.37,1.94-2.94,2.8-2.54,5.13c-0.55,0.09-1.09,0.17-1.64,0.26c-3.52-1.59-5.27-5.01-7.81-7.61
	c0.27-1.04,1.06-1.32,2-1.38c0.6,0.99,1.19,1.98,1.8,2.96c1.91,3.07,3.56,2.89,4.96-0.4C174.75,186.44,175.82,186.79,176.9,187.14z"
	/>
<path class="st9" d="M183.65,197.77c1.75,0.28,3.51,0.56,5.26,0.83c-0.01,0.51-0.01,1.02-0.02,1.53c-0.29,0.01-0.57,0.05-0.85,0.12
	c-1-0.38-1.99-0.29-2.45,0.7c-0.32,0.68-0.36,1.64,0.7,2.02c0.07,0.59,0.14,1.18,0.22,1.76c-0.07,0.6-0.13,1.19-0.2,1.79l-0.33-0.13
	c-0.58,0.07-1.15,0.14-1.73,0.21c0.06-0.88,0.13-1.77,0.19-2.65c0.42-1.58-1.34-1.79-1.77-2.83c0.06-0.57,0.12-1.15,0.17-1.72
	C183.11,198.86,183.38,198.31,183.65,197.77z"/>
<path class="st7" d="M187,179.76c0.42-1.4-0.41-3.02,0.77-4.28c3.9,2.02,1.84,4.81,0.95,7.44c-0.29-0.05-0.51-0.2-0.67-0.44
	C187.71,181.57,187.36,180.67,187,179.76z"/>
<path class="st15" d="M184.44,203.95c-0.06,0.88-0.13,1.77-0.19,2.65c-1.25,9.32-2.75,18.53-8.08,26.64
	c-1.85,2.81-3.35,5.87-4.85,8.89c-0.63,1.27-2.38,2.42-0.95,4.2l0,0c-0.25-0.07-0.5-0.15-0.75-0.22c-0.04,0.37-0.09,0.73-0.13,1.1
	v0.01c-1.59-0.28-1.77,0.53-1.37,1.78l0.01-0.05c-3.53,0.13-4.66,3.47-6.95,5.25c-3.73,2.91-6,7.54-10.85,9.14
	c4.02-15.86,10.38-30.53,21.67-42.71c3.94-4.25,6.22-9.6,9.45-14.32C182.14,205.3,182.19,203.12,184.44,203.95z"/>
<path class="st5" d="M150.33,263.34c4.84-1.6,7.12-6.24,10.85-9.14c2.29-1.78,3.42-5.12,6.95-5.25c-0.33,0.81-0.66,1.62-0.99,2.42
	c-0.28,0.13-0.43,0.34-0.47,0.64c-1.81,1.11-3.45,2.39-4.48,4.31c-1.13,1.02-2.27,2.04-3.4,3.06c-2.97,1.73-4.61,5.05-7.83,6.48
	c-0.34-0.59-0.67-1.18-1.01-1.77C149.99,263.8,150.12,263.55,150.33,263.34z"/>
<path class="st14" d="M112.03,156.84c-0.09-0.17-0.23-0.3-0.41-0.38c-0.79-1.01-1.58-2.01-2.37-3.02c-0.04-0.29-0.01-0.58,0.09-0.85
	c6.88-0.63,11.53,3.12,15.61,7.98c0.11,0.57,0.22,1.15,0.33,1.72C120.69,160.89,116.15,159.37,112.03,156.84z"/>
<path class="st3" d="M97.81,121.6c-0.46,1.67,0.58,2.9,1.46,3.97c3.57,4.38,4.32,9.41,3.95,14.82c-0.14,2.01-0.36,4.1,0.8,5.97
	c-0.56,0-1.12,0-1.68,0c-1.79-1.86-1.02-4.19-1-6.3c0.06-5.15-0.91-9.87-4.37-13.91c-1.33-1.56-2.74-3.28-0.7-5.36
	c0.45-0.01,0.91-0.02,1.36-0.03C97.66,121.04,97.72,121.32,97.81,121.6z"/>
<path class="st4" d="M124.95,160.57c-4.08-4.86-8.72-8.61-15.61-7.98c-0.31-0.6-0.61-1.19-0.92-1.79c0.55-0.09,1.09-0.18,1.64-0.27
	c0.92,0.02,1.84,0.03,2.75,0.05c2.03,0.49,4.06,0.98,6.09,1.47c3.05,2.48,6.46,4.62,8.08,8.47
	C126.31,160.54,125.63,160.55,124.95,160.57z"/>
<path class="st15" d="M110.06,150.53c-0.55,0.09-1.09,0.18-1.64,0.27c-1.16-1.01-2.68-1.66-3.26-3.25
	C107.38,147.6,109.87,147.18,110.06,150.53z"/>
<path class="st14" d="M125.23,162.24c0.93,0.11,0.61,0.45,0.16,0.83C125.29,162.8,125.24,162.52,125.23,162.24z"/>
<path class="st14" d="M161.08,101.29c-2.56-2.53-3.71-5.71-4.56-9.55c4.23,1.78,4.99,5.76,7.01,8.73c0,0.8,0.76,1.96-0.45,2.22
	C162.54,102.81,161.76,101.79,161.08,101.29z"/>
<path class="st14" d="M168.49,144.2l0.06-0.02c0.67,0.13,1.4-0.23,1.21-0.78c-1.15-3.3-0.44-6.96-2-10.16
	c1.57-0.58,2.04,0.59,2.59,1.63c1.14,3.66,2.08,7.35,1.46,11.24C170.68,145.5,170.8,142.73,168.49,144.2z"/>
<path class="st3" d="M167.75,133.23c1.56,3.2,0.85,6.86,2,10.16c0.19,0.55-0.53,0.91-1.21,0.78c-2.28-3.71-2.04-7.92-2.36-12.02
	C166.91,132.23,167.46,132.55,167.75,133.23z"/>
<path class="st4" d="M159.74,141.05c0.33-0.38,0.66-0.77,0.99-1.15c2.74,1.61,4.78,4.22,7.79,5.45c-0.3,0.67-0.61,1.34-0.91,2.02
	C164.47,145.91,161.88,143.76,159.74,141.05z"/>
<path class="st9" d="M188.73,182.92c0.89-2.64,2.95-5.42-0.95-7.44c0.02-0.69,0.3-1.54,0-2.04c-0.4-0.67-0.98,0-1.34,0.37
	c-2.47,2.57-5.48,4.67-6.99,8.07c-1.23-0.05-2.46-0.11-3.69-0.16c-0.57-1.2-2.68-0.81-2.67-2.6c2.73-0.04,5-1.38,6.14-3.61
	c1.18-2.29,5.32-1.7,4.84-4.33c-0.42-2.23-4.38-0.4-5.78-2.66c0.86-1.1,2.08-0.75,3.2-0.78c1.11,0.29,2.23,0.57,3.34,0.89
	c1.98,0.57,3.05,0.56,3.09-2.22c0.04-3.76,2.61-5.45,5.46-4.23c0.35,1.02,0.71,2.05,1.06,3.07c0.51,2.96,2.72,0.5,3.94,1.24
	c0.5,0.55,1,1.09,1.5,1.64c-0.66,0.26-1.71,0.36-1.89,0.81c-0.37,0.92,0.65,1.09,1.3,1.22c1.84,0.39,3.7,0.69,5.56,1.03
	c-1.27,0.94-2.54,1.87-3.81,2.81c-0.98-0.16-1.79-0.17-1.36,1.24c1.06,3.45,3.78,4.83,6.95,5.67l-0.05-0.06
	c0.24,0.25,0.47,0.5,0.71,0.75c0.51,0.19,1.02,0.39,1.54,0.59c-0.13,1.33-0.26,2.66-0.39,3.99c-3.88-1.08-5.94-4.58-8.58-7.08
	c-2.42-2.3-5.08-3.72-7.49-2.42c-2.48,1.33-0.14,4.46-0.23,6.8c-0.9,0.08-1.81,0.16-2.71,0.24
	C189.18,183.44,188.96,183.18,188.73,182.92z"/>
<path class="st12" d="M198.36,166.49c-1.21-0.73-3.42,1.73-3.94-1.24c3.71-1.24,4.95-5.13,7.79-7.29c2.9,1.66,1.89,3.44,0.1,5.15
	C201.07,164.3,199.69,165.37,198.36,166.49z"/>
<path class="st12" d="M209.96,167.28c-2.75-0.47-4.99-0.85-7.87-1.34c1.96-1.88,3.04-5.11,4.96-4.83
	C208.77,161.37,209.76,164.5,209.96,167.28z"/>
<path class="st12" d="M204.83,171.19c-1.85-0.34-3.71-0.64-5.56-1.03c-0.65-0.14-1.67-0.31-1.3-1.22c0.18-0.45,1.23-0.55,1.89-0.81
	c3.15-0.28,6.24-0.21,9.21,1.61C207.97,171.73,206.12,170.63,204.83,171.19z"/>
<path class="st12" d="M206.61,180.91c-3.17-0.84-5.9-2.22-6.95-5.67c-0.43-1.42,0.38-1.4,1.36-1.24
	C203.08,176.14,206.44,177.24,206.61,180.91z"/>
<path class="st9" d="M209.84,180.91c0.01,1.06-0.35,1.55-1.43,0.93C208.88,181.53,209.36,181.22,209.84,180.91z"/>
<path class="st14" d="M207.27,181.59c-0.24-0.25-0.47-0.5-0.71-0.75C207.12,180.78,207.22,181.17,207.27,181.59z"/>
<path class="st4" d="M181.48,167.74c-1.12,0.03-2.34-0.32-3.2,0.78c-4.56,0.31-7.75-2.7-11.61-5.23c0.4,5.72-0.91,10.74-1.05,15.85
	c-0.37-0.24-0.74-0.48-1.1-0.72l0.08-0.03c-0.44,0.53-0.87,1.06-1.31,1.59c-0.01-0.3-0.02-0.61-0.03-0.91
	c0.22-5.25,1.63-10.43,0.97-15.75c-0.15-1.2-0.42-2.9,1.16-3.45c1.21-0.42,2.2,0.63,3.03,1.43c2.02,1.96,4.18,3.71,6.94,4.48
	c1.37,0.38,2.97,1.23,4.13-0.07c1.12-1.25,1.21-3.01,0.61-4.59c-0.51-1.36-1.29-2.62-1.95-3.92c0.07-0.53,0.14-1.07,0.2-1.6
	C182.58,158.1,183.18,160.46,181.48,167.74z"/>
<path class="st14" d="M262.32,154.24c2.61,0.16,4.71-2.47,7.88-1.23c-4.58,2.69-9.13,4.59-14.14,5.34c-6.95,1.07-13.71,0.14-20.35-2
	c-0.41-0.36-1.67-1.1-0.22-1.17c3.88-0.19,7.66-1.4,11.68-0.44C252.18,155.95,257.26,154.6,262.32,154.24z"/>
<path class="st6" d="M235.7,156.35c6.64,2.14,13.39,3.08,20.35,2c0.02,0.37,0.05,0.75,0.07,1.13c-7.7,1.86-15.1,1-22.21-2.46
	C234.51,156.8,235.11,156.58,235.7,156.35z"/>
<path class="st14" d="M288,143.29l-0.01,0.08c-0.65-1-3.01-0.09-2.58-2.3c2.33-2.04,1.17-6.81,5.62-7.18
	C291.02,137.34,289.22,140.22,288,143.29z"/>
<path class="st6" d="M288,143.29c1.22-3.07,3.01-5.95,3.03-9.41c0.51,0.04,1.02,0.07,1.53,0.11
	C291.85,137.49,293.85,142.32,288,143.29z"/>
<path class="st10" d="M294.9,272.46c-7.69,5.23-15.54,10.13-24.65,12.6c0-0.47,0-0.93,0-1.4c6.7-1.94,12.43-5.88,18.58-8.96
	c0.39-0.2,0.79-0.4,1.15-0.65c1.94-1.33,4.58-2.85,4.38-5.06c-0.16-1.8-3.24-2.08-5.17-2.68c-9.36-2.9-18.57-6.26-28.08-8.69
	c-3.24-0.83-6.75-0.11-10.67-2.49c8.77-0.4,16.15,1.54,23.39,4.33c1.47,0.32,2.95,0.63,4.42,0.95c5.71,2.09,11.41,4.19,17.12,6.24
	c2.27,0.81,3.19,1.97,1.35,4.09C296.12,271.31,295.51,271.89,294.9,272.46z"/>
<path class="st4" d="M244.84,215.69c-1.18-0.57-2.36-1.14-3.54-1.71c-0.19-0.35-0.37-0.7-0.56-1.06c0.72-0.08,1.43-0.15,2.15-0.23
	c8.99,2.81,15.79,8.81,22.14,15.37c4.71,4.86,9.9,9.11,15.31,13.16c1.88,1.41,5.12,2.39,4.07,5.99
	c-9.43-7.14-18.44-14.76-26.82-23.13C253.96,220.45,249.73,217.52,244.84,215.69z"/>
<path class="st7" d="M284.4,247.2c1.17-0.76,1.4-0.1,1.4,0.92C285.14,248.11,284.53,248.02,284.4,247.2z"/>
<path class="st10" d="M234.9,254.49c4.42-0.37,8.82-1.7,13.28-0.27c-5.85,1.17-11.65,3-17.68,1.06c-0.02-0.31-0.04-0.61-0.06-0.92
	C231.93,254.41,233.42,254.45,234.9,254.49z"/>
<path class="st4" d="M270.25,283.66c0,0.47,0,0.93,0,1.4c-1.84,0.5-3.04,0.14-4.37-1.6c-2.01-2.63-4.69-4.74-7.09-7.08
	c0.02-0.45,0.04-0.91,0.06-1.36c3.2,1.1,5.12,3.81,7.5,5.95C267.53,282.01,268.46,283.48,270.25,283.66z"/>
<path class="st11" d="M226.09,248.09c-0.09,2.38-1.52,2.93-3.58,2.64c-1.56-0.01-2.44-0.79-2.64-2.33c1.51-0.79,0.71-1.59,0.02-2.41
	c-5.11-6.11-8.02-13.26-9.86-20.92c-0.28-2.16-0.24-4.32-1.26-6.4c-0.79-1.63-1.14-3.67,1.99-3.11c2.85,3.24,5.99,6.17,9.49,8.7
	c0.59,0.76,1.16,1.61,2.3,0.81l-0.01-0.01c1.53,2.12,2.59,4.42,2.69,7.09C225.52,237.46,225.81,242.77,226.09,248.09z"/>
<path class="st11" d="M208.33,227.74c-4.57-4.1-5.18-9.56-5.01-15.19c0.04-1.21,0.73-2.31-1.13-2.5l0,0
	c-0.41-2.24-2.72-3.64-2.66-6.09c1.78,0.26,3.53-1.7,5.34-0.1c1.17,7.07,2.34,14.15,3.51,21.22
	C208.36,225.97,208.35,226.85,208.33,227.74z"/>
<path class="st4" d="M208.33,227.74c0.02-0.89,0.03-1.77,0.05-2.66c0.55-0.01,1.1-0.01,1.65-0.02c1.84,7.66,4.75,14.81,9.86,20.92
	c0.69,0.82,1.49,1.62-0.02,2.41C213.58,242.88,211.01,235.28,208.33,227.74z"/>
<path class="st5" d="M226.09,248.09c-0.29-5.32-0.57-10.63-0.86-15.95c0.54-0.07,1.09-0.15,1.63-0.22
	c1.97,3.76,0.38,7.87,1.17,11.75c0.03,0.88,0.07,1.76,0.1,2.64c-0.18,0.61-0.35,1.22-0.53,1.84
	C227.1,248.12,226.6,248.11,226.09,248.09z"/>
<path class="st13" d="M227.61,248.14c0.18-0.61,0.35-1.22,0.53-1.84c2.26,2.73,4.51,5.46,6.77,8.19c-1.49-0.04-2.97-0.09-4.46-0.13
	C226.15,253.82,228.38,250.29,227.61,248.14z"/>
<path class="st7" d="M242.89,212.7c-0.72,0.08-1.43,0.15-2.14,0.23c-9.75-4.94-17.96-11.69-24.36-20.59
	c1.14-0.28,2.28-0.56,3.42-0.84c6.23,4.93,11.48,11.02,18.2,15.42c2.11,1.38,4.45,2.07,6.62,3.21c0,0.55,0,1.11,0,1.66
	C243.96,211.9,243,211.5,242.89,212.7z"/>
<path class="st5" d="M216.8,162.32c17.32,1.2,34.56,2.69,49.16,13.67c-0.07,0.52-0.13,1.03-0.2,1.55c-4.87-1.31-8.72-4.68-13.4-6.5
	c-8.59-3.34-17.28-5.59-26.54-5.56c-2.47,0.01-4.97-0.44-7.41-0.91C217.45,164.39,215.8,164.14,216.8,162.32z"/>
<path class="st11" d="M297.88,164.12c0.18,0.31,0.36,0.63,0.54,0.94c-4.45,4.56-9.36,8.29-15.74,9.88c-1.58,0.39-3.97,0.66-4,3.3
	l0.05-0.01c-0.36-2.14-2.76-0.26-3.45-1.75c0.15-0.25,0.31-0.51,0.46-0.76c2.15-2.58,5.49-4.03,6.95-7.27l-0.05,0.04
	c3.66-1,7.39-1.78,10.71-3.76c-0.03-0.27-0.03-0.54,0.01-0.8h0.31l0.3,0.05C295.28,164.03,296.58,164.07,297.88,164.12z"/>
<path class="st4" d="M224.35,223.3c-3.75-9.46-7.51-18.91-11.26-28.37c0.78-0.05,1.36-0.42,1.74-1.1c1.56,2.98,2.68,6.16,4.11,9.21
	c3.03,6.48,6.2,13,7,20.29C225.41,223.32,224.88,223.31,224.35,223.3z"/>
<path class="st4" d="M204.87,203.86c-1.81-1.6-3.55,0.36-5.34,0.1c-3.87-0.38-7.27-2.07-10.64-3.83c0.01-0.51,0.01-1.02,0.02-1.53
	c2.87,0,5.03,2.15,7.76,2.59c8.07,1.3,10.62-0.59,11.89-8.88c0.57,0.01,1.14,0.01,1.71,0.02c0.63,3.3-0.14,6.25-2.61,8.53
	c-1,0.92-1.16,1.85-1.09,3C206.01,203.86,205.44,203.86,204.87,203.86z"/>
<path class="st7" d="M204.87,203.86c0.57,0,1.14,0,1.71,0c1.06,3.9,3.06,7.32,5.36,10.59c-0.39,0.37-0.78,0.74-1.17,1.11
	c-3.14-0.56-2.78,1.49-1.99,3.11c1.01,2.08,0.98,4.24,1.26,6.4c-0.55,0.01-1.1,0.01-1.65,0.02
	C207.21,218.01,206.04,210.93,204.87,203.86z"/>
<path class="st9" d="M214.83,193.84c-0.38,0.68-0.96,1.04-1.74,1.1c-0.05-1.16-0.1-2.33-0.15-3.49c0.83-0.57,0.81-1.14,0-1.71
	c0-0.88-0.06-1.77,0.03-2.64c0.24-2.32,0.28-5.62,2.74-5.87c2.72-0.28,1.11,3.27,2.16,4.91c1,1.56,1.33,3.55,1.95,5.36
	c-1.14,0.28-2.28,0.56-3.42,0.84l-0.05,0.02c-0.02-0.6-0.12-1.33-0.77-1.36c-1.05-0.05-0.97,0.81-0.89,1.56
	C214.73,192.97,214.78,193.41,214.83,193.84z"/>
<path class="st10" d="M278.68,178.23c0.03-2.65,2.42-2.91,4-3.3c6.38-1.59,11.29-5.32,15.74-9.88c0.61,0.22,1.21,0.44,1.82,0.66
	C294.48,172.35,287.37,176.65,278.68,178.23z"/>
<path class="st4" d="M244.64,211.77c0-0.55,0-1.11,0-1.66c7.78,1.37,15.17,3.57,20.83,9.56c-0.56,0.1-1.13,0.2-1.69,0.31
	C258.07,215.67,251.38,213.65,244.64,211.77z"/>
<path class="st5" d="M210.76,215.55c0.39-0.37,0.78-0.74,1.17-1.11c3.78,2.73,7.18,5.86,10.08,9.52c-0.58,0.1-1.17,0.19-1.75,0.29
	C216.76,221.72,213.62,218.8,210.76,215.55z"/>
<path class="st7" d="M275.74,175.71c-0.15,0.25-0.31,0.51-0.46,0.76c-0.78,0.89-1.56,1.77-2.34,2.66c-2.52,0.03-4.97-0.24-7.18-1.59
	c0.07-0.52,0.13-1.03,0.2-1.55c3.49,0.87,6.88,1.25,9.52-1.96C275.57,174.59,275.66,175.15,275.74,175.71z"/>
<path class="st7" d="M224.35,223.3c0.53,0.01,1.06,0.02,1.59,0.03c1.72,2.71,0.4,5.75,0.93,8.59c-0.54,0.07-1.09,0.15-1.63,0.22
	c-0.1-2.66-1.16-4.96-2.69-7.09C222.87,224.19,224.45,224.61,224.35,223.3z"/>
<path class="st5" d="M272.94,179.13c0.78-0.89,1.56-1.77,2.34-2.66c0.69,1.49,3.09-0.39,3.45,1.75
	C276.87,178.96,275.16,180.67,272.94,179.13z"/>
<path class="st9" d="M210.28,192.33c-0.57-0.01-1.14-0.01-1.71-0.02c0.39-2.07-1.34-4.08-0.18-6.18
	C211.37,187.48,210.22,190.09,210.28,192.33z"/>
<path class="st4" d="M212.94,189.73c0.81,0.57,0.83,1.14,0,1.71C212.31,190.87,212.32,190.3,212.94,189.73z"/>
<path class="st7" d="M220.26,224.26c0.58-0.1,1.17-0.19,1.75-0.29c0.42,0.25,1.08,0.38,0.55,1.1
	C221.41,225.87,220.85,225.02,220.26,224.26z"/>
<path class="st10" d="M300.27,165.65c0.16-0.55,0.51-0.76,1.07-0.64C300.98,165.23,300.62,165.44,300.27,165.65z"/>
<path class="st10" d="M122.31,95.15c-0.82,0.44-1.51,1.01-1.74,1.98c-0.23-0.04-0.44,0.01-0.64,0.14c-3.24,1.12-5.4,4.17-8.86,4.9
	c-0.05-0.27-0.25-0.7-0.15-0.79c4.47-3.9,8.96-7.78,13.45-11.65c0.18,1.46-1.65,2.38-1.04,3.95
	C122.63,93.91,122.31,94.41,122.31,95.15z"/>
<path class="st10" d="M97.64,120.76c-0.45,0.01-0.91,0.02-1.36,0.03c2.88-7.02,8.15-12.27,13.06-17.79c0.71,3.14-3.4,4.36-2.94,7.41
	c-2.26,0.45-3.14,2.38-4.25,4.04l0.02-0.01c-1.48,0.77-2.14,2.09-2.47,3.64c-0.36,0.57-0.73,1.15-1.09,1.72
	C98.28,120.11,97.96,120.44,97.64,120.76z"/>
<path class="st10" d="M111.11,102.13c-0.27,0.99-0.87,1.3-1.83,0.91C109.68,102.31,110.07,101.55,111.11,102.13z"/>
<path class="st10" d="M125.26,88.78c0.01,0.33,0.03,0.66,0.04,0.99c-0.33,0-0.66,0-0.99,0.01
	C124.63,89.45,124.94,89.12,125.26,88.78z"/>
<path class="st8" d="M188.88,200.12c3.37,1.77,6.77,3.45,10.64,3.83c-0.06,2.44,2.25,3.85,2.66,6.09c-1.32,0-2.64,0.04-3.96-0.01
	c-8.63-0.27-8.66-0.28-9.28,8.55c-0.15,2.19-0.15,4.4-0.01,6.59c0.22,3.42-0.57,5.73-4.34,6.99c-3.41,1.14-2.21,5.02-2.57,7.6
	c-0.43,3.07-0.8,5-4.48,4.86c-2.3-0.09-2.35,2.07-2.87,3.76c-0.76,2.49-1.39,5.58-5.23,3.22c3.06-2.6,3.06-2.6,0.47-3.53
	c-0.15-0.29-0.3-0.58-0.45-0.88v-0.01c0.85,0.27,1.02-0.15,0.88-0.88l0,0c0.86,0.23,1.03-0.69,1.59-0.96
	c2.14,0.01,2.86-0.87,1.77-2.86c0.32-0.51,0.64-1.02,0.96-1.53c3.72,0.26,2.51-2.51,2.72-4.41l-0.01,0.01
	c1.53-0.18,1.92-1.01,1.36-2.38c-0.3-2.29,0.84-3.99,2.29-5.56c4.16,0.51,5.94-1.24,5.67-5.49c-0.15-2.45,0.05-4.99,0.58-7.39
	c0.51-2.29,1.04-4.31-1.35-5.81c0.01-1.18,0.02-2.36,0.03-3.55l0.33,0.13c0.57-0.08,1.26-0.11,1.34-0.81
	c0.09-0.75-0.57-0.87-1.15-0.98c-0.07-0.59-0.14-1.18-0.22-1.76c1.21-0.51,1.76-1.44,1.75-2.73
	C188.31,200.17,188.6,200.14,188.88,200.12z"/>
<path class="st11" d="M169.94,248.09c2.59,0.94,2.59,0.94-0.47,3.53c-0.77-0.08-1.55-0.17-2.33-0.25c0.33-0.81,0.66-1.62,0.98-2.42
	l-0.01,0.05C168.72,248.69,169.33,248.39,169.94,248.09z"/>
<path class="st15" d="M118.91,152.05c-2.03-0.49-4.06-0.98-6.09-1.47c0.26-1.69-0.81-4.28,2.36-4.15
	C118.82,146.58,119.28,149.1,118.91,152.05z"/>
<path class="st15" d="M99.7,118.07c0.32-1.55,0.99-2.87,2.47-3.64c0.03,1.46-0.02,2.93,0.09,4.38c0.29,3.8-1.36,4.41-4.44,2.79
	c-0.09-0.27-0.15-0.55-0.18-0.84c0.32-0.32,0.64-0.64,0.97-0.96c0.79-0.04,1.82,0.3,2.23-0.55
	C101.3,118.27,100.31,118.25,99.7,118.07z"/>
<path class="st10" d="M163.26,179.08c0.01,0.3,0.02,0.61,0.03,0.91c-0.71,0.14-1.48,0.17-1.86,0.94c-2.39-0.75-3.83-2.67-5.45-4.37
	c0.36-0.33,0.73-0.66,1.09-0.99C159.57,175.97,160.44,179.25,163.26,179.08z"/>
<path class="st15" d="M102.15,114.44c1.12-1.66,1.99-3.58,4.25-4.04C107.17,114.05,104.84,114.43,102.15,114.44z"/>
<path class="st15" d="M120.79,147.91c-0.1-0.08-0.2-0.17-0.31-0.25c0.12-0.06,0.24-0.19,0.35-0.18c0.11,0.01,0.21,0.15,0.31,0.24
	C121.02,147.79,120.91,147.85,120.79,147.91z"/>
<path class="st15" d="M136.1,162.63c-0.04,0.11-0.07,0.31-0.12,0.31c-0.12,0-0.25-0.07-0.38-0.11c0.04-0.11,0.07-0.31,0.12-0.31
	C135.85,162.51,135.97,162.58,136.1,162.63z"/>
<path class="st15" d="M122.31,95.15c-0.01-0.73,0.32-1.24,1.03-1.47C123,94.17,122.66,94.66,122.31,95.15z"/>
<path class="st15" d="M119.93,97.26c0.2-0.13,0.41-0.18,0.64-0.14c-0.11,0.25-0.21,0.5-0.32,0.75
	C120.15,97.67,120.04,97.46,119.93,97.26z"/>
<path class="st5" d="M157.07,175.57c-0.36,0.33-0.73,0.66-1.09,0.99c0.08-0.34,0.15-0.69,0.23-1.03
	C156.5,175.55,156.78,175.56,157.07,175.57z"/>
<path class="st10" d="M293.35,164.73c-3.32,1.98-7.05,2.75-10.71,3.76C285.39,164.87,289.34,164.73,293.35,164.73z"/>
<path class="st10" d="M275.74,175.71c-0.09-0.56-0.18-1.12-0.26-1.69c1.68-2.8,4.2-4.51,7.22-5.58
	C281.23,171.68,277.9,173.13,275.74,175.71z"/>
<polygon class="st10" points="293.98,163.98 293.67,163.93 293.37,163.93 293.69,163.72 "/>
<path class="st7" d="M189.41,183.71c0.9-0.08,1.81-0.16,2.71-0.24C191.39,185.44,190.46,185.22,189.41,183.71z"/>
<path class="st9" d="M161.43,180.93c0.39-0.78,1.15-0.81,1.86-0.94c0.44-0.53,0.87-1.06,1.31-1.59l-0.08,0.03
	c0.37,0.24,0.74,0.48,1.1,0.72c0.93,2.3,3,1.5,4.69,1.73c-0.5,1.69-2.67,1.25-3.4,2.65c-0.94,0.06-1.73,0.35-2,1.38
	C163.75,183.59,162.59,182.26,161.43,180.93z"/>
<path class="st12" d="M175.76,181.72c1.23,0.05,2.46,0.11,3.69,0.16c-0.34,2-0.99,3.85-2.55,5.25c-1.07-0.35-2.15-0.7-3.22-1.05
	C173.78,184.36,174.63,182.97,175.76,181.72z"/>
<path class="st12" d="M175.76,181.72c-1.13,1.25-1.98,2.63-2.08,4.37c-1.4,3.29-3.05,3.46-4.96,0.4c-0.61-0.98-1.2-1.97-1.8-2.96
	c0.73-1.4,2.9-0.96,3.4-2.65c0.94-0.57,1.33-1.99,2.78-1.76C173.08,180.91,175.19,180.53,175.76,181.72z"/>
<path class="st16" d="M171.96,243.67c-0.56,0.26-0.73,1.14-1.59,0.92c-1.42-1.7,0.32-2.8,0.95-4.02c1.5-2.89,3-5.81,4.85-8.5
	c5.32-7.76,6.83-16.58,8.08-25.48c0.58-0.07,1.15-0.13,1.73-0.2c-0.01,1.13-0.02,2.26-0.03,3.4c-1.28,6.05-1.6,12.34-4.9,17.88
	c-1.45,1.5-2.58,3.13-2.28,5.32c-1.22,0.33-1.24,1.34-1.37,2.28l0.01-0.01c-1.99,0.77-2.22,2.57-2.72,4.22
	c-0.32,0.49-0.64,0.98-0.96,1.46C172.73,241.6,172.08,242.48,171.96,243.67z"/>
<path class="st11" d="M188.03,200.24c0.01,1.29-0.54,2.22-1.75,2.73c-1.07-0.38-1.02-1.34-0.7-2.02
	C186.04,199.95,187.03,199.86,188.03,200.24z"/>
<path class="st11" d="M186.5,204.73c0.58,0.11,1.24,0.23,1.15,0.98c-0.08,0.7-0.77,0.73-1.34,0.81
	C186.37,205.93,186.43,205.33,186.5,204.73z"/>
<path class="st4" d="M169.94,248.09c-0.61,0.3-1.22,0.61-1.82,0.91c-0.39-1.25-0.22-2.06,1.37-1.78
	C169.63,247.5,169.79,247.79,169.94,248.09z"/>
<path class="st4" d="M170.37,246.32c0.14,0.72-0.03,1.14-0.88,0.88c0.04-0.37,0.09-0.73,0.13-1.1
	C169.87,246.18,170.12,246.25,170.37,246.32z"/>
<path class="st12" d="M173.09,179.12c-1.45-0.24-1.84,1.19-2.78,1.76c-1.69-0.23-3.76,0.57-4.69-1.73
	c0.14-5.12,1.45-10.14,1.05-15.85c3.86,2.53,7.05,5.54,11.61,5.23c1.39,2.26,5.36,0.43,5.78,2.66c0.49,2.63-3.66,2.04-4.84,4.33
	C178.08,177.75,175.82,179.08,173.09,179.12z"/>
<path class="st1" d="M164.52,178.43l0.08-0.03C164.59,178.4,164.52,178.43,164.52,178.43z"/>
<path class="st13" d="M226.86,231.92c-0.53-2.84,0.8-5.88-0.93-8.59c-0.8-7.29-3.97-13.81-7-20.29c-1.43-3.05-2.55-6.23-4.11-9.21
	c-0.05-0.43-0.09-0.86-0.14-1.3c0.55-0.07,1.11-0.13,1.66-0.2l0.05-0.02c6.39,8.91,14.61,15.65,24.36,20.59
	c0.19,0.35,0.37,0.71,0.56,1.06c-0.33,2.54-2.07,2.32-3.93,2.09c-5.6-0.7-6.05,0.35-6.52,5.81c-0.45,5.22-0.42,10.47-1.14,15.63
	c-0.18,1.3,0.02,2.05,0.44,3.1c0.78,1.95,0.13,3.13-2.14,3.06C227.24,239.79,228.84,235.68,226.86,231.92z"/>
<path class="st13" d="M237.26,222.33c-0.33-0.02-1.06-0.11-1.22-1.03c-0.15-0.91,0.42-1.35,1.21-1.43c0.92-0.1,1.85,0.08,1.88,1.23
	C239.15,221.94,238.51,222.34,237.26,222.33z"/>
<path class="st4" d="M216.34,192.35c-0.55,0.07-1.11,0.13-1.66,0.2c-0.08-0.74-0.16-1.61,0.89-1.56
	C216.22,191.01,216.33,191.75,216.34,192.35z"/>
<path class="st1" d="M99.7,118.07c0.61,0.18,1.61,0.2,1.14,1.17c-0.41,0.86-1.44,0.51-2.23,0.55
	C98.97,119.22,99.33,118.64,99.7,118.07z"/>
<path class="st11" d="M181.05,228.63c3.31-5.79,3.62-12.37,4.9-18.69c2.39,1.5,1.86,3.52,1.35,5.81c-0.53,2.39-0.73,4.94-0.58,7.39
	C186.99,227.39,185.2,229.13,181.05,228.63z"/>
<path class="st11" d="M177.4,236.57c0.13-0.98,0.15-2.03,1.37-2.38C179.32,235.56,178.93,236.39,177.4,236.57z"/>
</svg>
