<?xml version="1.0" encoding="utf-8"?>
<!-- Generator: Adobe Illustrator 23.0.3, SVG Export Plug-In . SVG Version: 6.00 Build 0)  -->
<svg version="1.1" id="Layer_1" xmlns="http://www.w3.org/2000/svg" xmlns:xlink="http://www.w3.org/1999/xlink" x="0px" y="0px"
	 viewBox="0 0 415.01 588.21" style="enable-background:new 0 0 415.01 588.21;" xml:space="preserve">
<style type="text/css">
	.st0{fill:#FF0F0F;}
	.st1{opacity:0.3;fill:#FFFFFF;stroke:#575757;stroke-width:1.2029;stroke-miterlimit:10;}
	.st2{opacity:0.3;stroke:#575757;stroke-width:1.2029;stroke-miterlimit:10;}
</style>
<path class="st0" d="M195.49,177.71c-1.16,2.87-2.55,5.68-3.42,8.63c-0.82,2.78-1.1,5.72-1.9,8.58c-1.11-8.26-1.62-16.52-0.45-24.82
	c0,0,0.11-0.1,0.11-0.1c2.18-2.1,4.36-4.2,6.54-6.31c0.38,0.24,0.76,0.49,1.14,0.73c-0.71,4.48-1.43,8.95-2.14,13.43
	C195.37,177.86,195.49,177.71,195.49,177.71z"/>
<g>
	<path class="st1" d="M218.73,526.32c-11.59,13.32-24.55,24.86-41.74,30.99c-1.72,0.61-3.34,1.48-5.01,2.23
		c-2.44,1.74-4.88,3.47-7.68,5.46c-1.15-2.09-2.22-4.03-3.28-5.98c-1.07-1.98-2.12-3.96-3.17-5.95c-1.48-3.03-2.97-6.06-4.45-9.09
		c-2.23-4.14-4.46-8.28-6.68-12.41c-1.02-2.2-2.03-4.4-3.05-6.61c-1.56-4.37-3.12-8.74-4.69-13.1c-5.91-16.5-5.32-32.81,1.47-48.96
		c0.39-0.92,0.52-1.93,0.77-2.9c7.45-12.75,18.12-21.98,31.92-27.76c9.28-2.2,18.23-5.97,27.97-5.92
		c-0.11,3.92-1.67,7.73,2.05,10.55c0.84,0.93,1.69,1.86,2.53,2.79c3.16,4.48,3.69,9.61,3.79,14.83c0.09,4.62,0.1,9.25,0.13,13.88
		c0.02,3.19,0,6.38,0,9.56c0.46,0.02,0.91,0.03,1.37,0.05c0.1-1.44,0.33-2.88,0.27-4.32c-0.12-2.92-0.47-5.83-0.6-8.74
		c-0.3-6.64-0.58-13.29-0.77-19.93c-0.14-4.85-0.17-9.71-0.12-14.56c0.02-2.12,0.97-2.96,3.51-2.92c4.02,0.06,7.22,1.61,10.35,3.7
		c0.79,1.45,1.58,2.89,2.36,4.34c0.89,3.13,2.38,6.22,2.56,9.39c0.88,15.99,1.45,31.99,2.07,47.99c0.18,4.72,0.38,9.47-2.04,13.84
		l0.12-0.1c-2.97,5.76-7.91,10.6-8.4,17.52C220.23,524.92,219.27,525.61,218.73,526.32z"/>
	<path class="st1" d="M113.09,24.27c0.43,1.34,0.87,2.68,1.3,4.01c3.69,5.86,10.18,6.48,16.08,8.2
		c12.33,7.03,21.32,17.26,28.91,28.83c2.1,3.2,4.07,6.48,6.1,9.72c3.27,7.33,6.54,14.65,9.81,21.98c0,0-0.1-0.16-0.1-0.16
		c1.29,5.36,2.77,10.68,3.84,16.08c2.72,13.7,6.11,27.37,5,41.48c-0.44,5.58-1.7,11.1-2.58,16.65l0.09-0.14
		c-0.75-0.5-1.63-0.89-2.22-1.54c-0.8-0.89-1.37-1.97-2.04-2.96c-3.2-4.43-4.23-9.61-5.4-14.75c-0.34-1.52-1.06-2.95-1.61-4.42
		c-1.74-3.69-3.47-7.38-5.21-11.07c-4.38-9.34-8.75-18.69-13.16-28.02c-0.95-2-2.08-3.91-3.12-5.87l0.09,0.16
		c-1.88-11.33-3.11-22.84-9.11-33.09c-1.11-2.19-1.76-4.81-3.41-6.5c-4.91-5.04-10.19-9.75-15.41-14.49
		c-0.74-0.67-1.96-0.83-2.95-1.22c-0.18,0.25-0.35,0.51-0.53,0.76c1.18,2.4,2.36,4.8,3.53,7.21c0.03,0.45-0.05,0.94,0.11,1.34
		c3.75,9.59,7.5,19.18,11.32,28.74c0.25,0.63,0.99,1.06,1.5,1.59c3.18,4.45,6.33,8.93,9.56,13.35c1.57,2.15,3.29,4.2,4.94,6.3
		c2.02,3.29,4.54,6.39,5.96,9.91c4.77,11.86,9.1,23.88,13.73,35.79c0.91,2.33,2.44,4.42,3.68,6.63c-0.07,0.68-0.13,1.36-0.2,2.05
		c-9.43-6.67-18.66-13.66-28.36-19.94c-10.01-6.47-18.87-14.08-26.61-22.97c-1.18-1.35-1.92-3.07-2.87-4.62
		c-1.31-3.84-3.37-7.6-3.81-11.53c-1.54-13.9-2.35-27.88-3.76-41.8c-1.1-10.89-2.38-21.77-4.16-32.57c-0.94-5.7-3.09-11.21-4.7-16.8
		c0,0,0.09,0.17,0.09,0.17c-0.05-0.55-0.01-1.13-0.15-1.66c-1.89-7.52-0.98-8.59,6.79-7.88c0.11,0.01,0.23,0,0.34,0
		c0,0-0.13-0.13-0.13-0.13c2.28,6.65,4.52,13.3,6.87,19.93C111.59,22.16,112.44,23.18,113.09,24.27z"/>
	<path class="st1" d="M283.03,318.76c5.83,4.95,8.29,11.82,11.05,18.53c1.01,3.54,2.33,7.02,2.96,10.62
		c1.32,7.52,2.13,15.12,3.49,22.63c0.4,2.21,1.97,4.22,3,6.32c-0.46,0.45-0.92,0.9-1.37,1.35c-1.18-0.39-2.34-0.82-3.53-1.17
		c-9.78-2.86-19.65-5.47-29.34-8.61c-8.87-2.87-17.7-5.42-27.19-5.24c-4.8,0.09-9.62-0.41-14.43-0.64
		c-6.22-4.06-12.44-8.13-18.67-12.19c-1.8-0.96-3.52-2.1-5.4-2.86c-7.02-2.85-10.19-8.15-11.2-15.3c-0.29-2.06-2.17-3.9-3.32-5.84
		c-0.95-1-1.9-1.99-2.86-2.99c-3.88-2.32-2.89-5.82-2.05-9.06c1.81-7.03,4.01-7.71,9.25-6.35c3.13,0.82,5.97,2.63,9.03,3.78
		c3.43,1.3,6.98,2.29,10.43,3.54c4.1,1.49,8.15,3.11,12.22,4.68c3.53,1.62,7.06,3.23,10.58,4.85c0.24,0.34,0.41,0.86,0.74,1
		c5.17,2.14,10.31,4.35,15.56,6.26c1.68,0.61,3.66,0.42,5.51,0.59c0.14-0.44,0.29-0.88,0.43-1.31c-1.9-0.93-3.8-1.86-5.7-2.79
		c-4.67-2.92-9.35-5.84-14.02-8.77c-4.59-2.06-9.19-4.12-13.78-6.18c-0.28-0.17-0.56-0.34-0.84-0.5c-1.09-0.49-2.16-1.33-3.28-1.41
		c-2.88-0.2-5.8-0.31-8.66-0.02c-4.5,0.46-8.41-0.94-12.13-3.07c-0.68-0.39-1.4-1.59-1.26-2.23c0.14-0.64,1.33-1.43,2.1-1.48
		c1.44-0.09,2.92,0.31,4.38,0.51c0.67-5.84,0.67-5.74,6.81-5.86c16.41-0.33,32.76,0.04,48.91,3.26c3.67,1.8,7.34,3.59,11.02,5.39
		C275.33,311.71,279.18,315.24,283.03,318.76z"/>
	<path class="st1" d="M61.98,394.1c0.45-0.42,0.9-0.84,1.34-1.26c2.18-3.16,5.25-3.88,8.98-3.63c2.61,0.17,5.34-0.09,7.88-0.69
		c18.59-4.39,37.15-8.87,55.7-13.42c6.43-1.58,12.8-3.4,19.19-5.11c8.16-1.57,16.06-1.17,23.45,2.98c1.32,1.27,2.76,2.44,3.94,3.82
		c3.43,4.05,7.4,7.85,9.98,12.38c3.97,6.98,7.8,13.84,14.88,18.33c1.05,0.67,1.93,1.61,2.88,2.43c6.2,5.03,6.87,9.55,6.13,12.56
		c-3.09-1.38-6.3-2.81-9.52-4.24c-3.67-2.03-7.34-4.05-11.01-6.08c-1.39-0.43-2.82-1.31-4.17-1.21c-11.74,0.89-23.63,1.12-35.16,3.2
		c-12.99,2.34-25.82,3.21-38.96,2.27c-14.64-1.05-29.33-1.55-43.99-2.28c-0.72-0.66-1.43-1.32-2.15-1.97c-1.59-1.45-3.1-3-4.78-4.34
		C62.04,404.2,59.65,399.93,61.98,394.1z"/>
	<path class="st1" d="M100.9,267.06c6.39-7.84,12.58-15.85,19.28-23.43c2.64-2.99,6.2-5.41,9.76-7.39
		c5.65-3.14,11.64-5.69,17.48-8.5c7.53-3.18,15.19-5.17,23.36-2.39c0.51,0.43,1.03,0.86,1.54,1.29c1.22,0.47,2.42,0.95,3.65,1.4
		c3.48,1.26,6.96,2.51,10.44,3.77c4.34,4.25,4.25,5.85-0.47,9.81c-1.58,1.32-3.09,2.71-4.65,4.05
		c-6.51,5.61-13.35,10.89-19.47,16.88c-10.05,9.82-19.78,19.97-29.4,30.2c-8.72,9.27-14.58,20.28-19.01,32.04
		c-0.69,2.01-1.24,4.08-2.14,5.99c-0.38,0.81-1.45,1.75-2.28,1.83c-2.62,0.23-5.27,0.09-8.12,0.09c-1.12-6-1.91-11.7-3.28-17.25
		c-2.39-9.66-3.1-19.42-1.53-29.17C97.11,279.78,99.25,273.46,100.9,267.06z"/>
	<path class="st1" d="M290.17,481.49c8.97,5.54,18.24,10.68,26.83,16.75c8.26,5.83,17.33,10.62,23.66,19.04
		c6.4,8.53,14.25,16.01,20.86,24.4c4.98,6.32,8.98,13.37,13.46,20.07c1.45,2.17,3.04,4.25,4.57,6.37c0.21,1.92-0.93,1.38-1.87,0.92
		c-4.02-1.96-8.08-3.84-12.01-5.97c-3.61-1.96-7.06-4.19-10.59-6.29c-10.92-6.75-21.8-13.54-32.77-20.2
		c-3.01-1.83-6.3-3.21-9.43-4.87c-8.39-4.43-16.76-8.9-25.13-13.35c-0.9-0.47-1.74-1.14-2.7-1.38c-8.42-2.16-16.81-4.46-25.31-6.27
		c-5.74-1.22-11.63-1.72-17.62-2.57c0.87-1.06,1.72-2.09,2.56-3.12c0,0-0.12,0.12-0.12,0.12c2.4-3.38,6.3-6.52,6.91-10.18
		c1.3-7.87,6.42-10.3,13.09-11.72c0.22-0.05,0.43-0.16,0.65-0.24C273.35,479.67,281.67,479.09,290.17,481.49z"/>
	<path class="st1" d="M384.46,556.06c-6.76-2.93-13.52-5.85-20.28-8.78c-4.75-0.69-9.48-1.87-14.24-1.99
		c-13.73-0.34-27.51,0.93-41.17-1.47c0,0,0.17,0.08,0.17,0.08c-1.36-0.48-2.69-1.16-4.09-1.4c-14.92-2.54-29.85-5.01-44.78-7.51
		c-7.31-3.28-14.81-6.2-20.89-11.61c-1.94-1.73-4.04-3.3-6.06-4.95c-0.77-1.18-1.57-2.34-2.31-3.54c-0.44-0.72-1.3-1.71-1.09-2.23
		c2.2-5.22,4.58-10.37,6.91-15.54c1.23-0.56,2.44-1.57,3.68-1.6c12.47-0.36,24.93-0.58,37,3.44c2.91,0.97,6.01,1.43,9.02,2.12
		c3.56,1.61,7.13,3.19,10.66,4.85c11.64,5.45,23.57,10.32,33.39,18.94c3,2.64,6.92,4.29,10.41,6.39c1.6,1.02,3.1,2.2,4.8,3.01
		c4.53,2.16,9.13,4.16,13.71,6.22c0.25-0.01,0.51-0.01,0.76-0.02c0.38,0.48,0.66,1.16,1.16,1.41c7.52,3.69,15.08,7.31,22.6,11
		c1.19,0.58,2.21,1.48,3.31,2.24c-0.14,0.28-0.29,0.55-0.43,0.83C385.95,555.99,385.2,556.02,384.46,556.06z"/>
	<path class="st1" d="M113.41,324.79c4.43-11.76,10.28-22.77,19.01-32.04c9.62-10.23,19.35-20.38,29.4-30.2
		c6.13-5.98,12.96-11.27,19.47-16.88c1.56-1.34,3.08-2.73,4.65-4.05c4.72-3.96,4.8-5.56,0.47-9.81c-0.74-0.75-1.36-1.91-2.26-2.17
		c-3.9-1.14-7.88-2.02-11.83-3c-0.51-0.43-1.03-0.86-1.54-1.29c0.41-0.3,0.85-0.89,1.22-0.85c2.15,0.2,4.29,0.55,6.44,0.84
		c5.55,2.02,11.62,2.95,15.98,7.41c1.88,2.27,3.77,4.54,5.65,6.82c0.25-0.06,0.49-0.11,0.74-0.17c-1.58-4.52-3.17-9.04-4.75-13.57
		c-0.09-0.38-0.19-0.77-0.28-1.15c0.35-0.12,0.7-0.24,1.05-0.35c2.87,3.26,5.73,6.53,8.6,9.79c0.59,1.68,1.51,3.32,1.7,5.03
		c0.75,6.81-0.89,13.34-2.94,19.77c-0.11,0.34-1.04,0.37-1.45,0.7c-0.54,0.45-0.95,1.06-1.41,1.6c-3.63,5.19-7.18,10.43-10.9,15.57
		c-3.45,4.76-7.18,9.32-10.58,14.11c-5.18,7.32-11.29,13.37-19.51,17.71c-10.11,5.34-19.66,11.7-29.45,17.62
		c-2.14,1.49-4.25,3.02-6.43,4.44c-3.82,2.49-7.82,4.1-12.55,1.95C112.43,330,112.92,327.39,113.41,324.79z"/>
	<path class="st1" d="M34.11,382.56c-5.88-2.81-11.76-5.62-17.63-8.43c-2.11-0.83-4.22-1.65-6.4-2.5c1.43-0.34,2.76-0.67,4.1-0.97
		c8.06-1.81,16.16-3.45,24.16-5.48c4.94-1.25,9.71-3.11,14.56-4.69c13.46-3.21,27.06-5.56,40.83-7.23
		c14.49-1.76,28.96-3.45,43.57-2.77c8.77,0.41,17.54,1.02,26.27,1.93c10.2,1.06,20.36,2.51,30.53,3.88c1.93,0.26,3.8,0.95,6.27,1.58
		c-8.02,2.49-15.25,4.81-22.53,6.95c-3.97,1.17-7.99,2.63-12.06,2.95c-10.59,0.83-21.22,1.26-31.84,1.55
		c-16.92,0.46-33.15,4.35-49.23,9.08c-1.32,0.39-2.41,1.53-3.61,2.32c-4.19,2.14-8.37,4.27-12.56,6.41
		c-1.49,0.44-3.01,1.32-4.47,1.23c-3.99-0.25-7.95-0.9-11.93-1.4c0,0,0.17,0.09,0.17,0.09c-1.55-0.64-3.05-1.51-4.67-1.87
		C43.16,384.2,38.62,383.42,34.11,382.56z"/>
	<path class="st1" d="M349,165.93c-5.96,8.85-12.93,16.82-20.94,23.99c-2.83,2.53-4.89,5.89-7.29,8.86
		c-6.28,2.17-12.41,4.96-18.86,6.4c-17.35,3.88-34.8,7.23-52.81,6.53c-11.68-0.45-23.39-0.3-35.07-0.07
		c-3.84,0.08-7.67,1.24-11.49,1.95c-2.98,0.56-5.96,1.18-8.97,1.78c-1.44-4.66,0.34-7.69,2.84-10.5c0.81-0.53,1.63-1.07,2.44-1.6
		c5.25-0.23,10.57-1.11,15.72-0.52c6.17,0.7,12.15,2.31,18.52,1.69c14.19-1.38,26.95-6.96,39.83-12.28
		c0.45-0.18,0.71-0.79,1.06-1.19c3.8-2.63,7.65-5.2,11.39-7.91c1.56-1.13,2.75-2.75,4.35-3.81c11.7-7.77,25.4-9.68,38.79-12.48
		c7.04-1.93,14.08-3.86,21.55-5.9C349.67,162.73,349.34,164.33,349,165.93z"/>
	<path class="st1" d="M51.69,342.82c4.1-1.45,8.2-2.89,12.31-4.34c11.75-3.25,23.54-6.1,35.47-5.03c1.04,3.04,1.9,5.56,2.77,8.09
		l-0.12-0.11c1.11,2.29,2.71,1.33,4.34,0.7c1.34-0.52,2.79-0.78,4.13-1.31c1.67-0.66,3.74-1.09,4.81-2.31c2.63-3,5.68-3.88,9.42-3
		c3.81,0.9,7.6,1.9,11.4,2.85c2.48,0.87,4.96,1.75,7.44,2.62c0.81,0.55,1.54,1.34,2.44,1.62c4.73,1.48,9.54,2.7,14.23,4.27
		c2.6,0.87,5.01,2.27,7.5,3.43c-1.58,0.69-2.85,0.76-4.09,0.56c-10.28-1.66-20.58-2.98-31.05-2.3c-6.69,0.44-13.4,0.9-20.11,0.96
		c-9.61,0.08-19.23-0.52-28.83-0.25c-14.82,0.42-29.56,1.76-43.73,6.49c-1.24,0.41-2.34,1.23-3.5,1.87
		c-4.36,1.63-8.79,3.1-13.07,4.92c-4.39,1.87-8.64,4.07-12.95,6.12c0,0,0,0,0,0c3.15-5.7,8.3-9.46,13.53-13.06
		c3.93-2.7,8.09-5.09,12.15-7.61c3.13-1.06,6.26-2.12,9.4-3.17C47.63,344.15,49.66,343.49,51.69,342.82z"/>
	<path class="st1" d="M225.97,435.54c-0.79-1.45-1.58-2.89-2.36-4.34c0.75-0.91-3.89-1.83,0.01-2.73
		c14.63,7.28,23.07,19.7,29.46,33.83c1.73,5.57,2.32,11.24,1.45,17.01c-0.5,3.37-0.8,6.88-4.47,8.71
		c-6.73,2.93-13.08,6.41-17.73,12.23c-0.3-0.89-0.83-1.78-0.86-2.68c-0.72-17.44-1.23-34.89-2.2-52.32
		C229.09,441.97,227.12,438.78,225.97,435.54z"/>
	<path class="st2" d="M36.54,357.63c1.16-0.63,2.26-1.45,3.5-1.87c14.17-4.73,28.91-6.07,43.73-6.49c9.6-0.27,19.22,0.33,28.83,0.25
		c6.7-0.06,13.41-0.52,20.11-0.96c10.47-0.68,20.77,0.64,31.05,2.3c1.23,0.2,2.51,0.13,4.09-0.56c-2.49-1.16-4.91-2.56-7.5-3.43
		c-4.69-1.58-9.51-2.8-14.23-4.27c-0.9-0.28-1.63-1.07-2.44-1.62c8.91,3.21,18.52,4.57,26.71,9.75c1.25,0.79,3.09,0.75,4.68,0.95
		c10.25,1.26,20.51,2.47,30.83,3.71c-0.17-0.9-0.44-2.31-0.71-3.71l-0.08,0.07c0.55,1.47,1.23,2.91,1.61,4.42
		c0.52,2.11,0.8,4.28,1.19,6.42c0,0,0.07-0.05,0.07-0.05c-0.56-0.63-1.33-1.17-1.66-1.9c-1.45-3.21-2.61-3.57-5.74-1.84
		c-0.97,0.54-2.15,0.71-3.24,1.03c-9.43,2.82-18.86,5.65-27.88,8.35c3.01,1.59,6.05,3.2,9.1,4.8c-7.4-4.15-15.3-4.55-23.45-2.98
		c0,0,0.05,0.08,0.05,0.08c-0.74-0.39-1.5-1.14-2.21-1.1c-4.94,0.28-9.88,0.69-14.81,1.11c-7.78,0.66-15.64,0.92-23.33,2.15
		c-11.46,1.83-22.96,3.79-33.68,8.5c1.2-0.79,2.29-1.93,3.61-2.32c16.07-4.74,32.3-8.62,49.23-9.08
		c10.62-0.29,21.25-0.72,31.84-1.55c4.08-0.32,8.09-1.78,12.06-2.95c7.28-2.15,14.51-4.47,22.53-6.95
		c-2.46-0.64-4.34-1.32-6.27-1.58c-10.17-1.37-20.33-2.81-30.53-3.88c-8.73-0.91-17.5-1.53-26.27-1.93
		c-14.62-0.68-29.08,1.02-43.57,2.77c-13.77,1.67-27.37,4.03-40.83,7.23l0.04,0.06c8.43-2.05,16.79-4.55,25.32-6.03
		c9.85-1.71,19.86-2.52,29.8-3.73C83.87,349.76,59.77,349.5,36.54,357.63z"/>
	<path class="st2" d="M225.97,435.54c1.15,3.24,3.12,6.43,3.3,9.71c0.97,17.43,1.48,34.88,2.2,52.32c0.04,0.9,0.57,1.79,0.86,2.68
		c-0.41,3.29-0.83,6.57-1.29,10.3c5.26-1.53,10.12-1.93,13.64-5.55c-0.85,1.03-1.69,2.06-2.56,3.12c5.99,0.85,11.89,1.35,17.62,2.57
		c8.5,1.81,16.89,4.12,25.31,6.27c0.96,0.25,1.81,0.91,2.7,1.38c-0.79-0.14-1.62-0.18-2.37-0.45c-11.93-4.38-24.44-6.3-36.93-8.24
		c-3.39-0.53-7.14-1.41-10.15,1.48c-1.19-3.53-3.1-0.53-4.56-0.36c-2.32,0.28-3.07,1.63-1.5,3.66c0.25,0.37,0.5,0.74,0.75,1.1
		c-2.33,5.17-4.71,10.32-6.91,15.54c-0.22,0.51,0.65,1.5,1.09,2.23c0.73,1.2,1.53,2.36,2.31,3.54c-1.19-1.36-2.38-2.71-3.57-4.07
		c-0.39,0.09-0.79,0.18-1.18,0.28c-1.35,9.29-5.02,18.13-5.07,27.68c-0.04,9.46-0.01,18.93-0.01,28.39
		c-0.34,0.02-0.68,0.03-1.01,0.05c0-2.65,0.17-5.31-0.03-7.94c-0.79-10.56-1.73-21.11-2.5-31.67c-0.1-1.36,0.48-2.76,0.75-4.15
		c0.3,7.69,0.59,15.39,0.88,23.08c0.36-0.01,0.73-0.02,1.09-0.03c0.04-0.52,0.17-1.05,0.12-1.55c-1.26-10.83,2.57-20.99,4.47-31.38
		c0.5-2.7,1.54-4.89-2.17-6.09c-0.52,2.74-0.84,5.44-1.57,8.03c-0.77,2.74-1.94,5.37-2.94,8.05c1.19-4.97,2.53-9.92,3.47-14.94
		c0.26-1.37,2.07-3.93-1.5-4.29c0.54-0.71,1.5-1.4,1.56-2.14c0.49-6.93,5.43-11.77,8.41-17.53c-0.42,1.46-0.84,2.92-1.26,4.38
		c3.48-0.02,3.6-0.27,2.82-5.75c-0.59,0.52-1.13,1-1.68,1.48c2.42-4.37,2.22-9.12,2.04-13.84c-0.62-16-1.19-32-2.07-47.99
		C228.35,441.77,226.86,438.67,225.97,435.54z M227.68,519.72c-1.03,1-2.01,2.06-3.09,3c-3.59,3.1-3.44,5.56,0.59,7.95
		c1.24-3.13,2.53-6.23,3.66-9.38c0.23-0.62-0.12-1.45-0.2-2.18c0.56-1.1,1.12-2.2,1.8-3.53c-6.14,0.31-7.26,1.56-5.67,5.85
		C225.74,520.86,226.71,520.29,227.68,519.72z M224.25,514.28c0.24,0.51,0.48,1.02,0.72,1.53c1.58-1.42,4.94,0.03,5.47-3.09
		c-0.24-0.42-0.48-0.83-0.72-1.25C227.9,512.42,226.07,513.35,224.25,514.28z"/>
	<path class="st1" d="M194.43,232.76c-4.36-4.46-10.44-5.39-15.98-7.41c-1.26-0.47-2.49-1.16-3.8-1.36
		c-3.22-0.49-6.55-0.54-9.19-2.8l0.12,0.13c-1.34-3.03,0.37-4.61,3.03-5.1c2.21-0.41,4.61-0.4,6.83-0.03
		c4.97,0.83,9.88,2,14.82,3.04c0.32,0.09,0.63,0.19,0.95,0.28c1.53,1.73,3.06,3.45,4.58,5.18c0.09,0.38,0.19,0.77,0.28,1.15
		c0.88,3.08,1.76,6.17,2.69,9.44C197.1,234.32,195.77,233.54,194.43,232.76z"/>
	<path class="st2" d="M195.79,224.69c-1.53-1.73-3.06-3.45-4.58-5.18c1.61,0.77,1.71-0.05,1.51-1.32c-0.39-2.43-0.72-4.86-1.09-7.38
		c-0.61,0.56-1.37,1.27-2.1,1.95c-2.53-11.67-4.99-23.04-7.49-34.57c-3.64,0.45-4.36-1.84-4.66-4.51c0,0-0.06,0.04-0.06,0.04
		c0.75,0.95,1.49,1.91,2.33,2.98c1.74-4.16-1.7-6.23-3.01-9.05c0.22-0.41,0.45-0.82,0.67-1.23c0.67,1,1.24,2.08,2.04,2.96
		c0.59,0.65,1.47,1.04,2.22,1.54c0.9,4.81,1.7,9.65,2.73,14.43c1.35,6.24,2.89,12.44,4.76,18.67c0-3,0.06-6-0.01-9
		c-0.17-7.2-0.47-14.41-0.56-21.61c-0.01-1.09,0.81-2.2,1.24-3.3c-1.17,8.3-0.66,16.56,0.45,24.82c0.8-2.86,1.08-5.8,1.9-8.58
		c0.87-2.95,2.26-5.76,3.42-8.63c-1.67,8.11-3.42,16.21-4.94,24.34c-0.34,1.8,0.11,3.75,0.23,6.57c2.43-4.01,4.34-7.19,6.26-10.36
		c-0.45,1.11-0.9,2.22-1.34,3.33c0.35,0.1,0.7,0.21,1.05,0.31c-0.11,0.99-0.23,1.99-0.34,2.98c-2.5,2.82-4.28,5.84-2.84,10.5
		c3.02-0.6,5.99-1.23,8.97-1.78c3.82-0.71,7.65-1.88,11.49-1.95c11.69-0.23,23.4-0.38,35.07,0.07c18.01,0.7,35.46-2.66,52.81-6.53
		c6.45-1.44,12.58-4.23,18.86-6.4c-5.25,2.21-10.31,5.19-15.78,6.49c-19.77,4.7-39.72,8.17-60.28,7.12
		c-11.07-0.57-22.19-0.15-33.29-0.07c-1.81,0.01-3.66,0.42-5.43,0.87c-4.08,1.03-8.12,2.21-12.6,3.44c-0.84,2.92,2.19,4.99,3.46,7.7
		C196.49,224.46,196.14,224.58,195.79,224.69z"/>
	<path class="st1" d="M196.75,201.91c-0.35-0.1-0.7-0.21-1.05-0.31c0.45-1.11,0.9-2.22,1.34-3.33c3.98-6.17,8.06-12.25,14.51-16.32
		c1.05-0.66,2.19-1.17,3.28-1.75c5.39-2.63,10.78-5.26,16.16-7.89c2.95-0.77,5.9-1.53,8.85-2.3c3.01-0.74,6.02-1.47,9.03-2.21
		c-3.35,1.74-6.68,3.54-10.07,5.22C223.39,180.69,208.66,189.34,196.75,201.91z"/>
	<path class="st2" d="M201.34,261.24c0.46-0.54,0.86-1.15,1.41-1.6c0.41-0.34,1.34-0.36,1.45-0.7c2.05-6.44,3.69-12.96,2.94-19.77
		c-0.19-1.72-1.11-3.36-1.7-5.03c0.83,1.91,2.13,3.76,2.4,5.74c1.13,8.32-2.79,15.96-3.77,23.97c-1.43,11.79-3.53,23.74,0.65,35.48
		c13.09,0,26.02-0.34,38.93,0.16c5.64,0.22,11.2,2.16,16.8,3.32c-16.15-3.22-32.5-3.59-48.91-3.26c-6.14,0.12-6.14,0.03-6.81,5.86
		c-1.46-0.2-2.94-0.6-4.38-0.51c-0.77,0.05-1.96,0.84-2.1,1.48c-0.14,0.65,0.58,1.84,1.26,2.23c3.72,2.13,7.64,3.53,12.13,3.07
		c2.86-0.29,5.78-0.19,8.66,0.02c1.12,0.08,2.19,0.92,3.28,1.41c-4.47-0.37-8.95-0.75-13.42-1.12c-0.07,0.37-0.14,0.74-0.21,1.11
		c1.76,0.72,3.54,1.38,5.27,2.17c3.32,1.53,6.59,3.13,9.89,4.7c-4.07-1.57-8.12-3.19-12.22-4.68c-3.45-1.25-7-2.24-10.43-3.54
		c-3.05-1.15-5.9-2.96-9.03-3.78c-5.23-1.37-7.44-0.69-9.25,6.35c-0.83,3.24-1.83,6.74,2.05,9.06c-1.45-1.32-2.9-2.63-4.51-4.1
		c0.2-0.24-0.28,0.21-0.6,0.74c-2.12,3.54-0.77,6.92,0.54,10.3c-2.8-3.22-3.08-7.32-1.02-11.26c0.76-1.45,1.32-3.08,1.56-4.68
		c0.42-2.84,1.7-4.94,3.94-6.85c2.97-2.53,6.09-3.67,10.07-3.55c5.24,0.16,7.44-3.47,6.86-8.4c-0.77-6.54-0.61-13.19-0.81-19.79
		c-0.06-2.04-0.01-4.09-0.01-6.64c-0.71,0.88-1.06,1.31-1.41,1.75c0.37-1.28,1.01-2.55,1.04-3.83
		C201.93,265.12,201.54,263.18,201.34,261.24z M189.42,305.57c0.03,0.36,0.05,0.72,0.08,1.09c2.37,0.27,4.74,0.54,7.36,0.83
		c0.18-0.79,0.35-1.58,0.67-3.01C194.51,304.89,191.97,305.23,189.42,305.57z"/>
	<path class="st2" d="M223.62,428.48c-3.9,0.9,0.74,1.82-0.01,2.73c-3.12-2.1-6.33-3.64-10.35-3.7c-2.54-0.04-3.49,0.8-3.51,2.92
		c-0.05,4.85-0.01,9.71,0.12,14.56c0.19,6.65,0.47,13.29,0.77,19.93c0.13,2.92,0.48,5.83,0.6,8.74c0.06,1.43-0.17,2.88-0.27,4.32
		c-0.46-0.02-0.91-0.03-1.37-0.05c0-3.19,0.02-6.38,0-9.56c-0.03-4.63-0.04-9.25-0.13-13.88c-0.1-5.22-0.64-10.35-3.79-14.83
		c0.74,1.03,1.47,2.06,2.2,3.09c0.39-0.23,0.77-0.46,1.16-0.69c0-4.9,0-9.8,0-14.99c-1.01,0-2.5,0.12-3.96-0.03
		c-2.72-0.26-3.98,0.84-3.5,3.47c0.39,2.14,1.03,4.24,1.56,6.36c-3.72-2.82-2.16-6.62-2.05-10.55c-9.74-0.06-18.69,3.72-27.97,5.92
		c1.22-0.69,2.35-1.68,3.66-2.04c10.99-2.99,22.04-5.6,33.62-4.61c1.45,0.12,2.97-0.65,4.46-1.01c0.14-0.44,0.27-0.88,0.41-1.32
		c-2.82-1.67-5.64-3.34-8.46-5.01c3.22,1.43,6.43,2.87,9.52,4.24c0.75-3,0.07-7.53-6.13-12.56c5.35,2.1,7.2,7.3,7.34,13.32
		c0.02,0.94,0.39,1.87,0.59,2.8c0.42-0.09,0.85-0.19,1.27-0.28c-3.11-21.2-3.92-42.78-11.47-63.24c0,0-0.07,0.05-0.07,0.05
		c0.72,1.22,1.63,2.36,2.13,3.66c4.15,10.76,5.16,22.14,6.79,33.39c1.18,8.15,2.14,16.32,2.97,24.51
		C220.05,426.71,221.45,427.78,223.62,428.48z"/>
	<path class="st2" d="M248.89,167.8c-3.01,0.74-6.02,1.47-9.03,2.21c2.32-1.06,4.55-2.44,6.99-3.12c14.19-4.01,28.25-8.7,42.7-11.44
		c9.23-1.75,19.07-0.84,28.61-0.55c9.11,0.27,18.19,1.26,27.28,1.98c2.12,0.17,4.23,0.53,6.91,0.88c-1.28,3.14-2.31,5.66-3.34,8.18
		c0.33-1.6,0.67-3.2,1.06-5.06c-7.46,2.04-14.5,3.97-21.55,5.9c2.17-0.84,4.3-1.79,6.52-2.49c4.85-1.52,9.74-2.92,14.61-4.36
		c-0.07-0.37-0.14-0.74-0.22-1.11c-0.86,0-1.72,0.02-2.58,0c-4.5-0.14-9-0.13-13.48-0.5c-4.24-0.35-8.47-1.7-12.66-1.56
		c-9.45,0.32-18.88,1.33-28.33,1.99c-13.78,0.95-27.33,2.93-40.11,8.45C251.25,167.63,250.02,167.61,248.89,167.8z M276.64,159.45
		c13.05-1.19,26.11-2.37,39.16-3.56C302.39,153.76,289.28,154.99,276.64,159.45z"/>
	<path class="st2" d="M102.24,341.54c-0.86-2.53-1.73-5.05-2.77-8.09c-11.93-1.07-23.73,1.78-35.47,5.03
		c1.36-0.69,2.65-1.67,4.09-2.01c9.53-2.25,19.09-4.45,29.02-3.9c0.67,0.04,1.35-0.09,2.37-0.16c0-1.1,0.15-2.09-0.02-3.02
		c-1.32-6.86-3.35-13.66-3.89-20.57c-0.66-8.36-0.27-16.83,0.08-25.23c0.15-3.56,1.13-7.13,2.15-10.58c0.62-2.1,2.04-3.97,3.1-5.94
		c-1.65,6.4-3.79,12.72-4.84,19.21c-1.58,9.75-0.86,19.51,1.53,29.17c1.37,5.56,2.16,11.25,3.28,17.25c2.85,0,5.5,0.15,8.12-0.09
		c0.83-0.07,1.9-1.02,2.28-1.83c0.9-1.92,1.45-3.99,2.14-5.99c-0.49,2.6-0.99,5.21-1.49,7.86c4.73,2.15,8.73,0.54,12.55-1.95
		c2.18-1.42,4.29-2.96,6.43-4.44c-0.37,0.67-0.74,1.34-1.13,2.03c4.93-1.78,9.64-3.47,14.35-5.17c-5.71,2.5-11.45,4.96-17.13,7.54
		c-1.75,0.79-3.34,1.91-4.97,2.86c5.02,1.72,9.61,3.28,14.19,4.84c-3.8-0.95-7.59-1.95-11.4-2.85c-3.74-0.88-6.79,0-9.42,3
		c-1.07,1.22-3.14,1.65-4.81,2.31c-1.34,0.53-2.78,0.79-4.13,1.31c-1.63,0.63-3.23,1.59-4.34-0.7c4.76,1.36,6.9-0.75,7.64-7.82
		c-2.93,0-5.84,0-8.92,0C101.31,336.29,101.77,338.91,102.24,341.54z M116.52,334.69c-5.82-1.35-6.4-0.92-6.3,4.46
		C112.36,337.64,114.2,336.33,116.52,334.69z"/>
	<path class="st2" d="M73.54,414.15c14.67,0.74,29.35,1.23,43.99,2.28c13.13,0.94,25.97,0.07,38.96-2.27
		c11.53-2.08,23.42-2.31,35.16-3.2c1.35-0.1,2.78,0.78,4.17,1.21c-12.43-1.38-24.85-0.58-36.88,2.23
		c-16.97,3.97-33.92,3.41-51.02,2.19c-7.95-0.57-15.93-0.68-23.88-1.16C80.52,415.22,77.03,414.59,73.54,414.15z"/>
	<path class="st2" d="M52.14,386.97c3.97,0.49,7.94,1.15,11.93,1.4c1.46,0.09,2.98-0.79,4.47-1.23c0.41,0.43,0.83,1.24,1.24,1.24
		c3.11-0.03,6.32,0.23,9.3-0.44c6.85-1.55,13.55-3.76,20.39-5.38c11.89-2.83,23.84-5.43,35.77-8.1c6.62-1.48,13.26-2.93,19.89-4.39
		c0,0-0.05-0.08-0.05-0.08c-6.4,1.71-12.76,3.54-19.19,5.11c-18.55,4.54-37.12,9.03-55.7,13.42c-2.54,0.6-5.28,0.86-7.88,0.69
		c-3.73-0.24-6.81,0.48-8.98,3.63c0.47-1.06,0.94-2.13,1.28-2.9C60.46,388.95,56.3,387.96,52.14,386.97z"/>
	<path class="st2" d="M97.36,10.57c1.61,5.59,3.76,11.1,4.7,16.8c1.77,10.8,3.06,21.69,4.16,32.57c1.41,13.92,2.22,27.89,3.76,41.8
		c0.43,3.93,2.49,7.69,3.81,11.53c-1.51-3.41-3.85-6.71-4.37-10.26c-1.19-8.13-1.31-16.4-2.18-24.58
		c-2.38-22.18-2.93-44.63-9.71-66.19C97.35,11.72,97.41,11.13,97.36,10.57z"/>
	<path class="st2" d="M250.06,488.03c3.67-1.84,3.96-5.34,4.47-8.71c0.86-5.77,0.28-11.44-1.45-17.01
		c3.87,6.15,2.87,12.75,1.85,19.34c-0.19,1.2-0.46,2.38-0.82,4.21c5.82-1.94,10.99-4.45,16.42-5.26c6.02-0.89,12.28-0.24,18.43-0.18
		c0.41,0,0.81,0.69,1.22,1.06c-8.51-2.4-16.83-1.82-24.97,1.49c-0.21,0.09-0.42,0.2-0.65,0.24c-6.67,1.42-11.79,3.85-13.09,11.72
		c-0.61,3.66-4.5,6.8-6.91,10.18c0.65-1.02,1.13-2.21,1.98-3.04c4.02-3.96,5.29-9.01,6.48-14.63
		C251.77,487.7,250.91,487.87,250.06,488.03z"/>
	<path class="st2" d="M181.47,171.06c0.89-5.55,2.14-11.07,2.58-16.65c1.1-14.11-2.28-27.78-5-41.48
		c-1.07-5.4-2.55-10.72-3.84-16.08c1.29,3.9,2.98,7.71,3.79,11.7c2.08,10.16,4.16,20.34,5.49,30.61c1.28,9.88,0.74,19.81-1.88,29.53
		C182.38,169.53,181.85,170.28,181.47,171.06z"/>
	<path class="st2" d="M227.68,362.54c4.81,0.23,9.63,0.72,14.43,0.64c9.49-0.17,18.32,2.37,27.19,5.24
		c9.69,3.14,19.55,5.75,29.34,8.61c1.19,0.35,2.35,0.78,3.53,1.17c-7.78-1.88-15.64-3.52-23.33-5.7c-6.72-1.91-13.18-4.7-19.91-6.58
		c-4.15-1.16-8.57-1.61-12.9-1.92c-4.48-0.32-9,0.03-13.49-0.16C230.9,363.78,229.3,363,227.68,362.54z"/>
	<path class="st2" d="M52.9,360.49c-4.85,1.58-9.62,3.44-14.56,4.69c-8,2.03-16.1,3.67-24.16,5.48c-1.34,0.3-2.66,0.63-4.1,0.97
		c2.18,0.85,4.29,1.68,6.4,2.5c-3.84-0.73-7.68-1.45-11.52-2.18c-0.09-0.38-0.18-0.76-0.26-1.14c1.94-0.71,3.89-1.43,5.83-2.14l0,0
		c-0.03,0.63-0.06,1.25-0.1,2.05c8.48-1.95,16.86-3.83,25.21-5.82c5.78-1.37,11.53-2.89,17.3-4.35L52.9,360.49z"/>
	<path class="st2" d="M141.22,460c-0.25,0.97-0.38,1.99-0.77,2.9c-6.78,16.14-7.37,32.45-1.47,48.96c1.56,4.37,3.12,8.74,4.69,13.1
		c-0.51-0.54-1.25-0.99-1.5-1.62c-4.79-12.16-8.96-24.46-7.82-37.79C135.1,476.64,136.34,467.85,141.22,460z"/>
	<path class="st2" d="M384.46,556.06c0.75-0.04,1.5-0.07,2.24-0.11c0.14-0.28,0.29-0.55,0.43-0.83c-1.1-0.75-2.12-1.65-3.31-2.24
		c-7.52-3.7-15.08-7.31-22.6-11c-0.5-0.25-0.78-0.93-1.16-1.41c-0.45-0.7-0.9-1.41-1.35-2.11c3.52,2.11,6.98,4.34,10.59,6.29
		c3.93,2.13,7.99,4.02,12.01,5.97c0.94,0.46,2.08,1,1.87-0.92c1.3,1.36,2.78,2.6,3.83,4.12c0.51,0.74,0.23,2.01,0.3,3.03
		C386.37,556.6,385.41,556.33,384.46,556.06z"/>
	<path class="st2" d="M308.77,543.83c13.66,2.39,27.44,1.13,41.17,1.47c4.76,0.12,9.49,1.3,14.24,1.99
		c-15.04-0.48-30.08-0.86-45.11-1.52C315.61,545.61,312.2,544.5,308.77,543.83z"/>
	<path class="st2" d="M260.07,535c14.93,2.49,29.86,4.96,44.78,7.51c1.41,0.24,2.73,0.92,4.09,1.4c-4.98-0.87-9.94-1.84-14.94-2.6
		c-8.28-1.26-16.61-2.26-24.87-3.63C266.05,537.16,263.09,535.91,260.07,535z"/>
	<path class="st2" d="M177.3,166.42c-0.22,0.41-0.45,0.82-0.67,1.23c0.23,2.02,0.45,4.05,0.68,6.07c0,0,0.06-0.04,0.06-0.04
		c-0.51-0.93-1.11-1.82-1.53-2.79c-1.44-3.35-2.82-6.73-4.22-10.09c0.07-0.68,0.13-1.36,0.2-2.05c0,0-0.07,0.06-0.07,0.06
		c0.13-1.02,0.5-2.07,0.34-3.04c-0.49-2.86-1.18-5.68-1.8-8.52c0.55,1.47,1.27,2.91,1.61,4.42
		C173.07,156.81,174.1,161.99,177.3,166.42z"/>
	<path class="st2" d="M189.08,326.36c1.15,1.94,3.03,3.78,3.32,5.84c1.01,7.15,4.19,12.45,11.2,15.3c1.88,0.76,3.61,1.9,5.4,2.86
		c-1.35-0.39-2.71-0.79-4.18-1.22c0.09,0.85,0.18,1.73,0.27,2.6c0,0,0.08-0.07,0.08-0.07c-2.05-1.84-4.11-3.67-6.15-5.52
		c-1.98-1.79-3.94-3.61-5.91-5.41c0.24-0.2,0.71-0.48,0.67-0.6C192.25,335.54,190.66,330.95,189.08,326.36z"/>
	<path class="st2" d="M303.54,376.85c-1.03-2.1-2.6-4.11-3-6.32c-1.36-7.51-2.17-15.11-3.49-22.63c-0.63-3.6-1.95-7.08-2.96-10.62
		c4.19,5.82,3.69,12.75,4.9,19.3C300.23,363.39,302,370.1,303.54,376.85z"/>
	<path class="st2" d="M165.45,221.2c2.65,2.26,5.97,2.31,9.19,2.8c1.31,0.2,2.54,0.89,3.8,1.36c-2.14-0.3-4.29-0.64-6.44-0.84
		c-0.38-0.03-0.81,0.55-1.22,0.85c-8.17-2.78-15.83-0.79-23.36,2.39c4.22-1.45,8.39-3.09,12.69-4.26c1.92-0.52,4.11-0.09,6.54-0.09
		C166.14,222.46,165.79,221.83,165.45,221.2z"/>
	<path class="st2" d="M190.26,219.24c-4.94-1.03-9.85-2.2-14.82-3.04c-2.22-0.37-4.63-0.38-6.83,0.03c-2.66,0.49-4.37,2.07-3.03,5.1
		c-2.48-1.6-1.68-3.57,0.18-4.52c2.02-1.03,4.66-1.83,6.82-1.49C178.53,216.28,184.37,217.89,190.26,219.24z"/>
	<path class="st2" d="M195.37,177.86c0.71-4.48,1.43-8.95,2.14-13.43c-0.38-0.24-0.76-0.49-1.14-0.73c-2.18,2.1-4.36,4.2-6.54,6.31
		c1.07-3.81,4.18-5.47,7.93-7.55C198.46,168.26,197.24,173.1,195.37,177.86z"/>
	<path class="st2" d="M175.3,97.01c-3.27-7.33-6.54-14.65-9.81-21.98C168.76,82.36,172.03,89.68,175.3,97.01z"/>
	<path class="st2" d="M113.09,24.27c-0.65-1.09-1.5-2.11-1.91-3.28c-2.35-6.62-4.59-13.28-6.87-19.93c0.93,1.62,2.15,3.15,2.75,4.87
		C109.18,12.02,111.09,18.16,113.09,24.27z"/>
	<path class="st2" d="M161.48,534.64c1.06,1.98,2.11,3.97,3.17,5.95c1.05,1.95,2.13,3.89,3.28,5.98c2.8-1.99,5.24-3.73,7.68-5.46
		c-1.79,1.71-3.44,3.6-5.44,5.04c-0.75,0.54-3.08,0.45-3.34-0.04C164.85,542.39,163.22,538.49,161.48,534.64z"/>
	<path class="st2" d="M61.98,394.1c-2.32,5.82,0.06,10.1,4.63,13.73c1.68,1.34,3.19,2.89,4.78,4.34c-5.3-1.75-11.31-9.37-10.9-14.1
		C60.61,396.72,61.46,395.43,61.98,394.1z"/>
	<path class="st2" d="M104.43,1.19c-0.11,0-0.23,0.01-0.34,0c-7.77-0.71-8.68,0.36-6.79,7.88c0.13,0.53,0.1,1.11,0.15,1.66
		c-0.57-1.55-1.49-3.07-1.6-4.65c-0.11-1.62,0.04-4.25,1-4.75C99.09,0.16,101.89-1.12,104.43,1.19z"/>
	<path class="st2" d="M34.11,382.56c4.51,0.86,9.04,1.64,13.52,2.63c1.62,0.36,3.12,1.23,4.67,1.87
		c-5.15-0.95-10.32-1.85-15.45-2.91C35.88,383.95,35.03,383.11,34.11,382.56z"/>
	<path class="st2" d="M231.01,172.31c-5.39,2.63-10.78,5.26-16.16,7.89c2.13-1.35,4.16-2.91,6.43-3.99
		C224.42,174.71,227.75,173.59,231.01,172.31z"/>
	<path class="st2" d="M130.47,36.48c-5.9-1.71-12.39-2.34-16.08-8.2C118.75,32.89,125.16,33.66,130.47,36.48z"/>
	<path class="st2" d="M283.03,318.76c-3.85-3.52-7.71-7.05-11.56-10.57c0.64,0.19,1.47,0.19,1.88,0.6
		C276.62,312.07,279.82,315.43,283.03,318.76z"/>
	<path class="st2" d="M51.69,342.82c-2.03,0.67-4.06,1.32-6.09,2c-3.13,1.05-6.26,2.11-9.4,3.17c1.13-0.83,2.13-2.07,3.4-2.42
		C43.58,344.48,47.66,343.71,51.69,342.82z"/>
	<path class="st2" d="M150.34,513.14c2.23,4.14,4.46,8.28,6.68,12.41C154.8,521.42,152.57,517.28,150.34,513.14z"/>
	<path class="st1" d="M203.15,436.87c-0.53-2.12-1.17-4.22-1.56-6.36c-0.48-2.63,0.78-3.73,3.5-3.47c1.46,0.14,2.95,0.03,3.96,0.03
		c0,5.18,0,10.09,0,14.99c-0.39,0.23-0.77,0.46-1.16,0.69c-0.73-1.03-1.47-2.06-2.2-3.09C204.84,438.73,204,437.8,203.15,436.87z"/>
	<path class="st1" d="M121.02,55.1c-1.18-2.4-2.36-4.8-3.53-7.21c0.18-0.25,0.35-0.51,0.53-0.76c1,0.4,2.22,0.55,2.95,1.22
		c5.22,4.75,10.49,9.45,15.41,14.49c1.65,1.69,2.3,4.31,3.41,6.5c0.12,0.88,0,1.89,0.41,2.61c4.3,7.65,5.37,16.15,6.98,24.52
		c0.39,2.02,1.14,3.97,1.72,5.96c0,0-0.09-0.16-0.09-0.16c0.44,1.44,0.88,2.88,1.35,4.4c-0.66-0.11-1.18-0.19-1.7-0.28
		c-1.65-2.1-3.37-4.15-4.94-6.3c-3.23-4.42-6.38-8.89-9.56-13.35c-2-5.29-3.89-10.63-6.03-15.86
		C125.74,65.59,123.32,60.37,121.02,55.1z"/>
	<path class="st2" d="M148.44,106.41c0.52,0.08,1.04,0.17,1.7,0.28c-0.47-1.52-0.91-2.96-1.35-4.4c1.04,1.95,2.17,3.87,3.12,5.87
		c4.41,9.33,8.78,18.68,13.15,28c-0.18,0.88-0.73,1.9-0.47,2.65c2.3,6.69,4.75,13.34,7.15,20c0,0,0.07-0.06,0.07-0.06
		c-1.24-2.2-2.78-4.3-3.68-6.63c-4.64-11.91-8.96-23.94-13.73-35.79C152.98,112.8,150.46,109.71,148.44,106.41z"/>
	<path class="st1" d="M171.75,158.8c-2.4-6.66-4.85-13.31-7.15-20c-0.26-0.75,0.28-1.77,0.47-2.65c1.75,3.71,3.49,7.4,5.23,11.09
		c0.62,2.84,1.31,5.66,1.8,8.52C172.25,156.73,171.88,157.79,171.75,158.8z"/>
	<path class="st2" d="M121.02,55.1c2.31,5.26,4.72,10.49,6.89,15.8c2.14,5.24,4.03,10.57,6.03,15.86c-0.51-0.53-1.25-0.97-1.5-1.59
		c-3.82-9.56-7.57-19.15-11.32-28.74C120.97,56.04,121.05,55.55,121.02,55.1z"/>
	<path class="st2" d="M148.89,102.45c-0.58-1.98-1.34-3.94-1.72-5.96c-1.6-8.37-2.68-16.87-6.98-24.52
		c-0.41-0.72-0.28-1.73-0.41-2.61C145.78,79.61,147.01,91.11,148.89,102.45z"/>
	<path class="st1" d="M225.1,319.96c-3.29-1.57-6.57-3.17-9.89-4.7c-1.72-0.79-3.51-1.45-5.27-2.17c0.07-0.37,0.14-0.74,0.21-1.11
		c4.47,0.37,8.95,0.75,13.42,1.12c0.28,0.17,0.56,0.34,0.84,0.5c4.59,2.06,9.19,4.12,13.78,6.18c4.67,2.92,9.35,5.84,14.02,8.77
		c1.3,0.98,2.6,1.97,3.9,2.95c-0.17,0.37-0.34,0.74-0.51,1.11c-6.64-2.6-13.29-5.2-19.93-7.8
		C232.16,323.19,228.63,321.58,225.1,319.96z"/>
	<path class="st1" d="M189.08,326.36c1.58,4.59,3.17,9.18,4.71,13.78c0.04,0.11-0.44,0.39-0.67,0.6
		c-3.82-3.48-7.64-6.95-11.46-10.43c-1.31-3.38-2.66-6.76-0.54-10.3c0.32-0.53,0.79-0.97,0.6-0.74c1.61,1.47,3.06,2.78,4.51,4.1
		C187.18,324.37,188.13,325.36,189.08,326.36z"/>
	<path class="st2" d="M235.69,324.81c6.64,2.6,13.29,5.2,19.93,7.8c0.17-0.37,0.34-0.74,0.51-1.11c-1.3-0.98-2.6-1.97-3.9-2.95
		c1.9,0.93,3.8,1.86,5.7,2.79c-0.14,0.44-0.29,0.88-0.43,1.31c-1.84-0.17-3.83,0.02-5.51-0.59c-5.25-1.91-10.4-4.12-15.56-6.26
		C236.1,325.67,235.93,325.15,235.69,324.81z"/>
	<path class="st2" d="M238.21,319.79c-4.59-2.06-9.19-4.12-13.78-6.18C229.02,315.67,233.61,317.73,238.21,319.79z"/>
	<path class="st1" d="M207.96,362.53c7.55,20.46,8.36,42.04,11.47,63.24c-0.42,0.09-0.85,0.19-1.27,0.28
		c-0.21-0.93-0.57-1.86-0.59-2.8c-0.14-6.03-1.99-11.22-7.34-13.32c-0.96-0.82-1.83-1.76-2.88-2.43
		c-7.08-4.49-10.91-11.35-14.88-18.33c-2.58-4.53-6.55-8.33-9.98-12.38c-1.17-1.39-2.62-2.55-3.94-3.82
		c-3.05-1.61-6.09-3.22-9.1-4.8c9.02-2.7,18.45-5.52,27.88-8.35c1.09-0.33,2.27-0.5,3.24-1.03c3.12-1.73,4.29-1.37,5.74,1.84
		C206.63,361.36,207.39,361.9,207.96,362.53z"/>
	<path class="st2" d="M172.32,226.65c3.95,0.98,7.93,1.86,11.83,3c0.89,0.26,1.51,1.42,2.26,2.17c-3.48-1.25-6.97-2.5-10.44-3.77
		C174.74,227.61,173.54,227.12,172.32,226.65z"/>
	<path class="st1" d="M355.09,556.79c0.45,0.7,0.9,1.41,1.35,2.11c-0.25,0.01-0.51,0.01-0.76,0.02c-6.17-3.08-12.34-6.15-18.51-9.23
		c-3.5-2.1-7.41-3.75-10.41-6.39c-9.81-8.62-21.75-13.49-33.39-18.94c-3.54-1.66-7.11-3.24-10.66-4.85
		c-14.52-5.65-29.65-7.57-45.82-6.45c0.8-1.13,1.05-1.48,1.31-1.84l0.12-0.07c3.01-2.89,6.76-2.01,10.15-1.48
		c12.49,1.94,25,3.86,36.93,8.24c0.74,0.27,1.58,0.31,2.37,0.45c8.38,4.45,16.74,8.92,25.13,13.35c3.13,1.65,6.42,3.04,9.43,4.87
		C333.29,543.24,344.18,550.04,355.09,556.79z"/>
	<path class="st1" d="M250.06,488.03c0.85-0.16,1.71-0.33,2.95-0.57c-1.19,5.61-2.46,10.66-6.48,14.63
		c-0.85,0.83-1.33,2.02-1.98,3.04c0,0,0.12-0.12,0.12-0.12c-3.52,3.62-8.38,4.02-13.64,5.55c0.47-3.73,0.88-7.01,1.29-10.3
		C236.98,494.44,243.33,490.97,250.06,488.03z"/>
	<path class="st2" d="M238.19,511.22c-0.25,0.36-0.51,0.72-1.31,1.84c16.18-1.12,31.31,0.81,45.82,6.45
		c-3.01-0.69-6.1-1.15-9.02-2.12c-12.07-4.02-24.53-3.8-37-3.44c-1.24,0.04-2.45,1.05-3.68,1.6c-0.25-0.37-0.5-0.74-0.75-1.1
		C234.24,513.38,236.21,512.3,238.19,511.22z"/>
	<path class="st2" d="M340.79,531.26c6.17,3.08,12.34,6.15,18.51,9.23c-4.57-2.06-9.18-4.06-13.71-6.22
		C343.9,533.46,342.39,532.28,340.79,531.26z"/>
	<path class="st1" d="M144.13,323.12c-4.71,1.7-9.41,3.39-14.35,5.17c0.38-0.69,0.75-1.36,1.13-2.03
		c9.79-5.92,19.34-12.28,29.45-17.62c8.22-4.34,14.32-10.39,19.51-17.71c3.39-4.79,7.13-9.35,10.58-14.11
		c3.72-5.13,7.27-10.37,10.9-15.57c0.2,1.94,0.58,3.88,0.54,5.81c-0.03,1.28-0.67,2.55-1.04,3.83c-0.53,1.12-1.01,2.25-1.58,3.35
		c-4.73,9.08-10.92,17.02-19.11,23.41c-3.26,3.2-6.53,6.41-9.79,9.61c-2.44,1.46-4.88,2.92-7.3,4.39
		C156.75,315.46,150.44,319.29,144.13,323.12z"/>
	<path class="st2" d="M194.43,232.76c1.34,0.78,2.68,1.56,4.34,2.53c-0.93-3.28-1.81-6.36-2.69-9.44c1.58,4.52,3.16,9.04,4.75,13.57
		c-0.25,0.06-0.49,0.11-0.74,0.17C198.2,237.31,196.31,235.03,194.43,232.76z"/>
	<path class="st1" d="M155.13,370.07c-6.63,1.46-13.26,2.9-19.89,4.39c-11.93,2.67-23.88,5.27-35.77,8.1
		c-6.84,1.63-13.54,3.83-20.39,5.38c-2.98,0.67-6.19,0.41-9.3,0.44c-0.41,0-0.82-0.8-1.24-1.24c4.19-2.14,8.37-4.27,12.56-6.41
		c10.73-4.72,22.23-6.67,33.68-8.5c7.69-1.23,15.55-1.49,23.33-2.15c4.93-0.42,9.87-0.84,14.81-1.11
		C153.63,368.93,154.39,369.68,155.13,370.07z"/>
	<path class="st1" d="M248.89,167.8c1.13-0.19,2.36-0.17,3.37-0.61c12.78-5.52,26.33-7.5,40.11-8.45
		c9.44-0.65,18.87-1.67,28.33-1.99c4.2-0.14,8.42,1.21,12.66,1.56c4.48,0.37,8.99,0.36,13.48,0.5c0.86,0.03,1.72,0,2.58,0
		c0.07,0.37,0.14,0.74,0.22,1.11c-4.87,1.45-9.76,2.84-14.61,4.36c-2.22,0.7-4.35,1.65-6.52,2.49c-13.39,2.8-27.09,4.71-38.79,12.48
		c-1.6,1.06-2.79,2.68-4.35,3.81c-3.74,2.71-7.58,5.28-11.39,7.91c-7.74,2.98-15.36,6.3-23.24,8.87
		c-10.71,3.49-21.57,5.43-33.02,2.64c-5.06-1.23-10.56-0.79-15.87-0.88c-0.99-0.02-2,1.09-3.01,1.68c-0.81,0.53-1.63,1.07-2.44,1.6
		c0.11-0.99,0.23-1.99,0.34-2.98c11.91-12.57,26.64-21.21,42.07-28.89C242.21,171.34,245.54,169.54,248.89,167.8z"/>
	<path class="st2" d="M198.85,203.29c1-0.59,2.01-1.69,3.01-1.68c5.31,0.08,10.81-0.35,15.87,0.88c11.45,2.79,22.31,0.84,33.02-2.64
		c7.88-2.56,15.51-5.88,23.24-8.87c-0.35,0.41-0.62,1.01-1.06,1.19c-12.87,5.32-25.64,10.9-39.83,12.28
		c-6.37,0.62-12.36-0.99-18.52-1.69C209.42,202.18,204.1,203.06,198.85,203.29z"/>
	<path class="st1" d="M144.13,323.12c6.31-3.83,12.61-7.66,18.92-11.48c2.43-1.47,4.87-2.93,7.3-4.39c3.26-3.2,6.53-6.41,9.79-9.61
		c8.19-6.38,14.38-14.33,19.11-23.41c0.57-1.09,1.06-2.23,1.58-3.35c0.35-0.43,0.7-0.86,1.41-1.75c0,2.55-0.05,4.59,0.01,6.64
		c0.2,6.6,0.04,13.25,0.81,19.79c0.58,4.93-1.63,8.56-6.86,8.4c-3.98-0.12-7.1,1.02-10.07,3.55c-2.24,1.91-3.52,4.01-3.94,6.85
		c-0.24,1.61-0.8,3.24-1.56,4.68c-2.07,3.93-1.78,8.04,1.02,11.26c3.82,3.48,7.64,6.95,11.46,10.43c1.97,1.81,3.93,3.62,5.91,5.41
		c2.04,1.85,4.1,3.68,6.15,5.52c0.27,1.41,0.54,2.81,0.71,3.71c-10.31-1.24-20.57-2.45-30.83-3.71c-1.59-0.19-3.43-0.16-4.68-0.95
		c-8.19-5.17-17.8-6.53-26.71-9.75c-2.48-0.87-4.96-1.75-7.44-2.62c-4.58-1.56-9.16-3.13-14.19-4.84c1.63-0.95,3.23-2.07,4.97-2.86
		C132.68,328.08,138.42,325.62,144.13,323.12z"/>
	<path class="st1" d="M52.94,360.56c-5.77,1.45-11.51,2.97-17.3,4.35c-8.35,1.99-16.73,3.87-25.21,5.82c0.04-0.8,0.07-1.42,0.1-2.05
		c4.31-2.05,8.56-4.25,12.95-6.12c4.28-1.82,8.71-3.29,13.07-4.92c23.23-8.13,47.33-7.87,71.51-6.83c-9.94,1.2-19.95,2.01-29.8,3.73
		C69.72,356.01,61.37,358.51,52.94,360.56z"/>
	<path class="st1" d="M220.37,527.12c1-2.68,2.16-5.31,2.94-8.05c0.73-2.59,1.05-5.3,1.57-8.03c3.71,1.2,2.67,3.39,2.17,6.09
		c-1.91,10.39-5.73,20.55-4.47,31.38c0.06,0.51-0.07,1.04-0.12,1.55c-0.36,0.01-0.73,0.02-1.09,0.03
		c-0.29-7.7-0.59-15.39-0.88-23.08C220.49,527.01,220.37,527.12,220.37,527.12z"/>
	<path class="st1" d="M232.25,500.69c0.08,0.73,0.43,1.55,0.2,2.18c-1.14,3.15-2.43,6.25-3.66,9.38c-4.03-2.39-4.17-4.85-0.59-7.95
		c1.09-0.94,2.07-2,3.09-3C231.62,501.09,231.93,500.89,232.25,500.69z"/>
	<path class="st1" d="M232.25,500.69c-0.32,0.2-0.64,0.41-0.95,0.61c-0.97,0.57-1.94,1.14-2.91,1.71c-1.59-4.29-0.48-5.54,5.67-5.85
		C233.37,498.49,232.81,499.59,232.25,500.69z"/>
	<path class="st1" d="M238.19,511.22c-1.98,1.08-3.95,2.16-5.93,3.24c-1.58-2.03-0.82-3.38,1.5-3.66c1.46-0.18,3.37-3.17,4.56,0.36
		C238.31,511.15,238.19,511.22,238.19,511.22z"/>
	<path class="st1" d="M228.56,506.76c0.54-0.48,1.09-0.96,1.68-1.48c0.79,5.48,0.66,5.73-2.82,5.75c0.42-1.46,0.85-2.93,1.26-4.38
		C228.68,506.65,228.56,506.76,228.56,506.76z"/>
	<path class="st1" d="M224.25,514.28c1.82-0.93,3.65-1.86,5.47-2.8c0.24,0.42,0.48,0.83,0.72,1.25c-0.53,3.11-3.89,1.66-5.47,3.09
		C224.73,515.31,224.49,514.79,224.25,514.28z"/>
	<path class="st1" d="M177.31,173.72c-0.23-2.02-0.45-4.05-0.68-6.07c1.31,2.82,4.75,4.89,3.01,9.05
		C178.8,175.63,178.05,174.67,177.31,173.72z"/>
	<path class="st1" d="M189.42,305.57c2.55-0.34,5.09-0.68,8.12-1.09c-0.32,1.43-0.5,2.22-0.67,3.01c-2.62-0.3-4.99-0.56-7.36-0.83
		C189.47,306.29,189.45,305.93,189.42,305.57z"/>
	<path class="st1" d="M276.64,159.45c12.64-4.45,25.75-5.69,39.16-3.56C302.75,157.08,289.69,158.26,276.64,159.45z"/>
	<path class="st1" d="M102.24,341.54c-0.46-2.63-0.93-5.25-1.4-7.94c3.08,0,5.99,0,8.92,0c-0.74,7.08-2.88,9.19-7.64,7.82
		C102.12,341.43,102.24,341.54,102.24,341.54z"/>
	<path class="st1" d="M116.52,334.69c-2.31,1.64-4.16,2.95-6.3,4.46C110.12,333.77,110.7,333.34,116.52,334.69z"/>
	<path class="st2" d="M180.15,297.63c-3.26,3.2-6.53,6.41-9.79,9.61C173.62,304.04,176.89,300.84,180.15,297.63z"/>
</g>
</svg>
