<?xml version="1.0" encoding="utf-8"?>
<!-- Generator: Adobe Illustrator 23.0.3, SVG Export Plug-In . SVG Version: 6.00 Build 0)  -->
<svg version="1.1" xmlns="http://www.w3.org/2000/svg" xmlns:xlink="http://www.w3.org/1999/xlink" x="0px" y="0px"
	 viewBox="0 0 792 612" style="enable-background:new 0 0 792 612;" xml:space="preserve">
<style type="text/css">
	.st0{fill:url(#SVGID_1_);}
	.st1{fill:url(#SVGID_2_);}
	.st2{clip-path:url(#SVGID_4_);}
	.st3{fill:#444444;}
	.st4{font-family:'Seravek-Italic';}
	.st5{font-size:19.4032px;}
	.st6{letter-spacing:13.6;}
	.st7{fill:#E2E2E2;}
	.st8{fill:#3A3331;}
	.st9{font-family:'Seravek';}
	.st10{font-size:16px;}
	.st11{fill:none;}
	.st12{font-family:'ProximaNova-Regular';}
	.st13{font-size:14px;}
	.st14{letter-spacing:1;}
	.st15{letter-spacing:5;}
	.st16{letter-spacing:2;}
</style>
<g id="Background">
	<linearGradient id="SVGID_1_" gradientUnits="userSpaceOnUse" x1="395.9288" y1="-0.5938" x2="395.9288" y2="611">
		<stop  offset="1.117729e-02" style="stop-color:#F2F1EF"/>
		<stop  offset="0.3853" style="stop-color:#F0EFED"/>
		<stop  offset="1" style="stop-color:#EBEAE8"/>
	</linearGradient>
	<rect x="-0.1" y="-0.6" class="st0" width="792.1" height="611.6"/>
	<g>
		<defs>
			<rect id="SVGID_3_" x="-413" y="153" width="405" height="458"/>
		</defs>
		<clipPath id="SVGID_2_">
			<use xlink:href="#SVGID_3_"  style="overflow:visible;"/>
		</clipPath>
		<g id="_x38_ThFVS.tif" style="clip-path:url(#SVGID_2_);">
			
				<image style="overflow:visible;" width="1000" height="667" id="Layer_0_1_" xlink:href="7996ACAB6633A137.png"  transform="matrix(0.69 0 0 0.69 -630.9999 151.77)">
			</image>
		</g>
	</g>
</g>
<g id="Content">
	<text transform="matrix(0.9559 0 0 1 199.0012 502.836)"><tspan x="0" y="0" class="st3 st4 st5">“Let’s get things done!”</tspan><tspan x="0" y="26.7" class="st3 st4 st5 st6">						</tspan><tspan x="108.3" y="26.7" class="st3 st4 st5">-Brie Taylor</tspan></text>
	<g id="Main_Points">
		<rect x="456.7" y="335.5" class="st7" width="143.6" height="31.8"/>
		<text transform="matrix(1.0986 0 0 1 465.9979 356.9557)" class="st8 st9 st10">MAIN POINTS</text>
		<rect x="466" y="384" class="st11" width="290" height="134.5"/>
		<text transform="matrix(1 0 0 1 465.9999 393.3369)"><tspan x="0" y="0" class="st12 st13">• Brie wants to re-invent herself.</tspan><tspan x="0" y="22" class="st12 st13">• She wants to be up-to-date and fashionable.</tspan><tspan x="0" y="44" class="st12 st13">• She wants to be more organized and have </tspan><tspan x="0" y="66" class="st12 st13">time for herself.</tspan><tspan x="0" y="88" class="st12 st13">• She wants to be inspired.</tspan><tspan x="0" y="110" class="st12 st13"> </tspan></text>
	</g>
	<g id="References">
		<rect x="456.4" y="36.5" class="st7" width="142.8" height="31.8"/>
		<text transform="matrix(1.0986 0 0 1 464.998 57.955)" class="st8 st9 st10">REFERENCES</text>
		<rect x="465" y="85" class="st11" width="242" height="239.6"/>
		<text transform="matrix(1 0 0 1 464.9995 94.3363)"><tspan x="0" y="0" class="st12 st13">• The Devil Wears Prada (2006)</tspan><tspan x="0" y="22" class="st12 st13">• The Runaways (2010)</tspan><tspan x="0" y="44" class="st12 st13">• NYC Fashion week</tspan><tspan x="0" y="66" class="st12 st13">• Hootsuite</tspan><tspan x="0" y="88" class="st12 st13">• Socialbakers</tspan><tspan x="0" y="110" class="st12 st13">• Instagram</tspan><tspan x="0" y="132" class="st12 st13">• Elle</tspan><tspan x="0" y="154" class="st12 st13">• Pinterest</tspan><tspan x="0" y="176" class="st12 st13">• Vogue</tspan><tspan x="0" y="198" class="st12 st13"> </tspan></text>
	</g>
	<g id="Description">
		<rect x="0" y="36.5" class="st7" width="165.3" height="31.8"/>
		<text transform="matrix(1.0986 0 0 1 36.0005 57.955)" class="st8 st9 st10">DESCRIPTION</text>
		<rect x="36" y="93" class="st11" width="351" height="377"/>
		<text transform="matrix(1 0 0 1 36 102.3353)"><tspan x="0" y="0" class="st12 st13">Brie</tspan><tspan x="24.4" y="0" class="st12 st13"> </tspan><tspan x="28.4" y="0" class="st12 st13">is</tspan><tspan x="38" y="0" class="st12 st13"> </tspan><tspan x="42" y="0" class="st12 st13">young</tspan><tspan x="80.3" y="0" class="st12 st13"> </tspan><tspan x="84.3" y="0" class="st12 st13">and</tspan><tspan x="107.5" y="0" class="st12 st13"> </tspan><tspan x="111.4" y="0" class="st12 st13">ambitious</tspan><tspan x="170.8" y="0" class="st12 st13"> </tspan><tspan x="174.7" y="0" class="st12 st13">woman</tspan><tspan x="219.4" y="0" class="st12 st13"> </tspan><tspan x="223.4" y="0" class="st12 st13">who</tspan><tspan x="249.4" y="0" class="st12 st13"> </tspan><tspan x="253.3" y="0" class="st12 st13">likes</tspan><tspan x="281.2" y="0" class="st12 st13"> </tspan><tspan x="285.2" y="0" class="st12 st13">to</tspan><tspan x="297.3" y="0" class="st12 st13"> </tspan><tspan x="301.2" y="0" class="st12 st13">work</tspan><tspan x="331.3" y="0" class="st12 st13"> </tspan><tspan x="335.3" y="0" class="st12 st13">on </tspan><tspan x="0" y="22" class="st12 st13">several</tspan><tspan x="44.3" y="22" class="st12 st13 st14"> </tspan><tspan x="49.3" y="22" class="st12 st13">projects</tspan><tspan x="98.5" y="22" class="st12 st13 st14"> </tspan><tspan x="103.5" y="22" class="st12 st13">at</tspan><tspan x="115" y="22" class="st12 st13 st14"> </tspan><tspan x="120" y="22" class="st12 st13">once.</tspan><tspan x="153.8" y="22" class="st12 st13 st14"> </tspan><tspan x="158.8" y="22" class="st12 st13">She</tspan><tspan x="182.6" y="22" class="st12 st13 st14"> </tspan><tspan x="187.6" y="22" class="st12 st13">has</tspan><tspan x="209.2" y="22" class="st12 st13 st14"> </tspan><tspan x="214.2" y="22" class="st12 st13">unique</tspan><tspan x="256.4" y="22" class="st12 st13 st14"> </tspan><tspan x="261.4" y="22" class="st12 st13">approaches</tspan><tspan x="333.9" y="22" class="st12 st13 st14"> </tspan><tspan x="338.9" y="22" class="st12 st13">to </tspan><tspan x="0" y="44" class="st12 st13">situations</tspan><tspan x="58.4" y="44" class="st12 st13"> </tspan><tspan x="61.9" y="44" class="st12 st13">that</tspan><tspan x="85.2" y="44" class="st12 st13"> </tspan><tspan x="88.7" y="44" class="st12 st13">she</tspan><tspan x="110.9" y="44" class="st12 st13"> </tspan><tspan x="114.4" y="44" class="st12 st13">wants</tspan><tspan x="150.4" y="44" class="st12 st13"> </tspan><tspan x="153.9" y="44" class="st12 st13">her</tspan><tspan x="174.1" y="44" class="st12 st13"> </tspan><tspan x="177.6" y="44" class="st12 st13">company</tspan><tspan x="233.9" y="44" class="st12 st13"> </tspan><tspan x="237.4" y="44" class="st12 st13">to</tspan><tspan x="249.5" y="44" class="st12 st13"> </tspan><tspan x="253" y="44" class="st12 st13">adopt.</tspan><tspan x="291.8" y="44" class="st12 st13"> </tspan><tspan x="295.3" y="44" class="st12 st13">Although </tspan><tspan x="0" y="66" class="st12 st13">as</tspan><tspan x="13.9" y="66" class="st12 st13 st14"> </tspan><tspan x="19.1" y="66" class="st12 st13">of</tspan><tspan x="31.1" y="66" class="st12 st13 st14"> </tspan><tspan x="36.3" y="66" class="st12 st13">late,</tspan><tspan x="62" y="66" class="st12 st13 st14"> </tspan><tspan x="67.2" y="66" class="st12 st13">Brie</tspan><tspan x="91.7" y="66" class="st12 st13 st14"> </tspan><tspan x="96.8" y="66" class="st12 st13">notices</tspan><tspan x="141.2" y="66" class="st12 st13 st14"> </tspan><tspan x="146.4" y="66" class="st12 st13">that</tspan><tspan x="169.7" y="66" class="st12 st13 st14"> </tspan><tspan x="174.9" y="66" class="st12 st13">her</tspan><tspan x="195.1" y="66" class="st12 st13 st14"> </tspan><tspan x="200.3" y="66" class="st12 st13">ideas</tspan><tspan x="233.3" y="66" class="st12 st13 st14"> </tspan><tspan x="238.5" y="66" class="st12 st13">are</tspan><tspan x="258.4" y="66" class="st12 st13 st14"> </tspan><tspan x="263.6" y="66" class="st12 st13">overlooked</tspan><tspan x="333.2" y="66" class="st12 st13 st14"> </tspan><tspan x="338.4" y="66" class="st12 st13">or </tspan><tspan x="0" y="88" class="st12 st13">dismissed.</tspan><tspan x="0" y="132" class="st12 st13">She</tspan><tspan x="23.8" y="132" class="st12 st13 st14"> </tspan><tspan x="28.6" y="132" class="st12 st13">is</tspan><tspan x="38.3" y="132" class="st12 st13 st14"> </tspan><tspan x="43.1" y="132" class="st12 st13">generally</tspan><tspan x="99.8" y="132" class="st12 st13 st14"> </tspan><tspan x="104.6" y="132" class="st12 st13">soft</tspan><tspan x="127.2" y="132" class="st12 st13 st14"> </tspan><tspan x="132.1" y="132" class="st12 st13">spoken,</tspan><tspan x="180.6" y="132" class="st12 st13 st14"> </tspan><tspan x="185.4" y="132" class="st12 st13">yet</tspan><tspan x="204.3" y="132" class="st12 st13 st14"> </tspan><tspan x="209.1" y="132" class="st12 st13">has</tspan><tspan x="230.7" y="132" class="st12 st13 st14"> </tspan><tspan x="235.5" y="132" class="st12 st13">a</tspan><tspan x="242.9" y="132" class="st12 st13 st14"> </tspan><tspan x="247.8" y="132" class="st12 st13">lively</tspan><tspan x="278.8" y="132" class="st12 st13 st14"> </tspan><tspan x="283.6" y="132" class="st12 st13">personality </tspan><tspan x="0" y="154" class="st12 st13">which</tspan><tspan x="35.8" y="154" class="st12 st13 st15"> </tspan><tspan x="44.5" y="154" class="st12 st13">she</tspan><tspan x="66.6" y="154" class="st12 st13 st15"> </tspan><tspan x="75.3" y="154" class="st12 st13">wants</tspan><tspan x="111.3" y="154" class="st12 st13 st15"> </tspan><tspan x="120.1" y="154" class="st12 st13">others</tspan><tspan x="158.9" y="154" class="st12 st13 st15"> </tspan><tspan x="167.6" y="154" class="st12 st13">to</tspan><tspan x="179.7" y="154" class="st12 st13 st15"> </tspan><tspan x="188.4" y="154" class="st12 st13">see.</tspan><tspan x="213.9" y="154" class="st12 st13 st15"> </tspan><tspan x="222.7" y="154" class="st12 st13">Brie</tspan><tspan x="247.1" y="154" class="st12 st13 st15"> </tspan><tspan x="255.8" y="154" class="st12 st13">also</tspan><tspan x="280.9" y="154" class="st12 st13 st15"> </tspan><tspan x="289.6" y="154" class="st12 st13">feels</tspan><tspan x="318.9" y="154" class="st12 st13 st15"> </tspan><tspan x="327.7" y="154" class="st12 st13">that </tspan><tspan x="0" y="176" class="st12 st13">because</tspan><tspan x="52.4" y="176" class="st12 st13 st14"> </tspan><tspan x="57.5" y="176" class="st12 st13">her</tspan><tspan x="77.8" y="176" class="st12 st13 st14"> </tspan><tspan x="83" y="176" class="st12 st13">company</tspan><tspan x="139.2" y="176" class="st12 st13 st14"> </tspan><tspan x="144.4" y="176" class="st12 st13">style</tspan><tspan x="172.9" y="176" class="st12 st13 st14"> </tspan><tspan x="178.1" y="176" class="st12 st13">and</tspan><tspan x="201.2" y="176" class="st12 st13 st14"> </tspan><tspan x="206.4" y="176" class="st12 st13">environment</tspan><tspan x="283.4" y="176" class="st12 st13 st14"> </tspan><tspan x="288.6" y="176" class="st12 st13">is</tspan><tspan x="298.3" y="176" class="st12 st13 st14"> </tspan><tspan x="303.5" y="176" class="st12 st13">old</tspan><tspan x="322.6" y="176" class="st12 st13 st14"> </tspan><tspan x="327.8" y="176" class="st12 st13">and </tspan><tspan x="0" y="198" class="st12 st13">unfashionable,</tspan><tspan x="89.6" y="198" class="st12 st13"> </tspan><tspan x="93.3" y="198" class="st12 st13">it</tspan><tspan x="100.6" y="198" class="st12 st13"> </tspan><tspan x="104.3" y="198" class="st12 st13">is</tspan><tspan x="114" y="198" class="st12 st13"> </tspan><tspan x="117.7" y="198" class="st12 st13">beginning</tspan><tspan x="179.2" y="198" class="st12 st13"> </tspan><tspan x="182.9" y="198" class="st12 st13">to</tspan><tspan x="195" y="198" class="st12 st13"> </tspan><tspan x="198.8" y="198" class="st12 st13">affect</tspan><tspan x="233.1" y="198" class="st12 st13"> </tspan><tspan x="236.8" y="198" class="st12 st13">her</tspan><tspan x="257" y="198" class="st12 st13"> </tspan><tspan x="260.7" y="198" class="st12 st13">style</tspan><tspan x="289.3" y="198" class="st12 st13"> </tspan><tspan x="293" y="198" class="st12 st13">and</tspan><tspan x="316.2" y="198" class="st12 st13"> </tspan><tspan x="319.9" y="198" class="st12 st13">men</tspan><tspan x="346.8" y="198" class="st12 st13">-</tspan><tspan x="0" y="220" class="st12 st13">tality. </tspan><tspan x="0" y="264" class="st12 st13">Brie</tspan><tspan x="24.4" y="264" class="st12 st13"> </tspan><tspan x="28.2" y="264" class="st12 st13">understands</tspan><tspan x="104.5" y="264" class="st12 st13"> </tspan><tspan x="108.3" y="264" class="st12 st13">by</tspan><tspan x="123.2" y="264" class="st12 st13"> </tspan><tspan x="127" y="264" class="st12 st13">knowing</tspan><tspan x="179.1" y="264" class="st12 st13"> </tspan><tspan x="182.9" y="264" class="st12 st13">more</tspan><tspan x="214.7" y="264" class="st12 st13"> </tspan><tspan x="218.5" y="264" class="st12 st13">about</tspan><tspan x="253.7" y="264" class="st12 st13"> </tspan><tspan x="257.5" y="264" class="st12 st13">modern</tspan><tspan x="305.1" y="264" class="st12 st13"> </tspan><tspan x="308.9" y="264" class="st12 st13">trends, </tspan><tspan x="0" y="286" class="st12 st13">brands</tspan><tspan x="42.3" y="286" class="st12 st13"> </tspan><tspan x="46.6" y="286" class="st12 st13">and</tspan><tspan x="69.8" y="286" class="st12 st13"> </tspan><tspan x="74.1" y="286" class="st12 st13">styles,</tspan><tspan x="112.3" y="286" class="st12 st13"> </tspan><tspan x="116.6" y="286" class="st12 st13">it</tspan><tspan x="123.9" y="286" class="st12 st13"> </tspan><tspan x="128.2" y="286" class="st12 st13">will</tspan><tspan x="147.9" y="286" class="st12 st13"> </tspan><tspan x="152.2" y="286" class="st12 st13">benefit</tspan><tspan x="195" y="286" class="st12 st13"> </tspan><tspan x="199.3" y="286" class="st12 st13">the</tspan><tspan x="219" y="286" class="st12 st13"> </tspan><tspan x="223.3" y="286" class="st12 st13">way</tspan><tspan x="247.8" y="286" class="st12 st13"> </tspan><tspan x="252.1" y="286" class="st12 st13">she</tspan><tspan x="274.2" y="286" class="st12 st13"> </tspan><tspan x="278.5" y="286" class="st12 st13">approaches </tspan><tspan x="0" y="308" class="st12 st13">her</tspan><tspan x="20.2" y="308" class="st12 st13"> </tspan><tspan x="23.9" y="308" class="st12 st13">clients</tspan><tspan x="63.4" y="308" class="st12 st13"> </tspan><tspan x="67.1" y="308" class="st12 st13">and</tspan><tspan x="90.2" y="308" class="st12 st13"> </tspan><tspan x="93.9" y="308" class="st12 st13">her</tspan><tspan x="114.2" y="308" class="st12 st13"> </tspan><tspan x="117.9" y="308" class="st12 st13">projects.</tspan><tspan x="170.3" y="308" class="st12 st13"> </tspan><tspan x="174" y="308" class="st12 st13">It</tspan><tspan x="181.5" y="308" class="st12 st13"> </tspan><tspan x="185.2" y="308" class="st12 st13">will</tspan><tspan x="204.9" y="308" class="st12 st13"> </tspan><tspan x="208.6" y="308" class="st12 st13">also</tspan><tspan x="233.6" y="308" class="st12 st13"> </tspan><tspan x="237.3" y="308" class="st12 st13">increase</tspan><tspan x="289.4" y="308" class="st12 st13"> </tspan><tspan x="293.1" y="308" class="st12 st13">her</tspan><tspan x="313.3" y="308" class="st12 st13"> </tspan><tspan x="317" y="308" class="st12 st13">conf</tspan><tspan x="346.8" y="308" class="st12 st13">-</tspan><tspan x="0" y="330" class="st12 st13">dence</tspan><tspan x="38.5" y="330" class="st12 st13 st16"> </tspan><tspan x="44.1" y="330" class="st12 st13">which</tspan><tspan x="79.9" y="330" class="st12 st13 st16"> </tspan><tspan x="85.6" y="330" class="st12 st13">she</tspan><tspan x="107.7" y="330" class="st12 st13 st16"> </tspan><tspan x="113.4" y="330" class="st12 st13">believes</tspan><tspan x="164.7" y="330" class="st12 st13 st16"> </tspan><tspan x="170.4" y="330" class="st12 st13">others</tspan><tspan x="209.2" y="330" class="st12 st13 st16"> </tspan><tspan x="214.9" y="330" class="st12 st13">will</tspan><tspan x="234.6" y="330" class="st12 st13 st16"> </tspan><tspan x="240.3" y="330" class="st12 st13">begin</tspan><tspan x="275.1" y="330" class="st12 st13 st16"> </tspan><tspan x="280.8" y="330" class="st12 st13">to</tspan><tspan x="292.9" y="330" class="st12 st13 st16"> </tspan><tspan x="298.5" y="330" class="st12 st13">take</tspan><tspan x="325.1" y="330" class="st12 st13 st16"> </tspan><tspan x="330.8" y="330" class="st12 st13">her </tspan><tspan x="0" y="352" class="st12 st13">more seriously.</tspan></text>
	</g>
</g>
</svg>
