<?xml version="1.0" encoding="utf-8"?>
<!-- Generator: Adobe Illustrator 23.0.3, SVG Export Plug-In . SVG Version: 6.00 Build 0)  -->
<svg version="1.1" xmlns="http://www.w3.org/2000/svg" xmlns:xlink="http://www.w3.org/1999/xlink" x="0px" y="0px"
	 viewBox="0 0 841.9 1026.7" style="enable-background:new 0 0 841.9 1026.7;" xml:space="preserve">
<style type="text/css">
	.st0{fill:#F9F8FB;}
	.st1{fill:#EADCBC;}
	.st2{fill:#4D4D4D;}
	.st3{font-family:'Futura-Medium';}
	.st4{font-size:34px;}
	.st5{fill:none;}
	.st6{fill:#333333;}
	.st7{font-size:20px;}
	.st8{letter-spacing:1;}
	.st9{letter-spacing:6;}
	.st10{letter-spacing:15;}
	.st11{letter-spacing:4;}
	.st12{letter-spacing:9;}
	.st13{letter-spacing:2;}
	.st14{letter-spacing:7;}
	.st15{letter-spacing:-1;}
	.st16{font-size:16px;}
	.st17{letter-spacing:8;}
	.st18{letter-spacing:3;}
</style>
<g id="_x31_._Block_Elements">
</g>
<g id="Profile">
</g>
<g id="Goals">
</g>
<g id="Motivations">
</g>
<g id="_x32_._Block_Elements">
	<rect x="496.2" y="91" class="st0" width="308.8" height="935.7"/>
	<rect x="0" class="st1" width="841.9" height="64.7"/>
</g>
<g id="Frustrations">
	<text transform="matrix(1 0 0 1 525.6862 143.8287)" class="st2 st3 st4">Frustrations </text>
	<rect x="523.2" y="170.6" class="st5" width="260.6" height="492.4"/>
	<text transform="matrix(1 0 0 1 523.1784 187.0667)"><tspan x="0" y="0" class="st6 st3 st7">•</tspan><tspan x="15.1" y="0" class="st6 st3 st7 st8"> </tspan><tspan x="22.3" y="0" class="st6 st3 st7">The</tspan><tspan x="54" y="0" class="st6 st3 st7 st8"> </tspan><tspan x="61.2" y="0" class="st6 st3 st7">skill</tspan><tspan x="94.2" y="0" class="st6 st3 st7 st8"> </tspan><tspan x="101.4" y="0" class="st6 st3 st7">demand</tspan><tspan x="175.2" y="0" class="st6 st3 st7 st8"> </tspan><tspan x="182.4" y="0" class="st6 st3 st7">in</tspan><tspan x="198.4" y="0" class="st6 st3 st7 st8"> </tspan><tspan x="205.6" y="0" class="st6 st3 st7">the</tspan><tspan x="233.1" y="0" class="st6 st3 st7 st8"> </tspan><tspan x="240.3" y="0" class="st6 st3 st7">in</tspan><tspan x="256.2" y="0" class="st6 st3 st7">-</tspan><tspan x="0" y="24" class="st6 st3 st7">dustry</tspan><tspan x="54.8" y="24" class="st6 st3 st7 st9"> </tspan><tspan x="67.2" y="24" class="st6 st3 st7">is</tspan><tspan x="80.3" y="24" class="st6 st3 st7 st9"> </tspan><tspan x="92.7" y="24" class="st6 st3 st7">continously</tspan><tspan x="193.5" y="24" class="st6 st3 st7 st9"> </tspan><tspan x="205.9" y="24" class="st6 st3 st7">rising, </tspan><tspan x="0" y="48" class="st6 st3 st7">increasing</tspan><tspan x="92.1" y="48" class="st6 st3 st7 st10"> </tspan><tspan x="113.6" y="48" class="st6 st3 st7">its</tspan><tspan x="132.2" y="48" class="st6 st3 st7 st10"> </tspan><tspan x="153.8" y="48" class="st6 st3 st7">competitive</tspan><tspan x="256.2" y="48" class="st6 st3 st7">-</tspan><tspan x="0" y="72" class="st6 st3 st7">ness.</tspan><tspan x="0" y="120" class="st6 st3 st7">•</tspan><tspan x="15.1" y="120" class="st6 st3 st7 st11"> </tspan><tspan x="25.7" y="120" class="st6 st3 st7">A</tspan><tspan x="40.5" y="120" class="st6 st3 st7 st11"> </tspan><tspan x="51.2" y="120" class="st6 st3 st7">great</tspan><tspan x="99.2" y="120" class="st6 st3 st7 st11"> </tspan><tspan x="109.8" y="120" class="st6 st3 st7">possibility</tspan><tspan x="198.3" y="120" class="st6 st3 st7 st11"> </tspan><tspan x="209" y="120" class="st6 st3 st7">of</tspan><tspan x="226.9" y="120" class="st6 st3 st7 st11"> </tspan><tspan x="237.6" y="120" class="st6 st3 st7">no </tspan><tspan x="0" y="144" class="st6 st3 st7">job</tspan><tspan x="29" y="144" class="st6 st3 st7 st12"> </tspan><tspan x="44.5" y="144" class="st6 st3 st7">and</tspan><tspan x="79.4" y="144" class="st6 st3 st7 st12"> </tspan><tspan x="94.9" y="144" class="st6 st3 st7">home</tspan><tspan x="144.8" y="144" class="st6 st3 st7 st12"> </tspan><tspan x="160.3" y="144" class="st6 st3 st7">stability</tspan><tspan x="229.1" y="144" class="st6 st3 st7 st12"> </tspan><tspan x="244.6" y="144" class="st6 st3 st7">in </tspan><tspan x="0" y="168" class="st6 st3 st7">Vancouver.</tspan><tspan x="0" y="216" class="st6 st3 st7">•</tspan><tspan x="15.1" y="216" class="st6 st3 st7 st13"> </tspan><tspan x="23.5" y="216" class="st6 st3 st7">Impatient</tspan><tspan x="107.1" y="216" class="st6 st3 st7 st13"> </tspan><tspan x="115.5" y="216" class="st6 st3 st7">and</tspan><tspan x="150.4" y="216" class="st6 st3 st7 st13"> </tspan><tspan x="158.8" y="216" class="st6 st3 st7">demanding </tspan><tspan x="0" y="240" class="st6 st3 st7">people.</tspan><tspan x="0" y="288" class="st6 st3 st7">•</tspan><tspan x="15.1" y="288" class="st6 st3 st7 st8"> </tspan><tspan x="22.5" y="288" class="st6 st3 st7">An</tspan><tspan x="48.3" y="288" class="st6 st3 st7 st8"> </tspan><tspan x="55.8" y="288" class="st6 st3 st7">environment</tspan><tspan x="166.6" y="288" class="st6 st3 st7 st8"> </tspan><tspan x="174.1" y="288" class="st6 st3 st7">where</tspan><tspan x="230.1" y="288" class="st6 st3 st7 st8"> </tspan><tspan x="237.6" y="288" class="st6 st3 st7">no </tspan><tspan x="0" y="312" class="st6 st3 st7">one</tspan><tspan x="34.1" y="312" class="st6 st3 st7 st11"> </tspan><tspan x="45" y="312" class="st6 st3 st7">is</tspan><tspan x="58.1" y="312" class="st6 st3 st7 st11"> </tspan><tspan x="69" y="312" class="st6 st3 st7">able</tspan><tspan x="109.1" y="312" class="st6 st3 st7 st11"> </tspan><tspan x="120" y="312" class="st6 st3 st7">to</tspan><tspan x="137.5" y="312" class="st6 st3 st7 st11"> </tspan><tspan x="148.4" y="312" class="st6 st3 st7">step</tspan><tspan x="185.1" y="312" class="st6 st3 st7 st11"> </tspan><tspan x="196" y="312" class="st6 st3 st7">outside </tspan><tspan x="0" y="336" class="st6 st3 st7">their</tspan><tspan x="40" y="336" class="st6 st3 st7 st14"> </tspan><tspan x="54" y="336" class="st6 st3 st7">comfort</tspan><tspan x="122.3" y="336" class="st6 st3 st7 st14"> </tspan><tspan x="136.3" y="336" class="st6 st3 st7">zone</tspan><tspan x="181.2" y="336" class="st6 st3 st7 st14"> </tspan><tspan x="195.3" y="336" class="st6 st3 st7">without </tspan><tspan x="0" y="360" class="st6 st3 st7">repercussions.</tspan><tspan x="0" y="408" class="st6 st3 st7">•</tspan><tspan x="15.1" y="408" class="st6 st3 st7 st15"> </tspan><tspan x="20.1" y="408" class="st6 st3 st7">Her</tspan><tspan x="53.3" y="408" class="st6 st3 st7 st15"> </tspan><tspan x="58.2" y="408" class="st6 st3 st7">job</tspan><tspan x="87.2" y="408" class="st6 st3 st7 st15"> </tspan><tspan x="92.2" y="408" class="st6 st3 st7">does</tspan><tspan x="135.4" y="408" class="st6 st3 st7 st15"> </tspan><tspan x="140.4" y="408" class="st6 st3 st7">not</tspan><tspan x="168.8" y="408" class="st6 st3 st7 st15"> </tspan><tspan x="173.8" y="408" class="st6 st3 st7">align</tspan><tspan x="218.7" y="408" class="st6 st3 st7 st15"> </tspan><tspan x="223.7" y="408" class="st6 st3 st7">with </tspan><tspan x="0" y="432" class="st6 st3 st7">her dreams and goals.</tspan></text>
	<g>
		<rect x="521.4" y="750.3" class="st5" width="262" height="238"/>
		<text transform="matrix(1 0 0 1 521.3903 763.5008)"><tspan x="0" y="0" class="st6 st3 st16">•</tspan><tspan x="12.1" y="0" class="st6 st3 st16"> </tspan><tspan x="17.3" y="0" class="st6 st3 st16">Netflix</tspan><tspan x="65.7" y="0" class="st6 st3 st16"> </tspan><tspan x="70.9" y="0" class="st6 st3 st16">series:</tspan><tspan x="116.5" y="0" class="st6 st3 st16"> </tspan><tspan x="121.8" y="0" class="st6 st3 st16">Abstract:</tspan><tspan x="186.6" y="0" class="st6 st3 st16"> </tspan><tspan x="191.8" y="0" class="st6 st3 st16">The</tspan><tspan x="217.2" y="0" class="st6 st3 st16"> </tspan><tspan x="222.4" y="0" class="st6 st3 st16">art</tspan><tspan x="242.4" y="0" class="st6 st3 st16"> </tspan><tspan x="247.6" y="0" class="st6 st3 st16">of </tspan><tspan x="0" y="19.2" class="st6 st3 st16">Design</tspan><tspan x="0" y="38.4" class="st6 st3 st16">• https://www.moma.org/</tspan><tspan x="0" y="57.6" class="st6 st3 st16 st8">•https://www.awwwards.com</tspan><tspan x="253.7" y="57.6" class="st6 st3 st16">/ </tspan><tspan x="0" y="76.8" class="st6 st3 st16">websites/art-illustration/</tspan><tspan x="0" y="96" class="st6 st3 st16">• https://www.squarespace.com/</tspan><tspan x="0" y="115.2" class="st6 st3 st16">•</tspan><tspan x="12.1" y="115.2" class="st6 st3 st16 st17"> </tspan><tspan x="25.7" y="115.2" class="st6 st3 st16">https://mymodernmet.com/mod</tspan><tspan x="258.5" y="115.2" class="st6 st3 st16">-</tspan><tspan x="0" y="134.4" class="st6 st3 st16">ern-art-history/</tspan><tspan x="0" y="153.6" class="st6 st3 st16">• https://www.instagram.com/</tspan><tspan x="0" y="172.8" class="st6 st3 st16">• http://www.casv.ca/</tspan></text>
	</g>
</g>
<g id="Description">
	<text transform="matrix(1 0 0 1 34.1369 143.8287)" class="st2 st3 st4">Description</text>
	<rect x="38.7" y="167.8" class="st5" width="416.9" height="627.7"/>
	<text transform="matrix(1 0 0 1 38.6716 184.2498)"><tspan x="0" y="0" class="st6 st3 st7">Lily</tspan><tspan x="29.7" y="0" class="st6 st3 st7 st15"> </tspan><tspan x="34.7" y="0" class="st6 st3 st7">Marshall</tspan><tspan x="114.4" y="0" class="st6 st3 st7 st15"> </tspan><tspan x="119.4" y="0" class="st6 st3 st7">is</tspan><tspan x="132.5" y="0" class="st6 st3 st7 st15"> </tspan><tspan x="137.5" y="0" class="st6 st3 st7">the</tspan><tspan x="165" y="0" class="st6 st3 st7 st15"> </tspan><tspan x="170" y="0" class="st6 st3 st7">type</tspan><tspan x="209.4" y="0" class="st6 st3 st7 st15"> </tspan><tspan x="214.4" y="0" class="st6 st3 st7">of</tspan><tspan x="232.4" y="0" class="st6 st3 st7 st15"> </tspan><tspan x="237.4" y="0" class="st6 st3 st7">artist</tspan><tspan x="280.9" y="0" class="st6 st3 st7 st15"> </tspan><tspan x="285.9" y="0" class="st6 st3 st7">that</tspan><tspan x="319.8" y="0" class="st6 st3 st7 st15"> </tspan><tspan x="324.8" y="0" class="st6 st3 st7">allows</tspan><tspan x="382.4" y="0" class="st6 st3 st7 st15"> </tspan><tspan x="387.4" y="0" class="st6 st3 st7">her </tspan><tspan x="0" y="24" class="st6 st3 st7">creativity</tspan><tspan x="81.9" y="24" class="st6 st3 st7 st13"> </tspan><tspan x="91" y="24" class="st6 st3 st7">to</tspan><tspan x="108.5" y="24" class="st6 st3 st7 st13"> </tspan><tspan x="117.7" y="24" class="st6 st3 st7">run</tspan><tspan x="147" y="24" class="st6 st3 st7 st13"> </tspan><tspan x="156.2" y="24" class="st6 st3 st7">her</tspan><tspan x="185.7" y="24" class="st6 st3 st7 st13"> </tspan><tspan x="194.8" y="24" class="st6 st3 st7">life.</tspan><tspan x="228" y="24" class="st6 st3 st7 st13"> </tspan><tspan x="237.1" y="24" class="st6 st3 st7">Whenever</tspan><tspan x="331" y="24" class="st6 st3 st7 st13"> </tspan><tspan x="340.1" y="24" class="st6 st3 st7">she</tspan><tspan x="370.3" y="24" class="st6 st3 st7 st13"> </tspan><tspan x="379.4" y="24" class="st6 st3 st7">runs </tspan><tspan x="0" y="48" class="st6 st3 st7">into</tspan><tspan x="33.4" y="48" class="st6 st3 st7"> </tspan><tspan x="39.3" y="48" class="st6 st3 st7">a</tspan><tspan x="51.3" y="48" class="st6 st3 st7"> </tspan><tspan x="57.2" y="48" class="st6 st3 st7">creativity</tspan><tspan x="139.1" y="48" class="st6 st3 st7"> </tspan><tspan x="145" y="48" class="st6 st3 st7">block,</tspan><tspan x="199.7" y="48" class="st6 st3 st7"> </tspan><tspan x="205.6" y="48" class="st6 st3 st7">not</tspan><tspan x="234" y="48" class="st6 st3 st7"> </tspan><tspan x="239.9" y="48" class="st6 st3 st7">only</tspan><tspan x="278.8" y="48" class="st6 st3 st7"> </tspan><tspan x="284.7" y="48" class="st6 st3 st7">her</tspan><tspan x="314.2" y="48" class="st6 st3 st7"> </tspan><tspan x="320.1" y="48" class="st6 st3 st7">project</tspan><tspan x="382.6" y="48" class="st6 st3 st7"> </tspan><tspan x="388.5" y="48" class="st6 st3 st7">but </tspan><tspan x="0" y="72" class="st6 st3 st7">her mind seems to take a pause. </tspan><tspan x="0" y="120" class="st6 st3 st7">From</tspan><tspan x="45.5" y="120" class="st6 st3 st7 st15"> </tspan><tspan x="50.5" y="120" class="st6 st3 st7">young</tspan><tspan x="107.2" y="120" class="st6 st3 st7 st15"> </tspan><tspan x="112.2" y="120" class="st6 st3 st7">age,</tspan><tspan x="153.4" y="120" class="st6 st3 st7 st15"> </tspan><tspan x="158.3" y="120" class="st6 st3 st7">she</tspan><tspan x="188.5" y="120" class="st6 st3 st7 st15"> </tspan><tspan x="193.4" y="120" class="st6 st3 st7">has</tspan><tspan x="224.5" y="120" class="st6 st3 st7 st15"> </tspan><tspan x="229.5" y="120" class="st6 st3 st7">always</tspan><tspan x="292.9" y="120" class="st6 st3 st7 st15"> </tspan><tspan x="297.9" y="120" class="st6 st3 st7">been</tspan><tspan x="343" y="120" class="st6 st3 st7 st15"> </tspan><tspan x="347.9" y="120" class="st6 st3 st7">interest</tspan><tspan x="412.5" y="120" class="st6 st3 st7">-</tspan><tspan x="0" y="144" class="st6 st3 st7">ed</tspan><tspan x="23.1" y="144" class="st6 st3 st7 st11"> </tspan><tspan x="33.3" y="144" class="st6 st3 st7">in</tspan><tspan x="49.2" y="144" class="st6 st3 st7 st11"> </tspan><tspan x="59.5" y="144" class="st6 st3 st7">art</tspan><tspan x="84.4" y="144" class="st6 st3 st7 st11"> </tspan><tspan x="94.7" y="144" class="st6 st3 st7">and</tspan><tspan x="129.6" y="144" class="st6 st3 st7 st11"> </tspan><tspan x="139.9" y="144" class="st6 st3 st7">have</tspan><tspan x="183.9" y="144" class="st6 st3 st7 st11"> </tspan><tspan x="194.2" y="144" class="st6 st3 st7">developed</tspan><tspan x="290.4" y="144" class="st6 st3 st7 st11"> </tspan><tspan x="300.7" y="144" class="st6 st3 st7">great</tspan><tspan x="348.6" y="144" class="st6 st3 st7 st11"> </tspan><tspan x="358.9" y="144" class="st6 st3 st7">artistic </tspan><tspan x="0" y="168" class="st6 st3 st7">talent.</tspan><tspan x="56.1" y="168" class="st6 st3 st7 st18"> </tspan><tspan x="66" y="168" class="st6 st3 st7">She</tspan><tspan x="99.7" y="168" class="st6 st3 st7 st18"> </tspan><tspan x="109.6" y="168" class="st6 st3 st7">is</tspan><tspan x="122.7" y="168" class="st6 st3 st7 st18"> </tspan><tspan x="132.6" y="168" class="st6 st3 st7">especially</tspan><tspan x="222.1" y="168" class="st6 st3 st7 st18"> </tspan><tspan x="232" y="168" class="st6 st3 st7">fond</tspan><tspan x="272.9" y="168" class="st6 st3 st7 st18"> </tspan><tspan x="282.8" y="168" class="st6 st3 st7">of</tspan><tspan x="300.8" y="168" class="st6 st3 st7 st18"> </tspan><tspan x="310.7" y="168" class="st6 st3 st7">graphic</tspan><tspan x="379.6" y="168" class="st6 st3 st7 st18"> </tspan><tspan x="389.5" y="168" class="st6 st3 st7">de</tspan><tspan x="412.5" y="168" class="st6 st3 st7">-</tspan><tspan x="0" y="192" class="st6 st3 st7">signing</tspan><tspan x="64" y="192" class="st6 st3 st7 st18"> </tspan><tspan x="73.8" y="192" class="st6 st3 st7">which</tspan><tspan x="125.8" y="192" class="st6 st3 st7 st18"> </tspan><tspan x="135.6" y="192" class="st6 st3 st7">led</tspan><tspan x="163.7" y="192" class="st6 st3 st7 st18"> </tspan><tspan x="173.5" y="192" class="st6 st3 st7">her</tspan><tspan x="203" y="192" class="st6 st3 st7 st18"> </tspan><tspan x="212.9" y="192" class="st6 st3 st7">to</tspan><tspan x="230.4" y="192" class="st6 st3 st7 st18"> </tspan><tspan x="240.3" y="192" class="st6 st3 st7">pursue</tspan><tspan x="300.7" y="192" class="st6 st3 st7 st18"> </tspan><tspan x="310.6" y="192" class="st6 st3 st7">a</tspan><tspan x="322.6" y="192" class="st6 st3 st7 st18"> </tspan><tspan x="332.5" y="192" class="st6 st3 st7">career</tspan><tspan x="391.1" y="192" class="st6 st3 st7 st18"> </tspan><tspan x="401" y="192" class="st6 st3 st7">in </tspan><tspan x="0" y="216" class="st6 st3 st7">technology arts.</tspan><tspan x="0" y="264" class="st6 st3 st7">Though</tspan><tspan x="66.5" y="264" class="st6 st3 st7"> </tspan><tspan x="72.4" y="264" class="st6 st3 st7">over</tspan><tspan x="113" y="264" class="st6 st3 st7"> </tspan><tspan x="118.9" y="264" class="st6 st3 st7">the</tspan><tspan x="146.4" y="264" class="st6 st3 st7"> </tspan><tspan x="152.3" y="264" class="st6 st3 st7">years,</tspan><tspan x="208" y="264" class="st6 st3 st7"> </tspan><tspan x="213.9" y="264" class="st6 st3 st7">she</tspan><tspan x="244" y="264" class="st6 st3 st7"> </tspan><tspan x="249.9" y="264" class="st6 st3 st7">tends</tspan><tspan x="297.5" y="264" class="st6 st3 st7"> </tspan><tspan x="303.4" y="264" class="st6 st3 st7">to</tspan><tspan x="320.9" y="264" class="st6 st3 st7"> </tspan><tspan x="326.8" y="264" class="st6 st3 st7">lack</tspan><tspan x="363.3" y="264" class="st6 st3 st7"> </tspan><tspan x="369.2" y="264" class="st6 st3 st7">initia</tspan><tspan x="412.5" y="264" class="st6 st3 st7">-</tspan><tspan x="0" y="288" class="st6 st3 st7">tive</tspan><tspan x="31.6" y="288" class="st6 st3 st7"> </tspan><tspan x="36.9" y="288" class="st6 st3 st7">and</tspan><tspan x="71.9" y="288" class="st6 st3 st7"> </tspan><tspan x="77.3" y="288" class="st6 st3 st7">prefers</tspan><tspan x="140.4" y="288" class="st6 st3 st7"> </tspan><tspan x="145.8" y="288" class="st6 st3 st7">to</tspan><tspan x="163.3" y="288" class="st6 st3 st7"> </tspan><tspan x="168.6" y="288" class="st6 st3 st7">let</tspan><tspan x="190.1" y="288" class="st6 st3 st7"> </tspan><tspan x="195.5" y="288" class="st6 st3 st7">luck</tspan><tspan x="230.9" y="288" class="st6 st3 st7"> </tspan><tspan x="236.3" y="288" class="st6 st3 st7">and</tspan><tspan x="271.2" y="288" class="st6 st3 st7"> </tspan><tspan x="276.6" y="288" class="st6 st3 st7">opportunities</tspan><tspan x="394" y="288" class="st6 st3 st7"> </tspan><tspan x="399.4" y="288" class="st6 st3 st7">to </tspan><tspan x="0" y="312" class="st6 st3 st7">approach</tspan><tspan x="88" y="312" class="st6 st3 st7"> </tspan><tspan x="94.9" y="312" class="st6 st3 st7">her.</tspan><tspan x="130.6" y="312" class="st6 st3 st7"> </tspan><tspan x="137.6" y="312" class="st6 st3 st7">This</tspan><tspan x="171.3" y="312" class="st6 st3 st7"> </tspan><tspan x="178.2" y="312" class="st6 st3 st7">has</tspan><tspan x="209.3" y="312" class="st6 st3 st7"> </tspan><tspan x="216.2" y="312" class="st6 st3 st7">been</tspan><tspan x="261.3" y="312" class="st6 st3 st7"> </tspan><tspan x="268.3" y="312" class="st6 st3 st7">a</tspan><tspan x="280.3" y="312" class="st6 st3 st7"> </tspan><tspan x="287.2" y="312" class="st6 st3 st7">growing</tspan><tspan x="362.1" y="312" class="st6 st3 st7"> </tspan><tspan x="369.1" y="312" class="st6 st3 st7">prob</tspan><tspan x="412.5" y="312" class="st6 st3 st7">-</tspan><tspan x="0" y="336" class="st6 st3 st7">lem</tspan><tspan x="31.9" y="336" class="st6 st3 st7"> </tspan><tspan x="38" y="336" class="st6 st3 st7">nearing</tspan><tspan x="107.4" y="336" class="st6 st3 st7"> </tspan><tspan x="113.6" y="336" class="st6 st3 st7">her</tspan><tspan x="143.1" y="336" class="st6 st3 st7"> </tspan><tspan x="149.2" y="336" class="st6 st3 st7">graduation</tspan><tspan x="249" y="336" class="st6 st3 st7"> </tspan><tspan x="255.1" y="336" class="st6 st3 st7">from</tspan><tspan x="296.4" y="336" class="st6 st3 st7"> </tspan><tspan x="302.5" y="336" class="st6 st3 st7">her</tspan><tspan x="332" y="336" class="st6 st3 st7"> </tspan><tspan x="338.1" y="336" class="st6 st3 st7">program </tspan><tspan x="0" y="360" class="st6 st3 st7">where she hesitates to apply for any position.</tspan><tspan x="0" y="408" class="st6 st3 st7">She</tspan><tspan x="33.7" y="408" class="st6 st3 st7 st9"> </tspan><tspan x="46.6" y="408" class="st6 st3 st7">enjoys</tspan><tspan x="104.7" y="408" class="st6 st3 st7 st9"> </tspan><tspan x="117.6" y="408" class="st6 st3 st7">socializing</tspan><tspan x="213" y="408" class="st6 st3 st7 st9"> </tspan><tspan x="225.9" y="408" class="st6 st3 st7">and</tspan><tspan x="260.9" y="408" class="st6 st3 st7 st9"> </tspan><tspan x="273.8" y="408" class="st6 st3 st7">exploring</tspan><tspan x="360.5" y="408" class="st6 st3 st7 st9"> </tspan><tspan x="373.4" y="408" class="st6 st3 st7">local </tspan><tspan x="0" y="432" class="st6 st3 st7">areas</tspan><tspan x="50.6" y="432" class="st6 st3 st7 st13"> </tspan><tspan x="58.8" y="432" class="st6 st3 st7">yet</tspan><tspan x="86.2" y="432" class="st6 st3 st7 st13"> </tspan><tspan x="94.4" y="432" class="st6 st3 st7">feels</tspan><tspan x="135.6" y="432" class="st6 st3 st7 st13"> </tspan><tspan x="143.8" y="432" class="st6 st3 st7">as</tspan><tspan x="163.9" y="432" class="st6 st3 st7 st13"> </tspan><tspan x="172.1" y="432" class="st6 st3 st7">if</tspan><tspan x="183" y="432" class="st6 st3 st7 st13"> </tspan><tspan x="191.2" y="432" class="st6 st3 st7">her</tspan><tspan x="220.7" y="432" class="st6 st3 st7 st13"> </tspan><tspan x="228.9" y="432" class="st6 st3 st7">activities</tspan><tspan x="305.6" y="432" class="st6 st3 st7 st13"> </tspan><tspan x="313.8" y="432" class="st6 st3 st7">are</tspan><tspan x="344.3" y="432" class="st6 st3 st7 st13"> </tspan><tspan x="352.5" y="432" class="st6 st3 st7">lacking </tspan><tspan x="0" y="456" class="st6 st3 st7">and often leaving her unsatisfied with her life. </tspan><tspan x="0" y="504" class="st6 st3 st7">Lily</tspan><tspan x="29.7" y="504" class="st6 st3 st7 st9"> </tspan><tspan x="42.2" y="504" class="st6 st3 st7">is</tspan><tspan x="55.3" y="504" class="st6 st3 st7 st9"> </tspan><tspan x="67.8" y="504" class="st6 st3 st7">constantly</tspan><tspan x="158.1" y="504" class="st6 st3 st7 st9"> </tspan><tspan x="170.6" y="504" class="st6 st3 st7">looking</tspan><tspan x="237.5" y="504" class="st6 st3 st7 st9"> </tspan><tspan x="250" y="504" class="st6 st3 st7">for</tspan><tspan x="275.5" y="504" class="st6 st3 st7 st9"> </tspan><tspan x="288" y="504" class="st6 st3 st7">conversations, </tspan><tspan x="0" y="528" class="st6 st3 st7">movements</tspan><tspan x="100.4" y="528" class="st6 st3 st7 st8"> </tspan><tspan x="107.9" y="528" class="st6 st3 st7">and</tspan><tspan x="142.8" y="528" class="st6 st3 st7 st8"> </tspan><tspan x="150.3" y="528" class="st6 st3 st7">art</tspan><tspan x="175.3" y="528" class="st6 st3 st7 st8"> </tspan><tspan x="182.8" y="528" class="st6 st3 st7">installations</tspan><tspan x="287.8" y="528" class="st6 st3 st7 st8"> </tspan><tspan x="295.3" y="528" class="st6 st3 st7">to</tspan><tspan x="312.8" y="528" class="st6 st3 st7 st8"> </tspan><tspan x="320.3" y="528" class="st6 st3 st7">inspire</tspan><tspan x="379.9" y="528" class="st6 st3 st7 st8"> </tspan><tspan x="387.4" y="528" class="st6 st3 st7">her </tspan><tspan x="0" y="552" class="st6 st3 st7">and</tspan><tspan x="35" y="552" class="st6 st3 st7 st8"> </tspan><tspan x="42.5" y="552" class="st6 st3 st7">give</tspan><tspan x="80.6" y="552" class="st6 st3 st7 st8"> </tspan><tspan x="88.2" y="552" class="st6 st3 st7">her</tspan><tspan x="117.7" y="552" class="st6 st3 st7 st8"> </tspan><tspan x="125.3" y="552" class="st6 st3 st7">the</tspan><tspan x="152.8" y="552" class="st6 st3 st7 st8"> </tspan><tspan x="160.4" y="552" class="st6 st3 st7">push</tspan><tspan x="202.3" y="552" class="st6 st3 st7 st8"> </tspan><tspan x="209.9" y="552" class="st6 st3 st7">she</tspan><tspan x="240.1" y="552" class="st6 st3 st7 st8"> </tspan><tspan x="247.7" y="552" class="st6 st3 st7">needs</tspan><tspan x="300.9" y="552" class="st6 st3 st7 st8"> </tspan><tspan x="308.5" y="552" class="st6 st3 st7">to</tspan><tspan x="325.9" y="552" class="st6 st3 st7 st8"> </tspan><tspan x="333.5" y="552" class="st6 st3 st7">bring</tspan><tspan x="380.9" y="552" class="st6 st3 st7 st8"> </tspan><tspan x="388.5" y="552" class="st6 st3 st7">out </tspan><tspan x="0" y="576" class="st6 st3 st7">the potential in her art.</tspan></text>
</g>
<g id="References">
	<text transform="matrix(1 0 0 1 525.6862 724.1104)" class="st2 st3 st4">References</text>
</g>
</svg>
