<?xml version="1.0" encoding="utf-8"?>
<!-- Generator: Adobe Illustrator 23.0.3, SVG Export Plug-In . SVG Version: 6.00 Build 0)  -->
<svg version="1.1" xmlns="http://www.w3.org/2000/svg" xmlns:xlink="http://www.w3.org/1999/xlink" x="0px" y="0px"
	 viewBox="0 0 841.9 1026.7" style="enable-background:new 0 0 841.9 1026.7;" xml:space="preserve">
<style type="text/css">
	.st0{fill:#F9F8FB;}
	.st1{fill:#EADCBC;}
	.st2{fill:#4D4D4D;}
	.st3{font-family:'Futura-Medium';}
	.st4{font-size:44.0629px;}
	.st5{font-size:20px;}
	.st6{fill:#1A1A1A;}
	.st7{fill:#333333;}
	.st8{font-family:'ProximaNova-Regular';}
	.st9{font-size:25px;}
	.st10{letter-spacing:29;}
	.st11{font-size:14px;}
	.st12{font-size:34px;}
	.st13{fill:none;}
	.st14{letter-spacing:-1;}
	.st15{letter-spacing:2;}
	.st16{letter-spacing:11;}
	.st17{letter-spacing:6;}
</style>
<g id="_x31_._Block_Elements">
	<rect x="31.1" y="91" class="st0" width="776.5" height="356.9"/>
	
		<image style="overflow:visible;" width="1500" height="1792" xlink:href="../../../../P1/Midterm/Homework/Persona/personachar.jpg"  transform="matrix(0.1992 0 0 0.1992 31.1396 91.0005)">
	</image>
	<rect x="497.9" y="501.9" class="st0" width="309.8" height="524.8"/>
	<rect class="st1" width="841.9" height="64.7"/>
</g>
<g id="Profile">
	<text transform="matrix(0.912 0 0 1 576.2999 50.9227)" class="st2 st3 st4">Lily Marshall</text>
	<text transform="matrix(1 0 0 1 354.3 134.7)"><tspan x="0" y="0" class="st2 st3 st5">Age: </tspan><tspan x="50.2" y="0" class="st6 st3 st5">21</tspan><tspan x="0" y="24" class="st2 st3 st5">Status: </tspan><tspan x="65.9" y="24" class="st3 st5">In a relationship</tspan><tspan x="0" y="48" class="st2 st3 st5">Occupation: </tspan><tspan x="117.6" y="48" class="st6 st3 st5">Part-time Barista</tspan><tspan x="0" y="72" class="st2 st3 st5">Company: </tspan><tspan x="100" y="72" class="st6 st3 st5">Blenz Coffee</tspan><tspan x="0" y="96" class="st2 st3 st5">Education: </tspan><tspan x="101.5" y="96" class="st6 st3 st5">Interior Design at VCAD</tspan><tspan x="0" y="120" class="st2 st3 st5">Location: </tspan><tspan x="88.2" y="120" class="st6 st3 st5">Dormitory Vancouver, BC</tspan><tspan x="0" y="144" class="st2 st3 st5">Tech Environment: </tspan><tspan x="170.8" y="144" class="st6 st3 st5">iPhone &amp; MacOS for design.</tspan></text>
	<text transform="matrix(1 0 0 1 366.3 337.7001)"><tspan x="0" y="0" class="st7 st8 st9">“Life doesn’t imitate art, </tspan><tspan x="0" y="30" class="st7 st8 st9 st10">				</tspan><tspan x="144" y="30" class="st7 st8 st9">it imitate bad television”</tspan><tspan x="0" y="60" class="st7 st8 st9 st10">									</tspan><tspan x="324" y="60" class="st7 st8 st11">-Woody Allen</tspan></text>
</g>
<g id="Goals">
	<text transform="matrix(1 0 0 1 523.3849 552.2794)" class="st2 st3 st12">Goals</text>
	<rect x="518.9" y="589.8" class="st13" width="270" height="429"/>
	<text transform="matrix(1 0 0 1 518.8849 606.2715)"><tspan x="0" y="0" class="st7 st3 st5">•</tspan><tspan x="15.1" y="0" class="st7 st3 st5 st14"> </tspan><tspan x="20.1" y="0" class="st7 st3 st5">Graduate</tspan><tspan x="107.8" y="0" class="st7 st3 st5 st14"> </tspan><tspan x="112.9" y="0" class="st7 st3 st5">from</tspan><tspan x="154.1" y="0" class="st7 st3 st5 st14"> </tspan><tspan x="159.1" y="0" class="st7 st3 st5">her</tspan><tspan x="188.7" y="0" class="st7 st3 st5 st14"> </tspan><tspan x="193.7" y="0" class="st7 st3 st5">Diploma </tspan><tspan x="0" y="24" class="st7 st3 st5">program</tspan><tspan x="78.8" y="24" class="st7 st3 st5"> </tspan><tspan x="84.7" y="24" class="st7 st3 st5">and</tspan><tspan x="119.6" y="24" class="st7 st3 st5"> </tspan><tspan x="125.6" y="24" class="st7 st3 st5">achieve</tspan><tspan x="195.2" y="24" class="st7 st3 st5"> </tspan><tspan x="201.2" y="24" class="st7 st3 st5">a</tspan><tspan x="213.2" y="24" class="st7 st3 st5"> </tspan><tspan x="219.1" y="24" class="st7 st3 st5">job</tspan><tspan x="248.1" y="24" class="st7 st3 st5"> </tspan><tspan x="254" y="24" class="st7 st3 st5">in </tspan><tspan x="0" y="48" class="st7 st3 st5">interior or graphic designing.</tspan><tspan x="0" y="96" class="st7 st3 st5">•</tspan><tspan x="15.1" y="96" class="st7 st3 st5"> </tspan><tspan x="21.7" y="96" class="st7 st3 st5">Move</tspan><tspan x="74" y="96" class="st7 st3 st5"> </tspan><tspan x="80.6" y="96" class="st7 st3 st5">in</tspan><tspan x="96.5" y="96" class="st7 st3 st5"> </tspan><tspan x="103.1" y="96" class="st7 st3 st5">with</tspan><tspan x="140" y="96" class="st7 st3 st5"> </tspan><tspan x="146.6" y="96" class="st7 st3 st5">her</tspan><tspan x="176.1" y="96" class="st7 st3 st5"> </tspan><tspan x="182.7" y="96" class="st7 st3 st5">boyfriend </tspan><tspan x="0" y="120" class="st7 st3 st5">within</tspan><tspan x="52.8" y="120" class="st7 st3 st5 st15"> </tspan><tspan x="61.7" y="120" class="st7 st3 st5">six</tspan><tspan x="86" y="120" class="st7 st3 st5 st15"> </tspan><tspan x="94.8" y="120" class="st7 st3 st5">months</tspan><tspan x="158.2" y="120" class="st7 st3 st5 st15"> </tspan><tspan x="167" y="120" class="st7 st3 st5">of</tspan><tspan x="185" y="120" class="st7 st3 st5 st15"> </tspan><tspan x="193.8" y="120" class="st7 st3 st5">graduat</tspan><tspan x="265.6" y="120" class="st7 st3 st5">-</tspan><tspan x="0" y="144" class="st7 st3 st5">ing.</tspan><tspan x="0" y="192" class="st7 st3 st5">•</tspan><tspan x="15.1" y="192" class="st7 st3 st5 st16"> </tspan><tspan x="32.9" y="192" class="st7 st3 st5">Be</tspan><tspan x="55.8" y="192" class="st7 st3 st5 st16"> </tspan><tspan x="73.7" y="192" class="st7 st3 st5">able</tspan><tspan x="113.7" y="192" class="st7 st3 st5 st16"> </tspan><tspan x="131.6" y="192" class="st7 st3 st5">to</tspan><tspan x="149.1" y="192" class="st7 st3 st5 st16"> </tspan><tspan x="166.9" y="192" class="st7 st3 st5">successfully </tspan><tspan x="0" y="216" class="st7 st3 st5">market</tspan><tspan x="61.8" y="216" class="st7 st3 st5 st17"> </tspan><tspan x="74.9" y="216" class="st7 st3 st5">herself</tspan><tspan x="134.5" y="216" class="st7 st3 st5 st17"> </tspan><tspan x="147.7" y="216" class="st7 st3 st5">as</tspan><tspan x="167.8" y="216" class="st7 st3 st5 st17"> </tspan><tspan x="180.9" y="216" class="st7 st3 st5">an</tspan><tspan x="203.9" y="216" class="st7 st3 st5 st17"> </tspan><tspan x="217" y="216" class="st7 st3 st5">estab</tspan><tspan x="265.6" y="216" class="st7 st3 st5">-</tspan><tspan x="0" y="240" class="st7 st3 st5">lished freelance designer.</tspan><tspan x="0" y="288" class="st7 st3 st5">•</tspan><tspan x="15.1" y="288" class="st7 st3 st5"> </tspan><tspan x="20.7" y="288" class="st7 st3 st5">Take</tspan><tspan x="63.3" y="288" class="st7 st3 st5"> </tspan><tspan x="68.9" y="288" class="st7 st3 st5">the</tspan><tspan x="96.4" y="288" class="st7 st3 st5"> </tspan><tspan x="102" y="288" class="st7 st3 st5">necessary</tspan><tspan x="191.2" y="288" class="st7 st3 st5"> </tspan><tspan x="196.8" y="288" class="st7 st3 st5">steps</tspan><tspan x="241.5" y="288" class="st7 st3 st5"> </tspan><tspan x="247.1" y="288" class="st7 st3 st5">re</tspan><tspan x="265.6" y="288" class="st7 st3 st5">-</tspan><tspan x="0" y="312" class="st7 st3 st5">quired</tspan><tspan x="58.4" y="312" class="st7 st3 st5 st17"> </tspan><tspan x="71.3" y="312" class="st7 st3 st5">to</tspan><tspan x="88.8" y="312" class="st7 st3 st5 st17"> </tspan><tspan x="101.8" y="312" class="st7 st3 st5">start</tspan><tspan x="140.3" y="312" class="st7 st3 st5 st17"> </tspan><tspan x="153.2" y="312" class="st7 st3 st5">up</tspan><tspan x="176.1" y="312" class="st7 st3 st5 st17"> </tspan><tspan x="189.1" y="312" class="st7 st3 st5">her</tspan><tspan x="218.6" y="312" class="st7 st3 st5 st17"> </tspan><tspan x="231.5" y="312" class="st7 st3 st5">own </tspan><tspan x="0" y="336" class="st7 st3 st5">brand-designing.</tspan></text>
</g>
<g id="Motivations">
	<rect x="34.3" y="590.7" class="st13" width="424.5" height="409.5"/>
	<text transform="matrix(1 0 0 1 34.2824 607.165)"><tspan x="0" y="0" class="st7 st3 st5">•</tspan><tspan x="15.1" y="0" class="st7 st3 st5"> </tspan><tspan x="22.2" y="0" class="st7 st3 st5">Lily</tspan><tspan x="51.9" y="0" class="st7 st3 st5"> </tspan><tspan x="59" y="0" class="st7 st3 st5">feels</tspan><tspan x="100.1" y="0" class="st7 st3 st5"> </tspan><tspan x="107.2" y="0" class="st7 st3 st5">she</tspan><tspan x="137.4" y="0" class="st7 st3 st5"> </tspan><tspan x="144.5" y="0" class="st7 st3 st5">is</tspan><tspan x="157.6" y="0" class="st7 st3 st5"> </tspan><tspan x="164.7" y="0" class="st7 st3 st5">lacking</tspan><tspan x="229.1" y="0" class="st7 st3 st5"> </tspan><tspan x="236.2" y="0" class="st7 st3 st5">motivation</tspan><tspan x="329.9" y="0" class="st7 st3 st5"> </tspan><tspan x="337" y="0" class="st7 st3 st5">and</tspan><tspan x="372" y="0" class="st7 st3 st5"> </tspan><tspan x="379.1" y="0" class="st7 st3 st5">inspi</tspan><tspan x="420.1" y="0" class="st7 st3 st5">-</tspan><tspan x="0" y="24" class="st7 st3 st5">ration to succeed in her studies.</tspan><tspan x="0" y="72" class="st7 st3 st5">•</tspan><tspan x="15.1" y="72" class="st7 st3 st5"> </tspan><tspan x="20.7" y="72" class="st7 st3 st5">She</tspan><tspan x="54.4" y="72" class="st7 st3 st5"> </tspan><tspan x="60.1" y="72" class="st7 st3 st5">often</tspan><tspan x="105.5" y="72" class="st7 st3 st5"> </tspan><tspan x="111.2" y="72" class="st7 st3 st5">needs</tspan><tspan x="164.4" y="72" class="st7 st3 st5"> </tspan><tspan x="170.1" y="72" class="st7 st3 st5">reminders</tspan><tspan x="259" y="72" class="st7 st3 st5"> </tspan><tspan x="264.7" y="72" class="st7 st3 st5">that</tspan><tspan x="298.6" y="72" class="st7 st3 st5"> </tspan><tspan x="304.2" y="72" class="st7 st3 st5">she</tspan><tspan x="334.4" y="72" class="st7 st3 st5"> </tspan><tspan x="340" y="72" class="st7 st3 st5">is</tspan><tspan x="353.1" y="72" class="st7 st3 st5"> </tspan><tspan x="358.8" y="72" class="st7 st3 st5">making </tspan><tspan x="0" y="96" class="st7 st3 st5">the right decisions.</tspan><tspan x="0" y="144" class="st7 st3 st5">•</tspan><tspan x="15.1" y="144" class="st7 st3 st5"> </tspan><tspan x="21.8" y="144" class="st7 st3 st5">Takes</tspan><tspan x="72.5" y="144" class="st7 st3 st5"> </tspan><tspan x="79.2" y="144" class="st7 st3 st5">each</tspan><tspan x="122.8" y="144" class="st7 st3 st5"> </tspan><tspan x="129.5" y="144" class="st7 st3 st5">day</tspan><tspan x="164.3" y="144" class="st7 st3 st5"> </tspan><tspan x="171" y="144" class="st7 st3 st5">as</tspan><tspan x="191.1" y="144" class="st7 st3 st5"> </tspan><tspan x="197.8" y="144" class="st7 st3 st5">it</tspan><tspan x="208.3" y="144" class="st7 st3 st5"> </tspan><tspan x="215" y="144" class="st7 st3 st5">is</tspan><tspan x="228.1" y="144" class="st7 st3 st5"> </tspan><tspan x="234.7" y="144" class="st7 st3 st5">and</tspan><tspan x="269.7" y="144" class="st7 st3 st5"> </tspan><tspan x="276.4" y="144" class="st7 st3 st5">tries</tspan><tspan x="313.5" y="144" class="st7 st3 st5"> </tspan><tspan x="320.2" y="144" class="st7 st3 st5">not</tspan><tspan x="348.6" y="144" class="st7 st3 st5"> </tspan><tspan x="355.3" y="144" class="st7 st3 st5">to</tspan><tspan x="372.8" y="144" class="st7 st3 st5"> </tspan><tspan x="379.5" y="144" class="st7 st3 st5">over</tspan><tspan x="420.1" y="144" class="st7 st3 st5">-</tspan><tspan x="0" y="168" class="st7 st3 st5">complicate situations.</tspan><tspan x="0" y="216" class="st7 st3 st5">•</tspan><tspan x="15.1" y="216" class="st7 st3 st5"> </tspan><tspan x="20.4" y="216" class="st7 st3 st5">Open</tspan><tspan x="72.3" y="216" class="st7 st3 st5"> </tspan><tspan x="77.6" y="216" class="st7 st3 st5">to</tspan><tspan x="95.1" y="216" class="st7 st3 st5"> </tspan><tspan x="100.4" y="216" class="st7 st3 st5">try</tspan><tspan x="124.2" y="216" class="st7 st3 st5"> </tspan><tspan x="129.5" y="216" class="st7 st3 st5">new</tspan><tspan x="167" y="216" class="st7 st3 st5"> </tspan><tspan x="172.3" y="216" class="st7 st3 st5">things</tspan><tspan x="224.8" y="216" class="st7 st3 st5"> </tspan><tspan x="230.1" y="216" class="st7 st3 st5">and</tspan><tspan x="265" y="216" class="st7 st3 st5"> </tspan><tspan x="270.3" y="216" class="st7 st3 st5">take</tspan><tspan x="308.8" y="216" class="st7 st3 st5"> </tspan><tspan x="314.1" y="216" class="st7 st3 st5">up</tspan><tspan x="337" y="216" class="st7 st3 st5"> </tspan><tspan x="342.3" y="216" class="st7 st3 st5">new</tspan><tspan x="379.8" y="216" class="st7 st3 st5"> </tspan><tspan x="385.1" y="216" class="st7 st3 st5">hob</tspan><tspan x="420.1" y="216" class="st7 st3 st5">-</tspan><tspan x="0" y="240" class="st7 st3 st5">bies.</tspan><tspan x="0" y="288" class="st7 st3 st5">• Jack of all things, master of none.</tspan></text>
	<text transform="matrix(1 0 0 1 31.1396 552.2794)" class="st2 st3 st12">Main Points</text>
</g>
<g id="_x32_._Block_Elements">
</g>
<g id="Frustrations">
</g>
<g id="Description">
</g>
<g id="References">
</g>
</svg>
