<?xml version="1.0" encoding="utf-8"?>
<!-- Generator: Adobe Illustrator 23.0.1, SVG Export Plug-In . SVG Version: 6.00 Build 0)  -->
<svg version="1.1" id="Layer_1" xmlns="http://www.w3.org/2000/svg" xmlns:xlink="http://www.w3.org/1999/xlink" x="0px" y="0px"
	 viewBox="0 0 97.9 91.8" style="enable-background:new 0 0 97.9 91.8;" xml:space="preserve">
<style type="text/css">
	.st0{fill:#54433E;}
	.st1{opacity:0.35;fill:#826D5D;}
	.st2{fill:#BCA388;}
	.st3{fill:#66544E;}
</style>
<g>
	<g>
		<path class="st0" d="M4.6,90.7c-1.4-0.8-2.6-1.9-3.4-3.2C0.4,86.1,0,84.5,0,82.8c0-1.7,0.4-3.3,1.2-4.7c0.8-1.4,2-2.4,3.4-3.2
			c1.4-0.8,3.1-1.2,4.9-1.2c1.6,0,3.1,0.3,4.4,1c1.3,0.6,2.3,1.6,3,2.8l-2.5,1.6c-0.6-0.8-1.3-1.5-2.1-1.9c-0.8-0.4-1.8-0.6-2.8-0.6
			c-1.2,0-2.3,0.3-3.2,0.8s-1.7,1.2-2.2,2.2s-0.8,2-0.8,3.3c0,1.2,0.3,2.3,0.8,3.3c0.5,0.9,1.3,1.7,2.2,2.2c0.9,0.5,2,0.8,3.2,0.8
			c1,0,2-0.2,2.8-0.6c0.8-0.4,1.6-1.1,2.1-1.9L17,88c-0.7,1.2-1.7,2.2-3,2.8c-1.3,0.7-2.8,1-4.4,1C7.7,91.8,6.1,91.4,4.6,90.7z"/>
		<path class="st0" d="M23.9,90.7c-1.4-0.8-2.6-1.9-3.4-3.2c-0.8-1.4-1.2-2.9-1.2-4.7c0-1.7,0.4-3.3,1.2-4.7
			c0.8-1.4,1.9-2.4,3.4-3.2c1.4-0.8,3.1-1.2,4.9-1.2c1.8,0,3.4,0.4,4.8,1.2c1.4,0.8,2.5,1.8,3.4,3.2c0.8,1.4,1.2,2.9,1.2,4.7
			c0,1.7-0.4,3.3-1.2,4.7c-0.8,1.4-1.9,2.4-3.4,3.2c-1.4,0.8-3,1.2-4.8,1.2C26.9,91.8,25.3,91.4,23.9,90.7z M31.9,88.2
			c0.9-0.5,1.6-1.3,2.2-2.2c0.5-0.9,0.8-2,0.8-3.3c0-1.2-0.3-2.3-0.8-3.3c-0.5-0.9-1.2-1.7-2.2-2.2c-0.9-0.5-2-0.8-3.1-0.8
			c-1.2,0-2.2,0.3-3.1,0.8c-0.9,0.5-1.7,1.2-2.2,2.2c-0.5,0.9-0.8,2-0.8,3.3c0,1.2,0.3,2.3,0.8,3.3c0.5,0.9,1.3,1.7,2.2,2.2
			c0.9,0.5,2,0.8,3.1,0.8C29.9,89,30.9,88.8,31.9,88.2z"/>
		<path class="st0" d="M45.6,90.7c-1.4-0.8-2.6-1.9-3.4-3.2c-0.8-1.4-1.2-2.9-1.2-4.7c0-1.7,0.4-3.3,1.2-4.7
			c0.8-1.4,1.9-2.4,3.4-3.2s3.1-1.2,4.9-1.2s3.4,0.4,4.8,1.2c1.4,0.8,2.5,1.8,3.4,3.2c0.8,1.4,1.2,2.9,1.2,4.7
			c0,1.7-0.4,3.3-1.2,4.7c-0.8,1.4-1.9,2.4-3.4,3.2c-1.4,0.8-3,1.2-4.8,1.2S47,91.4,45.6,90.7z M53.6,88.2c0.9-0.5,1.6-1.3,2.2-2.2
			c0.5-0.9,0.8-2,0.8-3.3c0-1.2-0.3-2.3-0.8-3.3c-0.5-0.9-1.2-1.7-2.2-2.2c-0.9-0.5-2-0.8-3.1-0.8c-1.2,0-2.2,0.3-3.1,0.8
			c-0.9,0.5-1.7,1.2-2.2,2.2c-0.5,0.9-0.8,2-0.8,3.3c0,1.2,0.3,2.3,0.8,3.3c0.5,0.9,1.3,1.7,2.2,2.2c0.9,0.5,2,0.8,3.1,0.8
			C51.6,89,52.7,88.8,53.6,88.2z"/>
		<path class="st0" d="M71.5,83.4l-3.8,3.4v4.8h-3.3V66.8h3.3v15.9l9.9-8.8h4l-7.6,7.3l8.4,10.4h-4L71.5,83.4z"/>
		<path class="st0" d="M85.3,69.9c-0.4-0.4-0.6-0.9-0.6-1.5c0-0.6,0.2-1.1,0.6-1.5c0.4-0.4,1-0.6,1.6-0.6c0.6,0,1.2,0.2,1.6,0.6
			c0.4,0.4,0.6,0.9,0.6,1.5c0,0.6-0.2,1.1-0.6,1.5c-0.4,0.4-1,0.6-1.6,0.6C86.3,70.5,85.7,70.3,85.3,69.9z M85.3,73.9h3.3v17.7h-3.3
			V73.9z"/>
		<path class="st0" d="M94,91.2c-0.5-0.4-0.7-1-0.7-1.7c0-0.6,0.2-1.2,0.7-1.6c0.5-0.4,1-0.7,1.6-0.7c0.6,0,1.2,0.2,1.6,0.6
			c0.4,0.4,0.7,1,0.7,1.6s-0.2,1.2-0.7,1.7c-0.4,0.4-1,0.7-1.6,0.7C95,91.8,94.4,91.6,94,91.2z"/>
	</g>
	<g>
		<path class="st1" d="M69,28.4c-5.6-0.5-18.2-10.6-3.8-22.1C60,2.4,52,0,45,0C27.9,0,14.1,13.8,14.1,30.9c0,16.3,12.9,30.3,30,30.8
			l-1.5-16.8H40c-1.8,0-3.2-1.3-3.3-3.1c-0.5-7-1-23,6.3-20.5c12.7,4.4,10.6,20.2,10.6,20.2c0,1.8-1.5,3.3-3.3,3.3h-3v16.9
			c0.4,0,1.2,0,1.5,0c8.9-1,16.2-4.4,21.2-11.3C61,47,57.4,34,69,28.4z"/>
		<path class="st2" d="M69,28.4c-3.2,0-12.6-2.5-11.9-12.5c0.3-3.9,5.2-7.4,8-9.5C60,2.4,53.5,0,46.5,0C29.4,0,15.6,13.8,15.6,30.9
			c0,16.3,12.6,29.5,28.5,30.8V44.8h-2.6c-1.8,0-3.2-1.3-3.3-3.1c-0.5-7-1-22.8,6.3-20.5c12.5,4,10.6,20.2,10.6,20.2
			c0,1.8-1.5,3.3-3.3,3.3h-3v16.9c9.4-0.7,16-4.1,21.2-11.3C58.3,47.3,57.4,32.3,69,28.4z"/>
		<path class="st3" d="M17.2,21c8.4-1.2,11.4,22.6,1.1,22.6C13.8,35.3,16.1,23.2,17.2,21z"/>
		<path class="st3" d="M55.6,60.3c0.9-8.9,4.9-12.6,14.3-10C66.4,57,55.6,60.3,55.6,60.3z"/>
		<path class="st3" d="M50.2,0.2c-0.8,2.2-2.3,11.6,7.9,12.8c2.5-3.5,5.1-5.2,7.1-6.7C61.1,2.9,53.6,0.5,50.2,0.2z"/>
		<path class="st3" d="M33.6,58.9c0.6-3.9,5.9-7.1,10.5-5.9v8.6C39.7,61.8,33.6,58.9,33.6,58.9z"/>
		<path class="st3" d="M38.2,29c-6.9,1.7-6.8-12.8,0.2-15.3c6.7-2.4,12.9,5.4,10.1,9.5C46.6,22.4,39.6,16.2,38.2,29z"/>
	</g>
</g>
</svg>
