<?xml version="1.0" encoding="utf-8"?>
<!-- Generator: Adobe Illustrator 23.0.3, SVG Export Plug-In . SVG Version: 6.00 Build 0)  -->
<svg version="1.1" id="Layer_1" xmlns="http://www.w3.org/2000/svg" xmlns:xlink="http://www.w3.org/1999/xlink" x="0px" y="0px"
	 viewBox="0 0 511.04 516.09" style="enable-background:new 0 0 511.04 516.09;" xml:space="preserve">
<style type="text/css">
	.st0{fill:#575757;}
</style>
<path class="st0" d="M85.77,515.96c16.63,0.15,33.27,0.03,49.9,0.03c37.92,0,75.85,0,113.77,0c1.81,0,3.61,0,5.74,0
	c0-64.93,0-129.55,0-194.85c-20.44,0-40.94,0-61.79,0c0-29.02,0-57.36,0-86.33c20.62,0,41.12,0,62.11,0c0-10.88,0.02-21.15,0-31.42
	c-0.06-21.37,4.91-41.59,15.31-60.16c13.08-23.34,31.85-40.4,58-47.97c7.1-2.05,14.7-3.13,22.09-3.27
	c22.11-0.42,44.24-0.16,66.36-0.16c0.8,0,1.59,0.11,2.63,0.19c0,28.6,0,56.95,0,85.87c-1.99,0-3.76,0-5.54,0
	c-19.29,0-38.59,0-57.88,0c-11.82,0-19.57,5.4-20.63,17.05c-1.18,12.97-0.27,26.13-0.27,39.6c27.95,0,55.83,0,84.15,0
	c0,28.86,0,57.34,0,86.4c-28.02,0-56.04,0-84.35,0c0,65.2,0,129.82,0,195.03c1.9,0,3.67,0,5.45,0c27.44,0,54.89,0.25,82.33-0.06
	c36.67-0.42,62.71-18.38,79.31-50.3c5.84-11.24,8.55-23.67,8.55-36.56c-0.04-114.1,0.11-228.21-0.09-342.31
	c-0.07-42.43-32.13-79.14-74.01-85.83c-0.95-0.15-1.85-0.61-2.77-0.93c-119.1,0-238.2,0-357.3,0c-9.09,2.92-18.73,4.74-27.18,8.95
	C22.33,22.56,6.14,44.89,0.93,75.08C0.77,76.03,0.32,76.93,0,77.85c0,120.1,0,240.2,0,360.29c2.14,7.46,3.85,15.09,6.51,22.36
	C18.31,492.68,51.23,515.64,85.77,515.96z"/>
</svg>
