<?xml version="1.0" encoding="utf-8"?>
<!-- Generator: Adobe Illustrator 23.0.3, SVG Export Plug-In . SVG Version: 6.00 Build 0)  -->
<svg version="1.1" id="Layer_1" xmlns="http://www.w3.org/2000/svg" xmlns:xlink="http://www.w3.org/1999/xlink" x="0px" y="0px"
	 viewBox="0 0 586.91 517.88" style="enable-background:new 0 0 586.91 517.88;" xml:space="preserve">
<style type="text/css">
	.st0{fill:#FEFCFC;}
	.st1{fill:#575757;}
	.st2{fill:#FFFFFF;}
	.st3{fill:#4C4C4C;}
	.st4{fill:#EFEFEF;}
</style>
<g>
	<path class="st0" d="M293.46,517.81c-96.64,0-193.29-0.01-289.93,0.07c-2.88,0-3.52-0.65-3.52-3.52C0.08,344.08,0.08,173.8,0,3.52
		C0,0.65,0.65,0,3.52,0C196.81,0.08,390.1,0.08,583.39,0c2.88,0,3.52,0.65,3.52,3.52c-0.08,170.28-0.08,340.55,0,510.83
		c0,2.88-0.65,3.53-3.52,3.52C486.74,517.79,390.1,517.81,293.46,517.81z M519.28,513.72c15.68-0.21,31.27-0.9,45.35-9.06
		c5.08-2.94,9.18-6.93,12.19-11.97c6.77-11.33,8.25-24.01,8.27-36.75c0.13-124.5,0.08-249,0.08-373.5c0-1.4-0.07-2.81-0.11-4.21
		c0.05-4.97,0.09-9.95,0.14-14.92c0.14-14.29-2.9-27.72-10.88-39.77c-8.82-13.32-21.33-20.42-37.15-21.86
		c-1.41-0.03-2.81-0.07-4.22-0.07c-159.41,0-318.81,0-478.22,0c-1.41,0-2.81,0.05-4.22,0.07c-2.5-0.55-4.47,1.29-6.87,1.44
		C34.12,3.7,26.46,8.69,20.17,15.08C8.15,27.27,2.55,42.54,2.54,59.55C2.44,191.99,2.47,324.42,2.52,456.85
		c0,9.24,2.08,18.1,5.8,26.61c4.14,9.5,10.37,17.37,18.77,23.2c5.66,3.93,12.14,6.87,19.21,7.21c7.01,0.34,14.06,0.02,21.09-0.01
		c1.53,0.03,3.06,0.1,4.6,0.1c147.51,0,295.02,0,442.54,0c1.41,0,2.81-0.05,4.22-0.07C518.95,513.92,519.13,513.87,519.28,513.72z"
		/>
	<path class="st1" d="M537.16,1.68c15.82,1.44,28.33,8.54,37.15,21.86c7.98,12.05,11.02,25.48,10.88,39.77
		c-0.05,4.97-0.1,9.95-0.14,14.92c-1.4-0.88-2.24,0.44-2.95,1.04c-7.4,6.28-14.73,12.65-22.03,19.05c-8.69,7.61-17.3,15.29-26,22.89
		c-5.1,4.46-10.3,8.81-15.45,13.21c-5.22,4.37-10.4,8.78-15.65,13.11c-6.02,4.97-12.3,9.65-18.1,14.86
		c-7.68,6.9-15.87,13.19-23.69,19.91c-6.02,5.18-12.22,10.15-18.31,15.25c-6.37,5.33-12.67,10.73-19.05,16.05
		c-5.91,4.93-11.91,9.74-17.8,14.69c-6.07,5.09-12.01,10.33-18.08,15.43c-4.35,3.65-8.87,7.1-13.2,10.76
		c-7.31,6.18-14.46,12.54-21.81,18.67c-8.12,6.78-16.47,13.29-24.59,20.08c-11.59,9.7-23.06,19.55-34.59,29.34
		c-0.46-0.01-0.92-0.02-1.38-0.03c-0.24-0.13-0.49-0.27-0.73-0.4c-6.66-5.71-13.3-11.46-20-17.12
		c-6.25-5.28-12.61-10.43-18.87-15.71c-7.78-6.56-15.48-13.23-23.27-19.79c-4.24-3.57-8.78-6.79-12.83-10.55
		c-7.65-7.09-15.82-13.56-23.76-20.29c-3.73-3.17-7.51-6.29-11.24-9.46c-7.93-6.74-15.82-13.54-23.77-20.25
		c-6.15-5.19-12.43-10.23-18.57-15.44c-7.47-6.34-14.79-12.86-22.28-19.18c-7.7-6.49-15.7-12.65-23.27-19.28
		c-8.41-7.37-16.91-14.63-25.62-21.64c-0.04-0.47,0-1.14-0.65-1.02c-0.63,0.12-0.45,0.69-0.18,1.13c-0.08,1.53-0.24,3.05-0.24,4.58
		c-0.01,122.21-0.01,244.41,0,366.62c0,1.53,0.14,3.05,0.22,4.58c-0.41,1.29-0.69,2.58,0.14,3.82c0,0.24-0.02,0.48-0.06,0.71
		c-7.03,0.03-14.07,0.35-21.08,0.01c-7.07-0.34-13.55-3.28-19.21-7.21c-8.4-5.83-14.62-13.7-18.77-23.2
		c-3.72-8.52-5.8-17.38-5.8-26.61C2.47,324.42,2.44,191.99,2.54,59.55c0.01-17.02,5.61-32.28,17.63-44.47
		C26.46,8.69,34.12,3.7,43.64,3.12c2.4-0.14,4.37-1.99,6.87-1.44c-0.01,1.22,0.97,1.65,1.72,2.33c4.38,3.94,8.7,7.96,13.08,11.91
		c5.42,4.88,10.87,9.72,16.33,14.56c5.75,5.1,11.57,10.11,17.28,15.26c6.99,6.31,13.84,12.78,20.84,19.07
		c7.29,6.55,14.77,12.89,22.05,19.45c7.08,6.38,13.94,13,21.03,19.37c7.48,6.74,15.18,13.23,22.66,19.97
		c10.26,9.25,20.34,18.68,30.59,27.93c7.19,6.5,14.59,12.76,21.78,19.26c8.65,7.83,17.12,15.86,25.78,23.69
		c9.24,8.35,18.65,16.52,27.88,24.88c1.44,1.31,1.88,1.04,3.22-0.18c8.93-8.1,18.05-16,27.04-24.03
		c5.61-5.01,11.08-10.17,16.66-15.22c6.8-6.15,13.62-12.3,20.49-18.37c5.74-5.08,11.63-10,17.36-15.09
		c5.9-5.24,11.68-10.61,17.53-15.91c5.77-5.22,11.56-10.42,17.36-15.61c7.21-6.45,14.43-12.89,21.66-19.31
		c5.45-4.84,10.97-9.6,16.39-14.47c5.59-5.02,10.97-10.27,16.66-15.16c5.92-5.08,11.6-10.43,17.54-15.49
		c8.78-7.49,17.04-15.59,25.64-23.3c7.4-6.65,15.13-12.94,22.32-19.8C533.32,5.58,536.39,4.71,537.16,1.68z"/>
	<path class="st2" d="M537.16,1.68c-0.77,3.02-3.84,3.89-5.77,5.73c-7.19,6.86-14.92,13.15-22.32,19.8
		c-8.59,7.72-16.85,15.82-25.64,23.3c-5.94,5.06-11.62,10.41-17.54,15.49c-5.69,4.89-11.08,10.14-16.66,15.16
		c-5.42,4.87-10.94,9.63-16.39,14.47c-7.23,6.42-14.45,12.86-21.66,19.31c-5.8,5.19-11.59,10.39-17.36,15.61
		c-5.85,5.29-11.63,10.67-17.53,15.91c-5.73,5.09-11.62,10.01-17.36,15.09c-6.87,6.08-13.68,12.22-20.49,18.37
		c-5.58,5.05-11.05,10.21-16.66,15.22c-8.99,8.03-18.11,15.93-27.04,24.03c-1.34,1.22-1.78,1.48-3.22,0.18
		c-9.23-8.36-18.64-16.53-27.88-24.88c-8.66-7.82-17.12-15.86-25.78-23.69c-7.19-6.5-14.59-12.76-21.78-19.26
		c-10.25-9.26-20.33-18.69-30.59-27.93c-7.48-6.74-15.18-13.23-22.66-19.97c-7.08-6.38-13.95-12.99-21.03-19.37
		c-7.28-6.56-14.76-12.9-22.05-19.45c-7.01-6.29-13.85-12.76-20.84-19.07c-5.7-5.15-11.53-10.16-17.28-15.26
		c-5.46-4.84-10.91-9.68-16.33-14.56c-4.38-3.95-8.69-7.97-13.08-11.91c-0.76-0.68-1.74-1.11-1.72-2.33
		c1.41-0.03,2.81-0.07,4.22-0.07c159.41,0,318.81,0,478.22,0C534.35,1.61,535.76,1.66,537.16,1.68z"/>
	<path class="st2" d="M292.37,322.54c0.46,0.01,0.92,0.02,1.38,0.03c-0.15,1.72,1.17,2.3,2.29,3.19c2.96,2.34,5.77,4.87,8.65,7.3
		c7.8,6.58,15.61,13.15,23.4,19.74c3.95,3.34,7.87,6.7,11.8,10.05c7.6,6.46,15.17,12.96,22.81,19.36
		c6.29,5.27,12.73,10.38,19.01,15.66c7.43,6.24,14.73,12.63,22.14,18.89c7.91,6.68,15.92,13.24,23.83,19.92
		c8,6.76,15.89,13.64,23.88,20.4c5.39,4.57,10.9,8.99,16.3,13.56c6.45,5.46,12.82,11.02,19.25,16.5
		c6.15,5.24,12.25,10.55,18.55,15.6c4.32,3.47,8.06,7.67,12.93,10.45l0.24,0.06c-0.13,0.2-0.17,0.41-0.11,0.65
		c-1.41,0.02-2.81,0.07-4.22,0.07c-147.51,0-295.02,0-442.54,0c-1.53,0-3.06-0.06-4.6-0.1c0.04-0.24,0.06-0.47,0.06-0.71
		c4.89-2.96,8.84-7.07,13.2-10.69c7.67-6.38,15.21-12.91,22.84-19.35c6.46-5.45,13-10.81,19.45-16.27
		c7.32-6.2,14.54-12.53,21.89-18.69c7.83-6.56,15.82-12.93,23.63-19.51c9.73-8.2,19.34-16.57,29.03-24.82
		c7.21-6.13,14.49-12.2,21.74-18.29c8.31-6.98,16.77-13.8,24.87-21.02c4.59-4.1,9.94-7.39,13.72-12.39l-0.02,0.02
		c3.52-1.79,6.87-3.77,8.46-7.69l-0.02,0.02c0.68,0.05,1.24-0.12,1.56-0.78l-0.02,0.02c1.91-0.66,3.99-1.15,3.85-3.86l-0.02,0.02
		c1.16,0.06,2.28,0.06,2.32-1.55l-0.02,0.02c4.05-1.97,7.49-4.66,9.99-8.46l-0.02,0.02C287.26,328.1,290.72,326.37,292.37,322.54z"
		/>
	<path class="st3" d="M518.61,134.42c5.15-4.4,10.35-8.76,15.45-13.21c8.69-7.6,17.31-15.28,26-22.89
		c7.3-6.4,14.63-12.77,22.03-19.05c0.71-0.6,1.55-1.92,2.95-1.04c0.04,1.4,0.11,2.81,0.11,4.21c0.01,124.5,0.06,249-0.08,373.5
		c-0.01,12.74-1.49,25.42-8.27,36.75c-3.01,5.04-7.11,9.03-12.19,11.97c-14.08,8.16-29.67,8.85-45.35,9.06
		c-0.03-0.26-0.18-0.41-0.43-0.47c0,0-0.24-0.06-0.24-0.06c0.05-1.27,0.14-2.55,0.14-3.82c0-123.7-0.01-247.41-0.02-371.11
		C518.73,136.97,518.65,135.69,518.61,134.42z"/>
	<path class="st4" d="M518.61,134.42c0.04,1.28,0.12,2.55,0.12,3.83c0.01,123.7,0.02,247.41,0.02,371.11c0,1.27-0.09,2.55-0.14,3.82
		c-4.87-2.79-8.61-6.98-12.93-10.45c-6.3-5.06-12.4-10.36-18.55-15.6c-6.43-5.48-12.8-11.04-19.25-16.5
		c-5.39-4.56-10.91-8.99-16.3-13.56c-7.99-6.77-15.88-13.65-23.88-20.4c-7.91-6.68-15.92-13.24-23.83-19.92
		c-7.41-6.26-14.71-12.65-22.14-18.89c-6.29-5.28-12.72-10.39-19.01-15.66c-7.64-6.4-15.21-12.9-22.81-19.36
		c-3.94-3.35-7.86-6.72-11.8-10.05c-7.79-6.59-15.61-13.15-23.4-19.74c-2.88-2.43-5.69-4.96-8.65-7.3
		c-1.12-0.89-2.43-1.46-2.29-3.19c11.52-9.79,22.99-19.64,34.59-29.34c8.11-6.79,16.46-13.3,24.59-20.08
		c7.35-6.13,14.5-12.49,21.81-18.67c4.33-3.66,8.85-7.11,13.2-10.76c6.07-5.09,12.01-10.33,18.08-15.43
		c5.89-4.95,11.89-9.76,17.8-14.69c6.38-5.32,12.68-10.72,19.05-16.05c6.09-5.1,12.29-10.07,18.31-15.25
		c7.82-6.72,16.01-13.01,23.69-19.91c5.8-5.21,12.08-9.89,18.1-14.86C508.21,143.2,513.4,138.79,518.61,134.42z"/>
	<path class="st2" d="M68.16,133.43c8.71,7.01,17.21,14.27,25.62,21.64c7.58,6.64,15.57,12.79,23.27,19.28
		c7.49,6.31,14.81,12.84,22.28,19.18c6.14,5.21,12.41,10.25,18.57,15.44c7.96,6.71,15.84,13.51,23.77,20.25
		c3.73,3.17,7.51,6.29,11.24,9.46c7.94,6.74,16.11,13.2,23.76,20.29c4.05,3.76,8.6,6.98,12.83,10.55
		c7.79,6.56,15.49,13.22,23.27,19.79c6.26,5.28,12.62,10.43,18.87,15.71c6.7,5.66,13.34,11.41,20,17.12c-0.62,1.6-1.89,2.6-3.26,3.5
		c-1.77,1.15-3.75,2.06-4.53,4.26c0,0,0.02-0.02,0.02-0.02c-4.17,1.83-7.17,5.04-9.99,8.46l0.02-0.02c-1.12,0-1.9,0.52-2.32,1.55
		c0,0,0.02-0.02,0.02-0.02c-2.16,0.41-3.07,2.07-3.85,3.86c0,0,0.02-0.02,0.02-0.02c-0.68-0.06-1.25,0.1-1.56,0.78
		c0,0,0.02-0.02,0.02-0.02c-3.22,2.12-6.66,4-8.46,7.69c0,0,0.02-0.02,0.02-0.02c-3.23-0.44-4.09,2.7-6,4.14
		c-6.44,4.87-12.7,9.98-18.89,15.16c-7.44,6.22-14.68,12.67-22.12,18.88c-8.13,6.79-16.45,13.35-24.59,20.13
		c-9.39,7.83-18.52,15.98-28.05,23.64c-9.85,7.91-19.41,16.15-29.2,24.13c-10.14,8.27-20.12,16.78-30.15,25.21
		c-6.08,5.11-11.88,10.59-18.23,15.34c-4.54,3.4-8.12,7.96-13.25,10.57c-0.08-1.53-0.22-3.05-0.22-4.58
		c-0.01-122.21-0.01-244.41,0-366.62c0-1.53,0.15-3.05,0.23-4.58C67.6,133.51,67.88,133.47,68.16,133.43z"/>
	<path class="st4" d="M67.31,509.33c5.13-2.61,8.72-7.18,13.25-10.57c6.35-4.75,12.15-10.23,18.23-15.34
		c10.03-8.43,20.01-16.93,30.15-25.21c9.78-7.98,19.35-16.22,29.2-24.13c9.53-7.65,18.66-15.81,28.05-23.64
		c8.14-6.78,16.46-13.34,24.59-20.13c7.44-6.21,14.68-12.67,22.12-18.88c6.2-5.18,12.45-10.3,18.89-15.16
		c1.92-1.45,2.78-4.59,6-4.14c-3.78,5-9.12,8.29-13.72,12.39c-8.09,7.22-16.56,14.04-24.87,21.02
		c-7.25,6.09-14.52,12.15-21.74,18.29c-9.7,8.25-19.3,16.61-29.03,24.82c-7.81,6.58-15.8,12.95-23.63,19.51
		c-7.35,6.16-14.57,12.49-21.89,18.69c-6.45,5.46-12.98,10.82-19.45,16.27c-7.63,6.43-15.17,12.97-22.84,19.35
		c-4.35,3.62-8.31,7.73-13.2,10.69C66.61,511.9,66.9,510.62,67.31,509.33z"/>
	<path class="st4" d="M283.86,329.9c0.77-2.2,2.76-3.11,4.53-4.26c1.37-0.89,2.64-1.9,3.26-3.5c0.24,0.13,0.49,0.26,0.73,0.4
		C290.72,326.37,287.26,328.1,283.86,329.9z"/>
	<path class="st4" d="M68.16,133.43c-0.28,0.04-0.56,0.08-0.84,0.12c-0.27-0.44-0.45-1.01,0.18-1.13
		C68.15,132.29,68.12,132.97,68.16,133.43z"/>
	<path class="st4" d="M273.88,338.33c2.83-3.42,5.83-6.63,9.99-8.46C281.37,333.67,277.94,336.37,273.88,338.33z"/>
	<path class="st4" d="M257.78,352.14c1.79-3.69,5.23-5.57,8.46-7.69C264.65,348.37,261.3,350.35,257.78,352.14z"/>
	<path class="st4" d="M267.75,343.7c0.79-1.78,1.7-3.44,3.85-3.86C271.74,342.55,269.66,343.04,267.75,343.7z"/>
	<path class="st4" d="M271.58,339.87c0.43-1.04,1.2-1.55,2.32-1.55C273.86,339.93,272.74,339.93,271.58,339.87z"/>
	<path class="st4" d="M266.21,344.47c0.31-0.68,0.88-0.85,1.56-0.78C267.46,344.35,266.89,344.52,266.21,344.47z"/>
</g>
</svg>
