<?xml version="1.0" encoding="utf-8"?>
<!-- Generator: Adobe Illustrator 23.0.3, SVG Export Plug-In . SVG Version: 6.00 Build 0)  -->
<svg version="1.1" id="Layer_1" xmlns="http://www.w3.org/2000/svg" xmlns:xlink="http://www.w3.org/1999/xlink" x="0px" y="0px"
	 viewBox="0 0 511.04 516.09" style="enable-background:new 0 0 511.04 516.09;" xml:space="preserve">
<style type="text/css">
	.st0{fill:#575757;}
</style>
<g>
	<path class="st0" d="M131.17,0.92c83.66,0,167.32,0,250.98,0c1.62,0.3,3.24,0.7,4.87,0.89c23.71,2.66,45.67,10.4,65.06,24.26
		c40.66,29.06,61.31,68.93,61.51,118.88c0.29,75.96,0.08,151.92,0.07,227.88c0,20.13-3.01,39.84-11.62,58.07
		c-26.25,55.64-70.41,85.11-131.98,85.82c-75.62,0.87-151.25,0.22-226.87,0.2c-15.31,0-30.43-1.83-44.91-6.9
		c-49.64-17.37-81.44-51.44-94.6-102.48c-1.95-7.55-2.71-15.41-4.02-23.13c0-83.66,0-167.32,0-250.98
		c0.84-5.59,1.33-11.25,2.56-16.75C15.29,58.44,50.56,21.1,108.11,5.13C115.61,3.04,123.47,2.29,131.17,0.92z M468.09,258.4
		c0-36.97,0.05-73.94-0.03-110.9c-0.03-12.07-1.05-24.04-5.16-35.55c-14.47-40.51-49.31-65.27-93.23-65.4
		c-75.27-0.22-150.55-0.07-225.82-0.06c-17.71,0-34.62,3.56-49.89,12.75c-32.93,19.81-48.72,49.34-48.72,87.54
		c-0.01,74.77-0.22,149.55,0.22,224.32c0.07,11.53,1.52,23.59,5.16,34.47c13.61,40.76,48.88,65.55,92.78,65.71
		c75.44,0.28,150.88,0.18,226.32,0.03c33.7-0.06,60.83-13.63,80.74-40.99c12.88-17.7,17.68-37.9,17.65-59.51
		C468.05,333.34,468.09,295.87,468.09,258.4z"/>
	<path class="st0" d="M389.12,258.85c-0.89,76.67-61.47,132.81-132.2,133.02c-70.07,0.21-132.4-55.37-132.55-133
		c-0.15-76.88,62.86-132.88,132.02-133.09C325.05,125.57,388.41,181.24,389.12,258.85z M256.65,345.68
		c47.83,0.01,86.76-38.92,86.77-86.76c0.01-47.83-38.92-86.76-86.76-86.77c-47.84,0-86.76,38.91-86.76,86.76
		C169.89,306.75,208.81,345.68,256.65,345.68z"/>
	<path class="st0" d="M394.43,86.96c18.4-0.17,33.68,14.92,33.69,33.29c0.01,19.07-14.63,34.2-33.21,34.33
		c-18.8,0.13-33.72-15.08-33.69-34.35C361.24,102.06,376.14,87.14,394.43,86.96z"/>
</g>
</svg>
