<?xml version="1.0" encoding="utf-8"?>
<!-- Generator: Adobe Illustrator 23.0.3, SVG Export Plug-In . SVG Version: 6.00 Build 0)  -->
<svg version="1.1" id="Layer_1" xmlns="http://www.w3.org/2000/svg" xmlns:xlink="http://www.w3.org/1999/xlink" x="0px" y="0px"
	 viewBox="0 0 512 512" style="enable-background:new 0 0 512 512;" xml:space="preserve">
<style type="text/css">
	.st0{fill:#575757;}
</style>
<path class="st0" d="M500.34,19.05C492.32,9.55,482.4,3.4,470.2,0.92c-0.77-0.16-1.47-0.6-2.2-0.92C326.67,0,185.33,0,44,0
	c-8.96,2.51-17.65,5.49-24.95,11.66C9.55,19.68,3.4,29.6,0.92,41.8C0.76,42.56,0.31,43.27,0,44c0,141.33,0,282.67,0,424
	c2.51,8.96,5.49,17.65,11.66,24.95c8.02,9.5,17.94,15.65,30.14,18.14c0.77,0.16,1.47,0.6,2.2,0.92c141.33,0,282.67,0,424,0
	c8.96-2.51,17.65-5.49,24.95-11.66c9.5-8.02,15.65-17.94,18.14-30.14c0.16-0.77,0.6-1.47,0.92-2.2c0-141.33,0-282.67,0-424
	C509.49,35.04,506.51,26.35,500.34,19.05z M153.29,434.74c-25.28,0-50.5,0-76.06,0c0-76.38,0-152.76,0-229.68
	c25.46,0,50.57,0,76.06,0C153.29,281.62,153.29,358,153.29,434.74z M114.6,161.12c-25.38-0.45-45.79-21.15-45.48-46.15
	c0.32-25.47,21.42-46.32,46.41-45.86c25.63,0.48,45.93,21.2,45.6,46.54C160.79,141.26,140.01,161.57,114.6,161.12z M434.94,434.72
	c-25.31,0-50.54,0-76.59,0c0-1.84,0-3.75,0-5.67c0-42.16,0.03-84.32-0.02-126.48c-0.02-19.65-10.33-34.12-28.05-39.71
	c-21.46-6.76-46.25,9.8-48.22,32.27c-0.28,3.15-0.39,6.32-0.39,9.48c-0.02,41.33-0.02,82.65-0.02,123.98c0,1.96,0,3.93,0,6.28
	c-25.98,0-51.08,0-76.48,0c0-76.62,0-153.01,0-229.7c25.4,0,50.63,0,76.47,0c0,9.54,0,18.93,0,29.37c3.97-4.4,6.89-8.17,10.34-11.37
	c17.53-16.2,37.95-25.83,62.15-22.91c35.74,4.3,60.59,23.96,74.77,56.97c4.32,10.04,6.18,20.69,6.18,31.65
	c0,47.66,0.01,95.32,0.01,142.98C435.1,432.69,435.01,433.51,434.94,434.72z"/>
</svg>
